<?xml version="1.0" encoding="UTF-8"?>
<svg width="540px" height="558px" viewBox="0 0 540 558" version="1.1" xmlns="http://www.w3.org/2000/svg" xmlns:xlink="http://www.w3.org/1999/xlink">
    <title>Illustration</title>
    <defs>
        <filter x="-15.4%" y="-27.9%" width="130.7%" height="155.9%" filterUnits="objectBoundingBox" id="filter-1">
            <feMorphology radius="6" operator="dilate" in="SourceAlpha" result="shadowSpreadOuter1"></feMorphology>
            <feOffset dx="0" dy="2" in="shadowSpreadOuter1" result="shadowOffsetOuter1"></feOffset>
            <feGaussianBlur stdDeviation="7" in="shadowOffsetOuter1" result="shadowBlurOuter1"></feGaussianBlur>
            <feColorMatrix values="0 0 0 0 0   0 0 0 0 0   0 0 0 0 0  0 0 0 0.106261322 0" type="matrix" in="shadowBlurOuter1" result="shadowMatrixOuter1"></feColorMatrix>
            <feMerge>
                <feMergeNode in="shadowMatrixOuter1"></feMergeNode>
                <feMergeNode in="SourceGraphic"></feMergeNode>
            </feMerge>
        </filter>
        <filter x="-15.4%" y="-27.9%" width="130.7%" height="155.9%" filterUnits="objectBoundingBox" id="filter-2">
            <feMorphology radius="6" operator="dilate" in="SourceAlpha" result="shadowSpreadOuter1"></feMorphology>
            <feOffset dx="0" dy="2" in="shadowSpreadOuter1" result="shadowOffsetOuter1"></feOffset>
            <feGaussianBlur stdDeviation="7" in="shadowOffsetOuter1" result="shadowBlurOuter1"></feGaussianBlur>
            <feColorMatrix values="0 0 0 0 0   0 0 0 0 0   0 0 0 0 0  0 0 0 0.106261322 0" type="matrix" in="shadowBlurOuter1" result="shadowMatrixOuter1"></feColorMatrix>
            <feMerge>
                <feMergeNode in="shadowMatrixOuter1"></feMergeNode>
                <feMergeNode in="SourceGraphic"></feMergeNode>
            </feMerge>
        </filter>
        <filter x="-85.5%" y="-11.2%" width="271.1%" height="122.4%" filterUnits="objectBoundingBox" id="filter-3">
            <feGaussianBlur stdDeviation="2.18973214" in="SourceGraphic"></feGaussianBlur>
        </filter>
        <rect id="path-4" x="0" y="0" width="273.6" height="322.56" rx="40.32"></rect>
        <rect id="path-6" x="0" y="0" width="273.6" height="322.56" rx="40.32"></rect>
    </defs>
    <g id="🌶-Templates" stroke="none" stroke-width="1" fill="none" fill-rule="evenodd">
        <g id="saas-1" transform="translate(-735.000000, -1922.000000)">
            <g id="Section-02" transform="translate(0.000000, 1825.000000)">
                <g id="Content" transform="translate(165.000000, 120.480000)">
                    <g id="Illustration" transform="translate(570.000000, 0.000000)">
                        <path d="M297.169711,495.172755 C489.80397,533.644593 522.830766,435.367389 538.345597,277.839305 C553.860428,120.311221 459.23888,7.52 297.169711,7.52 C135.100542,7.52 31.2708596,109.23898 3.71752183,251.346377 C-23.8358159,393.453775 104.535452,456.700917 297.169711,495.172755 Z" id="Oval" fill="#121212"></path>
                        <g id="Group-6" transform="translate(122.000000, 0.000000)">
                            <g id="STRAP-UP" filter="url(#filter-1)" transform="translate(32.786565, 0.000000)">
                                <g id="Band-/-Lemonade">
                                    <path d="M0.067242124,132.48 C-0.647456805,127.00459 4.33510509,121.00447 15.0149278,114.47964 C25.6947505,107.954811 31.8944119,100.289046 33.6139118,91.4823469 L38.7371071,21.3611269 C39.6168589,9.31995678 49.6425923,1.64286776e-14 61.7158579,0 L177.390317,0 C189.643882,-1.03318801e-06 199.753705,9.59119473 200.398407,21.8277878 C202.472637,61.1971979 204.318705,84.4153843 205.936609,91.4823469 C208.78232,103.912336 214.119271,107.672294 225.512907,114.47964 C233.108664,119.017871 238.159985,124.966871 240.66687,132.326642 L0.067242124,132.48 Z" id="straps" fill="#444444"></path>
                                    <path d="M83.248855,85.44 C84.44179,85.44 85.52179,85.9235325 86.3035563,86.7052987 C87.0853225,87.4870649 87.568855,88.5670649 87.568855,89.76 L87.568855,89.76 L87.568855,92.64 C87.568855,93.8329351 87.0853225,94.9129351 86.3035563,95.6947013 C85.52179,96.4764675 84.44179,96.96 83.248855,96.96 L83.248855,96.96 L52.7377099,96.96 C51.5447749,96.96 50.4647749,96.4764675 49.6830086,95.6947013 C48.9012424,94.9129351 48.4177099,93.8329351 48.4177099,92.64 L48.4177099,92.64 L48.4177099,89.76 C48.4177099,88.5670649 48.9012424,87.4870649 49.6830086,86.7052987 C50.4647749,85.9235325 51.5447749,85.44 52.7377099,85.44 L52.7377099,85.44 Z M136.078168,85.44 C137.271103,85.44 138.351103,85.9235325 139.132869,86.7052987 C139.914635,87.4870649 140.398168,88.5670649 140.398168,89.76 L140.398168,89.76 L140.398168,92.64 C140.398168,93.8329351 139.914635,94.9129351 139.132869,95.6947013 C138.351103,96.4764675 137.271103,96.96 136.078168,96.96 L136.078168,96.96 L105.567023,96.96 C104.374088,96.96 103.294088,96.4764675 102.512322,95.6947013 C101.730555,94.9129351 101.247023,93.8329351 101.247023,92.64 L101.247023,92.64 L101.247023,89.76 C101.247023,88.5670649 101.730555,87.4870649 102.512322,86.7052987 C103.294088,85.9235325 104.374088,85.44 105.567023,85.44 L105.567023,85.44 Z M188.907481,85.44 C190.100416,85.44 191.180416,85.9235325 191.962182,86.7052987 C192.743948,87.4870649 193.227481,88.5670649 193.227481,89.76 L193.227481,89.76 L193.227481,92.64 C193.227481,93.8329351 192.743948,94.9129351 191.962182,95.6947013 C191.180416,96.4764675 190.100416,96.96 188.907481,96.96 L188.907481,96.96 L158.396336,96.96 C157.203401,96.96 156.123401,96.4764675 155.341635,95.6947013 C154.559868,94.9129351 154.076336,93.8329351 154.076336,92.64 L154.076336,92.64 L154.076336,89.76 C154.076336,88.5670649 154.559868,87.4870649 155.341635,86.7052987 C156.123401,85.9235325 157.203401,85.44 158.396336,85.44 L158.396336,85.44 Z" id="Combined-Shape" stroke="#968E3C" stroke-width="0.96" fill="#C1B750"></path>
                                </g>
                            </g>
                            <g id="STRAP-DOWN" filter="url(#filter-2)" transform="translate(153.120000, 444.480000) scale(1, -1) translate(-153.120000, -444.480000) translate(32.786565, 378.240000)">
                                <g id="Band-/-Lemonade">
                                    <path d="M0.067242124,132.48 C-0.647456805,127.00459 4.33510509,121.00447 15.0149278,114.47964 C25.6947505,107.954811 31.8944119,100.289046 33.6139118,91.4823469 L38.7371071,21.3611269 C39.6168589,9.31995678 49.6425923,1.64286776e-14 61.7158579,0 L177.390317,0 C189.643882,-1.03318801e-06 199.753705,9.59119473 200.398407,21.8277878 C202.472637,61.1971979 204.318705,84.4153843 205.936609,91.4823469 C208.78232,103.912336 214.119271,107.672294 225.512907,114.47964 C233.108664,119.017871 238.159985,124.966871 240.66687,132.326642 L0.067242124,132.48 Z" id="straps" fill="#444444"></path>
                                    <path d="M83.248855,85.44 C84.44179,85.44 85.52179,85.9235325 86.3035563,86.7052987 C87.0853225,87.4870649 87.568855,88.5670649 87.568855,89.76 L87.568855,89.76 L87.568855,92.64 C87.568855,93.8329351 87.0853225,94.9129351 86.3035563,95.6947013 C85.52179,96.4764675 84.44179,96.96 83.248855,96.96 L83.248855,96.96 L52.7377099,96.96 C51.5447749,96.96 50.4647749,96.4764675 49.6830086,95.6947013 C48.9012424,94.9129351 48.4177099,93.8329351 48.4177099,92.64 L48.4177099,92.64 L48.4177099,89.76 C48.4177099,88.5670649 48.9012424,87.4870649 49.6830086,86.7052987 C50.4647749,85.9235325 51.5447749,85.44 52.7377099,85.44 L52.7377099,85.44 Z M136.078168,85.44 C137.271103,85.44 138.351103,85.9235325 139.132869,86.7052987 C139.914635,87.4870649 140.398168,88.5670649 140.398168,89.76 L140.398168,89.76 L140.398168,92.64 C140.398168,93.8329351 139.914635,94.9129351 139.132869,95.6947013 C138.351103,96.4764675 137.271103,96.96 136.078168,96.96 L136.078168,96.96 L105.567023,96.96 C104.374088,96.96 103.294088,96.4764675 102.512322,95.6947013 C101.730555,94.9129351 101.247023,93.8329351 101.247023,92.64 L101.247023,92.64 L101.247023,89.76 C101.247023,88.5670649 101.730555,87.4870649 102.512322,86.7052987 C103.294088,85.9235325 104.374088,85.44 105.567023,85.44 L105.567023,85.44 Z M188.907481,85.44 C190.100416,85.44 191.180416,85.9235325 191.962182,86.7052987 C192.743948,87.4870649 193.227481,88.5670649 193.227481,89.76 L193.227481,89.76 L193.227481,92.64 C193.227481,93.8329351 192.743948,94.9129351 191.962182,95.6947013 C191.180416,96.4764675 190.100416,96.96 188.907481,96.96 L188.907481,96.96 L158.396336,96.96 C157.203401,96.96 156.123401,96.4764675 155.341635,95.6947013 C154.559868,94.9129351 154.076336,93.8329351 154.076336,92.64 L154.076336,92.64 L154.076336,89.76 C154.076336,88.5670649 154.559868,87.4870649 155.341635,86.7052987 C156.123401,85.9235325 157.203401,85.44 158.396336,85.44 L158.396336,85.44 Z" id="Combined-Shape" stroke="#968E3C" stroke-width="0.96" fill="#C1B750"></path>
                                </g>
                            </g>
                            <g id="Base" transform="translate(0.000000, 84.000000)">
                                <rect id="Watch-base" fill="#1E1E1E" x="0" y="0" width="296.64" height="342.72" rx="54.72"></rect>
                                <g id="Rotater-" transform="translate(288.960000, 78.720000)">
                                    <path d="M7.68,0 C2.56,3.67818033 0,13.5507006 0,29.6175608 C0,45.684421 2.5313624,55.3319007 7.5940872,58.56 L7.68,0 Z" id="rotater-shadows" filter="url(#filter-3)"></path>
                                </g>
                            </g>
                            <g id="👉-Your-desing-here" transform="translate(11.520000, 94.560000)">
                                <mask id="mask-5" fill="white">
                                    <use xlink:href="#path-4"></use>
                                </mask>
                                <use id="Mask" fill="#1E1E1E" xlink:href="#path-4"></use>
                                <mask id="mask-7" fill="white">
                                    <use xlink:href="#path-6"></use>
                                </mask>
                                <g id="inner-shadows"></g>
                            </g>
                            <g id="Group-5" transform="translate(47.374435, 134.529577)">
                                <g id="Dots" transform="translate(92.130180, 238.031937)" fill="#FFFFFF">
                                    <path d="M2.05476923,0 C3.18958694,0 4.10953846,0.92106134 4.10953846,2.05724808 C4.10953846,3.19343482 3.18958694,4.11449616 2.05476923,4.11449616 C0.91995152,4.11449616 0,3.19343482 0,2.05724808 C0,0.92106134 0.91995152,0 2.05476923,0 Z M10.2738462,0 C11.4086639,0 12.3286154,0.92106134 12.3286154,2.05724808 C12.3286154,3.19343482 11.4086639,4.11449616 10.2738462,4.11449616 C9.13902844,4.11449616 8.21907692,3.19343482 8.21907692,2.05724808 C8.21907692,0.92106134 9.13902844,0 10.2738462,0 Z M18.4929231,0 C19.6277408,0 20.5476923,0.92106134 20.5476923,2.05724808 C20.5476923,3.19343482 19.6277408,4.11449616 18.4929231,4.11449616 C17.3581054,4.11449616 16.4381538,3.19343482 16.4381538,2.05724808 C16.4381538,0.92106134 17.3581054,0 18.4929231,0 Z" fill-opacity="0.35"></path>
                                    <ellipse id="Dot---Selected" cx="10.9587692" cy="2.05724808" rx="2.05476923" ry="2.05724808"></ellipse>
                                </g>
                                <g id="Status-Bar" transform="translate(1.692700, 0.000000)" fill="#605F5F" fill-rule="nonzero">
                                    <path d="M5.99307692,15.7104231 L5.99307692,0.267548077 L4.10953846,0.267548077 C3.83842308,0.467317308 3.56552404,0.665302885 3.29084135,0.861504808 L2.87881731,1.15580769 L2.87881731,1.15580769 L2.46679327,1.45011058 C2.19211058,1.6463125 1.91742788,1.84251442 1.64274519,2.03871635 C1.3680625,2.23491827 1.09337981,2.43112019 0.818697115,2.62732212 C0.544014423,2.82352404 0.271115385,3.02150962 0,3.22127885 L0,5.15832692 C0.271115385,4.96569231 0.544014423,4.77484135 0.818697115,4.58577404 C1.09337981,4.39670673 1.36627885,4.20763942 1.63739423,4.01857212 C1.90850962,3.82950481 2.179625,3.6404375 2.45074038,3.45137019 C2.72185577,3.26230288 2.99475481,3.07323558 3.2694375,2.88416827 C3.54412019,2.69510096 3.81701923,2.50425 4.08813462,2.31161538 L4.13094231,2.31161538 L4.13094231,15.7104231 L5.99307692,15.7104231 Z M15.6462115,15.9672692 C16.8448269,15.9672692 17.8668606,15.6408606 18.7123125,14.9880433 C19.5577644,14.335226 20.2034471,13.4095096 20.6493606,12.2108942 C21.095274,11.0122788 21.3182308,9.599625 21.3182308,7.97293269 C21.3182308,6.353375 21.095274,4.94785577 20.6493606,3.756375 C20.2034471,2.56489423 19.5577644,1.64274519 18.7123125,0.989927885 C17.8668606,0.337110577 16.8448269,0.0107019231 15.6462115,0.0107019231 C14.4547308,0.0107019231 13.4326971,0.338894231 12.5801106,0.995278846 C11.727524,1.65166346 11.0764904,2.57737981 10.6270096,3.77242788 C10.1775288,4.96747596 9.95278846,6.37121154 9.95278846,7.98363462 C9.95278846,9.61032692 10.1775288,11.0211971 10.6270096,12.2162452 C11.0764904,13.4112933 11.7257404,14.335226 12.5747596,14.9880433 C13.4237788,15.6408606 14.4475962,15.9672692 15.6462115,15.9672692 Z M15.6462115,14.2870673 C14.84,14.2870673 14.1568606,14.0284375 13.5967933,13.5111779 C13.036726,12.9939183 12.6122163,12.2626202 12.3232644,11.3172837 C12.0343125,10.3719471 11.8898365,9.25716346 11.8898365,7.97293269 C11.8898365,6.71724038 12.0378798,5.61850962 12.3339663,4.67674038 C12.6300529,3.73497115 13.0563462,3.00367308 13.6128462,2.48284615 C14.1693462,1.96201923 14.8471346,1.70160577 15.6462115,1.70160577 C16.4452885,1.70160577 17.1212933,1.96201923 17.674226,2.48284615 C18.2271587,3.00367308 18.6498846,3.7331875 18.9424038,4.67138942 C19.2349231,5.60959135 19.3811827,6.71367308 19.3811827,7.98363462 C19.3811827,9.26786538 19.2367067,10.3808654 18.9477548,11.3226346 C18.6588029,12.2644038 18.2378606,12.9939183 17.6849279,13.5111779 C17.1319952,14.0284375 16.4524231,14.2870673 15.6462115,14.2870673 Z M25.3956635,4.89077885 C25.738125,4.89077885 26.0270769,4.77305769 26.2625192,4.53761538 C26.4979615,4.30217308 26.6156827,4.01322115 26.6156827,3.67075962 C26.6156827,3.32829808 26.4979615,3.03934615 26.2625192,2.80390385 C26.0270769,2.56846154 25.738125,2.45074038 25.3956635,2.45074038 C25.0532019,2.45074038 24.76425,2.56846154 24.5288077,2.80390385 C24.2933654,3.03934615 24.1756442,3.32829808 24.1756442,3.67075962 C24.1756442,4.01322115 24.2933654,4.30217308 24.5288077,4.53761538 C24.76425,4.77305769 25.0532019,4.89077885 25.3956635,4.89077885 Z M25.3956635,13.5165288 C25.738125,13.5165288 26.0270769,13.3988077 26.2625192,13.1633654 C26.4979615,12.9279231 26.6156827,12.6389712 26.6156827,12.2965096 C26.6156827,11.9540481 26.4979615,11.6650962 26.2625192,11.4296538 C26.0270769,11.1942115 25.738125,11.0764904 25.3956635,11.0764904 C25.0532019,11.0764904 24.76425,11.1942115 24.5288077,11.4296538 C24.2933654,11.6650962 24.1756442,11.9540481 24.1756442,12.2965096 C24.1756442,12.6389712 24.2933654,12.9279231 24.5288077,13.1633654 C24.76425,13.3988077 25.0532019,13.5165288 25.3956635,13.5165288 Z M35.1665192,15.9672692 C36.3651346,15.9672692 37.3871683,15.6408606 38.2326202,14.9880433 C39.0780721,14.335226 39.7237548,13.4095096 40.1696683,12.2108942 C40.6155817,11.0122788 40.8385385,9.599625 40.8385385,7.97293269 C40.8385385,6.353375 40.6155817,4.94785577 40.1696683,3.756375 C39.7237548,2.56489423 39.0780721,1.64274519 38.2326202,0.989927885 C37.3871683,0.337110577 36.3651346,0.0107019231 35.1665192,0.0107019231 C33.9750385,0.0107019231 32.9530048,0.338894231 32.1004183,0.995278846 C31.2478317,1.65166346 30.5967981,2.57737981 30.1473173,3.77242788 C29.6978365,4.96747596 29.4730962,6.37121154 29.4730962,7.98363462 C29.4730962,9.61032692 29.6978365,11.0211971 30.1473173,12.2162452 C30.5967981,13.4112933 31.2460481,14.335226 32.0950673,14.9880433 C32.9440865,15.6408606 33.9679038,15.9672692 35.1665192,15.9672692 Z M35.1665192,14.2870673 C34.3603077,14.2870673 33.6771683,14.0284375 33.117101,13.5111779 C32.5570337,12.9939183 32.132524,12.2626202 31.8435721,11.3172837 C31.5546202,10.3719471 31.4101442,9.25716346 31.4101442,7.97293269 C31.4101442,6.71724038 31.5581875,5.61850962 31.854274,4.67674038 C32.1503606,3.73497115 32.5766538,3.00367308 33.1331538,2.48284615 C33.6896538,1.96201923 34.3674423,1.70160577 35.1665192,1.70160577 C35.9655962,1.70160577 36.641601,1.96201923 37.1945337,2.48284615 C37.7474663,3.00367308 38.1701923,3.7331875 38.4627115,4.67138942 C38.7552308,5.60959135 38.9014904,6.71367308 38.9014904,7.98363462 C38.9014904,9.26786538 38.7570144,10.3808654 38.4680625,11.3226346 C38.1791106,12.2644038 37.7581683,12.9939183 37.2052356,13.5111779 C36.6523029,14.0284375 35.9727308,14.2870673 35.1665192,14.2870673 Z M48.2977788,15.9672692 C49.5606058,15.9672692 50.6379327,15.6426442 51.5297596,14.9933942 C52.4215865,14.3441442 53.1029423,13.4041587 53.5738269,12.1734375 C54.0447115,10.9427163 54.2801538,9.4605 54.2801538,7.72678846 C54.2801538,6.26419231 54.1071394,5.03703846 53.7611106,4.04532692 C53.4150817,3.05361538 52.954899,2.26167308 52.3805625,1.6695 C51.806226,1.07732692 51.1748125,0.651033654 50.4863221,0.390620192 C49.7978317,0.130206731 49.1075577,0 48.4155,0 C47.3595769,0 46.4195913,0.228307692 45.5955433,0.684923077 C44.7714952,1.14153846 44.1240288,1.76581731 43.6531442,2.55775962 C43.1822596,3.34970192 42.9468173,4.25579808 42.9468173,5.27604808 C42.9468173,6.25349038 43.169774,7.12748077 43.6156875,7.89801923 C44.061601,8.66855769 44.6716106,9.275 45.4457163,9.71734615 C46.2198221,10.1596923 47.0955962,10.3808654 48.0730385,10.3808654 C48.7294231,10.3808654 49.3447837,10.2774135 49.9191202,10.0705096 C50.4934567,9.86360577 50.9946635,9.56930288 51.4227404,9.18760096 C51.8508173,8.80589904 52.171875,8.36176923 52.3859135,7.85521154 L52.4180192,7.85521154 C52.40375,8.88259615 52.305649,9.79404327 52.1237163,10.5895529 C51.9417837,11.3850625 51.6778029,12.0575 51.331774,12.6068654 C50.9857452,13.1562308 50.5612356,13.5736058 50.0582452,13.8589904 C49.5552548,14.144375 48.9755673,14.2870673 48.3191827,14.2870673 C47.5201058,14.2870673 46.833399,14.1051346 46.2590625,13.7412692 C45.684726,13.3774038 45.2905385,12.8387404 45.0765,12.1252788 L43.1180481,12.1252788 C43.267875,12.9029519 43.5835817,13.5789567 44.0651683,14.1532933 C44.5467548,14.7276298 45.1514135,15.1735433 45.8791442,15.4910337 C46.606875,15.808524 47.4130865,15.9672692 48.2977788,15.9672692 Z M48.4047981,8.68996154 C47.7341442,8.68996154 47.1330529,8.54013462 46.601524,8.24048077 C46.0699952,7.94082692 45.6526202,7.52880288 45.349399,7.00440865 C45.0461779,6.48001442 44.8945673,5.88249038 44.8945673,5.21183654 C44.8945673,4.56258654 45.0515288,3.97576442 45.3654519,3.45137019 C45.679375,2.92697596 46.1056683,2.50960096 46.6443317,2.19924519 C47.1829952,1.88888942 47.7805192,1.73371154 48.4369038,1.73371154 C49.1004231,1.73371154 49.6997308,1.89067308 50.2348269,2.20459615 C50.7699231,2.51851923 51.192649,2.94124519 51.5030048,3.47277404 C51.8133606,4.00430288 51.9685385,4.60182692 51.9685385,5.26534615 C51.9685385,5.92173077 51.8133606,6.50855288 51.5030048,7.0258125 C51.192649,7.54307212 50.7699231,7.94974519 50.2348269,8.24583173 C49.6997308,8.54191827 49.0897212,8.68996154 48.4047981,8.68996154 Z" id="10:09"></path>
                                </g>
                                <g id="Graph-Bars" transform="translate(3.197873, 91.601963)" fill="#44D2A8">
                                    <rect id="Bar" x="0" y="25" width="24" height="94" rx="2.73969231"></rect>
                                    <rect id="Bar" x="29" y="0" width="24" height="119" rx="2.73969231"></rect>
                                    <rect id="Bar" x="58" y="85" width="25" height="34" rx="2.73969231"></rect>
                                    <rect id="Bar" x="88" y="53" width="24" height="66" rx="2.73969231"></rect>
                                    <path d="M120.729739,36 C119.222146,36 118,37.2214587 118,38.7379178 L118,116.262082 C118,117.774192 119.223159,119 120.729739,119 L139.270261,119 C140.777854,119 142,117.778541 142,116.262082 L142,38.7379178 C142,37.2258076 140.776841,36 139.270261,36 L120.729739,36 Z" id="Bar"></path>
                                    <path d="M149.729739,91 C148.222146,91 147,92.2211294 147,93.7357389 L147,116.264261 C147,117.775168 148.223159,119 149.729739,119 L168.270261,119 C169.777854,119 171,117.778871 171,116.264261 L171,93.7357389 C171,92.224832 169.776841,91 168.270261,91 L149.729739,91 Z" id="Bar---Active"></path>
                                    <path d="M178.729739,59 C177.222146,59 176,60.2257115 176,61.7339864 L176,116.266014 C176,117.775953 177.223159,119 178.729739,119 L197.270261,119 C198.777854,119 200,117.774288 200,116.266014 L200,61.7339864 C200,60.2240474 198.776841,59 197.270261,59 L178.729739,59 Z" id="Bar---Active-Copy"></path>
                                </g>
                                <g id="Data" transform="translate(0.000000, 29.262860)" fill="#FFFFFF" fill-rule="nonzero">
                                    <path d="M2.52832933,19.6380288 L4.46805288,14.1131611 L12.1466827,14.1131611 L14.0864062,19.6380288 L16.6147356,19.6380288 L9.49795673,0.334435096 L7.11677885,0.334435096 L0,19.6380288 L2.52832933,19.6380288 Z M11.4376803,12.0664183 L5.17705529,12.0664183 L8.26723558,3.26408654 L8.3475,3.26408654 L11.4376803,12.0664183 Z M21.1229207,24.279988 L21.1229207,17.3772476 L21.1764303,17.3772476 C21.4528966,17.8855889 21.8096274,18.3270433 22.2466226,18.7016106 C22.6836178,19.0761779 23.1875,19.3660216 23.7582692,19.5711418 C24.3290385,19.776262 24.944399,19.8788221 25.604351,19.8788221 C26.7726442,19.8788221 27.8004748,19.5822897 28.6878425,18.9892248 C29.5752103,18.3961599 30.2663762,17.5600721 30.7613401,16.4809615 C31.2563041,15.401851 31.5037861,14.1354567 31.5037861,12.6817788 C31.5037861,11.228101 31.2540745,9.96170673 30.7546514,8.88259615 C30.2552284,7.80348558 29.5596034,6.96739784 28.6677764,6.37433293 C27.7759495,5.78126803 26.7369712,5.48473558 25.5508413,5.48473558 C24.8819712,5.48473558 24.2599219,5.59175481 23.6846935,5.80579327 C23.1094651,6.01983173 22.5988942,6.32082332 22.1529808,6.70876803 C21.7070673,7.09671274 21.3414183,7.55377404 21.0560337,8.07995192 L21.002524,8.07995192 L21.002524,5.72552885 L18.7952524,5.72552885 L18.7952524,24.279988 L21.1229207,24.279988 Z M25.0960096,17.8320793 C24.3022837,17.8320793 23.6066587,17.6180409 23.0091346,17.1899639 C22.4116106,16.761887 21.945631,16.1621334 21.6111959,15.3907031 C21.2767608,14.6192728 21.1095433,13.7162981 21.1095433,12.6817788 C21.1095433,11.6472596 21.2767608,10.7442849 21.6111959,9.97285457 C21.945631,9.20142428 22.4116106,8.60167067 23.0091346,8.17359375 C23.6066587,7.74551683 24.3022837,7.53147837 25.0960096,7.53147837 C25.9254087,7.53147837 26.6410998,7.74328726 27.2430829,8.16690505 C27.8450661,8.59052284 28.3088161,9.18581731 28.6343329,9.95278846 C28.9598498,10.7197596 29.1226082,11.6294231 29.1226082,12.6817788 C29.1226082,13.7341346 28.9598498,14.6460276 28.6343329,15.4174579 C28.3088161,16.1888882 27.8450661,16.7841827 27.2430829,17.2033413 C26.6410998,17.6225 25.9254087,17.8320793 25.0960096,17.8320793 Z M36.5069351,19.6380288 L36.5069351,10.9694712 C36.5069351,10.3095192 36.6295613,9.73652043 36.8748137,9.25047476 C37.1200661,8.76442909 37.4678786,8.38540264 37.9182512,8.11339543 C38.3686238,7.84138822 38.8925721,7.70538462 39.4900962,7.70538462 C39.7754808,7.70538462 40.031881,7.71876202 40.2592969,7.74551683 C40.4867127,7.77227163 40.645012,7.80348558 40.7341947,7.83915865 L40.7341947,5.5783774 C40.645012,5.56054087 40.5179267,5.54047476 40.3529387,5.51817909 C40.1879507,5.49588341 40.0028966,5.48473558 39.7977764,5.48473558 C38.9862139,5.48473558 38.2794411,5.71215144 37.6774579,6.16698317 C37.0754748,6.6218149 36.6585457,7.23271635 36.4266707,7.9996875 L36.3731611,7.9996875 L36.3731611,5.72552885 L34.1792668,5.72552885 L34.1792668,19.6380288 L36.5069351,19.6380288 Z M44.2390745,3.25070913 C44.6493149,3.25070913 44.9948978,3.10801683 45.2758233,2.82263221 C45.5567488,2.5372476 45.6972115,2.19389423 45.6972115,1.79257212 C45.6972115,1.38233173 45.5567488,1.0367488 45.2758233,0.755823317 C44.9948978,0.474897837 44.6493149,0.334435096 44.2390745,0.334435096 C43.8377524,0.334435096 43.494399,0.474897837 43.2090144,0.755823317 C42.9236298,1.0367488 42.7809375,1.38233173 42.7809375,1.79257212 C42.7809375,2.19389423 42.9236298,2.5372476 43.2090144,2.82263221 C43.494399,3.10801683 43.8377524,3.25070913 44.2390745,3.25070913 Z M45.4029087,19.6380288 L45.4029087,5.72552885 L43.0752404,5.72552885 L43.0752404,19.6380288 L45.4029087,19.6380288 Z M51.3290986,19.6380288 L51.3290986,0.334435096 L49.0014303,0.334435096 L49.0014303,19.6380288 L51.3290986,19.6380288 Z M73.5489663,19.6380288 L73.5489663,17.4976442 L64.1178966,17.4976442 L64.1178966,17.4441346 L68.7063462,12.7352885 C69.892476,11.5224038 70.8110577,10.501262 71.4620913,9.67186298 C72.113125,8.84246394 72.5701863,8.09778846 72.8332752,7.43783654 C73.0963642,6.77788462 73.2279087,6.09117788 73.2279087,5.37771635 C73.2279087,4.405625 72.973738,3.51156851 72.4653966,2.69554687 C71.9570553,1.87952524 71.2502825,1.22849159 70.3450781,0.742445913 C69.4398738,0.25640024 68.3897476,0.0133774038 67.1946995,0.0133774038 C65.9550601,0.0133774038 64.8447356,0.269777644 63.863726,0.782578125 C62.8827163,1.29537861 62.1090565,1.99546274 61.5427464,2.88283053 C60.9764363,3.77019832 60.6932812,4.78019231 60.6932812,5.9128125 L63.0209495,5.9128125 C63.0209495,5.19043269 63.203774,4.54162861 63.5694231,3.96640024 C63.9350721,3.39117187 64.4322656,2.93856971 65.0610036,2.60859375 C65.6897416,2.27861779 66.4009736,2.11362981 67.1946995,2.11362981 C67.9349159,2.11362981 68.5748017,2.26524038 69.114357,2.56846154 C69.6539123,2.87168269 70.0730709,3.28192308 70.3718329,3.79918269 C70.670595,4.31644231 70.819976,4.89167067 70.819976,5.52486779 C70.819976,6.05996394 70.7330228,6.56384615 70.5591166,7.03651442 C70.3852103,7.50918269 70.0663822,8.04204928 69.6026322,8.63511418 C69.1388822,9.22817909 68.4744712,9.97954327 67.609399,10.8892067 L60.8136779,17.9792308 L60.8136779,19.6380288 L73.5489663,19.6380288 Z M83.408113,19.9590865 C84.9063822,19.9590865 86.1839243,19.5510757 87.2407392,18.7350541 C88.2975541,17.9190325 89.1046575,16.761887 89.6620493,15.2636178 C90.2194411,13.7653486 90.498137,11.9995312 90.498137,9.96616587 C90.498137,7.94171875 90.2194411,6.18481971 89.6620493,4.69546875 C89.1046575,3.20611779 88.2975541,2.05343149 87.2407392,1.23740986 C86.1839243,0.421388221 84.9063822,0.0133774038 83.408113,0.0133774038 C81.918762,0.0133774038 80.64122,0.423617788 79.5754868,1.24409856 C78.5097536,2.06457933 77.6959615,3.22172476 77.1341106,4.71553486 C76.5722596,6.20934495 76.2913341,7.96401442 76.2913341,9.97954327 C76.2913341,12.0129087 76.5722596,13.7764964 77.1341106,15.2703065 C77.6959615,16.7641166 78.507524,17.9190325 79.5687981,18.7350541 C80.6300721,19.5510757 81.9098437,19.9590865 83.408113,19.9590865 Z M83.408113,17.8588341 C82.4003486,17.8588341 81.5464243,17.5355469 80.8463401,16.8889724 C80.146256,16.2423978 79.615619,15.3282752 79.2544291,14.1466046 C78.8932392,12.9649339 78.7126442,11.5714543 78.7126442,9.96616587 C78.7126442,8.39655048 78.8976983,7.02313702 79.2678065,5.84592548 C79.6379147,4.66871394 80.1707813,3.75459135 80.8664062,3.10355769 C81.5620313,2.45252404 82.4092668,2.12700721 83.408113,2.12700721 C84.4069591,2.12700721 85.2519651,2.45252404 85.943131,3.10355769 C86.6342969,3.75459135 87.1627043,4.66648437 87.5283534,5.83923678 C87.8940024,7.01198918 88.0768269,8.39209135 88.0768269,9.97954327 C88.0768269,11.5848317 87.896232,12.9760817 87.5350421,14.1532933 C87.1738522,15.3305048 86.6476743,16.2423978 85.9565084,16.8889724 C85.2653425,17.5355469 84.4158774,17.8588341 83.408113,17.8588341 Z M100.5847,19.6380288 L100.5847,0.334435096 L98.2302764,0.334435096 C97.8913822,0.584146635 97.5502584,0.831628606 97.206905,1.07688101 C96.8635517,1.32213341 96.5201983,1.56738582 96.176845,1.81263822 C95.8334916,2.05789062 95.4901382,2.30314303 95.1467849,2.54839543 C94.8034315,2.79364784 94.4600781,3.03890024 94.1167248,3.28415264 C93.7733714,3.52940505 93.4322476,3.77688702 93.0933534,4.02659856 L93.0933534,6.44790865 C93.4322476,6.20711538 93.7733714,5.96855168 94.1167248,5.73221755 C94.4600781,5.49588341 94.8012019,5.25954928 95.1400962,5.02321514 L96.1567788,4.31421274 L96.1567788,4.31421274 C96.4956731,4.07787861 96.8367969,3.84154447 97.1801502,3.60521034 C97.5235036,3.3688762 97.8646274,3.1303125 98.2035216,2.88951923 L98.2570312,2.88951923 L98.2570312,19.6380288 L100.5847,19.6380288 Z M112.798269,19.9724639 C114.118173,19.9724639 115.293155,19.6870793 116.323215,19.1163101 C117.353275,18.5455409 118.162608,17.7629627 118.751214,16.7685757 C119.33982,15.7741887 119.634123,14.6437981 119.634123,13.3774038 C119.634123,12.155601 119.355427,11.063113 118.798035,10.0999399 C118.240643,9.13676683 117.480361,8.37871394 116.517187,7.82578125 C115.554014,7.27284856 114.457067,6.99638221 113.226346,6.99638221 C112.352356,6.99638221 111.5564,7.13684495 110.83848,7.41777043 C110.120559,7.69869591 109.507428,8.07549279 108.999087,8.54816106 C108.490745,9.02082933 108.1028,9.54700721 107.835252,10.1266947 L107.79512,10.1266947 C107.821875,8.41438702 108.038143,6.9629387 108.443924,5.77234976 C108.849706,4.58176082 109.431623,3.67655649 110.189675,3.05673678 C110.947728,2.43691707 111.861851,2.12700721 112.932043,2.12700721 C113.591995,2.12700721 114.18729,2.23402644 114.717927,2.4480649 C115.248564,2.66210337 115.701166,2.97424279 116.075733,3.38448317 C116.4503,3.79472356 116.731226,4.2896875 116.91851,4.869375 L119.366575,4.869375 C119.170373,3.87944712 118.77351,3.0210637 118.175986,2.29422476 C117.578462,1.56738582 116.833786,1.00330529 115.941959,0.601983173 C115.050132,0.200661058 114.055745,0 112.958798,0 C111.389183,0 110.044754,0.408010817 108.925511,1.22403245 C107.806268,2.04005409 106.950114,3.21726562 106.357049,4.75566707 C105.763984,6.29406851 105.467452,8.14683894 105.467452,10.3139784 C105.467452,12.1065505 105.679261,13.6204267 106.102879,14.855607 C106.526496,16.0907873 107.092806,17.0851743 107.801809,17.838768 C108.510811,18.5923618 109.297849,19.1363762 110.162921,19.4708113 C111.027993,19.8052464 111.906442,19.9724639 112.798269,19.9724639 Z M112.771514,17.8320793 C111.951034,17.8320793 111.206358,17.6336478 110.537488,17.2367849 C109.868618,16.8399219 109.34021,16.3048257 108.952266,15.6314964 C108.564321,14.9581671 108.370349,14.211262 108.370349,13.3907812 C108.370349,12.5703005 108.562091,11.8367728 108.945577,11.1901983 C109.329062,10.5436238 109.85747,10.0352825 110.530799,9.66517428 C111.204129,9.29506611 111.964411,9.11001202 112.811647,9.11001202 C113.6678,9.11001202 114.423624,9.29729567 115.079117,9.67186298 C115.734609,10.0464303 116.249639,10.5592308 116.624207,11.2102644 C116.998774,11.8612981 117.186058,12.6104327 117.186058,13.4576683 C117.186058,14.2692308 116.989856,15.004988 116.597452,15.6649399 C116.205048,16.3248918 115.674411,16.8510697 115.005541,17.2434736 C114.336671,17.6358774 113.591995,17.8320793 112.771514,17.8320793 Z" id="April2016"></path>
                                    <path d="M3.17579567,41.3082488 L3.17579567,32.4631094 L3.27211298,32.4631094 L6.92414423,41.3082488 L8.14416346,41.3082488 L11.7961947,32.4631094 L11.892512,32.4631094 L11.892512,41.3082488 L13.2409543,41.3082488 L13.2409543,29.7260925 L11.5634279,29.7260925 L7.59836538,39.3899291 L7.46994231,39.3899291 L3.50487981,29.7260925 L1.82735337,29.7260925 L1.82735337,41.3082488 L3.17579567,41.3082488 Z M19.1965745,41.4607512 C20.0206226,41.4607512 20.729625,41.2801562 21.3235817,40.9189663 C21.9175385,40.5577764 22.3763834,40.0427464 22.7001166,39.3738762 C23.0238498,38.705006 23.1857163,37.9077127 23.1857163,36.9819964 C23.1857163,36.0509291 23.0238498,35.2509603 22.7001166,34.5820901 C22.3763834,33.9132199 21.9175385,33.3995276 21.3235817,33.0410132 C20.729625,32.6824988 20.0206226,32.5032416 19.1965745,32.5032416 C18.3778774,32.5032416 17.6702127,32.6824988 17.0735805,33.0410132 C16.4769483,33.3995276 16.0167656,33.9132199 15.6930325,34.5820901 C15.3692993,35.2509603 15.2074327,36.0509291 15.2074327,36.9819964 C15.2074327,37.9077127 15.3692993,38.705006 15.6930325,39.3738762 C16.0167656,40.0427464 16.4769483,40.5577764 17.0735805,40.9189663 C17.6702127,41.2801562 18.3778774,41.4607512 19.1965745,41.4607512 Z M19.1965745,40.2166526 C18.6507764,40.2166526 18.1879183,40.0895673 17.808,39.8353966 C17.4280817,39.581226 17.1377921,39.2120096 16.937131,38.7277476 C16.73647,38.2434856 16.6361394,37.6615685 16.6361394,36.9819964 C16.6361394,36.2970733 16.73647,35.7138185 16.937131,35.232232 C17.1377921,34.7506454 17.4280817,34.3827668 17.808,34.1285962 C18.1879183,33.8744255 18.6507764,33.7473401 19.1965745,33.7473401 C19.7423726,33.7473401 20.2052308,33.8744255 20.585149,34.1285962 C20.9650673,34.3827668 21.255357,34.7506454 21.456018,35.232232 C21.6566791,35.7138185 21.7570096,36.2970733 21.7570096,36.9819964 C21.7570096,37.6615685 21.6566791,38.2434856 21.456018,38.7277476 C21.255357,39.2120096 20.9650673,39.581226 20.585149,39.8353966 C20.2052308,40.0895673 19.7423726,40.2166526 19.1965745,40.2166526 Z M26.3561611,41.3082488 L26.3561611,36.1873786 C26.3561611,35.6790373 26.4498029,35.2429339 26.6370865,34.8790685 C26.8243702,34.5152031 27.087905,34.2356154 27.4276911,34.0403053 C27.7674772,33.8449952 28.1674615,33.7473401 28.6276442,33.7473401 C29.3179183,33.7473401 29.8302728,33.9346238 30.1647079,34.3091911 C30.499143,34.6837584 30.6663606,35.2616623 30.6663606,36.0429026 L30.6663606,41.3082488 L32.0469087,41.3082488 L32.0469087,35.7057921 C32.0469087,34.6784074 31.7860493,33.8878029 31.2643305,33.3339784 C30.7426118,32.7801538 29.9948149,32.5032416 29.0209399,32.5032416 C28.3574207,32.5032416 27.8129603,32.6370156 27.3875589,32.9045637 C26.9621575,33.1721118 26.639762,33.5440036 26.4203726,34.0202392 L26.2919495,34.0202392 L26.2919495,32.655744 L24.975613,32.655744 L24.975613,41.3082488 L26.3561611,41.3082488 Z M37.6573918,41.4607512 C38.2888053,41.4607512 38.8533317,41.3644339 39.3509712,41.1717993 C39.8486106,40.9791647 40.2646478,40.7035901 40.5990829,40.3450757 C40.933518,39.9865613 41.1676226,39.5611599 41.3013966,39.0688714 L39.9208486,39.0688714 C39.7389159,39.4487897 39.4606659,39.7390793 39.0860986,39.9397404 C38.7115312,40.1404014 38.2459976,40.240732 37.6894976,40.240732 C37.2025601,40.240732 36.7758209,40.127024 36.40928,39.8996082 C36.0427392,39.6721923 35.755125,39.3484591 35.5464375,38.9284087 C35.33775,38.5083582 35.2200288,38.014732 35.193274,37.44753 L35.193274,37.3833185 L41.4137668,37.3833185 L41.4137668,36.8535733 C41.4137668,35.9546118 41.2626022,35.1800601 40.9602728,34.5299183 C40.6579435,33.8797764 40.2271911,33.3794615 39.6680156,33.0289736 C39.1088401,32.6784856 38.4386322,32.5032416 37.6573918,32.5032416 C36.8654495,32.5032416 36.177851,32.6878498 35.5945962,33.0570661 C35.0113413,33.4262824 34.5591851,33.9466635 34.2381274,34.6182091 C33.9170697,35.2897548 33.7565409,36.0803594 33.7565409,36.9900228 C33.7565409,37.8996863 33.9143942,38.6902909 34.230101,39.3618365 C34.5458077,40.0333822 34.9966262,40.5510877 35.5825565,40.9149531 C36.1684868,41.2788185 36.8600986,41.4607512 37.6573918,41.4607512 Z M39.9609808,36.267643 L35.193274,36.267643 C35.2307308,35.7539507 35.3551406,35.3071454 35.5665036,34.9272272 C35.7778666,34.5473089 36.0614675,34.2516683 36.4173065,34.0403053 C36.7731454,33.8289423 37.1811562,33.7232608 37.6413389,33.7232608 C38.1015216,33.7232608 38.5028437,33.8289423 38.8453053,34.0403053 C39.1877668,34.2516683 39.4566526,34.5473089 39.6519627,34.9272272 C39.8472728,35.3071454 39.9502788,35.7539507 39.9609808,36.267643 Z M43.7815673,44.4385613 C44.2952596,44.4385613 44.726012,44.3609724 45.0738245,44.2057945 C45.421637,44.0506166 45.7253041,43.7844062 45.9848257,43.4071635 C46.2443474,43.0299207 46.4971803,42.5068642 46.7433245,41.837994 L50.1224567,32.655744 L48.6536178,32.655744 L46.2858173,39.7751983 L46.1573942,39.7751983 L43.7815673,32.655744 L42.288649,32.655744 L45.4911995,41.3162752 C45.4644447,41.4018906 45.4376899,41.487506 45.4109351,41.5731214 C45.3841803,41.6587368 45.3574255,41.7443522 45.3306707,41.8299675 C45.148738,42.3490108 44.937375,42.7155517 44.6965817,42.9295901 C44.4557885,43.1436286 44.1374062,43.2506478 43.7414351,43.2506478 C43.6451178,43.2506478 43.546125,43.2479724 43.4444567,43.2426214 C43.3427885,43.2372704 43.2491466,43.2265685 43.1635312,43.2105156 L43.1635312,44.3904026 C43.2598486,44.4064555 43.3641923,44.4184952 43.4765625,44.4265216 C43.5889327,44.4345481 43.690601,44.4385613 43.7815673,44.4385613 Z" id="Money"></path>
                                    <path d="M128.493397,42.4720829 L128.492765,41.0816888 L128.627717,41.0707316 C129.103843,41.0226822 129.554034,40.9145709 129.978288,40.7463978 C130.572245,40.5109555 131.051156,40.1604675 131.415022,39.6949339 C131.778887,39.2294002 131.96082,38.6488209 131.96082,37.9531959 C131.96082,37.107744 131.68257,36.4522512 131.12607,35.9867175 C130.56957,35.5211839 129.774952,35.1653449 128.742216,34.9192007 L128.492765,34.8589688 L128.492765,31.2157688 L128.548619,31.2209372 C128.790054,31.2549693 129.015115,31.3145255 129.223803,31.3996058 C129.571615,31.5414062 129.853879,31.7514315 130.070593,32.0296815 C130.287306,32.3079315 130.414392,32.6530685 130.451849,33.0650925 L131.84845,33.0650925 C131.827046,32.4283281 131.643775,31.8758413 131.298638,31.4076322 C130.953501,30.9394231 130.497332,30.5768954 129.93013,30.3200493 C129.524986,30.1365877 129.088445,30.0186482 128.620509,29.9662306 L128.492765,29.9562488 L128.493397,28.5622584 L127.530224,28.5622584 L127.529885,29.9572088 L127.516679,29.9581069 C127.00399,30.0047606 126.534945,30.1213948 126.109543,30.3080096 C125.542341,30.5568293 125.094198,30.9099928 124.765114,31.3675 C124.43603,31.8250072 124.271488,32.3667921 124.271488,32.9928546 C124.271488,33.7847969 124.533685,34.4148726 125.058079,34.8830817 C125.582474,35.3512909 126.344986,35.7057921 127.345615,35.9465853 L127.529885,35.9908088 L127.529885,39.8212088 L127.36216,39.8009976 C127.078231,39.7597187 126.829248,39.6909207 126.615209,39.5946034 C126.240642,39.4260481 125.954365,39.1959567 125.75638,38.9043293 C125.558394,38.6127019 125.432647,38.2796046 125.379137,37.9050373 L123.982536,37.9050373 C124.00394,38.5846094 124.204601,39.1625132 124.584519,39.6387488 C124.964437,40.1149844 125.458064,40.477512 126.065398,40.7263317 C126.499208,40.9040601 126.959636,41.018314 127.446683,41.0690936 L127.529885,41.0759288 L127.530224,42.4720829 L128.493397,42.4720829 Z M127.529885,34.6256888 L127.546276,34.6302488 C126.850651,34.459018 126.363714,34.2249135 126.085464,33.9279351 C125.807214,33.6309567 125.668089,33.2871574 125.668089,32.8965373 C125.668089,32.6022344 125.757718,32.3253221 125.936975,32.0658005 C126.116232,31.8062788 126.382442,31.5949159 126.735606,31.4317115 C126.937413,31.3384519 127.166304,31.2718379 127.422276,31.2318695 L127.529885,31.2186488 L127.529885,34.6256888 Z M128.492765,39.8327288 L128.492765,36.2240888 L128.541555,36.2355373 C129.0713,36.3639603 129.481987,36.5137873 129.773614,36.685018 C130.065242,36.8562488 130.269916,37.0555721 130.387637,37.282988 C130.505358,37.5104038 130.564219,37.7712632 130.564219,38.0655661 C130.564219,38.4026767 130.481279,38.705006 130.315399,38.9725541 C130.149519,39.2401022 129.883309,39.4528029 129.516768,39.6106562 C129.254953,39.7234087 128.932394,39.7958923 128.54909,39.8281073 L128.492765,39.8327288 Z M137.940519,41.5731214 C138.887639,41.5731214 139.692959,41.3283149 140.356478,40.8387019 C141.019998,40.3490889 141.525663,39.6374111 141.873476,38.7036683 C142.221288,37.7699255 142.395195,36.6395349 142.395195,35.3124964 C142.395195,34.3279195 142.286838,33.4690901 142.070124,32.7360084 C141.85341,32.0029267 141.548405,31.3929171 141.155109,30.9059796 C140.761814,30.4190421 140.300293,30.0551767 139.770548,29.8143834 C139.240803,29.5735901 138.662899,29.4531935 138.036837,29.4531935 C137.244894,29.4531935 136.543918,29.6244243 135.933909,29.9668858 C135.323899,30.3093474 134.844988,30.780232 134.497175,31.3795397 C134.149363,31.9788474 133.975457,32.6664459 133.975457,33.4423353 C133.975457,34.1914699 134.138661,34.8576647 134.46507,35.4409195 C134.791478,36.0241743 135.242297,36.4830192 135.817525,36.8174543 C136.392754,37.1518894 137.046909,37.319107 137.77999,37.319107 C138.240173,37.319107 138.66825,37.2482067 139.064221,37.1064062 C139.460192,36.9646058 139.812018,36.7612692 140.119698,36.4963966 C140.427379,36.231524 140.674861,35.9118041 140.862144,35.5372368 L140.990567,35.5372368 C140.969163,36.3077752 140.887561,36.9886851 140.745761,37.5799663 C140.60396,38.1712476 140.404637,38.6675493 140.147791,39.0688714 C139.890945,39.4701935 139.579251,39.7738606 139.21271,39.9798726 C138.846169,40.1858846 138.427457,40.2888906 137.956572,40.2888906 C137.38937,40.2888906 136.897082,40.1404014 136.479707,39.8434231 C136.062332,39.5464447 135.778731,39.1357584 135.628904,38.6113642 L134.144012,38.6113642 C134.267084,39.2213738 134.502526,39.7471058 134.850339,40.1885601 C135.198151,40.6300144 135.63693,40.9711382 136.166675,41.2119315 C136.696421,41.4527248 137.287702,41.5731214 137.940519,41.5731214 Z M138.036837,36.066982 C137.528495,36.066982 137.077677,35.9546118 136.684381,35.7298714 C136.291085,35.505131 135.984743,35.190762 135.765353,34.7867644 C135.545964,34.3827668 135.436269,33.9185709 135.436269,33.3941767 C135.436269,32.8858353 135.551315,32.4310036 135.781406,32.0296815 C136.011498,31.6283594 136.324529,31.3099772 136.7205,31.0745349 C137.116471,30.8390925 137.560601,30.7213714 138.052889,30.7213714 C138.550529,30.7213714 138.995996,30.8404303 139.389292,31.0785481 C139.782588,31.3166659 140.094281,31.640399 140.324373,32.0497476 C140.554464,32.4590962 140.66951,32.9232921 140.66951,33.4423353 C140.66951,33.9506767 140.557139,34.4028329 140.332399,34.7988041 C140.107659,35.1947752 139.797303,35.505131 139.401332,35.7298714 C139.005361,35.9546118 138.550529,36.066982 138.036837,36.066982 Z M148.230418,41.5811478 C149.097274,41.5811478 149.835707,41.3443678 150.445716,40.8708077 C151.055726,40.3972476 151.52126,39.709649 151.842317,38.808012 C152.163375,37.906375 152.323904,36.8161166 152.323904,35.5372368 C152.323904,34.258357 152.162037,33.1654231 151.838304,32.2584351 C151.514571,31.3514471 151.0477,30.6571599 150.43769,30.1755733 C149.82768,29.6939868 149.091923,29.4531935 148.230418,29.4531935 C147.368913,29.4531935 146.630481,29.692649 146.01512,30.1715601 C145.39976,30.6504712 144.930213,31.3420829 144.60648,32.2463954 C144.282746,33.1507079 144.12088,34.2396286 144.12088,35.5131574 C144.12088,36.7973882 144.282746,37.8916599 144.60648,38.7959724 C144.930213,39.7002849 145.397084,40.3905589 146.007094,40.8667945 C146.617103,41.34303 147.358212,41.5811478 148.230418,41.5811478 Z M148.230418,40.3209964 C147.663216,40.3209964 147.18163,40.1350505 146.785659,39.7631587 C146.389687,39.3912668 146.088696,38.8481442 145.882684,38.1337909 C145.676672,37.4194375 145.573666,36.545893 145.573666,35.5131574 C145.573666,34.4911238 145.67801,33.624268 145.886697,32.9125901 C146.095385,32.2009123 146.397714,31.6577897 146.793685,31.2832224 C147.189656,30.908655 147.668567,30.7213714 148.230418,30.7213714 C148.79762,30.7213714 149.276531,30.9073173 149.667151,31.2792091 C150.057772,31.651101 150.356088,32.1928858 150.5621,32.9045637 C150.768112,33.6162416 150.871118,34.4857728 150.871118,35.5131574 C150.871118,36.545893 150.76945,37.4207752 150.566113,38.1378041 C150.362776,38.8548329 150.065798,39.3979555 149.675178,39.7671719 C149.284558,40.1363882 148.802971,40.3209964 148.230418,40.3209964 Z M161.811159,41.3082488 L161.811159,40.0079651 L156.321072,40.0079651 L156.321072,39.8795421 L158.953745,37.1585781 C159.64937,36.4415493 160.189817,35.8342151 160.575087,35.3365757 C160.960356,34.8389363 161.230579,34.38678 161.385757,33.980107 C161.540935,33.5734339 161.618524,33.1480324 161.618524,32.7039026 C161.618524,32.0778401 161.462008,31.5200024 161.148977,31.0303894 C160.835946,30.5407764 160.409207,30.1555072 159.86876,29.8745817 C159.328312,29.5936562 158.720978,29.4531935 158.046757,29.4531935 C157.308325,29.4531935 156.652832,29.6043582 156.080279,29.9066875 C155.507726,30.2090168 155.058245,30.6263918 154.731837,31.1588125 C154.405428,31.6912332 154.242224,32.3025805 154.242224,32.9928546 L155.638825,32.9928546 C155.638825,32.5326719 155.735142,32.1326875 155.927776,31.7929014 C156.120411,31.4531154 156.390635,31.1882428 156.738447,30.9982837 C157.08626,30.8083245 157.490257,30.7133449 157.95044,30.7133449 C158.405272,30.7133449 158.795892,30.8069868 159.1223,30.9942704 C159.448709,31.1815541 159.700204,31.4357248 159.876786,31.7567824 C160.053368,32.0778401 160.141659,32.444381 160.141659,32.856405 C160.141659,33.1935156 160.085474,33.5052091 159.973103,33.7914856 C159.860733,34.077762 159.665423,34.3961442 159.387173,34.7466322 C159.108923,35.0971202 158.723654,35.5399123 158.231365,36.0750084 L154.314462,40.3129699 L154.314462,41.3082488 L161.811159,41.3082488 Z M165.864512,41.3082488 L171.017488,31.0665084 L171.017488,29.7260925 L163.352236,29.7260925 L163.352236,31.0183498 L169.548649,31.0183498 L169.548649,31.1307199 L164.347514,41.3082488 L165.864512,41.3082488 Z M177.069425,41.3082488 L177.069425,29.7260925 L175.632692,29.7260925 C175.429356,29.8759195 175.224681,30.0244087 175.018669,30.1715601 L174.400633,30.6130144 C174.194621,30.7601659 173.988609,30.9073173 173.782597,31.0544687 C173.576585,31.2016202 173.370573,31.3487716 173.164561,31.4959231 C172.958549,31.6430745 172.753875,31.7915637 172.550538,31.9413906 L172.550538,33.4664147 C172.748524,33.3219387 172.945172,33.1788005 173.140482,33.037 C173.335792,32.8951995 173.53244,32.753399 173.730425,32.6115986 C173.928411,32.4697981 174.125059,32.3279976 174.320369,32.1861971 C174.515679,32.0443966 174.710989,31.9025962 174.906299,31.7607957 C175.101609,31.6189952 175.298257,31.475857 175.496243,31.331381 L175.624666,31.331381 L175.624666,41.3082488 L177.069425,41.3082488 Z M180.890012,41.3885132 C181.178964,41.3885132 181.425108,41.2855072 181.628445,41.0794952 C181.831781,40.8734832 181.93345,40.6286767 181.93345,40.3450757 C181.93345,40.0561238 181.831781,39.8099796 181.628445,39.606643 C181.425108,39.4033065 181.178964,39.3016382 180.890012,39.3016382 C180.606411,39.3016382 180.361605,39.4033065 180.155593,39.606643 C179.949581,39.8099796 179.846575,40.0561238 179.846575,40.3450757 C179.846575,40.6286767 179.949581,40.8734832 180.155593,41.0794952 C180.361605,41.2855072 180.606411,41.3885132 180.890012,41.3885132 Z M187.64025,41.5811478 C188.458947,41.5811478 189.182665,41.4380096 189.811403,41.1517332 C190.440141,40.8654567 190.931091,40.4681478 191.284255,39.9598065 C191.637418,39.4514651 191.814,38.8682103 191.814,38.2100421 C191.814,37.7070517 191.713669,37.2495445 191.513008,36.8375204 C191.312347,36.4254964 191.03276,36.0816971 190.674245,35.8061226 C190.315731,35.5305481 189.893005,35.3472776 189.406067,35.2563113 L189.406067,35.1278882 C190.005375,34.9620084 190.477597,34.6476394 190.822734,34.1847812 C191.167871,33.7219231 191.34044,33.1747873 191.34044,32.5433738 C191.34044,31.9387151 191.182587,31.4049567 190.86688,30.9420986 C190.551173,30.4792404 190.11507,30.115375 189.55857,29.8505024 C189.00207,29.5856298 188.36263,29.4531935 187.64025,29.4531935 C186.91787,29.4531935 186.27843,29.5856298 185.72193,29.8505024 C185.16543,30.115375 184.729327,30.4792404 184.41362,30.9420986 C184.097913,31.4049567 183.94006,31.9387151 183.94006,32.5433738 C183.94006,33.1747873 184.115304,33.7232608 184.465792,34.1887945 C184.81628,34.6543281 185.285827,34.9673594 185.874433,35.1278882 L185.874433,35.2563113 C185.392846,35.3472776 184.971458,35.5305481 184.610268,35.8061226 C184.249078,36.0816971 183.968153,36.4254964 183.767492,36.8375204 C183.566831,37.2495445 183.4665,37.7070517 183.4665,38.2100421 C183.4665,38.8682103 183.644419,39.4514651 184.000258,39.9598065 C184.356097,40.4681478 184.847048,40.8654567 185.473111,41.1517332 C186.099173,41.4380096 186.821553,41.5811478 187.64025,41.5811478 Z M187.64025,34.6463017 C187.185418,34.6463017 186.786772,34.5646995 186.44431,34.4014952 C186.101849,34.2382909 185.835638,34.0081995 185.645679,33.7112212 C185.45572,33.4142428 185.36074,33.0704435 185.36074,32.6798233 C185.36074,32.2785012 185.45572,31.929351 185.645679,31.6323726 C185.835638,31.3353942 186.101849,31.1039651 186.44431,30.9380853 C186.786772,30.7722055 187.185418,30.6892656 187.64025,30.6892656 C188.100433,30.6892656 188.500417,30.7722055 188.840203,30.9380853 C189.179989,31.1039651 189.444862,31.3353942 189.634821,31.6323726 C189.82478,31.929351 189.91976,32.2785012 189.91976,32.6798233 C189.91976,33.0704435 189.82478,33.4142428 189.634821,33.7112212 C189.444862,34.0081995 189.178651,34.2382909 188.83619,34.4014952 C188.493728,34.5646995 188.095082,34.6463017 187.64025,34.6463017 Z M187.64025,40.3450757 C187.105154,40.3450757 186.634269,40.2500962 186.227596,40.060137 C185.820923,39.8701779 185.502541,39.606643 185.27245,39.2695324 C185.042358,38.9324219 184.927312,38.5444772 184.927312,38.1056983 C184.927312,37.6615685 185.042358,37.2722861 185.27245,36.937851 C185.502541,36.6034159 185.820923,36.3412187 186.227596,36.1512596 C186.634269,35.9613005 187.105154,35.8663209 187.64025,35.8663209 C188.175346,35.8663209 188.646231,35.9613005 189.052904,36.1512596 C189.459577,36.3412187 189.777959,36.6034159 190.00805,36.937851 C190.238142,37.2722861 190.353187,37.6615685 190.353187,38.1056983 C190.353187,38.5444772 190.238142,38.9324219 190.00805,39.2695324 C189.777959,39.606643 189.459577,39.8701779 189.052904,40.060137 C188.646231,40.2500962 188.175346,40.3450757 187.64025,40.3450757 Z M197.504748,41.5731214 C198.451868,41.5731214 199.257187,41.3283149 199.920707,40.8387019 C200.584226,40.3490889 201.089892,39.6374111 201.437704,38.7036683 C201.785517,37.7699255 201.959423,36.6395349 201.959423,35.3124964 C201.959423,34.3279195 201.851066,33.4690901 201.634352,32.7360084 C201.417638,32.0029267 201.112633,31.3929171 200.719338,30.9059796 C200.326042,30.4190421 199.864522,30.0551767 199.334776,29.8143834 C198.805031,29.5735901 198.227127,29.4531935 197.601065,29.4531935 C196.809123,29.4531935 196.108147,29.6244243 195.498137,29.9668858 C194.888127,30.3093474 194.409216,30.780232 194.061404,31.3795397 C193.713591,31.9788474 193.539685,32.6664459 193.539685,33.4423353 C193.539685,34.1914699 193.702889,34.8576647 194.029298,35.4409195 C194.355707,36.0241743 194.806525,36.4830192 195.381754,36.8174543 C195.956982,37.1518894 196.611137,37.319107 197.344219,37.319107 C197.804401,37.319107 198.232478,37.2482067 198.62845,37.1064062 C199.024421,36.9646058 199.376246,36.7612692 199.683927,36.4963966 C199.991607,36.231524 200.239089,35.9118041 200.426373,35.5372368 L200.554796,35.5372368 C200.533392,36.3077752 200.45179,36.9886851 200.309989,37.5799663 C200.168189,38.1712476 199.968865,38.6675493 199.712019,39.0688714 C199.455173,39.4701935 199.14348,39.7738606 198.776939,39.9798726 C198.410398,40.1858846 197.991685,40.2888906 197.5208,40.2888906 C196.953599,40.2888906 196.46131,40.1404014 196.043935,39.8434231 C195.62656,39.5464447 195.342959,39.1357584 195.193132,38.6113642 L193.70824,38.6113642 C193.831312,39.2213738 194.066755,39.7471058 194.414567,40.1885601 C194.76238,40.6300144 195.201159,40.9711382 195.730904,41.2119315 C196.260649,41.4527248 196.85193,41.5731214 197.504748,41.5731214 Z M197.601065,36.066982 C197.092724,36.066982 196.641905,35.9546118 196.248609,35.7298714 C195.855314,35.505131 195.548971,35.190762 195.329582,34.7867644 C195.110192,34.3827668 195.000498,33.9185709 195.000498,33.3941767 C195.000498,32.8858353 195.115543,32.4310036 195.345635,32.0296815 C195.575726,31.6283594 195.888757,31.3099772 196.284728,31.0745349 C196.6807,30.8390925 197.124829,30.7213714 197.617118,30.7213714 C198.114757,30.7213714 198.560225,30.8404303 198.95352,31.0785481 C199.346816,31.3166659 199.65851,31.640399 199.888601,32.0497476 C200.118692,32.4590962 200.233738,32.9232921 200.233738,33.4423353 C200.233738,33.9506767 200.121368,34.4028329 199.896627,34.7988041 C199.671887,35.1947752 199.361531,35.505131 198.96556,35.7298714 C198.569589,35.9546118 198.114757,36.066982 197.601065,36.066982 Z" id="$90271.89"></path>
                                </g>
                            </g>
                        </g>
                    </g>
                </g>
            </g>
        </g>
    </g>
</svg>