<?xml version="1.0" encoding="UTF-8"?>
<!DOCTYPE svg PUBLIC "-//W3C//DTD SVG 1.1//EN" "http://www.w3.org/Graphics/SVG/1.1/DTD/svg11.dtd">
<svg xmlns="http://www.w3.org/2000/svg" version="1.1" width="1300px" height="883px" style="shape-rendering:geometricPrecision; text-rendering:geometricPrecision; image-rendering:optimizeQuality; fill-rule:evenodd; clip-rule:evenodd" xmlns:xlink="http://www.w3.org/1999/xlink">
<g><path style="opacity:1" fill="#fefefe" d="M -0.5,-0.5 C 432.833,-0.5 866.167,-0.5 1299.5,-0.5C 1299.5,293.833 1299.5,588.167 1299.5,882.5C 866.167,882.5 432.833,882.5 -0.5,882.5C -0.5,588.167 -0.5,293.833 -0.5,-0.5 Z"/></g>
<g><path style="opacity:1" fill="#6686cb" d="M 1103.5,174.5 C 1107.11,174.211 1110.61,174.544 1114,175.5C 1115.36,179.143 1114.19,181.31 1110.5,182C 986.218,200.659 861.885,218.659 737.5,236C 733.439,232.889 733.772,230.222 738.5,228C 860.488,211.026 982.154,193.193 1103.5,174.5 Z"/></g>
<g><path style="opacity:1" fill="#fefefe" d="M 661.5,295.5 C 658.029,347.146 655.195,398.812 653,450.5C 654.738,451.127 656.571,451.46 658.5,451.5C 668.527,450.294 678.527,448.961 688.5,447.5C 687.043,467.142 686.043,486.809 685.5,506.5C 674.542,508.232 663.542,509.732 652.5,511C 651.584,511.374 650.75,511.874 650,512.5C 647.47,533.376 645.97,554.376 645.5,575.5C 644.518,578.962 644.185,582.629 644.5,586.5C 642.585,586.216 640.919,586.549 639.5,587.5C 618.771,589.699 598.104,592.366 577.5,595.5C 578.583,570.836 579.583,546.169 580.5,521.5C 532.06,527.097 483.727,533.43 435.5,540.5C 434.179,537.402 433.512,533.902 433.5,530C 434.273,512.792 435.44,495.625 437,478.5C 479.904,410.364 523.071,342.364 566.5,274.5C 598.759,269.29 631.093,264.623 663.5,260.5C 662.42,272.14 661.754,283.806 661.5,295.5 Z"/></g>
<g><path style="opacity:1" fill="#fefefe" d="M 439.5,555.5 C 438.112,573.475 437.112,591.475 436.5,609.5C 435.549,610.919 435.216,612.585 435.5,614.5C 434.209,614.263 433.209,614.596 432.5,615.5C 386.779,620.936 341.112,626.936 295.5,633.5C 288.604,633.859 281.938,634.859 275.5,636.5C 249.484,639.835 223.484,643.002 197.5,646C 251.333,578.167 305.167,510.333 359,442.5C 365.57,433.576 370.903,423.909 375,413.5C 380.745,400.107 380.745,386.773 375,373.5C 365.299,359.766 352.133,354.933 335.5,359C 314.163,363.919 299.996,376.752 293,397.5C 290.667,405.667 289.5,414 289.5,422.5C 265.476,425.313 241.476,428.313 217.5,431.5C 218.15,409.566 223.484,388.899 233.5,369.5C 259.849,324.798 299.182,300.632 351.5,297C 378.088,293.683 402.421,299.35 424.5,314C 445.858,333.39 455.024,357.556 452,386.5C 448.648,413.896 438.648,438.563 422,460.5C 397.043,491.126 371.71,521.459 346,551.5C 343.534,554.128 341.701,557.128 340.5,560.5C 340.5,562.5 341.5,563.5 343.5,563.5C 375.414,558.514 407.414,554.181 439.5,550.5C 439.5,552.167 439.5,553.833 439.5,555.5 Z"/></g>
<g><path style="opacity:1" fill="#bec3e5" d="M 256.5,329.5 C 254.5,332.167 252.167,334.5 249.5,336.5C 250.833,333.167 253.167,330.833 256.5,329.5 Z"/></g>
<g><path style="opacity:1" fill="#6886cc" d="M 590.5,319.5 C 593.488,319.155 594.821,320.488 594.5,323.5C 592.589,337.119 591.089,350.785 590,364.5C 588.663,396.596 586.663,428.596 584,460.5C 581.34,461.834 578.506,462.668 575.5,463C 550.158,466.335 524.825,469.335 499.5,472C 498.446,470.612 498.28,469.112 499,467.5C 518.502,436.492 538.502,405.825 559,375.5C 570.258,357.324 580.758,338.657 590.5,319.5 Z"/></g>
<g><path style="opacity:1" fill="#bac2e3" d="M 239.5,346.5 C 238.581,349.089 236.914,351.089 234.5,352.5C 235.419,349.911 237.086,347.911 239.5,346.5 Z"/></g>
<g><path style="opacity:1" fill="#b5c2df" d="M 225.5,361.5 C 224.581,364.089 222.914,366.089 220.5,367.5C 221.419,364.911 223.086,362.911 225.5,361.5 Z"/></g>
<g><path style="opacity:1" fill="#6986cc" d="M 667.5,252.5 C 667.5,253.5 667.5,254.5 667.5,255.5C 666.5,255.5 665.5,255.5 664.5,255.5C 664.441,262.037 665.441,268.371 667.5,274.5C 666.273,277.381 664.773,280.047 663,282.5C 662.825,287.019 662.325,291.353 661.5,295.5C 661.754,283.806 662.42,272.14 663.5,260.5C 631.093,264.623 598.759,269.29 566.5,274.5C 523.071,342.364 479.904,410.364 437,478.5C 435.44,495.625 434.273,512.792 433.5,530C 433.512,533.902 434.179,537.402 435.5,540.5C 435.439,543.05 434.106,544.55 431.5,545C 434.232,545.413 436.899,546.08 439.5,547C 436.711,547.241 434.044,547.908 431.5,549C 434.54,549.32 437.54,549.32 440.5,549C 441.167,549.667 441.833,550.333 442.5,551C 441.947,552.878 440.947,554.378 439.5,555.5C 439.5,553.833 439.5,552.167 439.5,550.5C 407.414,554.181 375.414,558.514 343.5,563.5C 341.5,563.5 340.5,562.5 340.5,560.5C 341.701,557.128 343.534,554.128 346,551.5C 371.71,521.459 397.043,491.126 422,460.5C 438.648,438.563 448.648,413.896 452,386.5C 455.024,357.556 445.858,333.39 424.5,314C 402.421,299.35 378.088,293.683 351.5,297C 299.182,300.632 259.849,324.798 233.5,369.5C 232.25,365.592 229.917,362.592 226.5,360.5C 228.882,357.452 231.548,354.785 234.5,352.5C 236.914,351.089 238.581,349.089 239.5,346.5C 242.527,342.806 245.86,339.473 249.5,336.5C 252.167,334.5 254.5,332.167 256.5,329.5C 269.512,316.734 284.845,307.234 302.5,301C 332.008,289.854 362.341,286.854 393.5,292C 414.286,296.666 431.286,307.166 444.5,323.5C 445.34,325.853 446.674,327.853 448.5,329.5C 450.229,331.95 451.729,334.617 453,337.5C 454.974,343.772 456.64,350.105 458,356.5C 458.848,363.308 459.348,370.141 459.5,377C 458.893,387.897 458.059,398.731 457,409.5C 462.159,401.198 467.826,393.198 474,385.5C 474.931,383.541 475.764,381.541 476.5,379.5C 480.424,374.217 484.257,368.884 488,363.5C 488.36,361.392 489.027,359.392 490,357.5C 493.242,355.356 495.242,352.356 496,348.5C 497.31,345.527 499.31,343.193 502,341.5C 506.784,332.86 511.784,324.194 517,315.5C 522.46,310.563 527.46,305.229 532,299.5C 543.378,289.623 553.878,278.956 563.5,267.5C 598.264,262.448 632.93,257.448 667.5,252.5 Z"/></g>
<g><path style="opacity:1" fill="#bbc5e6" d="M 444.5,323.5 C 446.822,324.802 448.155,326.802 448.5,329.5C 446.674,327.853 445.34,325.853 444.5,323.5 Z"/></g>
<g><path style="opacity:1" fill="#b9c4e5" d="M 211.5,376.5 C 209.57,380.1 206.903,383.1 203.5,385.5C 205.43,381.9 208.097,378.9 211.5,376.5 Z"/></g>
<g><path style="opacity:1" fill="#b0c0db" d="M 1131.5,403.5 C 1132.21,402.596 1133.21,402.263 1134.5,402.5C 1134.81,406.042 1134.48,409.375 1133.5,412.5C 1134.05,408.988 1133.39,405.988 1131.5,403.5 Z"/></g>
<g><path style="opacity:1" fill="#6686cc" d="M 1131.5,403.5 C 1133.39,405.988 1134.05,408.988 1133.5,412.5C 1133.77,414.451 1133.11,415.951 1131.5,417C 1124.23,417.803 1117.06,418.97 1110,420.5C 1109.03,429.477 1108.53,438.477 1108.5,447.5C 1114.41,447.079 1120.24,446.412 1126,445.5C 1126.5,447.473 1126.66,449.473 1126.5,451.5C 1125.96,454.634 1124.96,457.634 1123.5,460.5C 1118.19,460.33 1113.02,460.997 1108,462.5C 1106.86,469.12 1106.36,475.786 1106.5,482.5C 1105.52,486.634 1105.18,490.968 1105.5,495.5C 1107.41,495.784 1109.08,495.451 1110.5,494.5C 1116.9,494.208 1123.23,493.708 1129.5,493C 1128.53,497.401 1128.2,501.901 1128.5,506.5C 1114.1,507.591 1099.77,509.258 1085.5,511.5C 1087.35,480.187 1089.01,448.854 1090.5,417.5C 1091.04,414.366 1092.04,411.366 1093.5,408.5C 1106.28,407.414 1118.95,405.747 1131.5,403.5 Z"/></g>
<g><path style="opacity:1" fill="#afc0e7" d="M 1093.5,408.5 C 1092.04,411.366 1091.04,414.366 1090.5,417.5C 1090.5,414.5 1090.5,411.5 1090.5,408.5C 1091.5,408.5 1092.5,408.5 1093.5,408.5 Z"/></g>
<g><path style="opacity:1" fill="#6787cd" d="M 1061.5,449.5 C 1059.17,449.5 1056.83,449.5 1054.5,449.5C 1054.5,447.167 1054.5,444.833 1054.5,442.5C 1057.26,430.91 1052.93,426.41 1041.5,429C 1039.63,432.614 1038.13,436.447 1037,440.5C 1035.83,456.149 1035,471.816 1034.5,487.5C 1034.65,493.296 1035.32,498.963 1036.5,504.5C 1040.11,504.789 1043.61,504.456 1047,503.5C 1050.74,498.113 1052.24,492.113 1051.5,485.5C 1052.27,483.285 1052.93,480.952 1053.5,478.5C 1059.48,477.783 1065.48,477.116 1071.5,476.5C 1071.81,488.391 1068.98,499.391 1063,509.5C 1061.02,510.749 1059.19,512.082 1057.5,513.5C 1055.18,513.992 1053.18,514.992 1051.5,516.5C 1026.15,525.194 1013.82,516.36 1014.5,490C 1015.68,474.186 1016.51,458.353 1017,442.5C 1018.46,436.257 1020.96,430.591 1024.5,425.5C 1026.5,424.167 1028.17,422.5 1029.5,420.5C 1029.95,419.542 1030.62,418.708 1031.5,418C 1034.53,417.867 1037.19,416.867 1039.5,415C 1066.88,409.215 1077.88,420.049 1072.5,447.5C 1068.77,447.984 1065.1,448.651 1061.5,449.5 Z"/></g>
<g><path style="opacity:1" fill="#6686cc" d="M 983.5,525.5 C 981.167,525.5 978.833,525.5 976.5,525.5C 976.5,520.167 976.5,514.833 976.5,509.5C 978.745,480.872 980.411,452.206 981.5,423.5C 988.17,423.355 994.67,422.355 1001,420.5C 998.837,455.13 997.003,489.797 995.5,524.5C 991.4,524.237 987.4,524.57 983.5,525.5 Z"/></g>
<g><path style="opacity:1" fill="#b1c2e5" d="M 1029.5,420.5 C 1028.17,422.5 1026.5,424.167 1024.5,425.5C 1025.17,422.833 1026.83,421.167 1029.5,420.5 Z"/></g>
<g><path style="opacity:1" fill="#b8c4df" d="M 959.5,426.5 C 962.355,425.197 965.355,425.197 968.5,426.5C 968.376,427.107 968.043,427.44 967.5,427.5C 965.052,426.527 962.385,426.194 959.5,426.5 Z"/></g>
<g><path style="opacity:1" fill="#d6d6d7" d="M 323.5,433.5 C 322.832,435.463 322.498,437.463 322.5,439.5C 321.686,437.234 321.186,434.9 321,432.5C 319.808,436.568 319.475,440.568 320,444.5C 319.161,443.376 317.994,442.709 316.5,442.5C 306.612,444.278 297.946,448.445 290.5,455C 289.552,455.483 288.552,455.649 287.5,455.5C 286.736,458.787 284.903,461.454 282,463.5C 276.64,477.358 273.14,491.692 271.5,506.5C 262.184,507.771 252.851,508.938 243.5,510C 241.598,510.199 240.098,511.033 239,512.5C 236.122,512.046 232.955,511.712 229.5,511.5C 219.549,512.98 209.549,513.98 199.5,514.5C 197.951,514.886 196.951,516.886 196.5,520.5C 191.752,516.533 187.419,512.2 183.5,507.5C 184.313,506.347 185.313,506.347 186.5,507.5C 187.719,506.737 188.719,505.737 189.5,504.5C 189.489,505.441 189.989,506.108 191,506.5C 199.736,504.677 208.569,503.511 217.5,503C 219.389,500.806 221.556,500.306 224,501.5C 231.486,500.256 238.986,498.922 246.5,497.5C 247.446,497.987 248.446,498.32 249.5,498.5C 254.058,496.881 258.725,495.881 263.5,495.5C 263.01,485.982 264.01,476.648 266.5,467.5C 263.592,467.262 261.258,468.262 259.5,470.5C 258.893,470.376 258.56,470.043 258.5,469.5C 270.739,456.089 283.239,442.755 296,429.5C 296.351,424.802 296.851,420.136 297.5,415.5C 310.383,415.595 319.05,421.595 323.5,433.5 Z"/></g>
<g><path style="opacity:1" fill="#6787cd" d="M 959.5,426.5 C 962.385,426.194 965.052,426.527 967.5,427.5C 960.323,458.572 952.823,489.572 945,520.5C 944.064,524.114 943.564,527.78 943.5,531.5C 936.117,531.673 928.783,532.34 921.5,533.5C 918.427,500.15 914.427,466.816 909.5,433.5C 915.178,432.915 920.845,432.249 926.5,431.5C 928.944,453.499 931.277,475.499 933.5,497.5C 934.5,497.5 935.5,497.5 936.5,497.5C 937.065,492.851 937.565,488.184 938,483.5C 939.867,473.373 942.034,463.373 944.5,453.5C 946.118,450.829 946.785,447.829 946.5,444.5C 947.821,438.871 948.821,433.204 949.5,427.5C 953.042,427.813 956.375,427.479 959.5,426.5 Z"/></g>
<g><path style="opacity:1" fill="#dcdcdc" d="M 323.5,433.5 C 324.711,439.31 324.711,444.977 323.5,450.5C 301.949,453.879 288.449,466.213 283,487.5C 281.466,496.038 279.966,504.538 278.5,513C 253.59,517.072 228.59,520.572 203.5,523.5C 200.617,523.48 198.284,522.48 196.5,520.5C 196.951,516.886 197.951,514.886 199.5,514.5C 209.549,513.98 219.549,512.98 229.5,511.5C 232.955,511.712 236.122,512.046 239,512.5C 240.098,511.033 241.598,510.199 243.5,510C 252.851,508.938 262.184,507.771 271.5,506.5C 273.14,491.692 276.64,477.358 282,463.5C 284.903,461.454 286.736,458.787 287.5,455.5C 288.552,455.649 289.552,455.483 290.5,455C 297.946,448.445 306.612,444.278 316.5,442.5C 317.994,442.709 319.161,443.376 320,444.5C 319.475,440.568 319.808,436.568 321,432.5C 321.186,434.9 321.686,437.234 322.5,439.5C 322.498,437.463 322.832,435.463 323.5,433.5 Z"/></g>
<g><path style="opacity:1" fill="#b2bede" d="M 888.5,441.5 C 891.167,442.167 892.833,443.833 893.5,446.5C 891.5,445.167 889.833,443.5 888.5,441.5 Z"/></g>
<g><path style="opacity:1" fill="#6686cc" d="M 888.5,441.5 C 889.833,443.5 891.5,445.167 893.5,446.5C 895.867,449.68 896.867,453.347 896.5,457.5C 896.066,462.839 895.566,468.173 895,473.5C 892.859,476.117 891.526,479.117 891,482.5C 887.137,484.163 884.303,486.83 882.5,490.5C 886.389,506.064 889.722,521.731 892.5,537.5C 887.972,537.77 883.639,538.437 879.5,539.5C 877.05,539.702 874.717,539.369 872.5,538.5C 870.433,524.764 867.933,511.097 865,497.5C 864.29,496.027 863.124,495.36 861.5,495.5C 859.5,495.5 857.5,495.5 855.5,495.5C 855.5,499.5 855.5,503.5 855.5,507.5C 854.755,519.161 854.089,530.828 853.5,542.5C 847.443,543.174 841.443,544.174 835.5,545.5C 835.167,542.167 834.833,538.833 834.5,535.5C 836.519,504.516 838.185,473.516 839.5,442.5C 851.951,441.019 864.451,439.686 877,438.5C 881.255,438.354 885.088,439.354 888.5,441.5 Z"/></g>
<g><path style="opacity:1" fill="#b8c1df" d="M 818.5,445.5 C 820.948,444.527 823.615,444.194 826.5,444.5C 826.784,446.415 826.451,448.081 825.5,449.5C 825.5,448.167 825.5,446.833 825.5,445.5C 823.167,445.5 820.833,445.5 818.5,445.5 Z"/></g>
<g><path style="opacity:1" fill="#b5c4e6" d="M 946.5,444.5 C 946.785,447.829 946.118,450.829 944.5,453.5C 944.676,450.273 945.343,447.273 946.5,444.5 Z"/></g>
<g><path style="opacity:1" fill="#b0c0db" d="M 789.5,449.5 C 787.735,450.461 785.735,450.795 783.5,450.5C 783.737,451.791 783.404,452.791 782.5,453.5C 782.5,452.167 782.5,450.833 782.5,449.5C 784.833,449.5 787.167,449.5 789.5,449.5 Z"/></g>
<g><path style="opacity:1" fill="#b7c4dd" d="M 1054.5,442.5 C 1054.5,444.833 1054.5,447.167 1054.5,449.5C 1056.83,449.5 1059.17,449.5 1061.5,449.5C 1059.05,450.473 1056.39,450.806 1053.5,450.5C 1053.19,447.615 1053.53,444.948 1054.5,442.5 Z"/></g>
<g><path style="opacity:1" fill="#6686cc" d="M 818.5,445.5 C 820.833,445.5 823.167,445.5 825.5,445.5C 825.5,446.833 825.5,448.167 825.5,449.5C 825.784,452.777 825.451,455.943 824.5,459C 816.777,459.449 809.111,460.282 801.5,461.5C 800.916,470.842 800.249,480.176 799.5,489.5C 805.606,489.432 811.606,488.765 817.5,487.5C 817.666,491.846 817.499,496.179 817,500.5C 812.412,501.553 807.912,502.553 803.5,503.5C 801.549,503.227 800.049,503.893 799,505.5C 798.501,509.821 798.334,514.154 798.5,518.5C 797.51,524.31 797.177,530.31 797.5,536.5C 800.713,536.81 803.713,536.477 806.5,535.5C 809.902,535.658 813.236,535.324 816.5,534.5C 817.833,534.5 819.167,534.5 820.5,534.5C 820.5,537.5 820.5,540.5 820.5,543.5C 820.5,544.833 820.5,546.167 820.5,547.5C 805.859,549.497 791.192,550.997 776.5,552C 779.207,519.267 781.207,486.434 782.5,453.5C 783.404,452.791 783.737,451.791 783.5,450.5C 785.735,450.795 787.735,450.461 789.5,449.5C 799.286,448.736 808.953,447.402 818.5,445.5 Z"/></g>
<g><path style="opacity:1" fill="#fbfcfc" d="M 859.5,453.5 C 864.179,453.334 868.845,453.501 873.5,454C 875.978,457.001 876.978,460.501 876.5,464.5C 877.239,477.761 870.905,484.095 857.5,483.5C 858.088,473.448 858.754,463.448 859.5,453.5 Z"/></g>
<g><path style="opacity:1" fill="#b7c4e2" d="M 756.5,456.5 C 759.167,457.167 760.833,458.833 761.5,461.5C 759.5,460.167 757.833,458.5 756.5,456.5 Z"/></g>
<g><path style="opacity:1" fill="#afbfdf" d="M 1126.5,451.5 C 1126.5,454.5 1126.5,457.5 1126.5,460.5C 1125.5,460.5 1124.5,460.5 1123.5,460.5C 1124.96,457.634 1125.96,454.634 1126.5,451.5 Z"/></g>
<g><path style="opacity:1" fill="#becde8" d="M 729.5,458.5 C 726.651,461.084 723.651,463.417 720.5,465.5C 721.234,464.292 721.567,462.959 721.5,461.5C 724.14,460.552 726.807,459.552 729.5,458.5 Z"/></g>
<g><path style="opacity:1" fill="#6787cc" d="M 756.5,456.5 C 757.833,458.5 759.5,460.167 761.5,461.5C 762.5,464.833 763.5,468.167 764.5,471.5C 764.909,474.855 764.242,477.855 762.5,480.5C 758.521,480.742 754.854,481.742 751.5,483.5C 750.5,483.5 749.5,483.5 748.5,483.5C 748.784,481.585 748.451,479.919 747.5,478.5C 747.5,477.5 747.5,476.5 747.5,475.5C 747.822,473.278 747.155,471.444 745.5,470C 742.833,469.333 740.167,469.333 737.5,470C 736.619,470.708 735.953,471.542 735.5,472.5C 733.896,473.287 733.229,474.62 733.5,476.5C 732.515,480.634 732.182,484.968 732.5,489.5C 733.5,489.5 734.5,489.5 735.5,489.5C 736.167,492.167 737.833,493.833 740.5,494.5C 741.585,496.587 743.251,497.92 745.5,498.5C 746.167,498.5 746.5,498.833 746.5,499.5C 747.585,501.587 749.251,502.92 751.5,503.5C 753.64,506.165 756.14,508.498 759,510.5C 762.903,517.028 764.57,524.028 764,531.5C 763.263,535.207 762.429,538.873 761.5,542.5C 759.674,544.147 758.34,546.147 757.5,548.5C 754.808,550.862 752.141,553.196 749.5,555.5C 747.181,555.992 745.181,556.992 743.5,558.5C 739.534,559.293 735.534,559.96 731.5,560.5C 727.485,559.773 723.485,558.94 719.5,558C 713.205,550.336 710.205,541.502 710.5,531.5C 715.862,531.116 720.862,529.783 725.5,527.5C 727.11,530.203 728.11,533.203 728.5,536.5C 728.553,543.387 731.887,545.887 738.5,544C 740.624,542.878 742.457,541.378 744,539.5C 744.667,535.5 744.667,531.5 744,527.5C 743.576,524.975 742.41,522.975 740.5,521.5C 739.089,519.086 737.089,517.419 734.5,516.5C 731.666,514.25 728.666,512.084 725.5,510C 720.416,504.588 716.583,498.422 714,491.5C 713.257,484.698 713.924,478.032 716,471.5C 717.277,469.253 718.777,467.253 720.5,465.5C 723.651,463.417 726.651,461.084 729.5,458.5C 735.425,455.791 741.758,454.458 748.5,454.5C 751.349,454.747 754.016,455.413 756.5,456.5 Z"/></g>
<g><path style="opacity:1" fill="#b2c0e3" d="M 764.5,471.5 C 765.477,474.287 765.81,477.287 765.5,480.5C 764.5,480.5 763.5,480.5 762.5,480.5C 764.242,477.855 764.909,474.855 764.5,471.5 Z"/></g>
<g><path style="opacity:1" fill="#bbc8e3" d="M 747.5,475.5 C 746.781,473.909 745.781,472.409 744.5,471C 741.228,470.212 738.228,470.712 735.5,472.5C 735.953,471.542 736.619,470.708 737.5,470C 740.167,469.333 742.833,469.333 745.5,470C 747.155,471.444 747.822,473.278 747.5,475.5 Z"/></g>
<g><path style="opacity:1" fill="#d0d1d1" d="M 183.5,507.5 C 177.705,502.872 172.371,497.706 167.5,492C 165.975,490.991 164.308,490.491 162.5,490.5C 162.185,486.629 162.518,482.962 163.5,479.5C 163.5,482.833 163.5,486.167 163.5,489.5C 192.26,486.655 220.927,483.155 249.5,479C 252.623,475.896 255.623,472.73 258.5,469.5C 258.56,470.043 258.893,470.376 259.5,470.5C 261.258,468.262 263.592,467.262 266.5,467.5C 264.01,476.648 263.01,485.982 263.5,495.5C 258.725,495.881 254.058,496.881 249.5,498.5C 248.446,498.32 247.446,497.987 246.5,497.5C 238.986,498.922 231.486,500.256 224,501.5C 221.556,500.306 219.389,500.806 217.5,503C 208.569,503.511 199.736,504.677 191,506.5C 189.989,506.108 189.489,505.441 189.5,504.5C 188.719,505.737 187.719,506.737 186.5,507.5C 185.313,506.347 184.313,506.347 183.5,507.5 Z"/></g>
<g><path style="opacity:1" fill="#afbfe0" d="M 747.5,478.5 C 748.451,479.919 748.784,481.585 748.5,483.5C 749.5,483.5 750.5,483.5 751.5,483.5C 750.432,484.434 749.099,484.768 747.5,484.5C 747.5,482.5 747.5,480.5 747.5,478.5 Z"/></g>
<g><path style="opacity:1" fill="#a9bddf" d="M 1053.5,478.5 C 1052.93,480.952 1052.27,483.285 1051.5,485.5C 1050.99,482.612 1051.66,480.279 1053.5,478.5 Z"/></g>
<g><path style="opacity:1" fill="#91a5d4" d="M 733.5,476.5 C 733.15,481.036 733.817,485.369 735.5,489.5C 734.5,489.5 733.5,489.5 732.5,489.5C 732.182,484.968 732.515,480.634 733.5,476.5 Z"/></g>
<g><path style="opacity:1" fill="#b1c0df" d="M 735.5,489.5 C 737.5,490.833 739.167,492.5 740.5,494.5C 737.833,493.833 736.167,492.167 735.5,489.5 Z"/></g>
<g><path style="opacity:1" fill="#acbedf" d="M 1106.5,482.5 C 1106.5,486.5 1106.5,490.5 1106.5,494.5C 1107.83,494.5 1109.17,494.5 1110.5,494.5C 1109.08,495.451 1107.41,495.784 1105.5,495.5C 1105.18,490.968 1105.52,486.634 1106.5,482.5 Z"/></g>
<g><path style="opacity:1" fill="#b9c8e4" d="M 740.5,494.5 C 742.749,495.08 744.415,496.413 745.5,498.5C 743.251,497.92 741.585,496.587 740.5,494.5 Z"/></g>
<g><path style="opacity:1" fill="#bac6e2" d="M 861.5,495.5 C 860.081,496.451 858.415,496.784 856.5,496.5C 856.815,500.371 856.482,504.038 855.5,507.5C 855.5,503.5 855.5,499.5 855.5,495.5C 857.5,495.5 859.5,495.5 861.5,495.5 Z"/></g>
<g><path style="opacity:1" fill="#b7c7e1" d="M 746.5,499.5 C 748.749,500.08 750.415,501.413 751.5,503.5C 749.251,502.92 747.585,501.587 746.5,499.5 Z"/></g>
<g><path style="opacity:1" fill="#c1cee5" d="M 817.5,487.5 C 818.648,491.981 818.815,496.648 818,501.5C 813.31,502.941 808.477,503.608 803.5,503.5C 807.912,502.553 812.412,501.553 817,500.5C 817.499,496.179 817.666,491.846 817.5,487.5 Z"/></g>
<g><path style="opacity:1" fill="#b3c2e0" d="M 1057.5,513.5 C 1056.09,515.539 1054.09,516.539 1051.5,516.5C 1053.18,514.992 1055.18,513.992 1057.5,513.5 Z"/></g>
<g><path style="opacity:1" fill="#b8c5e7" d="M 734.5,516.5 C 737.089,517.419 739.089,519.086 740.5,521.5C 737.911,520.581 735.911,518.914 734.5,516.5 Z"/></g>
<g><path style="opacity:1" fill="#b2c2e4" d="M 976.5,509.5 C 976.5,514.833 976.5,520.167 976.5,525.5C 978.833,525.5 981.167,525.5 983.5,525.5C 981.052,526.473 978.385,526.806 975.5,526.5C 975.178,520.642 975.511,514.975 976.5,509.5 Z"/></g>
<g><path style="opacity:1" fill="#aebfdf" d="M 725.5,527.5 C 726.209,526.596 727.209,526.263 728.5,526.5C 728.5,529.833 728.5,533.167 728.5,536.5C 728.11,533.203 727.11,530.203 725.5,527.5 Z"/></g>
<g><path style="opacity:1" fill="#c2d0e8" d="M 798.5,518.5 C 798.5,524.167 798.5,529.833 798.5,535.5C 801.167,535.5 803.833,535.5 806.5,535.5C 803.713,536.477 800.713,536.81 797.5,536.5C 797.177,530.31 797.51,524.31 798.5,518.5 Z"/></g>
<g><path style="opacity:1" fill="#b5c4de" d="M 816.5,534.5 C 817.919,533.549 819.585,533.216 821.5,533.5C 821.813,537.042 821.479,540.375 820.5,543.5C 820.5,540.5 820.5,537.5 820.5,534.5C 819.167,534.5 817.833,534.5 816.5,534.5 Z"/></g>
<g><path style="opacity:1" fill="#b4c3e2" d="M 872.5,538.5 C 874.717,539.369 877.05,539.702 879.5,539.5C 878.551,540.152 877.385,540.486 876,540.5C 874.319,540.392 873.152,539.725 872.5,538.5 Z"/></g>
<g><path style="opacity:1" fill="#d7d8d8" d="M 678.5,528.5 C 679.086,530.243 679.419,532.076 679.5,534C 678.546,554.89 677.046,575.724 675,596.5C 673.991,597.658 672.658,598.325 671,598.5C 663.838,599.541 656.672,600.541 649.5,601.5C 648.228,601.43 647.062,601.097 646,600.5C 645.583,601.756 644.75,602.423 643.5,602.5C 646.116,599.545 648.782,596.545 651.5,593.5C 652.272,580.128 653.438,566.795 655,553.5C 662.672,544.995 670.505,536.662 678.5,528.5 Z"/></g>
<g><path style="opacity:1" fill="#b4c1e3" d="M 761.5,542.5 C 761.155,545.198 759.822,547.198 757.5,548.5C 758.34,546.147 759.674,544.147 761.5,542.5 Z"/></g>
<g><path style="opacity:1" fill="#b4c4e0" d="M 749.5,555.5 C 748.089,557.539 746.089,558.539 743.5,558.5C 745.181,556.992 747.181,555.992 749.5,555.5 Z"/></g>
<g><path style="opacity:1" fill="#6887cb" d="M 1039.5,552.5 C 1042.45,552.223 1045.28,552.556 1048,553.5C 1050.38,557.029 1049.55,559.529 1045.5,561C 921.377,578.494 797.211,596.661 673,615.5C 667.871,613.194 667.371,610.361 671.5,607C 777.58,591.784 883.58,576.451 989.5,561C 1006.45,558.655 1023.12,555.822 1039.5,552.5 Z"/></g>
<g><path style="opacity:1" fill="#b6c2df" d="M 217.5,601.5 C 216.92,603.749 215.587,605.415 213.5,606.5C 214.08,604.251 215.413,602.585 217.5,601.5 Z"/></g>
<g><path style="opacity:1" fill="#6786cc" d="M 678.5,528.5 C 670.505,536.662 662.672,544.995 655,553.5C 653.438,566.795 652.272,580.128 651.5,593.5C 648.782,596.545 646.116,599.545 643.5,602.5C 641.806,603.527 640.473,604.861 639.5,606.5C 630.277,615.935 621.277,625.601 612.5,635.5C 609.764,637.554 607.431,640.054 605.5,643C 578.491,646.584 551.491,650.084 524.5,653.5C 523.761,653.631 523.094,653.464 522.5,653C 523.482,645.253 523.815,637.42 523.5,629.5C 524.493,621.016 524.826,612.349 524.5,603.5C 525.181,595.765 525.848,587.932 526.5,580C 500.863,582.913 475.196,586.08 449.5,589.5C 447.833,589.5 446.167,589.5 444.5,589.5C 444.5,592.833 444.5,596.167 444.5,599.5C 444.5,600.833 444.5,602.167 444.5,603.5C 444.662,609.555 444.162,615.555 443,621.5C 439.934,624.396 437.101,627.396 434.5,630.5C 432.469,631.539 431.136,633.205 430.5,635.5C 427.14,638.194 424.14,641.194 421.5,644.5C 417.824,648.541 414.157,652.541 410.5,656.5C 406.064,661.438 401.397,666.271 396.5,671C 311.392,682.096 226.392,693.596 141.5,705.5C 139.712,705.785 138.045,705.452 136.5,704.5C 137.333,702.833 138.167,701.167 139,699.5C 145.44,694.384 150.44,688.05 154,680.5C 156.333,676.833 159.333,673.833 163,671.5C 166.538,663.968 171.538,657.635 178,652.5C 179.138,648.552 181.471,645.552 185,643.5C 187.893,637.608 191.893,632.608 197,628.5C 198.237,624.029 200.903,620.696 205,618.5C 207.214,613.92 210.047,609.92 213.5,606.5C 215.587,605.415 216.92,603.749 217.5,601.5C 245.158,565.781 273.492,530.114 302.5,494.5C 308.587,485.325 314.421,475.992 320,466.5C 322.313,461.4 323.48,456.067 323.5,450.5C 324.711,444.977 324.711,439.31 323.5,433.5C 319.05,421.595 310.383,415.595 297.5,415.5C 296.851,420.136 296.351,424.802 296,429.5C 283.239,442.755 270.739,456.089 258.5,469.5C 255.623,472.73 252.623,475.896 249.5,479C 220.927,483.155 192.26,486.655 163.5,489.5C 163.5,486.167 163.5,482.833 163.5,479.5C 166.564,446.771 177.73,417.438 197,391.5C 199.037,389.294 201.203,387.294 203.5,385.5C 206.903,383.1 209.57,380.1 211.5,376.5C 214.272,373.306 217.272,370.306 220.5,367.5C 222.914,366.089 224.581,364.089 225.5,361.5C 226.167,361.5 226.5,361.167 226.5,360.5C 229.917,362.592 232.25,365.592 233.5,369.5C 223.484,388.899 218.15,409.566 217.5,431.5C 241.476,428.313 265.476,425.313 289.5,422.5C 289.5,414 290.667,405.667 293,397.5C 299.996,376.752 314.163,363.919 335.5,359C 352.133,354.933 365.299,359.766 375,373.5C 380.745,386.773 380.745,400.107 375,413.5C 370.903,423.909 365.57,433.576 359,442.5C 305.167,510.333 251.333,578.167 197.5,646C 223.484,643.002 249.484,639.835 275.5,636.5C 282.465,636.601 289.132,635.601 295.5,633.5C 341.112,626.936 386.779,620.936 432.5,615.5C 433.833,615.5 435.167,615.5 436.5,615.5C 436.5,613.5 436.5,611.5 436.5,609.5C 437.112,591.475 438.112,573.475 439.5,555.5C 440.947,554.378 441.947,552.878 442.5,551C 441.833,550.333 441.167,549.667 440.5,549C 437.54,549.32 434.54,549.32 431.5,549C 434.044,547.908 436.711,547.241 439.5,547C 436.899,546.08 434.232,545.413 431.5,545C 434.106,544.55 435.439,543.05 435.5,540.5C 483.727,533.43 532.06,527.097 580.5,521.5C 579.583,546.169 578.583,570.836 577.5,595.5C 598.104,592.366 618.771,589.699 639.5,587.5C 641.5,587.5 643.5,587.5 645.5,587.5C 645.5,583.5 645.5,579.5 645.5,575.5C 645.97,554.376 647.47,533.376 650,512.5C 650.75,511.874 651.584,511.374 652.5,511C 663.542,509.732 674.542,508.232 685.5,506.5C 686.043,486.809 687.043,467.142 688.5,447.5C 678.527,448.961 668.527,450.294 658.5,451.5C 656.571,451.46 654.738,451.127 653,450.5C 655.195,398.812 658.029,347.146 661.5,295.5C 662.325,291.353 662.825,287.019 663,282.5C 664.773,280.047 666.273,277.381 667.5,274.5C 665.441,268.371 664.441,262.037 664.5,255.5C 665.5,255.5 666.5,255.5 667.5,255.5C 667.5,254.5 667.5,253.5 667.5,252.5C 668.5,252.5 669.5,252.5 670.5,252.5C 670.5,259.5 670.5,266.5 670.5,273.5C 669.521,276.625 669.187,279.958 669.5,283.5C 672.059,283.802 674.393,283.468 676.5,282.5C 793.898,266.994 911.231,251.161 1028.5,235C 1045.47,233.018 1062.47,231.184 1079.5,229.5C 1080.29,233.066 1082.12,236.066 1085,238.5C 1085.97,240.392 1086.64,242.392 1087,244.5C 1097.97,262.572 1108.47,280.905 1118.5,299.5C 1102.08,326.899 1085.75,354.399 1069.5,382C 933.238,401.048 796.905,419.548 660.5,437.5C 660.5,439.5 660.5,441.5 660.5,443.5C 672.532,442.448 684.532,441.114 696.5,439.5C 695.036,463.839 693.369,488.172 691.5,512.5C 687.258,516.685 683.258,521.018 679.5,525.5C 678.614,526.325 678.281,527.325 678.5,528.5 Z"/></g>
<g><path style="opacity:1" fill="#a997b9" d="M 436.5,609.5 C 436.5,611.5 436.5,613.5 436.5,615.5C 435.167,615.5 433.833,615.5 432.5,615.5C 433.209,614.596 434.209,614.263 435.5,614.5C 435.216,612.585 435.549,610.919 436.5,609.5 Z"/></g>
<g><path style="opacity:1" fill="#d8d9d9" d="M 524.5,603.5 C 524.826,612.349 524.493,621.016 523.5,629.5C 523.5,625.833 523.5,622.167 523.5,618.5C 493.81,622.354 464.143,626.354 434.5,630.5C 437.101,627.396 439.934,624.396 443,621.5C 444.162,615.555 444.662,609.555 444.5,603.5C 445.793,604.842 446.626,606.509 447,608.5C 462.809,606.374 478.642,604.041 494.5,601.5C 496.273,602.087 498.106,602.42 500,602.5C 506.511,601.315 513.011,600.315 519.5,599.5C 520.044,597.42 520.878,595.42 522,593.5C 522.311,597.09 523.144,600.423 524.5,603.5 Z"/></g>
<g><path style="opacity:1" fill="#ac93b0" d="M 449.5,589.5 C 448.432,590.434 447.099,590.768 445.5,590.5C 445.81,593.713 445.477,596.713 444.5,599.5C 444.5,596.167 444.5,592.833 444.5,589.5C 446.167,589.5 447.833,589.5 449.5,589.5 Z"/></g>
<g><path style="opacity:1" fill="#a696c0" d="M 645.5,575.5 C 645.5,579.5 645.5,583.5 645.5,587.5C 643.5,587.5 641.5,587.5 639.5,587.5C 640.919,586.549 642.585,586.216 644.5,586.5C 644.185,582.629 644.518,578.962 645.5,575.5 Z"/></g>
<g><path style="opacity:1" fill="#cfd0d1" d="M 524.5,603.5 C 523.144,600.423 522.311,597.09 522,593.5C 520.878,595.42 520.044,597.42 519.5,599.5C 513.011,600.315 506.511,601.315 500,602.5C 498.106,602.42 496.273,602.087 494.5,601.5C 478.642,604.041 462.809,606.374 447,608.5C 446.626,606.509 445.793,604.842 444.5,603.5C 444.5,602.167 444.5,600.833 444.5,599.5C 445.477,596.713 445.81,593.713 445.5,590.5C 447.099,590.768 448.432,590.434 449.5,589.5C 475.196,586.08 500.863,582.913 526.5,580C 525.848,587.932 525.181,595.765 524.5,603.5 Z"/></g>
<g><path style="opacity:1" fill="#ced1d2" d="M 394.5,505.5 C 395.525,505.897 395.692,506.563 395,507.5C 390.667,514.167 386.333,520.833 382,527.5C 381.5,535.159 381.334,542.826 381.5,550.5C 372.429,551.157 363.429,551.99 354.5,553C 368.42,537.587 381.753,521.753 394.5,505.5 Z"/></g>
<g><path style="opacity:1" fill="#cacdce" d="M 533.5,427.5 C 534.226,438.329 534.226,449.329 533.5,460.5C 526.208,461.772 518.875,462.272 511.5,462C 519.057,450.616 526.39,439.116 533.5,427.5 Z"/></g>
<g><path style="opacity:1" fill="#cab7ca" d="M 743.5,391.5 C 744.036,394.698 743.369,397.365 741.5,399.5C 742.078,396.72 742.745,394.053 743.5,391.5 Z"/></g>
<g><path style="opacity:1" fill="#b8a4c1" d="M 769.5,292.5 C 768.158,294.361 767.158,296.361 766.5,298.5C 766.5,296.5 766.5,294.5 766.5,292.5C 767.5,292.5 768.5,292.5 769.5,292.5 Z"/></g>
<g><path style="opacity:1" fill="#ccb7cd" d="M 783.5,291.5 C 784.568,290.566 785.901,290.232 787.5,290.5C 787.784,292.415 787.451,294.081 786.5,295.5C 786.5,294.167 786.5,292.833 786.5,291.5C 785.5,291.5 784.5,291.5 783.5,291.5 Z"/></g>
<g><path style="opacity:1" fill="#fcfcfd" d="M 783.5,291.5 C 784.5,291.5 785.5,291.5 786.5,291.5C 786.5,292.833 786.5,294.167 786.5,295.5C 784.966,328.171 783.3,360.838 781.5,393.5C 774.778,394.173 768.112,395.173 761.5,396.5C 762.056,381.16 762.722,365.827 763.5,350.5C 757.552,351.602 751.552,352.269 745.5,352.5C 744.9,365.504 744.233,378.504 743.5,391.5C 742.745,394.053 742.078,396.72 741.5,399.5C 735.428,399.656 729.428,400.323 723.5,401.5C 723.167,399.833 722.833,398.167 722.5,396.5C 725.044,363.866 727.044,331.199 728.5,298.5C 735.149,297.669 741.815,297.002 748.5,296.5C 747.867,310.169 747.2,323.835 746.5,337.5C 752.172,337.24 757.839,336.907 763.5,336.5C 765.436,332.285 766.103,327.619 765.5,322.5C 765.935,314.505 766.269,306.505 766.5,298.5C 767.158,296.361 768.158,294.361 769.5,292.5C 774.193,292.46 778.859,292.127 783.5,291.5 Z"/></g>
<g><path style="opacity:1" fill="#cbbad0" d="M 765.5,322.5 C 766.103,327.619 765.436,332.285 763.5,336.5C 764.117,331.731 764.784,327.064 765.5,322.5 Z"/></g>
<g><path style="opacity:1" fill="#fcfcfd" d="M 833.5,282.5 C 855.08,279.602 865.08,288.935 863.5,310.5C 862.665,327.198 861.498,343.865 860,360.5C 857.365,376.802 847.865,385.969 831.5,388C 825.833,388.667 820.167,388.667 814.5,388C 808.004,384.481 804.17,378.981 803,371.5C 802.949,352.153 803.616,332.82 805,313.5C 806.371,302.913 811.204,294.413 819.5,288C 824.125,285.851 828.792,284.018 833.5,282.5 Z"/></g>
<g><path style="opacity:1" fill="#6986cb" d="M 833.5,297.5 C 842.268,297.303 845.602,301.636 843.5,310.5C 842.254,328.161 841.088,345.828 840,363.5C 837.89,372.889 832.556,375.555 824,371.5C 823.004,367.569 822.504,363.569 822.5,359.5C 823.576,342.155 824.743,324.822 826,307.5C 826.501,302.518 829.001,299.185 833.5,297.5 Z"/></g>
<g><path style="opacity:1" fill="#bfc7e6" d="M 670.5,273.5 C 670.5,276.5 670.5,279.5 670.5,282.5C 672.5,282.5 674.5,282.5 676.5,282.5C 674.393,283.468 672.059,283.802 669.5,283.5C 669.187,279.958 669.521,276.625 670.5,273.5 Z"/></g>
<g><path style="opacity:1" fill="#baa4c4" d="M 964.5,266.5 C 963.791,267.404 962.791,267.737 961.5,267.5C 961.817,271.702 961.483,275.702 960.5,279.5C 960.5,275.167 960.5,270.833 960.5,266.5C 961.833,266.5 963.167,266.5 964.5,266.5 Z"/></g>
<g><path style="opacity:1" fill="#fcfcfc" d="M 933.5,270.5 C 936.167,270.5 938.833,270.5 941.5,270.5C 940.396,295.518 938.896,320.518 937,345.5C 935.627,365.206 925.127,376.039 905.5,378C 890.823,380.925 882.323,375.092 880,360.5C 880.763,332.827 881.93,305.16 883.5,277.5C 890.15,276.702 896.817,276.035 903.5,275.5C 901.446,303.47 900.279,331.47 900,359.5C 902.945,363.758 906.779,364.591 911.5,362C 914.731,359.285 916.564,355.785 917,351.5C 918.389,325.165 919.889,298.831 921.5,272.5C 925.684,272.149 929.684,271.482 933.5,270.5 Z"/></g>
<g><path style="opacity:1" fill="#fcfcfd" d="M 960.5,279.5 C 961.483,275.702 961.817,271.702 961.5,267.5C 962.791,267.737 963.791,267.404 964.5,266.5C 970.896,266.141 977.229,265.308 983.5,264C 990.5,263.333 997.5,263.333 1004.5,264C 1011.88,265.049 1016.38,269.216 1018,276.5C 1019.03,285.722 1018.03,294.722 1015,303.5C 1011.6,307.726 1008.1,311.726 1004.5,315.5C 1008.37,331.114 1012.04,346.78 1015.5,362.5C 1008.47,362.92 1001.47,363.587 994.5,364.5C 991.834,349.501 989.167,334.501 986.5,319.5C 983.794,319.575 981.127,319.908 978.5,320.5C 977.029,336.123 976.029,351.79 975.5,367.5C 968.851,368.331 962.185,368.998 955.5,369.5C 957.333,339.503 959,309.503 960.5,279.5 Z"/></g>
<g><path style="opacity:1" fill="#6a86cb" d="M 980.5,277.5 C 985.511,277.334 990.511,277.501 995.5,278C 998.107,280.985 999.441,284.485 999.5,288.5C 999.825,302.175 993.158,308.842 979.5,308.5C 979.485,298.153 979.818,287.819 980.5,277.5 Z"/></g>
<g><path style="opacity:1" fill="#d9d9d9" d="M 639.5,606.5 C 638.041,627.811 636.874,649.144 636,670.5C 635.764,672.764 635.264,674.931 634.5,677C 609.337,681.642 584.003,684.976 558.5,687C 552.883,682.044 547.55,676.877 542.5,671.5C 550.386,669.441 558.386,667.775 566.5,666.5C 571.892,667.065 577.225,666.398 582.5,664.5C 594.423,664.128 606.423,662.295 618.5,659C 619.722,654.389 619.722,649.723 618.5,645C 618.604,642.206 619.604,639.873 621.5,638C 620.833,637.667 620.167,637.333 619.5,637C 620.551,635.615 621.884,634.615 623.5,634C 622.552,633.517 621.552,633.351 620.5,633.5C 620.906,631.891 620.906,630.557 620.5,629.5C 618.988,630.991 617.988,632.824 617.5,635C 616.128,635.402 614.795,635.902 613.5,636.5C 612.893,636.376 612.56,636.043 612.5,635.5C 621.277,625.601 630.277,615.935 639.5,606.5 Z"/></g>
<g><path style="opacity:1" fill="#9691c0" d="M 295.5,633.5 C 289.132,635.601 282.465,636.601 275.5,636.5C 281.938,634.859 288.604,633.859 295.5,633.5 Z"/></g>
<g><path style="opacity:1" fill="#d0d1d1" d="M 542.5,671.5 C 536.509,665.543 530.509,659.543 524.5,653.5C 551.491,650.084 578.491,646.584 605.5,643C 607.431,640.054 609.764,637.554 612.5,635.5C 612.56,636.043 612.893,636.376 613.5,636.5C 614.795,635.902 616.128,635.402 617.5,635C 617.988,632.824 618.988,630.991 620.5,629.5C 620.906,630.557 620.906,631.891 620.5,633.5C 621.552,633.351 622.552,633.517 623.5,634C 621.884,634.615 620.551,635.615 619.5,637C 620.167,637.333 620.833,637.667 621.5,638C 619.604,639.873 618.604,642.206 618.5,645C 619.722,649.723 619.722,654.389 618.5,659C 606.423,662.295 594.423,664.128 582.5,664.5C 577.225,666.398 571.892,667.065 566.5,666.5C 558.386,667.775 550.386,669.441 542.5,671.5 Z"/></g>
<g><path style="opacity:1" fill="#dcdcdc" d="M 430.5,635.5 C 429.605,656.512 428.438,677.512 427,698.5C 426.971,701.367 426.138,703.867 424.5,706C 341.549,717.734 258.549,728.734 175.5,739C 173.044,736.563 170.71,734.063 168.5,731.5C 169.833,731.5 171.167,731.5 172.5,731.5C 172.329,734.797 172.995,735.131 174.5,732.5C 177.68,731.101 180.847,730.768 184,731.5C 218.105,724.555 252.605,719.722 287.5,717C 310.38,713.069 333.38,709.569 356.5,706.5C 357.772,706.57 358.938,706.903 360,707.5C 366.593,706.728 373.093,705.394 379.5,703.5C 381.32,703.649 382.82,704.316 384,705.5C 384.333,704.833 384.667,704.167 385,703.5C 386.113,704.711 387.28,704.711 388.5,703.5C 388.833,704.167 389.167,704.833 389.5,705.5C 390.472,703.364 392.139,702.197 394.5,702C 402.147,700.88 409.813,699.88 417.5,699C 418,698.5 418.5,698 419,697.5C 420.385,680.971 421.552,664.638 422.5,648.5C 421.975,647.808 421.308,647.308 420.5,647C 421.252,646.329 421.586,645.496 421.5,644.5C 424.14,641.194 427.14,638.194 430.5,635.5 Z"/></g>
<g><path style="opacity:1" fill="#d7d7d7" d="M 421.5,644.5 C 421.586,645.496 421.252,646.329 420.5,647C 421.308,647.308 421.975,647.808 422.5,648.5C 421.552,664.638 420.385,680.971 419,697.5C 418.5,698 418,698.5 417.5,699C 409.813,699.88 402.147,700.88 394.5,702C 392.139,702.197 390.472,703.364 389.5,705.5C 389.167,704.833 388.833,704.167 388.5,703.5C 387.28,704.711 386.113,704.711 385,703.5C 384.667,704.167 384.333,704.833 384,705.5C 382.82,704.316 381.32,703.649 379.5,703.5C 373.093,705.394 366.593,706.728 360,707.5C 358.938,706.903 357.772,706.57 356.5,706.5C 333.38,709.569 310.38,713.069 287.5,717C 252.605,719.722 218.105,724.555 184,731.5C 180.847,730.768 177.68,731.101 174.5,732.5C 172.995,735.131 172.329,734.797 172.5,731.5C 171.167,731.5 169.833,731.5 168.5,731.5C 166.88,729.587 164.88,728.253 162.5,727.5C 162.5,726.5 162.5,725.5 162.5,724.5C 161.5,724.5 160.5,724.5 159.5,724.5C 159.5,723.5 159.5,722.5 159.5,721.5C 161.695,722.608 163.695,722.441 165.5,721C 193.303,716.857 221.303,713.524 249.5,711C 251.389,708.806 253.556,708.306 256,709.5C 273.069,706.536 290.235,704.369 307.5,703C 308.623,701.956 309.956,701.29 311.5,701C 316.627,700.822 321.627,699.988 326.5,698.5C 332.349,698.46 338.182,698.46 344,698.5C 351.221,696.012 358.721,694.846 366.5,695C 365.289,694.107 365.289,693.274 366.5,692.5C 369.697,692.896 372.864,693.229 376,693.5C 383.479,692.209 390.979,690.876 398.5,689.5C 402.331,690.668 405.831,690.001 409,687.5C 409.254,678.746 410.088,670.079 411.5,661.5C 413.346,661.778 414.68,661.111 415.5,659.5C 414.312,657.738 412.645,656.738 410.5,656.5C 414.157,652.541 417.824,648.541 421.5,644.5 Z"/></g>
<g><path style="opacity:1" fill="#cfd0d1" d="M 410.5,656.5 C 412.645,656.738 414.312,657.738 415.5,659.5C 414.68,661.111 413.346,661.778 411.5,661.5C 410.088,670.079 409.254,678.746 409,687.5C 405.831,690.001 402.331,690.668 398.5,689.5C 390.979,690.876 383.479,692.209 376,693.5C 372.864,693.229 369.697,692.896 366.5,692.5C 365.289,693.274 365.289,694.107 366.5,695C 358.721,694.846 351.221,696.012 344,698.5C 338.182,698.46 332.349,698.46 326.5,698.5C 321.627,699.988 316.627,700.822 311.5,701C 309.956,701.29 308.623,701.956 307.5,703C 290.235,704.369 273.069,706.536 256,709.5C 253.556,708.306 251.389,708.806 249.5,711C 221.303,713.524 193.303,716.857 165.5,721C 163.695,722.441 161.695,722.608 159.5,721.5C 158.5,721.5 157.5,721.5 156.5,721.5C 156.5,720.5 156.5,719.5 156.5,718.5C 155.5,718.5 154.5,718.5 153.5,718.5C 153.5,717.5 153.5,716.5 153.5,715.5C 152.325,715.719 151.325,715.386 150.5,714.5C 147.703,711.274 144.703,708.274 141.5,705.5C 226.392,693.596 311.392,682.096 396.5,671C 401.397,666.271 406.064,661.438 410.5,656.5 Z"/></g>
</svg>
