<?xml version="1.0" encoding="UTF-8"?>
<svg width="24px" height="24px" viewBox="0 0 24 24" version="1.1" xmlns="http://www.w3.org/2000/svg" xmlns:xlink="http://www.w3.org/1999/xlink">
    <title>Icon/2fa</title>
    <g id="Icon/2fa" stroke="none" stroke-width="1" fill="none" fill-rule="evenodd">
        <path d="M7.37336591,8.62133847 C7.93707858,9.59976368 7.84271719,10.8163057 7.19211166,11.6457121 L7.07154549,11.7879319 L4.492,15.25 L7,15.25 C7.37969577,15.25 7.69349096,15.5321539 7.74315338,15.8982294 L7.75,16 C7.75,16.3796958 7.46784612,16.693491 7.10177056,16.7431534 L7,16.75 L3,16.75 C2.41943969,16.75 2.07250274,16.1271099 2.34083821,15.6413546 L2.39845451,15.5520681 L5.9152067,10.8353175 C6.28090919,10.4333038 6.34495436,9.841061 6.0736488,9.37016117 C5.80234323,8.89926133 5.25786034,8.65761763 4.72664619,8.77235597 C4.23969988,8.87753279 3.86619425,9.26007537 3.76668243,9.73973025 L3.7464567,9.87281753 C3.70624069,10.2850742 3.33943912,10.5866727 2.92718247,10.5464567 C2.51492582,10.5062407 2.21332729,10.1394391 2.2535433,9.72718247 C2.36962622,8.53720976 3.24128904,7.55859141 4.40996017,7.30616705 C5.57863131,7.05374268 6.77649367,7.58535883 7.37336591,8.62133847 Z M14,7.25 C14.4142136,7.25 14.75,7.58578644 14.75,8 C14.75,8.37969577 14.4678461,8.69349096 14.1017706,8.74315338 L14,8.75 L10.75,8.75 L10.7496439,11.2499954 L13,11.25 C13.4142136,11.25 13.75,11.5857864 13.75,12 C13.75,12.3796958 13.4678461,12.693491 13.1017706,12.7431534 L13,12.75 L10.7496439,12.7499954 L10.75,16 C10.75,16.3796958 10.4678461,16.693491 10.1017706,16.7431534 L10,16.75 C9.62030423,16.75 9.30650904,16.4678461 9.25684662,16.1017706 L9.25,16 L9.25,8 C9.25,7.62030423 9.53215388,7.30650904 9.89822944,7.25684662 L10,7.25 L14,7.25 Z M19,7.25 C20.4625318,7.25 21.6584043,8.3917046 21.7449812,9.83247767 L21.75,10 L21.75,16 C21.75,16.4142136 21.4142136,16.75 21,16.75 C20.6203042,16.75 20.306509,16.4678461 20.2568466,16.1017706 L20.25,16 L20.2496439,13.7499954 L17.7496439,13.7499954 L17.75,16 C17.75,16.4142136 17.4142136,16.75 17,16.75 C16.6203042,16.75 16.306509,16.4678461 16.2568466,16.1017706 L16.25,16 L16.25,10 C16.25,8.48121694 17.4812169,7.25 19,7.25 Z M19,8.75 C18.3527913,8.75 17.8204661,9.24187466 17.7564536,9.87219476 L17.75,10 L17.7496439,12.2499954 L20.2496439,12.2499954 L20.25,10 C20.25,9.30964406 19.6903559,8.75 19,8.75 Z" id="Icon-Color" fill="#212121"></path>
    </g>
</svg>