<?xml version="1.0" encoding="UTF-8"?>
<svg width="24px" height="24px" viewBox="0 0 24 24" version="1.1" xmlns="http://www.w3.org/2000/svg" xmlns:xlink="http://www.w3.org/1999/xlink">
    <title>Icon/3d-cube-sphere</title>
    <g id="Icon/3d-cube-sphere" stroke="none" stroke-width="1" fill="none" fill-rule="evenodd">
        <path d="M12,17.75 C12.3796958,17.75 12.693491,18.0321539 12.7431534,18.3982294 L12.75,18.5 L12.75,19.73 L13.6385609,19.2428381 C14.0015015,19.0432208 14.4575446,19.1756204 14.6571619,19.5385609 C14.8401444,19.8712564 14.7441405,20.282184 14.4473125,20.5021177 L14.3614391,20.5571619 L12.3614391,21.6571619 L12.335538,21.6709399 C12.3149763,21.6812428 12.2938753,21.6906284 12.2722886,21.6990429 L12.3614391,21.6571619 C12.3242929,21.6775923 12.2858476,21.6946507 12.2465319,21.7083371 C12.2221514,21.7170542 12.1963391,21.7245472 12.1699949,21.7306521 C12.1605927,21.7326707 12.1519217,21.7345167 12.1432277,21.7362073 C12.1211149,21.7406454 12.0976878,21.7440776 12.0739357,21.7464018 C12.0587436,21.7478426 12.0440806,21.7488487 12.0294045,21.7494239 C12.0197772,21.7498078 12.0099111,21.75 12,21.75 L11.9715919,21.7494623 C11.9562478,21.7488813 11.9409175,21.7478293 11.9256235,21.7463065 L12,21.75 C11.9506889,21.75 11.9024892,21.7452411 11.8558353,21.7361576 C11.8480783,21.7345167 11.8394073,21.7326707 11.8307637,21.7306693 C11.8036609,21.7245472 11.7778486,21.7170542 11.7526494,21.7082544 C11.748182,21.7064969 11.7429115,21.7045957 11.7376579,21.7026336 L11.7277114,21.6990429 C11.7061247,21.6906284 11.6850237,21.6812428 11.664462,21.6709399 L11.6385609,21.6571619 L9.63856094,20.5571619 C9.27562042,20.3575446 9.14322079,19.9015015 9.34283807,19.5385609 C9.52582058,19.2058655 9.92427209,19.0668884 10.2689666,19.199792 L10.3614391,19.2428381 L11.25,19.731 L11.25,18.5 C11.25,18.0857864 11.5857864,17.75 12,17.75 Z M20,13.25 C20.3796958,13.25 20.693491,13.5321539 20.7431534,13.8982294 L20.75,14 L20.75,16.5 C20.75,16.7375321 20.6376886,16.9588407 20.4509364,17.0993141 L20.3664525,17.1543795 L18.3664525,18.2743795 C18.0050487,18.4767657 17.5480066,18.3478564 17.3456205,17.9864525 C17.1600999,17.6551657 17.2529594,17.2435162 17.5480973,17.0213196 L17.6335475,16.9656205 L19.25,16.059 L19.25,14 C19.25,13.6203042 19.5321539,13.306509 19.8982294,13.2568466 L20,13.25 Z M4,13.25 C4.37969577,13.25 4.69349096,13.5321539 4.74315338,13.8982294 L4.75,14 L4.75,16.056 L6.36143906,16.9428381 C6.69413453,17.1258206 6.83311163,17.5242721 6.70020796,17.8689666 L6.65716193,17.9614391 C6.47417942,18.2941345 6.07572791,18.4331116 5.73103343,18.300208 L5.63856094,18.2571619 L3.63856094,17.1571619 C3.42885739,17.041825 3.28864308,16.8346006 3.25686612,16.6013607 L3.25,16.5 L3.25,14 C3.25,13.5857864 3.58578644,13.25 4,13.25 Z M10.2743118,10.1818688 L10.3664525,10.2256205 L12.003,11.141 L13.6385609,10.2428381 C14.0015015,10.0432208 14.4575446,10.1756204 14.6571619,10.5385609 C14.8401444,10.8712564 14.7441405,11.282184 14.4473125,11.5021177 L14.3614391,11.5571619 L12.75,12.443 L12.75,14.5 C12.75,14.9142136 12.4142136,15.25 12,15.25 C11.6203042,15.25 11.306509,14.9678461 11.2568466,14.6017706 L11.25,14.5 L11.25,12.44 L9.63354747,11.5343795 C9.27214365,11.3319934 9.14323435,10.8749513 9.34562049,10.5135475 C9.53114112,10.1822606 9.93064347,10.0463338 10.2743118,10.1818688 Z M6.65716193,6.03856094 C6.84014444,6.37125641 6.74414051,6.782184 6.44731253,7.00211768 L6.36143906,7.05716193 L5.556,7.499 L6.36143906,7.94283807 C6.72437958,8.14245535 6.85677921,8.59849855 6.65716193,8.96143906 C6.47417942,9.29413453 6.07572791,9.43311163 5.73103343,9.30020796 L5.63856094,9.25716193 L4.75,8.769 L4.75,10 C4.75,10.3796958 4.46784612,10.693491 4.10177056,10.7431534 L4,10.75 C3.62030423,10.75 3.30650904,10.4678461 3.25684662,10.1017706 L3.25,10 L3.25,7.5 L3.2504867,7.46872499 C3.2512931,7.44903591 3.2528806,7.42932595 3.25526252,7.40964094 L3.25,7.5 C3.25,7.44731979 3.25552352,7.39544414 3.26615517,7.34507555 C3.26842891,7.33344847 3.27120593,7.32171247 3.27427794,7.31001352 C3.27764481,7.29776351 3.28124333,7.28533092 3.28515505,7.27301624 C3.29085217,7.25473884 3.29734905,7.23675573 3.30458136,7.21892605 C3.31169997,7.20146495 3.31957891,7.18392702 3.32811231,7.16672724 C3.33268789,7.15748631 3.33765088,7.14799219 3.34283807,7.13856094 L3.3509982,7.12410544 C3.35797535,7.11205934 3.36528707,7.10020791 3.37292482,7.08856557 L3.34283807,7.13856094 C3.38969944,7.05335844 3.45069256,6.98086115 3.52129539,6.92238191 C3.53155771,6.91410694 3.54218271,6.90576801 3.55305598,6.8977019 C3.56549865,6.88831114 3.57698323,6.8803278 3.58866176,6.87268443 L3.63856094,6.84283807 L5.63856094,5.74283807 C6.00150145,5.54322079 6.45754465,5.67562042 6.65716193,6.03856094 Z M18.2689666,5.69979204 L18.3614391,5.74283807 L20.3614391,6.84283807 L20.3743599,6.8499855 C20.3888712,6.85832455 20.4031264,6.86716265 20.417097,6.87649153 L20.3614391,6.84283807 C20.3952873,6.86145461 20.4273252,6.88246511 20.4573888,6.90559256 C20.464237,6.91062986 20.4713358,6.91628616 20.4783403,6.92208032 C20.4941984,6.93546629 20.5090222,6.94879954 20.5232588,6.96266498 L20.5376027,6.97677222 C20.5454535,6.98484803 20.5531433,6.99312497 20.5606639,7.00160067 C20.5716343,7.01416562 20.5823844,7.02711079 20.5926788,7.04038912 C20.6071993,7.05897516 20.621076,7.07877625 20.6340856,7.09941147 C20.6393294,7.10776517 20.6442434,7.11589003 20.6490018,7.12410544 C20.6516988,7.12875614 20.6544539,7.13363733 20.6571619,7.13856094 L20.6718877,7.16672724 C20.6816701,7.1864444 20.6905924,7.20660597 20.698621,7.22715504 L20.6571619,7.13856094 C20.6810368,7.18196978 20.7001622,7.22671044 20.7147117,7.27218492 C20.7191777,7.28658729 20.7233925,7.30133359 20.727157,7.31622697 C20.7322197,7.33554078 20.7363168,7.35497074 20.7396244,7.37445215 C20.7407777,7.38235114 20.7420221,7.39047929 20.7431339,7.39863929 L20.746984,7.43071645 C20.7481543,7.4434039 20.7489969,7.45609493 20.7495154,7.46877727 L20.75,7.5 L20.75,10 C20.75,10.4142136 20.4142136,10.75 20,10.75 C19.6203042,10.75 19.306509,10.4678461 19.2568466,10.1017706 L19.25,10 L19.25,8.768 L18.3614391,9.25716193 C17.9984985,9.45677921 17.5424554,9.32437958 17.3428381,8.96143906 C17.1598556,8.62874359 17.2558595,8.217816 17.5526875,7.99788232 L17.6385609,7.94283807 L18.442,7.5 L17.6385609,7.05716193 C17.3058655,6.87417942 17.1668884,6.47572791 17.299792,6.13103343 L17.3428381,6.03856094 C17.5258206,5.70586547 17.9242721,5.56688837 18.2689666,5.69979204 Z M12.2623421,2.29736636 L12.3614391,2.34283807 L14.3614391,3.44283807 C14.7243796,3.64245535 14.8567792,4.09849855 14.6571619,4.46143906 C14.4741794,4.79413453 14.0757279,4.93311163 13.7310334,4.80020796 L13.6385609,4.75716193 L12,3.856 L10.3614391,4.75716193 C10.0287436,4.94014444 9.617816,4.84414051 9.39788232,4.54731253 L9.34283807,4.46143906 C9.15985556,4.12874359 9.25585949,3.717816 9.55268747,3.49788232 L9.63856094,3.44283807 L11.6385609,2.34283807 C11.8314712,2.23673742 12.0594206,2.22158018 12.2623421,2.29736636 Z" id="Icon-Color" fill="#212121"></path>
    </g>
</svg>