<?xml version="1.0" encoding="UTF-8"?>
<svg width="24px" height="24px" viewBox="0 0 24 24" version="1.1" xmlns="http://www.w3.org/2000/svg" xmlns:xlink="http://www.w3.org/1999/xlink">
    <title>Icon/adjustments-horizontal</title>
    <g id="Icon/adjustments-horizontal" stroke="none" stroke-width="1" fill="none" fill-rule="evenodd">
        <path d="M17,15.25 C18.2589387,15.25 19.3202917,16.0959647 19.6466094,17.2504445 L20,17.25 C20.4142136,17.25 20.75,17.5857864 20.75,18 C20.75,18.3796958 20.4678461,18.693491 20.1017706,18.7431534 L20,18.75 L19.646327,18.7505538 C19.3196798,19.9045229 18.2585758,20.75 17,20.75 C15.7414242,20.75 14.6803202,19.9045229 14.353673,18.7505538 L4,18.75 C3.58578644,18.75 3.25,18.4142136 3.25,18 C3.25,17.6203042 3.53215388,17.306509 3.89822944,17.2568466 L4,17.25 L14.3533906,17.2504445 C14.6797083,16.0959647 15.7410613,15.25 17,15.25 Z M17,16.75 C16.3096441,16.75 15.75,17.3096441 15.75,18 C15.75,18.6903559 16.3096441,19.25 17,19.25 C17.6903559,19.25 18.25,18.6903559 18.25,18 C18.25,17.3096441 17.6903559,16.75 17,16.75 Z M8,9.25 C9.2589387,9.25 10.3202917,10.0959647 10.6466094,11.2504445 L20,11.25 C20.4142136,11.25 20.75,11.5857864 20.75,12 C20.75,12.3796958 20.4678461,12.693491 20.1017706,12.7431534 L20,12.75 L10.646327,12.7505538 C10.3196798,13.9045229 9.25857578,14.75 8,14.75 C6.74142422,14.75 5.68032018,13.9045229 5.35367295,12.7505538 L4,12.75 C3.58578644,12.75 3.25,12.4142136 3.25,12 C3.25,11.6203042 3.53215388,11.306509 3.89822944,11.2568466 L4,11.25 L5.35339057,11.2504445 C5.67970826,10.0959647 6.7410613,9.25 8,9.25 Z M8,10.75 C7.30964406,10.75 6.75,11.3096441 6.75,12 C6.75,12.6903559 7.30964406,13.25 8,13.25 C8.69035594,13.25 9.25,12.6903559 9.25,12 C9.25,11.3096441 8.69035594,10.75 8,10.75 Z M14,3.25 C15.2589387,3.25 16.3202917,4.09596473 16.6466094,5.25044448 L20,5.25 C20.4142136,5.25 20.75,5.58578644 20.75,6 C20.75,6.37969577 20.4678461,6.69349096 20.1017706,6.74315338 L20,6.75 L16.646327,6.75055384 C16.3196798,7.90452293 15.2585758,8.75 14,8.75 C12.7414242,8.75 11.6803202,7.90452293 11.353673,6.75055384 L4,6.75 C3.58578644,6.75 3.25,6.41421356 3.25,6 C3.25,5.62030423 3.53215388,5.30650904 3.89822944,5.25684662 L4,5.25 L11.3533906,5.25044448 C11.6797083,4.09596473 12.7410613,3.25 14,3.25 Z M14,4.75 C13.3096441,4.75 12.75,5.30964406 12.75,6 C12.75,6.69035594 13.3096441,7.25 14,7.25 C14.6903559,7.25 15.25,6.69035594 15.25,6 C15.25,5.30964406 14.6903559,4.75 14,4.75 Z" id="Icon-Color" fill="#212121"></path>
    </g>
</svg>