<?xml version="1.0" encoding="UTF-8"?>
<svg width="24px" height="24px" viewBox="0 0 24 24" version="1.1" xmlns="http://www.w3.org/2000/svg" xmlns:xlink="http://www.w3.org/1999/xlink">
    <title>Icon/alien</title>
    <g id="Icon/alien" stroke="none" stroke-width="1" fill="none" fill-rule="evenodd">
        <path d="M12.004,2.25 C16.8290353,2.25 20.0633241,4.66945802 20.607426,8.48191816 C21.0961975,11.6865701 20.3350365,14.9565179 18.485018,17.6104581 C17.583707,18.9280093 16.4185563,20.0439898 15.0529853,20.8940516 C13.1494172,22.0366495 10.8545828,22.0366495 8.94060891,20.88769 C7.58544367,20.0439898 6.42029303,18.9280093 5.5238059,17.6174249 C3.66179758,14.9604353 2.8996432,11.6862201 3.39552878,8.48899768 C3.94075881,4.67004745 7.17542733,2.25 12.004,2.25 Z M12.004,3.75 C7.88021915,3.75 5.31312077,5.67059862 4.87914062,8.70993731 C4.441277,11.5333765 5.11245321,14.4167496 6.75701798,16.7635419 C7.54104205,17.9096412 8.5545725,18.8804 9.72298534,19.6079484 C11.1514172,20.4653505 12.8525828,20.4653505 14.2706089,19.61431 C15.4494275,18.8804 16.462958,17.9096412 17.2507304,16.7581138 C18.8845092,14.4143351 19.5553426,11.5324349 19.1235242,8.70097051 C18.6909314,5.67003549 16.1242618,3.75 12.004,3.75 Z M13.6873864,16.7 C13.8530718,17.079633 13.679633,17.5217009 13.3,17.6873864 C12.471086,18.0491541 11.528914,18.0491541 10.7,17.6873864 C10.320367,17.5217009 10.1469282,17.079633 10.3126136,16.7 C10.4782991,16.320367 10.920367,16.1469282 11.3,16.3126136 C11.7463383,16.5074117 12.2536617,16.5074117 12.7,16.3126136 C13.079633,16.1469282 13.5217009,16.320367 13.6873864,16.7 Z M8.44621165,10.3970518 L8.53033009,10.4696699 L10.5303301,12.4696699 C10.8232233,12.7625631 10.8232233,13.2374369 10.5303301,13.5303301 C10.2640635,13.7965966 9.84739984,13.8208027 9.55378835,13.6029482 L9.46966991,13.5303301 L7.46966991,11.5303301 C7.1767767,11.2374369 7.1767767,10.7625631 7.46966991,10.4696699 C7.73593648,10.2034034 8.15260016,10.1791973 8.44621165,10.3970518 Z M16.5303301,10.4696699 C16.7965966,10.7359365 16.8208027,11.1526002 16.6029482,11.4462117 L16.5303301,11.5303301 L14.5303301,13.5303301 C14.2374369,13.8232233 13.7625631,13.8232233 13.4696699,13.5303301 C13.2034034,13.2640635 13.1791973,12.8473998 13.3970518,12.5537883 L13.4696699,12.4696699 L15.4696699,10.4696699 C15.7625631,10.1767767 16.2374369,10.1767767 16.5303301,10.4696699 Z" id="Icon-Color" fill="#212121"></path>
    </g>
</svg>