<?xml version="1.0" encoding="UTF-8"?>
<svg width="24px" height="24px" viewBox="0 0 24 24" version="1.1" xmlns="http://www.w3.org/2000/svg" xmlns:xlink="http://www.w3.org/1999/xlink">
    <title>Icon/antenna</title>
    <g id="Icon/antenna" stroke="none" stroke-width="1" fill="none" fill-rule="evenodd">
        <path d="M6,14.25 C6.37969577,14.25 6.69349096,14.5321539 6.74315338,14.8982294 L6.75,15 L6.75,18 C6.75,18.4142136 6.41421356,18.75 6,18.75 C5.62030423,18.75 5.30650904,18.4678461 5.25684662,18.1017706 L5.25,18 L5.25,15 C5.25,14.5857864 5.58578644,14.25 6,14.25 Z M10,11.25 C10.3796958,11.25 10.693491,11.5321539 10.7431534,11.8982294 L10.75,12 L10.75,18 C10.75,18.4142136 10.4142136,18.75 10,18.75 C9.62030423,18.75 9.30650904,18.4678461 9.25684662,18.1017706 L9.25,18 L9.25,12 C9.25,11.5857864 9.58578644,11.25 10,11.25 Z M14,8.25 C14.3796958,8.25 14.693491,8.53215388 14.7431534,8.89822944 L14.75,9 L14.75,18 C14.75,18.4142136 14.4142136,18.75 14,18.75 C13.6203042,18.75 13.306509,18.4678461 13.2568466,18.1017706 L13.25,18 L13.25,9 C13.25,8.58578644 13.5857864,8.25 14,8.25 Z M18,5.25 C18.3796958,5.25 18.693491,5.53215388 18.7431534,5.89822944 L18.75,6 L18.75,18 C18.75,18.4142136 18.4142136,18.75 18,18.75 C17.6203042,18.75 17.306509,18.4678461 17.2568466,18.1017706 L17.25,18 L17.25,6 C17.25,5.58578644 17.5857864,5.25 18,5.25 Z" id="Icon-Color" fill="#212121"></path>
    </g>
</svg>