<?xml version="1.0" encoding="UTF-8"?>
<svg width="24px" height="24px" viewBox="0 0 24 24" version="1.1" xmlns="http://www.w3.org/2000/svg" xmlns:xlink="http://www.w3.org/1999/xlink">
    <title>Icon/brand/apple</title>
    <g id="Icon/brand/apple" stroke="none" stroke-width="1" fill="none" fill-rule="evenodd">
        <path d="M15.3215102,6.24146796 L15.5579214,6.25223994 L15.7696725,6.27303259 C16.963001,6.42336246 18.5205789,7.15602548 19.4590494,8.3581228 L19.4590494,8.3581228 L19.6185632,8.5758779 C19.8695428,8.94192049 19.7495106,9.44464802 19.360236,9.6578222 L19.360236,9.6578222 L18.9061422,9.8542706 C18.6600538,9.97016894 18.4207477,10.1091103 18.2003038,10.2740115 C17.5856235,10.733818 17.2438308,11.2921308 17.2499564,11.9919142 C17.2594654,12.8738734 17.5972073,13.4556329 18.1743869,13.8517434 C18.3836417,13.9953522 18.6117106,14.1040958 18.8413937,14.1816353 C18.8597637,14.1878369 18.8811685,14.1945173 18.9043807,14.2014183 L18.9043807,14.2014183 L19.2522523,14.2936936 C19.550747,14.4002988 19.7501396,14.6830398 19.7501396,15 C19.7501396,17.3454252 16.983783,20.75 15,20.75 C14.284766,20.75 13.8519277,20.6685373 13.205027,20.4656199 L13.205027,20.4656199 L12.9044927,20.3741821 C12.579292,20.2821294 12.3533106,20.25 12,20.25 C11.4953539,20.25 11.1601435,20.3088433 10.5350986,20.4763194 L10.5350986,20.4763194 L10.1020564,20.5890735 C9.70618512,20.6852652 9.39592627,20.7338188 9,20.75 C6.56946601,20.75 4.25,16.111068 4.25,12.5 C4.25,8.99019171 5.86187748,6.25 9,6.25 C9.26014372,6.25 9.52487934,6.28919686 9.80019678,6.3622146 C10.1631175,6.45846586 10.5009824,6.59585425 10.9787028,6.82226204 L10.9787028,6.82226204 L11.1265144,6.89219173 L11.7142479,7.16215866 L11.8639956,7.22134987 L11.93008,7.24104505 L11.9791599,7.24915602 L12.0362069,7.2508239 L12.0582441,7.24666432 L12.0941876,7.23484422 L13.0757945,6.80931339 C14.0400633,6.38618769 14.7639013,6.19073524 15.5579214,6.25223994 Z M15.247,7.743 L15.1448811,7.74674716 C14.7384616,7.77424102 14.283069,7.91761442 13.6785266,8.18289047 L13.6785266,8.18289047 L12.8751263,8.53741044 C12.530873,8.67722263 12.2688672,8.75 12,8.75 C11.7224942,8.75 11.4486283,8.67555101 11.1129726,8.53704113 L11.1129726,8.53704113 L10.8655049,8.42876478 L10.0226236,8.03387362 C9.78386155,7.92903408 9.59592776,7.85989685 9.41567099,7.81209043 C9.25865538,7.77044787 9.1205505,7.75 9,7.75 C6.90282841,7.75 5.75,9.70980829 5.75,12.5 C5.75,15.388932 7.68053399,19.25 8.96831874,19.2506694 C9.28151015,19.2374279 9.53840576,19.1892012 9.96679585,19.0756178 L9.96679585,19.0756178 L10.4120325,18.9585142 C11.0034631,18.8104238 11.4201573,18.75 12,18.75 C12.5992239,18.75 12.9801483,18.8232444 13.5617009,19.0054062 L13.5617009,19.0054062 L13.8616973,19.0970259 C14.2553553,19.2098898 14.5349148,19.25 15,19.25 C15.9438774,19.25 17.7242506,17.2039833 18.1545958,15.6355758 L18.1545958,15.6355758 L18.179,15.535 L18.1501419,15.5254356 C17.9391901,15.4420585 17.7301913,15.3404527 17.5268844,15.2180022 L17.5268844,15.2180022 L17.3256131,15.0885066 C16.3608672,14.4264146 15.7650521,13.4001246 15.7500287,12.0065666 C15.7392046,10.7703349 16.3361468,9.79523974 17.3018099,9.07288347 C17.3788911,9.01522349 17.4570142,8.96018524 17.5360266,8.90761921 L17.5360266,8.90761921 L17.771,8.76 L17.5941205,8.62166989 C17.4064552,8.48282224 17.2021996,8.35710995 16.9841093,8.24480244 L16.9841093,8.24480244 L16.7615094,8.13697317 C16.2606578,7.90896945 15.7249927,7.76686481 15.4780831,7.7496797 L15.4780831,7.7496797 L15.247,7.743 Z M14,1.25 C14.4142136,1.25 14.75,1.58578644 14.75,2 C14.75,3.51878306 13.5187831,4.75 12,4.75 C11.5857864,4.75 11.25,4.41421356 11.25,4 C11.25,2.48121694 12.4812169,1.25 14,1.25 Z" id="Icon-Color" fill="#212121"></path>
    </g>
</svg>