<?xml version="1.0" encoding="UTF-8"?>
<svg width="24px" height="24px" viewBox="0 0 24 24" version="1.1" xmlns="http://www.w3.org/2000/svg" xmlns:xlink="http://www.w3.org/1999/xlink">
    <title>Icon/brand/appstore</title>
    <g id="Icon/brand/appstore" stroke="none" stroke-width="1" fill="none" fill-rule="evenodd">
        <path d="M12,2.25 C17.3847763,2.25 21.75,6.61522369 21.75,12 C21.75,17.3847763 17.3847763,21.75 12,21.75 C6.61522369,21.75 2.25,17.3847763 2.25,12 C2.25,6.61522369 6.61522369,2.25 12,2.25 Z M12,3.75 C7.44365081,3.75 3.75,7.44365081 3.75,12 C3.75,16.5563492 7.44365081,20.25 12,20.25 C16.5563492,20.25 20.25,16.5563492 20.25,12 C20.25,7.44365081 16.5563492,3.75 12,3.75 Z M12,13.25 C12.4142136,13.25 12.75,13.5857864 12.75,14 C12.75,14.3796958 12.4678461,14.693491 12.1017706,14.7431534 L12,14.75 L9.552,14.75 L8.65555579,16.3643441 C8.45433412,16.7263975 7.99770939,16.8567775 7.63565593,16.6555558 C7.30377358,16.4711026 7.16656136,16.0720399 7.30098933,15.727937 L7.34444421,15.6356559 L7.836,14.75 L7,14.75 C6.58578644,14.75 6.25,14.4142136 6.25,14 C6.25,13.6203042 6.53215388,13.306509 6.89822944,13.2568466 L7,13.25 L12,13.25 Z M14.0184158,10.9494886 L14.0902088,11.0321293 L14.145618,11.1177678 L15.33,13.25 L17,13.25 C17.4142136,13.25 17.75,13.5857864 17.75,14 C17.75,14.3796958 17.4678461,14.693491 17.1017706,14.7431534 L17,14.75 L16.163,14.75 L16.655618,15.6357678 C16.8567778,15.9978556 16.72632,16.4544581 16.3642322,16.655618 C16.0323184,16.8400145 15.620986,16.7457601 15.3997912,16.4498707 L15.344382,16.3642322 L12.834382,11.8462322 C12.6332222,11.4841444 12.76368,11.0275419 13.1257678,10.826382 C13.4244902,10.6604251 13.7875417,10.7201755 14.0184158,10.9494886 Z M13.3643066,6.34442339 C13.6961995,6.52885763 13.8334345,6.92791249 13.6990262,7.27202306 L13.6555766,7.36430661 L12.6948793,9.09456808 C12.6744832,9.14339304 12.6488958,9.19018353 12.6183779,9.2340266 L11.1615766,11.8523066 C10.9603756,12.2143716 10.5037584,12.3447776 10.1416934,12.1435766 C9.8098005,11.9591424 9.67256548,11.5600875 9.80697378,11.2159769 L9.85042339,11.1236934 L11.141,8.799 L10.3444163,7.36429387 C10.1432224,7.002225 10.2736373,6.54561026 10.6357061,6.34441631 C10.9344129,6.1784313 11.29747,6.23814756 11.5283657,6.46743887 L11.6001665,6.55007288 L11.6555837,6.63570613 L11.999,7.255 L12.3444234,6.63569339 C12.5456244,6.27362842 13.0022416,6.1432224 13.3643066,6.34442339 Z" id="Icon-Color" fill="#212121"></path>
    </g>
</svg>