<?xml version="1.0" encoding="UTF-8"?>
<svg width="24px" height="24px" viewBox="0 0 24 24" version="1.1" xmlns="http://www.w3.org/2000/svg" xmlns:xlink="http://www.w3.org/1999/xlink">
    <title>Icon/apreture</title>
    <g id="Icon/apreture" stroke="none" stroke-width="1" fill="none" fill-rule="evenodd">
        <path d="M12,2.25 C17.3847763,2.25 21.75,6.61522369 21.75,12 C21.75,17.3847763 17.3847763,21.75 12,21.75 C6.61522369,21.75 2.25,17.3847763 2.25,12 C2.25,6.61522369 6.61522369,2.25 12,2.25 Z M13.147,15.75 L4.64968964,15.750245 C5.97070098,18.3341948 8.61421197,20.1297454 11.6875171,20.2441913 L13.147,15.75 Z M15.92,12.067 L13.2955854,20.1488564 C16.2783919,19.6783775 18.7299609,17.60948 19.7456616,14.8467946 L15.92,12.067 Z M14.645,11.14 L12,9.218 L9.355,11.14 L10.365,14.25 L13.634,14.25 L14.645,11.14 Z M6.16242076,6.17032 C4.67178483,7.66296314 3.75,9.72383438 3.75,12 C3.75,12.7802118 3.85830459,13.5351277 4.06069967,14.2505336 L8.787,14.25 Z M17.0990887,5.51405103 L13.275,8.291 L20.1502793,13.2865321 C20.2032673,12.9481436 20.2356867,12.6029348 20.2462179,12.252225 L20.25,12 C20.25,9.3684407 19.0178938,7.02465523 17.0990887,5.51405103 Z M12,3.75 C10.2998502,3.75 8.71981604,4.26427593 7.40697388,5.14575135 L8.867,9.64 L15.7413115,4.64512935 C14.6886892,4.10860837 13.5055862,3.79141845 12.252225,3.75378207 Z" id="Icon-Color" fill="#212121"></path>
    </g>
</svg>