<?xml version="1.0" encoding="UTF-8"?>
<svg width="24px" height="24px" viewBox="0 0 24 24" version="1.1" xmlns="http://www.w3.org/2000/svg" xmlns:xlink="http://www.w3.org/1999/xlink">
    <title>Icon/arrows/arrow-big-down</title>
    <g id="Icon/arrows/arrow-big-down" stroke="none" stroke-width="1" fill="none" fill-rule="evenodd">
        <path d="M10,2.25 L9.85647279,2.2558012 C8.95711027,2.32880766 8.25,3.0818266 8.25,4 L8.25,11.249 L5.414,11.25 C4.70614704,11.2501511 4.06820527,11.6765231 3.7974034,12.3303545 C3.52660152,12.9841859 3.67625101,13.7367601 4.17658986,14.23725 L10.7626699,20.8233301 C11.4461247,21.5065786 12.5538753,21.5065786 13.23725,20.8234102 L19.8233301,14.2373301 C20.323749,13.7367601 20.4733985,12.9841859 20.2025966,12.3303545 L20.1390565,12.1938018 C19.8403043,11.6177875 19.2433035,11.2501403 18.5861601,11.25 L15.75,11.249 L15.75,4 C15.75,3.03350169 14.9664983,2.25 14,2.25 L10,2.25 Z M10,3.75 L14,3.75 C14.1380712,3.75 14.25,3.86192881 14.25,4 L14.25,12 C14.25,12.4142136 14.5857864,12.75 15,12.75 L18.586,12.75 C18.6869388,12.7500216 18.7780734,12.8109319 18.8167594,12.9043363 C18.8554453,12.9977408 18.8340668,13.1052514 18.7625899,13.17675 L12.1766699,19.7626699 C12.079125,19.8601853 11.920875,19.8601853 11.82325,19.7625898 L5.23733009,13.1766699 C5.16593316,13.1052514 5.14455467,12.9977408 5.18324065,12.9043363 C5.22192663,12.8109319 5.31306117,12.7500216 5.41416014,12.75 L9,12.75 C9.41421356,12.75 9.75,12.4142136 9.75,12 L9.75,4 C9.75,3.86192881 9.86192881,3.75 10,3.75 Z" id="Icon-Color" fill="#212121"></path>
    </g>
</svg>