<?xml version="1.0" encoding="UTF-8"?>
<svg width="24px" height="24px" viewBox="0 0 24 24" version="1.1" xmlns="http://www.w3.org/2000/svg" xmlns:xlink="http://www.w3.org/1999/xlink">
    <title>Icon/arrows/arrows-maximize</title>
    <g id="Icon/arrows/arrows-maximize" stroke="none" stroke-width="1" fill="none" fill-rule="evenodd">
        <path d="M10.5303301,13.4696699 C10.7965966,13.7359365 10.8208027,14.1526002 10.6029482,14.4462117 L10.5303301,14.5303301 L5.81,19.25 L8,19.25 C8.37969577,19.25 8.69349096,19.5321539 8.74315338,19.8982294 L8.75,20 C8.75,20.3796958 8.46784612,20.693491 8.10177056,20.7431534 L8,20.75 L4,20.75 L3.97158812,20.749465 C3.95623781,20.7488867 3.94090188,20.7478395 3.92560364,20.7463234 L4,20.75 C3.95315442,20.75 3.90731196,20.7457051 3.86284491,20.7374876 C3.85196718,20.7354242 3.8402739,20.7329853 3.82863298,20.7302653 C3.8051728,20.7248291 3.78271655,20.7184207 3.76071635,20.7110197 C3.75090869,20.707697 3.74054351,20.7039715 3.73024809,20.7000107 C3.71090579,20.6925505 3.69248608,20.684555 3.67446717,20.6758602 C3.66000914,20.6689416 3.64537558,20.6612981 3.63095468,20.6531392 C3.61349194,20.643187 3.59634194,20.6325387 3.57967093,20.6212371 C3.56933877,20.6143147 3.55887091,20.6068243 3.54855842,20.5990323 C3.4918014,20.5560981 3.44146961,20.5055276 3.39899844,20.448737 L3.46966991,20.5303301 C3.43261664,20.4932768 3.40025089,20.4533111 3.37257267,20.4111698 C3.35940783,20.3910149 3.34702767,20.3700275 3.33567096,20.3484182 C3.33083742,20.3392964 3.32648082,20.3305656 3.32230508,20.3217704 C3.30955796,20.2949819 3.29805336,20.2665221 3.28830293,20.2372605 C3.28604456,20.2303168 3.28412011,20.2242456 3.2822748,20.2181555 C3.2709186,20.181066 3.26229378,20.1419231 3.25684662,20.1017706 L3.25,20 L3.25,16 C3.25,15.5857864 3.58578644,15.25 4,15.25 C4.37969577,15.25 4.69349096,15.5321539 4.74315338,15.8982294 L4.75,16 L4.75,18.188 L9.46966991,13.4696699 C9.76256313,13.1767767 10.2374369,13.1767767 10.5303301,13.4696699 Z M14.4462117,13.3970518 L14.5303301,13.4696699 L19.25,18.189 L19.25,16 C19.25,15.6203042 19.5321539,15.306509 19.8982294,15.2568466 L20,15.25 C20.3796958,15.25 20.693491,15.5321539 20.7431534,15.8982294 L20.75,16 L20.75,20 L20.7494268,20.0294084 C20.7488542,20.0440905 20.7478527,20.0587591 20.7464221,20.0733936 L20.75,20 C20.75,20.0468456 20.7457051,20.092688 20.7374876,20.1371551 C20.7354242,20.1480328 20.7329853,20.1597261 20.7302653,20.171367 C20.7249934,20.1941269 20.7188123,20.2159072 20.7116971,20.2372605 C20.7081692,20.2477746 20.704223,20.2588027 20.7000107,20.2697519 C20.6929553,20.2880468 20.6854443,20.3054587 20.677308,20.322515 C20.6699638,20.3380283 20.6618449,20.3536579 20.6531392,20.3690453 C20.6449724,20.3833538 20.636335,20.3974939 20.627253,20.4113158 C20.6191535,20.423766 20.6104793,20.4361429 20.601388,20.4483068 C20.5578105,20.5064902 20.5064902,20.5578105 20.448737,20.6010016 L20.5303301,20.5303301 C20.4932768,20.5673834 20.4533111,20.5997491 20.4111698,20.6274273 C20.3919404,20.639984 20.3719398,20.6518414 20.35137,20.6627693 C20.3413628,20.6681285 20.3316069,20.6730248 20.3217704,20.6776949 C20.2949819,20.690442 20.2665221,20.7019466 20.2372605,20.7116971 C20.2303168,20.7139554 20.2242456,20.7158799 20.2181555,20.7177252 C20.181066,20.7290814 20.1419231,20.7377062 20.1017706,20.7431534 L20,20.75 L16,20.75 C15.5857864,20.75 15.25,20.4142136 15.25,20 C15.25,19.6203042 15.5321539,19.306509 15.8982294,19.2568466 L16,19.25 L18.189,19.25 L13.4696699,14.5303301 C13.1767767,14.2374369 13.1767767,13.7625631 13.4696699,13.4696699 C13.7359365,13.2034034 14.1526002,13.1791973 14.4462117,13.3970518 Z M8,3.25 C8.41421356,3.25 8.75,3.58578644 8.75,4 C8.75,4.37969577 8.46784612,4.69349096 8.10177056,4.74315338 L8,4.75 L5.811,4.75 L10.5303301,9.46966991 C10.8232233,9.76256313 10.8232233,10.2374369 10.5303301,10.5303301 C10.2640635,10.7965966 9.84739984,10.8208027 9.55378835,10.6029482 L9.46966991,10.5303301 L4.75,5.811 L4.75,8 C4.75,8.37969577 4.46784612,8.69349096 4.10177056,8.74315338 L4,8.75 C3.62030423,8.75 3.30650904,8.46784612 3.25684662,8.10177056 L3.25,8 L3.25,4 L3.25017932,3.98354891 C3.25062303,3.96319859 3.25189016,3.94286288 3.2539807,3.92259605 L3.25,4 C3.25,3.95315442 3.25429489,3.90731196 3.26251238,3.86284491 C3.26457582,3.85196718 3.26701468,3.8402739 3.26973472,3.82863298 C3.27517085,3.8051728 3.28157935,3.78271655 3.28898031,3.76071635 C3.29230301,3.75090869 3.29602848,3.74054351 3.29998933,3.73024809 C3.30866407,3.70776353 3.3181404,3.68633408 3.32856161,3.66545876 C3.33415299,3.65413304 3.3403424,3.64247599 3.34686081,3.63095468 C3.36018558,3.60753388 3.37475302,3.58477606 3.39046912,3.56289895 C3.39360982,3.55842233 3.39725454,3.55347273 3.40096775,3.54855842 C3.44462629,3.49084242 3.49618887,3.43976524 3.55415605,3.39684567 L3.46966991,3.46966991 C3.50672319,3.43261664 3.54668892,3.40025089 3.58883021,3.37257267 C3.60898514,3.35940783 3.62997247,3.34702767 3.65158175,3.33567096 C3.66070362,3.33083742 3.66943437,3.32648082 3.67822959,3.32230508 C3.70660552,3.30880073 3.73676262,3.2967322 3.76780866,3.28663399 C3.77310765,3.28496585 3.77747119,3.28359992 3.78184446,3.2822748 C3.81893395,3.2709186 3.85807689,3.26229378 3.89822944,3.25684662 L4,3.25 L8,3.25 Z M20,3.25 L20.017448,3.25020172 C20.0374655,3.25066463 20.0574681,3.25192429 20.077404,3.2539807 L20,3.25 C20.0468456,3.25 20.092688,3.25429489 20.1371551,3.26251238 C20.1480328,3.26457582 20.1597261,3.26701468 20.171367,3.26973472 C20.1948272,3.27517085 20.2172835,3.28157935 20.2392836,3.28898031 C20.2490913,3.29230301 20.2594565,3.29602848 20.2697519,3.29998933 C20.2890942,3.30744952 20.3075139,3.315445 20.3255328,3.32413984 C20.3399909,3.33105843 20.3546244,3.3387019 20.3690453,3.34686081 C20.3865081,3.35681304 20.4036581,3.36746126 20.4203291,3.3787629 C20.4306612,3.38568532 20.4411291,3.39317572 20.4514416,3.40096775 C20.5081986,3.44390193 20.5585304,3.49447237 20.6010016,3.55126304 L20.5303301,3.46966991 C20.5673834,3.50672319 20.5997491,3.54668892 20.6274273,3.58883021 C20.6405922,3.60898514 20.6529723,3.62997247 20.664329,3.65158175 C20.6691626,3.66070362 20.6735192,3.66943437 20.6776949,3.67822959 C20.690442,3.70501812 20.7019466,3.73347789 20.7116971,3.76273953 C20.7139554,3.76968322 20.7158799,3.77575442 20.7177252,3.78184446 C20.7290814,3.81893395 20.7377062,3.85807689 20.7431534,3.89822944 L20.75,4 L20.75,8 C20.75,8.41421356 20.4142136,8.75 20,8.75 C19.6203042,8.75 19.306509,8.46784612 19.2568466,8.10177056 L19.25,8 L19.25,5.81 L14.5303301,10.5303301 C14.2374369,10.8232233 13.7625631,10.8232233 13.4696699,10.5303301 C13.2034034,10.2640635 13.1791973,9.84739984 13.3970518,9.55378835 L13.4696699,9.46966991 L18.188,4.75 L16,4.75 C15.6203042,4.75 15.306509,4.46784612 15.2568466,4.10177056 L15.25,4 C15.25,3.62030423 15.5321539,3.30650904 15.8982294,3.25684662 L16,3.25 L20,3.25 Z" id="Icon-Color" fill="#212121"></path>
    </g>
</svg>