<?xml version="1.0" encoding="UTF-8"?>
<svg width="24px" height="24px" viewBox="0 0 24 24" version="1.1" xmlns="http://www.w3.org/2000/svg" xmlns:xlink="http://www.w3.org/1999/xlink">
    <title>Icon/arrows/arrow-forward</title>
    <g id="Icon/arrows/arrow-forward" stroke="none" stroke-width="1" fill="none" fill-rule="evenodd">
        <path d="M9,6.25 C9.41421356,6.25 9.75,6.58578644 9.75,7 C9.75,7.37969577 9.46784612,7.69349096 9.10177056,7.74315338 L9,7.75 L8,7.75 C6.20507456,7.75 4.75,9.20507456 4.75,11 C4.75,12.7330315 6.10645477,14.1492459 7.81557609,14.2448552 L8,14.25 L17.189,14.25 L14.4696699,11.5303301 C14.2034034,11.2640635 14.1791973,10.8473998 14.3970518,10.5537883 L14.4696699,10.4696699 C14.7359365,10.2034034 15.1526002,10.1791973 15.4462117,10.3970518 L15.5303301,10.4696699 L19.5303301,14.4696699 C19.5647711,14.5041109 19.5951622,14.5410682 19.6215034,14.57995 L19.6760696,14.6748285 L19.7212449,14.793616 L19.7425252,14.8937266 L19.75,15 L19.7468254,15.0694695 L19.7302653,15.171367 L19.7110197,15.2392836 L19.6883984,15.2981386 L19.6531392,15.3690453 L19.6029482,15.4462117 L19.5707999,15.4864537 L19.5303301,15.5303301 L15.5303301,19.5303301 C15.2374369,19.8232233 14.7625631,19.8232233 14.4696699,19.5303301 C14.2034034,19.2640635 14.1791973,18.8473998 14.3970518,18.5537883 L14.4696699,18.4696699 L17.189,15.75 L8,15.75 C5.37664744,15.75 3.25,13.6233526 3.25,11 C3.25,8.44951834 5.26014129,6.36853034 7.782572,6.25488786 L8,6.25 L9,6.25 Z" id="Icon-Color" fill="#212121"></path>
    </g>
</svg>