<?xml version="1.0" encoding="UTF-8"?>
<svg width="24px" height="24px" viewBox="0 0 24 24" version="1.1" xmlns="http://www.w3.org/2000/svg" xmlns:xlink="http://www.w3.org/1999/xlink">
    <title>Icon/arrows/arrows-join-2</title>
    <g id="Icon/arrows/arrows-join-2" stroke="none" stroke-width="1" fill="none" fill-rule="evenodd">
        <path d="M4.948,6.25 C7.01578096,6.25 8.95835176,7.2164948 10.2057189,8.85271727 L10.3644296,9.06991128 C11.2730928,10.3680378 12.7292043,11.1673664 14.302649,11.2439472 L14.552,11.25 L19.189,11.25 L17.4696699,9.53033009 C17.2034034,9.26406352 17.1791973,8.84739984 17.3970518,8.55378835 L17.4696699,8.46966991 C17.7359365,8.20340335 18.1526002,8.1791973 18.4462117,8.39705176 L18.5303301,8.46966991 L21.5303301,11.4696699 C21.5557782,11.495118 21.5794061,11.5223864 21.6010016,11.551263 L21.5303301,11.4696699 C21.5673834,11.5067232 21.5997491,11.5466889 21.6274273,11.5888302 C21.6405922,11.6089851 21.6529723,11.6299725 21.664329,11.6515818 C21.6691626,11.6607036 21.6735192,11.6694344 21.6776949,11.6782296 C21.690442,11.7050181 21.7019466,11.7334779 21.7116971,11.7627395 C21.7139554,11.7696832 21.7158799,11.7757544 21.7177252,11.7818445 C21.7386468,11.8503231 21.75,11.9238357 21.75,12 C21.75,12.0383922 21.7471153,12.0761107 21.7415508,12.1129505 C21.7397462,12.1245181 21.7376905,12.1362278 21.7353557,12.1478927 C21.730412,12.1728958 21.7242388,12.1971921 21.7169138,12.2209837 C21.7132873,12.2326435 21.7092554,12.2446929 21.7049093,12.256654 C21.696425,12.2799516 21.6871231,12.3020202 21.6768269,12.3235218 C21.6713347,12.3351229 21.6650317,12.3474599 21.658365,12.359651 C21.6451298,12.3836668 21.6310246,12.4063902 21.6157838,12.4282634 C21.6118625,12.4340051 21.6074572,12.4401347 21.6029482,12.4462117 C21.5971451,12.4538569 21.5954427,12.4560847 21.5937281,12.4583026 L21.5303301,12.5303301 L18.5303301,15.5303301 C18.2374369,15.8232233 17.7625631,15.8232233 17.4696699,15.5303301 C17.2034034,15.2640635 17.1791973,14.8473998 17.3970518,14.5537883 L17.4696699,14.4696699 L19.189,12.75 L14.546,12.75 C12.9626319,12.75 11.4740282,13.484381 10.5104202,14.7289827 L10.3626972,14.9297062 C9.17864488,16.6234997 7.2735302,17.6610213 5.21880863,17.7445408 L4.95,17.75 L3,17.75 C2.58578644,17.75 2.25,17.4142136 2.25,17 C2.25,16.6203042 2.53215388,16.306509 2.89822944,16.2568466 L3,16.25 L4.95,16.25 C6.53336815,16.25 8.02197184,15.515619 8.98557979,14.2710173 L9.13330284,14.0702938 C9.75039776,13.187536 10.5633479,12.483035 11.4912574,11.9989376 C10.6422344,11.5557101 9.8891235,10.9276485 9.29428146,10.1473062 L9.13559448,9.93012307 C8.22675495,8.63189924 6.77099134,7.83273962 5.19738149,7.75606921 L4.948,7.75 L3,7.75 C2.58578644,7.75 2.25,7.41421356 2.25,7 C2.25,6.62030423 2.53215388,6.30650904 2.89822944,6.25684662 L3,6.25 L4.948,6.25 Z" id="Icon-Color" fill="#212121"></path>
    </g>
</svg>