<?xml version="1.0" encoding="UTF-8"?>
<svg width="24px" height="24px" viewBox="0 0 24 24" version="1.1" xmlns="http://www.w3.org/2000/svg" xmlns:xlink="http://www.w3.org/1999/xlink">
    <title>Icon/arrows/arrows-double-nw-se</title>
    <g id="Icon/arrows/arrows-double-nw-se" stroke="none" stroke-width="1" fill="none" fill-rule="evenodd">
        <path d="M7,9.25 C7.41421356,9.25 7.75,9.58578644 7.75,10 C7.75,10.3796958 7.46784612,10.693491 7.10177056,10.7431534 L7,10.75 L4.811,10.75 L14.5303301,20.4696699 C14.8232233,20.7625631 14.8232233,21.2374369 14.5303301,21.5303301 C14.2640635,21.7965966 13.8473998,21.8208027 13.5537883,21.6029482 L13.4696699,21.5303301 L3.75,11.811 L3.75,14 C3.75,14.3796958 3.46784612,14.693491 3.10177056,14.7431534 L3,14.75 C2.62030423,14.75 2.30650904,14.4678461 2.25684662,14.1017706 L2.25,14 L2.25,10 L2.25017932,9.98354891 C2.25062303,9.96319859 2.25189016,9.94286288 2.2539807,9.92259605 L2.25,10 C2.25,9.95315442 2.25429489,9.90731196 2.26251238,9.86284491 C2.26457582,9.85196718 2.26701468,9.8402739 2.26973472,9.82863298 C2.27517085,9.8051728 2.28157935,9.78271655 2.28898031,9.76071635 C2.29230301,9.75090869 2.29602848,9.74054351 2.29998933,9.73024809 C2.30744952,9.71090579 2.315445,9.69248608 2.32413984,9.67446717 C2.33105843,9.66000914 2.3387019,9.64537558 2.34686081,9.63095468 C2.35681304,9.61349194 2.36746126,9.59634194 2.3787629,9.57967093 C2.38568532,9.56933877 2.39317572,9.55887091 2.40096775,9.54855842 C2.44462629,9.49084242 2.49618887,9.43976524 2.55415605,9.39684567 L2.46966991,9.46966991 C2.50672319,9.43261664 2.54668892,9.40025089 2.58883021,9.37257267 C2.60898514,9.35940783 2.62997247,9.34702767 2.65158175,9.33567096 C2.66070362,9.33083742 2.66943437,9.32648082 2.67822959,9.32230508 C2.70660552,9.30880073 2.73676262,9.2967322 2.76780866,9.28663399 C2.77310765,9.28496585 2.77747119,9.28359992 2.78184446,9.2822748 C2.81893395,9.2709186 2.85807689,9.26229378 2.89822944,9.25684662 L3,9.25 L7,9.25 Z M10.4462117,2.39705176 L10.5303301,2.46966991 L20.25,12.189 L20.25,10 C20.25,9.62030423 20.5321539,9.30650904 20.8982294,9.25684662 L21,9.25 C21.3796958,9.25 21.693491,9.53215388 21.7431534,9.89822944 L21.75,10 L21.75,14 L21.7494268,14.0294084 C21.7488542,14.0440905 21.7478527,14.0587591 21.7464221,14.0733936 L21.75,14 C21.75,14.0468456 21.7457051,14.092688 21.7374876,14.1371551 C21.7354242,14.1480328 21.7329853,14.1597261 21.7302653,14.171367 C21.7248291,14.1948272 21.7184207,14.2172835 21.7110197,14.2392836 C21.707697,14.2490913 21.7039715,14.2594565 21.7000107,14.2697519 C21.6925505,14.2890942 21.684555,14.3075139 21.6758602,14.3255328 C21.6689416,14.3399909 21.6612981,14.3546244 21.6531392,14.3690453 C21.643187,14.3865081 21.6325387,14.4036581 21.6212371,14.4203291 C21.6143147,14.4306612 21.6068243,14.4411291 21.5990323,14.4514416 C21.5560981,14.5081986 21.5055276,14.5585304 21.448737,14.6010016 L21.5303301,14.5303301 C21.4932768,14.5673834 21.4533111,14.5997491 21.4111698,14.6274273 C21.3910149,14.6405922 21.3700275,14.6529723 21.3484182,14.664329 C21.3392964,14.6691626 21.3305656,14.6735192 21.3217704,14.6776949 C21.2949819,14.690442 21.2665221,14.7019466 21.2372605,14.7116971 C21.2303168,14.7139554 21.2242456,14.7158799 21.2181555,14.7177252 C21.181066,14.7290814 21.1419231,14.7377062 21.1017706,14.7431534 L21,14.75 L17,14.75 C16.5857864,14.75 16.25,14.4142136 16.25,14 C16.25,13.6203042 16.5321539,13.306509 16.8982294,13.2568466 L17,13.25 L19.189,13.25 L9.46966991,3.53033009 C9.1767767,3.23743687 9.1767767,2.76256313 9.46966991,2.46966991 C9.73593648,2.20340335 10.1526002,2.1791973 10.4462117,2.39705176 Z" id="Icon-Color" fill="#212121"></path>
    </g>
</svg>