<?xml version="1.0" encoding="UTF-8"?>
<svg width="24px" height="24px" viewBox="0 0 24 24" version="1.1" xmlns="http://www.w3.org/2000/svg" xmlns:xlink="http://www.w3.org/1999/xlink">
    <title>Icon/arrows/arrows-minimize</title>
    <g id="🧠-Symbols" stroke="none" stroke-width="1" fill="none" fill-rule="evenodd">
        <g id="Icon/arrows/arrows-minimize">
            <rect fill="#FFFFFF" opacity="0" x="0" y="0" width="24" height="24"></rect>
            <path d="M19,14.25 C19.4142136,14.25 19.75,14.5857864 19.75,15 C19.75,15.3796958 19.4678461,15.693491 19.1017706,15.7431534 L19,15.75 L16.811,15.75 L21.5303301,20.4696699 C21.8232233,20.7625631 21.8232233,21.2374369 21.5303301,21.5303301 C21.2640635,21.7965966 20.8473998,21.8208027 20.5537883,21.6029482 L20.4696699,21.5303301 L15.75,16.811 L15.75,19 C15.75,19.3796958 15.4678461,19.693491 15.1017706,19.7431534 L15,19.75 C14.6203042,19.75 14.306509,19.4678461 14.2568466,19.1017706 L14.25,19 L14.25,15 L14.2501793,14.9835489 C14.250623,14.9631986 14.2518902,14.9428629 14.2539807,14.922596 L14.25,15 C14.25,14.9531544 14.2542949,14.907312 14.2625124,14.8628449 C14.2645758,14.8519672 14.2670147,14.8402739 14.2697347,14.828633 C14.2751709,14.8051728 14.2815793,14.7827165 14.2889803,14.7607164 C14.292303,14.7509087 14.2960285,14.7405435 14.2999893,14.7302481 C14.3086641,14.7077635 14.3181404,14.6863341 14.3285616,14.6654588 C14.334153,14.654133 14.3403424,14.642476 14.3468608,14.6309547 C14.3601856,14.6075339 14.374753,14.5847761 14.3904691,14.562899 C14.3936098,14.5584223 14.3972545,14.5534727 14.4009677,14.5485584 C14.4446263,14.4908424 14.4961889,14.4397652 14.5541561,14.3968457 L14.4696699,14.4696699 C14.5067232,14.4326166 14.5466889,14.4002509 14.5888302,14.3725727 C14.6089851,14.3594078 14.6299725,14.3470277 14.6515818,14.335671 C14.6607036,14.3308374 14.6694344,14.3264808 14.6782296,14.3223051 C14.7066055,14.3088007 14.7367626,14.2967322 14.7678087,14.286634 C14.7731076,14.2849658 14.7774712,14.2835999 14.7818445,14.2822748 C14.818934,14.2709186 14.8580769,14.2622938 14.8982294,14.2568466 L15,14.25 L19,14.25 Z M9,14.25 L9.01744798,14.2502017 C9.03746552,14.2506646 9.05746806,14.2519243 9.07740395,14.2539807 L9,14.25 C9.04684558,14.25 9.09268804,14.2542949 9.13715509,14.2625124 C9.14803282,14.2645758 9.1597261,14.2670147 9.17136702,14.2697347 C9.1948272,14.2751709 9.21728345,14.2815793 9.23928365,14.2889803 C9.24909131,14.292303 9.25945649,14.2960285 9.26975191,14.2999893 C9.28909421,14.3074495 9.30751392,14.315445 9.32553283,14.3241398 C9.33999086,14.3310584 9.35462442,14.3387019 9.36904532,14.3468608 C9.38650806,14.356813 9.40365806,14.3674613 9.42032907,14.3787629 C9.43066123,14.3856853 9.44112909,14.3931757 9.45144158,14.4009677 C9.5081986,14.4439019 9.55853039,14.4944724 9.60100156,14.551263 L9.53033009,14.4696699 C9.56738336,14.5067232 9.59974911,14.5466889 9.62742733,14.5888302 C9.64059217,14.6089851 9.65297233,14.6299725 9.66432904,14.6515818 C9.66916258,14.6607036 9.67351918,14.6694344 9.67769492,14.6782296 C9.69044204,14.7050181 9.70194664,14.7334779 9.71169707,14.7627395 C9.71395544,14.7696832 9.71587989,14.7757544 9.7177252,14.7818445 C9.7290814,14.818934 9.73770622,14.8580769 9.74315338,14.8982294 L9.75,15 L9.75,19 C9.75,19.4142136 9.41421356,19.75 9,19.75 C8.62030423,19.75 8.30650904,19.4678461 8.25684662,19.1017706 L8.25,19 L8.25,16.81 L3.53033009,21.5303301 C3.23743687,21.8232233 2.76256313,21.8232233 2.46966991,21.5303301 C2.20340335,21.2640635 2.1791973,20.8473998 2.39705176,20.5537883 L2.46966991,20.4696699 L7.188,15.75 L5,15.75 C4.62030423,15.75 4.30650904,15.4678461 4.25684662,15.1017706 L4.25,15 C4.25,14.6203042 4.53215388,14.306509 4.89822944,14.2568466 L5,14.25 L9,14.25 Z M3.44621165,2.39705176 L3.53033009,2.46966991 L8.25,7.189 L8.25,5 C8.25,4.62030423 8.53215388,4.30650904 8.89822944,4.25684662 L9,4.25 C9.37969577,4.25 9.69349096,4.53215388 9.74315338,4.89822944 L9.75,5 L9.75,9 L9.74942679,9.02940838 C9.74885421,9.04409054 9.74785266,9.05875909 9.74642213,9.07339361 L9.75,9 C9.75,9.04684558 9.74570511,9.09268804 9.73748762,9.13715509 C9.73542418,9.14803282 9.73298532,9.1597261 9.73026528,9.17136702 C9.72482915,9.1948272 9.71842065,9.21728345 9.71101969,9.23928365 C9.70769699,9.24909131 9.70397152,9.25945649 9.70001067,9.26975191 C9.69255048,9.28909421 9.684555,9.30751392 9.67586016,9.32553283 C9.66894157,9.33999086 9.6612981,9.35462442 9.65313919,9.36904532 C9.64318696,9.38650806 9.63253874,9.40365806 9.6212371,9.42032907 C9.61431468,9.43066123 9.60682428,9.44112909 9.59903225,9.45144158 C9.55609807,9.5081986 9.50552763,9.55853039 9.44873696,9.60100156 L9.53033009,9.53033009 C9.49327681,9.56738336 9.45331108,9.59974911 9.41116979,9.62742733 C9.39101486,9.64059217 9.37002753,9.65297233 9.34841825,9.66432904 C9.33929638,9.66916258 9.33056563,9.67351918 9.32177041,9.67769492 C9.29498188,9.69044204 9.26652211,9.70194664 9.23726047,9.71169707 C9.23031678,9.71395544 9.22424558,9.71587989 9.21815554,9.7177252 C9.18106605,9.7290814 9.14192311,9.73770622 9.10177056,9.74315338 L9,9.75 L5,9.75 C4.58578644,9.75 4.25,9.41421356 4.25,9 C4.25,8.62030423 4.53215388,8.30650904 4.89822944,8.25684662 L5,8.25 L7.189,8.25 L2.46966991,3.53033009 C2.1767767,3.23743687 2.1767767,2.76256313 2.46966991,2.46966991 C2.73593648,2.20340335 3.15260016,2.1791973 3.44621165,2.39705176 Z M21.5303301,2.46966991 C21.7965966,2.73593648 21.8208027,3.15260016 21.6029482,3.44621165 L21.5303301,3.53033009 L16.81,8.25 L19,8.25 C19.3796958,8.25 19.693491,8.53215388 19.7431534,8.89822944 L19.75,9 C19.75,9.37969577 19.4678461,9.69349096 19.1017706,9.74315338 L19,9.75 L15,9.75 L14.9715881,9.749465 C14.9562378,9.74888667 14.9409019,9.74783949 14.9256036,9.74632344 L15,9.75 C14.9531544,9.75 14.907312,9.74570511 14.8628449,9.73748762 C14.8519672,9.73542418 14.8402739,9.73298532 14.828633,9.73026528 C14.8051728,9.72482915 14.7827165,9.71842065 14.7607164,9.71101969 C14.7509087,9.70769699 14.7405435,9.70397152 14.7302481,9.70001067 C14.7084618,9.69160583 14.6876994,9.68246213 14.6674548,9.6724311 C14.6554374,9.66653829 14.6431203,9.66002216 14.6309547,9.65313919 C14.6134919,9.64318696 14.5963419,9.63253874 14.5796709,9.6212371 C14.5693388,9.61431468 14.5588709,9.60682428 14.5485584,9.59903225 C14.4911621,9.55561517 14.440333,9.50438379 14.3975617,9.44680947 L14.4696699,9.53033009 C14.4326166,9.49327681 14.4002509,9.45331108 14.3725727,9.41116979 C14.3594078,9.39101486 14.3470277,9.37002753 14.335671,9.34841825 C14.3308374,9.33929638 14.3264808,9.33056563 14.3223051,9.32177041 C14.309558,9.29498188 14.2980534,9.26652211 14.2883029,9.23726047 C14.2860446,9.23031678 14.2841201,9.22424558 14.2822748,9.21815554 C14.2709186,9.18106605 14.2622938,9.14192311 14.2568466,9.10177056 L14.25,9 L14.25,5 C14.25,4.58578644 14.5857864,4.25 15,4.25 C15.3796958,4.25 15.693491,4.53215388 15.7431534,4.89822944 L15.75,5 L15.75,7.188 L20.4696699,2.46966991 C20.7625631,2.1767767 21.2374369,2.1767767 21.5303301,2.46966991 Z" id="Icon-Color" fill="#212121"></path>
        </g>
    </g>
</svg>