<?xml version="1.0" encoding="UTF-8"?>
<svg width="24px" height="24px" viewBox="0 0 24 24" version="1.1" xmlns="http://www.w3.org/2000/svg" xmlns:xlink="http://www.w3.org/1999/xlink">
    <title>Icon/arrows/arrow-big-top</title>
    <g id="Icon/arrows/arrow-big-top" stroke="none" stroke-width="1" fill="none" fill-rule="evenodd">
        <path d="M10.76275,3.17658984 L4.17666991,9.76266991 C3.67625101,10.2632399 3.52660152,11.0158141 3.7974034,11.6696455 L3.86094348,11.8061982 C4.15969568,12.3822125 4.75669652,12.7498597 5.41383986,12.75 L8.25,12.75 L8.25,20 C8.25,20.9664983 9.03350169,21.75 10,21.75 L14,21.75 L14.1435272,21.7441988 C15.0428897,21.6711923 15.75,20.9181734 15.75,20 L15.749,12.75 L18.586,12.75 C19.293853,12.7498489 19.9317947,12.3234769 20.2025966,11.6696455 C20.4733985,11.0158141 20.323749,10.2632399 19.8234101,9.76274998 L13.23725,3.17658984 C12.5538753,2.49342145 11.4461247,2.49342145 10.76275,3.17658984 Z M12.17675,4.23741016 L18.7626699,10.8233301 C18.8340668,10.8947486 18.8554453,11.0022592 18.8167594,11.0956637 C18.7780734,11.1890681 18.6869388,11.2499784 18.5858399,11.25 L15,11.25 C14.5857864,11.25 14.25,11.5857864 14.25,12 L14.25,20 C14.25,20.1380712 14.1380712,20.25 14,20.25 L10,20.25 C9.86192881,20.25 9.75,20.1380712 9.75,20 L9.75,12 C9.75,11.5857864 9.41421356,11.25 9,11.25 L5.414,11.25 C5.31306117,11.2499784 5.22192663,11.1890681 5.18324065,11.0956637 C5.14455467,11.0022592 5.16593316,10.8947486 5.23741014,10.82325 L11.8233301,4.23733009 C11.920875,4.13981468 12.079125,4.13981468 12.17675,4.23741016 Z" id="Icon-Color" fill="#212121"></path>
    </g>
</svg>