<?xml version="1.0" encoding="UTF-8"?>
<svg width="24px" height="24px" viewBox="0 0 24 24" version="1.1" xmlns="http://www.w3.org/2000/svg" xmlns:xlink="http://www.w3.org/1999/xlink">
    <title>Icon/arrows/arrow-big-right</title>
    <g id="Icon/arrows/arrow-big-right" stroke="none" stroke-width="1" fill="none" fill-rule="evenodd">
        <path d="M12.1938018,3.86094348 C11.6177875,4.15969568 11.2501403,4.75669652 11.25,5.41383986 L11.249,8.25 L4,8.25 C3.03350169,8.25 2.25,9.03350169 2.25,10 L2.25,14 L2.2558012,14.1435272 C2.32880766,15.0428897 3.0818266,15.75 4,15.75 L11.249,15.749 L11.25,18.586 C11.2501511,19.293853 11.6765231,19.9317947 12.3303545,20.2025966 C12.9841859,20.4733985 13.7367601,20.323749 14.23725,19.8234101 L20.8233301,13.2373301 C21.5065786,12.5538753 21.5065786,11.4461247 20.8234102,10.76275 L14.23725,4.17658986 C13.7367601,3.67625101 12.9841859,3.52660152 12.3303545,3.7974034 L12.1938018,3.86094348 Z M13.17675,5.23741014 L19.7626699,11.8233301 C19.8601853,11.920875 19.8601853,12.079125 19.7625898,12.17675 L13.1766699,18.7626699 C13.1052514,18.8340668 12.9977408,18.8554453 12.9043363,18.8167594 C12.8109319,18.7780734 12.7500216,18.6869388 12.75,18.5858399 L12.75,15 C12.75,14.5857864 12.4142136,14.25 12,14.25 L4,14.25 C3.86192881,14.25 3.75,14.1380712 3.75,14 L3.75,10 C3.75,9.86192881 3.86192881,9.75 4,9.75 L12,9.75 C12.4142136,9.75 12.75,9.41421356 12.75,9 L12.75,5.414 C12.7500216,5.31306117 12.8109319,5.22192663 12.9043363,5.18324065 C12.9977408,5.14455467 13.1052514,5.16593316 13.17675,5.23741014 Z" id="Icon-Color" fill="#212121"></path>
    </g>
</svg>