<?xml version="1.0" encoding="UTF-8"?>
<svg width="24px" height="24px" viewBox="0 0 24 24" version="1.1" xmlns="http://www.w3.org/2000/svg" xmlns:xlink="http://www.w3.org/1999/xlink">
    <title>Icon/arrows/arrows-down-up</title>
    <g id="Icon/arrows/arrows-down-up" stroke="none" stroke-width="1" fill="none" fill-rule="evenodd">
        <path d="M17.1017706,2.25684662 L17.1127744,2.25847739 C17.1245181,2.26025385 17.1362278,2.26230949 17.1478927,2.26464433 C17.1728958,2.26958796 17.1971921,2.27576118 17.2209837,2.28308617 C17.2326435,2.28671273 17.2446929,2.29074464 17.256654,2.29509073 C17.2799516,2.30357499 17.3020202,2.31287686 17.3235218,2.32317314 C17.3351229,2.32866533 17.3474599,2.33496828 17.359651,2.34163501 C17.3836668,2.35487024 17.4063902,2.36897543 17.4282634,2.38421622 C17.4340051,2.38813751 17.4401347,2.39254279 17.4462117,2.39705176 C17.4538569,2.40285492 17.4560847,2.40455735 17.4583026,2.40627192 L17.5303301,2.46966991 L20.5303301,5.46966991 C20.8232233,5.76256313 20.8232233,6.23743687 20.5303301,6.53033009 C20.2640635,6.79659665 19.8473998,6.8208027 19.5537883,6.60294824 L19.4696699,6.53033009 L17.75,4.81 L17.75,21 C17.75,21.4142136 17.4142136,21.75 17,21.75 C16.6203042,21.75 16.306509,21.4678461 16.2568466,21.1017706 L16.25,21 L16.25,4.81 L14.5303301,6.53033009 C14.2640635,6.79659665 13.8473998,6.8208027 13.5537883,6.60294824 L13.4696699,6.53033009 C13.2034034,6.26406352 13.1791973,5.84739984 13.3970518,5.55378835 L13.4696699,5.46966991 L16.4696699,2.46966991 L16.5416974,2.40627192 C16.5458164,2.40308771 16.5499695,2.39994541 16.5541561,2.39684567 L16.4696699,2.46966991 C16.5067232,2.43261664 16.5466889,2.40025089 16.5888302,2.37257267 C16.6089851,2.35940783 16.6299725,2.34702767 16.6515818,2.33567096 C16.6607036,2.33083742 16.6694344,2.32648082 16.6782296,2.32230508 C16.7066055,2.30880073 16.7367626,2.2967322 16.7678087,2.28663399 C16.7731076,2.28496585 16.7774712,2.28359992 16.7818445,2.2822748 C16.8503231,2.26135317 16.9238357,2.25 17,2.25 L17.0058164,2.25002241 L17.1017706,2.25684662 L17.1017706,2.25684662 Z M7,2.25 C7.37969577,2.25 7.69349096,2.53215388 7.74315338,2.89822944 L7.75,3 L7.75,19.189 L9.46966991,17.4696699 C9.73593648,17.2034034 10.1526002,17.1791973 10.4462117,17.3970518 L10.5303301,17.4696699 C10.7965966,17.7359365 10.8208027,18.1526002 10.6029482,18.4462117 L10.5303301,18.5303301 L7.53033009,21.5303301 C7.50488197,21.5557782 7.47761357,21.5794061 7.44873696,21.6010016 L7.53033009,21.5303301 C7.49327681,21.5673834 7.45331108,21.5997491 7.41116979,21.6274273 C7.39101486,21.6405922 7.37002753,21.6529723 7.34841825,21.664329 C7.33929638,21.6691626 7.33056563,21.6735192 7.32177041,21.6776949 C7.29498188,21.690442 7.26652211,21.7019466 7.23726047,21.7116971 C7.23031678,21.7139554 7.22424558,21.7158799 7.21815554,21.7177252 C7.14967686,21.7386468 7.07616427,21.75 7,21.75 C6.96160776,21.75 6.92388927,21.7471153 6.88704947,21.7415508 C6.87548189,21.7397462 6.86377221,21.7376905 6.85210733,21.7353557 C6.82710419,21.730412 6.80280788,21.7242388 6.77901634,21.7169138 C6.76735654,21.7132873 6.75530706,21.7092554 6.74334602,21.7049093 C6.72004839,21.696425 6.69797981,21.6871231 6.67647821,21.6768269 C6.66487713,21.6713347 6.65254006,21.6650317 6.64034898,21.658365 C6.61421307,21.6439668 6.5895138,21.6284682 6.56583438,21.611629 C6.56212882,21.6090699 6.55794624,21.6060333 6.55378835,21.6029482 C6.52057056,21.5778288 6.49426976,21.5549299 6.46966991,21.5303301 L3.46966991,18.5303301 C3.1767767,18.2374369 3.1767767,17.7625631 3.46966991,17.4696699 C3.73593648,17.2034034 4.15260016,17.1791973 4.44621165,17.3970518 L4.53033009,17.4696699 L6.25,19.189 L6.25,3 C6.25,2.58578644 6.58578644,2.25 7,2.25 Z" id="Icon-Color" fill="#212121"></path>
    </g>
</svg>