<?xml version="1.0" encoding="UTF-8"?>
<svg width="24px" height="24px" viewBox="0 0 24 24" version="1.1" xmlns="http://www.w3.org/2000/svg" xmlns:xlink="http://www.w3.org/1999/xlink">
    <title>Icon/arrows/arrow-back-up</title>
    <g id="Icon/arrows/arrow-back-up" stroke="none" stroke-width="1" fill="none" fill-rule="evenodd">
        <path d="M9.53033009,12.4696699 C9.79659665,12.7359365 9.8208027,13.1526002 9.60294824,13.4462117 L9.53033009,13.5303301 C9.26406352,13.7965966 8.84739984,13.8208027 8.55378835,13.6029482 L8.46966991,13.5303301 L4.44304646,9.50230667 L4.37849655,9.42005004 L4.3239304,9.32517151 L4.28881291,9.23866466 L4.26241813,9.136298 L4.25399994,9.077931 L4.25,9 L4.25317463,8.93053051 L4.26973472,8.82863298 L4.28898031,8.76071635 L4.31160159,8.70186136 L4.34686081,8.63095468 L4.39705176,8.55378835 C4.4226978,8.51996617 4.44535282,8.49398701 4.46966991,8.46966991 L8.46966991,4.46966991 C8.76256313,4.1767767 9.23743687,4.1767767 9.53033009,4.46966991 C9.79659665,4.73593648 9.8208027,5.15260016 9.60294824,5.44621165 L9.53033009,5.53033009 L6.811,8.25 L16,8.25 C18.6233526,8.25 20.75,10.3766474 20.75,13 C20.75,15.5504817 18.7398587,17.6314697 16.217428,17.7451121 L16,17.75 L15,17.75 C14.5857864,17.75 14.25,17.4142136 14.25,17 C14.25,16.6203042 14.5321539,16.306509 14.8982294,16.2568466 L15,16.25 L16,16.25 C17.7949254,16.25 19.25,14.7949254 19.25,13 C19.25,11.2669685 17.8935452,9.85075407 16.1844239,9.75514479 L16,9.75 L6.811,9.75 L9.53033009,12.4696699 Z" id="Icon-Color" fill="#212121"></path>
    </g>
</svg>