<?xml version="1.0" encoding="UTF-8"?>
<svg width="24px" height="24px" viewBox="0 0 24 24" version="1.1" xmlns="http://www.w3.org/2000/svg" xmlns:xlink="http://www.w3.org/1999/xlink">
    <title>Icon/arrows/arrow-big-left</title>
    <g id="Icon/arrows/arrow-big-left" stroke="none" stroke-width="1" fill="none" fill-rule="evenodd">
        <path d="M9.76274998,4.17658986 L3.17666991,10.7626699 C2.49342145,11.4461247 2.49342145,12.5538753 3.17658984,13.23725 L9.76266991,19.8233301 C10.2632399,20.323749 11.0158141,20.4733985 11.6696455,20.2025966 L11.8061982,20.1390565 C12.3822125,19.8403043 12.7498597,19.2433035 12.75,18.5861601 L12.75,15.75 L20,15.75 C20.9664983,15.75 21.75,14.9664983 21.75,14 L21.75,10 L21.7441988,9.85647279 C21.6711923,8.95711027 20.9181734,8.25 20,8.25 L12.75,8.249 L12.75,5.414 C12.7498489,4.70614704 12.3234769,4.06820527 11.6696455,3.7974034 C11.0158141,3.52660152 10.2632399,3.67625101 9.76274998,4.17658986 Z M11.0956637,5.18324065 C11.1890681,5.22192663 11.2499784,5.31306117 11.25,5.41416014 L11.25,9 C11.25,9.41421356 11.5857864,9.75 12,9.75 L20,9.75 C20.1380712,9.75 20.25,9.86192881 20.25,10 L20.25,14 C20.25,14.1380712 20.1380712,14.25 20,14.25 L12,14.25 C11.5857864,14.25 11.25,14.5857864 11.25,15 L11.25,18.586 C11.2499784,18.6869388 11.1890681,18.7780734 11.0956637,18.8167594 C11.0022592,18.8554453 10.8947486,18.8340668 10.82325,18.7625899 L4.23733009,12.1766699 C4.13981468,12.079125 4.13981468,11.920875 4.23741016,11.82325 L10.8233301,5.23733009 C10.8947486,5.16593316 11.0022592,5.14455467 11.0956637,5.18324065 Z" id="Icon-Color" fill="#212121"></path>
    </g>
</svg>