<?xml version="1.0" encoding="UTF-8"?>
<svg width="24px" height="24px" viewBox="0 0 24 24" version="1.1" xmlns="http://www.w3.org/2000/svg" xmlns:xlink="http://www.w3.org/1999/xlink">
    <title>Icon/artboard</title>
    <g id="Icon/artboard" stroke="none" stroke-width="1" fill="none" fill-rule="evenodd">
        <path d="M8,19.25 C8.37969577,19.25 8.69349096,19.5321539 8.74315338,19.8982294 L8.75,20 L8.75,21 C8.75,21.4142136 8.41421356,21.75 8,21.75 C7.62030423,21.75 7.30650904,21.4678461 7.25684662,21.1017706 L7.25,21 L7.25,20 C7.25,19.5857864 7.58578644,19.25 8,19.25 Z M16,19.25 C16.3796958,19.25 16.693491,19.5321539 16.7431534,19.8982294 L16.75,20 L16.75,21 C16.75,21.4142136 16.4142136,21.75 16,21.75 C15.6203042,21.75 15.306509,21.4678461 15.2568466,21.1017706 L15.25,21 L15.25,20 C15.25,19.5857864 15.5857864,19.25 16,19.25 Z M15,7.25 C15.9664983,7.25 16.75,8.03350169 16.75,9 L16.75,9 L16.75,15 C16.75,15.9664983 15.9664983,16.75 15,16.75 L15,16.75 L9,16.75 C8.03350169,16.75 7.25,15.9664983 7.25,15 L7.25,15 L7.25,9 C7.25,8.03350169 8.03350169,7.25 9,7.25 L9,7.25 Z M4,15.25 C4.41421356,15.25 4.75,15.5857864 4.75,16 C4.75,16.3796958 4.46784612,16.693491 4.10177056,16.7431534 L4,16.75 L3,16.75 C2.58578644,16.75 2.25,16.4142136 2.25,16 C2.25,15.6203042 2.53215388,15.306509 2.89822944,15.2568466 L3,15.25 L4,15.25 Z M21,15.25 C21.4142136,15.25 21.75,15.5857864 21.75,16 C21.75,16.3796958 21.4678461,16.693491 21.1017706,16.7431534 L21,16.75 L20,16.75 C19.5857864,16.75 19.25,16.4142136 19.25,16 C19.25,15.6203042 19.5321539,15.306509 19.8982294,15.2568466 L20,15.25 L21,15.25 Z M15,8.75 L9,8.75 C8.86192881,8.75 8.75,8.86192881 8.75,9 L8.75,9 L8.75,15 C8.75,15.1380712 8.86192881,15.25 9,15.25 L9,15.25 L15,15.25 C15.1380712,15.25 15.25,15.1380712 15.25,15 L15.25,15 L15.25,9 C15.25,8.86192881 15.1380712,8.75 15,8.75 L15,8.75 Z M4,7.25 C4.41421356,7.25 4.75,7.58578644 4.75,8 C4.75,8.37969577 4.46784612,8.69349096 4.10177056,8.74315338 L4,8.75 L3,8.75 C2.58578644,8.75 2.25,8.41421356 2.25,8 C2.25,7.62030423 2.53215388,7.30650904 2.89822944,7.25684662 L3,7.25 L4,7.25 Z M21,7.25 C21.4142136,7.25 21.75,7.58578644 21.75,8 C21.75,8.37969577 21.4678461,8.69349096 21.1017706,8.74315338 L21,8.75 L20,8.75 C19.5857864,8.75 19.25,8.41421356 19.25,8 C19.25,7.62030423 19.5321539,7.30650904 19.8982294,7.25684662 L20,7.25 L21,7.25 Z M8,2.25 C8.37969577,2.25 8.69349096,2.53215388 8.74315338,2.89822944 L8.75,3 L8.75,4 C8.75,4.41421356 8.41421356,4.75 8,4.75 C7.62030423,4.75 7.30650904,4.46784612 7.25684662,4.10177056 L7.25,4 L7.25,3 C7.25,2.58578644 7.58578644,2.25 8,2.25 Z M16,2.25 C16.3796958,2.25 16.693491,2.53215388 16.7431534,2.89822944 L16.75,3 L16.75,4 C16.75,4.41421356 16.4142136,4.75 16,4.75 C15.6203042,4.75 15.306509,4.46784612 15.2568466,4.10177056 L15.25,4 L15.25,3 C15.25,2.58578644 15.5857864,2.25 16,2.25 Z" id="Icon-Color" fill="#212121"></path>
    </g>
</svg>