<?xml version="1.0" encoding="UTF-8"?>
<svg width="24px" height="24px" viewBox="0 0 24 24" version="1.1" xmlns="http://www.w3.org/2000/svg" xmlns:xlink="http://www.w3.org/1999/xlink">
    <title>Icon/at</title>
    <g id="Icon/at" stroke="none" stroke-width="1" fill="none" fill-rule="evenodd">
        <path d="M16.75,13.5 C16.75,14.4664983 17.5335017,15.25 18.5,15.25 C19.4181754,15.25 20.1711993,14.5428878 20.2442063,13.6435269 L20.2500075,13.5 L20.2500081,11.9990377 C20.2546787,8.35902028 17.873227,5.14610219 14.3891905,4.09196071 C10.9051529,3.03781891 7.14198663,4.39160221 5.12794095,7.42365643 C3.11389528,10.4557106 3.32499368,14.4494041 5.64745959,17.2522392 C7.96992549,20.0550744 11.8548397,21.0045959 15.208334,19.5890362 C15.5899427,19.4279535 16.029881,19.6067252 16.1909638,19.988334 C16.3520465,20.3699427 16.1732748,20.809881 15.791666,20.9709638 C11.8284456,22.6438979 7.23718332,21.5217361 4.49245089,18.2092945 C1.74771846,14.896853 1.49823852,10.1770335 3.87847432,6.59369671 C6.25871012,3.01035991 10.7060884,1.41043419 14.8235874,2.65623814 C18.8495847,3.87435703 21.6297969,7.531626 21.7462144,11.7140439 L21.7500075,12 L21.7500075,13.5 C21.7500075,15.2949247 20.2949262,16.75 18.5,16.75 C17.2658094,16.75 16.1922982,16.06205 15.6420175,15.0487013 C14.7714346,16.0886328 13.4629526,16.75 12,16.75 C9.37664744,16.75 7.25,14.6233526 7.25,12 C7.25,9.37664744 9.37664744,7.25 12,7.25 C14.6233526,7.25 16.75,9.37664744 16.75,12 L16.7499712,11.998671 L16.75,13.5 Z M12,8.75 C10.2050746,8.75 8.75,10.2050746 8.75,12 C8.75,13.7949254 10.2050746,15.25 12,15.25 C13.7949254,15.25 15.25,13.7949254 15.25,12 C15.25,10.2050746 13.7949254,8.75 12,8.75 Z" id="Icon-Color" fill="#212121"></path>
    </g>
</svg>