<?xml version="1.0" encoding="UTF-8"?>
<svg width="24px" height="24px" viewBox="0 0 24 24" version="1.1" xmlns="http://www.w3.org/2000/svg" xmlns:xlink="http://www.w3.org/1999/xlink">
    <title>Icon/backhoe</title>
    <g id="Icon/backhoe" stroke="none" stroke-width="1" fill="none" fill-rule="evenodd">
        <path d="M18.5671187,4.50894353 L18.6318916,4.59600372 L21.714481,9.41546775 C22.7342973,10.4872914 23.0302686,12.0624234 22.4620946,13.4346173 C21.8822385,14.8350245 20.5163679,15.7486665 18.9993397,15.7499997 C18.005113,15.7491244 17.0519265,15.3534621 16.3493397,14.6499997 C16.0567579,14.3570532 16.0569057,13.8824342 16.3496699,13.5896699 L16.3496699,13.5896699 L20.163,9.77495441 L17.871,6.189 L13.75,10.3099544 L13.7505538,14.353673 C14.852947,14.6657209 15.6738077,15.6480406 15.7449812,16.8324777 L15.75,17 C15.75,18.5187831 14.5187831,19.75 13,19.75 L13,19.75 L4,19.75 C2.48121694,19.75 1.25,18.5187831 1.25,17 C1.25,15.4812169 2.48121694,14.25 4,14.25 L4,14.25 L4.25,14.2499544 L4.25,13 C4.25,12.0818266 4.95711027,11.3288077 5.85647279,11.2558012 L6,11.25 L7.25,11.2499544 L7.25,7 C7.25,6.62030423 7.53215388,6.30650904 7.89822944,6.25684662 L8,6.25 L10,6.25 C11.5381345,6.25 12.8599791,7.17604728 13.4384133,8.50102135 L17.4696699,4.46966991 C17.782424,4.15691581 18.2881577,4.18521607 18.5671187,4.50894353 Z M10.5497246,15.7502547 L6.4502754,15.7502547 C6.64190962,16.1252263 6.75,16.5499902 6.75,17 C6.75,17.4504145 6.64171513,17.8755377 6.44975819,18.2507568 L10.5502418,18.2507568 C10.3582849,17.8755377 10.25,17.4504145 10.25,17 C10.25,16.5499902 10.3580904,16.1252263 10.5497246,15.7502547 Z M4,15.75 C3.30964406,15.75 2.75,16.3096441 2.75,17 C2.75,17.6903559 3.30964406,18.25 4,18.25 C4.69035594,18.25 5.25,17.6903559 5.25,17 C5.25,16.3096441 4.69035594,15.75 4,15.75 Z M13,15.75 C12.3096441,15.75 11.75,16.3096441 11.75,17 C11.75,17.6903559 12.3096441,18.25 13,18.25 C13.6903559,18.25 14.25,17.6903559 14.25,17 C14.25,16.3096441 13.6903559,15.75 13,15.75 Z M12.25,12.7499544 L6,12.75 C5.88165327,12.75 5.78251318,12.8322334 5.75660268,12.9426773 L5.75,13 L5.75,14.2499544 L12.25,14.2499544 L12.25,12.7499544 Z M21.027,11.033 L18.032,14.028 L18.0506774,14.0387482 C18.2862809,14.1487961 18.5404307,14.217782 18.8019724,14.2411238 L18.8019724,14.2411238 L18.9993403,14.2500003 C19.9087653,14.2492004 20.7282876,13.7010151 21.0762013,12.8607708 C21.3081437,12.300608 21.300074,11.68408 21.0785047,11.1446467 L21.0785047,11.1446467 L21.027,11.033 Z M10,7.75 L8.75,7.75 L8.75,11.2499544 L12.25,11.2499544 L12.25,10 C12.25,8.80913601 11.3248384,7.83435508 10.1540488,7.75519081 L10,7.75 Z" id="Icon-Color" fill="#212121"></path>
    </g>
</svg>