<?xml version="1.0" encoding="UTF-8"?>
<svg width="24px" height="24px" viewBox="0 0 24 24" version="1.1" xmlns="http://www.w3.org/2000/svg" xmlns:xlink="http://www.w3.org/1999/xlink">
    <title>Icon/backspace</title>
    <g id="Icon/backspace" stroke="none" stroke-width="1" fill="none" fill-rule="evenodd">
        <path d="M20,5.25 C20.9664983,5.25 21.75,6.03350169 21.75,7 L21.75,7 L21.75,17 C21.75,17.9664983 20.9664983,18.75 20,18.75 L20,18.75 L9,18.75 C8.80108763,18.75 8.6103222,18.6709824 8.46966991,18.5303301 L8.46966991,18.5303301 L3.44098301,13.5 C2.67705098,12.645898 2.67705098,11.354102 3.46966991,10.4696699 L3.46966991,10.4696699 L8.46966991,5.46966991 C8.6103222,5.32901763 8.80108763,5.25 9,5.25 L9,5.25 Z M20,6.75 L9.31,6.75 L4.55901699,11.5 C4.30437299,11.7847007 4.30437299,12.2152993 4.53033009,12.4696699 L4.53033009,12.4696699 L9.311,17.25 L20,17.25 C20.1183467,17.25 20.2174868,17.1677666 20.2433973,17.0573227 L20.2433973,17.0573227 L20.25,17 L20.25,7 C20.25,6.86192881 20.1380712,6.75 20,6.75 L20,6.75 Z M16.5303301,9.46966991 C16.7965966,9.73593648 16.8208027,10.1526002 16.6029482,10.4462117 L16.5303301,10.5303301 L15.061,12 L16.5303301,13.4696699 C16.8232233,13.7625631 16.8232233,14.2374369 16.5303301,14.5303301 C16.2640635,14.7965966 15.8473998,14.8208027 15.5537883,14.6029482 L15.4696699,14.5303301 L14,13.061 L12.5303301,14.5303301 C12.2374369,14.8232233 11.7625631,14.8232233 11.4696699,14.5303301 C11.2034034,14.2640635 11.1791973,13.8473998 11.3970518,13.5537883 L11.4696699,13.4696699 L12.939,12 L11.4696699,10.5303301 C11.1767767,10.2374369 11.1767767,9.76256313 11.4696699,9.46966991 C11.7063513,9.23298853 12.061865,9.18756482 12.3441588,9.33339881 L12.4462117,9.39705176 L12.5303301,9.46966991 L14,10.939 L15.4696699,9.46966991 C15.7625631,9.1767767 16.2374369,9.1767767 16.5303301,9.46966991 Z" id="Icon-Color" fill="#212121"></path>
    </g>
</svg>