<?xml version="1.0" encoding="UTF-8"?>
<svg width="24px" height="24px" viewBox="0 0 24 24" version="1.1" xmlns="http://www.w3.org/2000/svg" xmlns:xlink="http://www.w3.org/1999/xlink">
    <title>Icon/ball-football</title>
    <g id="Icon/ball-football" stroke="none" stroke-width="1" fill="none" fill-rule="evenodd">
        <path d="M12,2.25 C16.2005353,2.25 19.7806537,4.90632033 21.1521957,8.63080135 C21.1702762,8.6614729 21.185915,8.6944048 21.1992838,8.72888728 L21.2319663,8.83605333 L21.2319663,8.83605333 L21.2364154,8.86905209 C21.5694219,9.85175878 21.75,10.9047913 21.75,12 C21.75,17.3847763 17.3847763,21.75 12,21.75 C6.61522369,21.75 2.25,17.3847763 2.25,12 C2.25,10.9047913 2.43057806,9.85175878 2.76358465,8.86905209 L2.7703114,8.82625089 C2.77813196,8.7935897 2.78823854,8.76107093 2.80071616,8.72888728 L2.84881338,8.62769755 L2.84881338,8.62769755 C4.22315643,4.9034942 7.80169983,2.25 12,2.25 Z M14.648,16.75 L9.445,16.75 L7.54275697,18.9434926 C8.76209832,19.727847 10.2014671,20.1997848 11.747775,20.2462179 L12,20.25 C13.6470529,20.25 15.1813757,19.7673449 16.4692458,18.935757 L14.648,16.75 Z M3.99490095,9.99673292 C3.83492345,10.6380741 3.75,11.3091196 3.75,12 C3.75,14.3742569 4.7529453,16.5142633 6.35827857,18.019462 L8.186,15.912 L6.634,11.019 Z M20.005099,9.99673292 L17.365,11.019 L15.838,15.834 L17.651607,18.0101779 C19.1942084,16.5590549 20.1780988,14.5207171 20.2462179,12.252225 L20.25,12 C20.25,11.3091196 20.1650766,10.6380741 20.005099,9.99673292 Z M11.999,7.926 L8.118,10.74 L9.548,15.25 L14.451,15.25 L15.881,10.74 L11.999,7.926 Z M11.2500791,3.78362513 C8.23753279,4.05507114 5.69194021,5.94593654 4.49049416,8.57902857 L7.13,9.602 L11.25,6.616 Z M12.75,6.617 L16.869,9.602 L19.5095058,8.57902857 C18.3081924,5.9462271 15.763029,4.05548845 12.7509182,3.78371505 L12.75,6.617 Z" id="Icon-Color" fill="#212121"></path>
    </g>
</svg>