<?xml version="1.0" encoding="UTF-8"?>
<svg width="24px" height="24px" viewBox="0 0 24 24" version="1.1" xmlns="http://www.w3.org/2000/svg" xmlns:xlink="http://www.w3.org/1999/xlink">
    <title>Icon/ban</title>
    <g id="Icon/ban" stroke="none" stroke-width="1" fill="none" fill-rule="evenodd">
        <path d="M12,2.25 C17.3847763,2.25 21.75,6.61522369 21.75,12 C21.75,17.3847763 17.3847763,21.75 12,21.75 C6.61522369,21.75 2.25,17.3847763 2.25,12 C2.25,6.61522369 6.61522369,2.25 12,2.25 Z M5.6596342,6.72120391 C4.46730178,8.15175371 3.75,9.99210945 3.75,12 C3.75,16.5563492 7.44365081,20.25 12,20.25 C14.0078905,20.25 15.8482463,19.5326982 17.2787961,18.3403658 Z M12,3.75 C9.99210945,3.75 8.15175371,4.46730178 6.72120391,5.6596342 L18.3403658,17.2787961 C19.5326982,15.8482463 20.25,14.0078905 20.25,12 C20.25,7.44365081 16.5563492,3.75 12,3.75 Z" id="Icon-Color" fill="#212121"></path>
    </g>
</svg>