<?xml version="1.0" encoding="UTF-8"?>
<svg width="24px" height="24px" viewBox="0 0 24 24" version="1.1" xmlns="http://www.w3.org/2000/svg" xmlns:xlink="http://www.w3.org/1999/xlink">
    <title>Icon/barcode</title>
    <g id="Icon/barcode" stroke="none" stroke-width="1" fill="none" fill-rule="evenodd">
        <path d="M4,16.25 C4.37969577,16.25 4.69349096,16.5321539 4.74315338,16.8982294 L4.75,17 L4.75,18 C4.75,18.6472087 5.24187466,19.1795339 5.87219476,19.2435464 L6,19.25 L8,19.25 C8.41421356,19.25 8.75,19.5857864 8.75,20 C8.75,20.3796958 8.46784612,20.693491 8.10177056,20.7431534 L8,20.75 L6,20.75 C4.53746816,20.75 3.34159572,19.6082954 3.25501879,18.1675223 L3.25,18 L3.25,17 C3.25,16.5857864 3.58578644,16.25 4,16.25 Z M20,16.25 C20.3796958,16.25 20.693491,16.5321539 20.7431534,16.8982294 L20.75,17 L20.75,18 C20.75,19.4625318 19.6082954,20.6584043 18.1675223,20.7449812 L18,20.75 L16,20.75 C15.5857864,20.75 15.25,20.4142136 15.25,20 C15.25,19.6203042 15.5321539,19.306509 15.8982294,19.2568466 L16,19.25 L18,19.25 C18.6472087,19.25 19.1795339,18.7581253 19.2435464,18.1278052 L19.25,18 L19.25,17 C19.25,16.5857864 19.5857864,16.25 20,16.25 Z M6,10.25 C6.41421356,10.25 6.75,10.5857864 6.75,11 L6.75,11 L6.75,13 C6.75,13.4142136 6.41421356,13.75 6,13.75 L6,13.75 L5,13.75 C4.58578644,13.75 4.25,13.4142136 4.25,13 L4.25,13 L4.25,11 C4.25,10.5857864 4.58578644,10.25 5,10.25 L5,10.25 Z M10,10.25 C10.3796958,10.25 10.693491,10.5321539 10.7431534,10.8982294 L10.75,11 L10.75,13 C10.75,13.4142136 10.4142136,13.75 10,13.75 C9.62030423,13.75 9.30650904,13.4678461 9.25684662,13.1017706 L9.25,13 L9.25,11 C9.25,10.5857864 9.58578644,10.25 10,10.25 Z M15,10.25 C15.4142136,10.25 15.75,10.5857864 15.75,11 L15.75,11 L15.75,13 C15.75,13.4142136 15.4142136,13.75 15,13.75 L15,13.75 L14,13.75 C13.5857864,13.75 13.25,13.4142136 13.25,13 L13.25,13 L13.25,11 C13.25,10.5857864 13.5857864,10.25 14,10.25 L14,10.25 Z M19,10.25 C19.3796958,10.25 19.693491,10.5321539 19.7431534,10.8982294 L19.75,11 L19.75,13 C19.75,13.4142136 19.4142136,13.75 19,13.75 C18.6203042,13.75 18.306509,13.4678461 18.2568466,13.1017706 L18.25,13 L18.25,11 C18.25,10.5857864 18.5857864,10.25 19,10.25 Z M8,3.25 C8.41421356,3.25 8.75,3.58578644 8.75,4 C8.75,4.37969577 8.46784612,4.69349096 8.10177056,4.74315338 L8,4.75 L6,4.75 C5.35279131,4.75 4.8204661,5.24187466 4.75645361,5.87219476 L4.75,6 L4.75,7 C4.75,7.41421356 4.41421356,7.75 4,7.75 C3.62030423,7.75 3.30650904,7.46784612 3.25684662,7.10177056 L3.25,7 L3.25,6 C3.25,4.53746816 4.3917046,3.34159572 5.83247767,3.25501879 L6,3.25 L8,3.25 Z M18,3.25 C19.4625318,3.25 20.6584043,4.3917046 20.7449812,5.83247767 L20.75,6 L20.75,7 C20.75,7.41421356 20.4142136,7.75 20,7.75 C19.6203042,7.75 19.306509,7.46784612 19.2568466,7.10177056 L19.25,7 L19.25,6 C19.25,5.35279131 18.7581253,4.8204661 18.1278052,4.75645361 L18,4.75 L16,4.75 C15.5857864,4.75 15.25,4.41421356 15.25,4 C15.25,3.62030423 15.5321539,3.30650904 15.8982294,3.25684662 L16,3.25 L18,3.25 Z" id="Icon-Color" fill="#212121"></path>
    </g>
</svg>