<?xml version="1.0" encoding="UTF-8"?>
<svg width="24px" height="24px" viewBox="0 0 24 24" version="1.1" xmlns="http://www.w3.org/2000/svg" xmlns:xlink="http://www.w3.org/1999/xlink">
    <title>Icon/battery-4</title>
    <g id="Icon/battery-4" stroke="none" stroke-width="1" fill="none" fill-rule="evenodd">
        <path d="M17,6.25 C18.4625318,6.25 19.6584043,7.3917046 19.7449812,8.83247767 L19.75,9 L19.75,9.275 C20.2808365,9.38362783 20.6880689,9.82591734 20.7435464,10.3721948 L20.75,10.5 L20.75,13.5 C20.75,14.0609142 20.3805475,14.5355381 19.8717118,14.6938025 L19.75,14.724 L19.75,15 C19.75,16.4625318 18.6082954,17.6584043 17.1675223,17.7449812 L17,17.75 L6,17.75 C4.53746816,17.75 3.34159572,16.6082954 3.25501879,15.1675223 L3.25,15 L3.25,9 C3.25,7.53746816 4.3917046,6.34159572 5.83247767,6.25501879 L6,6.25 L17,6.25 Z M17,7.75 L6,7.75 L5.87219476,7.75645361 C5.283896,7.8161986 4.8161986,8.283896 4.75645361,8.87219476 L4.75,9 L4.75,15 C4.75,15.6472087 5.24187466,16.1795339 5.87219476,16.2435464 L6,16.25 L17,16.25 C17.6472087,16.25 18.1795339,15.7581253 18.2435464,15.1278052 L18.25,15 L18.25,14.5 C18.25,13.9390858 18.6194525,13.4644619 19.1282882,13.3061975 L19.25,13.275 L19.25,10.724 C18.7191635,10.6163722 18.3119311,10.1740827 18.2564536,9.62780524 L18.25,9.5 L18.25,9 C18.25,8.35279131 17.7581253,7.8204661 17.1278052,7.75645361 L17,7.75 Z M7,9.25 C7.37969577,9.25 7.69349096,9.53215388 7.74315338,9.89822944 L7.75,10 L7.75,14 C7.75,14.4142136 7.41421356,14.75 7,14.75 C6.62030423,14.75 6.30650904,14.4678461 6.25684662,14.1017706 L6.25,14 L6.25,10 C6.25,9.58578644 6.58578644,9.25 7,9.25 Z M10,9.25 C10.3796958,9.25 10.693491,9.53215388 10.7431534,9.89822944 L10.75,10 L10.75,14 C10.75,14.4142136 10.4142136,14.75 10,14.75 C9.62030423,14.75 9.30650904,14.4678461 9.25684662,14.1017706 L9.25,14 L9.25,10 C9.25,9.58578644 9.58578644,9.25 10,9.25 Z M13,9.25 C13.3796958,9.25 13.693491,9.53215388 13.7431534,9.89822944 L13.75,10 L13.75,14 C13.75,14.4142136 13.4142136,14.75 13,14.75 C12.6203042,14.75 12.306509,14.4678461 12.2568466,14.1017706 L12.25,14 L12.25,10 C12.25,9.58578644 12.5857864,9.25 13,9.25 Z M16,9.25 C16.3796958,9.25 16.693491,9.53215388 16.7431534,9.89822944 L16.75,10 L16.75,14 C16.75,14.4142136 16.4142136,14.75 16,14.75 C15.6203042,14.75 15.306509,14.4678461 15.2568466,14.1017706 L15.25,14 L15.25,10 C15.25,9.58578644 15.5857864,9.25 16,9.25 Z" id="Icon-Color" fill="#212121"></path>
    </g>
</svg>