<?xml version="1.0" encoding="UTF-8"?>
<svg width="24px" height="24px" viewBox="0 0 24 24" version="1.1" xmlns="http://www.w3.org/2000/svg" xmlns:xlink="http://www.w3.org/1999/xlink">
    <title>Icon/battery-automotive</title>
    <g id="Icon/battery-automotive" stroke="none" stroke-width="1" fill="none" fill-rule="evenodd">
        <path d="M19,3.25 C19.3796958,3.25 19.693491,3.53215388 19.7431534,3.89822944 L19.75,4 L19.7505538,5.35367295 C20.9045229,5.68032018 21.75,6.74142422 21.75,8 L21.75,8 L21.75,18 C21.75,19.5187831 20.5187831,20.75 19,20.75 L19,20.75 L5,20.75 C3.48121694,20.75 2.25,19.5187831 2.25,18 L2.25,18 L2.25,8 C2.25,6.48121694 3.48121694,5.25 5,5.25 L5,5.25 L5.25,5.25 L5.25,4 C5.25,3.58578644 5.58578644,3.25 6,3.25 C6.37969577,3.25 6.69349096,3.53215388 6.74315338,3.89822944 L6.75,4 L6.75,5.25 L18.25,5.25 L18.25,4 C18.25,3.58578644 18.5857864,3.25 19,3.25 Z M19,6.75 L5,6.75 C4.30964406,6.75 3.75,7.30964406 3.75,8 L3.75,8 L3.75,18 C3.75,18.6903559 4.30964406,19.25 5,19.25 L5,19.25 L19,19.25 C19.6903559,19.25 20.25,18.6903559 20.25,18 L20.25,18 L20.25,8 C20.25,7.30964406 19.6903559,6.75 19,6.75 L19,6.75 Z M16,10.75 C16.3796958,10.75 16.693491,11.0321539 16.7431534,11.3982294 L16.75,11.5 L16.75,12.25 L17.5,12.25 C17.9142136,12.25 18.25,12.5857864 18.25,13 C18.25,13.3796958 17.9678461,13.693491 17.6017706,13.7431534 L17.5,13.75 L16.75,13.75 L16.75,14.5 C16.75,14.9142136 16.4142136,15.25 16,15.25 C15.6203042,15.25 15.306509,14.9678461 15.2568466,14.6017706 L15.25,14.5 L15.25,13.75 L14.5,13.75 C14.0857864,13.75 13.75,13.4142136 13.75,13 C13.75,12.6203042 14.0321539,12.306509 14.3982294,12.2568466 L14.5,12.25 L15.25,12.25 L15.25,11.5 C15.25,11.0857864 15.5857864,10.75 16,10.75 Z M9.5,12.25 C9.91421356,12.25 10.25,12.5857864 10.25,13 C10.25,13.3796958 9.96784612,13.693491 9.60177056,13.7431534 L9.5,13.75 L6.5,13.75 C6.08578644,13.75 5.75,13.4142136 5.75,13 C5.75,12.6203042 6.03215388,12.306509 6.39822944,12.2568466 L6.5,12.25 L9.5,12.25 Z" id="Icon-Color" fill="#212121"></path>
    </g>
</svg>