<?xml version="1.0" encoding="UTF-8"?>
<svg width="24px" height="24px" viewBox="0 0 24 24" version="1.1" xmlns="http://www.w3.org/2000/svg" xmlns:xlink="http://www.w3.org/1999/xlink">
    <title>Icon/social/outline/behance</title>
    <g id="Icon/social/outline/behance" stroke="none" stroke-width="1" fill="none" fill-rule="evenodd">
        <path d="M12,2 C17.5228475,2 22,6.4771525 22,12 C22,17.5228475 17.5228475,22 12,22 C6.4771525,22 2,17.5228475 2,12 C2,6.4771525 6.4771525,2 12,2 Z M12,2.75 C6.89136606,2.75 2.75,6.89136606 2.75,12 C2.75,17.1086339 6.89136606,21.25 12,21.25 C17.1086339,21.25 21.25,17.1086339 21.25,12 C21.25,6.89136606 17.1086339,2.75 12,2.75 Z M14.8205128,10.3117931 C16.0242104,10.3117931 17,11.296782 17,12.5118275 C17,12.708379 16.8553057,12.8708167 16.6675746,12.8965247 L16.6153846,12.9000689 L13.4102564,12.9000689 L13.4102564,13.5176315 L13.4224127,13.5869392 C13.5344564,14.1373731 13.9581334,14.5704511 14.5019758,14.690457 L14.5936961,14.7075256 C15.2121442,14.8015435 15.8180597,14.4731672 16.0821149,13.9008762 C16.1717981,13.7065044 16.4005986,13.622323 16.5931551,13.7128517 C16.7857115,13.8033804 16.8691068,14.0343379 16.7794236,14.2287097 C16.3713382,15.1131594 15.4349233,15.62065 14.4791399,15.4753496 C13.5587559,15.3354308 12.8321556,14.6223704 12.6617931,13.706665 L12.644625,13.6001284 L12.6410256,13.5471378 L12.6410256,12.5118275 C12.6410256,11.296782 13.6168153,10.3117931 14.8205128,10.3117931 Z M9.69230769,8.5 C10.7543937,8.5 11.6153846,9.36910791 11.6153846,10.4412068 C11.6153846,11.0637159 11.3251026,11.6177868 10.8737222,11.9730179 L10.8451282,11.9941723 L10.8737222,12.0153268 C11.3000259,12.3508228 11.5826338,12.863679 11.612719,13.4440423 L11.6153846,13.5471378 C11.6153846,14.5846529 10.8090456,15.4320619 9.79444029,15.4856539 L9.69230769,15.4883446 L7.38461538,15.4883446 C7.18989961,15.4883446 7.02897899,15.3422862 7.00351109,15.1527853 L7,15.1001033 L7,8.88824137 C7,8.6916899 7.1446943,8.5292522 7.33242536,8.50354419 L7.38461538,8.5 L9.69230769,8.5 Z M9.69230769,12.3824137 L7.769,12.382 L7.76923077,14.7118619 L9.69230769,14.7118619 C10.3030072,14.7118619 10.8028948,14.2329472 10.8434919,13.626882 L10.8461538,13.5471378 C10.8461538,12.9306809 10.371712,12.4260805 9.77130708,12.3851007 L9.69230769,12.3824137 Z M14.8205128,11.0882758 C14.1858836,11.0882758 13.649163,11.5114244 13.4721413,12.0934635 L13.4635897,12.1235861 L16.1769231,12.1235861 L16.1688843,12.0934635 C15.999909,11.5378808 15.5031916,11.1270721 14.9064217,11.0908738 L14.8205128,11.0882758 Z M9.69230769,9.27648274 L7.76923077,9.27648274 L7.769,11.605 L9.69230769,11.605931 L9.701,11.606 L9.77130708,11.6032439 C10.371712,11.5622641 10.8461538,11.0576637 10.8461538,10.4412068 C10.8461538,9.82474996 10.371712,9.32014958 9.77130708,9.27916979 L9.69230769,9.27648274 Z M15.5897436,8.5 C15.8021608,8.5 15.974359,8.67382158 15.974359,8.88824137 C15.974359,9.08479284 15.8296647,9.24723054 15.6419336,9.27293855 L15.5897436,9.27648274 L14.0512821,9.27648274 C13.8388648,9.27648274 13.6666667,9.10266116 13.6666667,8.88824137 C13.6666667,8.6916899 13.811361,8.5292522 13.999092,8.50354419 L14.0512821,8.5 L15.5897436,8.5 Z" id="Icon-Color" fill="#212121"></path>
    </g>
</svg>