<?xml version="1.0" encoding="UTF-8"?>
<svg width="24px" height="24px" viewBox="0 0 24 24" version="1.1" xmlns="http://www.w3.org/2000/svg" xmlns:xlink="http://www.w3.org/1999/xlink">
    <title>Icon/bell-ringing</title>
    <g id="Icon/bell-ringing" stroke="none" stroke-width="1" fill="none" fill-rule="evenodd">
        <path d="M12,2.25 C13.2913325,2.25 14.3747803,3.14005988 14.6703298,4.3401659 L14.707,4.519 L14.8267478,4.58443973 C17.0493251,5.84267394 18.5161953,8.12478427 18.7312785,10.7113836 L18.75,11 L18.7445651,13.9098733 C18.8685644,14.9342704 19.4716598,15.8389135 20.3695651,16.3473733 C21.0096775,16.7098518 20.7932066,17.6583391 20.1019409,17.7438163 L20,17.75 L15.7498183,17.7499886 L15.75,18 C15.75,20.0710678 14.0710678,21.75 12,21.75 C9.99574083,21.75 8.35872626,20.1776389 8.25519801,18.1991586 L8.25,18 L8.2498183,17.7499886 L4,17.75 C3.22935205,17.75 2.95984098,16.7271127 3.63043491,16.3473733 C4.46847982,15.8728108 5.04971261,15.0531286 5.21988292,14.1863504 L5.25,14 L5.25082481,10.9648356 C5.37623928,8.29288968 6.86836093,5.88911892 9.17325243,4.58442931 L9.292,4.519 L9.29430618,4.50568402 C9.51745197,3.27626633 10.5579476,2.33160608 11.8324777,2.25501879 L12,2.25 Z M14.2498183,17.7499886 L9.7498183,17.7499886 L9.75,18 C9.75,19.2426407 10.7573593,20.25 12,20.25 C13.190864,20.25 14.1656449,19.3248384 14.2448092,18.1540488 L14.25,18 L14.2498183,17.7499886 Z M12,3.75 C11.3527913,3.75 10.8204661,4.24187466 10.7564536,4.87219476 L10.7472666,5.06537851 L10.7431534,5.10177056 L10.7232093,5.19937971 L10.6910613,5.29193385 L10.647603,5.37853936 L10.6190424,5.42363688 L10.5593257,5.49994581 L10.5303301,5.53033009 L10.4893965,5.56857279 L10.4096805,5.62832799 L10.3206038,5.67802155 C8.30855316,6.62942345 6.96027223,8.57530135 6.76713119,10.7483046 L6.75,11 L6.74456509,14.0901267 C6.65395021,14.8387246 6.38828098,15.5435662 5.98122509,16.1541501 L5.913,16.25 L18.09,16.25 L18.0836393,16.2401884 C17.6834186,15.6616937 17.4079254,14.9866375 17.2852087,14.2483806 L17.25,14 L17.2508248,11.0351644 C17.1424598,8.72645539 15.7688334,6.66601583 13.6793962,5.67802155 C13.4499834,5.56954327 13.2932865,5.35383801 13.2576969,5.10731617 L13.25,5 C13.25,4.30964406 12.6903559,3.75 12,3.75 Z M18.6977969,2.4337529 C19.9638396,3.53333623 20.980981,4.89013154 21.6814349,6.4137167 C21.8544565,6.79006282 21.6896294,7.23541335 21.3132833,7.40843494 C20.9369372,7.58145653 20.4915867,7.41662943 20.3185651,7.0402833 C19.7071519,5.71037423 18.8193081,4.52605289 17.7142031,3.5662471 C17.4014734,3.29463516 17.368141,2.82093271 17.6397529,2.50820307 C17.9113648,2.19547343 18.3850673,2.16214095 18.6977969,2.4337529 Z M6.35805075,2.50797709 C6.6297875,2.82059829 6.59664411,3.29431401 6.28402291,3.56605075 C5.17959209,4.52604464 4.29239421,5.71035212 3.68152517,7.04008695 C3.50861202,7.41648291 3.063309,7.58143832 2.68691305,7.40852517 C2.31051709,7.23561202 2.14556168,6.790309 2.31847483,6.41391305 C3.01830538,4.89052751 4.03470683,3.53374807 5.29997709,2.43394925 C5.61259829,2.1622125 6.08631401,2.19535589 6.35805075,2.50797709 Z" id="Icon-Color" fill="#212121"></path>
    </g>
</svg>