<?xml version="1.0" encoding="UTF-8"?>
<svg width="24px" height="24px" viewBox="0 0 24 24" version="1.1" xmlns="http://www.w3.org/2000/svg" xmlns:xlink="http://www.w3.org/1999/xlink">
    <title>Icon/bike</title>
    <g id="Icon/bike" stroke="none" stroke-width="1" fill="none" fill-rule="evenodd">
        <path d="M5,14.25 C7.07106781,14.25 8.75,15.9289322 8.75,18 C8.75,20.0710678 7.07106781,21.75 5,21.75 C2.92893219,21.75 1.25,20.0710678 1.25,18 C1.25,15.9289322 2.92893219,14.25 5,14.25 Z M19,14.25 C21.0710678,14.25 22.75,15.9289322 22.75,18 C22.75,20.0710678 21.0710678,21.75 19,21.75 C16.9289322,21.75 15.25,20.0710678 15.25,18 C15.25,15.9289322 16.9289322,14.25 19,14.25 Z M5,15.75 C3.75735931,15.75 2.75,16.7573593 2.75,18 C2.75,19.2426407 3.75735931,20.25 5,20.25 C6.24264069,20.25 7.25,19.2426407 7.25,18 C7.25,16.7573593 6.24264069,15.75 5,15.75 Z M19,15.75 C17.7573593,15.75 16.75,16.7573593 16.75,18 C16.75,19.2426407 17.7573593,20.25 19,20.25 C20.2426407,20.25 21.25,19.2426407 21.25,18 C21.25,16.7573593 20.2426407,15.75 19,15.75 Z M14.5578458,7.49850871 L14.6240377,7.58397485 L16.402,10.25 L19,10.25 C19.3796958,10.25 19.693491,10.5321539 19.7431534,10.8982294 L19.7499905,11 C19.7499905,11.3796958 19.4678461,11.693491 19.1017706,11.7431534 L19,11.75 L16,11.75 C15.7850587,11.75 15.5823069,11.6579239 15.4411683,11.5002223 L15.3759623,11.4160251 L13.829,9.096 L10.122,12.061 L12.5303301,14.4696699 C12.6428519,14.5821917 12.7159276,14.726786 12.7406569,14.8819659 L12.7499905,15 L12.7499905,19 C12.7499905,19.4142136 12.4142136,19.75 12,19.75 C11.6203042,19.75 11.306509,19.4678461 11.2568466,19.1017706 L11.2499905,19 L11.2499905,15.311 L8.46966991,12.5303301 C8.17992742,12.2405876 8.18001292,11.7789476 8.45090048,11.4889307 L8.53147871,11.4143484 L13.5314787,7.41434839 C13.8463239,7.16247227 14.2969895,7.20737771 14.5578458,7.49850871 Z M17,3.25 C17.9664983,3.25 18.75,4.03350169 18.75,5 C18.75,5.96649831 17.9664983,6.75 17,6.75 C16.0335017,6.75 15.25,5.96649831 15.25,5 C15.25,4.03350169 16.0335017,3.25 17,3.25 Z M17,4.75 C16.8619288,4.75 16.75,4.86192881 16.75,5 C16.75,5.13807119 16.8619288,5.25 17,5.25 C17.1380712,5.25 17.25,5.13807119 17.25,5 C17.25,4.86192881 17.1380712,4.75 17,4.75 Z" id="Icon-Color" fill="#212121"></path>
    </g>
</svg>