<?xml version="1.0" encoding="UTF-8"?>
<svg width="24px" height="24px" viewBox="0 0 24 24" version="1.1" xmlns="http://www.w3.org/2000/svg" xmlns:xlink="http://www.w3.org/1999/xlink">
    <title>Icon/binary</title>
    <g id="Icon/binary" stroke="none" stroke-width="1" fill="none" fill-rule="evenodd">
        <path d="M18,13.25 C18.3796958,13.25 18.693491,13.5321539 18.7431534,13.8982294 L18.75,14 L18.75,19 C18.75,19.4142136 18.4142136,19.75 18,19.75 C17.6203042,19.75 17.306509,19.4678461 17.2568466,19.1017706 L17.25,19 L17.25,14.75 L17,14.75 C16.6203042,14.75 16.306509,14.4678461 16.2568466,14.1017706 L16.25,14 C16.25,13.6203042 16.5321539,13.306509 16.8982294,13.2568466 L17,13.25 L18,13.25 Z M12.5,13.25 C13.1903559,13.25 13.75,13.8096441 13.75,14.5 L13.75,14.5 L13.75,18.5 C13.75,19.1903559 13.1903559,19.75 12.5,19.75 L12.5,19.75 L10.5,19.75 C9.80964406,19.75 9.25,19.1903559 9.25,18.5 L9.25,18.5 L9.25,14.5 C9.25,13.8096441 9.80964406,13.25 10.5,13.25 L10.5,13.25 Z M12.25,14.75 L10.75,14.75 L10.75,18.25 L12.25,18.25 L12.25,14.75 Z M11,4.25 C11.3796958,4.25 11.693491,4.53215388 11.7431534,4.89822944 L11.75,5 L11.75,10 C11.75,10.4142136 11.4142136,10.75 11,10.75 C10.6203042,10.75 10.306509,10.4678461 10.2568466,10.1017706 L10.25,10 L10.25,5.75 L10,5.75 C9.62030423,5.75 9.30650904,5.46784612 9.25684662,5.10177056 L9.25,5 C9.25,4.62030423 9.53215388,4.30650904 9.89822944,4.25684662 L10,4.25 L11,4.25 Z M17.5,4.25 C18.1903559,4.25 18.75,4.80964406 18.75,5.5 L18.75,5.5 L18.75,9.5 C18.75,10.1903559 18.1903559,10.75 17.5,10.75 L17.5,10.75 L15.5,10.75 C14.8096441,10.75 14.25,10.1903559 14.25,9.5 L14.25,9.5 L14.25,5.5 C14.25,4.80964406 14.8096441,4.25 15.5,4.25 L15.5,4.25 Z M17.25,5.75 L15.75,5.75 L15.75,9.25 L17.25,9.25 L17.25,5.75 Z" id="Icon-Color" fill="#212121"></path>
    </g>
</svg>