<?xml version="1.0" encoding="UTF-8"?>
<svg width="24px" height="24px" viewBox="0 0 24 24" version="1.1" xmlns="http://www.w3.org/2000/svg" xmlns:xlink="http://www.w3.org/1999/xlink">
    <title>Icon/biohazard</title>
    <g id="Icon/biohazard" stroke="none" stroke-width="1" fill="none" fill-rule="evenodd">
        <path d="M9.1485565,2.59019684 C9.42108551,2.85005008 9.45520245,3.26601954 9.24439849,3.56473339 L9.17380316,3.6505565 L9.02319323,3.80813923 C8.13749085,4.78723536 7.79197052,6.1403157 8.09980426,7.42419121 C8.36752908,8.5407853 9.09944829,9.47993424 10.0970013,10.0155518 C10.5912434,9.54099143 11.2616393,9.25 12,9.25 C12.7353201,9.25 13.403234,9.53859973 13.8966509,10.0087081 C14.9180701,9.45656 15.6570597,8.48060175 15.9031438,7.32807104 C16.1863422,6.00171602 15.7781617,4.62220758 14.8188398,3.66349989 C14.5258528,3.37070048 14.5257007,2.89582677 14.8185001,2.60283977 C15.1112995,2.30985277 15.5861732,2.3097007 15.8791602,2.60250011 C17.1982279,3.92072318 17.7594761,5.81754729 17.3700783,7.64128544 C17.2481465,8.21235101 17.0382055,8.75188926 16.7538309,9.24405457 C17.514892,9.24309547 18.2809226,9.40226079 19.0009183,9.72607726 C20.8195792,10.544016 22.0471593,12.2787461 22.2238685,14.2832109 L22.24,14.525 L22.24,14.742 C22.24,15.1562136 21.9042136,15.492 21.49,15.492 C21.1103042,15.492 20.796509,15.2098461 20.7468466,14.8437706 L20.74,14.742 L20.7407839,14.5592819 C20.6718413,13.0525716 19.7612272,11.7127477 18.3856582,11.0940886 C17.1735731,10.548956 15.7820992,10.6454376 14.665956,11.3247459 C14.7211158,11.5414942 14.75,11.767374 14.75,12 C14.75,13.2596645 13.9030595,14.3215155 12.7475584,14.6471731 C12.7219339,15.6246303 13.0577096,16.5852806 13.7005792,17.33959 C14.4605642,18.2313166 15.5733188,18.745 16.745,18.745 C17.1592136,18.745 17.495,19.0807864 17.495,19.495 C17.495,19.9092136 17.1592136,20.245 16.745,20.245 C15.133959,20.245 13.6039275,19.5386881 12.5589458,18.3125613 C12.3461623,18.0628923 12.1578468,17.7967829 11.9950134,17.5178508 C11.1189766,19.0190453 9.54406858,20.071501 7.68921442,20.2301315 L7.462,20.245 L7.245,20.245 C6.83078644,20.245 6.495,19.9092136 6.495,19.495 C6.495,19.1153042 6.77715388,18.801509 7.14322944,18.7518466 L7.245,18.745 L7.42773684,18.7457831 C9.49468456,18.6512575 11.1360486,16.9998802 11.2397922,14.9556857 L11.245,14.75 L11.2454544,14.6451938 C10.0935278,14.3172318 9.25,13.2571241 9.25,12 C9.25,11.7702773 9.27816768,11.5471334 9.33123764,11.3338339 C8.18728562,10.6325518 6.75359282,10.5475368 5.5219521,11.1354195 C4.13087222,11.7994053 3.24509147,13.203623 3.245,14.7450445 C3.24497542,15.1592581 2.90916906,15.495 2.49495549,15.495 C2.08074193,15.495 1.745,15.1591691 1.745,14.7449555 C1.74512577,12.6255009 2.96307431,10.6947016 4.87580914,9.78172118 C5.62622576,9.42353473 6.43119272,9.24701828 7.23191713,9.24523985 C6.96653337,8.79291781 6.76671069,8.29761831 6.64114693,7.77393224 C6.23803131,6.09266669 6.64975638,4.32509126 7.75346589,2.98516139 L7.92419684,2.7874435 L8.08819684,2.6154435 C8.3740354,2.31566159 8.84877459,2.30435828 9.1485565,2.59019684 Z M12,10.75 C11.3096441,10.75 10.75,11.3096441 10.75,12 C10.75,12.6903559 11.3096441,13.25 12,13.25 L11.927,13.2459987 L11.995,13.242 L12.055,13.242 L12.0981589,13.2462026 C12.7426342,13.196141 13.25,12.6573213 13.25,12 C13.25,11.7783991 13.1923355,11.5702665 13.0911932,11.3897889 C13.0665439,11.3599374 13.0414482,11.3211074 13.0197522,11.2794912 C12.7946035,10.958807 12.4216865,10.75 12,10.75 Z" id="Icon-Color" fill="#212121"></path>
    </g>
</svg>