<?xml version="1.0" encoding="UTF-8"?>
<svg width="24px" height="24px" viewBox="0 0 24 24" version="1.1" xmlns="http://www.w3.org/2000/svg" xmlns:xlink="http://www.w3.org/1999/xlink">
    <title>Icon/box-multiple</title>
    <g id="Icon/box-multiple" stroke="none" stroke-width="1" fill="none" fill-rule="evenodd">
        <path d="M19,2.25 C20.5187831,2.25 21.75,3.48121694 21.75,5 L21.75,5 L21.75,15 C21.75,16.5187831 20.5187831,17.75 19,17.75 L19,17.75 L17.75,17.75 L17.75,19 C17.75,20.4625318 16.6082954,21.6584043 15.1675223,21.7449812 L15,21.75 L5,21.75 C3.53746816,21.75 2.34159572,20.6082954 2.25501879,19.1675223 L2.25,19 L2.25,9 C2.25,7.53746816 3.3917046,6.34159572 4.83247767,6.25501879 L5,6.25 L6.25,6.25 L6.25,5 C6.25,3.53746816 7.3917046,2.34159572 8.83247767,2.25501879 L9,2.25 Z M6.25,7.75 L5,7.75 C4.35279131,7.75 3.8204661,8.24187466 3.75645361,8.87219476 L3.75,9 L3.75,19 C3.75,19.6472087 4.24187466,20.1795339 4.87219476,20.2435464 L5,20.25 L15,20.25 C15.6472087,20.25 16.1795339,19.7581253 16.2435464,19.1278052 L16.25,19 L16.25,17.75 L9,17.75 C7.53746816,17.75 6.34159572,16.6082954 6.25501879,15.1675223 L6.25,15 L6.25,7.75 Z M19,3.75 L9,3.75 C8.30964406,3.75 7.75,4.30964406 7.75,5 L7.75,5 L7.75,15 C7.75,15.6903559 8.30964406,16.25 9,16.25 L9,16.25 L19,16.25 C19.6903559,16.25 20.25,15.6903559 20.25,15 L20.25,15 L20.25,5 C20.25,4.30964406 19.6903559,3.75 19,3.75 L19,3.75 Z" id="Icon-Color" fill="#212121"></path>
    </g>
</svg>