<?xml version="1.0" encoding="UTF-8"?>
<svg width="24px" height="24px" viewBox="0 0 24 24" version="1.1" xmlns="http://www.w3.org/2000/svg" xmlns:xlink="http://www.w3.org/1999/xlink">
    <title>Icon/box-margin</title>
    <g id="Icon/box-margin" stroke="none" stroke-width="1" fill="none" fill-rule="evenodd">
        <path d="M4,19.25 C4.37969577,19.25 4.69349096,19.5321539 4.74315338,19.8982294 L4.75,20.01 C4.75,20.4242136 4.41421356,20.76 4,20.76 C3.62030423,20.76 3.30650904,20.4778461 3.25684662,20.1117706 L3.25,20 C3.25,19.5857864 3.58578644,19.25 4,19.25 Z M8,19.25 C8.37969577,19.25 8.69349096,19.5321539 8.74315338,19.8982294 L8.75,20.01 C8.75,20.4242136 8.41421356,20.76 8,20.76 C7.62030423,20.76 7.30650904,20.4778461 7.25684662,20.1117706 L7.25,20 C7.25,19.5857864 7.58578644,19.25 8,19.25 Z M12,19.25 C12.3796958,19.25 12.693491,19.5321539 12.7431534,19.8982294 L12.75,20.01 C12.75,20.4242136 12.4142136,20.76 12,20.76 C11.6203042,20.76 11.306509,20.4778461 11.2568466,20.1117706 L11.25,20 C11.25,19.5857864 11.5857864,19.25 12,19.25 Z M16,19.25 C16.3796958,19.25 16.693491,19.5321539 16.7431534,19.8982294 L16.75,20.01 C16.75,20.4242136 16.4142136,20.76 16,20.76 C15.6203042,20.76 15.306509,20.4778461 15.2568466,20.1117706 L15.25,20 C15.25,19.5857864 15.5857864,19.25 16,19.25 Z M20,19.25 C20.3796958,19.25 20.693491,19.5321539 20.7431534,19.8982294 L20.75,20.01 C20.75,20.4242136 20.4142136,20.76 20,20.76 C19.6203042,20.76 19.306509,20.4778461 19.2568466,20.1117706 L19.25,20 C19.25,19.5857864 19.5857864,19.25 20,19.25 Z M20,15.25 C20.3796958,15.25 20.693491,15.5321539 20.7431534,15.8982294 L20.75,16.01 C20.75,16.4242136 20.4142136,16.76 20,16.76 C19.6203042,16.76 19.306509,16.4778461 19.2568466,16.1117706 L19.25,16 C19.25,15.5857864 19.5857864,15.25 20,15.25 Z M4,15.25 C4.37969577,15.25 4.69349096,15.5321539 4.74315338,15.8982294 L4.75,16.01 C4.75,16.4242136 4.41421356,16.76 4,16.76 C3.62030423,16.76 3.30650904,16.4778461 3.25684662,16.1117706 L3.25,16 C3.25,15.5857864 3.58578644,15.25 4,15.25 Z M16,7.25 C16.4142136,7.25 16.75,7.58578644 16.75,8 L16.75,8 L16.75,16 C16.75,16.4142136 16.4142136,16.75 16,16.75 L16,16.75 L8,16.75 C7.58578644,16.75 7.25,16.4142136 7.25,16 L7.25,16 L7.25,8 C7.25,7.58578644 7.58578644,7.25 8,7.25 L8,7.25 Z M15.25,8.75 L8.75,8.75 L8.75,15.25 L15.25,15.25 L15.25,8.75 Z M20,11.25 C20.3796958,11.25 20.693491,11.5321539 20.7431534,11.8982294 L20.75,12.01 C20.75,12.4242136 20.4142136,12.76 20,12.76 C19.6203042,12.76 19.306509,12.4778461 19.2568466,12.1117706 L19.25,12 C19.25,11.5857864 19.5857864,11.25 20,11.25 Z M4,11.25 C4.37969577,11.25 4.69349096,11.5321539 4.74315338,11.8982294 L4.75,12.01 C4.75,12.4242136 4.41421356,12.76 4,12.76 C3.62030423,12.76 3.30650904,12.4778461 3.25684662,12.1117706 L3.25,12 C3.25,11.5857864 3.58578644,11.25 4,11.25 Z M20,7.25 C20.3796958,7.25 20.693491,7.53215388 20.7431534,7.89822944 L20.75,8.01 C20.75,8.42421356 20.4142136,8.76 20,8.76 C19.6203042,8.76 19.306509,8.47784612 19.2568466,8.11177056 L19.25,8 C19.25,7.58578644 19.5857864,7.25 20,7.25 Z M4,7.25 C4.37969577,7.25 4.69349096,7.53215388 4.74315338,7.89822944 L4.75,8.01 C4.75,8.42421356 4.41421356,8.76 4,8.76 C3.62030423,8.76 3.30650904,8.47784612 3.25684662,8.11177056 L3.25,8 C3.25,7.58578644 3.58578644,7.25 4,7.25 Z M4,3.25 C4.37969577,3.25 4.69349096,3.53215388 4.74315338,3.89822944 L4.75,4.01 C4.75,4.42421356 4.41421356,4.76 4,4.76 C3.62030423,4.76 3.30650904,4.47784612 3.25684662,4.11177056 L3.25,4 C3.25,3.58578644 3.58578644,3.25 4,3.25 Z M8,3.25 C8.37969577,3.25 8.69349096,3.53215388 8.74315338,3.89822944 L8.75,4.01 C8.75,4.42421356 8.41421356,4.76 8,4.76 C7.62030423,4.76 7.30650904,4.47784612 7.25684662,4.11177056 L7.25,4 C7.25,3.58578644 7.58578644,3.25 8,3.25 Z M12,3.25 C12.3796958,3.25 12.693491,3.53215388 12.7431534,3.89822944 L12.75,4.01 C12.75,4.42421356 12.4142136,4.76 12,4.76 C11.6203042,4.76 11.306509,4.47784612 11.2568466,4.11177056 L11.25,4 C11.25,3.58578644 11.5857864,3.25 12,3.25 Z M16,3.25 C16.3796958,3.25 16.693491,3.53215388 16.7431534,3.89822944 L16.75,4.01 C16.75,4.42421356 16.4142136,4.76 16,4.76 C15.6203042,4.76 15.306509,4.47784612 15.2568466,4.11177056 L15.25,4 C15.25,3.58578644 15.5857864,3.25 16,3.25 Z M20,3.25 C20.3796958,3.25 20.693491,3.53215388 20.7431534,3.89822944 L20.75,4.01 C20.75,4.42421356 20.4142136,4.76 20,4.76 C19.6203042,4.76 19.306509,4.47784612 19.2568466,4.11177056 L19.25,4 C19.25,3.58578644 19.5857864,3.25 20,3.25 Z" id="Icon-Color" fill="#212121"></path>
    </g>
</svg>