<?xml version="1.0" encoding="UTF-8"?>
<svg width="24px" height="24px" viewBox="0 0 24 24" version="1.1" xmlns="http://www.w3.org/2000/svg" xmlns:xlink="http://www.w3.org/1999/xlink">
    <title>Icon/braces</title>
    <g id="Icon/braces" stroke="none" stroke-width="1" fill="none" fill-rule="evenodd">
        <path d="M7,3.25 C7.41421356,3.25 7.75,3.58578644 7.75,4 C7.75,4.37969577 7.46784612,4.69349096 7.10177056,4.74315338 L7,4.75 C6.35279131,4.75 5.8204661,5.24187466 5.75645361,5.87219476 L5.75,6 L5.75,9 C5.75,10.1853865 5.35415817,11.269654 4.70464115,11.9640113 L4.669,12 L4.70464115,12.0359887 C5.31595129,12.6895015 5.7025526,13.6884018 5.74591985,14.7919226 L5.75,15 L5.75,18 C5.75,18.6472087 6.24187466,19.1795339 6.87219476,19.2435464 L7,19.25 C7.41421356,19.25 7.75,19.5857864 7.75,20 C7.75,20.4142136 7.41421356,20.75 7,20.75 C5.53746816,20.75 4.34159572,19.6082954 4.25501879,18.1675223 L4.25,18 L4.25,15 C4.25,13.7730003 3.6733498,12.846675 3.09178372,12.75711 L2.88020833,12.7424045 C2.03993056,12.6325955 2.03993056,11.3674045 2.88020833,11.2575955 L3,11.25 L3.09178372,11.24289 C3.64104057,11.1583008 4.18591258,10.3273421 4.24475868,9.201624 L4.25,9 L4.25,6 C4.25,4.48121694 5.48121694,3.25 7,3.25 Z M17,3.25 C18.4625318,3.25 19.6584043,4.3917046 19.7449812,5.83247767 L19.75,6 L19.75,9 C19.75,10.2915786 20.3889476,11.25 21,11.25 C21.9583333,11.25 21.9982639,12.6276042 21.1197917,12.7424045 L21,12.75 C20.4195002,12.75 19.813825,13.6149753 19.7547088,14.80884 L19.75,15 L19.75,18 C19.75,19.5187831 18.5187831,20.75 17,20.75 C16.5857864,20.75 16.25,20.4142136 16.25,20 C16.25,19.6203042 16.5321539,19.306509 16.8982294,19.2568466 L17,19.25 C17.6472087,19.25 18.1795339,18.7581253 18.2435464,18.1278052 L18.25,18 L18.25,15 C18.25,13.8146135 18.6458418,12.730346 19.2953589,12.0359887 L19.33,12 L19.2953589,11.9640113 C18.6840487,11.3104985 18.2974474,10.3115982 18.2540801,9.20807739 L18.25,9 L18.25,6 C18.25,5.35279131 17.7581253,4.8204661 17.1278052,4.75645361 L17,4.75 C16.5857864,4.75 16.25,4.41421356 16.25,4 C16.25,3.58578644 16.5857864,3.25 17,3.25 Z" id="Icon-Color" fill="#212121"></path>
    </g>
</svg>