<?xml version="1.0" encoding="UTF-8"?>
<svg width="24px" height="24px" viewBox="0 0 24 24" version="1.1" xmlns="http://www.w3.org/2000/svg" xmlns:xlink="http://www.w3.org/1999/xlink">
    <title>Icon/brackets</title>
    <g id="Icon/brackets" stroke="none" stroke-width="1" fill="none" fill-rule="evenodd">
        <path d="M8,3.25 C8.41421356,3.25 8.75,3.58578644 8.75,4 C8.75,4.37969577 8.46784612,4.69349096 8.10177056,4.74315338 L8,4.75 L5.75,4.75 L5.75,19.25 L8,19.25 C8.37969577,19.25 8.69349096,19.5321539 8.74315338,19.8982294 L8.75,20 C8.75,20.3796958 8.46784612,20.693491 8.10177056,20.7431534 L8,20.75 L5,20.75 C4.62030423,20.75 4.30650904,20.4678461 4.25684662,20.1017706 L4.25,20 L4.25,4 C4.25,3.62030423 4.53215388,3.30650904 4.89822944,3.25684662 L5,3.25 L8,3.25 Z M19,3.25 C19.3796958,3.25 19.693491,3.53215388 19.7431534,3.89822944 L19.75,4 L19.75,20 C19.75,20.3796958 19.4678461,20.693491 19.1017706,20.7431534 L19,20.75 L16,20.75 C15.5857864,20.75 15.25,20.4142136 15.25,20 C15.25,19.6203042 15.5321539,19.306509 15.8982294,19.2568466 L16,19.25 L18.25,19.25 L18.25,4.75 L16,4.75 C15.6203042,4.75 15.306509,4.46784612 15.2568466,4.10177056 L15.25,4 C15.25,3.62030423 15.5321539,3.30650904 15.8982294,3.25684662 L16,3.25 L19,3.25 Z" id="Icon-Color" fill="#212121"></path>
    </g>
</svg>