<?xml version="1.0" encoding="UTF-8"?>
<svg width="24px" height="24px" viewBox="0 0 24 24" version="1.1" xmlns="http://www.w3.org/2000/svg" xmlns:xlink="http://www.w3.org/1999/xlink">
    <title>Icon/brightness-2</title>
    <g id="Icon/brightness-2" stroke="none" stroke-width="1" fill="none" fill-rule="evenodd">
        <path d="M11.4696699,2.96966991 C11.7625631,2.6767767 12.2374369,2.6767767 12.5303301,2.96966991 L12.5303301,2.96966991 L14.811,5.25 L18,5.25 C18.3796958,5.25 18.693491,5.53215388 18.7431534,5.89822944 L18.7431534,5.89822944 L18.75,6 L18.75,9.189 L21.0303301,11.4696699 C21.2965966,11.7359365 21.3208027,12.1526002 21.1029482,12.4462117 L21.1029482,12.4462117 L21.0303301,12.5303301 L18.75,14.81 L18.75,18 C18.75,18.3796958 18.4678461,18.693491 18.1017706,18.7431534 L18.1017706,18.7431534 L18,18.75 L14.81,18.75 L12.5303301,21.0303301 C12.2640635,21.2965966 11.8473998,21.3208027 11.5537883,21.1029482 L11.5537883,21.1029482 L11.4696699,21.0303301 L9.189,18.75 L6,18.75 C5.62030423,18.75 5.30650904,18.4678461 5.25684662,18.1017706 L5.25684662,18.1017706 L5.25,18 L5.25,14.811 L2.96966991,12.5303301 C2.70340335,12.2640635 2.6791973,11.8473998 2.89705176,11.5537883 L2.89705176,11.5537883 L2.96966991,11.4696699 L5.25,9.188 L5.25,6 C5.25,5.62030423 5.53215388,5.30650904 5.89822944,5.25684662 L5.89822944,5.25684662 L6,5.25 L9.188,5.25 Z M12,4.561 L10.0303301,6.53033009 C9.8896778,6.67098237 9.69891237,6.75 9.5,6.75 L9.5,6.75 L6.75,6.75 L6.75,9.5 C6.75,9.65912989 6.69942872,9.81304575 6.60718623,9.94026087 L6.60718623,9.94026087 L6.53033009,10.0303301 L4.561,12 L6.53033009,13.9696699 C6.64285191,14.0821917 6.71592756,14.226786 6.74065695,14.3819659 L6.74065695,14.3819659 L6.75,14.5 L6.75,17.25 L9.5,17.25 C9.65912989,17.25 9.81304575,17.3005713 9.94026087,17.3928138 L9.94026087,17.3928138 L10.0303301,17.4696699 L12,19.439 L13.9696699,17.4696699 C14.0821917,17.3571481 14.226786,17.2840724 14.3819659,17.2593431 L14.3819659,17.2593431 L14.5,17.25 L17.25,17.25 L17.25,14.5 C17.25,14.3408701 17.3005713,14.1869542 17.3928138,14.0597391 L17.3928138,14.0597391 L17.4696699,13.9696699 L19.439,12 L17.4696699,10.0303301 C17.3571481,9.91780826 17.2840724,9.77321402 17.2593431,9.61803406 L17.2593431,9.61803406 L17.25,9.5 L17.25,6.75 L14.5,6.75 C14.3408701,6.75 14.1869542,6.69942872 14.0597391,6.60718623 L14.0597391,6.60718623 L13.9696699,6.53033009 L12,4.561 Z M12,8.25 C14.0710678,8.25 15.75,9.92893219 15.75,12 C15.75,14.0710678 14.0710678,15.75 12,15.75 C9.92893219,15.75 8.25,14.0710678 8.25,12 C8.25,9.92893219 9.92893219,8.25 12,8.25 Z M12,9.75 C10.7573593,9.75 9.75,10.7573593 9.75,12 C9.75,13.2426407 10.7573593,14.25 12,14.25 C13.2426407,14.25 14.25,13.2426407 14.25,12 C14.25,10.7573593 13.2426407,9.75 12,9.75 Z" id="Icon-Color" fill="#212121"></path>
    </g>
</svg>