<?xml version="1.0" encoding="UTF-8"?>
<svg width="24px" height="24px" viewBox="0 0 24 24" version="1.1" xmlns="http://www.w3.org/2000/svg" xmlns:xlink="http://www.w3.org/1999/xlink">
    <title>Icon/browser</title>
    <g id="Icon/browser" stroke="none" stroke-width="1" fill="none" fill-rule="evenodd">
        <path d="M19,3.25 C19.9664983,3.25 20.75,4.03350169 20.75,5 L20.75,5 L20.75,19 C20.75,19.9664983 19.9664983,20.75 19,20.75 L19,20.75 L5,20.75 C4.03350169,20.75 3.25,19.9664983 3.25,19 L3.25,19 L3.25,5 C3.25,4.03350169 4.03350169,3.25 5,3.25 L5,3.25 Z M19.25,8.75 L4.75,8.75 L4.75,19 C4.75,19.1183467 4.83223341,19.2174868 4.94267729,19.2433973 L5,19.25 L19,19.25 C19.1380712,19.25 19.25,19.1380712 19.25,19 L19.25,19 L19.25,8.75 Z M7.25,4.75 L5,4.75 C4.86192881,4.75 4.75,4.86192881 4.75,5 L4.75,5 L4.75,7.25 L7.25,7.25 L7.25,4.75 Z M19,4.75 L8.75,4.75 L8.75,7.25 L19.25,7.25 L19.25,5 C19.25,4.88165327 19.1677666,4.78251318 19.0573227,4.75660268 L19,4.75 Z" id="Icon-Color" fill="#212121"></path>
    </g>
</svg>