<?xml version="1.0" encoding="UTF-8"?>
<svg width="24px" height="24px" viewBox="0 0 24 24" version="1.1" xmlns="http://www.w3.org/2000/svg" xmlns:xlink="http://www.w3.org/1999/xlink">
    <title>Icon/brush</title>
    <g id="Icon/brush" stroke="none" stroke-width="1" fill="none" fill-rule="evenodd">
        <path d="M21.2872843,2.30707182 C21.2910354,2.30856382 21.2932955,2.30951786 21.2955494,2.31048245 L21.3736128,2.34964025 C21.3746542,2.35023947 21.3756941,2.35084115 21.3767324,2.35144528 C21.3923787,2.36036214 21.4072947,2.36977089 21.4218265,2.37966894 C21.4341519,2.38823922 21.4466122,2.39727837 21.4587852,2.40669028 C21.4708803,2.41590666 21.4824623,2.42545639 21.4937354,2.43533183 C21.504554,2.44486684 21.5154995,2.4550033 21.5261417,2.46546353 L21.5345365,2.47385828 C21.5449967,2.48450052 21.5551332,2.49544599 21.564933,2.50667773 C21.5745436,2.51753772 21.5840933,2.52911968 21.5933003,2.54099754 C21.6027216,2.55338785 21.6117608,2.56584811 21.620413,2.57857695 C21.6485253,2.61956697 21.6727495,2.66407738 21.6923796,2.71123085 C21.7422441,2.83084792 21.7618467,2.96444464 21.743081,3.10163974 C20.9409871,8.96569189 17.1081687,13.9533707 11.6896086,16.2513643 C11.7298711,16.4942564 11.75,16.7447775 11.75,17 C11.75,19.5504817 9.73985871,21.6314697 7.217428,21.7451121 L7,21.75 L3,21.75 C2.62030423,21.75 2.30650904,21.4678461 2.25684662,21.1017706 L2.25,20.994 L2.25,17 C2.25,14.4495183 4.26014129,12.3685303 6.782572,12.2548879 L7,12.25 C7.2552225,12.25 7.50574364,12.2701289 7.7500625,12.3088858 C10.0450571,6.89553837 15.0274848,3.06425799 20.886326,2.25856949 C20.9234297,2.2527882 20.961398,2.24986743 20.9998802,2.24990964 L20.8983603,2.25691901 C21.0351577,2.23820765 21.1683776,2.25764263 21.2872843,2.30707182 Z M7,13.75 C5.26696854,13.75 3.85075407,15.1064548 3.75514479,16.8155761 L3.75,17 L3.75,20.25 L7,20.25 C8.73303146,20.25 10.1492459,18.8935452 10.2448552,17.1844239 L10.25,17 C10.25,16.7045642 10.2105798,16.4183355 10.1367124,16.1462868 C10.1213746,16.1207846 10.1090965,16.0933871 10.0983603,16.064956 C10.0770825,16.0086096 10.0630325,15.9513064 10.0557495,15.8940661 C9.72890257,14.9874457 9.00908196,14.2684827 8.10199258,13.9415908 C8.04554636,13.9361902 7.98984268,13.922333 7.93504401,13.9016397 L7.85371325,13.8632876 C7.58166453,13.7894202 7.2954358,13.75 7,13.75 Z M10.7957753,9.93816303 L10.6642867,10.1217274 C10.0874025,10.9478822 9.58860018,11.8369298 9.17955845,12.7795636 C10.053635,13.2306443 10.7693557,13.946365 11.2215608,14.8204754 C12.2328404,14.3811241 13.1834321,13.8382668 14.0606817,13.2063385 C13.3065821,11.8270355 12.1731819,10.6935983 10.7957753,9.93816303 Z M20.0823655,3.91698145 C16.810311,4.59537284 13.899982,6.31237001 11.743289,8.75097208 C13.1943251,9.59795888 14.4020411,10.8056749 15.2488258,12.2563912 C17.6901082,10.0978263 19.4081161,7.18377313 20.0823655,3.91698145 Z" id="Icon-Color" fill="#212121"></path>
    </g>
</svg>