<?xml version="1.0" encoding="UTF-8"?>
<svg width="24px" height="24px" viewBox="0 0 24 24" version="1.1" xmlns="http://www.w3.org/2000/svg" xmlns:xlink="http://www.w3.org/1999/xlink">
    <title>Icon/building-bridge</title>
    <g id="Icon/building-bridge" stroke="none" stroke-width="1" fill="none" fill-rule="evenodd">
        <path d="M18,4.25 C18.3796958,4.25 18.693491,4.53215388 18.7431534,4.89822944 L18.75,5 L18.75,5.699 L18.7814164,5.73160905 C19.4804883,6.42599061 20.3241476,6.95988846 21.2538278,7.29425824 C21.6435982,7.43444349 21.845927,7.86405743 21.7057418,8.25382784 C21.5655565,8.64359825 21.1359426,8.845927 20.7461722,8.70574176 C20.0335346,8.44943378 19.3622517,8.09720254 18.749982,7.66082036 L18.75,14.25 L22,14.25 C22.4142136,14.25 22.75,14.5857864 22.75,15 C22.75,15.3796958 22.4678461,15.693491 22.1017706,15.7431534 L22,15.75 L18.75,15.75 L18.75,19 C18.75,19.4142136 18.4142136,19.75 18,19.75 C17.6203042,19.75 17.306509,19.4678461 17.2568466,19.1017706 L17.25,19 L17.25,15.75 L6.75,15.75 L6.75,19 C6.75,19.4142136 6.41421356,19.75 6,19.75 C5.62030423,19.75 5.30650904,19.4678461 5.25684662,19.1017706 L5.25,19 L5.25,15.75 L2,15.75 C1.58578644,15.75 1.25,15.4142136 1.25,15 C1.25,14.6203042 1.53215388,14.306509 1.89822944,14.2568466 L2,14.25 L5.25,14.25 L5.25049294,7.66048185 C4.72848374,8.03258838 4.1635707,8.34352228 3.56669905,8.58598672 L3.25382784,8.70574176 C2.86405743,8.845927 2.43444349,8.64359825 2.29425824,8.25382784 C2.154073,7.86405743 2.35640175,7.43444349 2.74617216,7.29425824 C3.69023561,6.95471537 4.54559589,6.40942281 5.25092595,5.69926527 L5.25,5 C5.25,4.58578644 5.58578644,4.25 6,4.25 C6.37969577,4.25 6.69349096,4.53215388 6.74315338,4.89822944 L6.75,5 L6.75,5.843 L6.78890992,5.93050793 C7.72976543,7.94885678 9.75876424,9.25 12,9.25 C14.2737651,9.25 16.3290877,7.91081304 17.2513665,5.84217337 L17.25,5 C17.25,4.58578644 17.5857864,4.25 18,4.25 Z M6.75033694,8.50071472 L6.75,14.25 L11.25,14.25 L11.2503159,10.7112956 C9.51640805,10.5315614 7.92605752,9.73446269 6.75033694,8.50071472 Z M12.7506837,10.7111919 L12.75,14.25 L17.25,14.25 L17.2515424,8.49874186 C16.0758634,9.73337575 14.4851272,10.5311591 12.7506837,10.7111919 Z" id="Icon-Color" fill="#212121"></path>
    </g>
</svg>