<?xml version="1.0" encoding="UTF-8"?>
<svg width="24px" height="24px" viewBox="0 0 24 24" version="1.1" xmlns="http://www.w3.org/2000/svg" xmlns:xlink="http://www.w3.org/1999/xlink">
    <title>Icon/building-bank</title>
    <g id="Icon/building-bank" stroke="none" stroke-width="1" fill="none" fill-rule="evenodd">
        <path d="M21,9.25 C21.4142136,9.25 21.75,9.58578644 21.75,10 C21.75,10.3796958 21.4678461,10.693491 21.1017706,10.7431534 L21,10.75 L20.75,10.75 L20.75,20.25 L21,20.25 C21.4142136,20.25 21.75,20.5857864 21.75,21 C21.75,21.3796958 21.4678461,21.693491 21.1017706,21.7431534 L21,21.75 L3,21.75 C2.58578644,21.75 2.25,21.4142136 2.25,21 C2.25,20.6203042 2.53215388,20.306509 2.89822944,20.2568466 L3,20.25 L3.25,20.25 L3.25,10.75 L3,10.75 C2.58578644,10.75 2.25,10.4142136 2.25,10 C2.25,9.62030423 2.53215388,9.30650904 2.89822944,9.25684662 L3,9.25 L21,9.25 Z M19.25,10.75 L4.75,10.75 L4.75,20.25 L19.25,20.25 L19.25,10.75 Z M8,13.25 C8.37969577,13.25 8.69349096,13.5321539 8.74315338,13.8982294 L8.75,14 L8.75,17 C8.75,17.4142136 8.41421356,17.75 8,17.75 C7.62030423,17.75 7.30650904,17.4678461 7.25684662,17.1017706 L7.25,17 L7.25,14 C7.25,13.5857864 7.58578644,13.25 8,13.25 Z M12,13.25 C12.3796958,13.25 12.693491,13.5321539 12.7431534,13.8982294 L12.75,14 L12.75,17 C12.75,17.4142136 12.4142136,17.75 12,17.75 C11.6203042,17.75 11.306509,17.4678461 11.2568466,17.1017706 L11.25,17 L11.25,14 C11.25,13.5857864 11.5857864,13.25 12,13.25 Z M16,13.25 C16.3796958,13.25 16.693491,13.5321539 16.7431534,13.8982294 L16.75,14 L16.75,17 C16.75,17.4142136 16.4142136,17.75 16,17.75 C15.6203042,17.75 15.306509,17.4678461 15.2568466,17.1017706 L15.25,17 L15.25,14 C15.25,13.5857864 15.5857864,13.25 16,13.25 Z M12.1796535,2.27183084 L12.2954395,2.31064123 L19.2954395,5.31064123 C19.6761618,5.47380794 19.8525255,5.91471714 19.6893588,6.29543947 C19.5397893,6.64443495 19.156839,6.82171238 18.8007994,6.72315513 L18.7045605,6.68935877 L12,3.816 L5.29543947,6.68935877 C4.946444,6.83892826 4.54687484,6.70319791 4.35702365,6.38628436 L4.31064123,6.29543947 C4.16107174,5.946444 4.29680209,5.54687484 4.61371564,5.35702365 L4.70456053,5.31064123 L11.7045605,2.31064123 C11.8554898,2.24595725 12.0223513,2.23302046 12.1796535,2.27183084 Z" id="Icon-Color" fill="#212121"></path>
    </g>
</svg>