<?xml version="1.0" encoding="UTF-8"?>
<svg width="24px" height="24px" viewBox="0 0 24 24" version="1.1" xmlns="http://www.w3.org/2000/svg" xmlns:xlink="http://www.w3.org/1999/xlink">
    <title>Icon/building-community</title>
    <g id="Icon/building-community" stroke="none" stroke-width="1" fill="none" fill-rule="evenodd">
        <path d="M20,2.25 C20.9181734,2.25 21.6711923,2.95711027 21.7441988,3.85647279 L21.75,4 L21.75,21 C21.75,21.3796958 21.4678461,21.693491 21.1017706,21.7431534 L21,21.75 L3,21.75 C2.62030423,21.75 2.30650904,21.4678461 2.25684662,21.1017706 L2.25,21 L2.25,14 C2.25,13.8408701 2.30057128,13.6869542 2.39281377,13.5597391 L2.46966991,13.4696699 L7.46966991,8.46966991 C7.6028032,8.33653663 7.77353576,8.26391848 7.94768643,8.25181545 L8.05231357,8.25181545 C8.11955987,8.2564889 8.18629652,8.27018533 8.25055555,8.29290476 L8.25,4 C8.25,3.0818266 8.95711027,2.32880766 9.85647279,2.2558012 L10,2.25 L20,2.25 Z M20,3.75 L10,3.75 C9.88165327,3.75 9.78251318,3.83223341 9.75660268,3.94267729 L9.75,4 L9.75,9.689 L13.5303301,13.4696699 C13.6428519,13.5821917 13.7159276,13.726786 13.7406569,13.8819659 L13.75,14 L13.75,20.25 L20.25,20.25 L20.25,4 C20.25,3.88165327 20.1677666,3.78251318 20.0573227,3.75660268 L20,3.75 Z M8,10.061 L3.75,14.31 L3.75,20.25 L7.25,20.25 L7.25,17 C7.25,16.5857864 7.58578644,16.25 8,16.25 C8.37969577,16.25 8.69349096,16.5321539 8.74315338,16.8982294 L8.75,17 L8.75,20.25 L12.25,20.25 L12.25,14.311 L8,10.061 Z M17,14.25 C17.3796958,14.25 17.693491,14.5321539 17.7431534,14.8982294 L17.75,15.01 C17.75,15.4242136 17.4142136,15.76 17,15.76 C16.6203042,15.76 16.306509,15.4778461 16.2568466,15.1117706 L16.25,15 C16.25,14.5857864 16.5857864,14.25 17,14.25 Z M17,10.25 C17.3796958,10.25 17.693491,10.5321539 17.7431534,10.8982294 L17.75,11.01 C17.75,11.4242136 17.4142136,11.76 17,11.76 C16.6203042,11.76 16.306509,11.4778461 16.2568466,11.1117706 L16.25,11 C16.25,10.5857864 16.5857864,10.25 17,10.25 Z M13,6.25 C13.3796958,6.25 13.693491,6.53215388 13.7431534,6.89822944 L13.75,7.01 C13.75,7.42421356 13.4142136,7.76 13,7.76 C12.6203042,7.76 12.306509,7.47784612 12.2568466,7.11177056 L12.25,7 C12.25,6.58578644 12.5857864,6.25 13,6.25 Z M17,6.25 C17.3796958,6.25 17.693491,6.53215388 17.7431534,6.89822944 L17.75,7.01 C17.75,7.42421356 17.4142136,7.76 17,7.76 C16.6203042,7.76 16.306509,7.47784612 16.2568466,7.11177056 L16.25,7 C16.25,6.58578644 16.5857864,6.25 17,6.25 Z" id="Icon-Color" fill="#212121"></path>
    </g>
</svg>