<?xml version="1.0" encoding="UTF-8"?>
<svg width="24px" height="24px" viewBox="0 0 24 24" version="1.1" xmlns="http://www.w3.org/2000/svg" xmlns:xlink="http://www.w3.org/1999/xlink">
    <title>Icon/building-church</title>
    <g id="Icon/building-church" stroke="none" stroke-width="1" fill="none" fill-rule="evenodd">
        <path d="M3,21.75 C2.58578644,21.75 2.25,21.4142136 2.25,21 C2.25,20.6203042 2.53215388,20.306509 2.89822944,20.2568466 L3,20.25 L5.25,20.25 L5.25,15.81 L4.53033009,16.5303301 C4.26406352,16.7965966 3.84739984,16.8208027 3.55378835,16.6029482 L3.46966991,16.5303301 C3.20340335,16.2640635 3.1791973,15.8473998 3.39705176,15.5537883 L3.46966991,15.4696699 L11.25,7.688 L11.25,5.75 L10,5.75 C9.58578644,5.75 9.25,5.41421356 9.25,5 C9.25,4.62030423 9.53215388,4.30650904 9.89822944,4.25684662 L10,4.25 L11.25,4.25 L11.25,3 C11.25,2.58578644 11.5857864,2.25 12,2.25 C12.3796958,2.25 12.693491,2.53215388 12.7431534,2.89822944 L12.75,3 L12.75,4.25 L14,4.25 C14.4142136,4.25 14.75,4.58578644 14.75,5 C14.75,5.37969577 14.4678461,5.69349096 14.1017706,5.74315338 L14,5.75 L12.75,5.75 L12.75,7.689 L20.5303301,15.4696699 C20.8232233,15.7625631 20.8232233,16.2374369 20.5303301,16.5303301 C20.2640635,16.7965966 19.8473998,16.8208027 19.5537883,16.6029482 L19.4696699,16.5303301 L18.75,15.811 L18.75,20.25 L21,20.25 C21.4142136,20.25 21.75,20.5857864 21.75,21 C21.75,21.3796958 21.4678461,21.693491 21.1017706,21.7431534 L21,21.75 L3,21.75 Z M17.25,14.311 L12,9.061 L6.75,14.31 L6.75,20.25 L9.25,20.25 L9.25,17 C9.25,15.4812169 10.4812169,14.25 12,14.25 C13.4625318,14.25 14.6584043,15.3917046 14.7449812,16.8324777 L14.75,17 L14.75,20.25 L17.25,20.25 L17.25,14.311 Z M12,15.75 C11.3527913,15.75 10.8204661,16.2418747 10.7564536,16.8721948 L10.75,17 L10.75,20.25 L13.25,20.25 L13.25,17 C13.25,16.3096441 12.6903559,15.75 12,15.75 Z" id="Icon-Color" fill="#212121"></path>
    </g>
</svg>