<?xml version="1.0" encoding="UTF-8"?>
<svg width="24px" height="24px" viewBox="0 0 24 24" version="1.1" xmlns="http://www.w3.org/2000/svg" xmlns:xlink="http://www.w3.org/1999/xlink">
    <title>Icon/building-factory</title>
    <g id="Icon/building-factory" stroke="none" stroke-width="1" fill="none" fill-rule="evenodd">
        <path d="M3,21.75 C2.58578644,21.75 2.25,21.4142136 2.25,21 C2.25,20.6203042 2.53215388,20.306509 2.89822944,20.2568466 L3,20.25 L3.431,20.2494716 L3.45960976,20.1507812 C4.63626555,15.8973533 5.23562361,12.3582429 5.25000687,8.99679087 C5.25162661,8.61824687 5.53347755,8.30618843 5.89852648,8.25680747 L6,8.25 L12,8.25 C12.4129609,8.25 12.7482261,8.58383378 12.7499931,8.99679087 C12.754532,10.057551 12.8173238,11.1360027 12.9381272,12.2490102 L17,12.25 C17.4114131,12.25 17.7460281,12.5814277 17.7499656,12.9928219 C17.7700682,15.0931383 18.343467,17.3295002 19.5061316,20.2502007 L22,20.25 C22.4142136,20.25 22.75,20.5857864 22.75,21 C22.75,21.3796958 22.4678461,21.693491 22.1017706,21.7431534 L22,21.75 L3,21.75 Z M11.263,9.75 L6.736,9.75 L6.72735969,10.0617659 C6.60821389,13.1737172 6.02488115,16.4436826 4.98825811,20.2486217 L13.0117277,20.2485695 C11.9751135,16.4436527 11.3917856,13.1737029 11.2726403,10.0617659 L11.263,9.75 Z M16.277,13.75 L13.1327098,13.7493523 C13.4340266,15.7570255 13.9127772,17.8934687 14.5676676,20.2491408 L17.8952246,20.2496757 C16.9955133,17.9069906 16.468455,15.9581238 16.3047946,14.1135559 L16.277,13.75 Z M18.9842928,3.2501645 C20.022102,3.22842489 21.0039989,3.71937334 21.6092928,4.5626645 C21.8508265,4.89916759 21.7738386,5.36775902 21.4373355,5.60929275 C21.1008324,5.85082648 20.632241,5.7738386 20.3907072,5.4373355 C20.0736486,4.99561156 19.5593216,4.73844809 18.9842928,4.7498355 C18.4406784,4.73844809 17.9263514,4.99561156 17.6092928,5.4373355 C17.0039989,6.28062666 16.022102,6.77157511 15.0157072,6.7498355 C13.977898,6.77157511 12.9960011,6.28062666 12.3907072,5.4373355 C12.0736486,4.99561156 11.5593216,4.73844809 10.9842928,4.7498355 C10.4406784,4.73844809 9.92635144,4.99561156 9.60929275,5.4373355 C9.36775902,5.7738386 8.89916759,5.85082648 8.5626645,5.60929275 C8.2261614,5.36775902 8.14917352,4.89916759 8.39070725,4.5626645 C8.99600111,3.71937334 9.977898,3.22842489 10.9842928,3.2501645 C12.022102,3.22842489 13.0039989,3.71937334 13.6092928,4.5626645 C13.9263514,5.00438844 14.4406784,5.26155191 15.0157072,5.2501645 C15.5593216,5.26155191 16.0736486,5.00438844 16.3907072,4.5626645 C16.9960011,3.71937334 17.977898,3.22842489 18.9842928,3.2501645 Z" id="Icon-Color" fill="#212121"></path>
    </g>
</svg>