<?xml version="1.0" encoding="UTF-8"?>
<svg width="24px" height="24px" viewBox="0 0 24 24" version="1.1" xmlns="http://www.w3.org/2000/svg" xmlns:xlink="http://www.w3.org/1999/xlink">
    <title>Icon/bulb</title>
    <g id="Icon/bulb" stroke="none" stroke-width="1" fill="none" fill-rule="evenodd">
        <path d="M12,6.25 C14.4749748,6.25 16.6722732,7.83372305 17.454929,10.1816903 C18.2114962,12.4513921 17.4820532,14.9429217 15.6440746,16.4478831 L15.504,16.558 L15.3899585,16.6796244 C15.2337874,16.8586109 15.1028646,17.0554698 14.9990249,17.2646975 C14.9864878,17.3054073 14.9684734,17.3429113 14.947603,17.3785394 L14.8861246,17.5251216 C14.7485413,17.8934711 14.6901447,18.2906625 14.7197415,18.6902756 L14.7419134,18.8901616 L14.75,19 C14.75,20.5187831 13.5187831,21.75 12,21.75 C10.5374682,21.75 9.34159572,20.6082954 9.25501879,19.1675223 L9.25,19 L9.25808658,18.8901616 C9.32712122,18.4238608 9.27438925,17.9548627 9.11387542,17.5251216 L9.05239699,17.3785394 C9.03152658,17.3429113 9.01351222,17.3054073 8.99866816,17.2663415 C8.89713539,17.0554698 8.76621263,16.8586109 8.61004147,16.6796244 L8.495,16.558 L8.35592541,16.4478831 C6.58132533,14.9948169 5.84012832,12.6220486 6.47209085,10.4172288 L6.54507104,10.1816903 C7.3277268,7.83372305 9.52502515,6.25 12,6.25 Z M13.2766133,17.7504794 L10.7233867,17.7504794 C10.7880853,18.1177992 10.8047212,18.4952958 10.7701697,18.8735953 L10.751,19.026 L10.7564536,19.1278052 C10.8161986,19.716104 11.283896,20.1838014 11.8721948,20.2435464 L12,20.25 C12.6472087,20.25 13.1795339,19.7581253 13.2435464,19.1278052 L13.248,19.03 L13.2298303,18.8735953 C13.1952788,18.4952958 13.2119147,18.1177992 13.2766133,17.7504794 Z M12,7.75 C10.1706708,7.75 8.54658068,8.9205779 7.96809598,10.656032 C7.41275067,12.3220679 7.94066324,14.1498099 9.27856354,15.2644476 L9.44314127,15.3947916 L9.52762771,15.4669812 C9.76800698,15.7049293 9.97647312,15.9679354 10.1508631,16.2495104 L13.8491369,16.2495104 C13.9824939,16.0341883 14.1357779,15.8297249 14.3080214,15.6390219 L14.4723723,15.4669812 L14.55,15.4 C16.0134634,14.3024025 16.6103887,12.3914861 16.031904,10.656032 C15.4534193,8.9205779 13.8293292,7.75 12,7.75 Z M4,11.25 C4.41421356,11.25 4.75,11.5857864 4.75,12 C4.75,12.3796958 4.46784612,12.693491 4.10177056,12.7431534 L4,12.75 L3,12.75 C2.58578644,12.75 2.25,12.4142136 2.25,12 C2.25,11.6203042 2.53215388,11.306509 2.89822944,11.2568466 L3,11.25 L4,11.25 Z M21,11.25 C21.4142136,11.25 21.75,11.5857864 21.75,12 C21.75,12.3796958 21.4678461,12.693491 21.1017706,12.7431534 L21,12.75 L20,12.75 C19.5857864,12.75 19.25,12.4142136 19.25,12 C19.25,11.6203042 19.5321539,11.306509 19.8982294,11.2568466 L20,11.25 L21,11.25 Z M5.94415877,4.93339881 L6.04621165,4.99705176 L6.13033009,5.06966991 L6.83033009,5.76966991 C7.1232233,6.06256313 7.1232233,6.53743687 6.83033009,6.83033009 C6.56406352,7.09659665 6.14739984,7.1208027 5.85378835,6.90294824 L5.76966991,6.83033009 L5.06966991,6.13033009 C4.7767767,5.83743687 4.7767767,5.36256313 5.06966991,5.06966991 C5.3063513,4.83298853 5.66186498,4.78756482 5.94415877,4.93339881 Z M18.9303301,5.06966991 C19.1965966,5.33593648 19.2208027,5.75260016 19.0029482,6.04621165 L18.9303301,6.13033009 L18.2303301,6.83033009 C17.9374369,7.1232233 17.4625631,7.1232233 17.1696699,6.83033009 C16.9034034,6.56406352 16.8791973,6.14739984 17.0970518,5.85378835 L17.1696699,5.76966991 L17.8696699,5.06966991 C18.1625631,4.7767767 18.6374369,4.7767767 18.9303301,5.06966991 Z M12,2.25 C12.3796958,2.25 12.693491,2.53215388 12.7431534,2.89822944 L12.75,3 L12.75,4 C12.75,4.41421356 12.4142136,4.75 12,4.75 C11.6203042,4.75 11.306509,4.46784612 11.2568466,4.10177056 L11.25,4 L11.25,3 C11.25,2.58578644 11.5857864,2.25 12,2.25 Z" id="Icon-Color" fill="#212121"></path>
    </g>
</svg>