<?xml version="1.0" encoding="UTF-8"?>
<svg width="24px" height="24px" viewBox="0 0 24 24" version="1.1" xmlns="http://www.w3.org/2000/svg" xmlns:xlink="http://www.w3.org/1999/xlink">
    <title>Icon/bus</title>
    <g id="Icon/bus" stroke="none" stroke-width="1" fill="none" fill-rule="evenodd">
        <path d="M17,4.25 C20.1728205,4.25 22.6451132,7.6186691 22.7467483,11.7361879 L22.75,12 L22.75,17 C22.75,17.3796958 22.4678461,17.693491 22.1017706,17.7431534 L22,17.75 L20.646327,17.7505538 C20.3196798,18.9045229 19.2585758,19.75 18,19.75 C16.7414242,19.75 15.6803202,18.9045229 15.353673,17.7505538 L8.64632705,17.7505538 C8.31967982,18.9045229 7.25857578,19.75 6,19.75 C4.74142422,19.75 3.68032018,18.9045229 3.35367295,17.7505538 L2,17.75 C1.62030423,17.75 1.30650904,17.4678461 1.25684662,17.1017706 L1.25,17 L1.25,6 C1.25,5.0818266 1.95711027,4.32880766 2.85647279,4.2558012 L3,4.25 L17,4.25 Z M6,15.75 C5.30964406,15.75 4.75,16.3096441 4.75,17 C4.75,17.6903559 5.30964406,18.25 6,18.25 C6.69035594,18.25 7.25,17.6903559 7.25,17 C7.25,16.3096441 6.69035594,15.75 6,15.75 Z M18,15.75 C17.3096441,15.75 16.75,16.3096441 16.75,17 C16.75,17.6903559 17.3096441,18.25 18,18.25 C18.6903559,18.25 19.25,17.6903559 19.25,17 C19.25,16.3096441 18.6903559,15.75 18,15.75 Z M16.464,10.75 L2.75,10.75 L2.75,16.25 L3.35339057,16.2504445 C3.67970826,15.0959647 4.7410613,14.25 6,14.25 C7.2589387,14.25 8.32029174,15.0959647 8.64660943,16.2504445 L15.3533906,16.2504445 C15.6797083,15.0959647 16.7410613,14.25 18,14.25 C19.2589387,14.25 20.3202917,15.0959647 20.6466094,16.2504445 L21.25,16.25 L21.25,12.75 L17.5,12.75 C17.181712,12.75 16.902349,12.5498894 16.7956399,12.2577769 L16.7666482,12.1571468 L16.464,10.75 Z M17,5.75 L16.927,5.75 L18.106,11.25 L21.2194819,11.2506737 C20.9693982,8.20322506 19.2150628,5.8782728 17.1705725,5.75513318 L17,5.75 Z M6.25,5.75 L3,5.75 C2.88165327,5.75 2.78251318,5.83223341 2.75660268,5.94267729 L2.75,6 L2.75,9.25 L6.25,9.25 L6.25,5.75 Z M11.25,5.75 L7.75,5.75 L7.75,9.25 L11.25,9.25 L11.25,5.75 Z M15.393,5.75 L12.75,5.75 L12.75,9.25 L16.143,9.25 L15.393,5.75 Z" id="Icon-Color" fill="#212121"></path>
    </g>
</svg>