<?xml version="1.0" encoding="UTF-8"?>
<svg width="24px" height="24px" viewBox="0 0 24 24" version="1.1" xmlns="http://www.w3.org/2000/svg" xmlns:xlink="http://www.w3.org/1999/xlink">
    <title>Icon/businessplan</title>
    <g id="Icon/businessplan" stroke="none" stroke-width="1" fill="none" fill-rule="evenodd">
        <path d="M16,2.25 C19.121741,2.25 21.75,3.82695537 21.75,6 L21.75,6 L21.75,18 C21.75,20.1730722 19.1215449,21.75 16,21.75 C12.9628212,21.75 10.3924388,20.2571596 10.2557178,18.1748693 L10.25,18 L10.25,6 L10.2557174,5.82513282 C10.3924285,3.74286644 12.9626303,2.25 16,2.25 Z M16,17.75 C14.3348429,17.75 12.8099986,17.3012721 11.7496044,16.5526941 L11.75,18 C11.75,19.1406516 13.5990844,20.25 16,20.25 C18.3208851,20.25 20.1261146,19.2133755 20.2438844,18.1139209 L20.25,18 L20.2512093,16.5521196 C19.1907815,17.3010425 17.6655831,17.75 16,17.75 Z M5,7.25 C5.37969577,7.25 5.69349096,7.53215388 5.74315338,7.89822944 L5.75,8 L5.75,8.25 L7,8.25 C7.41421356,8.25 7.75,8.58578644 7.75,9 C7.75,9.37969577 7.46784612,9.69349096 7.10177056,9.74315338 L7,9.75 L4.5,9.75 C4.08578644,9.75 3.75,10.0857864 3.75,10.5 C3.75,10.8796958 4.03215388,11.193491 4.39822944,11.2431534 L4.5,11.25 L5.5,11.25 C6.74264069,11.25 7.75,12.2573593 7.75,13.5 C7.75,14.6579748 6.87523488,15.6116372 5.75047687,15.736215 L5.75,16 C5.75,16.4142136 5.41421356,16.75 5,16.75 C4.62030423,16.75 4.30650904,16.4678461 4.25684662,16.1017706 L4.25,16 L4.25,15.75 L3,15.75 C2.58578644,15.75 2.25,15.4142136 2.25,15 C2.25,14.6203042 2.53215388,14.306509 2.89822944,14.2568466 L3,14.25 L5.5,14.25 C5.91421356,14.25 6.25,13.9142136 6.25,13.5 C6.25,13.1203042 5.96784612,12.806509 5.60177056,12.7568466 L5.5,12.75 L4.5,12.75 C3.25735931,12.75 2.25,11.7426407 2.25,10.5 C2.25,9.34168264 3.12528281,8.38779853 4.2505215,8.26367461 L4.25,8 C4.25,7.58578644 4.58578644,7.25 5,7.25 Z M16,13.75 C14.3348429,13.75 12.8099986,13.3012721 11.7496044,12.5526941 L11.75,14 C11.75,15.1406516 13.5990844,16.25 16,16.25 C18.3208851,16.25 20.1261146,15.2133755 20.2438844,14.1139209 L20.25,14 L20.2512093,12.5521196 C19.1907815,13.3010425 17.6655831,13.75 16,13.75 Z M20.2512776,8.55210861 C19.1908792,9.30103465 17.6656877,9.75 16,9.75 C14.3348299,9.75 12.8100687,9.30131364 11.7497111,8.55280672 L11.75,10 C11.75,11.1406516 13.5990844,12.25 16,12.25 C18.3208851,12.25 20.1261146,11.2133755 20.2438844,10.1139209 L20.25,10 Z M16,3.75 C13.5988935,3.75 11.75,4.85933613 11.75,6 C11.75,7.14066387 13.5988935,8.25 16,8.25 C18.4011065,8.25 20.25,7.14066387 20.25,6 C20.25,4.85933613 18.4011065,3.75 16,3.75 Z" id="Icon-Color" fill="#212121"></path>
    </g>
</svg>