<?xml version="1.0" encoding="UTF-8"?>
<svg width="24px" height="24px" viewBox="0 0 24 24" version="1.1" xmlns="http://www.w3.org/2000/svg" xmlns:xlink="http://www.w3.org/1999/xlink">
    <title>Icon/calculator</title>
    <g id="Icon/calculator" stroke="none" stroke-width="1" fill="none" fill-rule="evenodd">
        <path d="M18,2.25 C19.5187831,2.25 20.75,3.48121694 20.75,5 L20.75,5 L20.75,19 C20.75,20.5187831 19.5187831,21.75 18,21.75 L18,21.75 L6,21.75 C4.48121694,21.75 3.25,20.5187831 3.25,19 L3.25,19 L3.25,5 C3.25,3.48121694 4.48121694,2.25 6,2.25 L6,2.25 Z M18,3.75 L6,3.75 C5.30964406,3.75 4.75,4.30964406 4.75,5 L4.75,5 L4.75,19 C4.75,19.6903559 5.30964406,20.25 6,20.25 L6,20.25 L18,20.25 C18.6903559,20.25 19.25,19.6903559 19.25,19 L19.25,19 L19.25,5 C19.25,4.30964406 18.6903559,3.75 18,3.75 L18,3.75 Z M8,16.25 C8.37969577,16.25 8.69349096,16.5321539 8.74315338,16.8982294 L8.75,17.01 C8.75,17.4242136 8.41421356,17.76 8,17.76 C7.62030423,17.76 7.30650904,17.4778461 7.25684662,17.1117706 L7.25,17 C7.25,16.5857864 7.58578644,16.25 8,16.25 Z M12,16.25 C12.3796958,16.25 12.693491,16.5321539 12.7431534,16.8982294 L12.75,17.01 C12.75,17.4242136 12.4142136,17.76 12,17.76 C11.6203042,17.76 11.306509,17.4778461 11.2568466,17.1117706 L11.25,17 C11.25,16.5857864 11.5857864,16.25 12,16.25 Z M16,16.25 C16.3796958,16.25 16.693491,16.5321539 16.7431534,16.8982294 L16.75,17.01 C16.75,17.4242136 16.4142136,17.76 16,17.76 C15.6203042,17.76 15.306509,17.4778461 15.2568466,17.1117706 L15.25,17 C15.25,16.5857864 15.5857864,16.25 16,16.25 Z M8,13.25 C8.37969577,13.25 8.69349096,13.5321539 8.74315338,13.8982294 L8.75,14.01 C8.75,14.4242136 8.41421356,14.76 8,14.76 C7.62030423,14.76 7.30650904,14.4778461 7.25684662,14.1117706 L7.25,14 C7.25,13.5857864 7.58578644,13.25 8,13.25 Z M12,13.25 C12.3796958,13.25 12.693491,13.5321539 12.7431534,13.8982294 L12.75,14.01 C12.75,14.4242136 12.4142136,14.76 12,14.76 C11.6203042,14.76 11.306509,14.4778461 11.2568466,14.1117706 L11.25,14 C11.25,13.5857864 11.5857864,13.25 12,13.25 Z M16,13.25 C16.3796958,13.25 16.693491,13.5321539 16.7431534,13.8982294 L16.75,14.01 C16.75,14.4242136 16.4142136,14.76 16,14.76 C15.6203042,14.76 15.306509,14.4778461 15.2568466,14.1117706 L15.25,14 C15.25,13.5857864 15.5857864,13.25 16,13.25 Z M15,6.25 C15.9664983,6.25 16.75,7.03350169 16.75,8 L16.75,8 L16.75,9 C16.75,9.96649831 15.9664983,10.75 15,10.75 L15,10.75 L9,10.75 C8.03350169,10.75 7.25,9.96649831 7.25,9 L7.25,9 L7.25,8 C7.25,7.03350169 8.03350169,6.25 9,6.25 L9,6.25 Z M15,7.75 L9,7.75 C8.86192881,7.75 8.75,7.86192881 8.75,8 L8.75,8 L8.75,9 C8.75,9.13807119 8.86192881,9.25 9,9.25 L9,9.25 L15,9.25 C15.1380712,9.25 15.25,9.13807119 15.25,9 L15.25,9 L15.25,8 C15.25,7.86192881 15.1380712,7.75 15,7.75 L15,7.75 Z" id="Icon-Color" fill="#212121"></path>
    </g>
</svg>