<?xml version="1.0" encoding="UTF-8"?>
<svg width="24px" height="24px" viewBox="0 0 24 24" version="1.1" xmlns="http://www.w3.org/2000/svg" xmlns:xlink="http://www.w3.org/1999/xlink">
    <title>Icon/car</title>
    <g id="Icon/car" stroke="none" stroke-width="1" fill="none" fill-rule="evenodd">
        <path d="M14,5.25 C14.1898648,5.25 14.3711511,5.32192173 14.5086722,5.44885364 L14.5856516,5.53147871 L18.36,10.25 L19,10.25 C20.4625318,10.25 21.6584043,11.3917046 21.7449812,12.8324777 L21.75,13 L21.75,17 C21.75,17.3796958 21.4678461,17.693491 21.1017706,17.7431534 L21,17.75 L19.646327,17.7505538 C19.3196798,18.9045229 18.2585758,19.75 17,19.75 C15.7414242,19.75 14.6803202,18.9045229 14.353673,17.7505538 L9.64632705,17.7505538 C9.31967982,18.9045229 8.25857578,19.75 7,19.75 C5.74142422,19.75 4.68032018,18.9045229 4.35367295,17.7505538 L3,17.75 C2.62030423,17.75 2.30650904,17.4678461 2.25684662,17.1017706 L2.25,17 L2.25,11 C2.25,10.9454055 2.25583327,10.8921735 2.26691053,10.8408931 L2.29075959,10.7557484 L4.30364248,5.72145699 C4.40488472,5.46835141 4.63403534,5.29270208 4.89909786,5.25679365 L5,5.25 L14,5.25 Z M7,15.75 C6.30964406,15.75 5.75,16.3096441 5.75,17 C5.75,17.6903559 6.30964406,18.25 7,18.25 C7.69035594,18.25 8.25,17.6903559 8.25,17 C8.25,16.3096441 7.69035594,15.75 7,15.75 Z M17,15.75 C16.3096441,15.75 15.75,16.3096441 15.75,17 C15.75,17.6903559 16.3096441,18.25 17,18.25 C17.6903559,18.25 18.25,17.6903559 18.25,17 C18.25,16.3096441 17.6903559,15.75 17,15.75 Z M19,11.75 L3.75,11.75 L3.75,16.25 L4.35339057,16.2504445 C4.67970826,15.0959647 5.7410613,14.25 7,14.25 C8.2589387,14.25 9.32029174,15.0959647 9.64660943,16.2504445 L14.3533906,16.2504445 C14.6797083,15.0959647 15.7410613,14.25 17,14.25 C18.2589387,14.25 19.3202917,15.0959647 19.6466094,16.2504445 L20.25,16.25 L20.25,13 C20.25,12.3527913 19.7581253,11.8204661 19.1278052,11.7564536 L19,11.75 Z M11.25,6.75 L5.507,6.75 L4.107,10.25 L11.25,10.25 L11.25,6.75 Z M13.64,6.75 L12.75,6.75 L12.75,10.25 L16.44,10.25 L13.64,6.75 Z" id="Icon-Color" fill="#212121"></path>
    </g>
</svg>