<?xml version="1.0" encoding="UTF-8"?>
<svg width="24px" height="24px" viewBox="0 0 24 24" version="1.1" xmlns="http://www.w3.org/2000/svg" xmlns:xlink="http://www.w3.org/1999/xlink">
    <title>Icon/cash-banknote</title>
    <g id="Icon/cash-banknote" stroke="none" stroke-width="1" fill="none" fill-rule="evenodd">
        <path d="M19,5.25 C20.5187831,5.25 21.75,6.48121694 21.75,8 L21.75,8 L21.75,16 C21.75,17.5187831 20.5187831,18.75 19,18.75 L19,18.75 L5,18.75 C3.48121694,18.75 2.25,17.5187831 2.25,16 L2.25,16 L2.25,8 C2.25,6.48121694 3.48121694,5.25 5,5.25 L5,5.25 Z M19,6.75 L5,6.75 C4.30964406,6.75 3.75,7.30964406 3.75,8 L3.75,8 L3.75,16 C3.75,16.6903559 4.30964406,17.25 5,17.25 L5,17.25 L19,17.25 C19.6903559,17.25 20.25,16.6903559 20.25,16 L20.25,16 L20.25,8 C20.25,7.30964406 19.6903559,6.75 19,6.75 L19,6.75 Z M12,8.25 C14.0710678,8.25 15.75,9.92893219 15.75,12 C15.75,14.0710678 14.0710678,15.75 12,15.75 C9.92893219,15.75 8.25,14.0710678 8.25,12 C8.25,9.92893219 9.92893219,8.25 12,8.25 Z M12,9.75 C10.7573593,9.75 9.75,10.7573593 9.75,12 C9.75,13.2426407 10.7573593,14.25 12,14.25 C13.2426407,14.25 14.25,13.2426407 14.25,12 C14.25,10.7573593 13.2426407,9.75 12,9.75 Z M18.01,11.25 C18.4242136,11.25 18.76,11.5857864 18.76,12 C18.76,12.3796958 18.4778461,12.693491 18.1117706,12.7431534 L18,12.75 C17.5857864,12.75 17.25,12.4142136 17.25,12 C17.25,11.6203042 17.5321539,11.306509 17.8982294,11.2568466 L18.01,11.25 Z M6.01,11.25 C6.42421356,11.25 6.76,11.5857864 6.76,12 C6.76,12.3796958 6.47784612,12.693491 6.11177056,12.7431534 L6,12.75 C5.58578644,12.75 5.25,12.4142136 5.25,12 C5.25,11.6203042 5.53215388,11.306509 5.89822944,11.2568466 L6.01,11.25 Z" id="Icon-Color" fill="#212121"></path>
    </g>
</svg>