<?xml version="1.0" encoding="UTF-8"?>
<svg width="24px" height="24px" viewBox="0 0 24 24" version="1.1" xmlns="http://www.w3.org/2000/svg" xmlns:xlink="http://www.w3.org/1999/xlink">
    <title>Icon/certificate</title>
    <g id="Icon/certificate" stroke="none" stroke-width="1" fill="none" fill-rule="evenodd">
        <path d="M15,11.25 C17.0710678,11.25 18.75,12.9289322 18.75,15 C18.75,15.983733 18.3712096,16.8789948 17.7515269,17.5478871 L17.75,22 C17.75,22.581679 17.1249943,22.9283983 16.6392571,22.6580207 L16.55,22.6 L15,21.437 L13.45,22.6 C12.9846568,22.9490074 12.332278,22.6570344 12.2571377,22.1062181 L12.25,22 L12.2503036,17.5498615 C11.6295365,16.880757 11.25,15.9847012 11.25,15 C11.25,12.9289322 12.9289322,11.25 15,11.25 Z M16.2506798,18.5363775 C15.8595141,18.67472 15.4385483,18.75 15,18.75 C14.5618249,18.75 14.1412025,18.6748481 13.750319,18.5367306 L13.75,20.5 L14.55,19.9 C14.787037,19.7222222 15.1030864,19.7024691 15.3576818,19.8407407 L15.45,19.9 L16.25,20.5 Z M19,4.25 C20.4625318,4.25 21.6584043,5.3917046 21.7449812,6.83247767 L21.75,7 L21.75,17.0007693 C21.7489929,17.9822421 21.2249807,18.8887831 20.3749996,19.3795193 C20.01628,19.5866258 19.5575873,19.4637192 19.3504807,19.1049996 C19.160633,18.7761733 19.2480881,18.3633418 19.5402878,18.1372953 L19.6250004,18.0804807 C19.9684271,17.8822035 20.194783,17.5345912 20.2411656,17.147005 L20.25,17 L20.25,7 C20.25,6.35279131 19.7581253,5.8204661 19.1278052,5.75645361 L19,5.75 L5,5.75 C4.35707521,5.75 3.82100159,6.24589083 3.75650381,6.87294779 L3.75,7 L3.75,17 C3.75,17.6472087 4.24187466,18.1795339 4.87219476,18.2435464 L5,18.25 L10,18.25 C10.4142136,18.25 10.75,18.5857864 10.75,19 C10.75,19.3796958 10.4678461,19.693491 10.1017706,19.7431534 L10,19.75 L5,19.75 C3.53746816,19.75 2.34159572,18.6082954 2.25501879,17.1675223 L2.25,17 L2.25,7 C2.25,5.54186842 3.39594188,4.34192167 4.83294848,4.2550369 L5,4.25 L19,4.25 Z M15,12.75 C13.7573593,12.75 12.75,13.7573593 12.75,15 C12.75,16.2426407 13.7573593,17.25 15,17.25 C16.2426407,17.25 17.25,16.2426407 17.25,15 C17.25,13.7573593 16.2426407,12.75 15,12.75 Z M8,14.25 C8.41421356,14.25 8.75,14.5857864 8.75,15 C8.75,15.3796958 8.46784612,15.693491 8.10177056,15.7431534 L8,15.75 L6,15.75 C5.58578644,15.75 5.25,15.4142136 5.25,15 C5.25,14.6203042 5.53215388,14.306509 5.89822944,14.2568466 L6,14.25 L8,14.25 Z M9,11.25 C9.41421356,11.25 9.75,11.5857864 9.75,12 C9.75,12.3796958 9.46784612,12.693491 9.10177056,12.7431534 L9,12.75 L6,12.75 C5.58578644,12.75 5.25,12.4142136 5.25,12 C5.25,11.6203042 5.53215388,11.306509 5.89822944,11.2568466 L6,11.25 L9,11.25 Z M18,8.25 C18.4142136,8.25 18.75,8.58578644 18.75,9 C18.75,9.37969577 18.4678461,9.69349096 18.1017706,9.74315338 L18,9.75 L6,9.75 C5.58578644,9.75 5.25,9.41421356 5.25,9 C5.25,8.62030423 5.53215388,8.30650904 5.89822944,8.25684662 L6,8.25 L18,8.25 Z" id="Icon-Color" fill="#212121"></path>
    </g>
</svg>