<?xml version="1.0" encoding="UTF-8"?>
<svg width="24px" height="24px" viewBox="0 0 24 24" version="1.1" xmlns="http://www.w3.org/2000/svg" xmlns:xlink="http://www.w3.org/1999/xlink">
    <title>Icon/chart-arrows-vertical</title>
    <g id="Icon/chart-arrows-vertical" stroke="none" stroke-width="1" fill="none" fill-rule="evenodd">
        <path d="M6.10177056,2.25684662 L6.11277436,2.25847739 C6.12451811,2.26025385 6.13622779,2.26230949 6.14789267,2.26464433 C6.17289581,2.26958796 6.19719212,2.27576118 6.22098366,2.28308617 C6.23264346,2.28671273 6.24469294,2.29074464 6.25665398,2.29509073 C6.27995161,2.30357499 6.30202019,2.31287686 6.32352179,2.32317314 C6.33512287,2.32866533 6.34745994,2.33496828 6.35965102,2.34163501 C6.38366677,2.35487024 6.40639019,2.36897543 6.42826335,2.38421622 C6.43400509,2.38813751 6.44013473,2.39254279 6.44621165,2.39705176 C6.45385686,2.40285492 6.45608469,2.40455735 6.45830264,2.40627192 L6.53033009,2.46966991 L9.53033009,5.46966991 C9.8232233,5.76256313 9.8232233,6.23743687 9.53033009,6.53033009 C9.26406352,6.79659665 8.84739984,6.8208027 8.55378835,6.60294824 L8.46966991,6.53033009 L6.75,4.81 L6.75,20.25 L11.25,20.25 L11.25,13.811 L9.53033009,15.5303301 C9.26406352,15.7965966 8.84739984,15.8208027 8.55378835,15.6029482 L8.46966991,15.5303301 C8.20340335,15.2640635 8.1791973,14.8473998 8.39705176,14.5537883 L8.46966991,14.4696699 L11.4696699,11.4696699 L11.5416974,11.4062719 C11.5458164,11.4030877 11.5499695,11.3999454 11.5541561,11.3968457 L11.4696699,11.4696699 C11.5067232,11.4326166 11.5466889,11.4002509 11.5888302,11.3725727 C11.6089851,11.3594078 11.6299725,11.3470277 11.6515818,11.335671 C11.6607036,11.3308374 11.6694344,11.3264808 11.6782296,11.3223051 C11.7066055,11.3088007 11.7367626,11.2967322 11.7678087,11.286634 C11.7731076,11.2849658 11.7774712,11.2835999 11.7818445,11.2822748 C11.8503231,11.2613532 11.9238357,11.25 12,11.25 L12.0058164,11.2500224 C12.0383922,11.25 12.0761107,11.2528847 12.1129505,11.2584492 C12.1245181,11.2602538 12.1362278,11.2623095 12.1478927,11.2646443 C12.1728958,11.269588 12.1971921,11.2757612 12.2209837,11.2830862 C12.2326435,11.2867127 12.2446929,11.2907446 12.256654,11.2950907 C12.2799516,11.303575 12.3020202,11.3128769 12.3235218,11.3231731 C12.3351229,11.3286653 12.3474599,11.3349683 12.359651,11.341635 C12.3836668,11.3548702 12.4063902,11.3689754 12.4282634,11.3842162 C12.4340051,11.3881375 12.4401347,11.3925428 12.4462117,11.3970518 C12.4538569,11.4028549 12.4560847,11.4045573 12.4583026,11.4062719 L12.5303301,11.4696699 L15.5303301,14.4696699 C15.8232233,14.7625631 15.8232233,15.2374369 15.5303301,15.5303301 C15.2640635,15.7965966 14.8473998,15.8208027 14.5537883,15.6029482 L14.4696699,15.5303301 L12.75,13.811 L12.75,20.25 L17.25,20.25 L17.25,8.811 L15.5303301,10.5303301 C15.2640635,10.7965966 14.8473998,10.8208027 14.5537883,10.6029482 L14.4696699,10.5303301 C14.2034034,10.2640635 14.1791973,9.84739984 14.3970518,9.55378835 L14.4696699,9.46966991 L17.4696699,6.46966991 L17.5416974,6.40627192 C17.5458164,6.40308771 17.5499695,6.39994541 17.5541561,6.39684567 L17.4696699,6.46966991 C17.5067232,6.43261664 17.5466889,6.40025089 17.5888302,6.37257267 C17.6089851,6.35940783 17.6299725,6.34702767 17.6515818,6.33567096 C17.6607036,6.33083742 17.6694344,6.32648082 17.6782296,6.32230508 C17.7066055,6.30880073 17.7367626,6.2967322 17.7678087,6.28663399 C17.7731076,6.28496585 17.7774712,6.28359992 17.7818445,6.2822748 C17.8503231,6.26135317 17.9238357,6.25 18,6.25 L18.0058164,6.25002241 C18.0383922,6.25 18.0761107,6.25288471 18.1129505,6.25844919 C18.1245181,6.26025385 18.1362278,6.26230949 18.1478927,6.26464433 C18.1728958,6.26958796 18.1971921,6.27576118 18.2209837,6.28308617 C18.2326435,6.28671273 18.2446929,6.29074464 18.256654,6.29509073 C18.2799516,6.30357499 18.3020202,6.31287686 18.3235218,6.32317314 C18.3351229,6.32866533 18.3474599,6.33496828 18.359651,6.34163501 C18.3836668,6.35487024 18.4063902,6.36897543 18.4282634,6.38421622 C18.4340051,6.38813751 18.4401347,6.39254279 18.4462117,6.39705176 C18.4538569,6.40285492 18.4560847,6.40455735 18.4583026,6.40627192 L18.5303301,6.46966991 L21.5303301,9.46966991 C21.8232233,9.76256313 21.8232233,10.2374369 21.5303301,10.5303301 C21.2640635,10.7965966 20.8473998,10.8208027 20.5537883,10.6029482 L20.4696699,10.5303301 L18.75,8.811 L18.75,20.25 L21,20.25 C21.4142136,20.25 21.75,20.5857864 21.75,21 C21.75,21.3796958 21.4678461,21.693491 21.1017706,21.7431534 L21,21.75 L3,21.75 C2.58578644,21.75 2.25,21.4142136 2.25,21 C2.25,20.6203042 2.53215388,20.306509 2.89822944,20.2568466 L3,20.25 L5.25,20.25 L5.25,4.81 L3.53033009,6.53033009 C3.26406352,6.79659665 2.84739984,6.8208027 2.55378835,6.60294824 L2.46966991,6.53033009 C2.20340335,6.26406352 2.1791973,5.84739984 2.39705176,5.55378835 L2.46966991,5.46966991 L5.46966991,2.46966991 L5.54169736,2.40627192 C5.54581642,2.40308771 5.54996953,2.39994541 5.55415605,2.39684567 L5.46966991,2.46966991 C5.50672319,2.43261664 5.54668892,2.40025089 5.58883021,2.37257267 C5.60898514,2.35940783 5.62997247,2.34702767 5.65158175,2.33567096 C5.66070362,2.33083742 5.66943437,2.32648082 5.67822959,2.32230508 C5.70660552,2.30880073 5.73676262,2.2967322 5.76780866,2.28663399 C5.77310765,2.28496585 5.77747119,2.28359992 5.78184446,2.2822748 C5.85032314,2.26135317 5.92383573,2.25 6,2.25 L6.00581637,2.25002241 L6.10177056,2.25684662 L6.10177056,2.25684662 Z" id="Icon-Color" fill="#212121"></path>
    </g>
</svg>