<?xml version="1.0" encoding="UTF-8"?>
<svg width="24px" height="24px" viewBox="0 0 24 24" version="1.1" xmlns="http://www.w3.org/2000/svg" xmlns:xlink="http://www.w3.org/1999/xlink">
    <title>Icon/charging-pile</title>
    <g id="Icon/charging-pile" stroke="none" stroke-width="1" fill="none" fill-rule="evenodd">
        <path d="M12,3.25 C13.4625318,3.25 14.6584043,4.3917046 14.7449812,5.83247767 L14.75,6 L14.75,10.25 L15,10.25 C16.4625318,10.25 17.6584043,11.3917046 17.7449812,12.8324777 L17.75,13 L17.75,16 C17.75,16.4142136 18.0857864,16.75 18.5,16.75 C18.8796958,16.75 19.193491,16.4678461 19.2431534,16.1017706 L19.25,16 L19.25,9.311 L18,8.061 L17.5303301,8.53033009 C17.2374369,8.8232233 16.7625631,8.8232233 16.4696699,8.53033009 C16.2034034,8.26406352 16.1791973,7.84739984 16.3970518,7.55378835 L16.4696699,7.46966991 L16.939,7 L16.4696699,6.53033009 C16.2034034,6.26406352 16.1791973,5.84739984 16.3970518,5.55378835 L16.4696699,5.46966991 C16.7359365,5.20340335 17.1526002,5.1791973 17.4462117,5.39705176 L17.5303301,5.46966991 L20.5303301,8.46966991 C20.6428519,8.58219174 20.7159276,8.72678598 20.7406569,8.88196594 L20.75,9 L20.75,16 C20.75,17.2426407 19.7426407,18.25 18.5,18.25 C17.309136,18.25 16.3343551,17.3248384 16.2551908,16.1540488 L16.25,16 L16.25,13 C16.25,12.3527913 15.7581253,11.8204661 15.1278052,11.7564536 L15,11.75 L14.75,11.75 L14.75,19.25 L15,19.25 C15.4142136,19.25 15.75,19.5857864 15.75,20 C15.75,20.3796958 15.4678461,20.693491 15.1017706,20.7431534 L15,20.75 L3,20.75 C2.58578644,20.75 2.25,20.4142136 2.25,20 C2.25,19.6203042 2.53215388,19.306509 2.89822944,19.2568466 L3,19.25 L3.25,19.25 L3.25,6 C3.25,4.53746816 4.3917046,3.34159572 5.83247767,3.25501879 L6,3.25 L12,3.25 Z M13.25,8.75 L4.75,8.75 L4.75,19.25 L13.25,19.25 L13.25,8.75 Z M9.38587182,10.8568803 C9.71145825,11.0522322 9.83536844,11.4556234 9.68960929,11.7950817 L9.64311969,11.8858718 L8.824,13.25 L10.5,13.25 C11.0486785,13.25 11.3999216,13.8133581 11.1892871,14.2963998 L11.1431197,14.3858718 L9.64311969,16.8858718 C9.43000857,17.241057 8.96931338,17.3562308 8.61412818,17.1431197 C8.28854175,16.9477678 8.16463156,16.5443766 8.31039071,16.2049183 L8.35688031,16.1141282 L9.174,14.75 L7.5,14.75 C6.95132155,14.75 6.60007843,14.1866419 6.81071287,13.7036002 L6.85688031,13.6141282 L8.35688031,11.1141282 C8.56999143,10.758943 9.03068662,10.6437692 9.38587182,10.8568803 Z M12,4.75 L6,4.75 C5.35279131,4.75 4.8204661,5.24187466 4.75645361,5.87219476 L4.75,6 L4.75,7.25 L13.25,7.25 L13.25,6 C13.25,5.35279131 12.7581253,4.8204661 12.1278052,4.75645361 L12,4.75 Z" id="Icon-Color" fill="#212121"></path>
    </g>
</svg>