<?xml version="1.0" encoding="UTF-8"?>
<svg width="24px" height="24px" viewBox="0 0 24 24" version="1.1" xmlns="http://www.w3.org/2000/svg" xmlns:xlink="http://www.w3.org/1999/xlink">
    <title>Icon/chart-pie</title>
    <g id="Icon/chart-pie" stroke="none" stroke-width="1" fill="none" fill-rule="evenodd">
        <path d="M10.0767934,2.44409901 C10.4593263,2.43756696 10.8342431,2.56430175 11.135655,2.80543126 C11.4418512,3.05038823 11.6495232,3.39526648 11.7270779,3.83195433 L11.75,4 L11.75,11 C11.75,11.6472087 12.2418747,12.1795339 12.8721948,12.2435464 L13,12.25 L19.8,12.25 C20.7181734,12.25 21.4711923,12.9571103 21.5441988,13.8564728 L21.55,14 L21.5306243,14.1693757 C20.4431844,18.8601903 16.0942087,22.0546795 11.2928718,21.6893967 C6.49153486,21.3241139 2.67588608,17.5084651 2.31060331,12.7071282 C1.9523452,7.99812474 5.01826117,3.72425116 9.56167518,2.5357112 L9.8306243,2.4693757 L9.93131189,2.45306216 L10.0767934,2.44409901 Z M10.1269935,3.94549918 L10.111,3.945 L9.91776195,3.99308182 C6.08656588,5.00753061 3.50377186,8.61710809 3.80628101,12.593338 C4.11536643,16.6560077 7.34399232,19.8846336 11.406662,20.193719 C15.3828919,20.4962281 18.9924694,17.9134341 20.0069182,14.082238 L20.042,13.939 L20.0245897,13.8900563 C19.9920432,13.8236965 19.930952,13.7738763 19.8573227,13.7566027 L19.8,13.75 L13,13.75 C11.5374682,13.75 10.3415957,12.6082954 10.2550188,11.1675223 L10.25,11 L10.2540901,4.07822067 C10.2499076,4.03833594 10.2299279,4.00178689 10.1986124,3.97673448 C10.1777354,3.96003287 10.1529793,3.94936816 10.1269935,3.94549918 Z M15.0521335,2.75162441 L15.077,2.755 L15.1017706,2.75684662 L15.1993797,2.77679072 L15.2490933,2.79257332 C17.9357119,3.73856365 20.0691277,5.80981422 21.097714,8.45469807 L21.2074267,8.75090665 C21.3677597,9.20625333 21.0631235,9.68194086 20.6012642,9.7433421 L20.5,9.75 L16,9.75 C15.0818266,9.75 14.3288077,9.04288973 14.2558012,8.14352721 L14.25,8 L14.2516244,3.44786654 L14.255,3.422 L14.2568466,3.39822944 L14.2767907,3.30062029 L14.3089387,3.20806615 L14.3328318,3.15718697 L14.352397,3.12146064 L14.4062719,3.04169736 L14.4696699,2.96966991 L14.51488,2.92786341 L14.5921881,2.87052103 L14.6759094,2.8236382 L14.7080662,2.80893872 L14.7649043,2.78776104 L14.8006203,2.77679072 L14.8982294,2.75684662 L14.954156,2.75120805 L15.0521335,2.75162441 Z M15.75,4.636 L15.75,8 C15.75,8.11834673 15.8322334,8.21748682 15.9426773,8.24339732 L16,8.25 L19.363,8.25 L19.3176161,8.15829297 C18.5912742,6.77277073 17.4860216,5.62357279 16.1349389,4.84377973 L15.841707,4.68238387 L15.75,4.636 Z" id="Icon-Color" fill="#212121"></path>
    </g>
</svg>