<?xml version="1.0" encoding="UTF-8"?>
<svg width="24px" height="24px" viewBox="0 0 24 24" version="1.1" xmlns="http://www.w3.org/2000/svg" xmlns:xlink="http://www.w3.org/1999/xlink">
    <title>Icon/chart-arcs-3</title>
    <g id="Icon/chart-arcs-3" stroke="none" stroke-width="1" fill="none" fill-rule="evenodd">
        <polygon id="Path" points="0 0 24 0 24 24 0 24"></polygon>
        <path d="M12,2.25 C16.2945395,2.25 20.0833618,5.06023396 21.3299105,9.17001464 C22.5764374,13.2797232 20.9871519,17.7210942 17.4162711,20.1069576 C13.8453903,22.492821 9.13391629,22.261266 5.81419548,19.53675 C5.4940084,19.2739704 5.44747042,18.8013826 5.71025,18.4811955 C5.97302958,18.1610084 6.44561743,18.1144704 6.76580452,18.37725 C9.57479904,20.6826097 13.5614309,20.8785408 16.5829454,18.8597333 C19.6044599,16.8409259 20.9492399,13.0828427 19.8944864,9.605397 C18.8397124,6.12788364 15.6337948,3.75 12,3.75 C11.5857864,3.75 11.25,3.41421356 11.25,3 C11.25,2.58578644 11.5857864,2.25 12,2.25 Z M12,6.25 C15.1756373,6.25 17.75,8.82436269 17.75,12 C17.75,15.1756373 15.1756373,17.75 12,17.75 C8.82436269,17.75 6.25,15.1756373 6.25,12 C6.25,11.5857864 6.58578644,11.25 7,11.25 C7.41421356,11.25 7.75,11.5857864 7.75,12 C7.75,14.3472102 9.65278981,16.25 12,16.25 C14.3472102,16.25 16.25,14.3472102 16.25,12 C16.25,9.65278981 14.3472102,7.75 12,7.75 C11.5857864,7.75 11.25,7.41421356 11.25,7 C11.25,6.58578644 11.5857864,6.25 12,6.25 Z M12,10.25 C12.9664983,10.25 13.75,11.0335017 13.75,12 C13.75,12.9664983 12.9664983,13.75 12,13.75 C11.0335017,13.75 10.25,12.9664983 10.25,12 C10.25,11.0335017 11.0335017,10.25 12,10.25 Z M12,11.75 C11.8619288,11.75 11.75,11.8619288 11.75,12 C11.75,12.1380712 11.8619288,12.25 12,12.25 C12.1380712,12.25 12.25,12.1380712 12.25,12 C12.25,11.8619288 12.1380712,11.75 12,11.75 Z" id="Icon-Color" fill="#212121"></path>
    </g>
</svg>