<?xml version="1.0" encoding="UTF-8"?>
<svg width="24px" height="24px" viewBox="0 0 24 24" version="1.1" xmlns="http://www.w3.org/2000/svg" xmlns:xlink="http://www.w3.org/1999/xlink">
    <title>Icon/checkbox</title>
    <g id="Icon/checkbox" stroke="none" stroke-width="1" fill="none" fill-rule="evenodd">
        <path d="M15,3.25 C15.4142136,3.25 15.75,3.58578644 15.75,4 C15.75,4.37969577 15.4678461,4.69349096 15.1017706,4.74315338 L15,4.75 L6,4.75 C5.35279131,4.75 4.8204661,5.24187466 4.75645361,5.87219476 L4.75,6 L4.75,18 C4.75,18.6472087 5.24187466,19.1795339 5.87219476,19.2435464 L6,19.25 L18,19.25 C18.6472087,19.25 19.1795339,18.7581253 19.2435464,18.1278052 L19.25,18 L19.25,12 C19.25,11.5857864 19.5857864,11.25 20,11.25 C20.3796958,11.25 20.693491,11.5321539 20.7431534,11.8982294 L20.75,12 L20.75,18 C20.75,19.4625318 19.6082954,20.6584043 18.1675223,20.7449812 L18,20.75 L6,20.75 C4.53746816,20.75 3.34159572,19.6082954 3.25501879,18.1675223 L3.25,18 L3.25,6 C3.25,4.53746816 4.3917046,3.34159572 5.83247767,3.25501879 L6,3.25 L15,3.25 Z M20.5303301,5.46966991 C20.7965966,5.73593648 20.8208027,6.15260016 20.6029482,6.44621165 L20.5303301,6.53033009 L12.5303301,14.5303301 C12.2640635,14.7965966 11.8473998,14.8208027 11.5537883,14.6029482 L11.4696699,14.5303301 L8.46966991,11.5303301 C8.1767767,11.2374369 8.1767767,10.7625631 8.46966991,10.4696699 C8.73593648,10.2034034 9.15260016,10.1791973 9.44621165,10.3970518 L9.53033009,10.4696699 L12,12.939 L19.4696699,5.46966991 C19.7625631,5.1767767 20.2374369,5.1767767 20.5303301,5.46966991 Z" id="Icon-Color" fill="#212121"></path>
    </g>
</svg>