<?xml version="1.0" encoding="UTF-8"?>
<svg width="24px" height="24px" viewBox="0 0 24 24" version="1.1" xmlns="http://www.w3.org/2000/svg" xmlns:xlink="http://www.w3.org/1999/xlink">
    <title>Icon/chevrons/chevrons-down</title>
    <g id="Icon/chevrons/chevrons-down" stroke="none" stroke-width="1" fill="none" fill-rule="evenodd">
        <path d="M17.4462117,12.3970518 L17.5303301,12.4696699 C17.7965966,12.7359365 17.8208027,13.1526002 17.6029482,13.4462117 L17.5303301,13.5303301 L12.5303301,18.5303301 C12.2640635,18.7965966 11.8473998,18.8208027 11.5537883,18.6029482 L11.4696699,18.5303301 L6.46966991,13.5303301 C6.1767767,13.2374369 6.1767767,12.7625631 6.46966991,12.4696699 C6.73593648,12.2034034 7.15260016,12.1791973 7.44621165,12.3970518 L7.53033009,12.4696699 L12,16.939 L16.4696699,12.4696699 C16.7359365,12.2034034 17.1526002,12.1791973 17.4462117,12.3970518 Z M17.4462117,6.39705176 L17.5303301,6.46966991 C17.7965966,6.73593648 17.8208027,7.15260016 17.6029482,7.44621165 L17.5303301,7.53033009 L12.5303301,12.5303301 C12.2640635,12.7965966 11.8473998,12.8208027 11.5537883,12.6029482 L11.4696699,12.5303301 L6.46966991,7.53033009 C6.1767767,7.23743687 6.1767767,6.76256313 6.46966991,6.46966991 C6.73593648,6.20340335 7.15260016,6.1791973 7.44621165,6.39705176 L7.53033009,6.46966991 L12,10.939 L16.4696699,6.46966991 C16.7359365,6.20340335 17.1526002,6.1791973 17.4462117,6.39705176 Z" id="Icon-Color" fill="#212121"></path>
    </g>
</svg>