<?xml version="1.0" encoding="UTF-8"?>
<svg width="24px" height="24px" viewBox="0 0 24 24" version="1.1" xmlns="http://www.w3.org/2000/svg" xmlns:xlink="http://www.w3.org/1999/xlink">
    <title>Icon/christmas-tree</title>
    <g id="Icon/christmas-tree" stroke="none" stroke-width="1" fill="none" fill-rule="evenodd">
        <path d="M11.4696699,2.46966991 C11.7625631,2.1767767 12.2374369,2.1767767 12.5303301,2.46966991 L12.5303301,2.46966991 L16.5303301,6.46966991 C16.892311,6.83165081 16.7932838,7.44188357 16.3354102,7.67082039 L16.3354102,7.67082039 L15.266,8.205 L18.5303301,11.4696699 C18.8982854,11.8376252 18.7847695,12.4469292 18.3379626,12.6698797 L18.3379626,12.6698797 L18.2371708,12.7115125 L16.388,13.327 L19.5303301,16.4696699 C19.9779367,16.9172765 19.7011666,17.6658915 19.1026609,17.7434532 L19.1026609,17.7434532 L19,17.75 L14.7494964,17.75 L14.75,20 C14.75,20.9181734 14.0428897,21.6711923 13.1435272,21.7441988 L13,21.75 L11,21.75 C10.0818266,21.75 9.32880766,21.0428897 9.2558012,20.1435272 L9.25,20 L9.24949643,17.75 L5,17.75 C4.36698866,17.75 4.03334393,17.0249433 4.40170696,16.5468915 L4.46966991,16.4696699 L7.611,13.327 L5.76282918,12.7115125 C5.2691653,12.5469578 5.09820806,11.951214 5.3981378,11.5519828 L5.3981378,11.5519828 L5.46966991,11.4696699 L8.733,8.205 L7.6645898,7.67082039 C7.23942142,7.4582362 7.1236666,6.91688153 7.39912159,6.5508076 L7.39912159,6.5508076 L7.46966991,6.46966991 Z M13.2494964,17.75 L10.7494964,17.75 L10.75,20 C10.75,20.1183467 10.8322334,20.2174868 10.9426773,20.2433973 L11,20.25 L13,20.25 C13.1183467,20.25 13.2174868,20.1677666 13.2433973,20.0573227 L13.25,20 L13.2494964,17.75 Z M12,4.061 L9.266,6.794 L10.3354102,7.32917961 C10.7605786,7.5417638 10.8763334,8.08311847 10.6008784,8.4491924 L10.6008784,8.4491924 L10.5303301,8.53033009 L7.388,11.672 L9.23717082,12.2884875 C9.7308347,12.4530422 9.90179194,13.048786 9.6018622,13.4480172 L9.6018622,13.4480172 L9.53033009,13.5303301 L6.81,16.25 L17.189,16.25 L14.4696699,13.5303301 C14.1017146,13.1623748 14.2152305,12.5530708 14.6620374,12.3301203 L14.6620374,12.3301203 L14.7628292,12.2884875 L16.611,11.672 L13.4696699,8.53033009 C13.1335448,8.19420497 13.1949215,7.64402595 13.5720038,7.38384423 L13.5720038,7.38384423 L13.6645898,7.32917961 L14.733,6.794 L12,4.061 Z" id="Icon-Color" fill="#212121"></path>
    </g>
</svg>