<?xml version="1.0" encoding="UTF-8"?>
<svg width="24px" height="24px" viewBox="0 0 24 24" version="1.1" xmlns="http://www.w3.org/2000/svg" xmlns:xlink="http://www.w3.org/1999/xlink">
    <title>Icon/brand/chrome</title>
    <g id="Icon/brand/chrome" stroke="none" stroke-width="1" fill="none" fill-rule="evenodd">
        <path d="M12,2.25 C17.3847763,2.25 21.75,6.61522369 21.75,12 C21.75,17.3847763 17.3847763,21.75 12,21.75 C6.61522369,21.75 2.25,17.3847763 2.25,12 C2.25,6.61522369 6.61522369,2.25 12,2.25 Z M19.9395845,9.75047121 L15.0001151,9.74978766 C15.4709784,10.3765694 15.75,11.1557002 15.75,12 C15.75,12.683025 15.5673929,13.3233998 15.2483356,13.8749675 L15.2475953,13.875 L11.5733313,20.2391572 C11.7146448,20.2463565 11.8568969,20.25 12,20.25 C16.5563492,20.25 20.25,16.5563492 20.25,12 C20.25,11.2201535 20.1417968,10.4655792 19.9395845,9.75047121 Z M5.07718052,7.51078117 C4.2376632,8.80274822 3.75,10.3444242 3.75,12 C3.75,15.8589782 6.39951569,19.0991289 9.97866541,20.0005704 L12.4497752,15.7233044 C12.3023089,15.7409312 12.1522135,15.75 12,15.75 C10.587301,15.75 9.35705322,14.9688331 8.71764752,13.8148901 Z M12,9.75 C10.7573593,9.75 9.75,10.7573593 9.75,12 C9.75,13.2426407 10.7573593,14.25 12,14.25 C13.2426407,14.25 14.25,13.2426407 14.25,12 C14.25,10.7573593 13.2426407,9.75 12,9.75 Z M12,3.75 C9.67913475,3.75 7.58210286,4.70834458 6.08304194,6.25089614 L8.55084429,10.5258739 C9.12353099,9.1876416 10.4522665,8.25 12,8.25 L11.998,8.25 L19.3508262,8.25076414 C18.0213637,5.649399 15.3516098,3.8468515 12.252225,3.75378207 Z" id="Icon-Color" fill="#212121"></path>
    </g>
</svg>