<?xml version="1.0" encoding="UTF-8"?>
<svg width="24px" height="24px" viewBox="0 0 24 24" version="1.1" xmlns="http://www.w3.org/2000/svg" xmlns:xlink="http://www.w3.org/1999/xlink">
    <title>Icon/circles</title>
    <g id="Icon/circles" stroke="none" stroke-width="1" fill="none" fill-rule="evenodd">
        <path d="M6.5,12.25 C9.12335256,12.25 11.25,14.3766474 11.25,17 C11.25,19.6233526 9.12335256,21.75 6.5,21.75 C3.87664744,21.75 1.75,19.6233526 1.75,17 C1.75,14.3766474 3.87664744,12.25 6.5,12.25 Z M17.5,12.25 C20.1233526,12.25 22.25,14.3766474 22.25,17 C22.25,19.6233526 20.1233526,21.75 17.5,21.75 C14.8766474,21.75 12.75,19.6233526 12.75,17 C12.75,14.3766474 14.8766474,12.25 17.5,12.25 Z M6.5,13.75 C4.70507456,13.75 3.25,15.2050746 3.25,17 C3.25,18.7949254 4.70507456,20.25 6.5,20.25 C8.29492544,20.25 9.75,18.7949254 9.75,17 C9.75,15.2050746 8.29492544,13.75 6.5,13.75 Z M17.5,13.75 C15.7050746,13.75 14.25,15.2050746 14.25,17 C14.25,18.7949254 15.7050746,20.25 17.5,20.25 C19.2949254,20.25 20.75,18.7949254 20.75,17 C20.75,15.2050746 19.2949254,13.75 17.5,13.75 Z M12,2.25 C14.6233526,2.25 16.75,4.37664744 16.75,7 C16.75,9.62335256 14.6233526,11.75 12,11.75 C9.37664744,11.75 7.25,9.62335256 7.25,7 C7.25,4.37664744 9.37664744,2.25 12,2.25 Z M12,3.75 C10.2050746,3.75 8.75,5.20507456 8.75,7 C8.75,8.79492544 10.2050746,10.25 12,10.25 C13.7949254,10.25 15.25,8.79492544 15.25,7 C15.25,5.20507456 13.7949254,3.75 12,3.75 Z" id="Icon-Color" fill="#212121"></path>
    </g>
</svg>