<?xml version="1.0" encoding="UTF-8"?>
<svg width="24px" height="24px" viewBox="0 0 24 24" version="1.1" xmlns="http://www.w3.org/2000/svg" xmlns:xlink="http://www.w3.org/1999/xlink">
    <title>Icon/circle-x</title>
    <g id="Icon/circle-x" stroke="none" stroke-width="1" fill="none" fill-rule="evenodd">
        <path d="M12,2.25 C17.3847763,2.25 21.75,6.61522369 21.75,12 C21.75,17.3847763 17.3847763,21.75 12,21.75 C6.61522369,21.75 2.25,17.3847763 2.25,12 C2.25,6.61522369 6.61522369,2.25 12,2.25 Z M12,3.75 C7.44365081,3.75 3.75,7.44365081 3.75,12 C3.75,16.5563492 7.44365081,20.25 12,20.25 C16.5563492,20.25 20.25,16.5563492 20.25,12 C20.25,7.44365081 16.5563492,3.75 12,3.75 Z M14.5303301,9.46966991 C14.7965966,9.73593648 14.8208027,10.1526002 14.6029482,10.4462117 L14.5303301,10.5303301 L13.061,12 L14.5303301,13.4696699 C14.8232233,13.7625631 14.8232233,14.2374369 14.5303301,14.5303301 C14.2640635,14.7965966 13.8473998,14.8208027 13.5537883,14.6029482 L13.4696699,14.5303301 L12,13.061 L10.5303301,14.5303301 C10.2374369,14.8232233 9.76256313,14.8232233 9.46966991,14.5303301 C9.20340335,14.2640635 9.1791973,13.8473998 9.39705176,13.5537883 L9.46966991,13.4696699 L10.939,12 L9.46966991,10.5303301 C9.1767767,10.2374369 9.1767767,9.76256313 9.46966991,9.46966991 C9.7063513,9.23298853 10.061865,9.18756482 10.3441588,9.33339881 L10.4462117,9.39705176 L10.5303301,9.46966991 L12,10.939 L13.4696699,9.46966991 C13.7625631,9.1767767 14.2374369,9.1767767 14.5303301,9.46966991 Z" id="Icon-Color" fill="#212121"></path>
    </g>
</svg>