<?xml version="1.0" encoding="UTF-8"?>
<svg width="24px" height="24px" viewBox="0 0 24 24" version="1.1" xmlns="http://www.w3.org/2000/svg" xmlns:xlink="http://www.w3.org/1999/xlink">
    <title>Icon/clipboard-list</title>
    <g id="Icon/clipboard-list" stroke="none" stroke-width="1" fill="none" fill-rule="evenodd">
        <path d="M13,2.25 C14.2589387,2.25 15.3202917,3.09596473 15.6466094,4.25044448 L17,4.25 C18.4625318,4.25 19.6584043,5.3917046 19.7449812,6.83247767 L19.75,7 L19.75,19 C19.75,20.4625318 18.6082954,21.6584043 17.1675223,21.7449812 L17,21.75 L7,21.75 C5.53746816,21.75 4.34159572,20.6082954 4.25501879,19.1675223 L4.25,19 L4.25,7 C4.25,5.53746816 5.3917046,4.34159572 6.83247767,4.25501879 L7,4.25 L8.35339057,4.25044448 C8.67970826,3.09596473 9.7410613,2.25 11,2.25 L11,2.25 Z M8.35367295,5.75055384 L7,5.75 C6.35279131,5.75 5.8204661,6.24187466 5.75645361,6.87219476 L5.75,7 L5.75,19 C5.75,19.6472087 6.24187466,20.1795339 6.87219476,20.2435464 L7,20.25 L17,20.25 C17.6472087,20.25 18.1795339,19.7581253 18.2435464,19.1278052 L18.25,19 L18.25,7 C18.25,6.35279131 17.7581253,5.8204661 17.1278052,5.75645361 L17,5.75 L15.646327,5.75055384 C15.3196798,6.90452293 14.2585758,7.75 13,7.75 L13,7.75 L11,7.75 C9.74142422,7.75 8.68032018,6.90452293 8.35367295,5.75055384 Z M9.01,15.25 C9.42421356,15.25 9.76,15.5857864 9.76,16 C9.76,16.3796958 9.47784612,16.693491 9.11177056,16.7431534 L9,16.75 C8.58578644,16.75 8.25,16.4142136 8.25,16 C8.25,15.6203042 8.53215388,15.306509 8.89822944,15.2568466 L9.01,15.25 Z M15,15.25 C15.4142136,15.25 15.75,15.5857864 15.75,16 C15.75,16.3796958 15.4678461,16.693491 15.1017706,16.7431534 L15,16.75 L13,16.75 C12.5857864,16.75 12.25,16.4142136 12.25,16 C12.25,15.6203042 12.5321539,15.306509 12.8982294,15.2568466 L13,15.25 L15,15.25 Z M9.01,11.25 C9.42421356,11.25 9.76,11.5857864 9.76,12 C9.76,12.3796958 9.47784612,12.693491 9.11177056,12.7431534 L9,12.75 C8.58578644,12.75 8.25,12.4142136 8.25,12 C8.25,11.6203042 8.53215388,11.306509 8.89822944,11.2568466 L9.01,11.25 Z M15,11.25 C15.4142136,11.25 15.75,11.5857864 15.75,12 C15.75,12.3796958 15.4678461,12.693491 15.1017706,12.7431534 L15,12.75 L13,12.75 C12.5857864,12.75 12.25,12.4142136 12.25,12 C12.25,11.6203042 12.5321539,11.306509 12.8982294,11.2568466 L13,11.25 L15,11.25 Z M13,3.75 L11,3.75 C10.3096441,3.75 9.75,4.30964406 9.75,5 C9.75,5.69035594 10.3096441,6.25 11,6.25 L11,6.25 L13,6.25 C13.6903559,6.25 14.25,5.69035594 14.25,5 C14.25,4.30964406 13.6903559,3.75 13,3.75 L13,3.75 Z" id="Icon-Color" fill="#212121"></path>
    </g>
</svg>