<?xml version="1.0" encoding="UTF-8"?>
<svg width="24px" height="24px" viewBox="0 0 24 24" version="1.1" xmlns="http://www.w3.org/2000/svg" xmlns:xlink="http://www.w3.org/1999/xlink">
    <title>Icon/cloud-off</title>
    <g id="Icon/cloud-off" stroke="none" stroke-width="1" fill="none" fill-rule="evenodd">
        <path d="M3.44621165,2.39705176 L3.53033009,2.46966991 L21.5303301,20.4696699 C21.8232233,20.7625631 21.8232233,21.2374369 21.5303301,21.5303301 C21.2640635,21.7965966 20.8473998,21.8208027 20.5537883,21.6029482 L20.4696699,21.5303301 L17.689,18.75 L7,18.75 C3.99501007,18.75 1.545,16.4068092 1.545,13.5 C1.545,10.8112015 3.64128987,8.60464897 6.33404202,8.28879059 L6.424,8.279 C6.49124341,8.08378303 6.56722842,7.89625008 6.65281101,7.71421353 L2.46966991,3.53033009 C2.1767767,3.23743687 2.1767767,2.76256313 2.46966991,2.46966991 C2.73593648,2.20340335 3.15260016,2.1791973 3.44621165,2.39705176 Z M16.6780378,5.62637018 C18.0678927,6.72863701 18.8509135,8.31620736 18.8612132,9.96650353 L18.854,10.25 L19.0001023,10.25 C20.7255664,10.2502353 22.271796,11.2924523 22.926166,12.8738771 L23.0032656,13.0743272 C23.6061938,14.7675416 23.0787984,16.6569672 21.6861023,17.7931429 C21.3651459,18.0549823 20.8926966,18.0070586 20.6308571,17.6861023 C20.3690177,17.3651459 20.4169414,16.8926966 20.7378977,16.6308571 C21.639054,15.8956846 21.9803099,14.6731152 21.5901799,13.5775058 C21.220583,12.5395601 20.2702763,11.8281916 19.182494,11.756051 L19,11.75 L18,11.75 C17.5195449,11.75 17.1629948,11.3045643 17.268202,10.8357695 C17.6009777,9.35294752 17.0274833,7.81797919 15.7454827,6.80124918 C14.4367486,5.76157616 12.595668,5.426658 10.9275109,5.93236971 C10.6086322,6.02803333 10.3025895,6.15363972 10.012638,6.30698793 C9.64647987,6.50063995 9.19266409,6.36079612 8.99901207,5.99463799 C8.80536005,5.62847987 8.94520388,5.17466409 9.31136201,4.98101207 C9.68736449,4.78215361 10.0839004,4.61940688 10.4944106,4.49625712 C12.6272465,3.84967107 14.9803918,4.27774094 16.6780378,5.62637018 Z M16.189,17.25 L7.80951919,8.87122606 C7.77986239,8.9677008 7.75395534,9.06531417 7.73186372,9.16393747 C7.65513041,9.5064969 7.35104837,9.75 7,9.75 C4.80884795,9.75 3.045,11.436945 3.045,13.5 C3.045,15.4985845 4.70032996,17.1441986 6.79587215,17.2450978 L7,17.25 L16.189,17.25 Z" id="Icon-Color" fill="#212121"></path>
    </g>
</svg>