<?xml version="1.0" encoding="UTF-8"?>
<svg width="24px" height="24px" viewBox="0 0 24 24" version="1.1" xmlns="http://www.w3.org/2000/svg" xmlns:xlink="http://www.w3.org/1999/xlink">
    <title>Icon/cloud-upload</title>
    <g id="Icon/cloud-upload" stroke="none" stroke-width="1" fill="none" fill-rule="evenodd">
        <path d="M15.5303301,14.4696699 C15.8232233,14.7625631 15.8232233,15.2374369 15.5303301,15.5303301 C15.2640635,15.7965966 14.8473998,15.8208027 14.5537883,15.6029482 L14.4696699,15.5303301 L12.7494545,13.8109163 L12.75,21 C12.75,21.4142136 12.4142136,21.75 12,21.75 C11.6203042,21.75 11.306509,21.4678461 11.2568466,21.1017706 L11.25,21 L11.2494545,13.8109163 L9.53033009,15.5303301 C9.26406352,15.7965966 8.84739984,15.8208027 8.55378835,15.6029482 L8.46966991,15.5303301 C8.20340335,15.2640635 8.1791973,14.8473998 8.39705176,14.5537883 L8.46966991,14.4696699 L11.4706133,11.4687282 C11.4966413,11.4427919 11.5245642,11.4187558 11.5541561,11.3968457 L11.4696699,11.4696699 C11.5067232,11.4326166 11.5466889,11.4002509 11.5888302,11.3725727 C11.6084721,11.3597449 11.6289122,11.347654 11.6499447,11.3365339 C11.6606161,11.3308452 11.6713449,11.3255104 11.6821698,11.3204485 C11.7065244,11.3090692 11.7315215,11.2989565 11.757144,11.2901921 C11.7659033,11.2872447 11.7743482,11.2845342 11.7828295,11.2819771 C11.8511877,11.2612201 11.9242835,11.25 12,11.25 C12.0121675,11.2500714 12.0185181,11.2502005 12.0248665,11.2504098 L12,11.25 C12.0384322,11.25 12.0761892,11.2528907 12.1130655,11.2584666 C12.1249357,11.260317 12.1370604,11.262456 12.1491368,11.2648944 C12.1730852,11.2696769 12.196133,11.2755173 12.2187287,11.2823958 C12.2329578,11.2867655 12.2474064,11.2916337 12.2617252,11.2969542 C12.2817174,11.3043761 12.3013313,11.3126607 12.320499,11.321734 C12.3331234,11.3276717 12.3454308,11.3339125 12.3575942,11.3405144 C12.3834342,11.3545997 12.4086772,11.3703247 12.4328618,11.3874459 C12.4372276,11.3904633 12.4417339,11.3937294 12.4462117,11.3970518 C12.4790207,11.4218563 12.5050331,11.4444605 12.5293867,11.4687282 L15.5303301,14.4696699 Z M16.6786371,5.6258213 C18.0683805,6.72934482 18.8510636,8.3168528 18.8612461,9.96681229 L18.854,10.25 L19,10.25 C21.2781746,10.25 23.1376867,12.042507 23.245099,14.2940837 L23.2499999,14.5 C23.2499999,16.7781746 21.4574929,18.6376867 19.2059163,18.7450991 L19,18.75 L18,18.75 C17.5857864,18.75 17.25,18.4142136 17.25,18 C17.25,17.6203042 17.5321539,17.306509 17.8982294,17.2568466 L18,17.25 L19,17.25 C20.518783,17.25 21.7499999,16.0187831 21.7499999,14.5 C21.7499999,13.0374682 20.6082954,11.8415958 19.1675223,11.7550188 L19,11.75 L18,11.75 C17.5195313,11.75 17.1629784,11.3045406 17.2682092,10.8357372 C17.6009811,9.35323855 17.0277686,7.81842166 15.7458638,6.8005272 C14.4372624,5.76143439 12.5964599,5.42674302 10.9294159,5.93104554 C9.28109221,6.42968491 8.06779731,7.66735366 7.73179077,9.1642628 C7.65493253,9.50666628 7.35092355,9.75 7,9.75 C4.80869042,9.75 3.04545455,11.4365734 3.04545455,13.5 C3.04545455,15.5634266 4.80869042,17.25 7,17.25 C7.41421356,17.25 7.75,17.5857864 7.75,18 C7.75,18.4142136 7.41421356,18.75 7,18.75 C3.99481216,18.75 1.54545455,16.4071362 1.54545455,13.5 C1.54545455,10.810899 3.64118615,8.6046036 6.3340112,8.28878548 L6.426,8.279 L6.4720517,8.14611202 C7.07880404,6.5030642 8.46382916,5.18990461 10.249182,4.57481707 L10.495085,4.49530297 C12.6284147,3.84994297 14.9807884,4.27764729 16.6786371,5.6258213 Z" id="Icon-Color" fill="#212121"></path>
    </g>
</svg>