<?xml version="1.0" encoding="UTF-8"?>
<svg width="24px" height="24px" viewBox="0 0 24 24" version="1.1" xmlns="http://www.w3.org/2000/svg" xmlns:xlink="http://www.w3.org/1999/xlink">
    <title>Icon/code-minus</title>
    <g id="Icon/code-minus" stroke="none" stroke-width="1" fill="none" fill-rule="evenodd">
        <path d="M6,4.25 C6.41421356,4.25 6.75,4.58578644 6.75,5 C6.75,5.37969577 6.46784612,5.69349096 6.10177056,5.74315338 L6,5.75 C5.35279131,5.75 4.8204661,6.24187466 4.75645361,6.87219476 L4.75,7 L4.75,11 C4.75,11.1591299 4.69942872,11.3130458 4.60718623,11.4402609 L4.53033009,11.5303301 L4.061,12 L4.53033009,12.4696699 C4.64285191,12.5821917 4.71592756,12.726786 4.74065695,12.8819659 L4.75,13 L4.75,17 C4.75,17.6472087 5.24187466,18.1795339 5.87219476,18.2435464 L6,18.25 C6.41421356,18.25 6.75,18.5857864 6.75,19 C6.75,19.4142136 6.41421356,19.75 6,19.75 C4.53746816,19.75 3.34159572,18.6082954 3.25501879,17.1675223 L3.25,17 L3.25,13.311 L2.46966991,12.5303301 C2.20340335,12.2640635 2.1791973,11.8473998 2.39705176,11.5537883 L2.46966991,11.4696699 L3.25,10.688 L3.25,7 C3.25,5.53746816 4.3917046,4.34159572 5.83247767,4.25501879 L6,4.25 Z M18,4.25 C19.4625318,4.25 20.6584043,5.3917046 20.7449812,6.83247767 L20.75,7 L20.75,10.689 L21.5303301,11.4696699 C21.7965966,11.7359365 21.8208027,12.1526002 21.6029482,12.4462117 L21.5303301,12.5303301 L20.75,13.31 L20.75,17 C20.75,18.4625318 19.6082954,19.6584043 18.1675223,19.7449812 L18,19.75 C17.5857864,19.75 17.25,19.4142136 17.25,19 C17.25,18.6203042 17.5321539,18.306509 17.8982294,18.2568466 L18,18.25 C18.6472087,18.25 19.1795339,17.7581253 19.2435464,17.1278052 L19.25,17 L19.25,13 C19.25,12.8408701 19.3005713,12.6869542 19.3928138,12.5597391 L19.4696699,12.4696699 L19.939,12 L19.4696699,11.5303301 C19.3571481,11.4178083 19.2840724,11.273214 19.2593431,11.1180341 L19.25,11 L19.25,7 C19.25,6.35279131 18.7581253,5.8204661 18.1278052,5.75645361 L18,5.75 C17.5857864,5.75 17.25,5.41421356 17.25,5 C17.25,4.58578644 17.5857864,4.25 18,4.25 Z M15,11.25 C15.4142136,11.25 15.75,11.5857864 15.75,12 C15.75,12.3796958 15.4678461,12.693491 15.1017706,12.7431534 L15,12.75 L9,12.75 C8.58578644,12.75 8.25,12.4142136 8.25,12 C8.25,11.6203042 8.53215388,11.306509 8.89822944,11.2568466 L9,11.25 L15,11.25 Z" id="Icon-Color" fill="#212121"></path>
    </g>
</svg>