<?xml version="1.0" encoding="UTF-8"?>
<svg width="24px" height="24px" viewBox="0 0 24 24" version="1.1" xmlns="http://www.w3.org/2000/svg" xmlns:xlink="http://www.w3.org/1999/xlink">
    <title>Icon/code</title>
    <g id="Icon/code" stroke="none" stroke-width="1" fill="none" fill-rule="evenodd">
        <path d="M14.1819017,3.27239312 C14.5502607,3.36448287 14.7862544,3.71431886 14.7456477,4.08150923 L14.7276069,4.18190172 L10.7276069,20.1819017 C10.6271453,20.5837479 10.2199445,20.8280684 9.81809828,20.7276069 C9.44973928,20.6355171 9.21374559,20.2856811 9.25435233,19.9184908 L9.27239312,19.8180983 L13.2723931,3.81809828 C13.3728547,3.4162521 13.7800555,3.17193158 14.1819017,3.27239312 Z M7.53033009,7.46966991 C7.79659665,7.73593648 7.8208027,8.15260016 7.60294824,8.44621165 L7.53033009,8.53033009 L4.061,12 L7.53033009,15.4696699 C7.79659665,15.7359365 7.8208027,16.1526002 7.60294824,16.4462117 L7.53033009,16.5303301 C7.26406352,16.7965966 6.84739984,16.8208027 6.55378835,16.6029482 L6.46966991,16.5303301 L2.46966991,12.5303301 C2.20340335,12.2640635 2.1791973,11.8473998 2.39705176,11.5537883 L2.46966991,11.4696699 L6.46966991,7.46966991 C6.76256313,7.1767767 7.23743687,7.1767767 7.53033009,7.46966991 Z M17.4462117,7.39705176 L17.5303301,7.46966991 L21.5303301,11.4696699 C21.7965966,11.7359365 21.8208027,12.1526002 21.6029482,12.4462117 L21.5303301,12.5303301 L17.5303301,16.5303301 C17.2374369,16.8232233 16.7625631,16.8232233 16.4696699,16.5303301 C16.2034034,16.2640635 16.1791973,15.8473998 16.3970518,15.5537883 L16.4696699,15.4696699 L19.939,12 L16.4696699,8.53033009 C16.2034034,8.26406352 16.1791973,7.84739984 16.3970518,7.55378835 L16.4696699,7.46966991 C16.7359365,7.20340335 17.1526002,7.1791973 17.4462117,7.39705176 Z" id="Icon-Color" fill="#212121"></path>
    </g>
</svg>