<?xml version="1.0" encoding="UTF-8"?>
<svg width="24px" height="24px" viewBox="0 0 24 24" version="1.1" xmlns="http://www.w3.org/2000/svg" xmlns:xlink="http://www.w3.org/1999/xlink">
    <title>Icon/brand/codepen</title>
    <g id="Icon/brand/codepen" stroke="none" stroke-width="1" fill="none" fill-rule="evenodd">
        <path d="M11.8982294,21.7431534 C11.8864433,21.7414126 11.8784069,21.7401389 11.8703884,21.7387339 C11.8424678,21.7339578 11.81557,21.727675 11.7892704,21.7199903 C11.7819773,21.7176932 11.774227,21.7152938 11.7665085,21.7127658 C11.7411676,21.7046192 11.7171182,21.6952965 11.6937047,21.6848082 C11.6902139,21.683079 11.6859619,21.6811335 11.6817241,21.6791462 L11.650597,21.6638105 C11.6354008,21.6557954 11.6205133,21.6472737 11.6059569,21.638268 L11.5839749,21.6240377 L2.58397485,15.6240377 L2.54934032,15.5995589 C2.54464616,15.5960249 2.53999484,15.5924371 2.53538728,15.5887963 L2.52253699,15.5786414 L2.49626991,15.5557944 L2.48496172,15.5451957 C2.47462731,15.5354295 2.46457047,15.5253727 2.45480425,15.5150383 L2.4442056,15.5037301 L2.42135861,15.477463 L2.41120368,15.4646127 C2.40756294,15.4600052 2.40397512,15.4553538 2.40044115,15.4506597 L2.37596228,15.4160251 L2.36236724,15.395068 C2.3519571,15.3783018 2.34218981,15.3610948 2.3330998,15.3434814 L2.3212513,15.3192986 C2.2982015,15.2691662 2.28271015,15.2248443 2.27145917,15.1788586 L2.25857621,15.1142802 C2.25740763,15.105843 2.25712303,15.1038081 2.25684662,15.1017706 L2.25241175,15.0617892 L2.25,14.999 L2.25,8.999 C2.25028456,8.96536306 2.25207268,8.93664629 2.2553748,8.90911494 L2.25,9 C2.25,8.96336887 2.25262612,8.9273511 2.25770037,8.8921247 C2.25789206,8.89024713 2.25822887,8.88798307 2.25857621,8.88571984 L2.26288575,8.86083981 C2.26764338,8.8354828 2.2736771,8.8105757 2.2809177,8.78618773 L2.28222987,8.78181929 L2.28763115,8.76476527 C2.29610874,8.73907807 2.30593693,8.71400503 2.31703163,8.68963022 L2.3212513,8.68070135 L2.3330998,8.65651862 C2.34218981,8.6389052 2.3519571,8.62169818 2.36236724,8.60493201 L2.37596228,8.58397485 L2.40044115,8.54934032 C2.40397512,8.54464616 2.40756294,8.53999484 2.41120368,8.53538728 L2.42135861,8.52253699 L2.4442056,8.49626991 L2.45480425,8.48496172 C2.46457047,8.47462731 2.47462731,8.46457047 2.48496172,8.45480425 L2.49626991,8.4442056 L2.52253699,8.42135861 L2.53538728,8.41120368 C2.53999484,8.40756294 2.54464616,8.40397512 2.54934032,8.40044115 L2.58397485,8.37596228 L11.5839749,2.37596228 L11.6059569,2.36173202 C11.6205133,2.35272629 11.6354008,2.34420461 11.650597,2.33618945 L11.5839749,2.37596228 C11.61944,2.35231887 11.6564167,2.33200391 11.6944795,2.31501739 C11.7171182,2.30470354 11.7411676,2.2953808 11.7657791,2.28729736 C11.774227,2.28470615 11.7819773,2.28230683 11.7897562,2.28003624 C11.81557,2.27232501 11.8424678,2.26604217 11.8698774,2.26124753 C11.8784069,2.25986105 11.8864433,2.25858744 11.8944942,2.25744525 C11.9287366,2.25252609 11.9640733,2.25 12,2.25 C12.0359267,2.25 12.0712634,2.25252609 12.1058421,2.25741034 C12.1135384,2.25858454 12.1215839,2.25985945 12.1296116,2.26126608 C12.1575322,2.26604217 12.18443,2.27232501 12.2107296,2.28000971 C12.2180227,2.28230683 12.225773,2.28470615 12.2334915,2.28723421 C12.2588324,2.2953808 12.2828818,2.30470354 12.3062953,2.31519177 C12.3097861,2.31692105 12.3140381,2.31886651 12.3182759,2.32085378 L12.349403,2.33618945 C12.3645992,2.34420461 12.3794867,2.35272629 12.3940431,2.36173202 L12.4160251,2.37596228 L21.4160251,8.37596228 L21.4409986,8.39328796 C21.4529509,8.40199067 21.4646362,8.41103799 21.47604,8.42041529 L21.4160251,8.37596228 C21.4535412,8.40097301 21.4878967,8.42852108 21.5190914,8.45817894 C21.5301278,8.46924122 21.5410209,8.48034799 21.551563,8.49178338 C21.5654481,8.50601127 21.5778666,8.52051932 21.589637,8.5353878 C21.5924371,8.53999484 21.5960249,8.54464616 21.5995589,8.54934032 C21.6164181,8.57055131 21.6314033,8.59289348 21.6450563,8.61583513 C21.652385,8.6294279 21.6598465,8.6428509 21.6669002,8.65651862 C21.6755879,8.67216942 21.6830464,8.68809734 21.689916,8.70422583 C21.7155414,8.76495415 21.7339163,8.83014015 21.7431534,8.89822944 L21.75,9 L21.75,15 C21.75,15.1051404 21.7283651,15.2052277 21.6893044,15.296053 C21.6864192,15.3039839 21.6827698,15.3121417 21.6789679,15.320243 C21.6680089,15.3421678 21.656744,15.3632664 21.6445317,15.3837343 C21.6350922,15.4009079 21.6244186,15.4173316 21.6130354,15.4333906 C21.6052668,15.4431441 21.5979715,15.4529237 21.5904476,15.4625154 C21.5800594,15.4768002 21.5683843,15.4905885 21.556128,15.5040214 C21.5435064,15.5171088 21.5314109,15.5295289 21.5189006,15.5415198 C21.5143443,15.5463342 21.5095241,15.5507985 21.5046307,15.5552124 L21.4801495,15.576181 C21.4674481,15.5867769 21.4543909,15.5969608 21.4409986,15.606712 L21.4160251,15.6240377 L12.4160251,21.6240377 L12.3940431,21.638268 C12.3794867,21.6472737 12.3645992,21.6557954 12.349403,21.6638105 L12.4160251,21.6240377 C12.38056,21.6476811 12.3435833,21.6679961 12.3055205,21.6849826 C12.2828818,21.6952965 12.2588324,21.7046192 12.2342209,21.7127026 C12.225773,21.7152938 12.2180227,21.7176932 12.2102438,21.7199638 C12.18443,21.727675 12.1575322,21.7339578 12.1301226,21.7387525 C12.1215839,21.7401405 12.1135384,21.7414155 12.1054783,21.7425587 C12.1044861,21.7427812 12.1031289,21.7429691 12.1017706,21.7431534 L12,21.75 L12,21.75 L11.8982294,21.7431534 L11.8982294,21.7431534 Z M7.5,12.902 L4.353,15 L11.25,19.597 L11.25,15.402 L7.5,12.902 Z M16.499,12.902 L12.75,15.401 L12.75,19.597 L19.646,15 L16.499,12.902 Z M12,9.902 L8.853,12 L12,14.097 L15.146,12 L12,9.902 Z M20.25,10.402 L17.853,12 L20.25,13.598 L20.25,10.402 Z M3.75,10.402 L3.75,13.597 L6.146,12 L3.75,10.402 Z M11.25,4.402 L4.353,9 L7.499,11.097 L11.25,8.597 L11.25,4.402 Z M12.75,4.402 L12.75,8.598 L16.5,11.097 L19.646,9 L12.75,4.402 Z" id="Icon-Color" fill="#212121"></path>
    </g>
</svg>