<?xml version="1.0" encoding="UTF-8"?>
<svg width="24px" height="24px" viewBox="0 0 24 24" version="1.1" xmlns="http://www.w3.org/2000/svg" xmlns:xlink="http://www.w3.org/1999/xlink">
    <title>Icon/color-swatch</title>
    <g id="Icon/color-swatch" stroke="none" stroke-width="1" fill="none" fill-rule="evenodd">
        <path d="M19,2.25 C20.4625318,2.25 21.6584043,3.3917046 21.7449812,4.83247767 L21.75,5 L21.75,17 C21.75,19.6233526 19.6233526,21.75 17,21.75 L5,21.75 C3.53746816,21.75 2.34159572,20.6082954 2.25501879,19.1675223 L2.25,19 L2.25,15 C2.25,13.5374682 3.3917046,12.3415957 4.83247767,12.2550188 L5,12.25 L5.527,12.25 L4.81358984,11.53625 C3.78477077,10.5071202 3.74190331,8.86552939 4.68505793,7.78529067 L4.81366991,7.64766991 L7.64175,4.81958984 C8.67087982,3.79077077 10.3124706,3.74790331 11.3927093,4.69105793 L11.5303301,4.81966991 L12.25,5.539 L12.25,5 C12.25,3.53746816 13.3917046,2.34159572 14.8324777,2.25501879 L15,2.25 L19,2.25 Z M7.027,13.75 L5,13.75 C4.35279131,13.75 3.8204661,14.2418747 3.75645361,14.8721948 L3.75,15 L3.75,19 C3.75,19.6472087 4.24187466,20.1795339 4.87219476,20.2435464 L5,20.25 L13.527,20.25 L7.027,13.75 Z M19,3.75 L15,3.75 C14.3527913,3.75 13.8204661,4.24187466 13.7564536,4.87219476 L13.75,5 L13.75,17 C13.75,18.7949254 15.2050746,20.25 17,20.25 C18.7330315,20.25 20.1492459,18.8935452 20.2448552,17.1844239 L20.25,17 L20.25,5 C20.25,4.35279131 19.7581253,3.8204661 19.1278052,3.75645361 L19,3.75 Z M17,16.25 C17.3796958,16.25 17.693491,16.5321539 17.7431534,16.8982294 L17.75,17.01 C17.75,17.4242136 17.4142136,17.76 17,17.76 C16.6203042,17.76 16.306509,17.4778461 16.2568466,17.1117706 L16.25,17 C16.25,16.5857864 16.5857864,16.25 17,16.25 Z M8.80380212,5.78925594 L8.70233009,5.88033009 L5.87441016,8.70825 C5.41896456,9.16383316 5.38860153,9.88347236 5.78325594,10.3741979 L5.87433009,10.4756699 L12.25,16.851 L12.25,7.661 L10.46975,5.88041016 C10.0141668,5.42496456 9.29452764,5.39460153 8.80380212,5.78925594 Z" id="Icon-Color" fill="#212121"></path>
    </g>
</svg>