<?xml version="1.0" encoding="UTF-8"?>
<svg width="24px" height="24px" viewBox="0 0 24 24" version="1.1" xmlns="http://www.w3.org/2000/svg" xmlns:xlink="http://www.w3.org/1999/xlink">
    <title>Icon/color-picker</title>
    <g id="Icon/color-picker" stroke="none" stroke-width="1" fill="none" fill-rule="evenodd">
        <path d="M15.175,3.76439287 C15.8554761,3.09739283 16.9445239,3.09739283 17.625,3.76439287 L17.625,3.76439287 L20.2356071,6.375 C20.9026072,7.05547614 20.9026072,8.14452386 20.2303301,8.83033009 L20.2303301,8.83033009 L17.061,12.0001428 L17.5303301,12.4696699 C17.8232233,12.7625631 17.8232233,13.2374369 17.5303301,13.5303301 C17.2640635,13.7965966 16.8473998,13.8208027 16.5537883,13.6029482 L16.4696699,13.5303301 L16,13.0611428 L8.53033009,20.5303301 C8.41780826,20.6428519 8.27321402,20.7159276 8.11803406,20.7406569 L8,20.75 L4,20.75 C3.58578644,20.75 3.25,20.4142136 3.25,20 L3.25,20 L3.25,16 C3.25,15.8010876 3.32901763,15.6103222 3.46966991,15.4696699 L3.46966991,15.4696699 L10.939,8.00014284 L10.4696699,7.53033009 C10.1767767,7.23743687 10.1767767,6.76256313 10.4696699,6.46966991 C10.7359365,6.20340335 11.1526002,6.1791973 11.4462117,6.39705176 L11.5303301,6.46966991 L12,6.93914284 Z M11.999,9.06014284 L4.75,16.31 L4.75,19.25 L7.688,19.25 L14.938,11.9991428 L11.999,9.06014284 Z M16.575,4.83560713 C16.4777891,4.74032141 16.3222109,4.74032141 16.2303301,4.83033009 L16.2303301,4.83033009 L13.06,7.99914284 L15.999,10.9381428 L19.1643929,7.775 C19.2279167,7.71019275 19.2490913,7.61944444 19.2294802,7.53892244 L19.2071491,7.48101349 L19.1696699,7.43033009 Z" id="Icon-Color" fill="#212121"></path>
    </g>
</svg>