<?xml version="1.0" encoding="UTF-8"?>
<svg width="24px" height="24px" viewBox="0 0 24 24" version="1.1" xmlns="http://www.w3.org/2000/svg" xmlns:xlink="http://www.w3.org/1999/xlink">
    <title>Icon/columns</title>
    <g id="Icon/columns" stroke="none" stroke-width="1" fill="none" fill-rule="evenodd">
        <path d="M9.5,17.25 C9.91421356,17.25 10.25,17.5857864 10.25,18 C10.25,18.3796958 9.96784612,18.693491 9.60177056,18.7431534 L9.5,18.75 L4,18.75 C3.58578644,18.75 3.25,18.4142136 3.25,18 C3.25,17.6203042 3.53215388,17.306509 3.89822944,17.2568466 L4,17.25 L9.5,17.25 Z M20,17.25 C20.4142136,17.25 20.75,17.5857864 20.75,18 C20.75,18.3796958 20.4678461,18.693491 20.1017706,18.7431534 L20,18.75 L14.5,18.75 C14.0857864,18.75 13.75,18.4142136 13.75,18 C13.75,17.6203042 14.0321539,17.306509 14.3982294,17.2568466 L14.5,17.25 L20,17.25 Z M9.5,13.25 C9.91421356,13.25 10.25,13.5857864 10.25,14 C10.25,14.3796958 9.96784612,14.693491 9.60177056,14.7431534 L9.5,14.75 L4,14.75 C3.58578644,14.75 3.25,14.4142136 3.25,14 C3.25,13.6203042 3.53215388,13.306509 3.89822944,13.2568466 L4,13.25 L9.5,13.25 Z M20,13.25 C20.4142136,13.25 20.75,13.5857864 20.75,14 C20.75,14.3796958 20.4678461,14.693491 20.1017706,14.7431534 L20,14.75 L14.5,14.75 C14.0857864,14.75 13.75,14.4142136 13.75,14 C13.75,13.6203042 14.0321539,13.306509 14.3982294,13.2568466 L14.5,13.25 L20,13.25 Z M9.5,9.25 C9.91421356,9.25 10.25,9.58578644 10.25,10 C10.25,10.3796958 9.96784612,10.693491 9.60177056,10.7431534 L9.5,10.75 L4,10.75 C3.58578644,10.75 3.25,10.4142136 3.25,10 C3.25,9.62030423 3.53215388,9.30650904 3.89822944,9.25684662 L4,9.25 L9.5,9.25 Z M20,9.25 C20.4142136,9.25 20.75,9.58578644 20.75,10 C20.75,10.3796958 20.4678461,10.693491 20.1017706,10.7431534 L20,10.75 L14.5,10.75 C14.0857864,10.75 13.75,10.4142136 13.75,10 C13.75,9.62030423 14.0321539,9.30650904 14.3982294,9.25684662 L14.5,9.25 L20,9.25 Z M9.5,5.25 C9.91421356,5.25 10.25,5.58578644 10.25,6 C10.25,6.37969577 9.96784612,6.69349096 9.60177056,6.74315338 L9.5,6.75 L4,6.75 C3.58578644,6.75 3.25,6.41421356 3.25,6 C3.25,5.62030423 3.53215388,5.30650904 3.89822944,5.25684662 L4,5.25 L9.5,5.25 Z M20,5.25 C20.4142136,5.25 20.75,5.58578644 20.75,6 C20.75,6.37969577 20.4678461,6.69349096 20.1017706,6.74315338 L20,6.75 L14.5,6.75 C14.0857864,6.75 13.75,6.41421356 13.75,6 C13.75,5.62030423 14.0321539,5.30650904 14.3982294,5.25684662 L14.5,5.25 L20,5.25 Z" id="Icon-Color" fill="#212121"></path>
    </g>
</svg>