<?xml version="1.0" encoding="UTF-8"?>
<svg width="24px" height="24px" viewBox="0 0 24 24" version="1.1" xmlns="http://www.w3.org/2000/svg" xmlns:xlink="http://www.w3.org/1999/xlink">
    <title>Icon/copy</title>
    <g id="Icon/copy" stroke="none" stroke-width="1" fill="none" fill-rule="evenodd">
        <path d="M14,3.25 C15.4625318,3.25 16.6584043,4.3917046 16.7449812,5.83247767 L16.75,6 L16.75,7.25 L18,7.25 C19.4625318,7.25 20.6584043,8.3917046 20.7449812,9.83247767 L20.75,10 L20.75,18 C20.75,19.5187831 19.5187831,20.75 18,20.75 L18,20.75 L10,20.75 C8.48121694,20.75 7.25,19.5187831 7.25,18 L7.25,18 L7.25,16.75 L6,16.75 C4.53746816,16.75 3.34159572,15.6082954 3.25501879,14.1675223 L3.25,14 L3.25,6 C3.25,4.53746816 4.3917046,3.34159572 5.83247767,3.25501879 L6,3.25 L14,3.25 Z M18,8.75 L10,8.75 C9.30964406,8.75 8.75,9.30964406 8.75,10 L8.75,10 L8.75,18 C8.75,18.6903559 9.30964406,19.25 10,19.25 L10,19.25 L18,19.25 C18.6903559,19.25 19.25,18.6903559 19.25,18 L19.25,18 L19.25,10 C19.25,9.30964406 18.6903559,8.75 18,8.75 L18,8.75 Z M14.1278052,4.75645361 L14,4.75 L6,4.75 C5.35279131,4.75 4.8204661,5.24187466 4.75645361,5.87219476 L4.75,6 L4.75,14 C4.75,14.6472087 5.24187466,15.1795339 5.87219476,15.2435464 L6,15.25 L7.25,15.25 L7.25,10 C7.25,8.53746816 8.3917046,7.34159572 9.83247767,7.25501879 L10,7.25 L15.25,7.25 L15.25,6 C15.25,5.35279131 14.7581253,4.8204661 14.1278052,4.75645361 Z" id="Icon-Color" fill="#212121"></path>
    </g>
</svg>