<?xml version="1.0" encoding="UTF-8"?>
<svg width="24px" height="24px" viewBox="0 0 24 24" version="1.1" xmlns="http://www.w3.org/2000/svg" xmlns:xlink="http://www.w3.org/1999/xlink">
    <title>Icon/corner-down-left-double</title>
    <g id="Icon/corner-down-left-double" stroke="none" stroke-width="1" fill="none" fill-rule="evenodd">
        <path d="M19,4.25 C19.3796958,4.25 19.693491,4.53215388 19.7431534,4.89822944 L19.75,5 L19.75,11 C19.75,13.0042592 18.1776389,14.6412737 16.1991586,14.744802 L16,14.75 L10.812,14.75 L13.5303301,17.4696699 C13.7965966,17.7359365 13.8208027,18.1526002 13.6029482,18.4462117 L13.5303301,18.5303301 C13.2640635,18.7965966 12.8473998,18.8208027 12.5537883,18.6029482 L12.4696699,18.5303301 L8.46966991,14.5303301 L8.44843704,14.5082166 C8.43096737,14.4892665 8.41446189,14.469414 8.39899844,14.448737 L8.46966991,14.5303301 C8.43261664,14.4932768 8.40025089,14.4533111 8.37257267,14.4111698 C8.35940783,14.3910149 8.34702767,14.3700275 8.33567096,14.3484182 C8.33083742,14.3392964 8.32648082,14.3305656 8.32230508,14.3217704 C8.30955796,14.2949819 8.29805336,14.2665221 8.28830293,14.2372605 C8.28604456,14.2303168 8.28412011,14.2242456 8.2822748,14.2181555 C8.26135317,14.1496769 8.25,14.0761643 8.25,14 C8.25,13.9616078 8.25288471,13.9238893 8.25844919,13.8870495 C8.26081465,13.8717746 8.26363519,13.8563825 8.26693903,13.8410738 C8.27143932,13.8199279 8.27684462,13.7992889 8.28308617,13.7790163 C8.28671273,13.7673565 8.29074464,13.7553071 8.29509073,13.743346 C8.30357499,13.7200484 8.31287686,13.6979798 8.32317314,13.6764782 C8.32866533,13.6648771 8.33496828,13.6525401 8.34163501,13.640349 C8.35487024,13.6163332 8.36897543,13.5936098 8.38421622,13.5717366 C8.38813751,13.5659949 8.39254279,13.5598653 8.39705176,13.5537883 C8.42217116,13.5205706 8.44507007,13.4942698 8.46966991,13.4696699 L12.4696699,9.46966991 C12.7625631,9.1767767 13.2374369,9.1767767 13.5303301,9.46966991 C13.7965966,9.73593648 13.8208027,10.1526002 13.6029482,10.4462117 L13.5303301,10.5303301 L10.81,13.25 L16,13.25 C17.190864,13.25 18.1656449,12.3248384 18.2448092,11.1540488 L18.25,11 L18.25,5 C18.25,4.58578644 18.5857864,4.25 19,4.25 Z M8.53033009,9.46966991 C8.79659665,9.73593648 8.8208027,10.1526002 8.60294824,10.4462117 L8.53033009,10.5303301 L5.061,14 L8.53033009,17.4696699 C8.79659665,17.7359365 8.8208027,18.1526002 8.60294824,18.4462117 L8.53033009,18.5303301 C8.26406352,18.7965966 7.84739984,18.8208027 7.55378835,18.6029482 L7.46966991,18.5303301 L3.46966991,14.5303301 C3.20340335,14.2640635 3.1791973,13.8473998 3.39705176,13.5537883 L3.46966991,13.4696699 L7.46966991,9.46966991 C7.76256313,9.1767767 8.23743687,9.1767767 8.53033009,9.46966991 Z" id="Icon-Color" fill="#212121"></path>
    </g>
</svg>