<?xml version="1.0" encoding="UTF-8"?>
<svg width="24px" height="24px" viewBox="0 0 24 24" version="1.1" xmlns="http://www.w3.org/2000/svg" xmlns:xlink="http://www.w3.org/1999/xlink">
    <title>Icon/credit-card-off</title>
    <g id="Icon/credit-card-off" stroke="none" stroke-width="1" fill="none" fill-rule="evenodd">
        <path d="M3.44621165,2.39705176 L3.53033009,2.46966991 L21.5303301,20.4696699 C21.8232233,20.7625631 21.8232233,21.2374369 21.5303301,21.5303301 C21.2640635,21.7965966 20.8473998,21.8208027 20.5537883,21.6029482 L20.4696699,21.5303301 L18.6348268,19.6964071 C18.4976521,19.7198597 18.359261,19.7356634 18.2203367,19.7437238 L18,19.7500015 L6,19.7500015 C3.995741,19.7500015 2.35872627,18.1776392 2.25519801,16.1991586 L2.25,16 L2.25,8 C2.25,6.74127091 2.87538536,5.60464648 3.85950387,4.92003025 L2.46966991,3.53033009 C2.1767767,3.23743687 2.1767767,2.76256313 2.46966991,2.46966991 C2.73593648,2.20340335 3.15260016,2.1791973 3.44621165,2.39705176 Z M10.689,11.75 L3.749,11.75 L3.75,16 C3.75,17.1908644 4.67516197,18.1656464 5.84595124,18.2448107 L6,18.2500015 L17.189,18.25 L13.7156435,14.774932 C13.7379658,14.8459799 13.75,14.9215846 13.75,15 C13.75,15.3796958 13.4678461,15.693491 13.1017706,15.7431534 L13,15.75 L11,15.75 C10.5857864,15.75 10.25,15.4142136 10.25,15 C10.25,14.6203042 10.5321539,14.306509 10.8982294,14.2568466 L11,14.25 L13,14.25 C13.0784154,14.25 13.1540201,14.2620342 13.225068,14.2843565 L10.689,11.75 Z M18,4.25 C20.0042592,4.25 21.6412737,5.82236105 21.744802,7.80084143 L21.75,8 L21.75,15.9992407 C21.7503726,16.3676319 21.6964602,16.7340676 21.5899996,17.0867407 C21.470297,17.483281 21.0517995,17.7077022 20.6552593,17.5879996 C20.258719,17.468297 20.0342978,17.0497995 20.1540004,16.6532593 C20.2019076,16.4945563 20.2320799,16.3312086 20.2440772,16.1658843 L20.25,16 L20.25,11.75 L15,11.75 C14.5857864,11.75 14.25,11.4142136 14.25,11 C14.25,10.6203042 14.5321539,10.306509 14.8982294,10.2568466 L15,10.25 L20.25,10.25 L20.25,8 C20.25,6.80913601 19.3248384,5.83435508 18.1540488,5.75519081 L18,5.75 L9,5.75 C8.58578644,5.75 8.25,5.41421356 8.25,5 C8.25,4.62030423 8.53215388,4.30650904 8.89822944,4.25684662 L9,4.25 L18,4.25 Z M7.01,14.25 C7.42421356,14.25 7.76,14.5857864 7.76,15 C7.76,15.3796958 7.47784612,15.693491 7.11177056,15.7431534 L7,15.75 C6.58578644,15.75 6.25,15.4142136 6.25,15 C6.25,14.6203042 6.53215388,14.306509 6.89822944,14.2568466 L7.01,14.25 Z M3.75671278,7.82549319 L3.75,8 L3.749,10.25 L9.189,10.25 L4.94869454,6.00980149 C4.27577151,6.36542401 3.81680478,7.04680573 3.75671278,7.82549319 Z" id="Icon-Color" fill="#212121"></path>
    </g>
</svg>