<?xml version="1.0" encoding="UTF-8"?>
<svg width="24px" height="24px" viewBox="0 0 24 24" version="1.1" xmlns="http://www.w3.org/2000/svg" xmlns:xlink="http://www.w3.org/1999/xlink">
    <title>Icon/crop</title>
    <g id="Icon/crop" stroke="none" stroke-width="1" fill="none" fill-rule="evenodd">
        <path d="M8,4.25 C8.37969577,4.25 8.69349096,4.53215388 8.74315338,4.89822944 L8.75,5 L8.75,7.25 L15,7.25 C15.9181734,7.25 16.6711923,7.95711027 16.7441988,8.85647279 L16.75,9 L16.75,15.25 L19,15.25 C19.4142136,15.25 19.75,15.5857864 19.75,16 C19.75,16.3796958 19.4678461,16.693491 19.1017706,16.7431534 L19,16.75 L16.75,16.75 L16.75,19 C16.75,19.4142136 16.4142136,19.75 16,19.75 C15.6203042,19.75 15.306509,19.4678461 15.2568466,19.1017706 L15.25,19 L15.25,16.75 L9,16.75 C8.0818266,16.75 7.32880766,16.0428897 7.2558012,15.1435272 L7.25,15 L7.25,8.75 L5,8.75 C4.58578644,8.75 4.25,8.41421356 4.25,8 C4.25,7.62030423 4.53215388,7.30650904 4.89822944,7.25684662 L5,7.25 L7.25,7.25 L7.25,5 C7.25,4.58578644 7.58578644,4.25 8,4.25 Z M8.75,8.75 L8.75,15 C8.75,15.1183467 8.83223341,15.2174868 8.94267729,15.2433973 L9,15.25 L15.25,15.25 L15.25,9 C15.25,8.88165327 15.1677666,8.78251318 15.0573227,8.75660268 L15,8.75 L8.75,8.75 Z" id="Combined-Shape" fill="#212121"></path>
    </g>
</svg>