<?xml version="1.0" encoding="UTF-8"?>
<svg width="24px" height="24px" viewBox="0 0 24 24" version="1.1" xmlns="http://www.w3.org/2000/svg" xmlns:xlink="http://www.w3.org/1999/xlink">
    <title>Icon/crown</title>
    <g id="Icon/crown" stroke="none" stroke-width="1" fill="none" fill-rule="evenodd">
        <path d="M11.3759623,5.58397485 L7.829,10.903 L3.46852129,7.41434839 C2.92190469,6.97705512 2.12728108,7.46067005 2.26456449,8.1470871 L4.26456449,18.1470871 C4.33467812,18.4976552 4.64248923,18.75 5,18.75 L19,18.75 C19.3575108,18.75 19.6653219,18.4976552 19.7354355,18.1470871 L21.7354355,8.1470871 L21.7491862,8.04573532 C21.7938766,7.41461082 21.0507645,6.99891978 20.5314787,7.41434839 L16.17,10.903 L12.6240377,5.58397485 C12.3271712,5.13867505 11.6728288,5.13867505 11.3759623,5.58397485 Z M12,7.353 L15.3759623,12.4160251 L15.4421542,12.5014913 C15.7030105,12.7926223 16.1536761,12.8375277 16.4685213,12.5856516 L19.86,9.871 L18.384,17.25 L5.615,17.25 L4.139,9.871 L7.53147871,12.5856516 C7.87494616,12.8604256 8.3800512,12.7820049 8.62403772,12.4160251 L12,7.353 Z" id="Icon-Color" fill="#212121"></path>
    </g>
</svg>