<?xml version="1.0" encoding="UTF-8"?>
<svg width="24px" height="24px" viewBox="0 0 24 24" version="1.1" xmlns="http://www.w3.org/2000/svg" xmlns:xlink="http://www.w3.org/1999/xlink">
    <title>Icon/brand/css3</title>
    <g id="Icon/brand/css3" stroke="none" stroke-width="1" fill="none" fill-rule="evenodd">
        <path d="M20,3.25 C20.4549535,3.25 20.8051295,3.65179149 20.7429658,4.10247805 L20.7429658,4.10247805 L18.7429658,18.602478 C18.7039716,18.8851861 18.5079105,19.1212659 18.2371708,19.2115125 L18.2371708,19.2115125 L12.2371708,21.2115125 C12.0832207,21.2628292 11.9167793,21.2628292 11.7628292,21.2115125 L11.7628292,21.2115125 L5.76282918,19.2115125 C5.4920895,19.1212659 5.29602837,18.8851861 5.25703415,18.602478 L5.25703415,18.602478 L3.25703415,4.10247805 C3.19487049,3.65179149 3.54504649,3.25 4,3.25 L4,3.25 Z M19.139,4.75 L4.86,4.75 L6.678,17.935 L12,19.709 L17.321,17.935 L19.139,4.75 Z M15.5,7.25 C16.1533411,7.25 16.4785886,8.01502284 16.0727509,8.48512 L15.9982729,8.56055699 L12.972,11.25 L15,11.25 C15.4213034,11.25 15.7524445,11.5944422 15.7501288,12.0028058 L15.7424621,12.106066 L15.2424621,15.606066 C15.2062941,15.8592419 15.0443136,16.0738529 14.8168356,16.1798141 L14.7155109,16.2183697 L12.2155109,16.9683697 C12.1100766,17 11.9994197,17.0079076 11.8913741,16.9920924 L11.7844891,16.9683697 L9.28448909,16.2183697 C9.05210008,16.148653 8.86995877,15.9717233 8.79162459,15.7464306 L8.76456449,15.6470871 L8.66456449,15.1470871 C8.58333053,14.7409173 8.84674308,14.3457985 9.2529129,14.2645645 C9.62523523,14.1901 9.98827166,14.4052344 10.108763,14.7544614 L10.1354355,14.8529129 L10.147,14.911 L12,15.466 L13.825,14.919 L14.135,12.75 L11,12.75 C10.3466589,12.75 10.0214114,11.9849772 10.4272491,11.51488 L10.5017271,11.439443 L13.526,8.75 L8.5,8.75 C8.12030423,8.75 7.80650904,8.46784612 7.75684662,8.10177056 L7.75,8 C7.75,7.62030423 8.03215388,7.30650904 8.39822944,7.25684662 L8.5,7.25 L15.5,7.25 Z" id="Icon-Color" fill="#212121"></path>
    </g>
</svg>