<?xml version="1.0" encoding="UTF-8"?>
<svg width="24px" height="24px" viewBox="0 0 24 24" version="1.1" xmlns="http://www.w3.org/2000/svg" xmlns:xlink="http://www.w3.org/1999/xlink">
    <title>Icon/curly-loop</title>
    <g id="Icon/curly-loop" stroke="none" stroke-width="1" fill="none" fill-rule="evenodd">
        <path d="M21,7.25 C21.4142136,7.25 21.75,7.58578644 21.75,8 C21.75,8.41421356 21.4142136,8.75 21,8.75 C20.259473,8.75 19.5651568,8.82132622 18.9281882,8.95518293 L18.805,8.983 L18.8237516,8.99637677 C20.0317819,9.9228101 20.6911875,11.1995266 20.7462436,12.7822776 L20.75,13 C20.75,15.0710678 19.0710678,16.75 17,16.75 C14.9289322,16.75 13.25,15.0710678 13.25,13 C13.25,11.4264704 13.9452832,10.0874436 15.1260193,9.09850922 L15.198,9.039 C14.367502,8.86578931 13.4133025,8.76867119 12.3291471,8.75243783 L12,8.75 C10.9314665,8.75 9.98349265,8.82545476 9.1544645,8.97133409 L8.801,9.039 L8.87398066,9.09850922 C10.001047,10.042492 10.6857894,11.305464 10.7457101,12.7868922 L10.75,13 C10.75,15.0710678 9.07106779,16.75 7,16.75 C4.92893221,16.75 3.25,15.0710678 3.25,13 C3.25,11.4098535 3.84165407,10.1161013 4.97132138,9.16133701 L5.194,8.983 L5.07181181,8.95518293 C4.51446425,8.83805831 3.91320997,8.76880859 3.27550974,8.75332624 L3,8.75 C2.58578644,8.75 2.25,8.41421356 2.25,8 C2.25,7.58578644 2.58578644,7.25 3,7.25 C4.34552189,7.25 5.58723804,7.46274972 6.6645053,7.85484255 L7.035,7.999 L7.15838565,7.95433186 C8.39130673,7.51880329 9.90101194,7.27918678 11.6660654,7.25250362 L12,7.25 C13.9091937,7.25 15.5316357,7.49158276 16.8416143,7.95433186 L16.964,7.999 L17.0173086,7.97781728 C18.0936975,7.53682654 19.3514232,7.28301028 20.7239777,7.25300587 L21,7.25 Z M6.989,9.632 L6.88617494,9.68225597 C5.45371837,10.4100085 4.75,11.5419184 4.75,13 C4.75,14.2426407 5.75735933,15.25 7,15.25 C8.24264067,15.25 9.25,14.2426407 9.25,13 C9.25,11.6432356 8.47942206,10.493287 7.16987603,9.7330781 L6.989,9.632 Z M17.01,9.632 L16.830124,9.7330781 C15.5205779,10.493287 14.75,11.6432356 14.75,13 C14.75,14.2426407 15.7573593,15.25 17,15.25 C18.2426407,15.25 19.25,14.2426407 19.25,13 C19.25,11.5419184 18.5462816,10.4100085 17.1138251,9.68225597 L17.01,9.632 Z" id="Icon-Color" fill="#212121"></path>
    </g>
</svg>