<?xml version="1.0" encoding="UTF-8"?>
<svg width="24px" height="24px" viewBox="0 0 24 24" version="1.1" xmlns="http://www.w3.org/2000/svg" xmlns:xlink="http://www.w3.org/1999/xlink">
    <title>Icon/currency-bath</title>
    <g id="Icon/currency-bath" stroke="none" stroke-width="1" fill="none" fill-rule="evenodd">
        <path d="M11,3.25 C11.3796958,3.25 11.693491,3.53215388 11.7431534,3.89822944 L11.75,4 L11.75,5.249 L13,5.25 C15.0042592,5.25 16.6412737,6.82236105 16.744802,8.80084143 L16.75,9 L16.75,9.143 C16.75,10.3275595 16.1789904,11.3787525 15.2972076,12.0363429 C16.1320008,12.6834983 16.6859739,13.6766043 16.744802,14.8008414 L16.75,15 L16.75,15.143 C16.75,17.0708301 15.2375983,18.6454198 13.334564,18.7450002 L13.143,18.75 L11.75,18.75 L11.75,20 C11.75,20.4142136 11.4142136,20.75 11,20.75 C10.6203042,20.75 10.306509,20.4678461 10.2568466,20.1017706 L10.25,20 L10.25,18.75 L8,18.75 C7.58578644,18.75 7.25,18.4142136 7.25,18 L7.25,6 C7.25,5.62030423 7.53215388,5.30650904 7.89822944,5.25684662 L8,5.25 L10.25,5.249 L10.25,4 C10.25,3.58578644 10.5857864,3.25 11,3.25 Z M13,12.75 L8.75,12.75 L8.75,17.25 L13.143,17.25 C14.2560699,17.25 15.1675543,16.3869099 15.2447097,15.2934733 L15.25,15.143 L15.25,15 C15.25,13.809136 14.3248384,12.8343551 13.1540488,12.7551908 L13,12.75 Z M10.985,6.749 L8.75,6.749 L8.75,11.25 L13.143,11.25 C14.2560699,11.25 15.1675543,10.3869099 15.2447097,9.29347334 L15.25,9.143 L15.25,9 C15.25,7.80913601 14.3248384,6.83435508 13.1540488,6.75519081 L13,6.75 L11.0143221,6.74986599 C11.0095588,6.7499552 11.0047846,6.75 11,6.75 L10.985,6.749 Z" id="Combined-Shape" fill="#212121"></path>
    </g>
</svg>