<?xml version="1.0" encoding="UTF-8"?>
<svg width="24px" height="24px" viewBox="0 0 24 24" version="1.1" xmlns="http://www.w3.org/2000/svg" xmlns:xlink="http://www.w3.org/1999/xlink">
    <title>Icon/currency-riyal</title>
    <g id="Icon/currency-riyal" stroke="none" stroke-width="1" fill="none" fill-rule="evenodd">
        <path d="M15,8.25 C15.3796958,8.25 15.693491,8.53215388 15.7431534,8.89822944 L15.75,9 L15.75,11 C15.75,12.5187831 14.5187831,13.75 13,13.75 C12.2781093,13.75 11.621185,13.4718456 11.1305573,13.0168668 L11,12.887 C10.5335283,13.3810804 9.88790887,13.7016927 9.16752233,13.7449812 L9,13.75 C8.5499902,13.75 8.12522627,13.6419096 7.75025471,13.4502754 L7.75,14 C7.75,15.5187831 6.51878306,16.75 5,16.75 C3.53746816,16.75 2.34159572,15.6082954 2.25501879,14.1675223 L2.25,14 L2.25,12 C2.25,11.5857864 2.58578644,11.25 3,11.25 C3.37969577,11.25 3.69349096,11.5321539 3.74315338,11.8982294 L3.75,12 L3.75,14 C3.75,14.6903559 4.30964406,15.25 5,15.25 C5.64720869,15.25 6.1795339,14.7581253 6.24354639,14.1278052 L6.25,14 L6.25,10 L6.25759549,9.88020833 C6.36740451,9.03993056 7.63259549,9.03993056 7.74240451,9.88020833 L7.75,10 L7.75,11 C7.75,11.6472087 8.24187466,12.1795339 8.87219476,12.2435464 L9,12.25 C9.64720869,12.25 10.1795339,11.7581253 10.2435464,11.1278052 L10.25,11 L10.25,10 L10.2575955,9.88020833 C10.3674045,9.03993056 11.6325955,9.03993056 11.7424045,9.88020833 L11.75,10 L11.75,11 C11.75,11.6472087 12.2418747,12.1795339 12.8721948,12.2435464 L13,12.25 C13.6472087,12.25 14.1795339,11.7581253 14.2435464,11.1278052 L14.25,11 L14.25,9 C14.25,8.58578644 14.5857864,8.25 15,8.25 Z M22,9.25 C22.3796958,9.25 22.693491,9.53215388 22.7431534,9.89822944 L22.75,10 L22.75,11 C22.75,14.1756373 20.1756373,16.75 17,16.75 C16.5857864,16.75 16.25,16.4142136 16.25,16 C16.25,15.5857864 16.5857864,15.25 17,15.25 C19.2781746,15.25 21.1376867,13.457493 21.2450991,11.2059163 L21.25,11 L21.25,10 C21.25,9.58578644 21.5857864,9.25 22,9.25 Z M18,11.25 C18.3796958,11.25 18.693491,11.5321539 18.7431534,11.8982294 L18.75,12.01 C18.75,12.4242136 18.4142136,12.76 18,12.76 C17.6203042,12.76 17.306509,12.4778461 17.2568466,12.1117706 L17.25,12 C17.25,11.5857864 17.5857864,11.25 18,11.25 Z" id="Icon-Color" fill="#212121"></path>
    </g>
</svg>