<?xml version="1.0" encoding="UTF-8"?>
<svg width="24px" height="24px" viewBox="0 0 24 24" version="1.1" xmlns="http://www.w3.org/2000/svg" xmlns:xlink="http://www.w3.org/1999/xlink">
    <title>Icon/currency-bitcoin</title>
    <g id="Icon/currency-bitcoin" stroke="none" stroke-width="1" fill="none" fill-rule="evenodd">
        <path d="M13,2.25 C13.3796958,2.25 13.693491,2.53215388 13.7431534,2.89822944 L13.75,3 L13.75,5.25 L14,5.25 C16.0710678,5.25 17.75,6.92893219 17.75,9 C17.75,10.2025555 17.18395,11.272903 16.3037583,11.9591341 L16.248,12 L16.3037583,12.0408659 C17.1350505,12.6889731 17.686136,13.6797025 17.744802,14.8008414 L17.75,15 C17.75,17.0042592 16.1776389,18.6412737 14.1991586,18.744802 L14,18.75 L13.75,18.75 L13.75,21 C13.75,21.4142136 13.4142136,21.75 13,21.75 C12.6203042,21.75 12.306509,21.4678461 12.2568466,21.1017706 L12.25,21 L12.25,18.75 L9.75,18.75 L9.75,21 C9.75,21.4142136 9.41421356,21.75 9,21.75 C8.62030423,21.75 8.30650904,21.4678461 8.25684662,21.1017706 L8.25,21 L8.25,18.75 L6,18.75 C5.58578644,18.75 5.25,18.4142136 5.25,18 C5.25,17.6203042 5.53215388,17.306509 5.89822944,17.2568466 L6,17.25 L7.25,17.25 L7.25,6.75 L6,6.75 C5.58578644,6.75 5.25,6.41421356 5.25,6 C5.25,5.62030423 5.53215388,5.30650904 5.89822944,5.25684662 L6,5.25 L8.25,5.25 L8.25,3 C8.25,2.58578644 8.58578644,2.25 9,2.25 C9.37969577,2.25 9.69349096,2.53215388 9.74315338,2.89822944 L9.75,3 L9.75,5.25 L12.25,5.25 L12.25,3 C12.25,2.58578644 12.5857864,2.25 13,2.25 Z M14,12.75 L8.75,12.75 L8.75,17.25 L14,17.25 C15.2426407,17.25 16.25,16.2426407 16.25,15 C16.25,13.809136 15.3248384,12.8343551 14.1540488,12.7551908 L14,12.75 Z M14,6.75 L8.75,6.75 L8.75,11.25 L14,11.25 L14.012,11.251 L14.1540488,11.2448092 C15.3248384,11.1656449 16.25,10.190864 16.25,9 C16.25,7.80913601 15.3248384,6.83435508 14.1540488,6.75519081 L14,6.75 Z" id="Icon-Color" fill="#212121"></path>
    </g>
</svg>