<?xml version="1.0" encoding="UTF-8"?>
<svg width="24px" height="24px" viewBox="0 0 24 24" version="1.1" xmlns="http://www.w3.org/2000/svg" xmlns:xlink="http://www.w3.org/1999/xlink">
    <title>Icon/current-location</title>
    <g id="Icon/current-location" stroke="none" stroke-width="1" fill="none" fill-rule="evenodd">
        <path d="M12,1.25 C12.3796958,1.25 12.693491,1.53215388 12.7431534,1.89822944 L12.75,2 L12.7503647,3.28172422 C16.9845923,3.64134339 20.3592147,7.01627005 20.7183604,11.2506326 L22,11.25 C22.4142136,11.25 22.75,11.5857864 22.75,12 C22.75,12.3796958 22.4678461,12.693491 22.1017706,12.7431534 L22,12.75 L20.7182758,12.7503647 C20.3586848,16.9842599 16.9842599,20.3586848 12.7503647,20.7182758 L12.75,22 C12.75,22.4142136 12.4142136,22.75 12,22.75 C11.6203042,22.75 11.306509,22.4678461 11.2568466,22.1017706 L11.25,22 L11.2506326,20.7183604 C7.01627005,20.3592147 3.64134339,16.9845923 3.28172422,12.7503647 L2,12.75 C1.58578644,12.75 1.25,12.4142136 1.25,12 C1.25,11.6203042 1.53215388,11.306509 1.89822944,11.2568466 L2,11.25 L3.28163957,11.2506326 C3.64081345,7.0159376 7.0159376,3.64081345 11.2506326,3.28163957 L11.25,2 C11.25,1.58578644 11.5857864,1.25 12,1.25 Z M12,4.75 C7.99593556,4.75 4.75,7.99593556 4.75,12 C4.75,16.0040644 7.99593556,19.25 12,19.25 C16.0040644,19.25 19.25,16.0040644 19.25,12 C19.25,7.99593556 16.0040644,4.75 12,4.75 Z M12,8.25 C14.0710678,8.25 15.75,9.92893219 15.75,12 C15.75,14.0710678 14.0710678,15.75 12,15.75 C9.92893219,15.75 8.25,14.0710678 8.25,12 C8.25,9.92893219 9.92893219,8.25 12,8.25 Z M12,9.75 C10.7573593,9.75 9.75,10.7573593 9.75,12 C9.75,13.2426407 10.7573593,14.25 12,14.25 C13.2426407,14.25 14.25,13.2426407 14.25,12 C14.25,10.7573593 13.2426407,9.75 12,9.75 Z" id="Icon-Color" fill="#212121"></path>
    </g>
</svg>