<?xml version="1.0" encoding="UTF-8"?>
<svg width="24px" height="24px" viewBox="0 0 24 24" version="1.1" xmlns="http://www.w3.org/2000/svg" xmlns:xlink="http://www.w3.org/1999/xlink">
    <title>Icon/dashboard</title>
    <g id="Icon/dashboard" stroke="none" stroke-width="1" fill="none" fill-rule="evenodd">
        <path d="M12,3.20443402 C16.1463732,3.20443402 19.839179,5.82686896 21.2054682,9.74166969 C22.5717575,13.6564704 21.3126162,18.0071649 18.0666667,20.5871305 C17.9339829,20.692591 17.7694901,20.75 17.6,20.75 L17.6,20.75 L6.4,20.75 C6.23050989,20.75 6.06601708,20.692591 5.93333333,20.5871305 C2.68738375,18.0071649 1.42824253,13.6564704 2.79453177,9.74166969 C4.16082101,5.82686896 7.85362676,3.20443402 12,3.20443402 Z M12,4.70443402 C8.49153034,4.70443402 5.36684854,6.92341743 4.21075765,10.2359411 C3.11889403,13.3644357 4.00856968,16.8219204 6.42456337,19.0354751 L6.42456337,19.0354751 L6.669,19.25 L17.33,19.25 L17.5818929,19.0295536 C19.922036,16.8809273 20.8265822,13.5639368 19.8804524,10.5127985 L19.8804524,10.5127985 L19.7892423,10.2359411 C18.6331515,6.92341743 15.5084697,4.70443402 12,4.70443402 Z M16.0303301,8.96966991 C16.2965966,9.23593648 16.3208027,9.65260016 16.1029482,9.94621165 L16.0303301,10.0303301 L14.4011985,11.6585594 C14.623356,12.0553733 14.75,12.512897 14.75,13 C14.75,14.5187831 13.5187831,15.75 12,15.75 C10.4812169,15.75 9.25,14.5187831 9.25,13 C9.25,11.4812169 10.4812169,10.25 12,10.25 C12.4866954,10.25 12.9438609,10.3764322 13.3404443,10.598244 L14.9696699,8.96966991 C15.2625631,8.6767767 15.7374369,8.6767767 16.0303301,8.96966991 Z M12,11.75 C11.3096441,11.75 10.75,12.3096441 10.75,13 C10.75,13.6903559 11.3096441,14.25 12,14.25 C12.6903559,14.25 13.25,13.6903559 13.25,13 C13.25,12.3096441 12.6903559,11.75 12,11.75 Z" id="Icon-Color" fill="#212121"></path>
    </g>
</svg>