<?xml version="1.0" encoding="UTF-8"?>
<svg width="24px" height="24px" viewBox="0 0 24 24" version="1.1" xmlns="http://www.w3.org/2000/svg" xmlns:xlink="http://www.w3.org/1999/xlink">
    <title>Icon/database</title>
    <g id="Icon/database" stroke="none" stroke-width="1" fill="none" fill-rule="evenodd">
        <path d="M20.75,18 C20.75,20.1750604 17.1363017,21.622753 12.6088395,21.7420223 L12,21.75 L11.3911605,21.7420223 C6.96430856,21.6254034 3.41106005,20.2387463 3.255324,18.1439198 L3.25,18 L3.25,6 L3.255324,5.85608015 C3.41813897,3.66603437 7.29435081,2.25 12,2.25 C16.8079459,2.25 20.75,3.72827028 20.75,6 L20.75,6 L20.75,18 Z M12.6088395,15.7420223 L12,15.75 L11.3911605,15.7420223 C8.63632551,15.6694502 6.21980105,15.1050448 4.74982782,14.1842117 L4.75,18 C4.75,18.7370094 6.36165313,19.5570894 8.73065976,19.9740015 L9.2313253,20.054347 L9.75192245,20.1222302 C10.4585924,20.2040075 11.2139297,20.25 12,20.25 C12.7860703,20.25 13.5414076,20.2040075 14.2480776,20.1222302 L14.7686747,20.054347 L15.2693402,19.9740015 C17.556657,19.5714657 19.137951,18.7930872 19.244286,18.0765187 L19.25,18 L19.2511786,14.183581 C17.7813021,15.1047871 15.3643033,15.6694337 12.6088395,15.7420223 Z M19.2511786,8.18358103 C17.7813021,9.10478711 15.3643033,9.66943368 12.6088395,9.74202233 L12.6088395,9.74202233 L12,9.75 L11.3911605,9.74202233 C8.63632551,9.66945025 6.21980105,9.1050448 4.74982782,8.18421165 L4.75,12 C4.75,12.7370094 6.36165313,13.5570894 8.73065976,13.9740015 L9.2313253,14.054347 L9.75192245,14.1222302 C10.4585924,14.2040075 11.2139297,14.25 12,14.25 C12.7860703,14.25 13.5414076,14.2040075 14.2480776,14.1222302 L14.7686747,14.054347 L15.2693402,13.9740015 C17.556657,13.5714657 19.137951,12.7930872 19.244286,12.0765187 L19.25,12 Z M12,3.75 C11.2139297,3.75 10.4585924,3.79599248 9.75192245,3.8777698 L9.75192245,3.8777698 L9.2313253,3.94565296 L8.73065976,4.02599846 C6.36165314,4.44291063 4.75,5.26299062 4.75,6 C4.75,6.73700938 6.36165314,7.55708937 8.73065976,7.97400154 L8.73065976,7.97400154 L9.2313253,8.05434704 L9.75192245,8.1222302 C10.4585924,8.20400752 11.2139297,8.25 12,8.25 C12.7860703,8.25 13.5414076,8.20400752 14.2480776,8.1222302 L14.2480776,8.1222302 L14.7686747,8.05434704 L15.2693402,7.97400154 C17.6383469,7.55708937 19.25,6.73700938 19.25,6 C19.25,5.26299062 17.6383469,4.44291063 15.2693402,4.02599846 L15.2693402,4.02599846 L14.7686747,3.94565296 L14.2480776,3.8777698 C13.5414076,3.79599248 12.7860703,3.75 12,3.75 Z" id="Icon-Color" fill="#212121"></path>
    </g>
</svg>