<?xml version="1.0" encoding="UTF-8"?>
<svg width="24px" height="24px" viewBox="0 0 24 24" version="1.1" xmlns="http://www.w3.org/2000/svg" xmlns:xlink="http://www.w3.org/1999/xlink">
    <title>Icon/database-export</title>
    <g id="Icon/database-export" stroke="none" stroke-width="1" fill="none" fill-rule="evenodd">
        <path d="M18.4462117,15.3970518 L18.5303301,15.4696699 L21.5303301,18.4696699 C21.5610086,18.5003485 21.5884738,18.5330235 21.6127256,18.5672769 L21.653145,18.6310842 L21.6883997,18.7018369 L21.7111871,18.7613353 L21.7375819,18.863702 L21.7481366,18.9469832 L21.74828,19.0509212 L21.7302653,19.171367 L21.7110197,19.2392836 L21.6883984,19.2981386 L21.6531392,19.3690453 L21.6029482,19.4462117 L21.5312718,19.5293867 L18.5303301,22.5303301 C18.2374369,22.8232233 17.7625631,22.8232233 17.4696699,22.5303301 C17.2034034,22.2640635 17.1791973,21.8473998 17.3970518,21.5537883 L17.4696699,21.4696699 L19.189,19.75 L14,19.75 C13.5857864,19.75 13.25,19.4142136 13.25,19 C13.25,18.6203042 13.5321539,18.306509 13.8982294,18.2568466 L14,18.25 L19.189,18.25 L17.4696699,16.5303301 C17.2034034,16.2640635 17.1791973,15.8473998 17.3970518,15.5537883 L17.4696699,15.4696699 C17.7359365,15.2034034 18.1526002,15.1791973 18.4462117,15.3970518 Z M3.25000103,5.99798626 C3.25232989,3.72739673 7.19347487,2.25 12,2.25 C16.8079459,2.25 20.75,3.72827028 20.75,6 L20.75,5.997 L20.75,12 L20.749,12.014 L20.75,14 C20.75,14.4142136 20.4142136,14.75 20,14.75 C19.6203042,14.75 19.306509,14.4678461 19.2568466,14.1017706 L19.25,14 L19.25,12 L19.25,11.985 L19.2511786,8.18358103 C17.8349717,9.07115111 15.5395444,9.62772443 12.909287,9.7321096 L12.6088395,9.74202233 L12,9.75 L11.3911605,9.74202233 C8.63632551,9.66945025 6.21980105,9.1050448 4.74982782,8.18421165 L4.75,12 C4.75,12.73706 6.36169982,13.5571607 8.73145042,13.9740818 L9.23228005,14.054429 L9.75306246,14.1223135 C10.4599942,14.2040924 11.2156531,14.2500858 12.0021185,14.2500864 C13.0666359,14.2530933 14.1294158,14.1671367 15.1793515,13.9930964 C15.5879889,13.9253595 15.9741667,14.201714 16.0419036,14.6103515 C16.1096405,15.0189889 15.833286,15.4051667 15.4246485,15.4729036 C14.2922333,15.660616 13.1459847,15.7533234 12,15.7500834 C8.99380953,15.7500834 6.32607791,15.1721409 4.7488443,14.1836422 L4.75,18 C4.75,18.9891486 7.71756676,20.1630201 11.5540563,20.2451719 C11.9681749,20.2540395 12.2966957,20.5969376 12.2878281,21.0110563 C12.2789605,21.4251749 11.9360624,21.7536957 11.5219437,21.7448281 C7.01944061,21.6484148 3.41344578,20.2594384 3.2554028,18.1452653 L3.25,18 Z M12,3.75 C11.2139297,3.75 10.4585924,3.79599248 9.75192245,3.8777698 L9.75192245,3.8777698 L9.2313253,3.94565296 L8.73065976,4.02599846 C6.36165314,4.44291063 4.75,5.26299062 4.75,6 C4.75,6.73700938 6.36165314,7.55708937 8.73065976,7.97400154 L8.73065976,7.97400154 L9.2313253,8.05434704 L9.75192245,8.1222302 C10.4585924,8.20400752 11.2139297,8.25 12,8.25 C12.7860703,8.25 13.5414076,8.20400752 14.2480776,8.1222302 L14.2480776,8.1222302 L14.7686747,8.05434704 L15.2693402,7.97400154 C17.6383469,7.55708937 19.25,6.73700938 19.25,6 C19.25,5.26299062 17.6383469,4.44291063 15.2693402,4.02599846 L15.2693402,4.02599846 L14.7686747,3.94565296 L14.2480776,3.8777698 C13.5414076,3.79599248 12.7860703,3.75 12,3.75 Z" id="Icon-Color" fill="#212121"></path>
    </g>
</svg>