<?xml version="1.0" encoding="UTF-8"?>
<svg width="24px" height="24px" viewBox="0 0 24 24" version="1.1" xmlns="http://www.w3.org/2000/svg" xmlns:xlink="http://www.w3.org/1999/xlink">
    <title>Icon/details</title>
    <g id="Icon/details" stroke="none" stroke-width="1" fill="none" fill-rule="evenodd">
        <path d="M5,19.75 L4.95337271,19.7474076 L4.85138462,19.7490052 C3.96249848,19.7031782 3.15076024,19.2299753 2.67290526,18.4790603 C2.23180835,17.785908 2.12556154,16.9352591 2.37527752,16.1598935 L2.44513462,15.9677552 L2.49111169,15.8739096 L9.58375,3.63690781 C10.0680768,2.7615393 10.9895788,2.21824584 11.99,2.21824584 C12.9278948,2.21824584 13.7964272,2.69574986 14.2943372,3.46600912 L14.3888883,3.62390963 L21.4888883,15.8739096 L21.5352611,15.9687315 C21.8769115,16.8132493 21.7781543,17.7721525 21.2715481,18.5293085 C20.801128,19.232382 20.0357434,19.6767564 19.1952045,19.7417828 L19,19.75 L5,19.75 Z M10.9627265,4.25782373 L10.8888883,4.37609037 L3.822,16.567 L3.78669203,16.6749125 C3.70814034,16.9639321 3.73607281,17.2719039 3.865342,17.5420746 L3.93839749,17.6737471 C4.13147021,17.977147 4.44445611,18.1808076 4.79539453,18.2369497 L4.951,18.253 L5,18.25 L11.2499658,18.2492458 L11.250545,3.96200578 C11.1410896,4.04286096 11.0436607,4.14226215 10.9627265,4.25782373 Z M12.7511257,3.97667414 L12.7499658,18.2492458 L18.9947389,18.2500185 C19.4088231,18.2471136 19.7945937,18.0393289 20.0248693,17.6951671 C20.2295587,17.3892454 20.2877703,17.0108669 20.1891101,16.6609543 L20.156,16.566 L13.08375,4.36309219 C12.9991439,4.21017576 12.885188,4.0795532 12.7511257,3.97667414 Z" id="Icon-Color" fill="#212121"></path>
    </g>
</svg>