<?xml version="1.0" encoding="UTF-8"?>
<svg width="24px" height="24px" viewBox="0 0 24 24" version="1.1" xmlns="http://www.w3.org/2000/svg" xmlns:xlink="http://www.w3.org/1999/xlink">
    <title>Icon/device-gamepad</title>
    <g id="Icon/device-gamepad" stroke="none" stroke-width="1" fill="none" fill-rule="evenodd">
        <path d="M20,5.25 C21.5187831,5.25 22.75,6.48121694 22.75,8 L22.75,8 L22.75,16 C22.75,17.5187831 21.5187831,18.75 20,18.75 L20,18.75 L4,18.75 C2.48121694,18.75 1.25,17.5187831 1.25,16 L1.25,16 L1.25,8 C1.25,6.48121694 2.48121694,5.25 4,5.25 L4,5.25 Z M20,6.75 L4,6.75 C3.30964406,6.75 2.75,7.30964406 2.75,8 L2.75,8 L2.75,16 C2.75,16.6903559 3.30964406,17.25 4,17.25 L4,17.25 L20,17.25 C20.6903559,17.25 21.25,16.6903559 21.25,16 L21.25,16 L21.25,8 C21.25,7.30964406 20.6903559,6.75 20,6.75 L20,6.75 Z M8,9.25 C8.37969577,9.25 8.69349096,9.53215388 8.74315338,9.89822944 L8.75,10 L8.75,11.25 L10,11.25 C10.4142136,11.25 10.75,11.5857864 10.75,12 C10.75,12.3796958 10.4678461,12.693491 10.1017706,12.7431534 L10,12.75 L8.75,12.75 L8.75,14 C8.75,14.4142136 8.41421356,14.75 8,14.75 C7.62030423,14.75 7.30650904,14.4678461 7.25684662,14.1017706 L7.25,14 L7.25,12.75 L6,12.75 C5.58578644,12.75 5.25,12.4142136 5.25,12 C5.25,11.6203042 5.53215388,11.306509 5.89822944,11.2568466 L6,11.25 L7.25,11.25 L7.25,10 C7.25,9.58578644 7.58578644,9.25 8,9.25 Z M18,12.25 C18.3796958,12.25 18.693491,12.5321539 18.7431534,12.8982294 L18.75,13.01 C18.75,13.4242136 18.4142136,13.76 18,13.76 C17.6203042,13.76 17.306509,13.4778461 17.2568466,13.1117706 L17.25,13 C17.25,12.5857864 17.5857864,12.25 18,12.25 Z M15,10.25 C15.3796958,10.25 15.693491,10.5321539 15.7431534,10.8982294 L15.75,11.01 C15.75,11.4242136 15.4142136,11.76 15,11.76 C14.6203042,11.76 14.306509,11.4778461 14.2568466,11.1117706 L14.25,11 C14.25,10.5857864 14.5857864,10.25 15,10.25 Z" id="Icon-Color" fill="#212121"></path>
    </g>
</svg>