<?xml version="1.0" encoding="UTF-8"?>
<svg width="24px" height="24px" viewBox="0 0 24 24" version="1.1" xmlns="http://www.w3.org/2000/svg" xmlns:xlink="http://www.w3.org/1999/xlink">
    <title>Icon/device-watch</title>
    <g id="Icon/device-watch" stroke="none" stroke-width="1" fill="none" fill-rule="evenodd">
        <path d="M15,2.25 C15.3796958,2.25 15.693491,2.53215388 15.7431534,2.89822944 L15.75,3 L15.7505323,5.32512168 C17.4619473,5.67278009 18.75,7.18596964 18.75,9 L18.75,9 L18.75,15 C18.75,16.8140304 17.4619473,18.3272199 15.7505323,18.6748783 L15.75,21 C15.75,21.3796958 15.4678461,21.693491 15.1017706,21.7431534 L15,21.75 L9,21.75 C8.62030423,21.75 8.30650904,21.4678461 8.25684662,21.1017706 L8.25,21 L8.25046294,18.6750804 C6.53855206,18.3278065 5.25,16.814382 5.25,15 L5.25,15 L5.25,9 C5.25,7.18561801 6.53855206,5.67219348 8.25046294,5.32491964 L8.25,3 C8.25,2.62030423 8.53215388,2.30650904 8.89822944,2.25684662 L9,2.25 L15,2.25 Z M14.25,18.75 L9.75,18.75 L9.75,20.25 L14.25,20.25 L14.25,18.75 Z M15,6.75 L9,6.75 C7.75735931,6.75 6.75,7.75735931 6.75,9 L6.75,9 L6.75,15 C6.75,16.2426407 7.75735931,17.25 9,17.25 L9,17.25 L15,17.25 C16.2426407,17.25 17.25,16.2426407 17.25,15 L17.25,15 L17.25,9 C17.25,7.75735931 16.2426407,6.75 15,6.75 L15,6.75 Z M14.25,3.75 L9.75,3.75 L9.75,5.25 L14.25,5.25 L14.25,3.75 Z" id="Icon-Color" fill="#212121"></path>
    </g>
</svg>