<?xml version="1.0" encoding="UTF-8"?>
<svg width="24px" height="24px" viewBox="0 0 24 24" version="1.1" xmlns="http://www.w3.org/2000/svg" xmlns:xlink="http://www.w3.org/1999/xlink">
    <title>Icon/device-laptop</title>
    <g id="Icon/device-laptop" stroke="none" stroke-width="1" fill="none" fill-rule="evenodd">
        <path d="M21,18.25 C21.4142136,18.25 21.75,18.5857864 21.75,19 C21.75,19.3796958 21.4678461,19.693491 21.1017706,19.7431534 L21,19.75 L3,19.75 C2.58578644,19.75 2.25,19.4142136 2.25,19 C2.25,18.6203042 2.53215388,18.306509 2.89822944,18.2568466 L3,18.25 L21,18.25 Z M18,5.25 C18.9664983,5.25 19.75,6.03350169 19.75,7 L19.75,7 L19.75,15 C19.75,15.9664983 18.9664983,16.75 18,16.75 L18,16.75 L6,16.75 C5.03350169,16.75 4.25,15.9664983 4.25,15 L4.25,15 L4.25,7 C4.25,6.03350169 5.03350169,5.25 6,5.25 L6,5.25 Z M18,6.75 L6,6.75 C5.86192881,6.75 5.75,6.86192881 5.75,7 L5.75,7 L5.75,15 C5.75,15.1380712 5.86192881,15.25 6,15.25 L6,15.25 L18,15.25 C18.1380712,15.25 18.25,15.1380712 18.25,15 L18.25,15 L18.25,7 C18.25,6.86192881 18.1380712,6.75 18,6.75 L18,6.75 Z" id="Icon-Color" fill="#212121"></path>
    </g>
</svg>