<?xml version="1.0" encoding="UTF-8"?>
<svg width="24px" height="24px" viewBox="0 0 24 24" version="1.1" xmlns="http://www.w3.org/2000/svg" xmlns:xlink="http://www.w3.org/1999/xlink">
    <title>Icon/device-analytics</title>
    <g id="Icon/device-analytics" stroke="none" stroke-width="1" fill="none" fill-rule="evenodd">
        <path d="M20,3.25 C20.9664983,3.25 21.75,4.03350169 21.75,5 L21.75,5 L21.75,15 C21.75,15.9664983 20.9664983,16.75 20,16.75 L20,16.75 L15.75,16.75 L15.75,19.25 L17,19.25 C17.4142136,19.25 17.75,19.5857864 17.75,20 C17.75,20.3796958 17.4678461,20.693491 17.1017706,20.7431534 L17,20.75 L7,20.75 C6.58578644,20.75 6.25,20.4142136 6.25,20 C6.25,19.6203042 6.53215388,19.306509 6.89822944,19.2568466 L7,19.25 L8.25,19.25 L8.25,16.75 L4,16.75 C3.0818266,16.75 2.32880766,16.0428897 2.2558012,15.1435272 L2.25,15 L2.25,5 C2.25,4.03350169 3.03350169,3.25 4,3.25 L4,3.25 Z M14.25,16.75 L9.75,16.75 L9.75,19.25 L14.25,19.25 L14.25,16.75 Z M20,4.75 L4,4.75 C3.86192881,4.75 3.75,4.86192881 3.75,5 L3.75,5 L3.75,15 C3.75,15.1380712 3.86192881,15.25 4,15.25 L4,15.25 L20,15.25 C20.1380712,15.25 20.25,15.1380712 20.25,15 L20.25,15 L20.25,5 C20.25,4.86192881 20.1380712,4.75 20,4.75 L20,4.75 Z M16.5303301,7.46966991 C16.7965966,7.73593648 16.8208027,8.15260016 16.6029482,8.44621165 L16.5303301,8.53033009 L13.5303301,11.5303301 C13.2640635,11.7965966 12.8473998,11.8208027 12.5537883,11.6029482 L12.4696699,11.5303301 L11,10.061 L8.53033009,12.5303301 C8.26406352,12.7965966 7.84739984,12.8208027 7.55378835,12.6029482 L7.46966991,12.5303301 C7.20340335,12.2640635 7.1791973,11.8473998 7.39705176,11.5537883 L7.46966991,11.4696699 L10.4696699,8.46966991 C10.7359365,8.20340335 11.1526002,8.1791973 11.4462117,8.39705176 L11.5303301,8.46966991 L13,9.939 L15.4696699,7.46966991 C15.7625631,7.1767767 16.2374369,7.1767767 16.5303301,7.46966991 Z" id="Icon-Color" fill="#212121"></path>
    </g>
</svg>