<?xml version="1.0" encoding="UTF-8"?>
<svg width="24px" height="24px" viewBox="0 0 24 24" version="1.1" xmlns="http://www.w3.org/2000/svg" xmlns:xlink="http://www.w3.org/1999/xlink">
    <title>Icon/device-tablet</title>
    <g id="Icon/device-tablet" stroke="none" stroke-width="1" fill="none" fill-rule="evenodd">
        <path d="M18,2.25 C18.9664983,2.25 19.75,3.03350169 19.75,4 L19.75,4 L19.75,20 C19.75,20.9664983 18.9664983,21.75 18,21.75 L18,21.75 L6,21.75 C5.03350169,21.75 4.25,20.9664983 4.25,20 L4.25,20 L4.25,4 C4.25,3.03350169 5.03350169,2.25 6,2.25 L6,2.25 Z M18,3.75 L6,3.75 C5.86192881,3.75 5.75,3.86192881 5.75,4 L5.75,4 L5.75,20 C5.75,20.1380712 5.86192881,20.25 6,20.25 L6,20.25 L18,20.25 C18.1380712,20.25 18.25,20.1380712 18.25,20 L18.25,20 L18.25,4 C18.25,3.86192881 18.1380712,3.75 18,3.75 L18,3.75 Z M12,15.25 C12.9664983,15.25 13.75,16.0335017 13.75,17 C13.75,17.9664983 12.9664983,18.75 12,18.75 C11.0335017,18.75 10.25,17.9664983 10.25,17 C10.25,16.0335017 11.0335017,15.25 12,15.25 Z M12,16.75 C11.8619288,16.75 11.75,16.8619288 11.75,17 C11.75,17.1380712 11.8619288,17.25 12,17.25 C12.1380712,17.25 12.25,17.1380712 12.25,17 C12.25,16.8619288 12.1380712,16.75 12,16.75 Z" id="Icon-Color" fill="#212121"></path>
    </g>
</svg>