<?xml version="1.0" encoding="UTF-8"?>
<svg width="24px" height="24px" viewBox="0 0 24 24" version="1.1" xmlns="http://www.w3.org/2000/svg" xmlns:xlink="http://www.w3.org/1999/xlink">
    <title>Icon/diamond</title>
    <g id="Icon/diamond" stroke="none" stroke-width="1" fill="none" fill-rule="evenodd">
        <path d="M18,4.25 C18.2258118,4.25 18.4374316,4.35155242 18.5786421,4.52282768 L18.6431197,4.61412818 L21.6431197,9.61412818 C21.7934465,9.8646728 21.7831848,10.1762763 21.625112,10.4144751 L21.558931,10.5000961 L13.0357143,20.0248907 C12.7629853,20.3032435 12.389694,20.4601021 12,20.4601021 C11.6590178,20.4601021 11.3305938,20.3400072 11.0555552,20.1068985 L10.941069,20.0000961 L2.44106901,10.5000961 C2.24624308,10.2823495 2.1976311,9.97439026 2.3080104,9.71068192 L2.35688031,9.61412818 L5.35688031,4.61412818 L5.41511175,4.53038321 L5.48243318,4.45694521 L5.55761856,4.3941207 L5.63944189,4.34221617 L5.72667714,4.30153815 L5.80062029,4.27679072 L5.89822944,4.25684662 L5.96021172,4.2509595 L18,4.25 Z M17.575,5.75 L6.424,5.75 L3.927,9.912 L11.999,18.934 L20.072,9.912 L17.575,5.75 Z M8.98587182,8.15688031 C9.31145825,8.35223217 9.43536844,8.75562342 9.28960929,9.09508173 L9.24311969,9.18587182 L8.929,9.708 L10.5549551,11.4954954 C10.8082552,11.7741256 10.8126152,12.191469 10.5810417,12.4743859 L10.5045046,12.5549551 C10.2258744,12.8082552 9.80853096,12.8126152 9.52561407,12.5810417 L9.44504494,12.5045046 L7.44504494,10.3045046 C7.24718966,10.0868638 7.19690043,9.77682556 7.30773724,9.51133254 L7.35688031,9.41412818 L7.95688031,8.41412818 C8.16999143,8.05894298 8.63068662,7.94376919 8.98587182,8.15688031 Z" id="Icon-Color" fill="#212121"></path>
    </g>
</svg>