<?xml version="1.0" encoding="UTF-8"?>
<svg width="24px" height="24px" viewBox="0 0 24 24" version="1.1" xmlns="http://www.w3.org/2000/svg" xmlns:xlink="http://www.w3.org/1999/xlink">
    <title>Icon/discount</title>
    <g id="Icon/discount" stroke="none" stroke-width="1" fill="none" fill-rule="evenodd">
        <path d="M12,2.25 C17.3847763,2.25 21.75,6.61522369 21.75,12 C21.75,17.3847763 17.3847763,21.75 12,21.75 C6.61522369,21.75 2.25,17.3847763 2.25,12 C2.25,6.61522369 6.61522369,2.25 12,2.25 Z M12,3.75 C7.44365081,3.75 3.75,7.44365081 3.75,12 C3.75,16.5563492 7.44365081,20.25 12,20.25 C16.5563492,20.25 20.25,16.5563492 20.25,12 C20.25,7.44365081 16.5563492,3.75 12,3.75 Z M14.5,13.25 C15.1903559,13.25 15.75,13.8096441 15.75,14.5 C15.75,15.1903559 15.1903559,15.75 14.5,15.75 C13.8096441,15.75 13.25,15.1903559 13.25,14.5 C13.25,13.8096441 13.8096441,13.25 14.5,13.25 Z M15.5303301,8.46966991 C15.7965966,8.73593648 15.8208027,9.15260016 15.6029482,9.44621165 L15.5303301,9.53033009 L9.53033009,15.5303301 C9.23743687,15.8232233 8.76256313,15.8232233 8.46966991,15.5303301 C8.20340335,15.2640635 8.1791973,14.8473998 8.39705176,14.5537883 L8.46966991,14.4696699 L14.4696699,8.46966991 C14.7625631,8.1767767 15.2374369,8.1767767 15.5303301,8.46966991 Z M14.5,14.25 C14.3619288,14.25 14.25,14.3619288 14.25,14.5 C14.25,14.6380712 14.3619288,14.75 14.5,14.75 C14.6380712,14.75 14.75,14.6380712 14.75,14.5 C14.75,14.3619288 14.6380712,14.25 14.5,14.25 Z M9.5,8.25 C10.1903559,8.25 10.75,8.80964406 10.75,9.5 C10.75,10.1903559 10.1903559,10.75 9.5,10.75 C8.80964406,10.75 8.25,10.1903559 8.25,9.5 C8.25,8.80964406 8.80964406,8.25 9.5,8.25 Z M9.5,9.25 C9.36192881,9.25 9.25,9.36192881 9.25,9.5 C9.25,9.63807119 9.36192881,9.75 9.5,9.75 C9.63807119,9.75 9.75,9.63807119 9.75,9.5 C9.75,9.36192881 9.63807119,9.25 9.5,9.25 Z" id="Icon-Color" fill="#212121"></path>
    </g>
</svg>