<?xml version="1.0" encoding="UTF-8"?>
<svg width="24px" height="24px" viewBox="0 0 24 24" version="1.1" xmlns="http://www.w3.org/2000/svg" xmlns:xlink="http://www.w3.org/1999/xlink">
    <title>Icon/divide</title>
    <g id="Icon/divide" stroke="none" stroke-width="1" fill="none" fill-rule="evenodd">
        <path d="M12,16.25 C12.9664983,16.25 13.75,17.0335017 13.75,18 C13.75,18.9664983 12.9664983,19.75 12,19.75 C11.0335017,19.75 10.25,18.9664983 10.25,18 C10.25,17.0335017 11.0335017,16.25 12,16.25 Z M12,17.75 C11.8619288,17.75 11.75,17.8619288 11.75,18 C11.75,18.1380712 11.8619288,18.25 12,18.25 C12.1380712,18.25 12.25,18.1380712 12.25,18 C12.25,17.8619288 12.1380712,17.75 12,17.75 Z M19,11.25 C19.4142136,11.25 19.75,11.5857864 19.75,12 C19.75,12.3796958 19.4678461,12.693491 19.1017706,12.7431534 L19,12.75 L5,12.75 C4.58578644,12.75 4.25,12.4142136 4.25,12 C4.25,11.6203042 4.53215388,11.306509 4.89822944,11.2568466 L5,11.25 L19,11.25 Z M12,4.25 C12.9664983,4.25 13.75,5.03350169 13.75,6 C13.75,6.96649831 12.9664983,7.75 12,7.75 C11.0335017,7.75 10.25,6.96649831 10.25,6 C10.25,5.03350169 11.0335017,4.25 12,4.25 Z M12,5.75 C11.8619288,5.75 11.75,5.86192881 11.75,6 C11.75,6.13807119 11.8619288,6.25 12,6.25 C12.1380712,6.25 12.25,6.13807119 12.25,6 C12.25,5.86192881 12.1380712,5.75 12,5.75 Z" id="Icon-Color" fill="#212121"></path>
    </g>
</svg>