<?xml version="1.0" encoding="UTF-8"?>
<svg width="24px" height="24px" viewBox="0 0 24 24" version="1.1" xmlns="http://www.w3.org/2000/svg" xmlns:xlink="http://www.w3.org/1999/xlink">
    <title>Icon/dot menu 02</title>
    <g id="Icon/dot-menu-02" stroke="none" stroke-width="1" fill="none" fill-rule="evenodd">
        <path d="M5.79053544,16.4117647 C7.33170561,16.4117647 8.58107089,17.6627338 8.58107089,19.2058824 C8.58107089,20.7490309 7.33170561,22 5.79053544,22 C4.24936527,22 3,20.7490309 3,19.2058824 C3,17.6627338 4.24936527,16.4117647 5.79053544,16.4117647 Z M18.2594646,16.4117647 C19.8006347,16.4117647 21.05,17.6627338 21.05,19.2058824 C21.05,20.7490309 19.8006347,22 18.2594646,22 C16.7182944,22 15.4689291,20.7490309 15.4689291,19.2058824 C15.4689291,17.6627338 16.7182944,16.4117647 18.2594646,16.4117647 Z M5.79053544,3 C7.33170561,3 8.58107089,4.25096908 8.58107089,5.79411765 C8.58107089,7.33726621 7.33170561,8.58823529 5.79053544,8.58823529 C4.24936527,8.58823529 3,7.33726621 3,5.79411765 C3,4.25096908 4.24936527,3 5.79053544,3 Z M18.2594646,3 C19.8006347,3 21.05,4.25096908 21.05,5.79411765 C21.05,7.33726621 19.8006347,8.58823529 18.2594646,8.58823529 C16.7182944,8.58823529 15.4689291,7.33726621 15.4689291,5.79411765 C15.4689291,4.25096908 16.7182944,3 18.2594646,3 Z" id="Icon-Color" fill="#212121"></path>
    </g>
</svg>