<?xml version="1.0" encoding="UTF-8"?>
<svg width="24px" height="24px" viewBox="0 0 24 24" version="1.1" xmlns="http://www.w3.org/2000/svg" xmlns:xlink="http://www.w3.org/1999/xlink">
    <title>Icon/dot menu</title>
    <g id="Icon/dot-menu" stroke="none" stroke-width="1" fill="none" fill-rule="evenodd">
        <path d="M5.65625,14.1875 C7.67554112,14.1875 9.3125,15.8244589 9.3125,17.84375 C9.3125,19.8630411 7.67554112,21.5 5.65625,21.5 C3.63695888,21.5 2,19.8630411 2,17.84375 C2,15.8244589 3.63695888,14.1875 5.65625,14.1875 Z M17.84375,14.1875 C19.8630411,14.1875 21.5,15.8244589 21.5,17.84375 C21.5,19.8630411 19.8630411,21.5 17.84375,21.5 C15.8244589,21.5 14.1875,19.8630411 14.1875,17.84375 C14.1875,15.8244589 15.8244589,14.1875 17.84375,14.1875 Z M5.65625,2 C7.67554112,2 9.3125,3.63695888 9.3125,5.65625 C9.3125,7.67554112 7.67554112,9.3125 5.65625,9.3125 C3.63695888,9.3125 2,7.67554112 2,5.65625 C2,3.63695888 3.63695888,2 5.65625,2 Z M17.84375,2 C19.8630411,2 21.5,3.63695888 21.5,5.65625 C21.5,7.67554112 19.8630411,9.3125 17.84375,9.3125 C15.8244589,9.3125 14.1875,7.67554112 14.1875,5.65625 C14.1875,3.63695888 15.8244589,2 17.84375,2 Z" id="Icon-Color" fill="#212121"></path>
    </g>
</svg>