<?xml version="1.0" encoding="UTF-8"?>
<svg width="24px" height="24px" viewBox="0 0 24 24" version="1.1" xmlns="http://www.w3.org/2000/svg" xmlns:xlink="http://www.w3.org/1999/xlink">
    <title>Icon/dots-circle-horizontal</title>
    <g id="Icon/dots-circle-horizontal" stroke="none" stroke-width="1" fill="none" fill-rule="evenodd">
        <path d="M12,2.25 C17.3847763,2.25 21.75,6.61522369 21.75,12 C21.75,17.3847763 17.3847763,21.75 12,21.75 C6.61522369,21.75 2.25,17.3847763 2.25,12 C2.25,6.61522369 6.61522369,2.25 12,2.25 Z M12,3.75 C7.44365081,3.75 3.75,7.44365081 3.75,12 C3.75,16.5563492 7.44365081,20.25 12,20.25 C16.5563492,20.25 20.25,16.5563492 20.25,12 C20.25,7.44365081 16.5563492,3.75 12,3.75 Z M8,11.25 C8.37969577,11.25 8.69349096,11.5321539 8.74315338,11.8982294 L8.75,12.01 C8.75,12.4242136 8.41421356,12.76 8,12.76 C7.62030423,12.76 7.30650904,12.4778461 7.25684662,12.1117706 L7.25,12 C7.25,11.5857864 7.58578644,11.25 8,11.25 Z M12,11.25 C12.3796958,11.25 12.693491,11.5321539 12.7431534,11.8982294 L12.75,12.01 C12.75,12.4242136 12.4142136,12.76 12,12.76 C11.6203042,12.76 11.306509,12.4778461 11.2568466,12.1117706 L11.25,12 C11.25,11.5857864 11.5857864,11.25 12,11.25 Z M16,11.25 C16.3796958,11.25 16.693491,11.5321539 16.7431534,11.8982294 L16.75,12.01 C16.75,12.4242136 16.4142136,12.76 16,12.76 C15.6203042,12.76 15.306509,12.4778461 15.2568466,12.1117706 L15.25,12 C15.25,11.5857864 15.5857864,11.25 16,11.25 Z" id="Icon-Color" fill="#212121"></path>
    </g>
</svg>