<?xml version="1.0" encoding="UTF-8"?>
<svg width="24px" height="24px" viewBox="0 0 24 24" version="1.1" xmlns="http://www.w3.org/2000/svg" xmlns:xlink="http://www.w3.org/1999/xlink">
    <title>Icon/arrows/circle/Fill/down</title>
    <g id="Icon/arrows/circle/Fill/down" stroke="none" stroke-width="1" fill="none" fill-rule="evenodd">
        <path d="M12,21.5 C17.3847763,21.5 21.75,17.1347763 21.75,11.75 C21.75,6.36522369 17.3847763,2 12,2 C6.61522369,2 2.25,6.36522369 2.25,11.75 C2.25,17.1347763 6.61522369,21.5 12,21.5 Z M7.39347142,10.400973 C7.18736138,10.194863 7.18736138,9.86069258 7.39347142,9.65458253 C7.58084419,9.46720977 7.87405196,9.45017588 8.08066746,9.60348087 L8.13986191,9.65458253 L11.9888889,13.5033704 L15.8379159,9.65458253 C16.0252886,9.46720977 16.3184964,9.45017588 16.5251119,9.60348087 L16.5843064,9.65458253 C16.7716791,9.8419553 16.788713,10.1351631 16.635408,10.3417786 L16.5843064,10.400973 L12.3620841,14.6231952 C12.1747114,14.810568 11.8815036,14.8276019 11.6748881,14.6742969 L11.6156936,14.6231952 L7.39347142,10.400973 Z" id="Icon-Color" fill="#212121"></path>
    </g>
</svg>