<?xml version="1.0" encoding="UTF-8"?>
<svg width="24px" height="24px" viewBox="0 0 24 24" version="1.1" xmlns="http://www.w3.org/2000/svg" xmlns:xlink="http://www.w3.org/1999/xlink">
    <title>Icon/social/outline/dribbble</title>
    <g id="Icon/social/outline/dribbble" stroke="none" stroke-width="1" fill="none" fill-rule="evenodd">
        <path d="M12,2 C17.5228475,2 22,6.4771525 22,12 C22,17.5228475 17.5228475,22 12,22 C6.4771525,22 2,17.5228475 2,12 C2,6.4771525 6.4771525,2 12,2 Z M12,2.75 C6.89136606,2.75 2.75,6.89136606 2.75,12 C2.75,17.1086339 6.89136606,21.25 12,21.25 C17.1086339,21.25 21.25,17.1086339 21.25,12 C21.25,6.89136606 17.1086339,2.75 12,2.75 Z M12,7 C14.7614237,7 17,9.23857625 17,12 C17,13.8427384 16.0031424,15.4526482 14.5192749,16.3198816 C14.5051022,16.3306674 14.4895921,16.3394709 14.4734292,16.3471895 C13.7438842,16.7623741 12.8996923,17 12,17 C9.23857625,17 7,14.7614237 7,12 C7,9.23857625 9.23857625,7 12,7 Z M13.3033947,13.0612069 L13.1491801,13.1099934 C12.0867481,13.4674697 11.2266803,14.0715734 10.2739056,14.9899079 L10.0331601,15.2265565 L9.70518713,15.5549295 C10.3662279,15.9825305 11.1541243,16.2307692 12,16.2307692 C12.5979704,16.2307692 13.166966,16.1067138 13.6826543,15.8829356 L13.898,15.781 L13.8784607,15.5866099 C13.7732347,14.7024457 13.5885377,13.874909 13.3033947,13.0612069 Z M16.1745068,12.6916798 L15.929379,12.6947767 C15.2231091,12.709718 14.6074961,12.7673198 14.0528167,12.874392 C14.3247273,13.6646557 14.5086615,14.4693469 14.6205279,15.3215268 C15.4296476,14.6826363 15.9998477,13.7537778 16.1745068,12.6916798 Z M12.3676919,11.0284731 L12.2607403,11.0691858 C10.963735,11.5435419 9.5547471,11.7221587 7.77786807,11.7417469 C7.77184502,11.8270004 7.76923077,11.9131949 7.76923077,12 C7.76923077,13.212427 8.2792278,14.3057378 9.09639869,15.0771093 L9.60671524,14.5659768 C10.7290518,13.4613794 11.7440579,12.7465373 13.0230868,12.3420967 C12.8370613,11.9061556 12.6194954,11.4704885 12.3676919,11.0284731 Z M15.2663796,9.31091411 L15.0256152,9.50135154 C14.3678791,10.0087772 13.7302834,10.4100792 13.0772822,10.7242468 C13.3473458,11.201411 13.578796,11.6735496 13.7764696,12.1473117 C14.48748,11.9975374 15.2883572,11.9262082 16.2269483,11.9218318 C16.2123042,10.9314396 15.8536531,10.0234432 15.2663796,9.31091411 Z M10.316553,8.12038159 L10.2164144,8.16244912 C9.0731424,8.69471222 8.20732976,9.7228339 7.89539149,10.9703992 C9.51215889,10.9458139 10.7893561,10.7807286 11.961012,10.3578728 C11.5078352,9.64467076 10.9636492,8.90795734 10.316553,8.12038159 Z M12,7.76923077 C11.6911589,7.76923077 11.3900469,7.80232305 11.1000164,7.8651552 C11.717918,8.63105939 12.241248,9.35398907 12.6826195,10.057967 C13.3656906,9.73701577 14.0284398,9.31357096 14.7210181,8.762776 C13.9864292,8.14215185 13.0367648,7.76923077 12,7.76923077 Z" id="Icon-Color" fill="#212121"></path>
    </g>
</svg>