<?xml version="1.0" encoding="UTF-8"?>
<svg width="24px" height="24px" viewBox="0 0 24 24" version="1.1" xmlns="http://www.w3.org/2000/svg" xmlns:xlink="http://www.w3.org/1999/xlink">
    <title>Icon/spcial/default/dribbble</title>
    <g id="Icon/spcial/default/dribbble" stroke="none" stroke-width="1" fill="none" fill-rule="evenodd">
        <path d="M12,2.25 C17.3847763,2.25 21.75,6.61522369 21.75,12 C21.75,15.581729 19.8186694,18.7123716 16.940605,20.407331 C16.9027367,20.4346492 16.8616617,20.4590171 16.8182036,20.4793766 C15.3965417,21.2877638 13.7522514,21.75 12,21.75 C6.61522369,21.75 2.25,17.3847763 2.25,12 C2.25,6.61522369 6.61522369,2.25 12,2.25 Z M14.5412988,14.0684377 L14.3796084,14.1187262 C12.2436087,14.8095128 10.5333135,15.9997735 8.63411585,17.8303203 L8.16466228,18.2917851 L7.5257572,18.9325279 C8.81465475,19.7660953 10.3508164,20.25 12,20.25 C13.3322033,20.25 14.5906559,19.9342358 15.704597,19.3734684 C15.5091641,17.5044876 15.1379868,15.7709425 14.5412988,14.0684377 Z M20.1402787,13.3488333 L20.0618365,13.3487309 C18.5152159,13.3633745 17.1874806,13.4763686 16.0023853,13.7051816 C16.5331532,15.2459328 16.8917711,16.8147356 17.1099128,18.4760895 C18.6880841,17.2306865 19.7997261,15.4196341 20.1402787,13.3488333 Z M12.7181512,10.107545 L12.4166671,10.2181905 C9.91262185,11.1183359 7.18954278,11.4587144 3.7661879,11.4964137 C3.75508719,11.6630004 3.75,11.8309061 3.75,12 C3.75,14.3640146 4.74431078,16.4957955 6.33753656,17.9999469 L7.33309472,17.0036548 C9.52176441,14.8495781 11.5011181,13.4556032 13.9954071,12.6669659 C13.6323041,11.8171674 13.2085349,10.9685275 12.7181512,10.107545 Z M18.3699998,6.75696163 L18.2375498,6.86314046 C16.8354265,7.97830083 15.4868664,8.84515126 14.1028623,9.51124096 C14.6268241,10.4418295 15.0779506,11.3619715 15.4632843,12.2852655 C16.8542151,11.9947284 18.4164547,11.855855 20.2473813,11.8475497 C20.2137778,9.91606281 19.5146706,8.1460716 18.3699998,6.75696163 Z M8.71420589,4.43100502 L8.67946537,4.44547749 C6.37182459,5.46124986 4.61785616,7.50336186 3.99565296,9.99372057 C7.14763929,9.94456408 9.63962736,9.62256783 11.9256675,8.79724043 C11.0396577,7.40611329 9.97745188,5.96825607 8.71420589,4.43100502 Z M12,3.75 C11.3979695,3.75 10.8110003,3.81448502 10.2456227,3.9369247 C11.4487133,5.4288606 12.4700118,6.83957866 13.3312686,8.21329169 C14.6645732,7.58642198 15.9577853,6.75994506 17.3093238,5.68475769 C15.8745831,4.47760699 14.0222624,3.75 12,3.75 Z" id="Icon-Color" fill="#212121"></path>
    </g>
</svg>