<?xml version="1.0" encoding="UTF-8"?>
<svg width="24px" height="24px" viewBox="0 0 24 24" version="1.1" xmlns="http://www.w3.org/2000/svg" xmlns:xlink="http://www.w3.org/1999/xlink">
    <title>Icon/brand/edge</title>
    <g id="Icon/brand/edge" stroke="none" stroke-width="1" fill="none" fill-rule="evenodd">
        <path d="M12.9700043,2.29927087 C17.6053742,2.76273218 21.2516491,6.43609066 21.7033003,11.0472807 L21.7261607,11.3195063 L21.7261607,11.3195063 C21.8569259,13.1832214 20.4714989,14.1756123 18.3606142,14.3329259 C16.8075437,14.4486684 14.8764876,14.0946515 13.7331741,13.5306006 C13.2920686,13.3129823 13.176324,12.7368105 13.4991677,12.3657259 C14.5335669,11.1767612 13.7274276,9.62351062 11.8433078,9.7551737 C10.7114862,9.83430393 10.0145868,10.3262206 9.80909966,11.2503855 C9.80897466,11.3192096 9.79757316,11.388502 9.77582691,11.4569857 L9.7699425,11.4750734 C9.74303566,11.6830785 9.73793452,11.91016 9.75516007,12.1564975 C10.0048637,15.7147739 13.8196582,17.554669 19.1925346,16.2695743 C19.5953853,16.1732197 20.0000711,16.4216839 20.0964257,16.8245346 C20.1087912,16.8762338 20.1154777,16.9279632 20.1168878,16.9790672 C20.1614441,17.1771953 20.1260011,17.3933829 20.0004167,17.5736751 C17.285575,21.4711699 12.157224,22.8451885 7.85744203,20.8270939 C3.55766,18.8089994 1.33781257,13.9861177 2.60125898,9.40741323 C3.8647054,4.82870879 8.24374483,1.82672209 12.9700043,2.29927087 Z M9.29662119,15.2870035 C9.47615172,18.1480322 10.8590045,20.3502755 12.5755063,20.2298393 L12.5930575,20.2300523 C14.4288661,20.096776 16.1959419,19.3513194 17.5815964,18.07746 C13.8443143,18.5072397 10.8138431,17.4495175 9.29662119,15.2870035 Z M3.77016935,12.57563 L3.77423924,12.6469102 C4.00160707,15.5339952 5.74583815,18.1790172 8.49475862,19.4692178 C8.70589112,19.5683125 8.91938463,19.6577413 9.13470303,19.7376479 C7.77853657,17.6817469 7.327572,14.3373497 8.30633537,11.1309521 C8.51881543,9.86306682 9.27966497,8.96264999 10.429504,8.53186263 C7.40035818,8.274901 3.60004796,10.1452385 3.77016935,12.57563 Z M4.4264612,8.72768328 L4.44874817,8.71153925 C7.53342231,6.47783395 13.0044765,6.12970436 14.9250796,9.57480036 L14.9648725,9.66090238 C15.4911846,10.4377764 15.6224517,11.4337398 15.2356254,12.3812583 L15.19,12.485 L15.2568512,12.5053393 C16.073654,12.7390982 17.0958069,12.8803189 17.986281,12.8510481 L18.2491358,12.8370741 C19.6421795,12.7332576 20.2891511,12.2698274 20.2298393,11.4244937 L20.2296884,11.4214556 L20.2074996,11.1640699 C19.8125313,7.27633395 16.7329776,4.18298567 12.8207729,3.79182907 C9.20600665,3.43041147 5.83127887,5.47099231 4.4264612,8.72768328 Z" id="Icon-Color" fill="#212121"></path>
    </g>
</svg>