<?xml version="1.0" encoding="UTF-8"?>
<svg width="24px" height="24px" viewBox="0 0 24 24" version="1.1" xmlns="http://www.w3.org/2000/svg" xmlns:xlink="http://www.w3.org/1999/xlink">
    <title>Icon/egg</title>
    <g id="Icon/egg" stroke="none" stroke-width="1" fill="none" fill-rule="evenodd">
        <path d="M11.9980866,3.24997361 C13.5142191,3.24612132 14.942094,3.96248461 15.7987959,5.12342189 C18.0749212,7.63556661 19.3047472,10.916962 19.2476521,14.2665756 L19.236,14.639 C19.236,18.5695047 15.992993,21.75 12,21.75 C8.08849663,21.75 4.89668,18.6979961 4.76803088,14.8786854 L4.765,14.677 C4.61127478,11.2865077 5.75432869,7.97388704 7.91086405,5.45656332 L8.15463541,5.18017016 C9.05790604,3.96248461 10.4857809,3.24612132 11.9980866,3.24997361 Z M11.9980866,4.74997363 C10.9582191,4.74733146 9.97888658,5.23866155 9.3127959,6.13057811 C7.29866873,8.35355722 6.20776658,11.2553015 6.25240942,14.2457931 L6.264,14.639 C6.264,17.6624846 8.71105588,20.1326851 11.7797733,20.2459429 L12,20.25 C15.1710304,20.25 17.736,17.7344723 17.7367692,14.6050403 C17.8780284,11.488527 16.7818964,8.44247638 14.6406354,6.07382984 C14.0211134,5.23866155 13.0417809,4.74733146 11.9980866,4.74997363 Z" id="Icon-Color" fill="#212121"></path>
    </g>
</svg>