<?xml version="1.0" encoding="UTF-8"?>
<svg width="24px" height="24px" viewBox="0 0 24 24" version="1.1" xmlns="http://www.w3.org/2000/svg" xmlns:xlink="http://www.w3.org/1999/xlink">
    <title>Icon/eraser</title>
    <g id="Icon/eraser" stroke="none" stroke-width="1" fill="none" fill-rule="evenodd">
        <path d="M15.8154277,2.94671319 L15.9403301,3.05966991 L20.9419055,8.06125 C21.580509,8.70366463 21.618074,9.7179466 21.0532868,10.4054277 L20.9403301,10.5303301 L13.22,18.25 L19,18.25 C19.3796958,18.25 19.693491,18.5321539 19.7431534,18.8982294 L19.75,19 C19.75,19.3796958 19.4678461,19.693491 19.1017706,19.7431534 L19,19.75 L8,19.75 C7.84087011,19.75 7.68695425,19.6994287 7.55973913,19.6071862 L7.46966991,19.5303301 L3.46809452,15.52875 C2.82949095,14.8863354 2.79192604,13.8720534 3.35671319,13.1845723 L3.46966991,13.0596699 L13.47125,3.05809452 C14.1136646,2.41949095 15.1279466,2.38192604 15.8154277,2.94671319 Z M11.6444041,7.00440406 L4.53190548,14.11875 C4.45112973,14.2000078 4.4376671,14.3229128 4.49060592,14.4171386 L4.53033009,14.4696699 L8.311,18.25 L11.098,18.25 L16.9934041,12.3534041 L11.6444041,7.00440406 Z M14.5828614,4.08060592 L14.5303301,4.12033009 L12.7044041,5.94440406 L18.0534041,11.2934041 L19.8780945,9.47125 C19.9588703,9.3899922 19.9723329,9.26708723 19.9193941,9.17286145 L19.8796699,9.12033009 L14.88125,4.12190548 C14.7999922,4.04112973 14.6770872,4.0276671 14.5828614,4.08060592 Z" id="Icon-Color" fill="#212121"></path>
    </g>
</svg>