<?xml version="1.0" encoding="UTF-8"?>
<svg width="24px" height="24px" viewBox="0 0 24 24" version="1.1" xmlns="http://www.w3.org/2000/svg" xmlns:xlink="http://www.w3.org/1999/xlink">
    <title>Icon/exposure</title>
    <g id="Icon/exposure" stroke="none" stroke-width="1" fill="none" fill-rule="evenodd">
        <path d="M18,3.25 C19.5187831,3.25 20.75,4.48121694 20.75,6 L20.75,6 L20.75,18 C20.75,19.5187831 19.5187831,20.75 18,20.75 L18,20.75 L6,20.75 C4.48121694,20.75 3.25,19.5187831 3.25,18 L3.25,18 L3.25,6 C3.25,4.48121694 4.48121694,3.25 6,3.25 L6,3.25 Z M19.237661,5.82367846 L5.82367846,19.237661 C5.88128359,19.2457938 5.94015059,19.25 6,19.25 L6,19.25 L18,19.25 C18.6903559,19.25 19.25,18.6903559 19.25,18 L19.25,18 L19.25,6 C19.25,5.94015059 19.2457938,5.88128359 19.237661,5.82367846 Z M18,4.75 L6,4.75 C5.30964406,4.75 4.75,5.30964406 4.75,6 L4.75,6 L4.75,18 C4.75,18.0598494 4.75420616,18.1187164 4.76233899,18.1763215 L18.1763215,4.76233899 C18.1187164,4.75420616 18.0598494,4.75 18,4.75 L18,4.75 Z M17,15.25 C17.4142136,15.25 17.75,15.5857864 17.75,16 C17.75,16.3796958 17.4678461,16.693491 17.1017706,16.7431534 L17,16.75 L13,16.75 C12.5857864,16.75 12.25,16.4142136 12.25,16 C12.25,15.6203042 12.5321539,15.306509 12.8982294,15.2568466 L13,15.25 L17,15.25 Z M9,6.25 C9.37969577,6.25 9.69349096,6.53215388 9.74315338,6.89822944 L9.75,7 L9.75,8.25 L11,8.25 C11.4142136,8.25 11.75,8.58578644 11.75,9 C11.75,9.37969577 11.4678461,9.69349096 11.1017706,9.74315338 L11,9.75 L9.75,9.75 L9.75,11 C9.75,11.4142136 9.41421356,11.75 9,11.75 C8.62030423,11.75 8.30650904,11.4678461 8.25684662,11.1017706 L8.25,11 L8.25,9.75 L7,9.75 C6.58578644,9.75 6.25,9.41421356 6.25,9 C6.25,8.62030423 6.53215388,8.30650904 6.89822944,8.25684662 L7,8.25 L8.25,8.25 L8.25,7 C8.25,6.58578644 8.58578644,6.25 9,6.25 Z" id="Icon-Color" fill="#212121"></path>
    </g>
</svg>