<?xml version="1.0" encoding="UTF-8"?>
<svg width="24px" height="24px" viewBox="0 0 24 24" version="1.1" xmlns="http://www.w3.org/2000/svg" xmlns:xlink="http://www.w3.org/1999/xlink">
    <title>Icon/external-link</title>
    <g id="Icon/external-link" stroke="none" stroke-width="1" fill="none" fill-rule="evenodd">
        <path d="M11,6.25 C11.4142136,6.25 11.75,6.58578644 11.75,7 C11.75,7.37969577 11.4678461,7.69349096 11.1017706,7.74315338 L11,7.75 L6,7.75 C5.35279131,7.75 4.8204661,8.24187466 4.75645361,8.87219476 L4.75,9 L4.75,18 C4.75,18.6472087 5.24187466,19.1795339 5.87219476,19.2435464 L6,19.25 L15,19.25 C15.6472087,19.25 16.1795339,18.7581253 16.2435464,18.1278052 L16.25,18 L16.25,13 C16.25,12.5857864 16.5857864,12.25 17,12.25 C17.3796958,12.25 17.693491,12.5321539 17.7431534,12.8982294 L17.75,13 L17.75,18 C17.75,19.4625318 16.6082954,20.6584043 15.1675223,20.7449812 L15,20.75 L6,20.75 C4.53746816,20.75 3.34159572,19.6082954 3.25501879,18.1675223 L3.25,18 L3.25,9 C3.25,7.53746816 4.3917046,6.34159572 5.83247767,6.25501879 L6,6.25 L11,6.25 Z M20,3.25 L20.017448,3.25020172 C20.0374655,3.25066463 20.0574681,3.25192429 20.077404,3.2539807 L20,3.25 C20.0468456,3.25 20.092688,3.25429489 20.1371551,3.26251238 C20.1480328,3.26457582 20.1597261,3.26701468 20.171367,3.26973472 C20.1948272,3.27517085 20.2172835,3.28157935 20.2392836,3.28898031 C20.2490913,3.29230301 20.2594565,3.29602848 20.2697519,3.29998933 C20.2890942,3.30744952 20.3075139,3.315445 20.3255328,3.32413984 C20.3399909,3.33105843 20.3546244,3.3387019 20.3690453,3.34686081 C20.3865081,3.35681304 20.4036581,3.36746126 20.4203291,3.3787629 C20.4306612,3.38568532 20.4411291,3.39317572 20.4514416,3.40096775 C20.5081986,3.44390193 20.5585304,3.49447237 20.6010016,3.55126304 L20.5303301,3.46966991 C20.5673834,3.50672319 20.5997491,3.54668892 20.6274273,3.58883021 C20.6405922,3.60898514 20.6529723,3.62997247 20.664329,3.65158175 C20.6691626,3.66070362 20.6735192,3.66943437 20.6776949,3.67822959 C20.690442,3.70501812 20.7019466,3.73347789 20.7116971,3.76273953 C20.7139554,3.76968322 20.7158799,3.77575442 20.7177252,3.78184446 C20.7290814,3.81893395 20.7377062,3.85807689 20.7431534,3.89822944 L20.75,4 L20.75,9 C20.75,9.41421356 20.4142136,9.75 20,9.75 C19.6203042,9.75 19.306509,9.46784612 19.2568466,9.10177056 L19.25,9 L19.25,5.81 L10.5303301,14.5303301 C10.2374369,14.8232233 9.76256313,14.8232233 9.46966991,14.5303301 C9.20340335,14.2640635 9.1791973,13.8473998 9.39705176,13.5537883 L9.46966991,13.4696699 L18.188,4.75 L15,4.75 C14.6203042,4.75 14.306509,4.46784612 14.2568466,4.10177056 L14.25,4 C14.25,3.62030423 14.5321539,3.30650904 14.8982294,3.25684662 L15,3.25 L20,3.25 Z" id="Icon-Color" fill="#212121"></path>
    </g>
</svg>