<?xml version="1.0" encoding="UTF-8"?>
<svg width="24px" height="24px" viewBox="0 0 24 24" version="1.1" xmlns="http://www.w3.org/2000/svg" xmlns:xlink="http://www.w3.org/1999/xlink">
    <title>Icon/eye off</title>
    <g id="Icon/eye-off" stroke="none" stroke-width="1" fill="none" fill-rule="evenodd">
        <path d="M3.44621165,2.39705176 L3.53033009,2.46966991 L17.8217373,16.7600842 C17.8633338,16.7929262 17.9019169,16.8306038 17.9366115,16.8729468 L21.5303301,20.4696699 C21.8232233,20.7625631 21.8232233,21.2374369 21.5303301,21.5303301 C21.2640635,21.7965966 20.8473998,21.8208027 20.5537883,21.6029482 L20.4696699,21.5303301 L17.2460637,18.3073828 C15.6343064,19.2675868 13.8821994,19.75 12,19.75 C7.70328335,19.75 4.13934918,17.2552728 1.34882623,12.3721192 C1.21704308,12.1415111 1.2170589,11.8584014 1.34886784,11.627808 C2.58319935,9.46840405 3.96540558,7.77750889 5.50009655,6.56065529 L2.46966991,3.53033009 C2.1767767,3.23743687 2.1767767,2.76256313 2.46966991,2.46966991 C2.73593648,2.20340335 3.15260016,2.1791973 3.44621165,2.39705176 Z M3.15165324,11.5375986 L2.868,12 L3.05741267,12.3117002 C5.45429241,16.1903372 8.32698265,18.1401563 11.7088757,18.2454868 L12,18.25 C13.4819016,18.25 14.8595627,17.9039399 16.1458518,17.2077216 L13.3417043,14.4026361 C12.2938468,14.9898793 10.9433348,14.8376249 10.0524825,13.9461426 C9.1621894,13.0552199 9.01052088,11.7057365 9.59720798,10.6585718 L6.56895961,7.62926212 C5.34009998,8.57171377 4.19995694,9.87304855 3.15165324,11.5375986 Z M12,4.24987902 C16.2966976,4.24987902 19.8606372,6.74470337 22.6511738,11.6278808 C22.78296,11.8584944 22.7829409,12.1416115 22.6511235,12.3722072 C21.8452784,13.7819183 20.9782441,14.990362 20.0477739,15.9970659 C19.7666246,16.3012499 19.2921181,16.3199232 18.9879341,16.0387739 C18.6837501,15.7576246 18.6650768,15.2831181 18.9462261,14.9789341 C19.7014357,14.1618499 20.4183962,13.1887409 21.0964369,12.0588517 L21.13,11.999 L20.9425847,11.6882956 C18.5456854,7.80963432 15.6728655,5.85978574 12.2887161,5.75444967 L11.997393,5.74993607 C11.1761728,5.74708153 10.3587201,5.86024291 9.56927505,6.086076 C9.17103577,6.19999857 8.75584656,5.96951433 8.641924,5.57127505 C8.52800143,5.17303577 8.75848567,4.75784656 9.15672495,4.643924 C10.082014,4.37923061 11.0401115,4.24659953 12,4.24987902 Z M11.1135175,12.8858574 C11.4035834,13.1761285 11.8008418,13.2940118 12.1779721,13.2394624 L10.7605202,11.8221525 C10.706057,12.1989467 10.8237078,12.5958428 11.1135175,12.8858574 Z" id="Icon-Color" fill="#212121"></path>
    </g>
</svg>