<?xml version="1.0" encoding="UTF-8"?>
<svg width="24px" height="24px" viewBox="0 0 24 24" version="1.1" xmlns="http://www.w3.org/2000/svg" xmlns:xlink="http://www.w3.org/1999/xlink">
    <title>Icon/eye</title>
    <g id="Icon/eye" stroke="none" stroke-width="1" fill="none" fill-rule="evenodd">
        <path d="M12,5.25 C16.1919187,5.25 19.6863645,7.62451725 22.4456095,12.2748409 L22.6511738,12.6278808 L22.6924964,12.7118974 L22.7094879,12.7568105 L22.7268372,12.814281 L22.7448469,12.91059 L22.7500852,13.0073458 L22.7428845,13.1033294 L22.724,13.19 C22.7151609,13.2281846 22.7047821,13.2585128 22.6924964,13.2881026 L22.6511738,13.3721192 C19.9287124,18.1361715 16.470107,20.6268852 12.3130856,20.7455493 L12,20.75 C7.70328335,20.75 4.13934918,18.2552728 1.34882623,13.3721192 C1.21705792,13.141537 1.21705792,12.858463 1.34882623,12.6278808 C4.13934918,7.74472719 7.70328335,5.25 12,5.25 Z M12,6.75 C8.49152479,6.75 5.52277469,8.69884458 3.05741267,12.6882998 L2.868,12.999 L3.05741267,13.3117002 C5.45429241,17.1903372 8.32698265,19.1401563 11.7088757,19.2454868 L12,19.25 C15.5084752,19.25 18.4772253,17.3011554 20.9425873,13.3117002 L21.131,12.999 L20.9425873,12.6882998 C18.5457076,8.80966278 15.6730174,6.85984369 12.2911243,6.75451318 L12,6.75 Z M12,10.25 C13.5187831,10.25 14.75,11.4812169 14.75,13 C14.75,14.5187831 13.5187831,15.75 12,15.75 C10.4812169,15.75 9.25,14.5187831 9.25,13 C9.25,11.4812169 10.4812169,10.25 12,10.25 Z M12,11.75 C11.3096441,11.75 10.75,12.3096441 10.75,13 C10.75,13.6903559 11.3096441,14.25 12,14.25 C12.6903559,14.25 13.25,13.6903559 13.25,13 C13.25,12.3096441 12.6903559,11.75 12,11.75 Z" id="Icon-Color" fill="#212121"></path>
    </g>
</svg>