<?xml version="1.0" encoding="UTF-8"?>
<svg width="24px" height="24px" viewBox="0 0 24 24" version="1.1" xmlns="http://www.w3.org/2000/svg" xmlns:xlink="http://www.w3.org/1999/xlink">
    <title>Icon/social/outline/facebook</title>
    <g id="Icon/social/outline/facebook" stroke="none" stroke-width="1" fill="none" fill-rule="evenodd">
        <path d="M12,2 C17.5228475,2 22,6.4771525 22,12 C22,17.5228475 17.5228475,22 12,22 C6.4771525,22 2,17.5228475 2,12 C2,6.4771525 6.4771525,2 12,2 Z M12,2.75 C6.89136606,2.75 2.75,6.89136606 2.75,12 C2.75,17.1086339 6.89136606,21.25 12,21.25 C17.1086339,21.25 21.25,17.1086339 21.25,12 C21.25,6.89136606 17.1086339,2.75 12,2.75 Z M14.6398333,7 C14.8220819,7 14.9726991,7.1446943 14.9965364,7.33242536 L14.9998227,7.38461538 L14.9998227,9.43589744 C14.9998227,9.63061321 14.8643928,9.79153383 14.6886817,9.81700174 L14.6398333,9.82051282 L13.1998759,9.82051282 C13.1430711,9.82051282 13.0954853,9.8626838 13.0830486,9.91932169 L13.0798794,9.94871795 L13.0798794,10.5897436 L14.6398333,10.5897436 C14.8584188,10.5897436 15.0226862,10.794585 14.9974353,11.0192609 L14.9890743,11.0676419 L14.5090885,13.118924 C14.4734762,13.2711178 14.3557496,13.3829334 14.2140114,13.4059024 L14.1598475,13.4102564 L13.0798794,13.4102564 L13.0798794,16.6153846 C13.0798794,16.8101004 12.9444496,16.971021 12.7687385,16.9964889 L12.7198901,17 L10.7999468,17 C10.6176982,17 10.467081,16.8553057 10.4432437,16.6675746 L10.4399574,16.6153846 L10.4399574,13.4102564 L9.35998936,13.4102564 C9.17774078,13.4102564 9.02712354,13.2655621 9.00328628,13.0778311 L9,13.025641 L9,10.974359 C9,10.7796432 9.13542986,10.6187226 9.31114094,10.5932547 L9.35998936,10.5897436 L10.4399574,10.5897436 L10.4399574,9.94871795 C10.4399574,8.35805883 11.6188108,7.06157076 13.0940123,7.00212927 L13.1998759,7 L14.6398333,7 Z M14.2798439,7.76923077 L13.1998759,7.76923077 C12.1063844,7.76923077 11.2138449,8.68846513 11.1622885,9.84311983 L11.1599362,9.94871795 L11.1599362,10.974359 C11.1599362,11.1690748 11.0245063,11.3299954 10.8487952,11.3554633 L10.7999468,11.3589744 L9.71997872,11.3589744 L9.71997872,12.6410256 L10.7999468,12.6410256 C10.9821954,12.6410256 11.1328126,12.7857199 11.1566499,12.973451 L11.1599362,13.025641 L11.1599362,16.2307692 L12.3599007,16.2307692 L12.3599007,13.025641 C12.3599007,12.8309252 12.4953306,12.6700046 12.6710416,12.6445367 L12.7198901,12.6410256 L13.8785758,12.6410256 L14.1785669,11.3589744 L12.7198901,11.3589744 C12.5376415,11.3589744 12.3870242,11.2142801 12.363187,11.026549 L12.3599007,10.974359 L12.3599007,9.94871795 C12.3599007,9.4778598 12.6993036,9.09169624 13.1309848,9.05425703 L13.1998759,9.05128205 L14.2798439,9.05128205 L14.2798439,7.76923077 Z" id="Icon-Color" fill="#212121"></path>
    </g>
</svg>