<?xml version="1.0" encoding="UTF-8"?>
<svg width="24px" height="24px" viewBox="0 0 24 24" version="1.1" xmlns="http://www.w3.org/2000/svg" xmlns:xlink="http://www.w3.org/1999/xlink">
    <title>Icon/face-id</title>
    <g id="Icon/face-id" stroke="none" stroke-width="1" fill="none" fill-rule="evenodd">
        <path d="M4,15.25 C4.37969577,15.25 4.69349096,15.5321539 4.74315338,15.8982294 L4.75,16 L4.75,18 C4.75,18.6472087 5.24187466,19.1795339 5.87219476,19.2435464 L6,19.25 L8,19.25 C8.41421356,19.25 8.75,19.5857864 8.75,20 C8.75,20.3796958 8.46784612,20.693491 8.10177056,20.7431534 L8,20.75 L6,20.75 C4.53746816,20.75 3.34159572,19.6082954 3.25501879,18.1675223 L3.25,18 L3.25,16 C3.25,15.5857864 3.58578644,15.25 4,15.25 Z M20,15.25 C20.3796958,15.25 20.693491,15.5321539 20.7431534,15.8982294 L20.75,16 L20.75,18 C20.75,19.4625318 19.6082954,20.6584043 18.1675223,20.7449812 L18,20.75 L16,20.75 C15.5857864,20.75 15.25,20.4142136 15.25,20 C15.25,19.6203042 15.5321539,19.306509 15.8982294,19.2568466 L16,19.25 L18,19.25 C18.6472087,19.25 19.1795339,18.7581253 19.2435464,18.1278052 L19.25,18 L19.25,16 C19.25,15.5857864 19.5857864,15.25 20,15.25 Z M15.0248907,14.4642857 C15.3207575,14.7541748 15.3256034,15.2290238 15.0357143,15.5248907 C14.2363362,16.3407525 13.1422065,16.8005103 12,16.8005103 C10.8577935,16.8005103 9.76366377,16.3407525 8.96428571,15.5248907 C8.67439661,15.2290238 8.67924251,14.7541748 8.97510934,14.4642857 C9.27097617,14.1743966 9.74582518,14.1792425 10.0357143,14.4751093 C10.5529589,15.0030199 11.2609252,15.3005103 12,15.3005103 C12.7390748,15.3005103 13.4470411,15.0030199 13.9642857,14.4751093 C14.2541748,14.1792425 14.7290238,14.1743966 15.0248907,14.4642857 Z M9.01,9.25 C9.42421356,9.25 9.76,9.58578644 9.76,10 C9.76,10.3796958 9.47784612,10.693491 9.11177056,10.7431534 L9,10.75 C8.58578644,10.75 8.25,10.4142136 8.25,10 C8.25,9.62030423 8.53215388,9.30650904 8.89822944,9.25684662 L9.01,9.25 Z M15.01,9.25 C15.4242136,9.25 15.76,9.58578644 15.76,10 C15.76,10.3796958 15.4778461,10.693491 15.1117706,10.7431534 L15,10.75 C14.5857864,10.75 14.25,10.4142136 14.25,10 C14.25,9.62030423 14.5321539,9.30650904 14.8982294,9.25684662 L15.01,9.25 Z M8,3.25 C8.41421356,3.25 8.75,3.58578644 8.75,4 C8.75,4.37969577 8.46784612,4.69349096 8.10177056,4.74315338 L8,4.75 L6,4.75 C5.35279131,4.75 4.8204661,5.24187466 4.75645361,5.87219476 L4.75,6 L4.75,8 C4.75,8.41421356 4.41421356,8.75 4,8.75 C3.62030423,8.75 3.30650904,8.46784612 3.25684662,8.10177056 L3.25,8 L3.25,6 C3.25,4.53746816 4.3917046,3.34159572 5.83247767,3.25501879 L6,3.25 L8,3.25 Z M18,3.25 C19.4625318,3.25 20.6584043,4.3917046 20.7449812,5.83247767 L20.75,6 L20.75,8 C20.75,8.41421356 20.4142136,8.75 20,8.75 C19.6203042,8.75 19.306509,8.46784612 19.2568466,8.10177056 L19.25,8 L19.25,6 C19.25,5.35279131 18.7581253,4.8204661 18.1278052,4.75645361 L18,4.75 L16,4.75 C15.5857864,4.75 15.25,4.41421356 15.25,4 C15.25,3.62030423 15.5321539,3.30650904 15.8982294,3.25684662 L16,3.25 L18,3.25 Z" id="Icon-Color" fill="#212121"></path>
    </g>
</svg>