<?xml version="1.0" encoding="UTF-8"?>
<svg width="24px" height="24px" viewBox="0 0 24 24" version="1.1" xmlns="http://www.w3.org/2000/svg" xmlns:xlink="http://www.w3.org/1999/xlink">
    <title>Icon/brand/figma</title>
    <g id="Icon/brand/figma" stroke="none" stroke-width="1" fill="none" fill-rule="evenodd">
        <path d="M15,2.25 C17.0710678,2.25 18.75,3.92893219 18.75,6 C18.75,7.22721641 18.1604959,8.31674676 17.2492136,9.00086515 C18.1604959,9.68325324 18.75,10.7727836 18.75,12 C18.75,14.0710678 17.0710678,15.75 15,15.75 C14.1557002,15.75 13.3765694,15.4709784 12.7497877,15.0001151 L12.75,18 C12.75,20.0710678 11.0710678,21.75 9,21.75 C6.92893219,21.75 5.25,20.0710678 5.25,18 C5.25,16.7727836 5.83950409,15.6832532 6.75078638,14.9991349 C5.83950409,14.3167468 5.25,13.2272164 5.25,12 C5.25,10.7727836 5.83950409,9.68325324 6.75078638,8.99913485 C5.83950409,8.31674676 5.25,7.22721641 5.25,6 C5.25,3.92893219 6.92893219,2.25 9,2.25 L9,2.25 Z M11.25,15.75 L9,15.75 C7.75735931,15.75 6.75,16.7573593 6.75,18 C6.75,19.2426407 7.75735931,20.25 9,20.25 C10.190864,20.25 11.1656449,19.3248384 11.2448092,18.1540488 L11.25,18 L11.25,15.75 Z M15,9.75 C13.7573593,9.75 12.75,10.7573593 12.75,12 C12.75,13.2426407 13.7573593,14.25 15,14.25 C16.2426407,14.25 17.25,13.2426407 17.25,12 C17.25,10.7573593 16.2426407,9.75 15,9.75 Z M6.75,12 C6.75,13.190864 7.67516159,14.1656449 8.84595119,14.2448092 L9,14.25 L11.25,14.25 L11.25,9.75 L9,9.75 L9,9.75 C7.75735931,9.75 6.75,10.7573593 6.75,12 Z M11.25,3.75 L9,3.75 C7.75735931,3.75 6.75,4.75735931 6.75,6 C6.75,7.24264069 7.75735931,8.25 9,8.25 L9,8.25 L11.25,8.25 L11.25,3.75 Z M15,3.75 L12.75,3.75 L12.75,8.25 L15,8.25 C16.190864,8.25 17.1656449,7.32483841 17.2448092,6.15404881 L17.25,6 C17.25,4.75735931 16.2426407,3.75 15,3.75 L15,3.75 Z" id="Icon-Color" fill="#212121"></path>
    </g>
</svg>