<?xml version="1.0" encoding="UTF-8"?>
<svg width="24px" height="24px" viewBox="0 0 24 24" version="1.1" xmlns="http://www.w3.org/2000/svg" xmlns:xlink="http://www.w3.org/1999/xlink">
    <title>Icon/file-export</title>
    <g id="Icon/file-export" stroke="none" stroke-width="1" fill="none" fill-rule="evenodd">
        <path d="M18.3441588,15.3333988 L18.4462117,15.3970518 L18.5303301,15.4696699 L21.5303301,18.4696699 C21.5647711,18.5041109 21.5951622,18.5410682 21.6215034,18.57995 L21.6760696,18.6748285 L21.7111871,18.7613353 L21.7375819,18.863702 L21.7482462,18.9484759 L21.7482462,19.0514189 L21.7312021,19.1673069 L21.7110197,19.2392836 L21.6883984,19.2981386 L21.6531392,19.3690453 L21.5937281,19.4583026 L21.5303301,19.5303301 L18.5303301,22.5303301 C18.2374369,22.8232233 17.7625631,22.8232233 17.4696699,22.5303301 C17.2034034,22.2640635 17.1791973,21.8473998 17.3970518,21.5537883 L17.4696699,21.4696699 L19.189,19.75 L14,19.75 C13.5857864,19.75 13.25,19.4142136 13.25,19 C13.25,18.6203042 13.5321539,18.306509 13.8982294,18.2568466 L14,18.25 L19.189,18.25 L17.4696699,16.5303301 C17.2034034,16.2640635 17.1791973,15.8473998 17.3970518,15.5537883 L17.4696699,15.4696699 C17.7063513,15.2329885 18.061865,15.1875648 18.3441588,15.3333988 Z M14,2.25 C14.0390967,2.25 14.0774947,2.25299154 14.1149775,2.2587582 L14,2.25 C14.044668,2.25 14.0889252,2.25398469 14.1322964,2.26175721 C14.1627176,2.26708067 14.1916945,2.27411383 14.219961,2.28277213 C14.2308802,2.28631883 14.2423134,2.29011974 14.2536456,2.29419239 C14.2772912,2.3024991 14.2996893,2.31184444 14.3215074,2.32221224 C14.3332411,2.32795576 14.3456145,2.33423379 14.3578125,2.34085495 C14.3770988,2.35119841 14.39548,2.36226424 14.4133267,2.37407291 C14.4223199,2.38010401 14.4313558,2.38635679 14.4402609,2.39281377 L14.4506597,2.40044115 C14.4532201,2.40236877 14.4557678,2.40431241 14.4583026,2.40627192 L14.5303301,2.46966991 L19.5303301,7.46966991 C19.5552127,7.49455252 19.578355,7.5211754 19.5995589,7.54934032 L19.5303301,7.46966991 C19.5663371,7.5056769 19.5983048,7.5449681 19.6259415,7.58683944 C19.6377358,7.60452002 19.6488016,7.6229012 19.6590805,7.64177281 C19.6657662,7.6543855 19.6720442,7.66675889 19.6779729,7.67929261 C19.6881556,7.70031071 19.6975009,7.72270882 19.7057618,7.74562497 C19.7098803,7.75768657 19.7136812,7.76911984 19.7172063,7.78064437 C19.7346723,7.83698936 19.7455198,7.89682316 19.7488794,7.95864926 L19.75,8 L19.75,13 C19.75,13.4142136 19.4142136,13.75 19,13.75 C18.6203042,13.75 18.306509,13.4678461 18.2568466,13.1017706 L18.25,13 L18.25,8.75 L15,8.75 C14.0818266,8.75 13.3288077,8.04288973 13.2558012,7.14352721 L13.25,7 L13.25,3.75 L7,3.75 C6.35279131,3.75 5.8204661,4.24187466 5.75645361,4.87219476 L5.75,5 L5.75,19 C5.75,19.6472087 6.24187466,20.1795339 6.87219476,20.2435464 L7,20.25 L11.5,20.25 C11.9142136,20.25 12.25,20.5857864 12.25,21 C12.25,21.3796958 11.9678461,21.693491 11.6017706,21.7431534 L11.5,21.75 L7,21.75 C5.53746816,21.75 4.34159572,20.6082954 4.25501879,19.1675223 L4.25,19 L4.25,5 C4.25,3.53746816 5.3917046,2.34159572 6.83247767,2.25501879 L7,2.25 L14,2.25 L14,2.25 Z M17.189,7.25 L14.75,4.811 L14.75,7 C14.75,7.11834673 14.8322334,7.21748682 14.9426773,7.24339732 L15,7.25 L17.189,7.25 Z" id="Icon-Color" fill="#212121"></path>
    </g>
</svg>