<?xml version="1.0" encoding="UTF-8"?>
<svg width="24px" height="24px" viewBox="0 0 24 24" version="1.1" xmlns="http://www.w3.org/2000/svg" xmlns:xlink="http://www.w3.org/1999/xlink">
    <title>Icon/file-import</title>
    <g id="Icon/file-import" stroke="none" stroke-width="1" fill="none" fill-rule="evenodd">
        <path d="M6.34415877,15.3333988 L6.44621165,15.3970518 L6.53033009,15.4696699 L9.53033009,18.4696699 C9.56477109,18.5041109 9.59516221,18.5410682 9.62150345,18.57995 L9.6760696,18.6748285 L9.71118709,18.7613353 L9.73758187,18.863702 L9.74824619,18.9484759 L9.74824619,19.0514189 L9.73120211,19.1673069 L9.71101969,19.2392836 L9.68839841,19.2981386 L9.65313919,19.3690453 L9.59372808,19.4583026 L9.53033009,19.5303301 L6.53033009,22.5303301 C6.23743687,22.8232233 5.76256313,22.8232233 5.46966991,22.5303301 C5.20340335,22.2640635 5.1791973,21.8473998 5.39705176,21.5537883 L5.46966991,21.4696699 L7.189,19.75 L2,19.75 C1.58578644,19.75 1.25,19.4142136 1.25,19 C1.25,18.6203042 1.53215388,18.306509 1.89822944,18.2568466 L2,18.25 L7.189,18.25 L5.46966991,16.5303301 C5.20340335,16.2640635 5.1791973,15.8473998 5.39705176,15.5537883 L5.46966991,15.4696699 C5.7063513,15.2329885 6.06186498,15.1875648 6.34415877,15.3333988 Z M14,2.25 C14.0390967,2.25 14.0774947,2.25299154 14.1149775,2.2587582 L14,2.25 C14.044668,2.25 14.0889252,2.25398469 14.1322964,2.26175721 C14.1627176,2.26708067 14.1916945,2.27411383 14.219961,2.28277213 C14.2308802,2.28631883 14.2423134,2.29011974 14.2536456,2.29419239 C14.2772912,2.3024991 14.2996893,2.31184444 14.3215074,2.32221224 C14.3332411,2.32795576 14.3456145,2.33423379 14.3578125,2.34085495 C14.3770988,2.35119841 14.39548,2.36226424 14.4133267,2.37407291 C14.4223199,2.38010401 14.4313558,2.38635679 14.4402609,2.39281377 L14.4506597,2.40044115 C14.4532201,2.40236877 14.4557678,2.40431241 14.4583026,2.40627192 L14.5303301,2.46966991 L19.5303301,7.46966991 C19.5552127,7.49455252 19.578355,7.5211754 19.5995589,7.54934032 L19.5303301,7.46966991 C19.5663371,7.5056769 19.5983048,7.5449681 19.6259415,7.58683944 C19.6377358,7.60452002 19.6488016,7.6229012 19.6590805,7.64177281 C19.6657662,7.6543855 19.6720442,7.66675889 19.6779729,7.67929261 C19.6881556,7.70031071 19.6975009,7.72270882 19.7057618,7.74562497 C19.7098803,7.75768657 19.7136812,7.76911984 19.7172063,7.78064437 C19.7346723,7.83698936 19.7455198,7.89682316 19.7488794,7.95864926 L19.75,8 L19.75,19 C19.75,20.4625318 18.6082954,21.6584043 17.1675223,21.7449812 L17,21.75 L11.5,21.75 C11.0857864,21.75 10.75,21.4142136 10.75,21 C10.75,20.6203042 11.0321539,20.306509 11.3982294,20.2568466 L11.5,20.25 L17,20.25 C17.6472087,20.25 18.1795339,19.7581253 18.2435464,19.1278052 L18.25,19 L18.25,8.75 L15,8.75 C14.0818266,8.75 13.3288077,8.04288973 13.2558012,7.14352721 L13.25,7 L13.25,3.75 L7,3.75 C6.35279131,3.75 5.8204661,4.24187466 5.75645361,4.87219476 L5.75,5 L5.75,13 C5.75,13.4142136 5.41421356,13.75 5,13.75 C4.62030423,13.75 4.30650904,13.4678461 4.25684662,13.1017706 L4.25,13 L4.25,5 C4.25,3.53746816 5.3917046,2.34159572 6.83247767,2.25501879 L7,2.25 L14,2.25 L14,2.25 Z M17.189,7.25 L14.75,4.811 L14.75,7 C14.75,7.11834673 14.8322334,7.21748682 14.9426773,7.24339732 L15,7.25 L17.189,7.25 Z" id="Icon-Color" fill="#212121"></path>
    </g>
</svg>