<?xml version="1.0" encoding="UTF-8"?>
<svg width="24px" height="24px" viewBox="0 0 24 24" version="1.1" xmlns="http://www.w3.org/2000/svg" xmlns:xlink="http://www.w3.org/1999/xlink">
    <title>Icon/file-phone</title>
    <g id="Icon/file-phone" stroke="none" stroke-width="1" fill="none" fill-rule="evenodd">
        <path d="M14,2.25 C14.0390967,2.25 14.0774947,2.25299154 14.1149775,2.2587582 C14.1201729,2.25966144 14.1262433,2.26067244 14.1322964,2.26175721 C14.1627176,2.26708067 14.1916945,2.27411383 14.219961,2.28277213 C14.2301883,2.28610722 14.2409404,2.28966439 14.2516036,2.29346186 C14.2759859,2.30195558 14.2990538,2.31154247 14.3215074,2.32221224 C14.3332411,2.32795576 14.3456145,2.33423379 14.3578125,2.34085495 C14.3770988,2.35119841 14.39548,2.36226424 14.4133267,2.37407291 C14.4550319,2.40169523 14.4943231,2.43366293 14.5303301,2.46966991 L14.4506597,2.40044115 C14.4532201,2.40236877 14.4557678,2.40431241 14.4583026,2.40627192 L14.5303301,2.46966991 L19.5303301,7.46966991 C19.5552127,7.49455252 19.578355,7.5211754 19.5995589,7.54934032 C19.608648,7.56149229 19.617497,7.57404542 19.6259415,7.58683944 C19.6377358,7.60452002 19.6488016,7.6229012 19.6590805,7.64177281 C19.6657662,7.6543855 19.6720442,7.66675889 19.6779729,7.67929261 C19.6881556,7.70031071 19.6975009,7.72270882 19.7057618,7.74562497 C19.7098803,7.75768657 19.7136812,7.76911984 19.7172063,7.78064437 C19.7346723,7.83698936 19.7455198,7.89682316 19.7488794,7.95864926 L19.75,8 L19.75,19 C19.75,20.5187831 18.5187831,21.75 17,21.75 L17,21.75 L7,21.75 C5.48121694,21.75 4.25,20.5187831 4.25,19 L4.25,19 L4.25,5 C4.25,3.48121694 5.48121694,2.25 7,2.25 L7,2.25 L14,2.25 L14,2.25 Z M13.25,3.75 L7,3.75 C6.30964406,3.75 5.75,4.30964406 5.75,5 L5.75,5 L5.75,19 C5.75,19.6903559 6.30964406,20.25 7,20.25 L7,20.25 L17,20.25 C17.6903559,20.25 18.25,19.6903559 18.25,19 L18.25,19 L18.25,8.75 L15,8.75 C14.0818266,8.75 13.3288077,8.04288973 13.2558012,7.14352721 L13.25,7 L13.25,3.75 Z M9.5,9.75 C10.1472087,9.75 10.6795339,10.2418747 10.7435464,10.8721948 L10.75,11 L10.75,12 C10.75,12.517767 10.4352002,12.9620085 9.98655641,13.1517688 L9.915,13.177 L9.91975464,13.1931058 C10.3035905,14.5079604 11.3057344,15.5591053 12.5902511,16.0106052 L12.822,16.084 L12.8482312,16.0134436 C13.0221782,15.6021868 13.40996,15.3033961 13.8721948,15.2564536 L14,15.25 L15,15.25 C15.6903559,15.25 16.25,15.8096441 16.25,16.5 C16.25,17.1472087 15.7581253,17.6795339 15.1278052,17.7435464 L15,17.75 L14,17.75 C10.8982147,17.75 8.37006299,15.2939828 8.25415208,12.2205557 L8.25,12 L8.25,11 C8.25,10.3096441 8.80964406,9.75 9.5,9.75 Z M14.75,4.811 L14.75,7 C14.75,7.11834673 14.8322334,7.21748682 14.9426773,7.24339732 L15,7.25 L17.189,7.25 L14.75,4.811 Z" id="Icon-Color" fill="#212121"></path>
    </g>
</svg>