<?xml version="1.0" encoding="UTF-8"?>
<svg width="24px" height="24px" viewBox="0 0 24 24" version="1.1" xmlns="http://www.w3.org/2000/svg" xmlns:xlink="http://www.w3.org/1999/xlink">
    <title>Icon/file-zip</title>
    <g id="Icon/file-zip" stroke="none" stroke-width="1" fill="none" fill-rule="evenodd">
        <path d="M11,16.25 C12.5187831,16.25 13.75,17.4812169 13.75,19 L13.75,19 L13.75,21 C13.75,21.9664983 12.9664983,22.75 12,22.75 L12,22.75 L10,22.75 C9.03350169,22.75 8.25,21.9664983 8.25,21 L8.25,21 L8.25,19 C8.25,17.4812169 9.48121694,16.25 11,16.25 Z M13.9999978,2.25 C14.1591277,2.25 14.3130436,2.30057128 14.4402587,2.39281377 L14.5303279,2.46966991 L19.5303279,7.46966991 C19.6428497,7.58219174 19.7159254,7.72678598 19.7406548,7.88196594 L19.7499978,8 L19.7499978,19 C19.7499978,20.4625324 18.6082947,21.6584043 17.1675203,21.7449812 L16.9999978,21.75 L15.9999978,21.75 C15.5857843,21.75 15.2499978,21.4142136 15.2499978,21 C15.2499978,20.6203042 15.5321517,20.306509 15.8982273,20.2568466 L15.9999978,20.25 L16.9999978,20.25 C17.6472077,20.25 18.1795319,19.7581261 18.2435442,19.1278054 L18.2499978,19 L18.249,8.31 L13.689,3.75 L6.99999782,3.75 C6.35279035,3.75 5.82046407,4.24187544 5.75645144,4.87219491 L5.74999782,5 L5.74999782,19.0011032 C5.74940493,19.4036208 5.94239928,19.7788205 6.26336117,20.0128543 L6.37499799,20.085481 C6.7337174,20.2925879 6.85662365,20.7512808 6.64951677,21.1100002 C6.44240989,21.4687196 5.98371705,21.5916258 5.62499764,21.384519 C4.82969904,20.9253528 4.31992017,20.1022649 4.25666035,19.1954881 L4.24999782,19 L4.24999782,5 C4.24999782,3.53746877 5.39170386,2.34159577 6.83247565,2.2550188 L6.99999782,2.25 L13.9999978,2.25 Z M11,17.75 C10.3096441,17.75 9.75,18.3096441 9.75,19 L9.75,19 L9.75,21 C9.75,21.1380712 9.86192881,21.25 10,21.25 L10,21.25 L12,21.25 C12.1380712,21.25 12.25,21.1380712 12.25,21 L12.25,21 L12.25,19 C12.25,18.3096441 11.6903559,17.75 11,17.75 Z M13,14.25 C13.4142136,14.25 13.75,14.5857864 13.75,15 C13.75,15.3796958 13.4678461,15.693491 13.1017706,15.7431534 L13,15.75 L12,15.75 C11.5857864,15.75 11.25,15.4142136 11.25,15 C11.25,14.6203042 11.5321539,14.306509 11.8982294,14.2568466 L12,14.25 L13,14.25 Z M11,12.25 C11.4142136,12.25 11.75,12.5857864 11.75,13 C11.75,13.3796958 11.4678461,13.693491 11.1017706,13.7431534 L11,13.75 L10,13.75 C9.58578644,13.75 9.25,13.4142136 9.25,13 C9.25,12.6203042 9.53215388,12.306509 9.89822944,12.2568466 L10,12.25 L11,12.25 Z M13,10.25 C13.4142136,10.25 13.75,10.5857864 13.75,11 C13.75,11.3796958 13.4678461,11.693491 13.1017706,11.7431534 L13,11.75 L12,11.75 C11.5857864,11.75 11.25,11.4142136 11.25,11 C11.25,10.6203042 11.5321539,10.306509 11.8982294,10.2568466 L12,10.25 L13,10.25 Z M11,8.25 C11.4142136,8.25 11.75,8.58578644 11.75,9 C11.75,9.37969577 11.4678461,9.69349096 11.1017706,9.74315338 L11,9.75 L10,9.75 C9.58578644,9.75 9.25,9.41421356 9.25,9 C9.25,8.62030423 9.53215388,8.30650904 9.89822944,8.25684662 L10,8.25 L11,8.25 Z M13,6.25 C13.4142136,6.25 13.75,6.58578644 13.75,7 C13.75,7.37969577 13.4678461,7.69349096 13.1017706,7.74315338 L13,7.75 L12,7.75 C11.5857864,7.75 11.25,7.41421356 11.25,7 C11.25,6.62030423 11.5321539,6.30650904 11.8982294,6.25684662 L12,6.25 L13,6.25 Z M11,4.25 C11.4142136,4.25 11.75,4.58578644 11.75,5 C11.75,5.37969577 11.4678461,5.69349096 11.1017706,5.74315338 L11,5.75 L10,5.75 C9.58578644,5.75 9.25,5.41421356 9.25,5 C9.25,4.62030423 9.53215388,4.30650904 9.89822944,4.25684662 L10,4.25 L11,4.25 Z" id="Icon-Color" fill="#212121"></path>
    </g>
</svg>