<?xml version="1.0" encoding="UTF-8"?>
<svg width="24px" height="24px" viewBox="0 0 24 24" version="1.1" xmlns="http://www.w3.org/2000/svg" xmlns:xlink="http://www.w3.org/1999/xlink">
    <title>Icon/file-upload</title>
    <g id="Icon/file-upload" stroke="none" stroke-width="1" fill="none" fill-rule="evenodd">
        <path d="M14,2.25 C14.0390967,2.25 14.0774947,2.25299154 14.1149775,2.2587582 C14.1201729,2.25966144 14.1262433,2.26067244 14.1322964,2.26175721 C14.1627176,2.26708067 14.1916945,2.27411383 14.219961,2.28277213 C14.2301883,2.28610722 14.2409404,2.28966439 14.2516036,2.29346186 C14.2759859,2.30195558 14.2990538,2.31154247 14.3215074,2.32221224 C14.3332411,2.32795576 14.3456145,2.33423379 14.3578125,2.34085495 C14.3770988,2.35119841 14.39548,2.36226424 14.4133267,2.37407291 C14.4550319,2.40169523 14.4943231,2.43366293 14.5303301,2.46966991 L14.4506597,2.40044115 C14.4532201,2.40236877 14.4557678,2.40431241 14.4583026,2.40627192 L14.5303301,2.46966991 L19.5303301,7.46966991 C19.5552127,7.49455252 19.578355,7.5211754 19.5995589,7.54934032 C19.608648,7.56149229 19.617497,7.57404542 19.6259415,7.58683944 C19.6377358,7.60452002 19.6488016,7.6229012 19.6590805,7.64177281 C19.6657662,7.6543855 19.6720442,7.66675889 19.6779729,7.67929261 C19.6881556,7.70031071 19.6975009,7.72270882 19.7057618,7.74562497 C19.7098803,7.75768657 19.7136812,7.76911984 19.7172063,7.78064437 C19.7346723,7.83698936 19.7455198,7.89682316 19.7488794,7.95864926 L19.75,8 L19.75,19 C19.75,20.5187831 18.5187831,21.75 17,21.75 L17,21.75 L7,21.75 C5.48121694,21.75 4.25,20.5187831 4.25,19 L4.25,19 L4.25,5 C4.25,3.48121694 5.48121694,2.25 7,2.25 L7,2.25 L14,2.25 L14,2.25 Z M13.25,3.75 L7,3.75 C6.30964406,3.75 5.75,4.30964406 5.75,5 L5.75,5 L5.75,19 C5.75,19.6903559 6.30964406,20.25 7,20.25 L7,20.25 L17,20.25 C17.6903559,20.25 18.25,19.6903559 18.25,19 L18.25,19 L18.25,8.75 L15,8.75 C14.0818266,8.75 13.3288077,8.04288973 13.2558012,7.14352721 L13.25,7 L13.25,3.75 Z M12.1017706,10.2568466 L12.1127744,10.2584774 C12.1245181,10.2602538 12.1362278,10.2623095 12.1478927,10.2646443 C12.1728958,10.269588 12.1971921,10.2757612 12.2209837,10.2830862 C12.2326435,10.2867127 12.2446929,10.2907446 12.256654,10.2950907 C12.2799516,10.303575 12.3020202,10.3128769 12.3235218,10.3231731 C12.3351229,10.3286653 12.3474599,10.3349683 12.359651,10.341635 C12.3836668,10.3548702 12.4063902,10.3689754 12.4282634,10.3842162 C12.4340051,10.3881375 12.4401347,10.3925428 12.4462117,10.3970518 C12.4538569,10.4028549 12.4560847,10.4045573 12.4583026,10.4062719 L12.5303301,10.4696699 L15.5303301,13.4696699 C15.8232233,13.7625631 15.8232233,14.2374369 15.5303301,14.5303301 C15.2640635,14.7965966 14.8473998,14.8208027 14.5537883,14.6029482 L14.4696699,14.5303301 L12.75,12.811 L12.75,17 C12.75,17.4142136 12.4142136,17.75 12,17.75 C11.6203042,17.75 11.306509,17.4678461 11.2568466,17.1017706 L11.25,17 L11.25,12.811 L9.53033009,14.5303301 C9.26406352,14.7965966 8.84739984,14.8208027 8.55378835,14.6029482 L8.46966991,14.5303301 C8.20340335,14.2640635 8.1791973,13.8473998 8.39705176,13.5537883 L8.46966991,13.4696699 L11.4696699,10.4696699 L11.5416974,10.4062719 C11.5458164,10.4030877 11.5499695,10.3999454 11.5541561,10.3968457 L11.4696699,10.4696699 C11.5067232,10.4326166 11.5466889,10.4002509 11.5888302,10.3725727 C11.6089851,10.3594078 11.6299725,10.3470277 11.6515818,10.335671 C11.6607036,10.3308374 11.6694344,10.3264808 11.6782296,10.3223051 C11.7066055,10.3088007 11.7367626,10.2967322 11.7678087,10.286634 C11.7731076,10.2849658 11.7774712,10.2835999 11.7818445,10.2822748 C11.8503231,10.2613532 11.9238357,10.25 12,10.25 L12.0058164,10.2500224 L12.1017706,10.2568466 L12.1017706,10.2568466 Z M14.75,4.811 L14.75,7 C14.75,7.11834673 14.8322334,7.21748682 14.9426773,7.24339732 L15,7.25 L17.189,7.25 L14.75,4.811 Z" id="Icon-Color" fill="#212121"></path>
    </g>
</svg>