<?xml version="1.0" encoding="UTF-8"?>
<svg width="24px" height="24px" viewBox="0 0 24 24" version="1.1" xmlns="http://www.w3.org/2000/svg" xmlns:xlink="http://www.w3.org/1999/xlink">
    <title>Icon/flask</title>
    <g id="Icon/flask" stroke="none" stroke-width="1" fill="none" fill-rule="evenodd">
        <path d="M15,2.25 C15.4142136,2.25 15.75,2.58578644 15.75,3 C15.75,3.37969577 15.4678461,3.69349096 15.1017706,3.74315338 L15,3.75 L14.7493606,3.75 L14.75,8.87 L18.6716024,19.6661583 C18.851711,20.02849 18.8712808,20.4473093 18.7304293,20.8218605 L18.6700906,20.9600453 C18.4891357,21.321955 18.1664467,21.5896573 17.7825579,21.7026042 L17.6358881,21.7375869 L17.5,21.75 L6.5,21.75 L6.36411192,21.7375869 C5.91644011,21.6551108 5.53348368,21.3671938 5.32990945,20.9600453 C5.14895457,20.5981355 5.12840615,20.179363 5.24503451,19.8589386 L5.29515493,19.7436927 L9.25,8.867 L9.2493606,3.75 L9,3.75 C8.58578644,3.75 8.25,3.41421356 8.25,3 C8.25,2.62030423 8.53215388,2.30650904 8.89822944,2.25684662 L9,2.25 L15,2.25 Z M13.4743606,9.75 L10.5243606,9.75 L6.701,20.25 L17.293,20.25 L13.4743606,9.75 Z M13.2493606,3.75 L10.7493606,3.75 L10.7493606,8.25 L13.2493606,8.25 L13.2493606,3.75 Z" id="Icon-Color" fill="#212121"></path>
    </g>
</svg>