<?xml version="1.0" encoding="UTF-8"?>
<svg width="24px" height="24px" viewBox="0 0 24 24" version="1.1" xmlns="http://www.w3.org/2000/svg" xmlns:xlink="http://www.w3.org/1999/xlink">
    <title>Icon/float-none</title>
    <g id="Icon/float-none" stroke="none" stroke-width="1" fill="none" fill-rule="evenodd">
        <path d="M20,18.25 C20.4142136,18.25 20.75,18.5857864 20.75,19 C20.75,19.3796958 20.4678461,19.693491 20.1017706,19.7431534 L20,19.75 L4,19.75 C3.58578644,19.75 3.25,19.4142136 3.25,19 C3.25,18.6203042 3.53215388,18.306509 3.89822944,18.2568466 L4,18.25 L20,18.25 Z M20,14.25 C20.4142136,14.25 20.75,14.5857864 20.75,15 C20.75,15.3796958 20.4678461,15.693491 20.1017706,15.7431534 L20,15.75 L4,15.75 C3.58578644,15.75 3.25,15.4142136 3.25,15 C3.25,14.6203042 3.53215388,14.306509 3.89822944,14.2568466 L4,14.25 L20,14.25 Z M9,4.25 C9.96649831,4.25 10.75,5.03350169 10.75,6 L10.75,6 L10.75,10 C10.75,10.9664983 9.96649831,11.75 9,11.75 L9,11.75 L5,11.75 C4.03350169,11.75 3.25,10.9664983 3.25,10 L3.25,10 L3.25,6 C3.25,5.03350169 4.03350169,4.25 5,4.25 L5,4.25 Z M9,5.75 L5,5.75 C4.86192881,5.75 4.75,5.86192881 4.75,6 L4.75,6 L4.75,10 C4.75,10.1380712 4.86192881,10.25 5,10.25 L5,10.25 L9,10.25 C9.13807119,10.25 9.25,10.1380712 9.25,10 L9.25,10 L9.25,6 C9.25,5.86192881 9.13807119,5.75 9,5.75 L9,5.75 Z" id="Icon-Color" fill="#212121"></path>
    </g>
</svg>