<?xml version="1.0" encoding="UTF-8"?>
<svg width="24px" height="24px" viewBox="0 0 24 24" version="1.1" xmlns="http://www.w3.org/2000/svg" xmlns:xlink="http://www.w3.org/1999/xlink">
    <title>Icon/float-right</title>
    <g id="Icon/float-right" stroke="none" stroke-width="1" fill="none" fill-rule="evenodd">
        <path d="M20,18.25 C20.4142136,18.25 20.75,18.5857864 20.75,19 C20.75,19.3796958 20.4678461,19.693491 20.1017706,19.7431534 L20,19.75 L4,19.75 C3.58578644,19.75 3.25,19.4142136 3.25,19 C3.25,18.6203042 3.53215388,18.306509 3.89822944,18.2568466 L4,18.25 L20,18.25 Z M20,14.25 C20.4142136,14.25 20.75,14.5857864 20.75,15 C20.75,15.3796958 20.4678461,15.693491 20.1017706,15.7431534 L20,15.75 L4,15.75 C3.58578644,15.75 3.25,15.4142136 3.25,15 C3.25,14.6203042 3.53215388,14.306509 3.89822944,14.2568466 L4,14.25 L20,14.25 Z M19,4.25 C19.9664983,4.25 20.75,5.03350169 20.75,6 L20.75,6 L20.75,10 C20.75,10.9664983 19.9664983,11.75 19,11.75 L19,11.75 L15,11.75 C14.0335017,11.75 13.25,10.9664983 13.25,10 L13.25,10 L13.25,6 C13.25,5.03350169 14.0335017,4.25 15,4.25 L15,4.25 Z M10,10.25 C10.4142136,10.25 10.75,10.5857864 10.75,11 C10.75,11.3796958 10.4678461,11.693491 10.1017706,11.7431534 L10,11.75 L4,11.75 C3.58578644,11.75 3.25,11.4142136 3.25,11 C3.25,10.6203042 3.53215388,10.306509 3.89822944,10.2568466 L4,10.25 L10,10.25 Z M19,5.75 L15,5.75 C14.8619288,5.75 14.75,5.86192881 14.75,6 L14.75,6 L14.75,10 C14.75,10.1380712 14.8619288,10.25 15,10.25 L15,10.25 L19,10.25 C19.1380712,10.25 19.25,10.1380712 19.25,10 L19.25,10 L19.25,6 C19.25,5.86192881 19.1380712,5.75 19,5.75 L19,5.75 Z M10,6.25 C10.4142136,6.25 10.75,6.58578644 10.75,7 C10.75,7.37969577 10.4678461,7.69349096 10.1017706,7.74315338 L10,7.75 L4,7.75 C3.58578644,7.75 3.25,7.41421356 3.25,7 C3.25,6.62030423 3.53215388,6.30650904 3.89822944,6.25684662 L4,6.25 L10,6.25 Z" id="Icon-Color" fill="#212121"></path>
    </g>
</svg>