<?xml version="1.0" encoding="UTF-8"?>
<svg width="24px" height="24px" viewBox="0 0 24 24" version="1.1" xmlns="http://www.w3.org/2000/svg" xmlns:xlink="http://www.w3.org/1999/xlink">
    <title>Icon/folder</title>
    <g id="Icon/folder" stroke="none" stroke-width="1" fill="none" fill-rule="evenodd">
        <path d="M9,3.25 C9.15912989,3.25 9.31304575,3.30057128 9.44026087,3.39281377 L9.53033009,3.46966991 L12.311,6.25 L19,6.25 C20.4625318,6.25 21.6584043,7.3917046 21.7449812,8.83247767 L21.75,9 L21.75,17 C21.75,18.4625318 20.6082954,19.6584043 19.1675223,19.7449812 L19,19.75 L5,19.75 C3.53746816,19.75 2.34159572,18.6082954 2.25501879,17.1675223 L2.25,17 L2.25,6 C2.25,4.53746816 3.3917046,3.34159572 4.83247767,3.25501879 L5,3.25 L9,3.25 Z M8.689,4.75 L5,4.75 C4.35279131,4.75 3.8204661,5.24187466 3.75645361,5.87219476 L3.75,6 L3.75,17 C3.75,17.6472087 4.24187466,18.1795339 4.87219476,18.2435464 L5,18.25 L19,18.25 C19.6472087,18.25 20.1795339,17.7581253 20.2435464,17.1278052 L20.25,17 L20.25,9 C20.25,8.35279131 19.7581253,7.8204661 19.1278052,7.75645361 L19,7.75 L12,7.75 C11.8408701,7.75 11.6869542,7.69942872 11.5597391,7.60718623 L11.4696699,7.53033009 L8.689,4.75 Z" id="Icon-Color" fill="#212121"></path>
    </g>
</svg>