<?xml version="1.0" encoding="UTF-8"?>
<svg width="24px" height="24px" viewBox="0 0 24 24" version="1.1" xmlns="http://www.w3.org/2000/svg" xmlns:xlink="http://www.w3.org/1999/xlink">
    <title>Icon/arrows/caret/forward</title>
    <g id="Icon/arrows/caret/forward" stroke="none" stroke-width="1" fill="none" fill-rule="evenodd">
        <path d="M11.4696699,8.46966991 C11.7359365,8.20340335 12.1526002,8.1791973 12.4462117,8.39705176 L12.5303301,8.46966991 L18.5631636,14.5046608 L18.6029482,14.5537883 L18.6610428,14.6452899 L18.6910613,14.7080662 L18.7232093,14.8006203 L18.7431534,14.8982294 L18.7481845,14.9476864 L18.75,15 L18.7481845,15.0523136 L18.7431534,15.1017706 L18.7232093,15.1993797 L18.6910613,15.2919338 L18.6610428,15.3547101 L18.598,15.451 C18.5690252,15.4896659 18.5391274,15.5227941 18.5073939,15.5521952 L18.4462117,15.6029482 L18.3547101,15.6610428 L18.2919338,15.6910613 L18.1993797,15.7232093 L18.1017706,15.7431534 L18.0523136,15.7481845 L18,15.75 L6,15.75 C5.36698866,15.75 5.03334393,15.0249433 5.40170696,14.5468915 L5.46966991,14.4696699 L11.4696699,8.46966991 Z M12,10.061 L7.811,14.25 L16.189,14.25 L12,10.061 Z" id="Icon-Color" fill="#212121" transform="translate(11.999248, 12.000000) rotate(90.000000) translate(-11.999248, -12.000000) "></path>
    </g>
</svg>