<?xml version="1.0" encoding="UTF-8"?>
<svg width="24px" height="24px" viewBox="0 0 24 24" version="1.1" xmlns="http://www.w3.org/2000/svg" xmlns:xlink="http://www.w3.org/1999/xlink">
    <title>Icon/frame</title>
    <g id="Icon/frame" stroke="none" stroke-width="1" fill="none" fill-rule="evenodd">
        <path d="M17,3.25 C17.3796958,3.25 17.693491,3.53215388 17.7431534,3.89822944 L17.75,4 L17.75,6.25 L20,6.25 C20.4142136,6.25 20.75,6.58578644 20.75,7 C20.75,7.37969577 20.4678461,7.69349096 20.1017706,7.74315338 L20,7.75 L17.75,7.75 L17.75,16.25 L20,16.25 C20.4142136,16.25 20.75,16.5857864 20.75,17 C20.75,17.3796958 20.4678461,17.693491 20.1017706,17.7431534 L20,17.75 L17.75,17.75 L17.75,20 C17.75,20.4142136 17.4142136,20.75 17,20.75 C16.6203042,20.75 16.306509,20.4678461 16.2568466,20.1017706 L16.25,20 L16.25,17.75 L7.75,17.75 L7.75,20 C7.75,20.4142136 7.41421356,20.75 7,20.75 C6.62030423,20.75 6.30650904,20.4678461 6.25684662,20.1017706 L6.25,20 L6.25,17.75 L4,17.75 C3.58578644,17.75 3.25,17.4142136 3.25,17 C3.25,16.6203042 3.53215388,16.306509 3.89822944,16.2568466 L4,16.25 L6.25,16.25 L6.25,7.75 L4,7.75 C3.58578644,7.75 3.25,7.41421356 3.25,7 C3.25,6.62030423 3.53215388,6.30650904 3.89822944,6.25684662 L4,6.25 L6.25,6.25 L6.25,4 C6.25,3.58578644 6.58578644,3.25 7,3.25 C7.37969577,3.25 7.69349096,3.53215388 7.74315338,3.89822944 L7.75,4 L7.75,6.25 L16.25,6.25 L16.25,4 C16.25,3.58578644 16.5857864,3.25 17,3.25 Z M16.25,16.25 L16.25,7.75 L7.75,7.75 L7.75,16.25 L16.25,16.25 Z" id="Icon-Color" fill="#212121"></path>
    </g>
</svg>