<?xml version="1.0" encoding="UTF-8"?>
<svg width="24px" height="24px" viewBox="0 0 24 24" version="1.1" xmlns="http://www.w3.org/2000/svg" xmlns:xlink="http://www.w3.org/1999/xlink">
    <title>Icon/friends</title>
    <g id="Icon/friends" stroke="none" stroke-width="1" fill="none" fill-rule="evenodd">
        <path d="M9,10.25 C9.9181734,10.25 10.6711923,10.9571103 10.7441988,11.8564728 L10.75,12 L10.75,16 C10.75,16.1591299 10.6994287,16.3130458 10.6071862,16.4402609 L10.5303301,16.5303301 L9.75,17.31 L9.75,22 C9.75,22.3796958 9.46784612,22.693491 9.10177056,22.7431534 L9,22.75 C8.62030423,22.75 8.30650904,22.4678461 8.25684662,22.1017706 L8.25,22 L8.25,17 C8.25,16.8408701 8.30057128,16.6869542 8.39281377,16.5597391 L8.46966991,16.4696699 L9.25,15.688 L9.25,12 C9.25,11.8816533 9.16776659,11.7825132 9.05732271,11.7566027 L9,11.75 L5,11.75 C4.88165327,11.75 4.78251318,11.8322334 4.75660268,11.9426773 L4.75,12 L4.75,15.689 L5.53033009,16.4696699 C5.64285191,16.5821917 5.71592756,16.726786 5.74065695,16.8819659 L5.75,17 L5.75,22 C5.75,22.4142136 5.41421356,22.75 5,22.75 C4.62030423,22.75 4.30650904,22.4678461 4.25684662,22.1017706 L4.25,22 L4.25,17.311 L3.46966991,16.5303301 C3.35714809,16.4178083 3.28407244,16.273214 3.25934305,16.1180341 L3.25,16 L3.25,12 C3.25,11.0818266 3.95711027,10.3288077 4.85647279,10.2558012 L5,10.25 L9,10.25 Z M18,10.25 C18.8698485,10.25 19.5914697,10.8846364 19.7270955,11.7161409 L19.744,11.862 L21.7115125,17.7628292 C21.8626031,18.216101 21.5577892,18.6832009 21.1002673,18.7434663 L21,18.75 L19.75,18.75 L19.75,22 C19.75,22.3796958 19.4678461,22.693491 19.1017706,22.7431534 L19,22.75 C18.6203042,22.75 18.306509,22.4678461 18.2568466,22.1017706 L18.25,22 L18.25,18 C18.25,17.6203042 18.5321539,17.306509 18.8982294,17.2568466 L19,17.25 L19.959,17.25 L18.2884875,12.2371708 C18.2714931,12.1861876 18.2600524,12.1336001 18.2543134,12.0803217 L18.25,12 C18.25,11.8816533 18.1677666,11.7825132 18.0573227,11.7566027 L18,11.75 L16,11.75 C15.8816533,11.75 15.7825132,11.8322334 15.7566027,11.9426773 L15.75,12 C15.75,12.053741 15.744224,12.1072478 15.7328203,12.159607 L15.7115125,12.2371708 L14.04,17.25 L15,17.25 C15.3796958,17.25 15.693491,17.5321539 15.7431534,17.8982294 L15.75,18 L15.75,22 C15.75,22.4142136 15.4142136,22.75 15,22.75 C14.6203042,22.75 14.306509,22.4678461 14.2568466,22.1017706 L14.25,22 L14.25,18.75 L13,18.75 C12.5222096,18.75 12.1754703,18.3131182 12.2629786,17.8600172 L12.2884875,17.7628292 L14.255,11.862 C14.3249652,11.0044451 15.0044451,10.3249652 15.8564728,10.2558012 L16,10.25 L18,10.25 Z M7,2.25 C8.51878306,2.25 9.75,3.48121694 9.75,5 C9.75,6.51878306 8.51878306,7.75 7,7.75 C5.48121694,7.75 4.25,6.51878306 4.25,5 C4.25,3.48121694 5.48121694,2.25 7,2.25 Z M17,2.25 C18.5187831,2.25 19.75,3.48121694 19.75,5 C19.75,6.51878306 18.5187831,7.75 17,7.75 C15.4812169,7.75 14.25,6.51878306 14.25,5 C14.25,3.48121694 15.4812169,2.25 17,2.25 Z M7,3.75 C6.30964406,3.75 5.75,4.30964406 5.75,5 C5.75,5.69035594 6.30964406,6.25 7,6.25 C7.69035594,6.25 8.25,5.69035594 8.25,5 C8.25,4.30964406 7.69035594,3.75 7,3.75 Z M17,3.75 C16.3096441,3.75 15.75,4.30964406 15.75,5 C15.75,5.69035594 16.3096441,6.25 17,6.25 C17.6903559,6.25 18.25,5.69035594 18.25,5 C18.25,4.30964406 17.6903559,3.75 17,3.75 Z" id="Icon-Color" fill="#212121"></path>
    </g>
</svg>