<?xml version="1.0" encoding="UTF-8"?>
<svg width="24px" height="24px" viewBox="0 0 24 24" version="1.1" xmlns="http://www.w3.org/2000/svg" xmlns:xlink="http://www.w3.org/1999/xlink">
    <title>Icon/gas-station</title>
    <g id="Icon/gas-station" stroke="none" stroke-width="1" fill="none" fill-rule="evenodd">
        <path d="M12,3.25 C13.4625318,3.25 14.6584043,4.3917046 14.7449812,5.83247767 L14.75,6 L14.75,10.25 L15,10.25 C16.4625318,10.25 17.6584043,11.3917046 17.7449812,12.8324777 L17.75,13 L17.75,16 C17.75,16.4142136 18.0857864,16.75 18.5,16.75 C18.8796958,16.75 19.193491,16.4678461 19.2431534,16.1017706 L19.25,16 L19.25,9.75 L19,9.75 C18.0818266,9.75 17.3288077,9.04288973 17.2558012,8.14352721 L17.25,8 L17.25,7.311 L16.4696699,6.53033009 C16.2034034,6.26406352 16.1791973,5.84739984 16.3970518,5.55378835 L16.4696699,5.46966991 C16.7359365,5.20340335 17.1526002,5.1791973 17.4462117,5.39705176 L17.5303301,5.46966991 L20.5303301,8.46966991 C20.5552127,8.49455252 20.578355,8.5211754 20.5995589,8.54934032 L20.5303301,8.46966991 C20.5663371,8.5056769 20.5983048,8.5449681 20.6259415,8.58683944 C20.6377358,8.60452002 20.6488016,8.6229012 20.6590805,8.64177281 C20.6657662,8.6543855 20.6720442,8.66675889 20.6779729,8.67929261 C20.6881556,8.70031071 20.6975009,8.72270882 20.7057618,8.74562497 C20.7098803,8.75768657 20.7136812,8.76911984 20.7172063,8.78064437 C20.7346723,8.83698936 20.7455198,8.89682316 20.7488794,8.95864926 L20.75,9 L20.75,16 C20.75,17.2426407 19.7426407,18.25 18.5,18.25 C17.309136,18.25 16.3343551,17.3248384 16.2551908,16.1540488 L16.25,16 L16.25,13 C16.25,12.3527913 15.7581253,11.8204661 15.1278052,11.7564536 L15,11.75 L14.75,11.75 L14.75,19.25 L15,19.25 C15.4142136,19.25 15.75,19.5857864 15.75,20 C15.75,20.3796958 15.4678461,20.693491 15.1017706,20.7431534 L15,20.75 L3,20.75 C2.58578644,20.75 2.25,20.4142136 2.25,20 C2.25,19.6203042 2.53215388,19.306509 2.89822944,19.2568466 L3,19.25 L3.25,19.25 L3.25,6 C3.25,4.53746816 4.3917046,3.34159572 5.83247767,3.25501879 L6,3.25 L12,3.25 Z M13.25,11.75 L4.75,11.75 L4.75,19.25 L13.25,19.25 L13.25,11.75 Z M12,4.75 L6,4.75 C5.35279131,4.75 4.8204661,5.24187466 4.75645361,5.87219476 L4.75,6 L4.75,10.25 L13.25,10.25 L13.25,6 C13.25,5.35279131 12.7581253,4.8204661 12.1278052,4.75645361 L12,4.75 Z" id="Icon-Color" fill="#212121"></path>
    </g>
</svg>