<?xml version="1.0" encoding="UTF-8"?>
<svg width="24px" height="24px" viewBox="0 0 24 24" version="1.1" xmlns="http://www.w3.org/2000/svg" xmlns:xlink="http://www.w3.org/1999/xlink">
    <title>Icon/gauge</title>
    <g id="Icon/gauge" stroke="none" stroke-width="1" fill="none" fill-rule="evenodd">
        <path d="M12,2.25 C17.3847763,2.25 21.75,6.61522369 21.75,12 C21.75,17.3847763 17.3847763,21.75 12,21.75 C6.61522369,21.75 2.25,17.3847763 2.25,12 C2.25,6.61522369 6.61522369,2.25 12,2.25 Z M12,3.75 C7.44365081,3.75 3.75,7.44365081 3.75,12 C3.75,16.5563492 7.44365081,20.25 12,20.25 C16.5563492,20.25 20.25,16.5563492 20.25,12 C20.25,7.44365081 16.5563492,3.75 12,3.75 Z M16.5303301,7.46966991 C16.7965966,7.73593648 16.8208027,8.15260016 16.6029482,8.44621165 L16.5303301,8.53033009 L13.9403301,11.1203301 C13.8451596,11.2155006 13.7307753,11.2797471 13.6096637,11.3130697 C13.6999101,11.5229496 13.75,11.7556252 13.75,12 C13.75,12.9664983 12.9664983,13.75 12,13.75 C11.0335017,13.75 10.25,12.9664983 10.25,12 C10.25,11.0335017 11.0335017,10.25 12,10.25 C12.2443748,10.25 12.4770504,10.3000899 12.68832,10.3905629 C12.710966,10.3030337 12.7509956,10.2193375 12.8070518,10.1437883 L12.8796699,10.0596699 L15.4696699,7.46966991 C15.7625631,7.1767767 16.2374369,7.1767767 16.5303301,7.46966991 Z M12,6.25 C12.4142136,6.25 12.75,6.58578644 12.75,7 C12.75,7.41421356 12.4142136,7.75 12,7.75 C9.65278981,7.75 7.75,9.65278981 7.75,12 C7.75,12.4142136 7.41421356,12.75 7,12.75 C6.58578644,12.75 6.25,12.4142136 6.25,12 C6.25,8.82436269 8.82436269,6.25 12,6.25 Z M12,11.75 C11.8619288,11.75 11.75,11.8619288 11.75,12 C11.75,12.1380712 11.8619288,12.25 12,12.25 C12.1380712,12.25 12.25,12.1380712 12.25,12 C12.25,11.8619288 12.1380712,11.75 12,11.75 Z" id="Icon-Color" fill="#212121"></path>
    </g>
</svg>