<?xml version="1.0" encoding="UTF-8"?>
<svg width="24px" height="24px" viewBox="0 0 24 24" version="1.1" xmlns="http://www.w3.org/2000/svg" xmlns:xlink="http://www.w3.org/1999/xlink">
    <title>Icon/git-commit</title>
    <g id="Icon/git-commit" stroke="none" stroke-width="1" fill="none" fill-rule="evenodd">
        <path d="M12,2.25 C12.3796958,2.25 12.693491,2.53215388 12.7431534,2.89822944 L12.75,3 L12.7505323,8.32512168 C14.4619473,8.67278009 15.75,10.1859696 15.75,12 C15.75,13.8140304 14.4619473,15.3272199 12.7505323,15.6748783 L12.75,21 C12.75,21.4142136 12.4142136,21.75 12,21.75 C11.6203042,21.75 11.306509,21.4678461 11.2568466,21.1017706 L11.25,21 L11.2504629,15.6750804 C9.53855206,15.3278065 8.25,13.814382 8.25,12 C8.25,10.185618 9.53855206,8.67219348 11.2504629,8.32491964 L11.25,3 C11.25,2.58578644 11.5857864,2.25 12,2.25 Z M12,9.75 C10.7573593,9.75 9.75,10.7573593 9.75,12 C9.75,13.2426407 10.7573593,14.25 12,14.25 C13.2426407,14.25 14.25,13.2426407 14.25,12 C14.25,10.7573593 13.2426407,9.75 12,9.75 Z" id="Icon-Color" fill="#212121"></path>
    </g>
</svg>