<?xml version="1.0" encoding="UTF-8"?>
<svg width="24px" height="24px" viewBox="0 0 24 24" version="1.1" xmlns="http://www.w3.org/2000/svg" xmlns:xlink="http://www.w3.org/1999/xlink">
    <title>Icon/glass-off</title>
    <g id="Icon/glass-off" stroke="none" stroke-width="1" fill="none" fill-rule="evenodd">
        <path d="M3.44621165,2.39705176 L3.53033009,2.46966991 L21.5303301,20.4696699 C21.8232233,20.7625631 21.8232233,21.2374369 21.5303301,21.5303301 C21.2640635,21.7965966 20.8473998,21.8208027 20.5537883,21.6029482 L20.4696699,21.5303301 L14.3570963,15.4192756 C13.8321224,15.5728281 13.2936133,15.6735869 12.7504773,15.7201903 L12.75,20.25 L16,20.25 C16.4142136,20.25 16.75,20.5857864 16.75,21 C16.75,21.3796958 16.4678461,21.693491 16.1017706,21.7431534 L16,21.75 L8,21.75 C7.58578644,21.75 7.25,21.4142136 7.25,21 C7.25,20.6203042 7.53215388,20.306509 7.89822944,20.2568466 L8,20.25 L11.25,20.25 L11.250224,15.7187187 C7.89743063,15.435969 5.37267828,13.2615983 5.25434129,10.2238246 L5.25,10 L5.25755914,9.89378528 L5.704,6.765 L2.46966991,3.53033009 C2.1767767,3.23743687 2.1767767,2.76256313 2.46966991,2.46966991 C2.73593648,2.20340335 3.15260016,2.1791973 3.44621165,2.39705176 Z M7.03,8.091 L6.75,10.049 L6.75481842,10.1988164 C6.86693052,12.5001473 8.92432974,14.1559123 11.7597898,14.2461367 L12.0047075,14.2500148 C12.3737689,14.2523313 12.7416829,14.2242825 13.1047845,14.1664911 L7.03,8.091 Z M17,2.25 C17.3393071,2.25 17.6316743,2.47681606 17.721685,2.79565606 L17.7424621,2.89393398 L18.749966,9.9928555 C18.7618997,11.2455518 18.3264298,12.4613937 17.5218939,13.4216606 C17.2558801,13.7391658 16.7828445,13.7809078 16.4653394,13.5148939 C16.1478342,13.2488801 16.1060922,12.7758445 16.3721061,12.4583394 C16.8949689,11.8342679 17.1997829,11.0591996 17.2501106,10.3249308 L17.2575379,10.106066 L16.349,3.75 L7,3.75 C6.62030423,3.75 6.30650904,3.46784612 6.25684662,3.10177056 L6.25,3 C6.25,2.62030423 6.53215388,2.30650904 6.89822944,2.25684662 L7,2.25 L17,2.25 Z" id="Icon-Color" fill="#212121"></path>
    </g>
</svg>