<?xml version="1.0" encoding="UTF-8"?>
<svg width="24px" height="24px" viewBox="0 0 24 24" version="1.1" xmlns="http://www.w3.org/2000/svg" xmlns:xlink="http://www.w3.org/1999/xlink">
    <title>Icon/glass</title>
    <g id="Icon/glass" stroke="none" stroke-width="1" fill="none" fill-rule="evenodd">
        <path d="M17,2.25 C17.3732378,2.25 17.6896783,2.52444743 17.7424621,2.89393398 L17.7424621,2.89393398 L18.7424621,9.89393398 L18.75,10 C18.75,13.1540875 16.1848537,15.428628 12.7507815,15.7186339 L12.75,20.25 L16,20.25 C16.4142136,20.25 16.75,20.5857864 16.75,21 C16.75,21.3796958 16.4678461,21.693491 16.1017706,21.7431534 L16,21.75 L8,21.75 C7.58578644,21.75 7.25,21.4142136 7.25,21 C7.25,20.6203042 7.53215388,20.306509 7.89822944,20.2568466 L8,20.25 L11.25,20.25 L11.250224,15.7187187 C7.89743063,15.435969 5.37267828,13.2615983 5.25434129,10.2238246 L5.25,10 L5.25753788,9.89393398 L6.25753788,2.89393398 C6.31032167,2.52444743 6.62676222,2.25 7,2.25 L7,2.25 Z M16.349,3.75 L7.65,3.75 L6.751,10.044 L6.75481832,10.1988164 C6.86692717,12.5001473 8.92420929,14.1559119 11.7554538,14.2461231 L11.7554538,14.2461231 L12,14.25 C15.0387728,14.25 17.25,12.471039 17.25,10 L17.25,10 L17.249,10.048 L16.349,3.75 Z" id="Icon-Color" fill="#212121"></path>
    </g>
</svg>