<?xml version="1.0" encoding="UTF-8"?>
<svg width="24px" height="24px" viewBox="0 0 24 24" version="1.1" xmlns="http://www.w3.org/2000/svg" xmlns:xlink="http://www.w3.org/1999/xlink">
    <title>Icon/globe</title>
    <g id="Icon/globe" stroke="none" stroke-width="1" fill="none" fill-rule="evenodd">
        <path d="M8,22.75 C7.58578644,22.75 7.25,22.4142136 7.25,22 C7.25,21.6203042 7.53215388,21.306509 7.89822944,21.2568466 L8,21.25 L11.2499886,21.2498734 L11.2501544,18.681317 C9.43821017,18.5243076 7.68413302,17.8048008 6.2581793,16.5662265 C5.94546106,16.2946014 5.91214847,15.8208975 6.18377354,15.5081793 C6.45539861,15.1954611 6.92910246,15.1621485 7.2418207,15.4337735 C9.32833401,17.2461057 12.2624357,17.7176145 14.8117146,16.6502521 C17.3609936,15.5828896 19.0838781,13.1615383 19.2567049,10.4032387 C19.4295316,7.64493914 18.0223645,5.02746823 15.6262561,3.65024266 C15.267137,3.44382962 15.1433443,2.98537524 15.3497573,2.62625613 C15.5561704,2.26713703 16.0146248,2.1433443 16.3737439,2.34975734 C19.2645753,4.01133781 20.9622793,7.16923629 20.7537691,10.4970403 C20.5452589,13.8248443 18.4666514,16.7461304 15.3910245,18.0338705 C14.5361886,18.3917834 13.6454873,18.606274 12.7508449,18.6824724 L12.7499886,21.2498734 L16,21.25 C16.4142136,21.25 16.75,21.5857864 16.75,22 C16.75,22.3796958 16.4678461,22.693491 16.1017706,22.7431534 L16,22.75 L8,22.75 Z M12,5.25 C14.6233526,5.25 16.75,7.37664744 16.75,10 C16.75,12.6233526 14.6233526,14.75 12,14.75 C9.37664744,14.75 7.25,12.6233526 7.25,10 C7.25,7.37664744 9.37664744,5.25 12,5.25 Z M12,6.75 C10.2050746,6.75 8.75,8.20507456 8.75,10 C8.75,11.7949254 10.2050746,13.25 12,13.25 C13.7949254,13.25 15.25,11.7949254 15.25,10 C15.25,8.20507456 13.7949254,6.75 12,6.75 Z" id="Icon-Color" fill="#212121"></path>
    </g>
</svg>