<?xml version="1.0" encoding="UTF-8"?>
<svg width="24px" height="24px" viewBox="0 0 24 24" version="1.1" xmlns="http://www.w3.org/2000/svg" xmlns:xlink="http://www.w3.org/1999/xlink">
    <title>Icon/grid-dots</title>
    <g id="Icon/grid-dots" stroke="none" stroke-width="1" fill="none" fill-rule="evenodd">
        <path d="M5,17.25 C5.96649831,17.25 6.75,18.0335017 6.75,19 C6.75,19.9664983 5.96649831,20.75 5,20.75 C4.03350169,20.75 3.25,19.9664983 3.25,19 C3.25,18.0335017 4.03350169,17.25 5,17.25 Z M12,17.25 C12.9664983,17.25 13.75,18.0335017 13.75,19 C13.75,19.9664983 12.9664983,20.75 12,20.75 C11.0335017,20.75 10.25,19.9664983 10.25,19 C10.25,18.0335017 11.0335017,17.25 12,17.25 Z M19,17.25 C19.9664983,17.25 20.75,18.0335017 20.75,19 C20.75,19.9664983 19.9664983,20.75 19,20.75 C18.0335017,20.75 17.25,19.9664983 17.25,19 C17.25,18.0335017 18.0335017,17.25 19,17.25 Z M5,18.75 C4.86192881,18.75 4.75,18.8619288 4.75,19 C4.75,19.1380712 4.86192881,19.25 5,19.25 C5.13807119,19.25 5.25,19.1380712 5.25,19 C5.25,18.8619288 5.13807119,18.75 5,18.75 Z M12,18.75 C11.8619288,18.75 11.75,18.8619288 11.75,19 C11.75,19.1380712 11.8619288,19.25 12,19.25 C12.1380712,19.25 12.25,19.1380712 12.25,19 C12.25,18.8619288 12.1380712,18.75 12,18.75 Z M19,18.75 C18.8619288,18.75 18.75,18.8619288 18.75,19 C18.75,19.1380712 18.8619288,19.25 19,19.25 C19.1380712,19.25 19.25,19.1380712 19.25,19 C19.25,18.8619288 19.1380712,18.75 19,18.75 Z M5,10.25 C5.96649831,10.25 6.75,11.0335017 6.75,12 C6.75,12.9664983 5.96649831,13.75 5,13.75 C4.03350169,13.75 3.25,12.9664983 3.25,12 C3.25,11.0335017 4.03350169,10.25 5,10.25 Z M12,10.25 C12.9664983,10.25 13.75,11.0335017 13.75,12 C13.75,12.9664983 12.9664983,13.75 12,13.75 C11.0335017,13.75 10.25,12.9664983 10.25,12 C10.25,11.0335017 11.0335017,10.25 12,10.25 Z M19,10.25 C19.9664983,10.25 20.75,11.0335017 20.75,12 C20.75,12.9664983 19.9664983,13.75 19,13.75 C18.0335017,13.75 17.25,12.9664983 17.25,12 C17.25,11.0335017 18.0335017,10.25 19,10.25 Z M5,11.75 C4.86192881,11.75 4.75,11.8619288 4.75,12 C4.75,12.1380712 4.86192881,12.25 5,12.25 C5.13807119,12.25 5.25,12.1380712 5.25,12 C5.25,11.8619288 5.13807119,11.75 5,11.75 Z M12,11.75 C11.8619288,11.75 11.75,11.8619288 11.75,12 C11.75,12.1380712 11.8619288,12.25 12,12.25 C12.1380712,12.25 12.25,12.1380712 12.25,12 C12.25,11.8619288 12.1380712,11.75 12,11.75 Z M19,11.75 C18.8619288,11.75 18.75,11.8619288 18.75,12 C18.75,12.1380712 18.8619288,12.25 19,12.25 C19.1380712,12.25 19.25,12.1380712 19.25,12 C19.25,11.8619288 19.1380712,11.75 19,11.75 Z M5,3.25 C5.96649831,3.25 6.75,4.03350169 6.75,5 C6.75,5.96649831 5.96649831,6.75 5,6.75 C4.03350169,6.75 3.25,5.96649831 3.25,5 C3.25,4.03350169 4.03350169,3.25 5,3.25 Z M12,3.25 C12.9664983,3.25 13.75,4.03350169 13.75,5 C13.75,5.96649831 12.9664983,6.75 12,6.75 C11.0335017,6.75 10.25,5.96649831 10.25,5 C10.25,4.03350169 11.0335017,3.25 12,3.25 Z M19,3.25 C19.9664983,3.25 20.75,4.03350169 20.75,5 C20.75,5.96649831 19.9664983,6.75 19,6.75 C18.0335017,6.75 17.25,5.96649831 17.25,5 C17.25,4.03350169 18.0335017,3.25 19,3.25 Z M5,4.75 C4.86192881,4.75 4.75,4.86192881 4.75,5 C4.75,5.13807119 4.86192881,5.25 5,5.25 C5.13807119,5.25 5.25,5.13807119 5.25,5 C5.25,4.86192881 5.13807119,4.75 5,4.75 Z M12,4.75 C11.8619288,4.75 11.75,4.86192881 11.75,5 C11.75,5.13807119 11.8619288,5.25 12,5.25 C12.1380712,5.25 12.25,5.13807119 12.25,5 C12.25,4.86192881 12.1380712,4.75 12,4.75 Z M19,4.75 C18.8619288,4.75 18.75,4.86192881 18.75,5 C18.75,5.13807119 18.8619288,5.25 19,5.25 C19.1380712,5.25 19.25,5.13807119 19.25,5 C19.25,4.86192881 19.1380712,4.75 19,4.75 Z" id="Icon-Color" fill="#212121"></path>
    </g>
</svg>