<?xml version="1.0" encoding="UTF-8"?>
<svg width="24px" height="24px" viewBox="0 0 24 24" version="1.1" xmlns="http://www.w3.org/2000/svg" xmlns:xlink="http://www.w3.org/1999/xlink">
    <title>Icon/grip-horizontal</title>
    <g id="Icon/grip-horizontal" stroke="none" stroke-width="1" fill="none" fill-rule="evenodd">
        <path d="M5,13.25 C5.96649831,13.25 6.75,14.0335017 6.75,15 C6.75,15.9664983 5.96649831,16.75 5,16.75 C4.03350169,16.75 3.25,15.9664983 3.25,15 C3.25,14.0335017 4.03350169,13.25 5,13.25 Z M12,13.25 C12.9664983,13.25 13.75,14.0335017 13.75,15 C13.75,15.9664983 12.9664983,16.75 12,16.75 C11.0335017,16.75 10.25,15.9664983 10.25,15 C10.25,14.0335017 11.0335017,13.25 12,13.25 Z M19,13.25 C19.9664983,13.25 20.75,14.0335017 20.75,15 C20.75,15.9664983 19.9664983,16.75 19,16.75 C18.0335017,16.75 17.25,15.9664983 17.25,15 C17.25,14.0335017 18.0335017,13.25 19,13.25 Z M5,14.75 C4.86192881,14.75 4.75,14.8619288 4.75,15 C4.75,15.1380712 4.86192881,15.25 5,15.25 C5.13807119,15.25 5.25,15.1380712 5.25,15 C5.25,14.8619288 5.13807119,14.75 5,14.75 Z M12,14.75 C11.8619288,14.75 11.75,14.8619288 11.75,15 C11.75,15.1380712 11.8619288,15.25 12,15.25 C12.1380712,15.25 12.25,15.1380712 12.25,15 C12.25,14.8619288 12.1380712,14.75 12,14.75 Z M19,14.75 C18.8619288,14.75 18.75,14.8619288 18.75,15 C18.75,15.1380712 18.8619288,15.25 19,15.25 C19.1380712,15.25 19.25,15.1380712 19.25,15 C19.25,14.8619288 19.1380712,14.75 19,14.75 Z M5,7.25 C5.96649831,7.25 6.75,8.03350169 6.75,9 C6.75,9.96649831 5.96649831,10.75 5,10.75 C4.03350169,10.75 3.25,9.96649831 3.25,9 C3.25,8.03350169 4.03350169,7.25 5,7.25 Z M12,7.25 C12.9664983,7.25 13.75,8.03350169 13.75,9 C13.75,9.96649831 12.9664983,10.75 12,10.75 C11.0335017,10.75 10.25,9.96649831 10.25,9 C10.25,8.03350169 11.0335017,7.25 12,7.25 Z M19,7.25 C19.9664983,7.25 20.75,8.03350169 20.75,9 C20.75,9.96649831 19.9664983,10.75 19,10.75 C18.0335017,10.75 17.25,9.96649831 17.25,9 C17.25,8.03350169 18.0335017,7.25 19,7.25 Z M5,8.75 C4.86192881,8.75 4.75,8.86192881 4.75,9 C4.75,9.13807119 4.86192881,9.25 5,9.25 C5.13807119,9.25 5.25,9.13807119 5.25,9 C5.25,8.86192881 5.13807119,8.75 5,8.75 Z M12,8.75 C11.8619288,8.75 11.75,8.86192881 11.75,9 C11.75,9.13807119 11.8619288,9.25 12,9.25 C12.1380712,9.25 12.25,9.13807119 12.25,9 C12.25,8.86192881 12.1380712,8.75 12,8.75 Z M19,8.75 C18.8619288,8.75 18.75,8.86192881 18.75,9 C18.75,9.13807119 18.8619288,9.25 19,9.25 C19.1380712,9.25 19.25,9.13807119 19.25,9 C19.25,8.86192881 19.1380712,8.75 19,8.75 Z" id="Icon-Color" fill="#212121"></path>
    </g>
</svg>