<?xml version="1.0" encoding="UTF-8"?>
<svg width="24px" height="24px" viewBox="0 0 24 24" version="1.1" xmlns="http://www.w3.org/2000/svg" xmlns:xlink="http://www.w3.org/1999/xlink">
    <title>Icon/growth</title>
    <g id="Icon/growth" stroke="none" stroke-width="1" fill="none" fill-rule="evenodd">
        <path d="M12,3.25 C12.3796958,3.25 12.693491,3.53215388 12.7431534,3.89822944 L12.75,4 L12.7505293,7.82522289 C13.7033795,6.85312702 15.0312558,6.25 16.5,6.25 C16.9142136,6.25 17.25,6.58578644 17.25,7 C17.25,7.41421356 16.9142136,7.75 16.5,7.75 C14.4957408,7.75 12.8587263,9.32236105 12.755198,11.3008414 L12.75,11.5 C12.75,11.8796958 12.4678461,12.193491 12.1017706,12.2431534 L12,12.25 C11.8964466,12.25 11.7977949,12.2290133 11.7080662,12.1910613 L11.6764782,12.1768269 L11.7472124,12.271674 C11.8513439,12.4193568 11.9484622,12.5733158 12.0380385,12.7329241 C12.9633527,11.2426391 14.6157547,10.25 16.5,10.25 C16.9142136,10.25 17.25,10.5857864 17.25,11 C17.25,11.4142136 16.9142136,11.75 16.5,11.75 C14.4289322,11.75 12.75,13.4289322 12.75,15.5 C12.75,15.9142136 12.4142136,16.25 12,16.25 C11.8964466,16.25 11.7977949,16.2290133 11.7080662,16.1910613 L11.6764782,16.1768269 L11.7472124,16.271674 C11.8513439,16.4193568 11.9484622,16.5733158 12.0380385,16.7329241 C12.9633527,15.2426391 14.6157547,14.25 16.5,14.25 C16.9142136,14.25 17.25,14.5857864 17.25,15 C17.25,15.4142136 16.9142136,15.75 16.5,15.75 C14.4289322,15.75 12.75,17.4289322 12.75,19.5 C12.75,19.9142136 12.4142136,20.25 12,20.25 C11.6203042,20.25 11.306509,19.9678461 11.2568466,19.6017706 L11.25,19.5 C11.25,17.410365 9.77440317,15.75 8,15.75 C7.58578644,15.75 7.25,15.4142136 7.25,15 C7.25,14.5857864 7.58578644,14.25 8,14.25 C9.27696112,14.25 10.4281226,14.8021832 11.2772884,15.697624 L11.2568466,15.6017706 L11.2517303,15.5513496 L11.25,15.5 C11.25,13.410365 9.77440317,11.75 8,11.75 C7.58578644,11.75 7.25,11.4142136 7.25,11 C7.25,10.5857864 7.58578644,10.25 8,10.25 C9.27696112,10.25 10.4281226,10.8021832 11.2772884,11.697624 L11.2568466,11.6017706 L11.2517303,11.5513496 L11.25,11.5 C11.25,9.410365 9.77440317,7.75 8,7.75 C7.58578644,7.75 7.25,7.41421356 7.25,7 C7.25,6.58578644 7.58578644,6.25 8,6.25 C9.26370383,6.25 10.4042066,6.79077729 11.2507431,7.66984612 L11.25,4 C11.25,3.58578644 11.5857864,3.25 12,3.25 Z" id="Icon-Color" fill="#212121"></path>
    </g>
</svg>