<?xml version="1.0" encoding="UTF-8"?>
<svg width="24px" height="24px" viewBox="0 0 24 24" version="1.1" xmlns="http://www.w3.org/2000/svg" xmlns:xlink="http://www.w3.org/1999/xlink">
    <title>Icon/hamburger</title>
    <g id="Icon/hamburger" stroke="none" stroke-width="1" fill="none" fill-rule="evenodd">
        <path d="M20,15.25 C20.4142136,15.25 20.75,15.5857864 20.75,16 C20.75,16.3796958 20.4678461,16.693491 20.1017706,16.7431534 L20,16.75 L4,16.75 C3.58578644,16.75 3.25,16.4142136 3.25,16 C3.25,15.6203042 3.53215388,15.306509 3.89822944,15.2568466 L4,15.25 L20,15.25 Z M20,7.25 C20.4142136,7.25 20.75,7.58578644 20.75,8 C20.75,8.37969577 20.4678461,8.69349096 20.1017706,8.74315338 L20,8.75 L4,8.75 C3.58578644,8.75 3.25,8.41421356 3.25,8 C3.25,7.62030423 3.53215388,7.30650904 3.89822944,7.25684662 L4,7.25 L20,7.25 Z" id="Icon-Color" fill="#212121"></path>
    </g>
</svg>