<?xml version="1.0" encoding="UTF-8"?>
<svg width="24px" height="24px" viewBox="0 0 24 24" version="1.1" xmlns="http://www.w3.org/2000/svg" xmlns:xlink="http://www.w3.org/1999/xlink">
    <title>Icon/hanger</title>
    <g id="Icon/hanger" stroke="none" stroke-width="1" fill="none" fill-rule="evenodd">
        <path d="M12,3.25 C9.92893219,3.25 8.25,4.92893219 8.25,7 L8.25519801,7.19915857 C8.34147155,8.84789222 9.49266615,10.2145986 11.0338734,10.6243692 L11.25,10.674 L11.25,11.587 L2.97329116,16.8552871 C2.38442843,17.2296465 2.11337671,17.9483055 2.30845955,18.6186811 C2.5035366,19.2890368 3.11784472,19.75 3.816,19.75 L20.184,19.75 C20.8821553,19.75 21.4964634,19.2890368 21.6915405,18.6186811 L21.7299407,18.4483243 L21.7449256,18.2970612 C21.7790482,17.6968979 21.506149,17.1600829 21.0263725,16.8550732 L13.018,11.759 L15.6431197,7.38587182 C15.7130566,7.26931027 15.75,7.13593296 15.75,7 C15.75,4.92893219 14.0710678,3.25 12,3.25 Z M3.7783725,18.1209268 L11.999,12.888 L20.2213434,18.1207461 C20.2447566,18.1356307 20.2571748,18.1626439 20.2535062,18.1892276 L20.237937,18.2525521 C20.2425895,18.2294389 20.2151884,18.25 20.184,18.25 L3.816,18.25 C3.78481157,18.25 3.75741051,18.2294389 3.74871533,18.199559 C3.74001736,18.1696697 3.75210247,18.1376276 3.7783725,18.1209268 Z M12.1540488,4.75519081 C13.2230306,4.82747123 14.087245,5.64638104 14.2294602,6.69468833 L14.24,6.807 L12.597,9.546 C12.4565621,9.36426066 12.2416246,9.25 12,9.25 C10.7573593,9.25 9.75,8.24264069 9.75,7 C9.75,5.75735931 10.7573593,4.75 12,4.75 L12.1540488,4.75519081 Z" id="Icon-Color" fill="#212121"></path>
    </g>
</svg>