<?xml version="1.0" encoding="UTF-8"?>
<svg width="24px" height="24px" viewBox="0 0 24 24" version="1.1" xmlns="http://www.w3.org/2000/svg" xmlns:xlink="http://www.w3.org/1999/xlink">
    <title>Icon/hash</title>
    <g id="Icon/hash" stroke="none" stroke-width="1" fill="none" fill-rule="evenodd">
        <path d="M17.1819017,3.27239312 C17.5502607,3.36448287 17.7862544,3.71431886 17.7456477,4.08150923 L17.7276069,4.18190172 L16.71,8.24982258 L19,8.25 C19.4142136,8.25 19.75,8.58578644 19.75,9 C19.75,9.37969577 19.4678461,9.69349096 19.1017706,9.74315338 L19,9.75 L16.335,9.74982258 L15.21,14.2498226 L19,14.25 C19.4142136,14.25 19.75,14.5857864 19.75,15 C19.75,15.3796958 19.4678461,15.693491 19.1017706,15.7431534 L19,15.75 L14.835,15.7498226 L13.7276069,20.1819017 C13.6271453,20.5837479 13.2199445,20.8280684 12.8180983,20.7276069 C12.4497393,20.6355171 12.2137456,20.2856811 12.2543523,19.9184908 L12.2723931,19.8180983 L13.289,15.7498226 L8.835,15.7498226 L7.72760688,20.1819017 C7.62714533,20.5837479 7.21994446,20.8280684 6.81809828,20.7276069 C6.44973928,20.6355171 6.21374559,20.2856811 6.25435233,19.9184908 L6.27239312,19.8180983 L7.289,15.7498226 L5,15.75 C4.58578644,15.75 4.25,15.4142136 4.25,15 C4.25,14.6203042 4.53215388,14.306509 4.89822944,14.2568466 L5,14.25 L7.664,14.2498226 L8.789,9.74982258 L5,9.75 C4.58578644,9.75 4.25,9.41421356 4.25,9 C4.25,8.62030423 4.53215388,8.30650904 4.89822944,8.25684662 L5,8.25 L9.164,8.24982258 L10.2723931,3.81809828 C10.3728547,3.4162521 10.7800555,3.17193158 11.1819017,3.27239312 C11.5502607,3.36448287 11.7862544,3.71431886 11.7456477,4.08150923 L11.7276069,4.18190172 L10.71,8.24982258 L15.164,8.24982258 L16.2723931,3.81809828 C16.3728547,3.4162521 16.7800555,3.17193158 17.1819017,3.27239312 Z M13.664,14.2498226 L14.789,9.74982258 L10.335,9.74982258 L9.21,14.2498226 L13.664,14.2498226 Z" id="Icon-Color" fill="#212121"></path>
    </g>
</svg>