<?xml version="1.0" encoding="UTF-8"?>
<svg width="24px" height="24px" viewBox="0 0 24 24" version="1.1" xmlns="http://www.w3.org/2000/svg" xmlns:xlink="http://www.w3.org/1999/xlink">
    <title>Icon/heart-broken</title>
    <g id="Icon/heart-broken" stroke="none" stroke-width="1" fill="none" fill-rule="evenodd">
        <path d="M11.9721003,21.749484 L12,21.75 C11.9612555,21.75 11.9231972,21.7470621 11.8860358,21.741397 C11.8751988,21.7396821 11.8644549,21.7377986 11.8537482,21.7356801 C11.8298299,21.7310235 11.8062347,21.7251356 11.7831106,21.7181615 C11.7676958,21.7134557 11.7526519,21.7083949 11.7377489,21.7028441 C11.7192529,21.695965 11.7012108,21.6883988 11.6835429,21.6801645 C11.6692075,21.6735285 11.6545525,21.6661303 11.6401026,21.658221 C11.6166866,21.6453236 11.5942937,21.6314487 11.5727244,21.6164709 C11.5670974,21.6126266 11.5615835,21.6086833 11.556112,21.6046564 C11.5223864,21.5794061 11.495118,21.5557782 11.4696699,21.5303301 L3.97694939,14.109511 C2.42594206,12.6002296 1.85373839,10.3479074 2.49630153,8.28134826 C3.13886467,6.21478913 4.88735074,4.68404785 7.02072583,4.3203656 C8.82588937,4.01263446 10.64789,4.58459711 11.9478754,5.82015687 L12.002,5.875 L12.056435,5.82262248 C13.2993415,4.65313555 15.0120414,4.08672332 16.7295015,4.30779703 L16.9748352,4.34475594 C19.1004701,4.71183947 20.8418446,6.23774783 21.4848917,8.29676816 C22.1032063,10.2765954 21.6060324,12.4290431 20.1987763,13.9354515 L20.0255504,14.1130671 L19.98,14.151 L12.5303301,21.5303301 C12.5037509,21.5569092 12.4751861,21.5815027 12.4448772,21.6038689 L12.5277661,21.5328817 C12.4919348,21.568369 12.4534191,21.5995061 12.4128771,21.6262929 C12.3922907,21.639846 12.3705121,21.6527329 12.3480631,21.6645156 C12.338149,21.6697573 12.3281257,21.6747252 12.3180186,21.6794553 C12.2928451,21.6912262 12.26718,21.7015678 12.2408591,21.7104877 C12.2324078,21.7133053 12.2236585,21.7160888 12.2148707,21.718708 C12.188405,21.7266595 12.1615331,21.7330922 12.1341439,21.7380377 C12.1241067,21.7397843 12.114343,21.7413479 12.1045574,21.7427181 C12.1038074,21.7428749 12.1027893,21.7430152 12.1017706,21.7431534 L12,21.75 C11.9868439,21.7499213 11.9794705,21.7497567 11.9721003,21.749484 Z M7.27279841,5.79903372 C5.69595595,6.06784234 4.40359668,7.19925981 3.92865871,8.72671656 C3.47633683,10.1814373 3.83841052,11.760696 4.86829341,12.8754609 L5.02776609,13.0391183 L11.2498411,19.2014333 L11.25,18 C11.25,17.9223775 11.2620484,17.8454656 11.285509,17.771959 L11.3291796,17.6645898 L13.049,14.224 L9.55,11.6 C9.28902548,11.4042691 9.18764031,11.0657721 9.28814326,10.7636895 L9.32917961,10.6645898 L11.1092097,7.10502953 C10.1409876,6.05623572 8.69977567,5.55577303 7.27279841,5.79903372 Z M12.6257524,7.4221197 L10.95,10.775 L14.45,13.4 C14.7109745,13.5957309 14.8123597,13.9342279 14.7118567,14.2363105 L14.6708204,14.3354102 L12.75,18.175 L12.7498411,19.2014333 L18.9722339,13.0391183 L19.003,13.012 L19.1320215,12.87971 C20.09868,11.8235166 20.4684826,10.3496446 20.1149446,8.96220669 L20.0530932,8.74392932 C19.5777975,7.22204474 18.2906947,6.09419942 16.7195732,5.82287682 C15.1627422,5.5540221 13.5865718,6.17099967 12.6257524,7.4221197 Z" id="Icon-Color" fill="#212121"></path>
    </g>
</svg>