<?xml version="1.0" encoding="UTF-8"?>
<svg width="24px" height="24px" viewBox="0 0 24 24" version="1.1" xmlns="http://www.w3.org/2000/svg" xmlns:xlink="http://www.w3.org/1999/xlink">
    <title>Icon/help</title>
    <g id="Icon/help" stroke="none" stroke-width="1" fill="none" fill-rule="evenodd">
        <path d="M12,2.25 C17.3847763,2.25 21.75,6.61522369 21.75,12 C21.75,17.3847763 17.3847763,21.75 12,21.75 C6.61522369,21.75 2.25,17.3847763 2.25,12 C2.25,6.61522369 6.61522369,2.25 12,2.25 Z M12,3.75 C7.44365081,3.75 3.75,7.44365081 3.75,12 C3.75,16.5563492 7.44365081,20.25 12,20.25 C16.5563492,20.25 20.25,16.5563492 20.25,12 C20.25,7.44365081 16.5563492,3.75 12,3.75 Z M12,16.25 C12.3796958,16.25 12.693491,16.5321539 12.7431534,16.8982294 L12.75,17.01 C12.75,17.4242136 12.4142136,17.76 12,17.76 C11.6203042,17.76 11.306509,17.4778461 11.2568466,17.1117706 L11.25,17 C11.25,16.5857864 11.5857864,16.25 12,16.25 Z M13.0962831,6.38216656 C14.4499067,6.81718404 15.3814772,8.05927802 15.4200794,9.48056161 C15.4586815,10.9018452 14.5959054,12.1926738 13.2487966,12.7075311 C12.9687391,12.8060107 12.7765575,13.058549 12.7505901,13.3476386 L12.7487966,13.4575311 C12.7722516,13.87108 12.4560179,14.2253417 12.0424689,14.2487966 C11.62892,14.2722516 11.2746583,13.9560179 11.2512034,13.5424689 C11.1944689,12.5421478 11.8060091,11.6248376 12.7321099,11.2994753 C13.4654915,11.0190203 13.9419499,10.3061746 13.9206323,9.52128669 C13.8993147,8.73639874 13.3848653,8.05046624 12.6373418,7.81023271 C11.8898183,7.56999918 11.0720782,7.82780253 10.5974945,8.45332143 C10.347132,8.78330853 9.87666567,8.84785702 9.54667857,8.5974945 C9.21669147,8.34713199 9.15214298,7.87666567 9.4025055,7.54667857 C10.2618867,6.41398218 11.7426594,5.94714909 13.0962831,6.38216656 Z" id="Icon-Color" fill="#212121"></path>
    </g>
</svg>