<?xml version="1.0" encoding="UTF-8"?>
<svg width="24px" height="24px" viewBox="0 0 24 24" version="1.1" xmlns="http://www.w3.org/2000/svg" xmlns:xlink="http://www.w3.org/1999/xlink">
    <title>Icon/hierarchy</title>
    <g id="Icon/hierarchy" stroke="none" stroke-width="1" fill="none" fill-rule="evenodd">
        <path d="M12,2.25 C13.5187831,2.25 14.75,3.48121694 14.75,5 C14.75,6.25857578 13.9045229,7.31967982 12.7505538,7.64632705 L12.75,12.645 L17.613991,16.6243035 C17.975666,16.4128423 18.389966,16.2816096 18.8324777,16.2550188 L19,16.25 C20.5187831,16.25 21.75,17.4812169 21.75,19 C21.75,20.5187831 20.5187831,21.75 19,21.75 C17.4812169,21.75 16.25,20.5187831 16.25,19 C16.25,18.5332779 16.3662679,18.0937116 16.5714196,17.7086853 L12,13.968 L7.42858043,17.7086853 C7.63373209,18.0937116 7.75,18.5332779 7.75,19 C7.75,20.5187831 6.51878306,21.75 5,21.75 C3.48121694,21.75 2.25,20.5187831 2.25,19 C2.25,17.4812169 3.48121694,16.25 5,16.25 C5.50544579,16.25 5.9790426,16.3863617 6.38600899,16.6243035 L11.25,12.644 L11.2504445,7.64660943 C10.1475486,7.33487209 9.32621382,6.35231686 9.25501879,5.16752233 L9.25,5 C9.25,3.48121694 10.4812169,2.25 12,2.25 Z M5,17.75 C4.30964406,17.75 3.75,18.3096441 3.75,19 C3.75,19.6903559 4.30964406,20.25 5,20.25 C5.69035594,20.25 6.25,19.6903559 6.25,19 C6.25,18.3096441 5.69035594,17.75 5,17.75 Z M19,17.75 C18.3096441,17.75 17.75,18.3096441 17.75,19 C17.75,19.6903559 18.3096441,20.25 19,20.25 C19.6903559,20.25 20.25,19.6903559 20.25,19 C20.25,18.3096441 19.6903559,17.75 19,17.75 Z M12,3.75 C11.3096441,3.75 10.75,4.30964406 10.75,5 C10.75,5.69035594 11.3096441,6.25 12,6.25 C12.6903559,6.25 13.25,5.69035594 13.25,5 C13.25,4.30964406 12.6903559,3.75 12,3.75 Z" id="Icon-Color" fill="#212121"></path>
    </g>
</svg>