<?xml version="1.0" encoding="UTF-8"?>
<svg width="24px" height="24px" viewBox="0 0 24 24" version="1.1" xmlns="http://www.w3.org/2000/svg" xmlns:xlink="http://www.w3.org/1999/xlink">
    <title>Icon/brand/hipchat</title>
    <g id="Icon/brand/hipchat" stroke="none" stroke-width="1" fill="none" fill-rule="evenodd">
        <path d="M12.002,2.84 C17.361396,2.84 21.75,6.62697312 21.75,11.354 C21.75,13.6435763 20.7144305,15.7781282 18.9213094,17.3562107 L18.9213094,17.3562107 L18.726,17.522 L18.7705318,17.6058594 C18.9934222,18.0131264 19.3061281,18.4770807 19.6432392,18.9110251 L19.6432392,18.9110251 L19.8135257,19.1250952 C20.511956,20.0374198 19.923987,21.159 18.804,21.159 C17.1359506,21.159 15.1581637,20.5057694 13.6793638,19.544901 L13.892,19.677 L13.0844383,19.7192841 L12.4698312,19.7423163 L12,19.75 C6.61434937,19.75 2.25,16.0642517 2.25,11.354 C2.25,6.62694712 6.64059498,2.84 12.002,2.84 Z M12.002,4.34 C7.42380602,4.34 3.75,7.50870701 3.75,11.354 C3.75,15.1743623 7.39190835,18.25 12,18.25 L12,18.25 L12.4402488,18.2425637 L13.0294817,18.2202359 L14.044684,18.1672519 C14.2042567,18.1580204 14.3626052,18.2000107 14.4966362,18.287099 C15.5777678,18.9895775 16.9985044,19.5048767 18.2436574,19.6298013 L18.2436574,19.6298013 L18.309,19.634 L18.2096209,19.5012939 C17.8634668,19.0267703 17.5490258,18.5277323 17.3206341,18.0664232 L17.3206341,18.0664232 L17.1943597,17.7946631 L17.1046537,17.5680581 C16.9778077,17.2476343 17.0856444,16.8820048 17.3660714,16.6816999 L17.3660714,16.6816999 L17.5432403,16.5496708 C19.2620614,15.2206855 20.25,13.3523324 20.25,11.354 C20.25,7.50855682 16.5780592,4.34 12.002,4.34 Z M8.03033009,12.9696699 C10.2374369,15.1767767 13.7625631,15.1767767 15.9696699,12.9696699 C16.2625631,12.6767767 16.7374369,12.6767767 17.0303301,12.9696699 C17.3232233,13.2625631 17.3232233,13.7374369 17.0303301,14.0303301 C14.2374369,16.8232233 9.76256313,16.8232233 6.96966991,14.0303301 C6.6767767,13.7374369 6.6767767,13.2625631 6.96966991,12.9696699 C7.26256313,12.6767767 7.73743687,12.6767767 8.03033009,12.9696699 Z" id="Icon-Color" fill="#212121"></path>
    </g>
</svg>