<?xml version="1.0" encoding="UTF-8"?>
<svg width="24px" height="24px" viewBox="0 0 24 24" version="1.1" xmlns="http://www.w3.org/2000/svg" xmlns:xlink="http://www.w3.org/1999/xlink">
    <title>Icon/history</title>
    <g id="Icon/history" stroke="none" stroke-width="1" fill="none" fill-rule="evenodd">
        <path d="M11.8923123,2.16267736 C16.8516168,2.10603268 21.0632117,5.78137361 21.6783778,10.7027028 C22.293544,15.6240319 19.116236,20.2229857 14.2955821,21.3888358 C10.1871242,22.3824451 6.00089876,20.6125514 3.80023142,17.1840659 L3.8,20 C3.8,20.3796958 3.51784612,20.693491 3.15177056,20.7431534 L3.05,20.75 C2.67030423,20.75 2.35650904,20.4678461 2.30684662,20.1017706 L2.29994224,20 L2.29994224,15 C2.29994224,14.6203042 2.58215388,14.306509 2.94822944,14.2568466 L3.05,14.25 L8.05,14.25 C8.46421356,14.25 8.8,14.5857864 8.8,15 C8.8,15.3796958 8.51784612,15.693491 8.15177056,15.7431534 L8.05,15.75 L4.70049868,15.7509912 C6.43393221,19.0555854 10.226068,20.8297833 13.94298,19.9308675 C18.0219948,18.9443789 20.7104862,15.0529565 20.189961,10.8887549 C19.6694358,6.72455327 16.1057786,3.61464942 11.909444,3.66257953 C7.71310942,3.71050964 4.22141467,6.90099901 3.79613905,11.0760035 C3.7541635,11.4880847 3.38607776,11.7881146 2.97399655,11.746139 C2.56191533,11.7041635 2.26188541,11.3360778 2.30386095,10.9239965 C2.80645943,5.98990039 6.93300776,2.21932204 11.8923123,2.16267736 Z M12,7.25 C12.3796958,7.25 12.693491,7.53215388 12.7431534,7.89822944 L12.75,8 L12.75,11.689 L14.5303301,13.4696699 C14.7965966,13.7359365 14.8208027,14.1526002 14.6029482,14.4462117 L14.5303301,14.5303301 C14.2640635,14.7965966 13.8473998,14.8208027 13.5537883,14.6029482 L13.4696699,14.5303301 L11.4696699,12.5303301 C11.3571481,12.4178083 11.2840724,12.273214 11.2593431,12.1180341 L11.25,12 L11.25,8 C11.25,7.58578644 11.5857864,7.25 12,7.25 Z" id="Icon-Color" fill="#212121"></path>
    </g>
</svg>