<?xml version="1.0" encoding="UTF-8"?>
<svg width="24px" height="24px" viewBox="0 0 24 24" version="1.1" xmlns="http://www.w3.org/2000/svg" xmlns:xlink="http://www.w3.org/1999/xlink">
    <title>Icon/home2</title>
    <g id="Icon/home2" stroke="none" stroke-width="1" fill="none" fill-rule="evenodd">
        <path d="M7,21.75 C5.53746816,21.75 4.34159572,20.6082954 4.25501879,19.1675223 L4.25,19 L4.24949643,12.75 L3,12.75 C2.36698866,12.75 2.03334393,12.0249433 2.40170696,11.5468915 L2.46966991,11.4696699 L11.4696699,2.46966991 C11.7359365,2.20340335 12.1526002,2.1791973 12.4462117,2.39705176 L12.5303301,2.46966991 L21.5303301,11.4696699 C21.9779367,11.9172765 21.7011666,12.6658915 21.1026609,12.7434532 L21,12.75 L19.7494964,12.75 L19.75,19 C19.75,20.4625318 18.6082954,21.6584043 17.1675223,21.7449812 L17,21.75 L7,21.75 Z M12,4.061 L4.81,11.25 L5,11.25 L5,11.25 C5.37969577,11.25 5.69349096,11.5321539 5.74315338,11.8982294 L5.75,12 L5.75,19 C5.75,19.6472087 6.24187466,20.1795339 6.87219476,20.2435464 L7,20.25 L8.24949643,20.25 L8.25,15 C8.25,13.5374682 9.3917046,12.3415957 10.8324777,12.2550188 L11,12.25 L13,12.25 C14.4625318,12.25 15.6584043,13.3917046 15.7449812,14.8324777 L15.75,15 L15.7494964,20.25 L17,20.25 C17.6472087,20.25 18.1795339,19.7581253 18.2435464,19.1278052 L18.25,19 L18.25,12 C18.25,11.5857864 18.5857864,11.25 19,11.25 L19.189,11.25 L12,4.061 Z M13,13.75 L11,13.75 C10.3527913,13.75 9.8204661,14.2418747 9.75645361,14.8721948 L9.75,15 L9.74949643,20.25 L14.2494964,20.25 L14.25,15 C14.25,14.3527913 13.7581253,13.8204661 13.1278052,13.7564536 L13,13.75 Z" id="Icon-Color" fill="#212121"></path>
    </g>
</svg>