<?xml version="1.0" encoding="UTF-8"?>
<svg width="24px" height="24px" viewBox="0 0 24 24" version="1.1" xmlns="http://www.w3.org/2000/svg" xmlns:xlink="http://www.w3.org/1999/xlink">
    <title>Icon/ice-cream</title>
    <g id="Icon/ice-cream" stroke="none" stroke-width="1" fill="none" fill-rule="evenodd">
        <path d="M12,2.25 C14.6233526,2.25 16.75,4.37664744 16.75,7 L16.75,7 L16.75,17 C16.75,17.4142136 16.4142136,17.75 16,17.75 L16,17.75 L12.75,17.75 L12.75,21.5 C12.75,21.9142136 12.4142136,22.25 12,22.25 C11.6203042,22.25 11.306509,21.9678461 11.2568466,21.6017706 L11.25,21.5 L11.25,17.75 L8,17.75 C7.62030423,17.75 7.30650904,17.4678461 7.25684662,17.1017706 L7.25,17 L7.25,7 C7.25,4.37664744 9.37664744,2.25 12,2.25 Z M15.25,12.146 L8.75,14.99 L8.75,16.25 L15.25,16.25 L15.25,12.146 Z M15.25,8.146 L8.75,10.99 L8.75,13.352 L15.25,10.508 L15.25,8.146 Z M12,3.75 C10.2050746,3.75 8.75,5.20507456 8.75,7 L8.75,7 L8.75,9.352 L15.2153929,6.52402053 C15.0025472,5.07367298 13.8317158,3.93471484 12.3661488,3.77039625 L12.1844239,3.75514479 Z" id="Icon-Color" fill="#212121"></path>
    </g>
</svg>