<?xml version="1.0" encoding="UTF-8"?>
<svg width="24px" height="24px" viewBox="0 0 24 24" version="1.1" xmlns="http://www.w3.org/2000/svg" xmlns:xlink="http://www.w3.org/1999/xlink">
    <title>Icon/ice-cream-2</title>
    <g id="Icon/ice-cream-2" stroke="none" stroke-width="1" fill="none" fill-rule="evenodd">
        <path d="M16.0143733,3.57839896 C18.3940125,5.33887717 19.3484588,8.44375443 18.3704347,11.2360145 C18.3581142,11.2737126 18.3426667,11.3106606 18.3239186,11.3471028 L18.3239186,11.3471028 L12.6669186,22.3431028 C12.387797,22.8856556 11.6121356,22.8856261 11.3330553,22.3430521 L11.3330553,22.3430521 L5.68114503,11.3568652 C5.66329506,11.3235248 5.64774491,11.2884083 5.63476835,11.2516465 C4.64737224,8.45442059 5.60190783,5.34037421 7.98725169,3.57698011 C10.3725956,1.81358601 13.6296529,1.81416172 16.0143733,3.57839896 Z M7.57,11.749 L12,20.36 L16.428,11.753 L7.57,11.749 Z M8.87894091,4.78316846 C7.16531186,6.04998932 6.40110102,8.21304057 6.89957361,10.2503358 L17.0992035,10.2541313 C17.5993827,8.21643066 16.8359974,6.05211182 15.1222577,4.78427201 C13.2674752,3.41208749 10.7342084,3.41163972 8.87894091,4.78316846 Z" id="Icon-Color" fill="#212121"></path>
    </g>
</svg>