<?xml version="1.0" encoding="UTF-8"?>
<svg width="24px" height="24px" viewBox="0 0 24 24" version="1.1" xmlns="http://www.w3.org/2000/svg" xmlns:xlink="http://www.w3.org/1999/xlink">
    <title>Icon/id</title>
    <g id="Icon/id" stroke="none" stroke-width="1" fill="none" fill-rule="evenodd">
        <path d="M18,3.25 C20.0710678,3.25 21.75,4.92893219 21.75,7 L21.75,7 L21.75,17 C21.75,19.0710678 20.0710678,20.75 18,20.75 L18,20.75 L6,20.75 C3.92893219,20.75 2.25,19.0710678 2.25,17 L2.25,17 L2.25,7 C2.25,4.92893219 3.92893219,3.25 6,3.25 L6,3.25 Z M18,4.75 L6,4.75 C4.75735931,4.75 3.75,5.75735931 3.75,7 L3.75,7 L3.75,17 C3.75,18.2426407 4.75735931,19.25 6,19.25 L6,19.25 L18,19.25 C19.2426407,19.25 20.25,18.2426407 20.25,17 L20.25,17 L20.25,7 C20.25,5.75735931 19.2426407,4.75 18,4.75 L18,4.75 Z M17,15.25 C17.4142136,15.25 17.75,15.5857864 17.75,16 C17.75,16.3796958 17.4678461,16.693491 17.1017706,16.7431534 L17,16.75 L7,16.75 C6.58578644,16.75 6.25,16.4142136 6.25,16 C6.25,15.6203042 6.53215388,15.306509 6.89822944,15.2568466 L7,15.25 L17,15.25 Z M9,7.25 C10.5187831,7.25 11.75,8.48121694 11.75,10 C11.75,11.5187831 10.5187831,12.75 9,12.75 C7.48121694,12.75 6.25,11.5187831 6.25,10 C6.25,8.48121694 7.48121694,7.25 9,7.25 Z M17,11.25 C17.4142136,11.25 17.75,11.5857864 17.75,12 C17.75,12.3796958 17.4678461,12.693491 17.1017706,12.7431534 L17,12.75 L15,12.75 C14.5857864,12.75 14.25,12.4142136 14.25,12 C14.25,11.6203042 14.5321539,11.306509 14.8982294,11.2568466 L15,11.25 L17,11.25 Z M9,8.75 C8.30964406,8.75 7.75,9.30964406 7.75,10 C7.75,10.6903559 8.30964406,11.25 9,11.25 C9.69035594,11.25 10.25,10.6903559 10.25,10 C10.25,9.30964406 9.69035594,8.75 9,8.75 Z M17,7.25 C17.4142136,7.25 17.75,7.58578644 17.75,8 C17.75,8.37969577 17.4678461,8.69349096 17.1017706,8.74315338 L17,8.75 L15,8.75 C14.5857864,8.75 14.25,8.41421356 14.25,8 C14.25,7.62030423 14.5321539,7.30650904 14.8982294,7.25684662 L15,7.25 L17,7.25 Z" id="Icon-Color" fill="#212121"></path>
    </g>
</svg>