<?xml version="1.0" encoding="UTF-8"?>
<svg width="24px" height="24px" viewBox="0 0 24 24" version="1.1" xmlns="http://www.w3.org/2000/svg" xmlns:xlink="http://www.w3.org/1999/xlink">
    <title>Icon/inbox</title>
    <g id="Icon/inbox" stroke="none" stroke-width="1" fill="none" fill-rule="evenodd">
        <path d="M18,3.25 C19.5187831,3.25 20.75,4.48121694 20.75,6 L20.75,6 L20.75,18 C20.75,19.5187831 19.5187831,20.75 18,20.75 L18,20.75 L6,20.75 C4.48121694,20.75 3.25,19.5187831 3.25,18 L3.25,18 L3.25,6 C3.25,4.48121694 4.48121694,3.25 6,3.25 L6,3.25 Z M4.75,18 C4.75,18.6903559 5.30964406,19.25 6,19.25 L6,19.25 L18,19.25 C18.6903559,19.25 19.25,18.6903559 19.25,18 L19.25,18 L19.25,13.75 L17.31,13.75 L14.5303301,16.5303301 C14.4178083,16.6428519 14.273214,16.7159276 14.1180341,16.7406569 L14,16.75 L10,16.75 C9.84087011,16.75 9.68695425,16.6994287 9.55973913,16.6071862 L9.46966991,16.5303301 L6.689,13.75 L4.75,13.75 Z M18,4.75 L6,4.75 C5.30964406,4.75 4.75,5.30964406 4.75,6 L4.75,6 L4.75,12.25 L7,12.25 C7.15912989,12.25 7.31304575,12.3005713 7.44026087,12.3928138 L7.53033009,12.4696699 L10.311,15.25 L13.688,15.25 L16.4696699,12.4696699 C16.5821917,12.3571481 16.726786,12.2840724 16.8819659,12.2593431 L17,12.25 L19.25,12.25 L19.25,6 C19.25,5.35279131 18.7581253,4.8204661 18.1278052,4.75645361 L18,4.75 Z" id="Icon-Color" fill="#212121"></path>
    </g>
</svg>