<?xml version="1.0" encoding="UTF-8"?>
<svg width="24px" height="24px" viewBox="0 0 24 24" version="1.1" xmlns="http://www.w3.org/2000/svg" xmlns:xlink="http://www.w3.org/1999/xlink">
    <title>Icon/info-circle</title>
    <g id="Icon/info-circle" stroke="none" stroke-width="1" fill="none" fill-rule="evenodd">
        <path d="M12,2.25 C17.3847763,2.25 21.75,6.61522369 21.75,12 C21.75,17.3847763 17.3847763,21.75 12,21.75 C6.61522369,21.75 2.25,17.3847763 2.25,12 C2.25,6.61522369 6.61522369,2.25 12,2.25 Z M12,3.75 C7.44365081,3.75 3.75,7.44365081 3.75,12 C3.75,16.5563492 7.44365081,20.25 12,20.25 C16.5563492,20.25 20.25,16.5563492 20.25,12 C20.25,7.44365081 16.5563492,3.75 12,3.75 Z M12,11.25 C12.3796958,11.25 12.693491,11.5321539 12.7431534,11.8982294 L12.75,12 L12.75,15.25 L13,15.25 C13.3796958,15.25 13.693491,15.5321539 13.7431534,15.8982294 L13.75,16 C13.75,16.3796958 13.4678461,16.693491 13.1017706,16.7431534 L13,16.75 L12,16.75 C11.6203042,16.75 11.306509,16.4678461 11.2568466,16.1017706 L11.25,16 L11.25,12.75 L11,12.75 C10.6203042,12.75 10.306509,12.4678461 10.2568466,12.1017706 L10.25,12 C10.25,11.6203042 10.5321539,11.306509 10.8982294,11.2568466 L11,11.25 L12,11.25 Z M12.01,7.25 C12.4242136,7.25 12.76,7.58578644 12.76,8 C12.76,8.37969577 12.4778461,8.69349096 12.1117706,8.74315338 L12,8.75 C11.5857864,8.75 11.25,8.41421356 11.25,8 C11.25,7.62030423 11.5321539,7.30650904 11.8982294,7.25684662 L12.01,7.25 Z" id="Icon-Color" fill="#212121"></path>
    </g>
</svg>