<?xml version="1.0" encoding="UTF-8"?>
<svg width="24px" height="24px" viewBox="0 0 24 24" version="1.1" xmlns="http://www.w3.org/2000/svg" xmlns:xlink="http://www.w3.org/1999/xlink">
    <title>Icon/instagram</title>
    <g id="Icon/instagram" stroke="none" stroke-width="1" fill="none" fill-rule="evenodd">
        <path d="M16,3.25 C18.6233526,3.25 20.75,5.37664744 20.75,8 L20.75,8 L20.75,16 C20.75,18.6233526 18.6233526,20.75 16,20.75 L16,20.75 L8,20.75 C5.37664744,20.75 3.25,18.6233526 3.25,16 L3.25,16 L3.25,8 C3.25,5.37664744 5.37664744,3.25 8,3.25 L8,3.25 Z M16,4.75 L8,4.75 C6.20507456,4.75 4.75,6.20507456 4.75,8 L4.75,8 L4.75,16 C4.75,17.7949254 6.20507456,19.25 8,19.25 L8,19.25 L16,19.25 C17.7949254,19.25 19.25,17.7949254 19.25,16 L19.25,16 L19.25,8 C19.25,6.20507456 17.7949254,4.75 16,4.75 L16,4.75 Z M12,8.25 C14.0710678,8.25 15.75,9.92893219 15.75,12 C15.75,14.0710678 14.0710678,15.75 12,15.75 C9.92893219,15.75 8.25,14.0710678 8.25,12 C8.25,9.92893219 9.92893219,8.25 12,8.25 Z M12,9.75 C10.7573593,9.75 9.75,10.7573593 9.75,12 C9.75,13.2426407 10.7573593,14.25 12,14.25 C13.2426407,14.25 14.25,13.2426407 14.25,12 C14.25,10.7573593 13.2426407,9.75 12,9.75 Z M16.5,6.75 C16.8796958,6.75 17.193491,7.03215388 17.2431534,7.39822944 L17.25,7.5 C17.25,7.91521356 16.9142136,8.251 16.5,8.251 C16.1203042,8.251 15.806509,7.96884612 15.7568466,7.60277056 L15.75,7.501 C15.75,7.08578644 16.0857864,6.75 16.5,6.75 Z" id="Icon-Color" fill="#212121"></path>
    </g>
</svg>