<?xml version="1.0" encoding="UTF-8"?>
<svg width="24px" height="24px" viewBox="0 0 24 24" version="1.1" xmlns="http://www.w3.org/2000/svg" xmlns:xlink="http://www.w3.org/1999/xlink">
    <title>Icon/key</title>
    <g id="Icon/key" stroke="none" stroke-width="1" fill="none" fill-rule="evenodd">
        <path d="M19.5303301,3.46966991 C19.7965966,3.73593648 19.8208027,4.15260016 19.6029482,4.44621165 L19.5303301,4.53033009 L19.061,5 L20.5303301,6.46966991 C20.8232233,6.76256313 20.8232233,7.23743687 20.5303301,7.53033009 C20.2640635,7.79659665 19.8473998,7.8208027 19.5537883,7.60294824 L19.4696699,7.53033009 L18,6.061 L16.061,8 L17.5303301,9.46966991 C17.8232233,9.76256313 17.8232233,10.2374369 17.5303301,10.5303301 C17.2640635,10.7965966 16.8473998,10.8208027 16.5537883,10.6029482 L16.4696699,10.5303301 L15,9.061 L11.8476183,12.2140388 C12.3755342,12.9418659 12.7019858,13.8253305 12.7451121,14.782572 L12.75,15 C12.75,17.6233526 10.6233526,19.75 8,19.75 C5.37664744,19.75 3.25,17.6233526 3.25,15 C3.25,12.3766474 5.37664744,10.25 8,10.25 C9.04075746,10.25 10.0033369,10.5847197 10.7859612,11.1523817 L18.4696699,3.46966991 C18.7625631,3.1767767 19.2374369,3.1767767 19.5303301,3.46966991 Z M8,11.75 C6.20507456,11.75 4.75,13.2050746 4.75,15 C4.75,16.7949254 6.20507456,18.25 8,18.25 C9.79492544,18.25 11.25,16.7949254 11.25,15 C11.25,13.2050746 9.79492544,11.75 8,11.75 Z" id="Icon-Color" fill="#212121"></path>
    </g>
</svg>