<?xml version="1.0" encoding="UTF-8"?>
<svg width="24px" height="24px" viewBox="0 0 24 24" version="1.1" xmlns="http://www.w3.org/2000/svg" xmlns:xlink="http://www.w3.org/1999/xlink">
    <title>Icon/keyboard</title>
    <g id="Icon/keyboard" stroke="none" stroke-width="1" fill="none" fill-rule="evenodd">
        <path d="M20,5.25 C21.5187831,5.25 22.75,6.48121694 22.75,8 L22.75,8 L22.75,16 C22.75,17.5187831 21.5187831,18.75 20,18.75 L20,18.75 L4,18.75 C2.48121694,18.75 1.25,17.5187831 1.25,16 L1.25,16 L1.25,8 C1.25,6.48121694 2.48121694,5.25 4,5.25 L4,5.25 Z M20,6.75 L4,6.75 C3.30964406,6.75 2.75,7.30964406 2.75,8 L2.75,8 L2.75,16 C2.75,16.6903559 3.30964406,17.25 4,17.25 L4,17.25 L20,17.25 C20.6903559,17.25 21.25,16.6903559 21.25,16 L21.25,16 L21.25,8 C21.25,7.30964406 20.6903559,6.75 20,6.75 L20,6.75 Z M6,13.25 C6.37969577,13.25 6.69349096,13.5321539 6.74315338,13.8982294 L6.75,14.01 C6.75,14.4242136 6.41421356,14.76 6,14.76 C5.62030423,14.76 5.30650904,14.4778461 5.25684662,14.1117706 L5.25,14 C5.25,13.5857864 5.58578644,13.25 6,13.25 Z M18,13.25 C18.3796958,13.25 18.693491,13.5321539 18.7431534,13.8982294 L18.75,14.01 C18.75,14.4242136 18.4142136,14.76 18,14.76 C17.6203042,14.76 17.306509,14.4778461 17.2568466,14.1117706 L17.25,14 C17.25,13.5857864 17.5857864,13.25 18,13.25 Z M14,13.25 C14.4142136,13.25 14.75,13.5857864 14.75,14 C14.75,14.3796958 14.4678461,14.693491 14.1017706,14.7431534 L14,14.75 L10,14.75 C9.58578644,14.75 9.25,14.4142136 9.25,14 C9.25,13.6203042 9.53215388,13.306509 9.89822944,13.2568466 L10,13.25 L14,13.25 Z M6.53033009,9.46966991 C6.8232233,9.76256313 6.8232233,10.2374369 6.53033009,10.5303301 C6.23743687,10.8232233 5.76256313,10.8232233 5.46966991,10.5303301 C5.1767767,10.2374369 5.1767767,9.76256313 5.46966991,9.46966991 C5.76256313,9.1767767 6.23743687,9.1767767 6.53033009,9.46966991 Z M10.5303301,9.46966991 C10.8232233,9.76256313 10.8232233,10.2374369 10.5303301,10.5303301 C10.2374369,10.8232233 9.76256313,10.8232233 9.46966991,10.5303301 C9.1767767,10.2374369 9.1767767,9.76256313 9.46966991,9.46966991 C9.76256313,9.1767767 10.2374369,9.1767767 10.5303301,9.46966991 Z M14.5303301,9.46966991 C14.8232233,9.76256313 14.8232233,10.2374369 14.5303301,10.5303301 C14.2374369,10.8232233 13.7625631,10.8232233 13.4696699,10.5303301 C13.1767767,10.2374369 13.1767767,9.76256313 13.4696699,9.46966991 C13.7625631,9.1767767 14.2374369,9.1767767 14.5303301,9.46966991 Z M18.5303301,9.46966991 C18.8232233,9.76256313 18.8232233,10.2374369 18.5303301,10.5303301 C18.2374369,10.8232233 17.7625631,10.8232233 17.4696699,10.5303301 C17.1767767,10.2374369 17.1767767,9.76256313 17.4696699,9.46966991 C17.7625631,9.1767767 18.2374369,9.1767767 18.5303301,9.46966991 Z" id="Icon-Color" fill="#212121"></path>
    </g>
</svg>