<?xml version="1.0" encoding="UTF-8"?>
<svg width="24px" height="24px" viewBox="0 0 24 24" version="1.1" xmlns="http://www.w3.org/2000/svg" xmlns:xlink="http://www.w3.org/1999/xlink">
    <title>Icon/layers-intersect</title>
    <g id="Icon/layers-intersect" stroke="none" stroke-width="1" fill="none" fill-rule="evenodd">
        <path d="M18,3.25 C19.5187831,3.25 20.75,4.48121694 20.75,6 L20.75,6 L20.75,14 C20.75,15.5187831 19.5187831,16.75 18,16.75 L18,16.75 L16.75,16.75 L16.75,18 C16.75,19.4625318 15.6082954,20.6584043 14.1675223,20.7449812 L14,20.75 L6,20.75 C4.48121694,20.75 3.25,19.5187831 3.25,18 L3.25,18 L3.25,10 C3.25,8.48121694 4.48121694,7.25 6,7.25 L6,7.25 L7.25,7.25 L7.25,6 C7.25,4.53746816 8.3917046,3.34159572 9.83247767,3.25501879 L10,3.25 Z M7.25,8.75 L6,8.75 C5.30964406,8.75 4.75,9.30964406 4.75,10 L4.75,10 L4.75,18 C4.75,18.6903559 5.30964406,19.25 6,19.25 L6,19.25 L14,19.25 C14.6903559,19.25 15.25,18.6903559 15.25,18 L15.25,18 L15.25,16.75 L10,16.75 C8.53746816,16.75 7.34159572,15.6082954 7.25501879,14.1675223 L7.25,14 L7.25,8.75 Z M14,8.75 L8.75,8.75 L8.75,14 C8.75,14.6472087 9.24187466,15.1795339 9.87219476,15.2435464 L10,15.25 L15.25,15.25 L15.25,10 C15.25,9.35279131 14.7581253,8.8204661 14.1278052,8.75645361 L14,8.75 Z M18,4.75 L10,4.75 C9.30964406,4.75 8.75,5.30964406 8.75,6 L8.75,6 L8.75,7.25 L14,7.25 C15.4625318,7.25 16.6584043,8.3917046 16.7449812,9.83247767 L16.75,10 L16.75,15.25 L18,15.25 C18.6472087,15.25 19.1795339,14.7581253 19.2435464,14.1278052 L19.25,14 L19.25,6 C19.25,5.30964406 18.6903559,4.75 18,4.75 L18,4.75 Z" id="Icon-Color" fill="#212121"></path>
    </g>
</svg>