<?xml version="1.0" encoding="UTF-8"?>
<svg width="24px" height="24px" viewBox="0 0 24 24" version="1.1" xmlns="http://www.w3.org/2000/svg" xmlns:xlink="http://www.w3.org/1999/xlink">
    <title>Icon/layout-align-left</title>
    <g id="Icon/layout-align-left" stroke="none" stroke-width="1" fill="none" fill-rule="evenodd">
        <path d="M4,3.25 C4.37969577,3.25 4.69349096,3.53215388 4.74315338,3.89822944 L4.75,4 L4.75,20 C4.75,20.4142136 4.41421356,20.75 4,20.75 C3.62030423,20.75 3.30650904,20.4678461 3.25684662,20.1017706 L3.25,20 L3.25,4 C3.25,3.58578644 3.58578644,3.25 4,3.25 Z M18,8.25 C19.5187831,8.25 20.75,9.48121694 20.75,11 L20.75,11 L20.75,13 C20.75,14.5187831 19.5187831,15.75 18,15.75 L18,15.75 L10,15.75 C8.48121694,15.75 7.25,14.5187831 7.25,13 L7.25,13 L7.25,11 C7.25,9.48121694 8.48121694,8.25 10,8.25 L10,8.25 Z M18,9.75 L10,9.75 C9.30964406,9.75 8.75,10.3096441 8.75,11 L8.75,11 L8.75,13 C8.75,13.6903559 9.30964406,14.25 10,14.25 L10,14.25 L18,14.25 C18.6903559,14.25 19.25,13.6903559 19.25,13 L19.25,13 L19.25,11 C19.25,10.3096441 18.6903559,9.75 18,9.75 L18,9.75 Z" id="Icon-Color" fill="#212121"></path>
    </g>
</svg>