<?xml version="1.0" encoding="UTF-8"?>
<svg width="24px" height="24px" viewBox="0 0 24 24" version="1.1" xmlns="http://www.w3.org/2000/svg" xmlns:xlink="http://www.w3.org/1999/xlink">
    <title>Icon/layout-align-top</title>
    <g id="Icon/layout-align-top" stroke="none" stroke-width="1" fill="none" fill-rule="evenodd">
        <path d="M13,7.25 C14.5187831,7.25 15.75,8.48121694 15.75,10 L15.75,10 L15.75,18 C15.75,19.5187831 14.5187831,20.75 13,20.75 L13,20.75 L11,20.75 C9.48121694,20.75 8.25,19.5187831 8.25,18 L8.25,18 L8.25,10 C8.25,8.48121694 9.48121694,7.25 11,7.25 L11,7.25 Z M13,8.75 L11,8.75 C10.3096441,8.75 9.75,9.30964406 9.75,10 L9.75,10 L9.75,18 C9.75,18.6903559 10.3096441,19.25 11,19.25 L11,19.25 L13,19.25 C13.6903559,19.25 14.25,18.6903559 14.25,18 L14.25,18 L14.25,10 C14.25,9.30964406 13.6903559,8.75 13,8.75 L13,8.75 Z M20,3.25 C20.4142136,3.25 20.75,3.58578644 20.75,4 C20.75,4.37969577 20.4678461,4.69349096 20.1017706,4.74315338 L20,4.75 L4,4.75 C3.58578644,4.75 3.25,4.41421356 3.25,4 C3.25,3.62030423 3.53215388,3.30650904 3.89822944,3.25684662 L4,3.25 L20,3.25 Z" id="Icon-Color" fill="#212121"></path>
    </g>
</svg>