<?xml version="1.0" encoding="UTF-8"?>
<svg width="24px" height="24px" viewBox="0 0 24 24" version="1.1" xmlns="http://www.w3.org/2000/svg" xmlns:xlink="http://www.w3.org/1999/xlink">
    <title>Icon/layout-align-center</title>
    <g id="Icon/layout-align-center" stroke="none" stroke-width="1" fill="none" fill-rule="evenodd">
        <path d="M12,3.25 C12.3796958,3.25 12.693491,3.53215388 12.7431534,3.89822944 L12.75,4 L12.75,8.25 L16,8.25 C17.4625318,8.25 18.6584043,9.3917046 18.7449812,10.8324777 L18.75,11 L18.75,13 C18.75,14.5187831 17.5187831,15.75 16,15.75 L16,15.75 L12.75,15.75 L12.75,20 C12.75,20.4142136 12.4142136,20.75 12,20.75 C11.6203042,20.75 11.306509,20.4678461 11.2568466,20.1017706 L11.25,20 L11.25,15.75 L8,15.75 C6.53746816,15.75 5.34159572,14.6082954 5.25501879,13.1675223 L5.25,13 L5.25,11 C5.25,9.48121694 6.48121694,8.25 8,8.25 L8,8.25 L11.25,8.25 L11.25,4 C11.25,3.58578644 11.5857864,3.25 12,3.25 Z M16,9.75 L8,9.75 C7.30964406,9.75 6.75,10.3096441 6.75,11 L6.75,11 L6.75,13 C6.75,13.6903559 7.30964406,14.25 8,14.25 L8,14.25 L16,14.25 C16.6903559,14.25 17.25,13.6903559 17.25,13 L17.25,13 L17.25,11 C17.25,10.3096441 16.6903559,9.75 16,9.75 L16,9.75 Z" id="Icon-Color" fill="#212121"></path>
    </g>
</svg>