<?xml version="1.0" encoding="UTF-8"?>
<svg width="24px" height="24px" viewBox="0 0 24 24" version="1.1" xmlns="http://www.w3.org/2000/svg" xmlns:xlink="http://www.w3.org/1999/xlink">
    <title>Icon/layout-grid</title>
    <g id="Icon/layout-grid" stroke="none" stroke-width="1" fill="none" fill-rule="evenodd">
        <path d="M9,13.25 C9.96649831,13.25 10.75,14.0335017 10.75,15 L10.75,15 L10.75,19 C10.75,19.9664983 9.96649831,20.75 9,20.75 L9,20.75 L5,20.75 C4.03350169,20.75 3.25,19.9664983 3.25,19 L3.25,19 L3.25,15 C3.25,14.0335017 4.03350169,13.25 5,13.25 L5,13.25 Z M19,13.25 C19.9664983,13.25 20.75,14.0335017 20.75,15 L20.75,15 L20.75,19 C20.75,19.9664983 19.9664983,20.75 19,20.75 L19,20.75 L15,20.75 C14.0335017,20.75 13.25,19.9664983 13.25,19 L13.25,19 L13.25,15 C13.25,14.0335017 14.0335017,13.25 15,13.25 L15,13.25 Z M9,14.75 L5,14.75 C4.86192881,14.75 4.75,14.8619288 4.75,15 L4.75,15 L4.75,19 C4.75,19.1380712 4.86192881,19.25 5,19.25 L5,19.25 L9,19.25 C9.13807119,19.25 9.25,19.1380712 9.25,19 L9.25,19 L9.25,15 C9.25,14.8619288 9.13807119,14.75 9,14.75 L9,14.75 Z M19,14.75 L15,14.75 C14.8619288,14.75 14.75,14.8619288 14.75,15 L14.75,15 L14.75,19 C14.75,19.1380712 14.8619288,19.25 15,19.25 L15,19.25 L19,19.25 C19.1380712,19.25 19.25,19.1380712 19.25,19 L19.25,19 L19.25,15 C19.25,14.8619288 19.1380712,14.75 19,14.75 L19,14.75 Z M9,3.25 C9.96649831,3.25 10.75,4.03350169 10.75,5 L10.75,5 L10.75,9 C10.75,9.96649831 9.96649831,10.75 9,10.75 L9,10.75 L5,10.75 C4.03350169,10.75 3.25,9.96649831 3.25,9 L3.25,9 L3.25,5 C3.25,4.03350169 4.03350169,3.25 5,3.25 L5,3.25 Z M19,3.25 C19.9664983,3.25 20.75,4.03350169 20.75,5 L20.75,5 L20.75,9 C20.75,9.96649831 19.9664983,10.75 19,10.75 L19,10.75 L15,10.75 C14.0335017,10.75 13.25,9.96649831 13.25,9 L13.25,9 L13.25,5 C13.25,4.03350169 14.0335017,3.25 15,3.25 L15,3.25 Z M9,4.75 L5,4.75 C4.86192881,4.75 4.75,4.86192881 4.75,5 L4.75,5 L4.75,9 C4.75,9.13807119 4.86192881,9.25 5,9.25 L5,9.25 L9,9.25 C9.13807119,9.25 9.25,9.13807119 9.25,9 L9.25,9 L9.25,5 C9.25,4.86192881 9.13807119,4.75 9,4.75 L9,4.75 Z M19,4.75 L15,4.75 C14.8619288,4.75 14.75,4.86192881 14.75,5 L14.75,5 L14.75,9 C14.75,9.13807119 14.8619288,9.25 15,9.25 L15,9.25 L19,9.25 C19.1380712,9.25 19.25,9.13807119 19.25,9 L19.25,9 L19.25,5 C19.25,4.86192881 19.1380712,4.75 19,4.75 L19,4.75 Z" id="Icon-Color" fill="#212121"></path>
    </g>
</svg>