<?xml version="1.0" encoding="UTF-8"?>
<svg width="24px" height="24px" viewBox="0 0 24 24" version="1.1" xmlns="http://www.w3.org/2000/svg" xmlns:xlink="http://www.w3.org/1999/xlink">
    <title>Icon/arrows/circle/outline/left</title>
    <g id="Icon/arrows/circle/outline/left" stroke="none" stroke-width="1" fill="none" fill-rule="evenodd">
        <path d="M12.25,2.25 C6.86522369,2.25 2.5,6.61522369 2.5,12 C2.5,17.3847763 6.86522369,21.75 12.25,21.75 C17.6347763,21.75 22,17.3847763 22,12 C22,6.61522369 17.6347763,2.25 12.25,2.25 Z M12.25,3.75 C16.8063492,3.75 20.5,7.44365081 20.5,12 C20.5,16.5563492 16.8063492,20.25 12.25,20.25 C7.69365081,20.25 4,16.5563492 4,12 C4,7.44365081 7.69365081,3.75 12.25,3.75 Z M7.69049623,10.6428371 C7.47353829,10.4258792 7.47353829,10.0741208 7.69049623,9.8571629 C7.88773072,9.65992841 8.19637049,9.641998 8.41386048,9.80337167 L8.47617043,9.8571629 L12.5277778,13.9085185 L16.5793851,9.8571629 C16.7766196,9.65992841 17.0852594,9.641998 17.3027494,9.80337167 L17.3650593,9.8571629 C17.5622938,10.0543974 17.5802242,10.3630372 17.4188505,10.5805272 L17.3650593,10.6428371 L12.9206149,15.0872815 C12.7233804,15.284516 12.4147406,15.3024464 12.1972506,15.1410728 L12.1349407,15.0872815 L7.69049623,10.6428371 Z" id="Icon-Color" fill="#212121" transform="translate(12.250000, 12.000000) rotate(-270.000000) translate(-12.250000, -12.000000) "></path>
    </g>
</svg>