<?xml version="1.0" encoding="UTF-8"?>
<svg width="24px" height="24px" viewBox="0 0 24 24" version="1.1" xmlns="http://www.w3.org/2000/svg" xmlns:xlink="http://www.w3.org/1999/xlink">
    <title>Icon/letter-spacing</title>
    <g id="Icon/letter-spacing" stroke="none" stroke-width="1" fill="none" fill-rule="evenodd">
        <path d="M7.53033009,19.4696699 C7.79659665,19.7359365 7.8208027,20.1526002 7.60294824,20.4462117 L7.53033009,20.5303301 C7.26406352,20.7965966 6.84739984,20.8208027 6.55378835,20.6029482 L6.46966991,20.5303301 L4.46966991,18.5303301 L4.40627192,18.4583026 C4.40333265,18.4545004 4.40042909,18.4506692 4.39756175,18.4468095 L4.46966991,18.5303301 C4.43261664,18.4932768 4.40025089,18.4533111 4.37257267,18.4111698 C4.35871951,18.3899673 4.34575256,18.3678598 4.33392109,18.3450681 C4.33031122,18.3381989 4.32695871,18.3314787 4.32371336,18.3247199 C4.30986248,18.2958746 4.29770335,18.2658094 4.28750536,18.2348533 C4.28571861,18.2292738 4.28411878,18.2242136 4.28257391,18.2191403 C4.26144114,18.1502453 4.25,18.0764588 4.25,18 C4.25,17.9616078 4.25288471,17.9238893 4.25844919,17.8870495 C4.26025385,17.8754819 4.26230949,17.8637722 4.26464433,17.8521073 C4.26958796,17.8271042 4.27576118,17.8028079 4.28308617,17.7790163 C4.28652085,17.7679823 4.29032929,17.7565511 4.29442031,17.7451987 C4.30443168,17.7174718 4.3157867,17.6910489 4.32856161,17.6654588 C4.33193636,17.6585949 4.33557953,17.6515616 4.3393415,17.6445754 C4.35464596,17.6162863 4.37174207,17.5889674 4.39046912,17.562899 C4.39237973,17.5601373 4.39470166,17.5569557 4.39705176,17.5537883 C4.42217116,17.5205706 4.44507007,17.4942698 4.46966991,17.4696699 L6.46966991,15.4696699 C6.76256313,15.1767767 7.23743687,15.1767767 7.53033009,15.4696699 C7.79659665,15.7359365 7.8208027,16.1526002 7.60294824,16.4462117 L7.53033009,16.5303301 L6.81,17.2497967 L17.189,17.2497967 L16.4696699,16.5303301 C16.2034034,16.2640635 16.1791973,15.8473998 16.3970518,15.5537883 L16.4696699,15.4696699 C16.7359365,15.2034034 17.1526002,15.1791973 17.4462117,15.3970518 L17.5303301,15.4696699 L19.5303301,17.4696699 C19.5557782,17.495118 19.5794061,17.5223864 19.6010016,17.551263 L19.5303301,17.4696699 C19.5673834,17.5067232 19.5997491,17.5466889 19.6274273,17.5888302 C19.6405922,17.6089851 19.6529723,17.6299725 19.664329,17.6515818 C19.6691441,17.6606684 19.6734837,17.6693633 19.6776439,17.6781223 C19.7239116,17.7751811 19.75,17.8845439 19.75,18 C19.75,18.0383922 19.7471153,18.0761107 19.7415508,18.1129505 C19.7397552,18.1244664 19.7376957,18.136202 19.7353557,18.1478927 C19.7303578,18.1731663 19.7241037,18.1977234 19.7166731,18.221764 C19.7133859,18.2322665 19.7098215,18.2429708 19.7060092,18.2536062 C19.696974,18.2788171 19.6866842,18.3032241 19.6751823,18.3269339 C19.6701738,18.337367 19.6646866,18.3480496 19.6589261,18.358623 C19.6456104,18.3828916 19.6312844,18.4060172 19.6157838,18.4282634 C19.6118625,18.4340051 19.6074572,18.4401347 19.6029482,18.4462117 C19.5971451,18.4538569 19.5954427,18.4560847 19.5937281,18.4583026 L19.5303301,18.5303301 L17.5303301,20.5303301 C17.2374369,20.8232233 16.7625631,20.8232233 16.4696699,20.5303301 C16.2034034,20.2640635 16.1791973,19.8473998 16.3970518,19.5537883 L16.4696699,19.4696699 L17.188,18.7497967 L6.811,18.7497967 L7.53033009,19.4696699 Z M7.5,3.25 C9.23303146,3.25 10.6492459,4.60645477 10.7448552,6.31557609 L10.75,6.5 L10.75,12 C10.75,12.4142136 10.4142136,12.75 10,12.75 C9.62030423,12.75 9.30650904,12.4678461 9.25684662,12.1017706 L9.25,12 L9.25,8.75 L5.75,8.75 L5.75,12 C5.75,12.4142136 5.41421356,12.75 5,12.75 C4.62030423,12.75 4.30650904,12.4678461 4.25684662,12.1017706 L4.25,12 L4.25,6.5 C4.25,4.70507456 5.70507456,3.25 7.5,3.25 Z M19.2633426,3.29775312 C19.6188628,3.4310732 19.8136076,3.80544296 19.7315702,4.16564783 L19.7022469,4.26334258 L16.7022469,12.2633426 C16.4732316,12.8740499 15.6467286,12.9099739 15.3474207,12.3711145 L15.2977531,12.2633426 L12.2977531,4.26334258 C12.152313,3.87550234 12.3488172,3.44319321 12.7366574,3.29775312 C13.0921776,3.16443303 13.4850641,3.3184411 13.6601022,3.64377068 L13.7022469,3.73665742 L16,9.863 L18.2977531,3.73665742 C18.4431932,3.34881717 18.8755023,3.15231303 19.2633426,3.29775312 Z M7.5,4.75 C6.5818266,4.75 5.82880766,5.45711027 5.7558012,6.35647279 L5.75,6.5 L5.75,7.25 L9.25,7.25 L9.25,6.5 C9.25,5.53350169 8.46649831,4.75 7.5,4.75 Z" id="Icon-Color" fill="#212121"></path>
    </g>
</svg>