<?xml version="1.0" encoding="UTF-8"?>
<svg width="24px" height="24px" viewBox="0 0 24 24" version="1.1" xmlns="http://www.w3.org/2000/svg" xmlns:xlink="http://www.w3.org/1999/xlink">
    <title>Icon/lifebuoy</title>
    <g id="Icon/lifebuoy" stroke="none" stroke-width="1" fill="none" fill-rule="evenodd">
        <path d="M12,2.25 C17.3847763,2.25 21.75,6.61522369 21.75,12 C21.75,17.3847763 17.3847763,21.75 12,21.75 C6.61522369,21.75 2.25,17.3847763 2.25,12 C2.25,6.61522369 6.61522369,2.25 12,2.25 Z M14.7859612,15.8476183 C14.0033369,16.4152803 13.0407575,16.75 12,16.75 C10.9592425,16.75 9.99666305,16.4152803 9.21403881,15.8476183 L6.72120391,18.3403658 C8.15175371,19.5326982 9.99210945,20.25 12,20.25 C14.0078905,20.25 15.8482463,19.5326982 17.2787961,18.3403658 Z M5.6596342,6.72120391 C4.46730178,8.15175371 3.75,9.99210945 3.75,12 C3.75,14.0078905 4.46730178,15.8482463 5.6596342,17.2787961 L8.15238174,14.7859612 C7.58471967,14.0033369 7.25,13.0407575 7.25,12 C7.25,10.9592425 7.58471967,9.99666305 8.15238174,9.21403881 Z M18.3403658,6.72120391 L15.8476183,9.21403881 C16.4152803,9.99666305 16.75,10.9592425 16.75,12 C16.75,13.0407575 16.4152803,14.0033369 15.8476183,14.7859612 L18.3403658,17.2787961 C19.5326982,15.8482463 20.25,14.0078905 20.25,12 C20.25,9.99210945 19.5326982,8.15175371 18.3403658,6.72120391 Z M12,8.75 C10.2050746,8.75 8.75,10.2050746 8.75,12 C8.75,13.7949254 10.2050746,15.25 12,15.25 C13.7949254,15.25 15.25,13.7949254 15.25,12 C15.25,10.2050746 13.7949254,8.75 12,8.75 Z M12,3.75 C9.99210945,3.75 8.15175371,4.46730178 6.72120391,5.6596342 L9.21403881,8.15238174 C9.99666305,7.58471967 10.9592425,7.25 12,7.25 C13.0407575,7.25 14.0033369,7.58471967 14.7859612,8.15238174 L17.2787961,5.6596342 C15.8482463,4.46730178 14.0078905,3.75 12,3.75 Z" id="Icon-Color" fill="#212121"></path>
    </g>
</svg>