<?xml version="1.0" encoding="UTF-8"?>
<svg width="24px" height="24px" viewBox="0 0 24 24" version="1.1" xmlns="http://www.w3.org/2000/svg" xmlns:xlink="http://www.w3.org/1999/xlink">
    <title>Icon/line-height</title>
    <g id="Icon/line-height" stroke="none" stroke-width="1" fill="none" fill-rule="evenodd">
        <path d="M6.00581637,4.25002241 C6.03839224,4.25 6.07611073,4.25288471 6.11295053,4.25844919 C6.12451811,4.26025385 6.13622779,4.26230949 6.14789267,4.26464433 C6.17289581,4.26958796 6.19719212,4.27576118 6.22098366,4.28308617 C6.23264346,4.28671273 6.24469294,4.29074464 6.25665398,4.29509073 C6.27995161,4.30357499 6.30202019,4.31287686 6.32352179,4.32317314 C6.33512287,4.32866533 6.34745994,4.33496828 6.35965102,4.34163501 C6.38366677,4.35487024 6.40639019,4.36897543 6.42826335,4.38421622 C6.43400509,4.38813751 6.44013473,4.39254279 6.44621165,4.39705176 C6.45385686,4.40285492 6.45608469,4.40455735 6.45830264,4.40627192 L6.53033009,4.46966991 L9.53033009,7.46966991 C9.8232233,7.76256313 9.8232233,8.23743687 9.53033009,8.53033009 C9.26406352,8.79659665 8.84739984,8.8208027 8.55378835,8.60294824 L8.46966991,8.53033009 L6.75,6.811 L6.75,17.189 L8.46966991,15.4696699 C8.73593648,15.2034034 9.15260016,15.1791973 9.44621165,15.3970518 L9.53033009,15.4696699 C9.79659665,15.7359365 9.8208027,16.1526002 9.60294824,16.4462117 L9.53033009,16.5303301 L6.53033009,19.5303301 C6.50488197,19.5557782 6.47761357,19.5794061 6.44873696,19.6010016 L6.53033009,19.5303301 C6.49327681,19.5673834 6.45331108,19.5997491 6.41116979,19.6274273 C6.39101486,19.6405922 6.37002753,19.6529723 6.34841825,19.664329 C6.33929638,19.6691626 6.33056563,19.6735192 6.32177041,19.6776949 C6.29498188,19.690442 6.26652211,19.7019466 6.23726047,19.7116971 C6.23031678,19.7139554 6.22424558,19.7158799 6.21815554,19.7177252 C6.14967686,19.7386468 6.07616427,19.75 6,19.75 C5.96160776,19.75 5.92388927,19.7471153 5.88704947,19.7415508 C5.87548189,19.7397462 5.86377221,19.7376905 5.85210733,19.7353557 C5.82710419,19.730412 5.80280788,19.7242388 5.77901634,19.7169138 C5.76735654,19.7132873 5.75530706,19.7092554 5.74334602,19.7049093 C5.72004839,19.696425 5.69797981,19.6871231 5.67647821,19.6768269 C5.66487713,19.6713347 5.65254006,19.6650317 5.64034898,19.658365 C5.61421307,19.6439668 5.5895138,19.6284682 5.56583438,19.611629 C5.56212882,19.6090699 5.55794624,19.6060333 5.55378835,19.6029482 C5.52057056,19.5778288 5.49426976,19.5549299 5.46966991,19.5303301 L2.46966991,16.5303301 C2.1767767,16.2374369 2.1767767,15.7625631 2.46966991,15.4696699 C2.73593648,15.2034034 3.15260016,15.1791973 3.44621165,15.3970518 L3.53033009,15.4696699 L5.25,17.189 L5.25,6.811 L3.53033009,8.53033009 C3.26406352,8.79659665 2.84739984,8.8208027 2.55378835,8.60294824 L2.46966991,8.53033009 C2.20340335,8.26406352 2.1791973,7.84739984 2.39705176,7.55378835 L2.46966991,7.46966991 L5.46966991,4.46966991 L5.54169736,4.40627192 C5.54581642,4.40308771 5.54996953,4.39994541 5.55415605,4.39684567 L5.46966991,4.46966991 C5.50672319,4.43261664 5.54668892,4.40025089 5.58883021,4.37257267 C5.60898514,4.35940783 5.62997247,4.34702767 5.65158175,4.33567096 C5.66070362,4.33083742 5.66943437,4.32648082 5.67822959,4.32230508 C5.70660552,4.30880073 5.73676262,4.2967322 5.76780866,4.28663399 C5.77310765,4.28496585 5.77747119,4.28359992 5.78184446,4.2822748 C5.85032314,4.26135317 5.92383573,4.25 6,4.25 L6.00581637,4.25002241 Z M20,17.25 C20.4142136,17.25 20.75,17.5857864 20.75,18 C20.75,18.3796958 20.4678461,18.693491 20.1017706,18.7431534 L20,18.75 L13,18.75 C12.5857864,18.75 12.25,18.4142136 12.25,18 C12.25,17.6203042 12.5321539,17.306509 12.8982294,17.2568466 L13,17.25 L20,17.25 Z M20,11.25 C20.4142136,11.25 20.75,11.5857864 20.75,12 C20.75,12.3796958 20.4678461,12.693491 20.1017706,12.7431534 L20,12.75 L13,12.75 C12.5857864,12.75 12.25,12.4142136 12.25,12 C12.25,11.6203042 12.5321539,11.306509 12.8982294,11.2568466 L13,11.25 L20,11.25 Z M20,5.25 C20.4142136,5.25 20.75,5.58578644 20.75,6 C20.75,6.37969577 20.4678461,6.69349096 20.1017706,6.74315338 L20,6.75 L13,6.75 C12.5857864,6.75 12.25,6.41421356 12.25,6 C12.25,5.62030423 12.5321539,5.30650904 12.8982294,5.25684662 L13,5.25 L20,5.25 Z" id="Icon-Color" fill="#212121"></path>
    </g>
</svg>