<?xml version="1.0" encoding="UTF-8"?>
<svg width="24px" height="24px" viewBox="0 0 24 24" version="1.1" xmlns="http://www.w3.org/2000/svg" xmlns:xlink="http://www.w3.org/1999/xlink">
    <title>Icon/social/outline/linkedin</title>
    <g id="Icon/social/outline/linkedin" stroke="none" stroke-width="1" fill="none" fill-rule="evenodd">
        <path d="M12,2 C17.5228475,2 22,6.4771525 22,12 C22,17.5228475 17.5228475,22 12,22 C6.4771525,22 2,17.5228475 2,12 C2,6.4771525 6.4771525,2 12,2 Z M12,2.75 C6.89136606,2.75 2.75,6.89136606 2.75,12 C2.75,17.1086339 6.89136606,21.25 12,21.25 C17.1086339,21.25 21.25,17.1086339 21.25,12 C21.25,6.89136606 17.1086339,2.75 12,2.75 Z M8.71052632,9.84210526 C9.07023809,9.84210526 9.36751775,10.1094089 9.41456636,10.4562174 L9.42105263,10.5526316 L9.42105263,15.2894737 C9.42105263,15.6818865 9.10293916,16 8.71052632,16 C8.35081454,16 8.05353488,15.7326963 8.00648627,15.3858879 L8,15.2894737 L8,10.5526316 C8,10.1602187 8.31811347,9.84210526 8.71052632,9.84210526 Z M14.3947368,9.84210526 C15.7802933,9.84210526 16.9132251,10.9237201 16.9952454,12.2886631 L17,12.4473684 L17,15.2894737 C17,15.6818865 16.6818865,16 16.2894737,16 C15.9297619,16 15.6324822,15.7326963 15.5854336,15.3858879 L15.5789474,15.2894737 L15.5789474,12.4473684 C15.5789474,11.793347 15.0487583,11.2631579 14.3947368,11.2631579 C13.7815918,11.2631579 13.2772837,11.7291444 13.2166403,12.3262898 L13.2105263,12.4473684 L13.2105263,15.2894737 C13.2105263,15.6818865 12.8924128,16 12.5,16 C12.1402882,16 11.8430086,15.7326963 11.79596,15.3858879 L11.7894737,15.2894737 L11.7894737,10.5526316 C11.7894737,10.1602187 12.1075872,9.84210526 12.5,9.84210526 C12.7570525,9.84210526 12.9822232,9.97860731 13.1069799,10.1830792 C13.486169,9.96589622 13.9259965,9.84210526 14.3947368,9.84210526 Z M8.71052632,7 C9.07023809,7 9.36751775,7.26730368 9.41456636,7.6141121 L9.42105263,7.72 C9.42105263,8.11241285 9.10293916,8.43052632 8.71052632,8.43052632 C8.35081454,8.43052632 8.05353488,8.16322264 8.00648627,7.81641421 L8,7.71052632 C8,7.31811347 8.31811347,7 8.71052632,7 Z" id="Icon-Color" fill="#212121"></path>
    </g>
</svg>