<?xml version="1.0" encoding="UTF-8"?>
<svg width="24px" height="24px" viewBox="0 0 24 24" version="1.1" xmlns="http://www.w3.org/2000/svg" xmlns:xlink="http://www.w3.org/1999/xlink">
    <title>Icon/social/default/linkedin</title>
    <g id="Icon/social/default/linkedin" stroke="none" stroke-width="1" fill="none" fill-rule="evenodd">
        <path d="M18,3.25 C19.5187831,3.25 20.75,4.48121694 20.75,6 L20.75,6 L20.75,18 C20.75,19.5187831 19.5187831,20.75 18,20.75 L18,20.75 L6,20.75 C4.48121694,20.75 3.25,19.5187831 3.25,18 L3.25,18 L3.25,6 C3.25,4.48121694 4.48121694,3.25 6,3.25 L6,3.25 Z M18,4.75 L6,4.75 C5.30964406,4.75 4.75,5.30964406 4.75,6 L4.75,6 L4.75,18 C4.75,18.6903559 5.30964406,19.25 6,19.25 L6,19.25 L18,19.25 C18.6903559,19.25 19.25,18.6903559 19.25,18 L19.25,18 L19.25,6 C19.25,5.30964406 18.6903559,4.75 18,4.75 L18,4.75 Z M8,10.25 C8.37969577,10.25 8.69349096,10.5321539 8.74315338,10.8982294 L8.75,11 L8.75,16 C8.75,16.4142136 8.41421356,16.75 8,16.75 C7.62030423,16.75 7.30650904,16.4678461 7.25684662,16.1017706 L7.25,16 L7.25,11 C7.25,10.5857864 7.58578644,10.25 8,10.25 Z M14,10.25 C15.4625318,10.25 16.6584043,11.3917046 16.7449812,12.8324777 L16.75,13 L16.75,16 C16.75,16.4142136 16.4142136,16.75 16,16.75 C15.6203042,16.75 15.306509,16.4678461 15.2568466,16.1017706 L15.25,16 L15.25,13 C15.25,12.3096441 14.6903559,11.75 14,11.75 C13.3527913,11.75 12.8204661,12.2418747 12.7564536,12.8721948 L12.75,13 L12.75,16 C12.75,16.4142136 12.4142136,16.75 12,16.75 C11.6203042,16.75 11.306509,16.4678461 11.2568466,16.1017706 L11.25,16 L11.25,11 C11.25,10.5857864 11.5857864,10.25 12,10.25 C12.2713962,10.25 12.5091238,10.3941524 12.6407928,10.6100674 C13.040067,10.3809186 13.5047447,10.25 14,10.25 Z M8,7.25 C8.37969577,7.25 8.69349096,7.53215388 8.74315338,7.89822944 L8.75,8.01 C8.75,8.42421356 8.41421356,8.76 8,8.76 C7.62030423,8.76 7.30650904,8.47784612 7.25684662,8.11177056 L7.25,8 C7.25,7.58578644 7.58578644,7.25 8,7.25 Z" id="Icon-Color" fill="#212121"></path>
    </g>
</svg>