<?xml version="1.0" encoding="UTF-8"?>
<svg width="24px" height="24px" viewBox="0 0 24 24" version="1.1" xmlns="http://www.w3.org/2000/svg" xmlns:xlink="http://www.w3.org/1999/xlink">
    <title>Icon/list-check</title>
    <g id="Icon/list-check" stroke="none" stroke-width="1" fill="none" fill-rule="evenodd">
        <path d="M8.03033009,15.9696699 C8.29659665,16.2359365 8.3208027,16.6526002 8.10294824,16.9462117 L8.03033009,17.0303301 L5.53033009,19.5303301 C5.26406352,19.7965966 4.84739984,19.8208027 4.55378835,19.6029482 L4.46966991,19.5303301 L2.96966991,18.0303301 C2.6767767,17.7374369 2.6767767,17.2625631 2.96966991,16.9696699 C3.23593648,16.7034034 3.65260016,16.6791973 3.94621165,16.8970518 L4.03033009,16.9696699 L5,17.939 L6.96966991,15.9696699 C7.26256313,15.6767767 7.73743687,15.6767767 8.03033009,15.9696699 Z M20,17.25 C20.4142136,17.25 20.75,17.5857864 20.75,18 C20.75,18.3796958 20.4678461,18.693491 20.1017706,18.7431534 L20,18.75 L11,18.75 C10.5857864,18.75 10.25,18.4142136 10.25,18 C10.25,17.6203042 10.5321539,17.306509 10.8982294,17.2568466 L11,17.25 L20,17.25 Z M8.03033009,9.96966991 C8.29659665,10.2359365 8.3208027,10.6526002 8.10294824,10.9462117 L8.03033009,11.0303301 L5.53033009,13.5303301 C5.26406352,13.7965966 4.84739984,13.8208027 4.55378835,13.6029482 L4.46966991,13.5303301 L2.96966991,12.0303301 C2.6767767,11.7374369 2.6767767,11.2625631 2.96966991,10.9696699 C3.23593648,10.7034034 3.65260016,10.6791973 3.94621165,10.8970518 L4.03033009,10.9696699 L5,11.939 L6.96966991,9.96966991 C7.26256313,9.6767767 7.73743687,9.6767767 8.03033009,9.96966991 Z M20,11.25 C20.4142136,11.25 20.75,11.5857864 20.75,12 C20.75,12.3796958 20.4678461,12.693491 20.1017706,12.7431534 L20,12.75 L11,12.75 C10.5857864,12.75 10.25,12.4142136 10.25,12 C10.25,11.6203042 10.5321539,11.306509 10.8982294,11.2568466 L11,11.25 L20,11.25 Z M8.03033009,3.96966991 C8.29659665,4.23593648 8.3208027,4.65260016 8.10294824,4.94621165 L8.03033009,5.03033009 L5.53033009,7.53033009 C5.26406352,7.79659665 4.84739984,7.8208027 4.55378835,7.60294824 L4.46966991,7.53033009 L2.96966991,6.03033009 C2.6767767,5.73743687 2.6767767,5.26256313 2.96966991,4.96966991 C3.23593648,4.70340335 3.65260016,4.6791973 3.94621165,4.89705176 L4.03033009,4.96966991 L5,5.939 L6.96966991,3.96966991 C7.26256313,3.6767767 7.73743687,3.6767767 8.03033009,3.96966991 Z M20,5.25 C20.4142136,5.25 20.75,5.58578644 20.75,6 C20.75,6.37969577 20.4678461,6.69349096 20.1017706,6.74315338 L20,6.75 L11,6.75 C10.5857864,6.75 10.25,6.41421356 10.25,6 C10.25,5.62030423 10.5321539,5.30650904 10.8982294,5.25684662 L11,5.25 L20,5.25 Z" id="Icon-Color" fill="#212121"></path>
    </g>
</svg>