<?xml version="1.0" encoding="UTF-8"?>
<svg width="24px" height="24px" viewBox="0 0 24 24" version="1.1" xmlns="http://www.w3.org/2000/svg" xmlns:xlink="http://www.w3.org/1999/xlink">
    <title>Icon/loader</title>
    <g id="Icon/loader" stroke="none" stroke-width="1" fill="none" fill-rule="evenodd">
        <path d="M12,17.25 C12.3796958,17.25 12.693491,17.5321539 12.7431534,17.8982294 L12.75,18 L12.75,21 C12.75,21.4142136 12.4142136,21.75 12,21.75 C11.6203042,21.75 11.306509,21.4678461 11.2568466,21.1017706 L11.25,21 L11.25,18 C11.25,17.5857864 11.5857864,17.25 12,17.25 Z M16.6962117,15.6470518 L16.7803301,15.7196699 L18.9303301,17.8696699 C19.2232233,18.1625631 19.2232233,18.6374369 18.9303301,18.9303301 C18.6640635,19.1965966 18.2473998,19.2208027 17.9537883,19.0029482 L17.8696699,18.9303301 L15.7196699,16.7803301 C15.4267767,16.4874369 15.4267767,16.0125631 15.7196699,15.7196699 C15.9859365,15.4534034 16.4026002,15.4291973 16.6962117,15.6470518 Z M8.28033009,15.7196699 C8.54659665,15.9859365 8.5708027,16.4026002 8.35294824,16.6962117 L8.28033009,16.7803301 L6.13033009,18.9303301 C5.83743687,19.2232233 5.36256313,19.2232233 5.06966991,18.9303301 C4.80340335,18.6640635 4.7791973,18.2473998 4.99705176,17.9537883 L5.06966991,17.8696699 L7.21966991,15.7196699 C7.51256313,15.4267767 7.98743687,15.4267767 8.28033009,15.7196699 Z M21,11.25 C21.4142136,11.25 21.75,11.5857864 21.75,12 C21.75,12.3796958 21.4678461,12.693491 21.1017706,12.7431534 L21,12.75 L18,12.75 C17.5857864,12.75 17.25,12.4142136 17.25,12 C17.25,11.6203042 17.5321539,11.306509 17.8982294,11.2568466 L18,11.25 L21,11.25 Z M6,11.25 C6.41421356,11.25 6.75,11.5857864 6.75,12 C6.75,12.3796958 6.46784612,12.693491 6.10177056,12.7431534 L6,12.75 L3,12.75 C2.58578644,12.75 2.25,12.4142136 2.25,12 C2.25,11.6203042 2.53215388,11.306509 2.89822944,11.2568466 L3,11.25 L6,11.25 Z M6.04621165,4.99705176 L6.13033009,5.06966991 L8.28033009,7.21966991 C8.5732233,7.51256313 8.5732233,7.98743687 8.28033009,8.28033009 C8.01406352,8.54659665 7.59739984,8.5708027 7.30378835,8.35294824 L7.21966991,8.28033009 L5.06966991,6.13033009 C4.7767767,5.83743687 4.7767767,5.36256313 5.06966991,5.06966991 C5.33593648,4.80340335 5.75260016,4.7791973 6.04621165,4.99705176 Z M18.9303301,5.06966991 C19.1965966,5.33593648 19.2208027,5.75260016 19.0029482,6.04621165 L18.9303301,6.13033009 L16.7803301,8.28033009 C16.4874369,8.5732233 16.0125631,8.5732233 15.7196699,8.28033009 C15.4534034,8.01406352 15.4291973,7.59739984 15.6470518,7.30378835 L15.7196699,7.21966991 L17.8696699,5.06966991 C18.1625631,4.7767767 18.6374369,4.7767767 18.9303301,5.06966991 Z M12,2.25 C12.3796958,2.25 12.693491,2.53215388 12.7431534,2.89822944 L12.75,3 L12.75,6 C12.75,6.41421356 12.4142136,6.75 12,6.75 C11.6203042,6.75 11.306509,6.46784612 11.2568466,6.10177056 L11.25,6 L11.25,3 C11.25,2.58578644 11.5857864,2.25 12,2.25 Z" id="Icon-Color" fill="#212121"></path>
    </g>
</svg>