<?xml version="1.0" encoding="UTF-8"?>
<svg width="24px" height="24px" viewBox="0 0 24 24" version="1.1" xmlns="http://www.w3.org/2000/svg" xmlns:xlink="http://www.w3.org/1999/xlink">
    <title>Icon/loader-quarter</title>
    <g id="Icon/loader-quarter" stroke="none" stroke-width="1" fill="none" fill-rule="evenodd">
        <path d="M6,11.25 C6.41421356,11.25 6.75,11.5857864 6.75,12 C6.75,12.3796958 6.46784612,12.693491 6.10177056,12.7431534 L6,12.75 L3,12.75 C2.58578644,12.75 2.25,12.4142136 2.25,12 C2.25,11.6203042 2.53215388,11.306509 2.89822944,11.2568466 L3,11.25 L6,11.25 Z M6.04621165,4.99705176 L6.13033009,5.06966991 L8.28033009,7.21966991 C8.5732233,7.51256313 8.5732233,7.98743687 8.28033009,8.28033009 C8.01406352,8.54659665 7.59739984,8.5708027 7.30378835,8.35294824 L7.21966991,8.28033009 L5.06966991,6.13033009 C4.7767767,5.83743687 4.7767767,5.36256313 5.06966991,5.06966991 C5.33593648,4.80340335 5.75260016,4.7791973 6.04621165,4.99705176 Z M12,2.25 C12.3796958,2.25 12.693491,2.53215388 12.7431534,2.89822944 L12.75,3 L12.75,6 C12.75,6.41421356 12.4142136,6.75 12,6.75 C11.6203042,6.75 11.306509,6.46784612 11.2568466,6.10177056 L11.25,6 L11.25,3 C11.25,2.58578644 11.5857864,2.25 12,2.25 Z" id="Icon-Color" fill="#212121"></path>
    </g>
</svg>