<?xml version="1.0" encoding="UTF-8"?>
<svg width="24px" height="24px" viewBox="0 0 24 24" version="1.1" xmlns="http://www.w3.org/2000/svg" xmlns:xlink="http://www.w3.org/1999/xlink">
    <title>Icon/login</title>
    <g id="Icon/login" stroke="none" stroke-width="1" fill="none" fill-rule="evenodd">
        <path d="M12,3.25 C13.4625318,3.25 14.6584043,4.3917046 14.7449812,5.83247767 L14.75,6 L14.75,8 C14.75,8.41421356 14.4142136,8.75 14,8.75 C13.6203042,8.75 13.306509,8.46784612 13.2568466,8.10177056 L13.25,8 L13.25,6 C13.25,5.35279131 12.7581253,4.8204661 12.1278052,4.75645361 L12,4.75 L5,4.75 C4.35279131,4.75 3.8204661,5.24187466 3.75645361,5.87219476 L3.75,6 L3.75,18 C3.75,18.6472087 4.24187466,19.1795339 4.87219476,19.2435464 L5,19.25 L12,19.25 C12.6472087,19.25 13.1795339,18.7581253 13.2435464,18.1278052 L13.25,18 L13.25,16 C13.25,15.5857864 13.5857864,15.25 14,15.25 C14.3796958,15.25 14.693491,15.5321539 14.7431534,15.8982294 L14.75,16 L14.75,18 C14.75,19.4625318 13.6082954,20.6584043 12.1675223,20.7449812 L12,20.75 L5,20.75 C3.53746816,20.75 2.34159572,19.6082954 2.25501879,18.1675223 L2.25,18 L2.25,6 C2.25,4.53746816 3.3917046,3.34159572 4.83247767,3.25501879 L5,3.25 L12,3.25 Z M10.5303301,8.46966991 C10.7965966,8.73593648 10.8208027,9.15260016 10.6029482,9.44621165 L10.5303301,9.53033009 L8.81,11.25 L20,11.25 C20.3796958,11.25 20.693491,11.5321539 20.7431534,11.8982294 L20.75,12 C20.75,12.3796958 20.4678461,12.693491 20.1017706,12.7431534 L20,12.75 L8.811,12.75 L10.5303301,14.4696699 C10.8232233,14.7625631 10.8232233,15.2374369 10.5303301,15.5303301 C10.2640635,15.7965966 9.84739984,15.8208027 9.55378835,15.6029482 L9.46966991,15.5303301 L6.49403763,12.5559706 C6.43718413,12.5035292 6.38910406,12.4426853 6.35097349,12.3762783 L6.30918985,12.2920314 C6.30307527,12.2780607 6.29759211,12.2638748 6.29255594,12.2495668 C6.21264104,12.0238054 6.23699179,11.7606545 6.40170696,11.5468915 L6.46966991,11.4696699 L9.46966991,8.46966991 C9.76256313,8.1767767 10.2374369,8.1767767 10.5303301,8.46966991 Z" id="Icon-Color" fill="#212121"></path>
    </g>
</svg>