<?xml version="1.0" encoding="UTF-8"?>
<svg width="24px" height="24px" viewBox="0 0 24 24" version="1.1" xmlns="http://www.w3.org/2000/svg" xmlns:xlink="http://www.w3.org/1999/xlink">
    <title>Icon/logout</title>
    <g id="Icon/logout" stroke="none" stroke-width="1" fill="none" fill-rule="evenodd">
        <path d="M12,3.25 C13.4625318,3.25 14.6584043,4.3917046 14.7449812,5.83247767 L14.75,6 L14.75,8 C14.75,8.41421356 14.4142136,8.75 14,8.75 C13.6203042,8.75 13.306509,8.46784612 13.2568466,8.10177056 L13.25,8 L13.25,6 C13.25,5.35279131 12.7581253,4.8204661 12.1278052,4.75645361 L12,4.75 L5,4.75 C4.35279131,4.75 3.8204661,5.24187466 3.75645361,5.87219476 L3.75,6 L3.75,18 C3.75,18.6472087 4.24187466,19.1795339 4.87219476,19.2435464 L5,19.25 L12,19.25 C12.6472087,19.25 13.1795339,18.7581253 13.2435464,18.1278052 L13.25,18 L13.25,16 C13.25,15.5857864 13.5857864,15.25 14,15.25 C14.3796958,15.25 14.693491,15.5321539 14.7431534,15.8982294 L14.75,16 L14.75,18 C14.75,19.4625318 13.6082954,20.6584043 12.1675223,20.7449812 L12,20.75 L5,20.75 C3.53746816,20.75 2.34159572,19.6082954 2.25501879,18.1675223 L2.25,18 L2.25,6 C2.25,4.53746816 3.3917046,3.34159572 4.83247767,3.25501879 L5,3.25 L12,3.25 Z M18.4462117,8.39705176 L18.5303301,8.46966991 L21.5303301,11.4696699 C21.7553464,11.6946862 21.7973002,11.9957726 21.7073443,12.2494349 L21.6490613,12.3761613 C21.6236177,12.4205106 21.5937676,12.4623355 21.5598491,12.5008292 L18.5303301,15.5303301 C18.2374369,15.8232233 17.7625631,15.8232233 17.4696699,15.5303301 C17.2034034,15.2640635 17.1791973,14.8473998 17.3970518,14.5537883 L17.4696699,14.4696699 L19.188,12.75 L7,12.75 C6.58578644,12.75 6.25,12.4142136 6.25,12 C6.25,11.6203042 6.53215388,11.306509 6.89822944,11.2568466 L7,11.25 L19.189,11.25 L17.4696699,9.53033009 C17.2034034,9.26406352 17.1791973,8.84739984 17.3970518,8.55378835 L17.4696699,8.46966991 C17.7359365,8.20340335 18.1526002,8.1791973 18.4462117,8.39705176 Z" id="Icon-Color" fill="#212121"></path>
    </g>
</svg>