<?xml version="1.0" encoding="UTF-8"?>
<svg width="24px" height="24px" viewBox="0 0 24 24" version="1.1" xmlns="http://www.w3.org/2000/svg" xmlns:xlink="http://www.w3.org/1999/xlink">
    <title>Icon/macro</title>
    <g id="Icon/macro" stroke="none" stroke-width="1" fill="none" fill-rule="evenodd">
        <path d="M6.25,3 C6.25,2.40097846 6.9176091,2.04368491 7.41602515,2.37596228 L7.41602515,2.37596228 L9.904,4.034 L11.4696699,2.46966991 C11.7359365,2.20340335 12.1526002,2.1791973 12.4462117,2.39705176 L12.4462117,2.39705176 L12.5303301,2.46966991 L14.095,4.034 L16.5839749,2.37596228 C17.0530723,2.06323064 17.6720432,2.36132999 17.7432401,2.89689076 L17.7432401,2.89689076 L17.75,3 L17.75,6 C17.75,7.52499482 17.1441982,8.98752982 16.065864,10.065864 C15.165973,10.965755 13.9985158,11.5365636 12.7504813,11.7008365 L12.749563,16.7575394 C13.9870211,15.2279804 15.8793008,14.25 18,14.25 C18.4142136,14.25 18.75,14.5857864 18.75,15 C18.75,18.7279221 15.7279221,21.75 12,21.75 C8.27207794,21.75 5.25,18.7279221 5.25,15 C5.25,14.5857864 5.58578644,14.25 6,14.25 C8.12116307,14.25 10.0138066,15.2284083 11.2512489,16.7585431 L11.2505617,11.7016033 C8.42902294,11.334345 6.25,8.92164154 6.25,6 L6.25,6 Z M17.1873165,15.8137366 L17.1484227,15.8187136 C14.9181472,16.1824913 13.1599804,17.9515423 12.8125285,20.1872604 C15.061087,19.8380569 16.8374801,18.0619445 17.1873165,15.8137366 Z M6.81273956,15.8125285 L6.81871364,15.8515773 C7.18249134,18.0818528 8.95154231,19.8400196 11.1872604,20.1874715 C10.8374801,17.9380555 9.06108699,16.1619431 6.81273956,15.8125285 Z M12,4.061 L10.5303301,5.53033009 C10.2775318,5.78312837 9.88144179,5.82234901 9.58397485,5.62403772 L9.58397485,5.62403772 L7.75,4.402 L7.75,6 C7.75,8.27817459 9.54250701,10.1376867 11.7940837,10.2450991 L11.7940837,10.2450991 L12,10.25 C13.1271701,10.25 14.2081742,9.80223343 15.0052038,9.00520382 C15.8022334,8.20817421 16.25,7.12717008 16.25,6 L16.25,6 L16.25,4.401 L14.4160251,5.62403772 C14.1516101,5.80031442 13.8092706,5.78891158 13.5589113,5.60665304 L13.5589113,5.60665304 L13.4696699,5.53033009 L12,4.061 Z" id="Icon-Color" fill="#212121"></path>
    </g>
</svg>