<?xml version="1.0" encoding="UTF-8"?>
<svg width="24px" height="24px" viewBox="0 0 24 24" version="1.1" xmlns="http://www.w3.org/2000/svg" xmlns:xlink="http://www.w3.org/1999/xlink">
    <title>Icon/mail-opened</title>
    <g id="Icon/mail-opened" stroke="none" stroke-width="1" fill="none" fill-rule="evenodd">
        <path d="M12.3182759,2.32085378 L12.4160251,2.37596228 L21.4160251,8.37596228 L21.4409986,8.39328796 C21.4529509,8.40199067 21.4646362,8.41103799 21.47604,8.42041529 L21.4160251,8.37596228 C21.4535412,8.40097301 21.4878967,8.42852108 21.5190914,8.45817894 C21.5301278,8.46924122 21.5410209,8.48034799 21.551563,8.49178338 C21.5660106,8.50661857 21.5789345,8.5217691 21.5911535,8.53730991 C21.5979715,8.5470763 21.6052668,8.55685589 21.6123253,8.56681519 C21.6244186,8.58266838 21.6350922,8.5990921 21.6450563,8.61583513 C21.6542802,8.6326043 21.663425,8.64934477 21.6719355,8.66645634 C21.6787454,8.67897877 21.6845129,8.69154026 21.689916,8.70422583 C21.7155414,8.76495415 21.7339163,8.83014015 21.7431534,8.89822944 L21.75,9 L21.75,19 C21.75,20.4625318 20.6082954,21.6584043 19.1675223,21.7449812 L19,21.75 L5,21.75 C3.53746816,21.75 2.34159572,20.6082954 2.25501879,19.1675223 L2.25,19 L2.25,8.999 C2.25028456,8.96536306 2.25207268,8.93664629 2.2553748,8.90911494 L2.25,9 C2.25,8.96336887 2.25262612,8.9273511 2.25770037,8.8921247 C2.25789206,8.89024713 2.25822887,8.88798307 2.25857621,8.88571984 L2.26288575,8.86083981 C2.26764338,8.8354828 2.2736771,8.8105757 2.2809177,8.78618773 L2.28222987,8.78181929 L2.28763115,8.76476527 C2.29610874,8.73907807 2.30593693,8.71400503 2.31703163,8.68963022 L2.3212513,8.68070135 L2.3330998,8.65651862 C2.34218981,8.6389052 2.3519571,8.62169818 2.36236724,8.60493201 L2.37596228,8.58397485 L2.40044115,8.54934032 C2.40397512,8.54464616 2.40756294,8.53999484 2.41120368,8.53538728 L2.42135861,8.52253699 L2.4442056,8.49626991 L2.45480425,8.48496172 C2.46457047,8.47462731 2.47462731,8.46457047 2.48496172,8.45480425 L2.49626991,8.4442056 L2.52253699,8.42135861 L2.53538728,8.41120368 C2.53999484,8.40756294 2.54464616,8.40397512 2.54934032,8.40044115 L2.58397485,8.37596228 L11.5839749,2.37596228 C11.8044088,2.22900629 12.0832421,2.21063679 12.3182759,2.32085378 Z M14.904,13.965 L12.4160251,15.6240377 C12.1955912,15.7709937 11.9167579,15.7893632 11.6817241,15.6791462 L11.5839749,15.6240377 L9.095,13.965 L3.78131432,19.2792711 C3.898969,19.7948277 4.33537215,20.1890291 4.87219476,20.2435464 L5,20.25 L19,20.25 C19.5943533,20.25 20.0918212,19.8351843 20.2186857,19.2792711 L14.904,13.965 Z M20.25,10.401 L16.177,13.116 L20.25,17.189 L20.25,10.401 Z M3.75,10.402 L3.75,17.188 L7.822,13.116 L3.75,10.402 Z M12,3.902 L4.353,9 L12,14.097 L19.646,9 L12,3.902 Z" id="Icon-Color" fill="#212121"></path>
    </g>
</svg>