<?xml version="1.0" encoding="UTF-8"?>
<svg width="24px" height="24px" viewBox="0 0 24 24" version="1.1" xmlns="http://www.w3.org/2000/svg" xmlns:xlink="http://www.w3.org/1999/xlink">
    <title>Icon/mailbox</title>
    <g id="Icon/mailbox" stroke="none" stroke-width="1" fill="none" fill-rule="evenodd">
        <path d="M16,2.25 C16.1591299,2.25 16.3130458,2.30057128 16.4402609,2.39281377 L16.5303301,2.46966991 L18.5303301,4.46966991 C18.7965966,4.73593648 18.8208027,5.15260016 18.6029482,5.44621165 L18.5303301,5.53033009 L16.5303301,7.53033009 C16.4178083,7.64285191 16.273214,7.71592756 16.1180341,7.74065695 L16,7.75 L12.75,7.75 L12.75,10.25 L17,10.25 C19.5504817,10.25 21.6314697,12.2601413 21.7451121,14.782572 L21.75,15 L21.75,21 C21.75,21.3796958 21.4678461,21.693491 21.1017706,21.7431534 L21,21.75 L3,21.75 C2.62030423,21.75 2.30650904,21.4678461 2.25684662,21.1017706 L2.25,21 L2.25,14.5 C2.25,12.2218254 4.04250704,10.3623133 6.29408367,10.2549009 L6.5,10.25 L11.25,10.25 L11.25,3 C11.25,2.62030423 11.5321539,2.30650904 11.8982294,2.25684662 L12,2.25 L16,2.25 Z M6.5,11.75 C5.03746819,11.75 3.84159572,12.8917046 3.75501879,14.3324777 L3.75,14.5 L3.75,20.25 L9.25,20.25 L9.25,14.5 C9.25,13.0374682 8.10829538,11.8415957 6.66752233,11.7550188 L6.5,11.75 Z M17,11.75 L9.739,11.75 L9.76417083,11.7781287 C10.3283576,12.4539907 10.6865723,13.3077642 10.7423568,14.2429911 L10.75,14.5 L10.75,20.25 L20.25,20.25 L20.25,15 C20.25,13.2669685 18.8935452,11.8507541 17.1844239,11.7551448 L17,11.75 Z M7,14.25 C7.41421356,14.25 7.75,14.5857864 7.75,15 C7.75,15.3796958 7.46784612,15.693491 7.10177056,15.7431534 L7,15.75 L6,15.75 C5.58578644,15.75 5.25,15.4142136 5.25,15 C5.25,14.6203042 5.53215388,14.306509 5.89822944,14.2568466 L6,14.25 L7,14.25 Z M15.689,3.75 L12.75,3.75 L12.75,6.25 L15.688,6.25 L16.939,5 L15.689,3.75 Z" id="Icon-Color" fill="#212121"></path>
    </g>
</svg>