<?xml version="1.0" encoding="UTF-8"?>
<svg width="24px" height="24px" viewBox="0 0 24 24" version="1.1" xmlns="http://www.w3.org/2000/svg" xmlns:xlink="http://www.w3.org/1999/xlink">
    <title>Icon/man</title>
    <g id="Icon/man" stroke="none" stroke-width="1" fill="none" fill-rule="evenodd">
        <path d="M14,10.25 C14.9181734,10.25 15.6711923,10.9571103 15.7441988,11.8564728 L15.75,12 L15.75,16 C15.75,16.1591299 15.6994287,16.3130458 15.6071862,16.4402609 L15.5303301,16.5303301 L14.75,17.31 L14.75,22 C14.75,22.3796958 14.4678461,22.693491 14.1017706,22.7431534 L14,22.75 C13.6203042,22.75 13.306509,22.4678461 13.2568466,22.1017706 L13.25,22 L13.25,17 C13.25,16.8408701 13.3005713,16.6869542 13.3928138,16.5597391 L13.4696699,16.4696699 L14.25,15.688 L14.25,12 C14.25,11.8816533 14.1677666,11.7825132 14.0573227,11.7566027 L14,11.75 L10,11.75 C9.88165327,11.75 9.78251318,11.8322334 9.75660268,11.9426773 L9.75,12 L9.75,15.689 L10.5303301,16.4696699 C10.6428519,16.5821917 10.7159276,16.726786 10.7406569,16.8819659 L10.75,17 L10.75,22 C10.75,22.4142136 10.4142136,22.75 10,22.75 C9.62030423,22.75 9.30650904,22.4678461 9.25684662,22.1017706 L9.25,22 L9.25,17.311 L8.46966991,16.5303301 C8.35714809,16.4178083 8.28407244,16.273214 8.25934305,16.1180341 L8.25,16 L8.25,12 C8.25,11.0818266 8.95711027,10.3288077 9.85647279,10.2558012 L10,10.25 L14,10.25 Z M12,2.25 C13.5187831,2.25 14.75,3.48121694 14.75,5 C14.75,6.51878306 13.5187831,7.75 12,7.75 C10.4812169,7.75 9.25,6.51878306 9.25,5 C9.25,3.48121694 10.4812169,2.25 12,2.25 Z M12,3.75 C11.3096441,3.75 10.75,4.30964406 10.75,5 C10.75,5.69035594 11.3096441,6.25 12,6.25 C12.6903559,6.25 13.25,5.69035594 13.25,5 C13.25,4.30964406 12.6903559,3.75 12,3.75 Z" id="Icon-Color" fill="#212121"></path>
    </g>
</svg>