<?xml version="1.0" encoding="UTF-8"?>
<svg width="24px" height="24px" viewBox="0 0 24 24" version="1.1" xmlns="http://www.w3.org/2000/svg" xmlns:xlink="http://www.w3.org/1999/xlink">
    <title>Icon/manual-gearbox</title>
    <g id="Icon/manual-gearbox" stroke="none" stroke-width="1" fill="none" fill-rule="evenodd">
        <path d="M19,3.25 C20.5187831,3.25 21.75,4.48121694 21.75,6 C21.75,7.25857578 20.9045229,8.31967982 19.7505538,8.64632705 L19.75,10 C19.75,11.4625318 18.6082954,12.6584043 17.1675223,12.7449812 L17,12.75 L12.75,12.75 L12.7505538,15.353673 C13.852947,15.6657209 14.6738077,16.6480406 14.7449812,17.8324777 L14.75,18 C14.75,19.5187831 13.5187831,20.75 12,20.75 C10.4812169,20.75 9.25,19.5187831 9.25,18 C9.25,16.7410613 10.0959647,15.6797083 11.2504445,15.3533906 L11.25,12.75 L5.75,12.75 L5.75055384,15.353673 C6.85294703,15.6657209 7.67380767,16.6480406 7.74498121,17.8324777 L7.75,18 C7.75,19.5187831 6.51878306,20.75 5,20.75 C3.48121694,20.75 2.25,19.5187831 2.25,18 C2.25,16.7410613 3.09596473,15.6797083 4.25044448,15.3533906 L4.25044448,8.64660943 C3.09596473,8.32029174 2.25,7.2589387 2.25,6 C2.25,4.48121694 3.48121694,3.25 5,3.25 C6.51878306,3.25 7.75,4.48121694 7.75,6 C7.75,7.25857578 6.90452293,8.31967982 5.75055384,8.64632705 L5.75,11.25 L11.25,11.25 L11.2504445,8.64660943 C10.1475486,8.33487209 9.32621382,7.35231686 9.25501879,6.16752233 L9.25,6 C9.25,4.48121694 10.4812169,3.25 12,3.25 C13.5187831,3.25 14.75,4.48121694 14.75,6 C14.75,7.25857578 13.9045229,8.31967982 12.7505538,8.64632705 L12.75,11.25 L17,11.25 C17.6472087,11.25 18.1795339,10.7581253 18.2435464,10.1278052 L18.25,10 L18.2504445,8.64660943 C17.0959647,8.32029174 16.25,7.2589387 16.25,6 C16.25,4.48121694 17.4812169,3.25 19,3.25 Z M5,16.75 C4.30964406,16.75 3.75,17.3096441 3.75,18 C3.75,18.6903559 4.30964406,19.25 5,19.25 C5.69035594,19.25 6.25,18.6903559 6.25,18 C6.25,17.3096441 5.69035594,16.75 5,16.75 Z M12,16.75 C11.3096441,16.75 10.75,17.3096441 10.75,18 C10.75,18.6903559 11.3096441,19.25 12,19.25 C12.6903559,19.25 13.25,18.6903559 13.25,18 C13.25,17.3096441 12.6903559,16.75 12,16.75 Z M5,4.75 C4.30964406,4.75 3.75,5.30964406 3.75,6 C3.75,6.69035594 4.30964406,7.25 5,7.25 C5.69035594,7.25 6.25,6.69035594 6.25,6 C6.25,5.30964406 5.69035594,4.75 5,4.75 Z M12,4.75 C11.3096441,4.75 10.75,5.30964406 10.75,6 C10.75,6.69035594 11.3096441,7.25 12,7.25 C12.6903559,7.25 13.25,6.69035594 13.25,6 C13.25,5.30964406 12.6903559,4.75 12,4.75 Z M19,4.75 C18.3096441,4.75 17.75,5.30964406 17.75,6 C17.75,6.69035594 18.3096441,7.25 19,7.25 C19.6903559,7.25 20.25,6.69035594 20.25,6 C20.25,5.30964406 19.6903559,4.75 19,4.75 Z" id="Icon-Color" fill="#212121"></path>
    </g>
</svg>