<?xml version="1.0" encoding="UTF-8"?>
<svg width="24px" height="24px" viewBox="0 0 24 24" version="1.1" xmlns="http://www.w3.org/2000/svg" xmlns:xlink="http://www.w3.org/1999/xlink">
    <title>Icon/map-2</title>
    <g id="Icon/map-2" stroke="none" stroke-width="1" fill="none" fill-rule="evenodd">
        <path d="M14.8982294,20.7431534 C14.8803242,20.7404656 14.8702909,20.7387749 14.8602873,20.7368788 C14.8351823,20.7322647 14.8109533,20.726397 14.7872147,20.7193864 C14.7827462,20.7178716 14.7778329,20.7163662 14.7729318,20.7148091 L14.7426244,20.7046729 C14.7225139,20.6973257 14.702806,20.6891423 14.6835429,20.6801645 L14.6645898,20.6708204 L9,17.838 L3.3354102,20.6708204 C2.86790162,20.9045747 2.32299782,20.6004738 2.25671105,20.1021521 L2.25,20 L2.25,7 C2.25,6.75143084 2.37288418,6.52152892 2.57382434,6.38282777 L2.6645898,6.32917961 L8.6645898,3.32917961 L8.68354286,3.31983548 C8.702806,3.31085775 8.72251387,3.30267425 8.74262437,3.2953271 L8.6645898,3.32917961 C8.7044521,3.30924846 8.74564682,3.29308012 8.78767086,3.2806746 C8.81095333,3.27360295 8.83518234,3.26773532 8.85983797,3.26307443 C8.87029094,3.26122505 8.88032422,3.25953445 8.8903807,3.25804934 C8.92596603,3.2527281 8.96266442,3.25 9,3.25 C9.03733558,3.25 9.07403397,3.2527281 9.10990672,3.25799583 C9.11964687,3.25952958 9.12969465,3.26122232 9.13971272,3.26312116 C9.16481766,3.26773532 9.18904667,3.27360295 9.21278532,3.28061361 C9.21725383,3.28212837 9.22216713,3.28363382 9.22706824,3.28519094 L9.25737563,3.2953271 C9.27748613,3.30267425 9.297194,3.31085775 9.31645714,3.31983548 L9.3354102,3.32917961 L10.8354102,4.07917961 C11.2058941,4.26442154 11.3560623,4.71492632 11.1708204,5.0854102 C11.0010153,5.42502041 10.6083157,5.57950432 10.2586781,5.46020977 L10.1645898,5.42082039 L9.75,5.21350833 L9.75,16.5355083 L14.25,18.7855083 L14.25,15 C14.25,14.5857864 14.5857864,14.25 15,14.25 C15.3796958,14.25 15.693491,14.5321539 15.7431534,14.8982294 L15.75,15 L15.75,18.7855083 L20.25,16.536 L20.25,15 C20.25,14.6203042 20.5321539,14.306509 20.8982294,14.2568466 L21,14.25 C21.3796958,14.25 21.693491,14.5321539 21.7431534,14.8982294 L21.75,15 L21.75,17 C21.75,17.2485692 21.6271158,17.4784711 21.4261757,17.6171722 L21.3354102,17.6708204 L15.3354102,20.6708204 L15.3164571,20.6801645 C15.297194,20.6891423 15.2774861,20.6973257 15.2573756,20.7046729 L15.3354102,20.6708204 C15.2955479,20.6907515 15.2543532,20.7069199 15.2123291,20.7193254 C15.1890467,20.726397 15.1648177,20.7322647 15.140162,20.7369256 C15.1296947,20.7387777 15.1196469,20.7404704 15.1095758,20.7419571 C15.1071993,20.7424017 15.1044873,20.7427848 15.1017706,20.7431534 L15,20.75 L15,20.75 L14.8982294,20.7431534 L14.8982294,20.7431534 Z M8.25,5.21250833 L3.75,7.463 L3.75,18.786 L8.25,16.5355083 L8.25,5.21250833 Z M21.0310636,2.40630264 C22.730513,3.81479308 23.2287476,6.19952124 22.2237626,8.22220045 L22.1144239,8.43009676 L18.5893406,13.4641922 L18.5442055,13.5162285 L18.5162285,13.5442055 L18.4641922,13.5893406 L18.4300968,13.6144239 L18.3759999,13.6491481 L18.3346383,13.6713186 L18.2812443,13.6953658 L18.2344331,13.7126275 L18.1310969,13.7386358 L18.0262452,13.7496286 L17.9737548,13.7496286 L17.921494,13.7458912 L17.8689031,13.7386358 L17.818459,13.7277085 L17.7655669,13.7126275 L17.7187557,13.6953658 L17.6653617,13.6713186 L17.6240001,13.6491481 L17.5699032,13.6144239 L17.5358078,13.5893406 L17.4837715,13.5442055 L17.4557945,13.5162285 L17.4106594,13.4641922 L13.84375,8.36309219 C12.7383197,6.36514605 13.2108853,3.86336172 14.9689364,2.40630264 C16.7269875,0.949243557 19.2730125,0.949243557 21.0310636,2.40630264 Z M15.9261144,3.5612097 C14.7755363,4.51479985 14.4296816,6.12239571 15.0270983,7.39809417 L15.1144239,7.56990324 L18,11.692 L20.84375,7.63690781 C21.5685826,6.32685103 21.3018328,4.70019196 20.2196498,3.68947293 L20.0738856,3.5612097 C18.8710085,2.56427454 17.1289915,2.56427454 15.9261144,3.5612097 Z M18,5.25 C18.3796958,5.25 18.693491,5.53215388 18.7431534,5.89822944 L18.75,6.01 C18.75,6.42421356 18.4142136,6.76 18,6.76 C17.6203042,6.76 17.306509,6.47784612 17.2568466,6.11177056 L17.25,6 C17.25,5.58578644 17.5857864,5.25 18,5.25 Z" id="Icon-Color" fill="#212121"></path>
    </g>
</svg>