<?xml version="1.0" encoding="UTF-8"?>
<svg width="24px" height="24px" viewBox="0 0 24 24" version="1.1" xmlns="http://www.w3.org/2000/svg" xmlns:xlink="http://www.w3.org/1999/xlink">
    <title>Icon/marquee</title>
    <g id="Icon/marquee" stroke="none" stroke-width="1" fill="none" fill-rule="evenodd">
        <path d="M20,17.25 C20.4142136,17.25 20.75,17.5857864 20.75,18 C20.75,19.5187831 19.5187831,20.75 18,20.75 C17.5857864,20.75 17.25,20.4142136 17.25,20 C17.25,19.6203042 17.5321539,19.306509 17.8982294,19.2568466 L18,19.25 C18.6472087,19.25 19.1795339,18.7581253 19.2435464,18.1278052 L19.25,18 C19.25,17.5857864 19.5857864,17.25 20,17.25 Z M15,19.25 C15.4142136,19.25 15.75,19.5857864 15.75,20 C15.75,20.3796958 15.4678461,20.693491 15.1017706,20.7431534 L15,20.75 L13.5,20.75 C13.0857864,20.75 12.75,20.4142136 12.75,20 C12.75,19.6203042 13.0321539,19.306509 13.3982294,19.2568466 L13.5,19.25 L15,19.25 Z M10.5,19.25 C10.9142136,19.25 11.25,19.5857864 11.25,20 C11.25,20.3796958 10.9678461,20.693491 10.6017706,20.7431534 L10.5,20.75 L9,20.75 C8.58578644,20.75 8.25,20.4142136 8.25,20 C8.25,19.6203042 8.53215388,19.306509 8.89822944,19.2568466 L9,19.25 L10.5,19.25 Z M4,17.25 C4.37969577,17.25 4.69349096,17.5321539 4.74315338,17.8982294 L4.75,18 C4.75,18.6472087 5.24187466,19.1795339 5.87219476,19.2435464 L6,19.25 C6.41421356,19.25 6.75,19.5857864 6.75,20 C6.75,20.4142136 6.41421356,20.75 6,20.75 C4.48121694,20.75 3.25,19.5187831 3.25,18 C3.25,17.5857864 3.58578644,17.25 4,17.25 Z M20,12.75 C20.3796958,12.75 20.693491,13.0321539 20.7431534,13.3982294 L20.75,13.5 L20.75,15 C20.75,15.4142136 20.4142136,15.75 20,15.75 C19.6203042,15.75 19.306509,15.4678461 19.2568466,15.1017706 L19.25,15 L19.25,13.5 C19.25,13.0857864 19.5857864,12.75 20,12.75 Z M4,12.75 C4.37969577,12.75 4.69349096,13.0321539 4.74315338,13.3982294 L4.75,13.5 L4.75,15 C4.75,15.4142136 4.41421356,15.75 4,15.75 C3.62030423,15.75 3.30650904,15.4678461 3.25684662,15.1017706 L3.25,15 L3.25,13.5 C3.25,13.0857864 3.58578644,12.75 4,12.75 Z M20,8.25 C20.3796958,8.25 20.693491,8.53215388 20.7431534,8.89822944 L20.75,9 L20.75,10.5 C20.75,10.9142136 20.4142136,11.25 20,11.25 C19.6203042,11.25 19.306509,10.9678461 19.2568466,10.6017706 L19.25,10.5 L19.25,9 C19.25,8.58578644 19.5857864,8.25 20,8.25 Z M4,8.25 C4.37969577,8.25 4.69349096,8.53215388 4.74315338,8.89822944 L4.75,9 L4.75,10.5 C4.75,10.9142136 4.41421356,11.25 4,11.25 C3.62030423,11.25 3.30650904,10.9678461 3.25684662,10.6017706 L3.25,10.5 L3.25,9 C3.25,8.58578644 3.58578644,8.25 4,8.25 Z M6,3.25 C6.41421356,3.25 6.75,3.58578644 6.75,4 C6.75,4.37969577 6.46784612,4.69349096 6.10177056,4.74315338 L6,4.75 C5.35279131,4.75 4.8204661,5.24187466 4.75645361,5.87219476 L4.75,6 C4.75,6.41421356 4.41421356,6.75 4,6.75 C3.58578644,6.75 3.25,6.41421356 3.25,6 C3.25,4.48121694 4.48121694,3.25 6,3.25 Z M18,3.25 C19.5187831,3.25 20.75,4.48121694 20.75,6 C20.75,6.41421356 20.4142136,6.75 20,6.75 C19.6203042,6.75 19.306509,6.46784612 19.2568466,6.10177056 L19.25,6 C19.25,5.35279131 18.7581253,4.8204661 18.1278052,4.75645361 L18,4.75 C17.5857864,4.75 17.25,4.41421356 17.25,4 C17.25,3.58578644 17.5857864,3.25 18,3.25 Z M10.5,3.25 C10.9142136,3.25 11.25,3.58578644 11.25,4 C11.25,4.37969577 10.9678461,4.69349096 10.6017706,4.74315338 L10.5,4.75 L9,4.75 C8.58578644,4.75 8.25,4.41421356 8.25,4 C8.25,3.62030423 8.53215388,3.30650904 8.89822944,3.25684662 L9,3.25 L10.5,3.25 Z M15,3.25 C15.4142136,3.25 15.75,3.58578644 15.75,4 C15.75,4.37969577 15.4678461,4.69349096 15.1017706,4.74315338 L15,4.75 L13.5,4.75 C13.0857864,4.75 12.75,4.41421356 12.75,4 C12.75,3.62030423 13.0321539,3.30650904 13.3982294,3.25684662 L13.5,3.25 L15,3.25 Z" id="Icon-Color" fill="#212121"></path>
    </g>
</svg>