<?xml version="1.0" encoding="UTF-8"?>
<svg width="24px" height="24px" viewBox="0 0 24 24" version="1.1" xmlns="http://www.w3.org/2000/svg" xmlns:xlink="http://www.w3.org/1999/xlink">
    <title>Icon/mars</title>
    <g id="Icon/mars" stroke="none" stroke-width="1" fill="none" fill-rule="evenodd">
        <path d="M19,4.25 L19.017448,4.25020172 C19.0361236,4.2506336 19.0547861,4.25175898 19.0733936,4.25357787 L19,4.25 C19.0468456,4.25 19.092688,4.25429489 19.1371551,4.26251238 C19.1480328,4.26457582 19.1597261,4.26701468 19.171367,4.26973472 C19.1948272,4.27517085 19.2172835,4.28157935 19.2392836,4.28898031 C19.2490913,4.29230301 19.2594565,4.29602848 19.2697519,4.29998933 L19.2703089,4.30018864 L19.2919338,4.30893872 C19.304654,4.3143189 19.3171949,4.32004002 19.3295449,4.32609064 C19.3426046,4.33242864 19.3559131,4.33943101 19.3690453,4.34686081 C19.3865081,4.35681304 19.4036581,4.36746126 19.4203291,4.3787629 C19.4306612,4.38568532 19.4411291,4.39317572 19.4514416,4.40096775 C19.5081986,4.44390193 19.5585304,4.49447237 19.6010016,4.55126304 L19.6101204,4.5636206 L19.6101204,4.5636206 L19.6245949,4.58466699 C19.639974,4.60774865 19.6541078,4.63173119 19.6669002,4.65651862 C19.6708748,4.66415165 19.6743431,4.67116985 19.6776949,4.67822959 C19.690442,4.70501812 19.7019466,4.73347789 19.7116971,4.76273953 C19.7133074,4.76772616 19.7146267,4.7718292 19.7159098,4.7759411 C19.7287696,4.81752372 19.7376081,4.85735342 19.7431534,4.89822944 L19.75,5 L19.75,10 C19.75,10.4142136 19.4142136,10.75 19,10.75 C18.6203042,10.75 18.306509,10.4678461 18.2568466,10.1017706 L18.25,10 L18.25,6.81 L14.5619969,10.4994265 C15.2652873,11.4145944 15.6993832,12.5474125 15.7458479,13.7794443 L15.75,14 C15.75,17.1756373 13.1756373,19.75 10,19.75 C6.82436269,19.75 4.25,17.1756373 4.25,14 C4.25,10.8243627 6.82436269,8.25 10,8.25 C11.3172517,8.25 12.531049,8.69294057 13.5005735,9.43800309 L17.188,5.75 L14,5.75 C13.5857864,5.75 13.25,5.41421356 13.25,5 C13.25,4.62030423 13.5321539,4.30650904 13.8982294,4.25684662 L14,4.25 L19,4.25 Z M10,9.75 C7.65278981,9.75 5.75,11.6527898 5.75,14 C5.75,16.3472102 7.65278981,18.25 10,18.25 C12.3472102,18.25 14.25,16.3472102 14.25,14 C14.25,11.6527898 12.3472102,9.75 10,9.75 Z" id="Icon-Color" fill="#212121"></path>
    </g>
</svg>