<?xml version="1.0" encoding="UTF-8"?>
<svg width="24px" height="24px" viewBox="0 0 24 24" version="1.1" xmlns="http://www.w3.org/2000/svg" xmlns:xlink="http://www.w3.org/1999/xlink">
    <title>Icon/math-function</title>
    <g id="Icon/math-function" stroke="none" stroke-width="1" fill="none" fill-rule="evenodd">
        <path d="M11,2.25 C12.9142136,2.25 13.75,3.08578644 13.75,5 C13.75,5.41421356 13.4142136,5.75 13,5.75 C12.5857864,5.75 12.25,5.41421356 12.25,5 L12.2453596,4.72615633 L12.2291622,4.49459639 C12.17523,4.00096549 11.9990345,3.82477002 11.5054036,3.77083776 L11.2738437,3.75464043 L11,3.75 C10.9093839,3.75 10.8036462,3.84569441 10.6858262,4.04479496 L10.5952433,4.21362952 C10.5643256,4.27645092 10.5327001,4.3458557 10.5004146,4.42196435 L10.4016248,4.67052245 C10.3848456,4.7153409 10.3679132,4.76186544 10.3508336,4.81011114 L10.2466367,5.1203597 L10.1391911,5.47263894 L10.0287818,5.86767185 L9.91569384,6.30618141 L9.80021203,6.78889058 L9.68262133,7.31652235 L9.52957784,8.06113395 L8.908,11.25 L11,11.25 C11.4142136,11.25 11.75,11.5857864 11.75,12 C11.75,12.3796958 11.4678461,12.693491 11.1017706,12.7431534 L11,12.75 L8.616,12.75 L7.84534643,16.7085212 L7.71037106,17.3386574 L7.57692455,17.9223763 C7.55473772,18.0158468 7.53255974,18.1074223 7.51036316,18.1971225 L7.37674126,18.7129744 C6.79484468,20.8521664 6.16329855,21.75 5,21.75 C3.08578644,21.75 2.25,20.9142136 2.25,19 C2.25,18.5857864 2.58578644,18.25 3,18.25 C3.41421356,18.25 3.75,18.5857864 3.75,19 L3.75464043,19.2738437 L3.77083776,19.5054036 C3.82477002,19.9990345 4.00096549,20.17523 4.49459639,20.2291622 L4.72615633,20.2453596 L5,20.25 C5.09061614,20.25 5.19635384,20.1543056 5.31417378,19.955205 L5.40475666,19.7863705 C5.43567444,19.7235491 5.46729986,19.6541443 5.49958545,19.5780356 L5.5983752,19.3294776 C5.61515441,19.2846591 5.63208679,19.2381346 5.6491664,19.1898889 L5.75336334,18.8796403 L5.8608089,18.5273611 L5.97121816,18.1323281 L6.08430616,17.6938186 L6.19978797,17.2111094 L6.31737867,16.6834777 L6.47042216,15.9388661 L7.091,12.75 L5,12.75 C4.58578644,12.75 4.25,12.4142136 4.25,12 C4.25,11.6203042 4.53215388,11.306509 4.89822944,11.2568466 L5,11.25 L7.383,11.25 L8.15465357,7.29147875 L8.28962894,6.66134256 L8.42307545,6.07762368 C8.44526228,5.98415318 8.46744026,5.89257765 8.48963684,5.80287754 L8.62325874,5.28702556 C9.20515532,3.14783361 9.83670145,2.25 11,2.25 Z M15,9.25 C15.8132467,9.25 16.3076518,9.66604704 16.6801262,10.495099 L16.7465537,10.6578828 L16.8462502,10.9199789 L17.2092715,11.9003937 C18.504552,10.1779091 19.6635876,9.25 21,9.25 C21.4142136,9.25 21.75,9.58578644 21.75,10 C21.75,10.3796958 21.4678461,10.693491 21.1017706,10.7431534 L21,10.75 C20.1644229,10.75 19.0972296,11.7713065 17.8443198,13.590805 L18.6287863,15.739399 L18.6825882,15.8754646 L18.7695476,16.0656247 C18.8423362,16.2131775 18.8807368,16.243242 18.9578682,16.2488206 L19,16.25 L20,16.25 C20.4142136,16.25 20.75,16.5857864 20.75,17 C20.75,17.3796958 20.4678461,17.693491 20.1017706,17.7431534 L20,17.75 L19,17.75 C18.1759229,17.75 17.6814406,17.3254017 17.3094124,16.4791103 L17.201974,16.2045471 L16.7959571,15.0926498 C15.4985663,16.8195924 14.3382104,17.75 13,17.75 C12.5857864,17.75 12.25,17.4142136 12.25,17 C12.25,16.6203042 12.5321539,16.306509 12.8982294,16.2568466 L13,16.25 C13.8372726,16.25 14.9071024,15.2245445 16.1633095,13.3981091 L16.0238408,13.0296816 L15.4023143,11.3395185 L15.3118743,11.1098238 L15.2264209,10.9268305 C15.155003,10.7849438 15.1176161,10.7563751 15.041577,10.7511083 L14,10.75 C13.5857864,10.75 13.25,10.4142136 13.25,10 C13.25,9.62030423 13.5321539,9.30650904 13.8982294,9.25684662 L14,9.25 L15,9.25 Z" id="Icon-Color" fill="#212121"></path>
    </g>
</svg>