<?xml version="1.0" encoding="UTF-8"?>
<svg width="24px" height="24px" viewBox="0 0 24 24" version="1.1" xmlns="http://www.w3.org/2000/svg" xmlns:xlink="http://www.w3.org/1999/xlink">
    <title>Icon/math</title>
    <g id="Icon/math" stroke="none" stroke-width="1" fill="none" fill-rule="evenodd">
        <path d="M20,4.25 C20.4142136,4.25 20.75,4.58578644 20.75,5 C20.75,5.37969577 20.4678461,5.69349096 20.1017706,5.74315338 L20,5.75 L13.566,5.75 L9.72114296,19.2060408 C9.54367138,19.8271914 8.7326796,19.9361571 8.38542299,19.430959 L8.32917961,19.3354102 L5.536,13.75 L4,13.75 C3.62030423,13.75 3.30650904,13.4678461 3.25684662,13.1017706 L3.25,13 C3.25,12.6203042 3.53215388,12.306509 3.89822944,12.2568466 L4,12.25 L6,12.25 C6.24856916,12.25 6.47847108,12.3728842 6.61717223,12.5738243 L6.67082039,12.6645898 L8.808,16.939 L12.278857,4.79395915 C12.3606288,4.50775812 12.6022395,4.30056404 12.8901044,4.25805425 L13,4.25 L20,4.25 Z M20.5303301,12.4696699 C20.7965966,12.7359365 20.8208027,13.1526002 20.6029482,13.4462117 L20.5303301,13.5303301 L19.061,15 L20.5303301,16.4696699 C20.8232233,16.7625631 20.8232233,17.2374369 20.5303301,17.5303301 C20.2640635,17.7965966 19.8473998,17.8208027 19.5537883,17.6029482 L19.4696699,17.5303301 L18,16.061 L16.5303301,17.5303301 C16.2374369,17.8232233 15.7625631,17.8232233 15.4696699,17.5303301 C15.2034034,17.2640635 15.1791973,16.8473998 15.3970518,16.5537883 L15.4696699,16.4696699 L16.939,15 L15.4696699,13.5303301 C15.1767767,13.2374369 15.1767767,12.7625631 15.4696699,12.4696699 C15.7063513,12.2329885 16.061865,12.1875648 16.3441588,12.3333988 L16.4462117,12.3970518 L16.5303301,12.4696699 L18,13.939 L19.4696699,12.4696699 C19.7625631,12.1767767 20.2374369,12.1767767 20.5303301,12.4696699 Z" id="Icon-Color" fill="#212121"></path>
    </g>
</svg>