<?xml version="1.0" encoding="UTF-8"?>
<svg width="24px" height="24px" viewBox="0 0 24 24" version="1.1" xmlns="http://www.w3.org/2000/svg" xmlns:xlink="http://www.w3.org/1999/xlink">
    <title>Icon/medical-cross</title>
    <g id="Icon/medical-cross" stroke="none" stroke-width="1" fill="none" fill-rule="evenodd">
        <path d="M11,2.25 L10.8564728,2.2558012 C9.95711027,2.32880766 9.25,3.0818266 9.25,4 L9.25,7.236 L6.44689682,5.61842139 C5.61000342,5.13525112 4.53975713,5.42200818 4.05649396,6.25897746 L3.05648571,7.99099175 L2.98303848,8.13251156 C2.6068112,8.94510116 2.90650647,9.92509083 3.69697746,10.381506 L6.498,12 L3.69690753,13.6185343 C2.86000818,14.1017571 2.57325112,15.1720034 3.05647746,16.008994 L4.05648571,17.7410083 L4.14232526,17.8753731 C4.65795346,18.6074772 5.65650289,18.837903 6.44699396,18.3815225 L9.25,16.762 L9.25,20 C9.25,20.9664983 10.0335017,21.75 11,21.75 L13,21.75 L13.1435272,21.7441988 C14.0428897,21.6711923 14.75,20.9181734 14.75,20 L14.75,16.763 L17.5528552,18.3824354 C18.3899966,18.8657489 19.4602429,18.5789918 19.943506,17.7420225 L20.9435143,16.0100083 L21.0169615,15.8684884 C21.3931888,15.0558988 21.0934935,14.0759092 20.3030225,13.619494 L17.5,12 L20.3030925,10.3814657 C21.1399918,9.89824287 21.4267489,8.82799658 20.9435225,7.99100604 L19.9435143,6.25899175 L19.8576747,6.12462686 C19.3420465,5.39252278 18.3434971,5.16209703 17.553006,5.61847746 L14.75,7.236 L14.75,4 C14.75,3.03350169 13.9664983,2.25 13,2.25 L11,2.25 Z M11,3.75 L13,3.75 C13.1380712,3.75 13.25,3.86192881 13.25,4 L13.25,8.535 C13.25,9.11229732 13.8748968,9.47314785 14.3748968,9.18457861 L18.3028968,6.91757861 C18.422564,6.84849021 18.5754564,6.8894555 18.644494,7.00902254 L19.6444857,8.74100825 C19.7135098,8.86056404 19.6725445,9.01345637 19.5529775,9.08249396 L15.6259075,11.3505343 C15.1260859,11.6392014 15.1260171,12.3606316 15.6257835,12.649394 L19.5527835,14.918394 C19.6725445,14.9875436 19.7135098,15.140436 19.6444775,15.260006 L18.6444857,16.9919917 C18.5754564,17.1115445 18.422564,17.1525098 18.302994,17.0834775 L14.3751448,14.8145646 C13.8751449,14.5257408 13.25,14.8865754 13.25,15.464 L13.25,20 C13.25,20.1380712 13.1380712,20.25 13,20.25 L11,20.25 C10.8619288,20.25 10.75,20.1380712 10.75,20 L10.75,15.464 C10.75,14.886639 10.1249791,14.5257964 9.62497915,14.814493 L5.69697915,17.082493 C5.57743596,17.1515098 5.42454363,17.1105445 5.35550604,16.9909775 L4.35551429,15.2589917 C4.28649021,15.139436 4.3274555,14.9865436 4.44702254,14.917506 L8.37409247,12.6494657 C8.87396918,12.3607668 8.87396918,11.6392332 8.37409247,11.3505343 L4.44709247,9.08253434 C4.3274555,9.01345637 4.28649021,8.86056404 4.35552254,8.74099396 L5.35551429,7.00900825 C5.42454363,6.8894555 5.57743596,6.84849021 5.69700604,6.91752254 L9.62510318,9.18457861 C10.1251032,9.47314785 10.75,9.11229732 10.75,8.535 L10.75,4 C10.75,3.86192881 10.8619288,3.75 11,3.75 Z" id="Icon-Color" fill="#212121"></path>
    </g>
</svg>