<?xml version="1.0" encoding="UTF-8"?>
<svg width="24px" height="24px" viewBox="0 0 24 24" version="1.1" xmlns="http://www.w3.org/2000/svg" xmlns:xlink="http://www.w3.org/1999/xlink">
    <title>Icon/messages</title>
    <g id="Icon/messages" stroke="none" stroke-width="1" fill="none" fill-rule="evenodd">
        <path d="M6,9.25 C6.41421356,9.25 6.75,9.58578644 6.75,10 C6.75,10.3796958 6.46784612,10.693491 6.10177056,10.7431534 L6,10.75 L4,10.75 C3.88165327,10.75 3.78251318,10.8322334 3.75660268,10.9426773 L3.75,11 L3.75,19.188 L5.46966991,17.4696699 C5.58219174,17.3571481 5.72678598,17.2840724 5.88196594,17.2593431 L6,17.25 L13,17.25 C13.1183467,17.25 13.2174868,17.1677666 13.2433973,17.0573227 L13.25,17 L13.25,15 C13.25,14.5857864 13.5857864,14.25 14,14.25 C14.3796958,14.25 14.693491,14.5321539 14.7431534,14.8982294 L14.75,15 L14.75,17 C14.75,17.9181734 14.0428897,18.6711923 13.1435272,18.7441988 L13,18.75 L6.31,18.75 L3.53033009,21.5303301 C3.08272347,21.9779367 2.33410848,21.7011666 2.25654681,21.1026609 L2.25,21 L2.25,11 C2.25,10.0818266 2.95711027,9.32880766 3.85647279,9.2558012 L4,9.25 L6,9.25 Z M20,2.25 C20.9181734,2.25 21.6711923,2.95711027 21.7441988,3.85647279 L21.75,4 L21.75,14 L21.7481845,14.0523136 L21.7431534,14.1017706 L21.7232093,14.1993797 L21.6910613,14.2919338 L21.6610428,14.3547101 L21.598,14.451 C21.5690252,14.4896659 21.5391274,14.5227941 21.5073939,14.5521952 L21.4462117,14.6029482 L21.3547101,14.6610428 L21.2919338,14.6910613 L21.1993797,14.7232093 L21.1017706,14.7431534 L21.0523136,14.7481845 L21,14.75 L20.9476864,14.7481845 L20.8982294,14.7431534 L20.8006203,14.7232093 L20.7080662,14.6910613 L20.6452899,14.6610428 L20.548,14.598 C20.5163493,14.5741329 20.4922905,14.5529506 20.4696699,14.5303301 L17.689,11.75 L11,11.75 C10.0818266,11.75 9.32880766,11.0428897 9.2558012,10.1435272 L9.25,10 L9.25,4 C9.25,3.0818266 9.95711027,2.32880766 10.8564728,2.2558012 L11,2.25 L20,2.25 Z M20,3.75 L11,3.75 C10.8816533,3.75 10.7825132,3.83223341 10.7566027,3.94267729 L10.75,4 L10.75,10 C10.75,10.1183467 10.8322334,10.2174868 10.9426773,10.2433973 L11,10.25 L18,10.25 C18.1591299,10.25 18.3130458,10.3005713 18.4402609,10.3928138 L18.5303301,10.4696699 L20.25,12.189 L20.25,4 C20.25,3.88165327 20.1677666,3.78251318 20.0573227,3.75660268 L20,3.75 Z" id="Icon-Color" fill="#212121"></path>
    </g>
</svg>