<?xml version="1.0" encoding="UTF-8"?>
<svg width="24px" height="24px" viewBox="0 0 24 24" version="1.1" xmlns="http://www.w3.org/2000/svg" xmlns:xlink="http://www.w3.org/1999/xlink">
    <title>Icon/mic on</title>
    <g id="Icon/mic-on" stroke="none" stroke-width="1" fill="none" fill-rule="evenodd">
        <path d="M8,21.75 C7.58578644,21.75 7.25,21.4142136 7.25,21 C7.25,20.6203042 7.53215388,20.306509 7.89822944,20.2568466 L8,20.25 L11.25,20.25 L11.2507302,17.7142457 C7.32208018,17.33736 4.25,14.0274414 4.25,10 C4.25,9.58578644 4.58578644,9.25 5,9.25 C5.41421356,9.25 5.75,9.58578644 5.75,10 C5.75,13.4517796 8.54822035,16.25 12,16.25 C15.4517796,16.25 18.25,13.4517796 18.25,10 C18.25,9.58578644 18.5857864,9.25 19,9.25 C19.4142136,9.25 19.75,9.58578644 19.75,10 C19.75,14.0270984 16.678443,17.3367963 12.7502734,17.7141493 L12.75,20.25 L16,20.25 C16.4142136,20.25 16.75,20.5857864 16.75,21 C16.75,21.3796958 16.4678461,21.693491 16.1017706,21.7431534 L16,21.75 L8,21.75 Z M12,1.25 C14.0710678,1.25 15.75,2.92893219 15.75,5 L15.75,5 L15.75,10 C15.75,12.0710678 14.0710678,13.75 12,13.75 C9.92893219,13.75 8.25,12.0710678 8.25,10 L8.25,10 L8.25,5 C8.25,2.92893219 9.92893219,1.25 12,1.25 Z M12,2.75 C10.7573593,2.75 9.75,3.75735931 9.75,5 L9.75,5 L9.75,10 C9.75,11.2426407 10.7573593,12.25 12,12.25 C13.2426407,12.25 14.25,11.2426407 14.25,10 L14.25,10 L14.25,5 C14.25,3.75735931 13.2426407,2.75 12,2.75 Z" id="Icon-Color" fill="#212121"></path>
    </g>
</svg>