<?xml version="1.0" encoding="UTF-8"?>
<svg width="24px" height="24px" viewBox="0 0 24 24" version="1.1" xmlns="http://www.w3.org/2000/svg" xmlns:xlink="http://www.w3.org/1999/xlink">
    <title>Icon/mood-boy</title>
    <g id="Icon/mood-boy" stroke="none" stroke-width="1" fill="none" fill-rule="evenodd">
        <path d="M17.4160833,3.87600103 C19.4440706,5.22826546 20.8854282,7.28624181 21.4693767,9.63717369 L21.543,9.958 L21.6028896,10.0057736 C22.3339051,10.6226158 22.7592503,11.5346046 22.7565585,12.4979249 L22.7493697,12.7050475 C22.680285,13.7437005 22.1193552,14.6773534 21.255493,15.2287014 L21.19,15.266 L21.100893,15.5093011 C19.6914234,19.1626971 16.2193878,21.6298618 12.2871362,21.7426377 L12.0055,21.7466733 C7.95811648,21.7466733 4.35313543,19.2496827 2.91010705,15.5093011 L2.82,15.266 L2.755507,15.2287014 C1.94923557,14.7141099 1.40685204,13.8664884 1.28194923,12.911296 L1.26163033,12.7050475 C1.19254561,11.6663945 1.62487952,10.666676 2.40811043,10.0057736 L2.467,9.958 L2.47171127,9.93905237 C2.97004934,7.62020382 4.29708406,5.56198925 6.20354298,4.15102722 L6.46708271,3.96267151 C6.80802382,3.72744389 7.27510086,3.8131416 7.51032849,4.15408271 C7.74555611,4.49502382 7.6598584,4.96210086 7.31891729,5.19732849 C5.51096147,6.44470272 4.27507194,8.3615522 3.88508396,10.5231618 C3.85438563,10.6933153 3.76609123,10.8465362 3.63668487,10.9580796 L3.55423949,11.0198063 C3.02079757,11.3647356 2.71616384,11.9716522 2.75832324,12.6054968 C2.80048263,13.2393415 3.18281379,13.8005655 3.75723949,14.0718063 C3.94495393,14.1604441 4.08753483,14.3229194 4.15104167,14.5205561 C5.2474769,17.9327212 8.42150207,20.2466733 12.0055,20.2466733 C15.5894979,20.2466733 18.7635231,17.9327212 19.8599583,14.5205561 C19.9234652,14.3229194 20.0660461,14.1604441 20.2537605,14.0718063 C20.8281862,13.8005655 21.2105174,13.2393415 21.2526768,12.6054968 C21.2913229,12.0244726 21.0385664,11.4660753 20.5852859,11.1113607 L20.4567605,11.0198063 C20.2825315,10.907148 20.1627555,10.7273483 20.1259167,10.5231656 C19.7278691,8.31694858 18.4491225,6.36772044 16.5839167,5.12399897 C16.2392916,4.89420252 16.1462046,4.42854184 16.376001,4.08391673 C16.6057975,3.73929162 17.0714582,3.64620459 17.4160833,3.87600103 Z M15.0248907,15.4642857 C15.3207575,15.7541748 15.3256034,16.2290238 15.0357143,16.5248907 C14.2363362,17.3407525 13.1422065,17.8005103 12,17.8005103 C10.8577935,17.8005103 9.76366377,17.3407525 8.96428571,16.5248907 C8.67439661,16.2290238 8.67924251,15.7541748 8.97510934,15.4642857 C9.27097617,15.1743966 9.74582518,15.1792425 10.0357143,15.4751093 C10.5529589,16.0030199 11.2609252,16.3005103 12,16.3005103 C12.7390748,16.3005103 13.4470411,16.0030199 13.9642857,15.4751093 C14.2541748,15.1792425 14.7290238,15.1743966 15.0248907,15.4642857 Z M9.01,11.25 C9.42421356,11.25 9.76,11.5857864 9.76,12 C9.76,12.3796958 9.47784612,12.693491 9.11177056,12.7431534 L9,12.75 C8.58578644,12.75 8.25,12.4142136 8.25,12 C8.25,11.6203042 8.53215388,11.306509 8.89822944,11.2568466 L9.01,11.25 Z M15.01,11.25 C15.4242136,11.25 15.76,11.5857864 15.76,12 C15.76,12.3796958 15.4778461,12.693491 15.1117706,12.7431534 L15,12.75 C14.5857864,12.75 14.25,12.4142136 14.25,12 C14.25,11.6203042 14.5321539,11.306509 14.8982294,11.2568466 L15.01,11.25 Z M8.91602515,1.37596228 C10.5177539,2.44378146 11.75,5.08430879 11.75,7 C11.75,7.41421356 11.4142136,7.75 11,7.75 C10.5857864,7.75 10.25,7.41421356 10.25,7 C10.25,5.55854835 9.2403106,3.39492822 8.08397485,2.62403772 C7.73932834,2.39427338 7.64619793,1.92862137 7.87596228,1.58397485 C8.10572662,1.23932834 8.57137863,1.14619793 8.91602515,1.37596228 Z M13.1,1.55 C14.6123771,3.5665028 15.25,5.22432234 15.25,7 C15.25,7.41421356 14.9142136,7.75 14.5,7.75 C14.0857864,7.75 13.75,7.41421356 13.75,7 C13.75,5.57567766 13.2297282,4.22297089 11.9,2.45 C11.6514719,2.11862915 11.7186292,1.64852814 12.05,1.4 C12.3813708,1.15147186 12.8514719,1.21862915 13.1,1.55 Z" id="Icon-Color" fill="#212121"></path>
    </g>
</svg>