<?xml version="1.0" encoding="UTF-8"?>
<svg width="24px" height="24px" viewBox="0 0 24 24" version="1.1" xmlns="http://www.w3.org/2000/svg" xmlns:xlink="http://www.w3.org/1999/xlink">
    <title>Icon/mood-confuzed</title>
    <g id="Icon/mood-confuzed" stroke="none" stroke-width="1" fill="none" fill-rule="evenodd">
        <path d="M12,2.25 C17.3847763,2.25 21.75,6.61522369 21.75,12 C21.75,17.3847763 17.3847763,21.75 12,21.75 C6.61522369,21.75 2.25,17.3847763 2.25,12 C2.25,6.61522369 6.61522369,2.25 12,2.25 Z M12,3.75 C7.44365081,3.75 3.75,7.44365081 3.75,12 C3.75,16.5563492 7.44365081,20.25 12,20.25 C16.5563492,20.25 20.25,16.5563492 20.25,12 C20.25,7.44365081 16.5563492,3.75 12,3.75 Z M15.552014,13.7518058 C15.9652302,13.7805323 16.2769207,14.1387977 16.2481942,14.552014 C16.2194677,14.9652302 15.8612023,15.2769207 15.447986,15.2481942 C13.4978494,15.112622 11.5548962,15.5983603 9.89798605,16.6356942 C9.54690184,16.8554958 9.08410743,16.7490703 8.86430581,16.397986 C8.64450418,16.0469018 8.75092974,15.5841074 9.10201395,15.3643058 C11.0276122,14.1587557 13.285639,13.594249 15.552014,13.7518058 Z M9.01,9.25 C9.42421356,9.25 9.76,9.58578644 9.76,10 C9.76,10.3796958 9.47784612,10.693491 9.11177056,10.7431534 L9,10.75 C8.58578644,10.75 8.25,10.4142136 8.25,10 C8.25,9.62030423 8.53215388,9.30650904 8.89822944,9.25684662 L9.01,9.25 Z M15.01,9.25 C15.4242136,9.25 15.76,9.58578644 15.76,10 C15.76,10.3796958 15.4778461,10.693491 15.1117706,10.7431534 L15,10.75 C14.5857864,10.75 14.25,10.4142136 14.25,10 C14.25,9.62030423 14.5321539,9.30650904 14.8982294,9.25684662 L15.01,9.25 Z" id="Icon-Color" fill="#212121"></path>
    </g>
</svg>