<?xml version="1.0" encoding="UTF-8"?>
<svg width="24px" height="24px" viewBox="0 0 24 24" version="1.1" xmlns="http://www.w3.org/2000/svg" xmlns:xlink="http://www.w3.org/1999/xlink">
    <title>Icon/mood-sad</title>
    <g id="Icon/mood-sad" stroke="none" stroke-width="1" fill="none" fill-rule="evenodd">
        <path d="M12,2.25 C17.3847763,2.25 21.75,6.61522369 21.75,12 C21.75,17.3847763 17.3847763,21.75 12,21.75 C6.61522369,21.75 2.25,17.3847763 2.25,12 C2.25,6.61522369 6.61522369,2.25 12,2.25 Z M12,3.75 C7.44365081,3.75 3.75,7.44365081 3.75,12 C3.75,16.5563492 7.44365081,20.25 12,20.25 C16.5563492,20.25 20.25,16.5563492 20.25,12 C20.25,7.44365081 16.5563492,3.75 12,3.75 Z M12,13.4494897 C13.1422065,13.4494897 14.2363362,13.9092475 15.0357143,14.7251093 C15.3256034,15.0209762 15.3207575,15.4958252 15.0248907,15.7857143 C14.7290238,16.0756034 14.2541748,16.0707575 13.9642857,15.7748907 C13.4470411,15.2469801 12.7390748,14.9494897 12,14.9494897 C11.2609252,14.9494897 10.5529589,15.2469801 10.0357143,15.7748907 C9.74582518,16.0707575 9.27097617,16.0756034 8.97510934,15.7857143 C8.67924251,15.4958252 8.67439661,15.0209762 8.96428571,14.7251093 C9.76366377,13.9092475 10.8577935,13.4494897 12,13.4494897 Z M9.01,9.25 C9.42421356,9.25 9.76,9.58578644 9.76,10 C9.76,10.3796958 9.47784612,10.693491 9.11177056,10.7431534 L9,10.75 C8.58578644,10.75 8.25,10.4142136 8.25,10 C8.25,9.62030423 8.53215388,9.30650904 8.89822944,9.25684662 L9.01,9.25 Z M15.01,9.25 C15.4242136,9.25 15.76,9.58578644 15.76,10 C15.76,10.3796958 15.4778461,10.693491 15.1117706,10.7431534 L15,10.75 C14.5857864,10.75 14.25,10.4142136 14.25,10 C14.25,9.62030423 14.5321539,9.30650904 14.8982294,9.25684662 L15.01,9.25 Z" id="Icon-Color" fill="#212121"></path>
    </g>
</svg>