<?xml version="1.0" encoding="UTF-8"?>
<svg width="24px" height="24px" viewBox="0 0 24 24" version="1.1" xmlns="http://www.w3.org/2000/svg" xmlns:xlink="http://www.w3.org/1999/xlink">
    <title>Icon/moon</title>
    <g id="Icon/moon" stroke="none" stroke-width="1" fill="none" fill-rule="evenodd">
        <path d="M11.9998191,2.24200002 C7.10872934,2.24317975 2.97543239,5.86800967 2.33588164,10.717106 C1.69633088,15.5662024 4.7484732,20.138725 9.47200392,21.4079838 C14.1955346,22.6772426 19.1284773,20.2503903 21.0055691,15.7338334 C21.2610597,15.1190856 20.6485862,14.500975 20.0315236,14.750823 C17.0128542,15.9730789 13.5519119,14.8656743 11.8034833,12.1180805 C10.0550547,9.37048673 10.5177622,5.7662714 12.9035236,3.54942302 L12.9755466,3.47326146 C13.3672528,2.99987564 13.0386561,2.25 12.393,2.25 L12.111,2.25 L12.0511777,2.24371847 L11.9998191,2.24200002 Z M10.68,3.848 L10.6467987,3.89678997 C8.85403768,6.56654803 8.74889291,10.1118893 10.5379827,12.9233806 L10.6868976,13.1492305 C12.4567469,15.7409237 15.5064357,17.0586878 18.5207026,16.6816761 L18.818,16.638 L18.7478198,16.7435777 C16.7927254,19.522173 13.2628209,20.8734034 9.86126036,19.9593709 C5.86442667,18.8853826 3.28184471,15.016325 3.82300304,10.9132435 C4.29651658,7.32304718 7.03340656,4.52597537 10.4827787,3.8821355 L10.68,3.848 Z" id="Icon-Color" fill="#212121"></path>
    </g>
</svg>