<?xml version="1.0" encoding="UTF-8"?>
<svg width="24px" height="24px" viewBox="0 0 24 24" version="1.1" xmlns="http://www.w3.org/2000/svg" xmlns:xlink="http://www.w3.org/1999/xlink">
    <title>Icon/moped</title>
    <g id="Icon/moped" stroke="none" stroke-width="1" fill="none" fill-rule="evenodd">
        <path d="M18,14.25 C19.5187831,14.25 20.75,15.4812169 20.75,17 C20.75,18.5187831 19.5187831,19.75 18,19.75 C16.4812169,19.75 15.25,18.5187831 15.25,17 C15.25,15.4812169 16.4812169,14.25 18,14.25 Z M16,4.25 C17.4625318,4.25 18.6584043,5.3917046 18.7449812,6.83247767 L18.75,7 L18.75,12 C18.75,12.3818068 18.4631666,12.7026757 18.0837476,12.7453096 C16.0727415,12.9712788 14.3706458,14.3329553 13.7087476,16.2453096 C13.61581,16.5138247 13.3806691,16.7037473 13.1050541,16.7426374 L13,16.75 L9.75,16.75 L9.75,17 C9.75,18.4625318 8.6082954,19.6584043 7.16752233,19.7449812 L7,19.75 C5.53746816,19.75 4.34159572,18.6082954 4.25501879,17.1675223 L4.25,17 L4.25,16.75 L3,16.75 C2.62030423,16.75 2.30650904,16.4678461 2.25684662,16.1017706 L2.25,16 L2.25,15 C2.25,12.9957408 3.82236105,11.3587263 5.80084143,11.255198 L6,11.25 L9,11.25 C9.37969577,11.25 9.69349096,11.5321539 9.74315338,11.8982294 L9.75,12 L9.75,15.25 L12.489,15.25 L12.5857376,15.0390607 C13.4730088,13.1913675 15.1560395,11.8449429 17.1534339,11.3849037 L17.25,11.364 L17.25,7 C17.25,6.35279131 16.7581253,5.8204661 16.1278052,5.75645361 L16,5.75 L15,5.75 C14.5857864,5.75 14.25,5.41421356 14.25,5 C14.25,4.62030423 14.5321539,4.30650904 14.8982294,4.25684662 L15,4.25 L16,4.25 Z M18,15.75 C17.3096441,15.75 16.75,16.3096441 16.75,17 C16.75,17.6903559 17.3096441,18.25 18,18.25 C18.6903559,18.25 19.25,17.6903559 19.25,17 C19.25,16.3096441 18.6903559,15.75 18,15.75 Z M8.25,16.75 L5.75,16.75 L5.75,17 C5.75,17.6472087 6.24187466,18.1795339 6.87219476,18.2435464 L7,18.25 C7.64720869,18.25 8.1795339,17.7581253 8.24354639,17.1278052 L8.25,17 L8.25,16.75 Z M8.25,12.75 L6,12.75 C4.80913601,12.75 3.83435508,13.6751616 3.75519081,14.8459512 L3.75,15 L3.75,15.25 L8.25,15.25 L8.25,12.75 Z M9,8.25 C9.41421356,8.25 9.75,8.58578644 9.75,9 C9.75,9.37969577 9.46784612,9.69349096 9.10177056,9.74315338 L9,9.75 L6,9.75 C5.58578644,9.75 5.25,9.41421356 5.25,9 C5.25,8.62030423 5.53215388,8.30650904 5.89822944,8.25684662 L6,8.25 L9,8.25 Z" id="Icon-Color" fill="#212121"></path>
    </g>
</svg>