<?xml version="1.0" encoding="UTF-8"?>
<svg width="24px" height="24px" viewBox="0 0 24 24" version="1.1" xmlns="http://www.w3.org/2000/svg" xmlns:xlink="http://www.w3.org/1999/xlink">
    <title>Icon/motorbike</title>
    <g id="Icon/motorbike" stroke="none" stroke-width="1" fill="none" fill-rule="evenodd">
        <path d="M15,5.25 C15.2485692,5.25 15.4784711,5.37288418 15.6171722,5.57382434 L15.6708204,5.6645898 L18.963,12.251 L19,12.25 C21.0042592,12.25 22.6412737,13.8223611 22.744802,15.8008414 L22.75,16 C22.75,18.0710678 21.0710678,19.75 19,19.75 C16.9289322,19.75 15.25,18.0710678 15.25,16 C15.25,14.4805918 16.1536358,13.1722391 17.4528061,12.5830431 L16.628,10.932 L13.0303301,14.5303301 C12.9178083,14.6428519 12.773214,14.7159276 12.6180341,14.7406569 L12.5,14.75 L8.53602415,14.7483215 C8.67459184,15.1397694 8.75,15.5610784 8.75,16 C8.75,18.0710678 7.07106781,19.75 5,19.75 C2.92893219,19.75 1.25,18.0710678 1.25,16 C1.25,13.9289322 2.92893219,12.25 5,12.25 C5.89263765,12.25 6.71243058,12.5618853 7.35635145,13.0826286 L9.688,10.75 L6,10.75 C5.62030423,10.75 5.30650904,10.4678461 5.25684662,10.1017706 L5.25,10 C5.25,9.62030423 5.53215388,9.30650904 5.89822944,9.25684662 L6,9.25 L15.786,9.25 L14.536,6.75 L13,6.75 C12.6203042,6.75 12.306509,6.46784612 12.2568466,6.10177056 L12.25,6 C12.25,5.62030423 12.5321539,5.30650904 12.8982294,5.25684662 L13,5.25 L15,5.25 Z M5,13.75 C3.75735931,13.75 2.75,14.7573593 2.75,16 C2.75,17.2426407 3.75735931,18.25 5,18.25 C6.24264069,18.25 7.25,17.2426407 7.25,16 C7.25,14.7573593 6.24264069,13.75 5,13.75 Z M19,13.75 C17.7573593,13.75 16.75,14.7573593 16.75,16 C16.75,17.2426407 17.7573593,18.25 19,18.25 C20.2426407,18.25 21.25,17.2426407 21.25,16 C21.25,14.7573593 20.2426407,13.75 19,13.75 Z M14.688,10.75 L11.81,10.75 L9.31,13.25 L12.188,13.25 L14.688,10.75 Z" id="Icon-Color" fill="#212121"></path>
    </g>
</svg>