<?xml version="1.0" encoding="UTF-8"?>
<svg width="24px" height="24px" viewBox="0 0 24 24" version="1.1" xmlns="http://www.w3.org/2000/svg" xmlns:xlink="http://www.w3.org/1999/xlink">
    <title>Icon/brand/netflix</title>
    <g id="Icon/brand/netflix" stroke="none" stroke-width="1" fill="none" fill-rule="evenodd">
        <path d="M8.25,4 C8.25,3.2244651 9.26272067,2.97737417 9.63801843,3.60390169 L9.687118,3.69938587 L15.25,16.414 L15.25,4 C15.25,3.62030423 15.5321539,3.30650904 15.8982294,3.25684662 L16,3.25 C16.3796958,3.25 16.693491,3.53215388 16.7431534,3.89822944 L16.75,4 L16.75,20 C16.75,20.7755349 15.7372793,21.0226258 15.3619816,20.3960983 L15.312882,20.3006141 L9.75,7.587 L9.75,20 C9.75,20.3796958 9.46784612,20.693491 9.10177056,20.7431534 L9,20.75 C8.62030423,20.75 8.30650904,20.4678461 8.25684662,20.1017706 L8.25,20 L8.25,4 Z" id="Icon-Color" fill="#212121"></path>
    </g>
</svg>