<?xml version="1.0" encoding="UTF-8"?>
<svg width="24px" height="24px" viewBox="0 0 24 24" version="1.1" xmlns="http://www.w3.org/2000/svg" xmlns:xlink="http://www.w3.org/1999/xlink">
    <title>Icon/new-section</title>
    <g id="Icon/new-section" stroke="none" stroke-width="1" fill="none" fill-rule="evenodd">
        <path d="M20,17.25 C20.3796958,17.25 20.693491,17.5321539 20.7431534,17.8982294 L20.75,18 L20.75,19 C20.75,19.9181734 20.0428897,20.6711923 19.1435272,20.7441988 L19,20.75 L18,20.75 C17.5857864,20.75 17.25,20.4142136 17.25,20 C17.25,19.6203042 17.5321539,19.306509 17.8982294,19.2568466 L18,19.25 L19,19.25 C19.1183467,19.25 19.2174868,19.1677666 19.2433973,19.0573227 L19.25,19 L19.25,18 C19.25,17.5857864 19.5857864,17.25 20,17.25 Z M13,19.25 C13.4142136,19.25 13.75,19.5857864 13.75,20 C13.75,20.3796958 13.4678461,20.693491 13.1017706,20.7431534 L13,20.75 L11,20.75 C10.5857864,20.75 10.25,20.4142136 10.25,20 C10.25,19.6203042 10.5321539,19.306509 10.8982294,19.2568466 L11,19.25 L13,19.25 Z M4,17.25 C4.37969577,17.25 4.69349096,17.5321539 4.74315338,17.8982294 L4.75,18 L4.75,19 C4.75,19.1183467 4.83223341,19.2174868 4.94267729,19.2433973 L5,19.25 L6,19.25 C6.41421356,19.25 6.75,19.5857864 6.75,20 C6.75,20.3796958 6.46784612,20.693491 6.10177056,20.7431534 L6,20.75 L5,20.75 C4.0818266,20.75 3.32880766,20.0428897 3.2558012,19.1435272 L3.25,19 L3.25,18 C3.25,17.5857864 3.58578644,17.25 4,17.25 Z M12,8.25 C12.3796958,8.25 12.693491,8.53215388 12.7431534,8.89822944 L12.75,9 L12.75,11.25 L15,11.25 C15.4142136,11.25 15.75,11.5857864 15.75,12 C15.75,12.3796958 15.4678461,12.693491 15.1017706,12.7431534 L15,12.75 L12.75,12.75 L12.75,15 C12.75,15.4142136 12.4142136,15.75 12,15.75 C11.6203042,15.75 11.306509,15.4678461 11.2568466,15.1017706 L11.25,15 L11.25,12.75 L9,12.75 C8.58578644,12.75 8.25,12.4142136 8.25,12 C8.25,11.6203042 8.53215388,11.306509 8.89822944,11.2568466 L9,11.25 L11.25,11.25 L11.25,9 C11.25,8.58578644 11.5857864,8.25 12,8.25 Z M20,10.25 C20.3796958,10.25 20.693491,10.5321539 20.7431534,10.8982294 L20.75,11 L20.75,13 C20.75,13.4142136 20.4142136,13.75 20,13.75 C19.6203042,13.75 19.306509,13.4678461 19.2568466,13.1017706 L19.25,13 L19.25,11 C19.25,10.5857864 19.5857864,10.25 20,10.25 Z M4,10.25 C4.37969577,10.25 4.69349096,10.5321539 4.74315338,10.8982294 L4.75,11 L4.75,13 C4.75,13.4142136 4.41421356,13.75 4,13.75 C3.62030423,13.75 3.30650904,13.4678461 3.25684662,13.1017706 L3.25,13 L3.25,11 C3.25,10.5857864 3.58578644,10.25 4,10.25 Z M6,3.25 C6.41421356,3.25 6.75,3.58578644 6.75,4 C6.75,4.37969577 6.46784612,4.69349096 6.10177056,4.74315338 L6,4.75 L5,4.75 C4.88165327,4.75 4.78251318,4.83223341 4.75660268,4.94267729 L4.75,5 L4.75,6 C4.75,6.41421356 4.41421356,6.75 4,6.75 C3.62030423,6.75 3.30650904,6.46784612 3.25684662,6.10177056 L3.25,6 L3.25,5 C3.25,4.0818266 3.95711027,3.32880766 4.85647279,3.2558012 L5,3.25 L6,3.25 Z M19,3.25 C19.9181734,3.25 20.6711923,3.95711027 20.7441988,4.85647279 L20.75,5 L20.75,6 C20.75,6.41421356 20.4142136,6.75 20,6.75 C19.6203042,6.75 19.306509,6.46784612 19.2568466,6.10177056 L19.25,6 L19.25,5 C19.25,4.88165327 19.1677666,4.78251318 19.0573227,4.75660268 L19,4.75 L18,4.75 C17.5857864,4.75 17.25,4.41421356 17.25,4 C17.25,3.62030423 17.5321539,3.30650904 17.8982294,3.25684662 L18,3.25 L19,3.25 Z M13,3.25 C13.4142136,3.25 13.75,3.58578644 13.75,4 C13.75,4.37969577 13.4678461,4.69349096 13.1017706,4.74315338 L13,4.75 L11,4.75 C10.5857864,4.75 10.25,4.41421356 10.25,4 C10.25,3.62030423 10.5321539,3.30650904 10.8982294,3.25684662 L11,3.25 L13,3.25 Z" id="Icon-Color" fill="#212121"></path>
    </g>
</svg>