<?xml version="1.0" encoding="UTF-8"?>
<svg width="24px" height="24px" viewBox="0 0 24 24" version="1.1" xmlns="http://www.w3.org/2000/svg" xmlns:xlink="http://www.w3.org/1999/xlink">
    <title>Icon/media/next</title>
    <g id="Icon/media/next" stroke="none" stroke-width="1" fill="none" fill-rule="evenodd">
        <path d="M2,4.75145935 C2,4.10709024 2.75894128,3.7627068 3.24387846,4.18702682 L3.24387846,4.18702682 L11.2438785,11.1870268 C11.5853738,11.4858353 11.5853738,12.0170834 11.2438785,12.3158919 L11.2438785,12.3158919 L3.24387846,19.3158919 C2.75894128,19.7402119 2,19.3958285 2,18.7514593 L2,18.7514593 Z M13,4.75145935 C13,4.10709024 13.7589413,3.7627068 14.2438785,4.18702682 L14.2438785,4.18702682 L22.2438785,11.1870268 C22.5853738,11.4858353 22.5853738,12.0170834 22.2438785,12.3158919 L22.2438785,12.3158919 L14.2438785,19.3158919 C13.7589413,19.7402119 13,19.3958285 13,18.7514593 L13,18.7514593 Z M3.5,6.40445935 L3.5,17.0984593 L9.611,11.7514593 L3.5,6.40445935 Z M14.5,6.40445935 L14.5,17.0984593 L20.611,11.7514593 L14.5,6.40445935 Z" id="Icon-Color" fill="#212121"></path>
    </g>
</svg>