<?xml version="1.0" encoding="UTF-8"?>
<svg width="24px" height="24px" viewBox="0 0 24 24" version="1.1" xmlns="http://www.w3.org/2000/svg" xmlns:xlink="http://www.w3.org/1999/xlink">
    <title>Icon/nfc</title>
    <g id="Icon/nfc" stroke="none" stroke-width="1" fill="none" fill-rule="evenodd">
        <path d="M17,3.25 C19.0710678,3.25 20.75,4.92893219 20.75,7 L20.75,7 L20.75,17 C20.75,19.0710678 19.0710678,20.75 17,20.75 L17,20.75 L7,20.75 C4.92893219,20.75 3.25,19.0710678 3.25,17 L3.25,17 L3.25,7 C3.25,4.92893219 4.92893219,3.25 7,3.25 L7,3.25 Z M17,4.75 L16.0001151,4.74978766 C16.4337194,5.32697278 16.7046414,6.03335038 16.744802,6.80084143 L16.75,7 L16.75,18 C16.75,18.6330113 16.0249433,18.9666561 15.5468915,18.598293 L15.4696699,18.5303301 L10.4696699,13.5303301 C10.1767767,13.2374369 10.1767767,12.7625631 10.4696699,12.4696699 C10.7359365,12.2034034 11.1526002,12.1791973 11.4462117,12.3970518 L11.5303301,12.4696699 L15.25,16.189 L15.25,7 C15.25,5.80913601 14.3248384,4.83435508 13.1540488,4.75519081 L13,4.75 L7,4.75 C5.75735931,4.75 4.75,5.75735931 4.75,7 L4.75,7 L4.75,17 C4.75,18.2426407 5.75735931,19.25 7,19.25 L7,19.25 L8.00063521,19.2512108 C7.56659315,18.6738419 7.29538179,17.9670922 7.25519801,17.1991586 L7.25,17 L7.25,6 C7.25,5.36698866 7.97505675,5.03334393 8.45310855,5.40170696 L8.53033009,5.46966991 L13.5303301,10.4696699 C13.8232233,10.7625631 13.8232233,11.2374369 13.5303301,11.5303301 C13.2640635,11.7965966 12.8473998,11.8208027 12.5537883,11.6029482 L12.4696699,11.5303301 L8.75,7.811 L8.75,17 C8.75,18.190864 9.67516159,19.1656449 10.8459512,19.2448092 L11,19.25 L11.014,19.25 L17,19.25 C18.190864,19.25 19.1656449,18.3248384 19.2448092,17.1540488 L19.25,17 L19.25,7 C19.25,5.75735931 18.2426407,4.75 17,4.75 L17,4.75 Z" id="Icon-Color" fill="#212121"></path>
    </g>
</svg>