<?xml version="1.0" encoding="UTF-8"?>
<svg width="24px" height="24px" viewBox="0 0 24 24" version="1.1" xmlns="http://www.w3.org/2000/svg" xmlns:xlink="http://www.w3.org/1999/xlink">
    <title>Icon/notebook</title>
    <g id="Icon/notebook" stroke="none" stroke-width="1" fill="none" fill-rule="evenodd">
        <path d="M17,3.25 C18.4625318,3.25 19.6584043,4.3917046 19.7449812,5.83247767 L19.75,6 L19.75,18 C19.75,19.4625318 18.6082954,20.6584043 17.1675223,20.7449812 L17,20.75 L9.75,20.75 L9.75,22 C9.75,22.4142136 9.41421356,22.75 9,22.75 C8.62030423,22.75 8.30650904,22.4678461 8.25684662,22.1017706 L8.25,22 L8.25,20.75 L6,20.75 C5.0818266,20.75 4.32880766,20.0428897 4.2558012,19.1435272 L4.25,19 L4.25,5 C4.25,4.0818266 4.95711027,3.32880766 5.85647279,3.2558012 L6,3.25 L17,3.25 Z M8.25,4.75 L6,4.75 L5.94267729,4.75660268 C5.85432219,4.77733108 5.78402178,4.84492642 5.75943583,4.93172894 L5.75,5 L5.75,19 C5.75,19.1183467 5.83223341,19.2174868 5.94267729,19.2433973 L6,19.25 L8.25,19.25 L8.25,4.75 Z M17,4.75 L9.75,4.75 L9.75,19.25 L17,19.25 C17.6472087,19.25 18.1795339,18.7581253 18.2435464,18.1278052 L18.25,18 L18.25,6 C18.25,5.35279131 17.7581253,4.8204661 17.1278052,4.75645361 L17,4.75 Z M15,11.25 C15.4142136,11.25 15.75,11.5857864 15.75,12 C15.75,12.3796958 15.4678461,12.693491 15.1017706,12.7431534 L15,12.75 L13,12.75 C12.5857864,12.75 12.25,12.4142136 12.25,12 C12.25,11.6203042 12.5321539,11.306509 12.8982294,11.2568466 L13,11.25 L15,11.25 Z M15,7.25 C15.4142136,7.25 15.75,7.58578644 15.75,8 C15.75,8.37969577 15.4678461,8.69349096 15.1017706,8.74315338 L15,8.75 L13,8.75 C12.5857864,8.75 12.25,8.41421356 12.25,8 C12.25,7.62030423 12.5321539,7.30650904 12.8982294,7.25684662 L13,7.25 L15,7.25 Z" id="Icon-Color" fill="#212121"></path>
    </g>
</svg>