<?xml version="1.0" encoding="UTF-8"?>
<svg width="24px" height="24px" viewBox="0 0 24 24" version="1.1" xmlns="http://www.w3.org/2000/svg" xmlns:xlink="http://www.w3.org/1999/xlink">
    <title>Icon/octagon-off</title>
    <g id="Icon/octagon-off" stroke="none" stroke-width="1" fill="none" fill-rule="evenodd">
        <path d="M3.44621165,2.39705176 L3.53033009,2.46966991 L18.8422963,17.7785454 C18.8563274,17.7906484 18.8700168,17.8033566 18.8833301,17.8166699 L18.917,17.856 L21.5303301,20.4696699 C21.8232233,20.7625631 21.8232233,21.2374369 21.5303301,21.5303301 C21.2640635,21.7965966 20.8473998,21.8208027 20.5537883,21.6029482 L20.4696699,21.5303301 L18.35,19.411 L16.5303301,21.2303301 C16.2274894,21.5331708 15.8906393,21.7039125 15.4804167,21.7418661 L15.3,21.75 L8.7,21.75 C8.26801047,21.75 7.91501674,21.6171133 7.60165575,21.3520293 L7.46966991,21.2303301 L2.76966991,16.5303301 C2.46682924,16.2274894 2.29608747,15.8906393 2.25813391,15.4804167 L2.25,15.3 L2.25,8.7 C2.25,8.26801047 2.38288668,7.91501674 2.64797075,7.60165575 L2.76966991,7.46966991 L4.589,5.65 L2.46966991,3.53033009 C2.1767767,3.23743687 2.1767767,2.76256313 2.46966991,2.46966991 C2.73593648,2.20340335 3.15260016,2.1791973 3.44621165,2.39705176 Z M5.65,6.711 L3.83033009,8.53033009 C3.77490781,8.58575236 3.75743328,8.60775061 3.7521599,8.64958329 L3.75,8.7 L3.75,15.3 C3.75,15.3609733 3.75361897,15.3843593 3.78660348,15.4234164 L8.53033009,20.1696699 C8.58575236,20.2250922 8.60775061,20.2425667 8.64958329,20.2478401 L8.7,20.25 L15.3,20.25 C15.3609733,20.25 15.3843593,20.246381 15.4234164,20.2133965 L17.288,18.349 L5.65,6.711 Z M15.3,2.25 C15.7319895,2.25 16.0849833,2.38288668 16.3983443,2.64797075 L16.5303301,2.76966991 L21.2303301,7.46966991 C21.5331708,7.77251059 21.7039125,8.10936072 21.7418661,8.51958335 L21.75,8.7 L21.75,15.3 C21.75,15.7319895 21.6171133,16.0849833 21.3520293,16.3983443 L21.2303301,16.5303301 L20.8803301,16.8803301 C20.5874369,17.1732233 20.1125631,17.1732233 19.8196699,16.8803301 C19.5534034,16.6140635 19.5291973,16.1973998 19.7470518,15.9037883 L19.8196699,15.8196699 L20.1696699,15.4696699 C20.2250922,15.4142476 20.2425667,15.3922494 20.2478401,15.3504167 L20.25,15.3 L20.25,8.7 C20.25,8.63902674 20.246381,8.61564075 20.2133965,8.57658355 L15.4696699,3.83033009 C15.4142476,3.77490781 15.3922494,3.75743328 15.3504167,3.7521599 L15.3,3.75 L8.7,3.75 C8.63902674,3.75 8.61564075,3.75361897 8.57658355,3.78660348 L8.17733009,4.18333009 C7.88443687,4.4762233 7.40956313,4.4762233 7.11666991,4.18333009 C6.85040335,3.91706352 6.8261973,3.50039984 7.04405176,3.20678835 L7.11666991,3.12266991 L7.46966991,2.76966991 C7.77251059,2.46682924 8.10936072,2.29608747 8.51958335,2.25813391 L8.7,2.25 L15.3,2.25 Z" id="Icon-Color" fill="#212121"></path>
    </g>
</svg>