<?xml version="1.0" encoding="UTF-8"?>
<svg width="24px" height="24px" viewBox="0 0 24 24" version="1.1" xmlns="http://www.w3.org/2000/svg" xmlns:xlink="http://www.w3.org/1999/xlink">
    <title>Icon/placeholder/outline</title>
    <g id="Icon/placeholder/outline" stroke="none" stroke-width="1" fill="none" fill-rule="evenodd">
        <path d="M12,2 C17.5228475,2 22,6.4771525 22,12 C22,17.5228475 17.5228475,22 12,22 C6.4771525,22 2,17.5228475 2,12 C2,6.4771525 6.4771525,2 12,2 Z M12,2.75 C6.89136606,2.75 2.75,6.89136606 2.75,12 C2.75,17.1086339 6.89136606,21.25 12,21.25 C17.1086339,21.25 21.25,17.1086339 21.25,12 C21.25,6.89136606 17.1086339,2.75 12,2.75 Z" id="Border" fill="#212121"></path>
        <g id="Icon" transform="translate(7.000000, 7.000000)" fill="#212121">
            <path d="M4.9782814,2.42506536 L5.00083333,2.44791667 L5.02351458,2.4260927 C5.54139231,1.93880648 6.25501725,1.70280138 6.97062565,1.79491543 L7.07284799,1.81031498 C7.95852922,1.96326644 8.6841019,2.5990616 8.95203821,3.45698673 C9.21997452,4.31491187 8.98519738,5.25063131 8.34397932,5.88044463 L8.325,5.89625 L5.21990254,8.97203406 C5.10918396,9.08168974 4.93694987,9.09165844 4.81504666,9.00194016 L4.78009746,8.97203406 L1.65706225,5.87896291 C1.01080919,5.25009567 0.772390996,4.31162808 1.04012564,3.45056178 C1.30786028,2.58949547 2.03639614,1.9516866 2.92530243,1.80015233 C3.6774539,1.67193103 4.43662083,1.9102488 4.9782814,2.42506536 Z M3.03033267,2.41626405 C2.37331498,2.52826764 1.83483195,2.99969159 1.63694113,3.6361319 C1.44847368,4.24226553 1.59933772,4.90029 2.02675833,5.36310914 L2.09490254,5.43296594 L5,8.31041667 L7.90509746,5.43296594 L7.91791667,5.42166667 L7.97167563,5.36654584 C8.39564865,4.90330312 8.54406492,4.24722634 8.35545551,3.64330389 C8.15741563,3.00918531 7.62112278,2.53924976 6.96648882,2.42619867 C6.31185487,2.31314759 5.64901416,2.57600046 5.24977068,3.10697204 C5.12432266,3.27381092 4.8737051,3.27311337 4.74918775,3.10557875 C4.35161038,2.57064952 3.68735036,2.30426046 3.03033267,2.41626405 Z" id="Icon-Color"></path>
        </g>
    </g>
</svg>