<?xml version="1.0" encoding="UTF-8"?>
<svg width="24px" height="24px" viewBox="0 0 24 24" version="1.1" xmlns="http://www.w3.org/2000/svg" xmlns:xlink="http://www.w3.org/1999/xlink">
    <title>Icon/package</title>
    <g id="Icon/package" stroke="none" stroke-width="1" fill="none" fill-rule="evenodd">
        <path d="M12.012431,2.24998188 L12.1083635,2.25783311 L12.2022224,2.27777699 L12.2927908,2.30947276 L12.3676959,2.34631835 L20.3676959,6.84631835 C20.4215759,6.87678314 20.4690348,6.91149961 20.5122521,6.95191275 C20.5180904,6.95761701 20.5240489,6.96337272 20.5299047,6.9692196 C20.5539608,6.9929885 20.5767373,7.01906665 20.5978202,7.04695997 L20.6474071,7.12136558 C20.6489084,7.12393254 20.6503944,7.12650841 20.6518651,7.12909307 C20.6524988,7.13020709 20.6530913,7.1312546 20.6536817,7.13230407 L20.6641678,7.15159999 C20.6758116,7.1737939 20.6863501,7.1965822 20.6957341,7.21988064 L20.6536817,7.13230407 C20.678679,7.17674372 20.6986591,7.22264206 20.7138051,7.26934538 C20.7189266,7.28555691 20.7238185,7.3026856 20.7281016,7.32000976 C20.7322198,7.33595024 20.7355645,7.35165447 20.7383922,7.36739734 C20.7400815,7.37783435 20.7417885,7.38867249 20.743259,7.39956686 L20.7460811,7.42157904 C20.7478331,7.43832665 20.7490129,7.45508708 20.7496283,7.47183199 L20.75,7.5 L20.75,16.5 C20.75,16.7370856 20.6381067,16.9580418 20.4519262,17.0985679 L20.3676959,17.1536817 L12.3676959,21.6536817 L12.2919338,21.6910613 C12.2857569,21.6936739 12.2795376,21.6962062 12.2732774,21.6986567 L12.3676959,21.6536817 C12.3307725,21.6744511 12.2925292,21.6918616 12.2533929,21.7059132 C12.2285211,21.7150818 12.2020079,21.7230215 12.1749242,21.7294921 C12.1630936,21.7321692 12.151073,21.7347419 12.1390093,21.7370159 C12.1186985,21.7409534 12.0979439,21.7439616 12.0769328,21.7461024 C12.0608774,21.7476941 12.0451474,21.748807 12.0294022,21.7494241 C12.0197772,21.7498078 12.0099111,21.75 12,21.75 L11.9715941,21.7494625 C11.9555162,21.7488537 11.9394535,21.747728 11.9234318,21.7460853 L12,21.75 C11.95245,21.75 11.9059335,21.745575 11.8608398,21.7371142 C11.848927,21.7347419 11.8369064,21.7321692 11.8249403,21.7292977 C11.7979921,21.7230215 11.7714789,21.7150818 11.745625,21.7057618 C11.7420412,21.7042738 11.7374874,21.7025888 11.7329465,21.700858 C11.7204624,21.6962062 11.7142431,21.6936739 11.7080662,21.6910613 L11.6323041,21.6536817 L3.63230407,17.1536817 C3.42566605,17.0374478 3.28794301,16.8315981 3.25674097,16.6004331 L3.25,16.5 L3.25,7.5 L3.25187093,7.44459626 C3.25280149,7.431916 3.25405779,7.41923564 3.25564327,7.40656748 L3.25,7.5 C3.25,7.45495723 3.25403872,7.41049663 3.26185828,7.36705916 C3.26524467,7.3471641 3.26971151,7.32708522 3.2750386,7.30711951 C3.27563436,7.30551407 3.2760771,7.30387287 3.27652533,7.30223355 L3.30239153,7.22436143 C3.30319897,7.2223254 3.30401595,7.22029135 3.30484248,7.21825934 C3.31382197,7.19633874 3.3235768,7.17519872 3.33428413,7.15456672 C3.33800069,7.14738829 3.34208766,7.13982529 3.34631835,7.13230407 C3.36578329,7.09807722 3.38563925,7.06832524 3.40756042,7.04008049 L3.34631835,7.13230407 C3.38033096,7.0718372 3.42147498,7.01790602 3.46810363,6.97097163 C3.47100069,6.96830239 3.47381714,6.96551462 3.476657,6.962748 C3.48883546,6.95058853 3.50237483,6.93829736 3.51629561,6.92655846 C3.52662835,6.91808229 3.53722498,6.90962064 3.54807384,6.90143209 C3.56913068,6.88564834 3.58374466,6.87567323 3.59866068,6.86624567 L3.63230407,6.84631835 L11.6323041,2.34631835 L11.7243614,2.30239153 L11.819213,2.27192034 L11.9156418,2.25456404 L12.012431,2.24998188 Z M4.75,8.78198188 L4.75,16.061 L11.25,19.7169819 L11.25,12.4379819 L4.75,8.78198188 Z M19.25,8.78098188 L12.75,12.4379819 L12.75,19.7169819 L19.25,16.061 L19.25,8.78098188 Z M16,6.10998188 L9.529,9.74998188 L11.999,11.1389819 L18.47,7.49898188 L16,6.10998188 Z M12,3.86 L5.529,7.49998188 L7.999,8.88898188 L14.47,5.24898188 L12,3.86 Z" id="Icon-Color" fill="#212121"></path>
    </g>
</svg>