<?xml version="1.0" encoding="UTF-8"?>
<svg width="24px" height="24px" viewBox="0 0 24 24" version="1.1" xmlns="http://www.w3.org/2000/svg" xmlns:xlink="http://www.w3.org/1999/xlink">
    <title>Icon/pacman</title>
    <g id="Icon/pacman" stroke="none" stroke-width="1" fill="none" fill-rule="evenodd">
        <path d="M5.10562417,5.10571566 C7.06759133,3.14340999 9.7727383,2.11004946 12.5433147,2.26453335 C15.313891,2.41901723 17.8873887,3.74670839 19.6190408,5.91496566 C19.8574106,6.21343609 19.8333807,6.6433756 19.5632357,6.91342448 L19.5632357,6.91342448 L14.475,12 L19.5632357,17.0865755 C19.8065188,17.329772 19.8501801,17.7026124 19.6824169,17.9923245 L19.6824169,17.9923245 L19.6186491,18.0855244 C17.3627491,20.9053683 13.7330358,22.2474003 10.1853228,21.5733553 C6.63760987,20.8993102 3.75300586,18.3195953 2.68847447,14.8688886 C1.62394307,11.4181819 2.55385246,7.66170245 5.10562417,5.10571566 Z M12.4598063,3.76220699 C10.1154724,3.63148986 7.82650189,4.50587184 6.16676758,6.16589223 C4.00790761,8.3283185 3.22106121,11.506878 4.12181854,14.4267068 C5.02257588,17.3465355 7.46339465,19.5293712 10.4653056,20.099717 C13.176709,20.6148681 15.9447179,19.7383079 17.8616284,17.8056463 L17.8616284,17.8056463 L18.007,17.652 L12.8837643,12.5304245 C12.6173833,12.2641383 12.5931669,11.8473525 12.811115,11.5537027 L12.811115,11.5537027 L12.8837643,11.4695755 L18.008,6.346 L17.8384563,6.17004288 C16.482197,4.81166879 14.6883911,3.96371811 12.7645984,3.78486367 L12.7645984,3.78486367 Z M11.5,5.75 C12.4664983,5.75 13.25,6.53350169 13.25,7.5 C13.25,8.46649831 12.4664983,9.25 11.5,9.25 C10.5335017,9.25 9.75,8.46649831 9.75,7.5 C9.75,6.53350169 10.5335017,5.75 11.5,5.75 Z M11.5,7.25 C11.3619288,7.25 11.25,7.36192881 11.25,7.5 C11.25,7.63807119 11.3619288,7.75 11.5,7.75 C11.6380712,7.75 11.75,7.63807119 11.75,7.5 C11.75,7.36192881 11.6380712,7.25 11.5,7.25 Z" id="Icon-Color" fill="#212121"></path>
    </g>
</svg>