<?xml version="1.0" encoding="UTF-8"?>
<svg width="24px" height="24px" viewBox="0 0 24 24" version="1.1" xmlns="http://www.w3.org/2000/svg" xmlns:xlink="http://www.w3.org/1999/xlink">
    <title>Icon/paint</title>
    <g id="Icon/paint" stroke="none" stroke-width="1" fill="none" fill-rule="evenodd">
        <path d="M17,2.25 C18.5187831,2.25 19.75,3.48121694 19.75,5 L19.75,5 L19.75,5.25 L20,5.25 C21.5187831,5.25 22.75,6.48121694 22.75,8 C22.75,11.1017853 20.2939828,13.629937 17.2205557,13.7458479 L17,13.75 L12.75,13.75 L12.75,14.25 L13,14.25 C13.9181734,14.25 14.6711923,14.9571103 14.7441988,15.8564728 L14.75,16 L14.75,20 C14.75,20.9664983 13.9664983,21.75 13,21.75 L13,21.75 L11,21.75 C10.0335017,21.75 9.25,20.9664983 9.25,20 L9.25,20 L9.25,16 C9.25,15.0335017 10.0335017,14.25 11,14.25 L11,14.25 L11.25,14.25 L11.25,13 C11.25,12.6203042 11.5321539,12.306509 11.8982294,12.2568466 L12,12.25 L17,12.25 C19.3472102,12.25 21.25,10.3472102 21.25,8 C21.25,7.35279131 20.7581253,6.8204661 20.1278052,6.75645361 L20,6.75 L19.75,6.75 L19.75,7 C19.75,8.46253184 18.6082954,9.65840428 17.1675223,9.74498121 L17,9.75 L7,9.75 C5.48121694,9.75 4.25,8.51878306 4.25,7 L4.25,7 L4.25,5 C4.25,3.48121694 5.48121694,2.25 7,2.25 L7,2.25 Z M13,15.75 L11,15.75 C10.8619288,15.75 10.75,15.8619288 10.75,16 L10.75,16 L10.75,20 C10.75,20.1380712 10.8619288,20.25 11,20.25 L11,20.25 L13,20.25 C13.1380712,20.25 13.25,20.1380712 13.25,20 L13.25,20 L13.25,16 C13.25,15.8619288 13.1380712,15.75 13,15.75 L13,15.75 Z M17,3.75 L7,3.75 C6.30964406,3.75 5.75,4.30964406 5.75,5 L5.75,5 L5.75,7 C5.75,7.69035594 6.30964406,8.25 7,8.25 L7,8.25 L17,8.25 C17.6903559,8.25 18.25,7.69035594 18.25,7 L18.25,7 L18.25,5 C18.25,4.30964406 17.6903559,3.75 17,3.75 L17,3.75 Z" id="Icon-Color" fill="#212121"></path>
    </g>
</svg>