<?xml version="1.0" encoding="UTF-8"?>
<svg width="24px" height="24px" viewBox="0 0 24 24" version="1.1" xmlns="http://www.w3.org/2000/svg" xmlns:xlink="http://www.w3.org/1999/xlink">
    <title>Icon/parachute</title>
    <g id="Icon/parachute" stroke="none" stroke-width="1" fill="none" fill-rule="evenodd">
        <path d="M11.5419931,22.5948855 L11.5200122,22.5767833 C11.5041376,22.5637706 11.4887684,22.5501385 11.4739558,22.5359192 L1.46966991,12.5303301 L1.40627192,12.4583026 C1.40455735,12.4560847 1.40285492,12.4538569 1.40116475,12.4516193 L1.46966991,12.5303301 C1.43436065,12.4950208 1.40330804,12.4570668 1.37651208,12.4171057 C1.36619091,12.4016065 1.35621789,12.3854566 1.34685504,12.3689158 C1.3387019,12.3546244 1.33105843,12.3399909 1.3239304,12.3251715 C1.315445,12.3075139 1.30744952,12.2890942 1.30018864,12.2703089 C1.29602848,12.2594565 1.29230301,12.2490913 1.28881291,12.2386647 C1.28157935,12.2172835 1.27517085,12.1948272 1.26980803,12.1719681 C1.26701468,12.1597261 1.26457582,12.1480328 1.26241813,12.136298 C1.25891107,12.1176674 1.25606315,12.0979156 1.25399994,12.077931 C1.25192429,12.0574681 1.25066463,12.0374655 1.25020172,12.017448 C1.25006606,12.0116044 1.25,12.0058099 1.25,12 C1.25,6.06293894 6.06293894,1.25 12,1.25 C17.841302,1.25 22.5944515,5.90893491 22.7462593,11.7136156 L22.75,12 L22.75,12 C22.75,12.0383922 22.7471153,12.0761107 22.7415508,12.1129505 C22.740307,12.1208108 22.7389606,12.1288312 22.7374834,12.1368323 C22.732213,12.1656974 22.7253223,12.1936731 22.7169138,12.2209837 C22.7132873,12.2326435 22.7092554,12.2446929 22.7049093,12.256654 C22.696425,12.2799516 22.6871231,12.3020202 22.6768269,12.3235218 C22.6713347,12.3351229 22.6650317,12.3474599 22.658365,12.359651 C22.6472619,12.3797798 22.6356595,12.3988485 22.6232565,12.4173348 C22.6169286,12.4268899 22.6100677,12.4366165 22.6029482,12.4462117 C22.5971451,12.4538569 22.5954427,12.4560847 22.5937281,12.4583026 L22.5303301,12.5303301 L12.5587833,22.5025458 C12.5322895,22.5312332 12.5036436,22.5578873 12.473198,22.5822865 L12.5303301,22.5303301 C12.3829417,22.6777185 12.2100161,22.7463304 12.0396742,22.753837 L11.9566223,22.7536642 C11.8146408,22.7466699 11.6710065,22.6971525 11.5419931,22.5948855 Z M12,9.75 C10.5067604,9.75 9.32632616,10.720272 9.25355772,11.88587 L12,19.731 L14.745,11.886 L14.7442563,11.8550417 C14.6528044,10.7032138 13.4800552,9.75 12,9.75 Z M5.25,9.75 C3.96351307,9.75 2.92764734,10.6117886 2.77061611,11.7096717 L10.206,19.145 L7.83116222,12.3635691 C7.79501189,12.2921966 7.76950659,12.2109375 7.75759549,12.1197917 L7.75274345,12.0661539 C7.7510693,12.0474003 7.7501149,12.028677 7.74986328,12.0100194 L7.75,12 C7.75,10.7711916 6.6417483,9.75 5.25,9.75 Z M18.75,9.75 C17.3520304,9.75 16.25,10.7676196 16.25,12 L16.2499953,12.0176225 C16.2497178,12.0293292 16.2491631,12.0410598 16.2483272,12.0528057 L16.25,12 C16.25,12.1410985 16.2201368,12.2622882 16.1688378,12.3635691 L13.793,19.145 L21.229287,11.7104808 C21.0714936,10.6148586 20.030795,9.75 18.75,9.75 Z M12,2.75 C8.05611653,2.75 4.68871451,5.21821054 3.3582155,8.69421007 C3.92198198,8.41016945 4.56662408,8.25 5.25,8.25 C6.55269466,8.25 7.71859566,8.83666599 8.45089472,9.74994943 L8.521,9.842 L8.55357863,9.8008921 C9.29094363,8.90317713 10.4671632,8.31144048 11.7899616,8.25451111 L12,8.25 C13.4078085,8.25 14.6702477,8.85592897 15.4464214,9.8008921 L15.477,9.84 L15.5470868,9.74874654 C16.2396179,8.88373519 17.3217851,8.31255731 18.5448873,8.25482948 L18.75,8.25 C19.4328384,8.25 20.0780917,8.41119128 20.6430131,8.69612138 C19.3125716,5.21915332 15.9446366,2.75 12,2.75 Z" id="Icon-Color" fill="#212121"></path>
    </g>
</svg>