<?xml version="1.0" encoding="UTF-8"?>
<svg width="24px" height="24px" viewBox="0 0 24 24" version="1.1" xmlns="http://www.w3.org/2000/svg" xmlns:xlink="http://www.w3.org/1999/xlink">
    <title>Icon/parentheses</title>
    <g id="Icon/parentheses" stroke="none" stroke-width="1" fill="none" fill-rule="evenodd">
        <path d="M7.48979592,3.43202116 C7.80348197,3.70252798 7.83848565,4.17610987 7.56797884,4.48979592 C3.84665726,8.8051277 3.84665726,15.1948723 7.56797884,19.5102041 C7.83848565,19.8238901 7.80348197,20.297472 7.48979592,20.5679788 C7.17610987,20.8384857 6.70252798,20.803482 6.43202116,20.4897959 C2.22530982,15.6115948 2.22530982,8.38840523 6.43202116,3.51020408 C6.70252798,3.19651803 7.17610987,3.16151435 7.48979592,3.43202116 Z M17.5679788,3.51020408 C21.7746902,8.38840523 21.7746902,15.6115948 17.5679788,20.4897959 C17.297472,20.803482 16.8238901,20.8384857 16.5102041,20.5679788 C16.196518,20.297472 16.1615143,19.8238901 16.4320212,19.5102041 C20.1533427,15.1948723 20.1533427,8.8051277 16.4320212,4.48979592 C16.1615143,4.17610987 16.196518,3.70252798 16.5102041,3.43202116 C16.8238901,3.16151435 17.297472,3.19651803 17.5679788,3.51020408 Z" id="Icon-Color" fill="#212121"></path>
    </g>
</svg>