<?xml version="1.0" encoding="UTF-8"?>
<svg width="24px" height="24px" viewBox="0 0 24 24" version="1.1" xmlns="http://www.w3.org/2000/svg" xmlns:xlink="http://www.w3.org/1999/xlink">
    <title>Icon/media/pause</title>
    <g id="Icon/media/pause" stroke="none" stroke-width="1" fill="none" fill-rule="evenodd">
        <path d="M9,4.25 C9.96649831,4.25 10.75,5.03350169 10.75,6 L10.75,6 L10.75,18 C10.75,18.9664983 9.96649831,19.75 9,19.75 L9,19.75 L7,19.75 C6.03350169,19.75 5.25,18.9664983 5.25,18 L5.25,18 L5.25,6 C5.25,5.03350169 6.03350169,4.25 7,4.25 L7,4.25 Z M17,4.25 C17.9664983,4.25 18.75,5.03350169 18.75,6 L18.75,6 L18.75,18 C18.75,18.9664983 17.9664983,19.75 17,19.75 L17,19.75 L15,19.75 C14.0335017,19.75 13.25,18.9664983 13.25,18 L13.25,18 L13.25,6 C13.25,5.03350169 14.0335017,4.25 15,4.25 L15,4.25 Z M9,5.75 L7,5.75 C6.86192881,5.75 6.75,5.86192881 6.75,6 L6.75,6 L6.75,18 C6.75,18.1380712 6.86192881,18.25 7,18.25 L7,18.25 L9,18.25 C9.13807119,18.25 9.25,18.1380712 9.25,18 L9.25,18 L9.25,6 C9.25,5.86192881 9.13807119,5.75 9,5.75 L9,5.75 Z M17,5.75 L15,5.75 C14.8619288,5.75 14.75,5.86192881 14.75,6 L14.75,6 L14.75,18 C14.75,18.1380712 14.8619288,18.25 15,18.25 L15,18.25 L17,18.25 C17.1380712,18.25 17.25,18.1380712 17.25,18 L17.25,18 L17.25,6 C17.25,5.86192881 17.1380712,5.75 17,5.75 L17,5.75 Z" id="Icon-Color" fill="#212121"></path>
    </g>
</svg>