<?xml version="1.0" encoding="UTF-8"?>
<svg width="24px" height="24px" viewBox="0 0 24 24" version="1.1" xmlns="http://www.w3.org/2000/svg" xmlns:xlink="http://www.w3.org/1999/xlink">
    <title>Icon/peace</title>
    <g id="Icon/peace" stroke="none" stroke-width="1" fill="none" fill-rule="evenodd">
        <path d="M12,2.25 C17.3847763,2.25 21.75,6.61522369 21.75,12 C21.75,17.3847763 17.3847763,21.75 12,21.75 C6.61522369,21.75 2.25,17.3847763 2.25,12 C2.25,6.61522369 6.61522369,2.25 12,2.25 Z M11.25,13.81 L6.72120391,18.3403658 C7.97164972,19.3825854 9.53520922,20.0618562 11.2500791,20.2163749 L11.25,13.81 Z M12.75,13.811 L12.7509182,20.2162849 C14.465397,20.0615929 16.0285927,19.3823834 17.2787961,18.3403658 L12.75,13.811 Z M12.7509182,3.78371505 L12.75,11.689 L18.3403658,17.2787961 C19.4825933,15.9083618 20.1888753,14.16184 20.2462179,12.252225 L20.25,12 C20.25,7.69678132 16.9553547,4.1630683 12.7509182,3.78371505 Z M11.2500791,3.78362513 C7.04516632,4.16250952 3.75,7.6964411 3.75,12 C3.75,14.0078905 4.46730178,15.8482463 5.6596342,17.2787961 L11.25,11.688 Z" id="Icon-Color" fill="#212121"></path>
    </g>
</svg>