<?xml version="1.0" encoding="UTF-8"?>
<svg width="24px" height="24px" viewBox="0 0 24 24" version="1.1" xmlns="http://www.w3.org/2000/svg" xmlns:xlink="http://www.w3.org/1999/xlink">
    <title>Icon/percentage</title>
    <g id="Icon/percentage" stroke="none" stroke-width="1" fill="none" fill-rule="evenodd">
        <path d="M17,15.25 C17.9664983,15.25 18.75,16.0335017 18.75,17 C18.75,17.9664983 17.9664983,18.75 17,18.75 C16.0335017,18.75 15.25,17.9664983 15.25,17 C15.25,16.0335017 16.0335017,15.25 17,15.25 Z M18.5303301,5.46966991 C18.7965966,5.73593648 18.8208027,6.15260016 18.6029482,6.44621165 L18.5303301,6.53033009 L6.53033009,18.5303301 C6.23743687,18.8232233 5.76256313,18.8232233 5.46966991,18.5303301 C5.20340335,18.2640635 5.1791973,17.8473998 5.39705176,17.5537883 L5.46966991,17.4696699 L17.4696699,5.46966991 C17.7625631,5.1767767 18.2374369,5.1767767 18.5303301,5.46966991 Z M17,16.75 C16.8619288,16.75 16.75,16.8619288 16.75,17 C16.75,17.1380712 16.8619288,17.25 17,17.25 C17.1380712,17.25 17.25,17.1380712 17.25,17 C17.25,16.8619288 17.1380712,16.75 17,16.75 Z M7,5.25 C7.96649831,5.25 8.75,6.03350169 8.75,7 C8.75,7.96649831 7.96649831,8.75 7,8.75 C6.03350169,8.75 5.25,7.96649831 5.25,7 C5.25,6.03350169 6.03350169,5.25 7,5.25 Z M7,6.75 C6.86192881,6.75 6.75,6.86192881 6.75,7 C6.75,7.13807119 6.86192881,7.25 7,7.25 C7.13807119,7.25 7.25,7.13807119 7.25,7 C7.25,6.86192881 7.13807119,6.75 7,6.75 Z" id="Icon-Color" fill="#212121"></path>
    </g>
</svg>