<?xml version="1.0" encoding="UTF-8"?>
<svg width="24px" height="24px" viewBox="0 0 24 24" version="1.1" xmlns="http://www.w3.org/2000/svg" xmlns:xlink="http://www.w3.org/1999/xlink">
    <title>Icon/phone-off</title>
    <g id="Icon/phone-off" stroke="none" stroke-width="1" fill="none" fill-rule="evenodd">
        <path d="M21.5303301,2.46966991 C21.7965966,2.73593648 21.8208027,3.15260016 21.6029482,3.44621165 L21.5303301,3.53033009 L11.6675231,13.3934525 C12.1132673,13.7779521 12.5914329,14.1236897 13.0969899,14.4267074 L13.225,14.5 L14.3568803,12.6141282 C14.5273345,12.3300379 14.8606712,12.195078 15.1747961,12.2705918 L15.278543,12.3036425 L20.278543,14.3036425 C20.5316486,14.4048847 20.7072979,14.6340353 20.7432063,14.8990979 L20.75,15 L20.75,19 C20.75,20.5187831 19.5187831,21.75 17.9551969,21.7486617 C14.1207249,21.519189 10.4903766,19.9766327 7.66827704,17.3929768 L3.53033009,21.5303301 C3.23743687,21.8232233 2.76256313,21.8232233 2.46966991,21.5303301 C2.20340335,21.2640635 2.1791973,20.8473998 2.39705176,20.5537883 L2.46966991,20.4696699 L20.4696699,2.46966991 C20.7625631,2.1767767 21.2374369,2.1767767 21.5303301,2.46966991 Z M15.314,13.933 L14.1431197,15.8858718 C13.9605174,16.1902089 13.5934292,16.3209255 13.265166,16.2123642 L13.1680752,16.1725518 C12.239856,15.7144473 11.3785179,15.1371544 10.6046411,14.4568834 L8.73048974,16.3315744 C11.2920157,18.6562523 14.5737748,20.0437082 18,20.25 C18.6472087,20.25 19.1795339,19.7581253 19.2435464,19.1278052 L19.25,19 L19.25,15.508 L15.314,13.933 Z M9,3.25 C9.27260306,3.25 9.52079377,3.39752649 9.65257566,3.63029481 L9.69635752,3.72145699 L11.6963575,8.72145699 C11.8194005,9.02906449 11.725154,9.3761165 11.4749611,9.58051873 L11.3858718,9.64311969 L9.497,10.776 L9.53870792,10.859687 C9.66684472,11.1701261 9.57139031,11.5302495 9.30630965,11.7364623 L9.22175063,11.7935052 C8.86359111,12.0015788 8.40456845,11.8799101 8.19649482,11.5217506 C8.06568962,11.2965941 7.94243868,11.0661685 7.82674929,10.8305049 C7.67059126,10.5124052 7.75962079,10.1337638 8.02822522,9.91687279 L8.11412818,9.85688031 L10.066,8.685 L8.491,4.749 L5,4.75 C4.35279131,4.75 3.8204661,5.24187466 3.75535545,5.83536974 L3.74866724,5.95530806 C3.91529035,8.74653349 4.84882791,11.4376674 6.44651472,13.7324657 C6.68318767,14.0724051 6.59947367,14.5398418 6.25953428,14.7765147 C5.91959488,15.0131877 5.45215822,14.9294737 5.21548528,14.5895343 C3.4600905,12.068216 2.43440327,9.11143974 2.25,6 C2.25,4.53746816 3.3917046,3.34159572 4.83247767,3.25501879 L5,3.25 L9,3.25 Z" id="Icon-Color" fill="#212121"></path>
    </g>
</svg>