<?xml version="1.0" encoding="UTF-8"?>
<svg width="24px" height="24px" viewBox="0 0 24 24" version="1.1" xmlns="http://www.w3.org/2000/svg" xmlns:xlink="http://www.w3.org/1999/xlink">
    <title>Icon/pinned-off</title>
    <g id="Icon/pinned-off" stroke="none" stroke-width="1" fill="none" fill-rule="evenodd">
        <path d="M3.44621165,2.39705176 L3.53033009,2.46966991 L15.304873,14.2415451 C15.3357227,14.2676768 15.3641901,14.2961078 15.39011,14.3264738 L21.5303301,20.4696699 C21.8232233,20.7625631 21.8232233,21.2374369 21.5303301,21.5303301 C21.2640635,21.7965966 20.8473998,21.8208027 20.5537883,21.6029482 L20.4696699,21.5303301 L15.111,16.172 L14.7022205,17.263413 C14.6771581,17.3302256 14.6427552,17.3929458 14.6001789,17.4497615 L14.5303301,17.5303301 L13.0303301,19.0303301 C12.7640635,19.2965966 12.3473998,19.3208027 12.0537883,19.1029482 L11.9696699,19.0303301 L9,16.061 L5.03033009,20.0303301 C4.73743687,20.3232233 4.26256313,20.3232233 3.96966991,20.0303301 C3.70340335,19.7640635 3.6791973,19.3473998 3.89705176,19.0537883 L3.96966991,18.9696699 L7.939,15 L4.96966991,12.0303301 C4.70340335,11.7640635 4.6791973,11.3473998 4.89705176,11.0537883 L4.96966991,10.9696699 L6.46966991,9.46966991 C6.52013398,9.41920585 6.57741025,9.3763336 6.63968585,9.34222057 L6.73662213,9.29776635 L7.827,8.888 L2.46966991,3.53033009 C2.1767767,3.23743687 2.1767767,2.76256313 2.46966991,2.46966991 C2.73593648,2.20340335 3.15260016,2.1791973 3.44621165,2.39705176 Z M8.992,10.053 L7.415,10.645 L6.561,11.5 L9.52364225,14.4630637 C9.52588187,14.4652489 9.5281112,14.467451 9.53033009,14.4696699 L9.536,14.476 L12.5,17.439 L13.354,16.584 L13.946,15.007 L8.992,10.053 Z M14.9462117,3.39705176 L15.0303301,3.46966991 L20.5303301,8.96966991 C20.8232233,9.26256313 20.8232233,9.73743687 20.5303301,10.0303301 C20.2640635,10.2965966 19.8473998,10.3208027 19.5537883,10.1029482 L19.502,10.058 L16.7804117,12.7812485 C16.4875635,13.0741868 16.0126898,13.0742598 15.7197515,12.7814117 C15.453444,12.5151861 15.4291738,12.0985261 15.6469831,11.8048811 L15.7195883,11.7207515 L18.439,9 L15,5.561 L12.2813301,8.27933009 C11.9884369,8.5722233 11.5135631,8.5722233 11.2206699,8.27933009 C10.9544034,8.01306352 10.9301973,7.59639984 11.1480518,7.30278835 L11.2206699,7.21866991 L13.941,4.497 L13.8970518,4.44621165 C13.6791973,4.15260016 13.7034034,3.73593648 13.9696699,3.46966991 C14.2359365,3.20340335 14.6526002,3.1791973 14.9462117,3.39705176 Z" id="Icon-Color" fill="#212121"></path>
    </g>
</svg>