<?xml version="1.0" encoding="UTF-8"?>
<svg width="24px" height="24px" viewBox="0 0 24 24" version="1.1" xmlns="http://www.w3.org/2000/svg" xmlns:xlink="http://www.w3.org/1999/xlink">
    <title>Icon/brand/pinterest</title>
    <g id="Icon/brand/pinterest" stroke="none" stroke-width="1" fill="none" fill-rule="evenodd">
        <path d="M12,2.25 C17.3847763,2.25 21.75,6.61522369 21.75,12 C21.75,17.3847763 17.3847763,21.75 12,21.75 C6.61522369,21.75 2.25,17.3847763 2.25,12 C2.25,6.61522369 6.61522369,2.25 12,2.25 Z M12,3.75 C7.44365081,3.75 3.75,7.44365081 3.75,12 C3.75,14.949354 5.29766027,17.5372325 7.62515578,18.9958106 L11.3146413,10.6953962 C11.4828694,10.316883 11.9260907,10.1464133 12.3046038,10.3146413 C12.6515742,10.4688504 12.8237304,10.8541302 12.7204351,11.2088241 L12.6853587,11.3046038 L11.4967462,13.9795076 C11.8535481,14.7908231 12.5085041,15.25 13.25,15.25 C14.9829056,15.25 16.2500035,13.9537295 16.250004,11.9991219 C16.2519904,10.3024938 15.2447076,8.76722853 13.6875651,8.09354299 C12.1304222,7.41985729 10.3217817,7.73683553 9.08654476,8.89990738 C7.85130786,10.0629792 7.42615764,11.8492892 8.00500052,13.4441206 C8.14631881,13.8334816 7.94524044,14.2636822 7.55587941,14.4050005 C7.16651838,14.5463188 6.73631778,14.3452404 6.59499948,13.9558794 C5.81185913,11.7981663 6.38706237,9.38139404 8.05826523,7.80782625 C9.72946809,6.23425845 12.1764524,5.80540553 14.2831751,6.71686266 C16.3898968,7.62831936 17.7526905,9.70544178 17.7500074,12 C17.7500074,14.774611 15.8190707,16.75 13.25,16.75 C12.2829108,16.75 11.4087265,16.3307839 10.7723555,15.6078909 L8.96532159,19.6739556 C9.90461828,20.045711 10.928452,20.25 12,20.25 C16.5563492,20.25 20.25,16.5563492 20.25,12 C20.25,7.44365081 16.5563492,3.75 12,3.75 Z" id="Icon-Color" fill="#212121"></path>
    </g>
</svg>