<?xml version="1.0" encoding="UTF-8"?>
<svg width="24px" height="24px" viewBox="0 0 24 24" version="1.1" xmlns="http://www.w3.org/2000/svg" xmlns:xlink="http://www.w3.org/1999/xlink">
    <title>Icon/pizza</title>
    <g id="Icon/pizza" stroke="none" stroke-width="1" fill="none" fill-rule="evenodd">
        <path d="M11.3331252,2.65681202 C11.612264,2.11439599 12.387736,2.11439599 12.6668748,2.65681202 L12.6668748,2.65681202 L19.1654829,15.2826808 C19.30812,15.3530898 19.4295807,15.4692486 19.5054598,15.6228889 C19.5772674,15.7682852 19.5976082,15.9256934 19.5734897,16.0744297 L21.1668748,19.173812 C21.3584841,19.5461427 21.2080985,20.0032517 20.832855,20.1890919 C18.086884,21.54904 15.063214,22.2544498 12,22.2500409 C8.89831529,22.2500409 5.86659739,21.533523 3.16564414,20.1883465 C2.79140431,20.001961 2.64181622,19.5455591 2.83312519,19.173812 L2.83312519,19.173812 L4.47815708,15.9755803 C4.42770674,15.7968019 4.44318168,15.5990937 4.5367535,15.4218513 C4.62765017,15.2496762 4.77606306,15.1274594 4.94587989,15.0663582 Z M5.71100931,16.8567536 L4.522,19.168 L4.72692713,19.2597911 C6.83771027,20.1693333 9.13887826,20.6792186 11.4953328,20.7431614 L11.4953328,20.7431614 L12.0010844,20.7500401 C14.5004617,20.7536346 16.970598,20.2463864 19.2609497,19.2633946 L19.2609497,19.2633946 L19.476,19.167 L18.3604542,16.9970045 C16.4134823,17.8254898 14.3162609,18.2529238 12.1960251,18.2500282 C9.95610331,18.2530769 7.74530282,17.7765198 5.71100931,16.8567536 Z M12,4.638 L6.39911761,15.5214447 C8.21957586,16.3326624 10.1941991,16.7527486 12.196028,16.7500149 C14.0784572,16.752595 15.939485,16.3807444 17.6717135,15.6594581 L12,4.638 Z M11,13.24 C11.3796958,13.24 11.693491,13.5221539 11.7431534,13.8882294 L11.75,14 C11.75,14.4142136 11.4142136,14.75 11,14.75 C10.6203042,14.75 10.306509,14.4678461 10.2568466,14.1017706 L10.25,13.99 C10.25,13.5757864 10.5857864,13.24 11,13.24 Z M13,10.25 C13.3796958,10.25 13.693491,10.5321539 13.7431534,10.8982294 L13.75,11.01 C13.75,11.4242136 13.4142136,11.76 13,11.76 C12.6203042,11.76 12.306509,11.4778461 12.2568466,11.1117706 L12.25,11 C12.25,10.5857864 12.5857864,10.25 13,10.25 Z" id="Icon-Color" fill="#212121"></path>
    </g>
</svg>