<?xml version="1.0" encoding="UTF-8"?>
<svg width="24px" height="24px" viewBox="0 0 24 24" version="1.1" xmlns="http://www.w3.org/2000/svg" xmlns:xlink="http://www.w3.org/1999/xlink">
    <title>Icon/planet</title>
    <g id="Icon/planet" stroke="none" stroke-width="1" fill="none" fill-rule="evenodd">
        <path d="M12,4.25 C16.2802068,4.25 19.75,7.71979319 19.75,12 C19.75,12.4513191 19.7114218,12.8936277 19.6373833,13.3238083 C22.0544907,15.641784 23.2193592,17.5456294 22.5760525,18.8208898 C21.9928603,19.9637899 20.2029315,19.9779393 17.7578209,19.1515134 L17.2765406,18.9811411 C16.9191122,18.8490953 16.5492915,18.7006093 16.1686384,18.5364981 C14.9646026,19.304101 13.5343739,19.75 12,19.75 C7.71979319,19.75 4.25,16.2802068 4.25,12 C4.25,11.5521687 4.2879842,11.1132091 4.36090659,10.6861672 L4.61049942,10.9239381 C3.96566261,10.3177779 3.39945698,9.72650306 2.92497334,9.16118069 L2.62238301,8.78826536 C1.4675247,7.31295485 0.985598239,6.03968349 1.42484369,5.17831371 C2.03536943,3.98094642 3.93640751,4.05808087 6.54747118,4.98286238 L7.07897892,5.17899416 L7.6283887,5.39697102 L7.81622249,5.47518453 C9.02302767,4.69976445 10.4589898,4.25 12,4.25 Z M19.1619277,14.9684784 L19.1409666,15.0166497 C18.7540973,15.9313114 18.196627,16.7562457 17.5084459,17.4515625 L17.6663395,17.5158703 C17.7398156,17.5450154 17.8124663,17.5734149 17.8842622,17.6010636 L18.3045483,17.7579026 L18.7029217,17.8964674 L19.0779824,18.0165049 C19.138472,18.0349531 19.1979319,18.0526189 19.256333,18.0694968 L19.5937995,18.161269 L19.9044531,18.2338812 L20.1868938,18.2870806 C20.7672733,18.3811324 21.1391277,18.3367032 21.2383743,18.142211 C21.3491491,17.9226134 21.1224147,17.3806153 20.5869753,16.6373112 L20.3564036,16.3295403 L20.0933129,16.002019 L19.7981131,15.6564696 L19.4712137,15.2946142 C19.3720364,15.1876727 19.2689261,15.0788981 19.1619277,14.9684784 Z M5.75022097,11.942 L5.75,12 C5.75,15.4517797 8.54822031,18.25 12,18.25 C12.8800015,18.25 13.7175247,18.0681294 14.477033,17.739925 L14.0950122,17.5440663 L13.810757,17.3940956 L13.810757,17.3940956 L13.2350845,17.0810795 C13.0416762,16.973874 12.8467998,16.8638276 12.6506034,16.7510175 L12.0582022,16.4043741 L11.4587696,16.0416135 C11.3583276,15.979836 11.2576297,15.9174064 11.1566943,15.8543343 L10.548381,15.4682684 L9.93066063,15.0640838 L9.31836835,14.6509896 C9.21759074,14.5819413 9.11746066,14.5128036 9.01799607,14.4435916 L8.42933795,14.0275491 C8.23587629,13.888652 8.04522021,13.7495791 7.85751338,13.6104519 L7.30338431,13.1930288 L6.76781266,12.7760084 L6.2516604,12.3601194 L5.75578946,11.9460905 L5.75022097,11.942 Z M12,5.75 C9.184992,5.75 6.80465252,7.61103711 6.02221888,10.169874 C7.42531061,11.4395453 9.16293581,12.7707821 11.0635297,14.0143334 L11.6412729,14.385711 L12.2153045,14.7421038 L12.7842244,15.0832588 C12.8785406,15.1388341 12.9725855,15.193764 13.0663299,15.2480431 L13.624957,15.5658671 L14.1749723,15.8678207 L14.7149756,16.1536508 L15.2435668,16.4231046 L16.0089694,16.7950543 C17.0197494,15.9490748 17.7590379,14.7894454 18.0771474,13.4658536 C18.0812967,13.4226851 18.0915695,13.380388 18.1055675,13.3390379 C18.2003302,12.9081666 18.25,12.4598838 18.25,12 C18.25,8.54822031 15.4517797,5.75 12,5.75 Z M2.76114327,5.85971185 C2.65449332,6.06885471 2.91456395,6.68618757 3.54642804,7.53671769 L3.8008148,7.86625582 C3.936732,8.03614867 4.08574235,8.21347084 4.2478793,8.39706883 L4.58966524,8.77229077 L4.83898385,9.03120135 C5.22419219,8.10308875 5.78457708,7.26602631 6.47888505,6.56126753 C6.35124251,6.51429126 6.22611992,6.46929199 6.10327201,6.42643728 L5.64616571,6.27333035 L5.21352121,6.14066347 C5.14358578,6.12023584 5.07476972,6.10064501 5.00712309,6.08188356 L4.615677,5.97920784 C4.55290835,5.96373415 4.49140925,5.94907496 4.43122978,5.93522285 L4.08638892,5.8617356 L3.77562201,5.80726139 L3.50133207,5.77144348 C3.07591468,5.72709566 2.81249734,5.7589959 2.76114327,5.85971185 Z" id="Icon-Color" fill="#212121"></path>
    </g>
</svg>