<?xml version="1.0" encoding="UTF-8"?>
<svg width="24px" height="24px" viewBox="0 0 24 24" version="1.1" xmlns="http://www.w3.org/2000/svg" xmlns:xlink="http://www.w3.org/1999/xlink">
    <title>Icon/plant</title>
    <g id="Icon/plant" stroke="none" stroke-width="1" fill="none" fill-rule="evenodd">
        <path d="M6,2.25 C9.07254759,2.25 11.6656131,4.30290687 12.4823822,7.11190635 C13.6608524,5.44102376 15.5803211,4.329391 17.7630284,4.25408192 L18,4.25 L21,4.25 C21.3796958,4.25 21.693491,4.53215388 21.7431534,4.89822944 L21.75,5 L21.75,6 C21.75,9.64860457 18.855153,12.6210814 15.2369716,12.7459181 L15,12.75 L12.75,12.75 L12.75,14.25 L17,14.25 C17.3796958,14.25 17.693491,14.5321539 17.7431534,14.8982294 L17.75,15 L17.75,19 C17.75,20.5187831 16.5187831,21.75 15,21.75 L15,21.75 L9,21.75 C7.48121694,21.75 6.25,20.5187831 6.25,19 L6.25,19 L6.25,15 C6.25,14.5857864 6.58578644,14.25 7,14.25 L7,14.25 L11.25,14.25 L11.25,11.75 L9,11.75 C5.35139543,11.75 2.37891859,8.85515305 2.25408192,5.23697157 L2.25,5 L2.25,3 C2.25,2.62030423 2.53215388,2.30650904 2.89822944,2.25684662 L3,2.25 L6,2.25 Z M16.25,15.75 L7.75,15.75 L7.75,19 C7.75,19.6472087 8.24187466,20.1795339 8.87219476,20.2435464 L8.87219476,20.2435464 L9,20.25 L15,20.25 C15.6903559,20.25 16.25,19.6903559 16.25,19 L16.25,19 L16.25,15.75 Z M20.25,5.75 L18,5.75 C15.1729924,5.75 12.8678684,7.98444888 12.754379,10.7835954 L12.75,11 L12.75,11 L12.75,11.25 L15,11.25 C17.8270076,11.25 20.1321316,9.01555112 20.245621,6.21640462 L20.25,6 L20.25,5.75 Z M11.25,8.996 C11.25,6.17299244 9.01555112,3.86786837 6.21640462,3.75437905 L6,3.75 L3.75,3.75 L3.75,5 C3.75,7.82700756 5.98444888,10.1321316 8.78359538,10.245621 L9,10.25 L11.25,10.25 L11.25,8.996 Z" id="Icon-Color" fill="#212121"></path>
    </g>
</svg>