<?xml version="1.0" encoding="UTF-8"?>
<svg width="24px" height="24px" viewBox="0 0 24 24" version="1.1" xmlns="http://www.w3.org/2000/svg" xmlns:xlink="http://www.w3.org/1999/xlink">
    <title>Icon/plane-departure</title>
    <g id="Icon/plane-departure" stroke="none" stroke-width="1" fill="none" fill-rule="evenodd">
        <path d="M21,20.25 C21.4142136,20.25 21.75,20.5857864 21.75,21 C21.75,21.3796958 21.4678461,21.693491 21.1017706,21.7431534 L21,21.75 L3,21.75 C2.58578644,21.75 2.25,21.4142136 2.25,21 C2.25,20.6203042 2.53215388,20.306509 2.89822944,20.2568466 L3,20.25 L21,20.25 Z M8.76939104,3.80684284 C9.02936287,3.7371836 9.30672823,3.81216566 9.49619153,4.00332375 L9.49619153,4.00332375 L14.8650034,9.42026972 L19.2744568,8.23895222 C20.6871541,7.86042113 22.137773,8.65370852 22.5942994,10.0229807 L22.5942994,10.0229807 L22.6425052,10.1834959 C23.0355952,11.6505277 22.1649933,13.1584543 20.6979615,13.5515443 L20.6979615,13.5515443 L6.20907415,17.4338299 C5.93467486,17.507355 5.64228558,17.4195368 5.45380767,17.206988 L5.45380767,17.206988 L1.00311592,12.1878902 C0.633207194,11.7707398 0.831614912,11.1101444 1.37015383,10.9658434 L1.37015383,10.9658434 L4.26793131,10.1893862 C4.4600659,10.1379039 4.66478243,10.1648554 4.83704559,10.2643116 L4.83704559,10.2643116 L7.01782198,11.5229156 L8.65410033,11.0844762 L5.42248453,5.69341005 C5.18333826,5.29454326 5.36256905,4.78554181 5.77884859,4.61459402 L5.77884859,4.61459402 L5.87161356,4.58329998 Z M8.73647395,5.36838525 L7.2199704,5.77473115 L10.4525561,11.1659213 C10.6917024,11.5647881 10.5124716,12.0737896 10.0961921,12.2447374 L10.0961921,12.2447374 L10.0034271,12.2760314 L7.10564962,13.0524885 C6.91351503,13.1039709 6.7087985,13.0770194 6.53653534,12.9775632 L6.53653534,12.9775632 L4.35575494,11.7185763 L2.93004842,12.1005932 L6.26806724,15.8649165 L20.309733,12.1026555 C20.9348886,11.9351456 21.3217687,11.3222552 21.2204612,10.6968451 L21.2204612,10.6968451 L21.1936165,10.5717244 C21.0149392,9.90489181 20.329518,9.50916369 19.6626854,9.68784096 L19.6626854,9.68784096 L14.8330562,10.9819362 C14.5730844,11.0515954 14.295719,10.9766134 14.1062557,10.7854553 L14.1062557,10.7854553 L8.73647395,5.36838525 Z" id="Icon-Color" fill="#212121"></path>
    </g>
</svg>