<?xml version="1.0" encoding="UTF-8"?>
<svg width="24px" height="24px" viewBox="0 0 24 24" version="1.1" xmlns="http://www.w3.org/2000/svg" xmlns:xlink="http://www.w3.org/1999/xlink">
    <title>Icon/playlist</title>
    <g id="Icon/playlist" stroke="none" stroke-width="1" fill="none" fill-rule="evenodd">
        <path d="M21,3.25 C21.4142136,3.25 21.75,3.58578644 21.75,4 C21.75,4.37969577 21.4678461,4.69349096 21.1017706,4.74315338 L21,4.75 L17.75,4.75 L17.75,17 C17.75,19.0710678 16.0710678,20.75 14,20.75 C11.9289322,20.75 10.25,19.0710678 10.25,17 C10.25,14.9289322 11.9289322,13.25 14,13.25 C14.8447482,13.25 15.6242581,13.5293181 16.2512108,14.0006352 L16.25,4 C16.25,3.62030423 16.5321539,3.30650904 16.8982294,3.25684662 L17,3.25 L21,3.25 Z M14,14.75 C12.7573593,14.75 11.75,15.7573593 11.75,17 C11.75,18.2426407 12.7573593,19.25 14,19.25 C15.2426407,19.25 16.25,18.2426407 16.25,17 C16.25,15.7573593 15.2426407,14.75 14,14.75 Z M9,12.25 C9.41421356,12.25 9.75,12.5857864 9.75,13 C9.75,13.3796958 9.46784612,13.693491 9.10177056,13.7431534 L9,13.75 L3,13.75 C2.58578644,13.75 2.25,13.4142136 2.25,13 C2.25,12.6203042 2.53215388,12.306509 2.89822944,12.2568466 L3,12.25 L9,12.25 Z M13,8.25 C13.4142136,8.25 13.75,8.58578644 13.75,9 C13.75,9.37969577 13.4678461,9.69349096 13.1017706,9.74315338 L13,9.75 L3,9.75 C2.58578644,9.75 2.25,9.41421356 2.25,9 C2.25,8.62030423 2.53215388,8.30650904 2.89822944,8.25684662 L3,8.25 L13,8.25 Z M13,4.25 C13.4142136,4.25 13.75,4.58578644 13.75,5 C13.75,5.37969577 13.4678461,5.69349096 13.1017706,5.74315338 L13,5.75 L3,5.75 C2.58578644,5.75 2.25,5.41421356 2.25,5 C2.25,4.62030423 2.53215388,4.30650904 2.89822944,4.25684662 L3,4.25 L13,4.25 Z" id="Icon-Color" fill="#212121"></path>
    </g>
</svg>