<?xml version="1.0" encoding="UTF-8"?>
<svg width="24px" height="24px" viewBox="0 0 24 24" version="1.1" xmlns="http://www.w3.org/2000/svg" xmlns:xlink="http://www.w3.org/1999/xlink">
    <title>Icon/plug</title>
    <g id="Icon/plug" stroke="none" stroke-width="1" fill="none" fill-rule="evenodd">
        <path d="M15,2.25 C15.3796958,2.25 15.693491,2.53215388 15.7431534,2.89822944 L15.75,3 L15.75,6.25 L17,6.25 C17.3796958,6.25 17.693491,6.53215388 17.7431534,6.89822944 L17.75,7 L17.75,13 C17.75,15.0042592 16.1776389,16.6412737 14.1991586,16.744802 L14,16.75 L12.75,16.75 L12.75,18 C12.75,18.6472087 13.2418747,19.1795339 13.8721948,19.2435464 L14,19.25 L17,19.25 C17.4142136,19.25 17.75,19.5857864 17.75,20 C17.75,20.3796958 17.4678461,20.693491 17.1017706,20.7431534 L17,20.75 L14,20.75 C12.5374682,20.75 11.3415957,19.6082954 11.2550188,18.1675223 L11.25,18 L11.25,16.75 L10,16.75 C7.99574083,16.75 6.35872626,15.1776389 6.25519801,13.1991586 L6.25,13 L6.25,7 C6.25,6.62030423 6.53215388,6.30650904 6.89822944,6.25684662 L7,6.25 L8.25,6.25 L8.25,3 C8.25,2.58578644 8.58578644,2.25 9,2.25 C9.37969577,2.25 9.69349096,2.53215388 9.74315338,2.89822944 L9.75,3 L9.75,6.25 L14.25,6.25 L14.25,3 C14.25,2.58578644 14.5857864,2.25 15,2.25 Z M16.25,7.75 L7.749,7.75 L7.75,13 C7.75,14.190864 8.67516159,15.1656449 9.84595119,15.2448092 L10,15.25 L14,15.25 C15.190864,15.25 16.1656449,14.3248384 16.2448092,13.1540488 L16.25,13 L16.25,7.75 Z" id="Icon-Color" fill="#212121"></path>
    </g>
</svg>