<?xml version="1.0" encoding="UTF-8"?>
<svg width="24px" height="24px" viewBox="0 0 24 24" version="1.1" xmlns="http://www.w3.org/2000/svg" xmlns:xlink="http://www.w3.org/1999/xlink">
    <title>Icon/pokeball</title>
    <g id="Icon/pokeball" stroke="none" stroke-width="1" fill="none" fill-rule="evenodd">
        <path d="M12,2.25 C17.3847763,2.25 21.75,6.61522369 21.75,12 C21.75,17.3847763 17.3847763,21.75 12,21.75 C6.61522369,21.75 2.25,17.3847763 2.25,12 C2.25,6.61522369 6.61522369,2.25 12,2.25 Z M15.6748783,12.7505323 C15.3272199,14.4619473 13.8140304,15.75 12,15.75 C10.1859696,15.75 8.67278009,14.4619473 8.32512168,12.7505323 L3.78371505,12.7509182 C4.1630683,16.9553547 7.69678132,20.25 12,20.25 C16.3032187,20.25 19.8369317,16.9553547 20.2162849,12.7509182 Z M12,9.75 C10.7573593,9.75 9.75,10.7573593 9.75,12 C9.75,13.2426407 10.7573593,14.25 12,14.25 C13.2426407,14.25 14.25,13.2426407 14.25,12 C14.25,10.7573593 13.2426407,9.75 12,9.75 Z M12,3.75 C7.6964411,3.75 4.16250952,7.04516632 3.78362513,11.2500791 L8.32491964,11.2504629 C8.67219348,9.53855206 10.185618,8.25 12,8.25 C13.814382,8.25 15.3278065,9.53855206 15.6750804,11.2504629 L20.2163749,11.2500791 C19.8374905,7.04516632 16.3035589,3.75 12,3.75 Z" id="Icon-Color" fill="#212121"></path>
    </g>
</svg>