<?xml version="1.0" encoding="UTF-8"?>
<svg width="24px" height="24px" viewBox="0 0 24 24" version="1.1" xmlns="http://www.w3.org/2000/svg" xmlns:xlink="http://www.w3.org/1999/xlink">
    <title>Icon/power</title>
    <g id="Icon/power" stroke="none" stroke-width="1" fill="none" fill-rule="evenodd">
        <path d="M17.483871,5.4269652 C20.2104122,7.7292584 21.2085859,11.4894716 19.9828677,14.8409184 C18.7571495,18.1923653 15.5685545,20.4213596 12,20.4213596 C8.43144554,20.4213596 5.24285051,18.1923653 4.01713232,14.8409184 C2.79141413,11.4894716 3.78958783,7.7292584 6.51612903,5.4269652 C6.83260742,5.15973064 7.30580025,5.19965065 7.5730348,5.51612903 C7.84026936,5.83260742 7.80034935,6.30580025 7.48387097,6.5730348 C5.23848409,8.46904097 4.4164587,11.5656871 5.42587368,14.3257022 C6.43528865,17.0857172 9.06119045,18.9213596 12,18.9213596 C14.9388096,18.9213596 17.5647113,17.0857172 18.5741263,14.3257022 C19.5835413,11.5656871 18.7615159,8.46904097 16.516129,6.5730348 C16.1996506,6.30580025 16.1597306,5.83260742 16.4269652,5.51612903 C16.6941998,5.19965065 17.1673926,5.15973064 17.483871,5.4269652 Z M12,3.25 C12.3796958,3.25 12.693491,3.53215388 12.7431534,3.89822944 L12.75,4 L12.75,12 C12.75,12.4142136 12.4142136,12.75 12,12.75 C11.6203042,12.75 11.306509,12.4678461 11.2568466,12.1017706 L11.25,12 L11.25,4 C11.25,3.58578644 11.5857864,3.25 12,3.25 Z" id="Icon-Color" fill="#212121"></path>
    </g>
</svg>