<?xml version="1.0" encoding="UTF-8"?>
<svg width="24px" height="24px" viewBox="0 0 24 24" version="1.1" xmlns="http://www.w3.org/2000/svg" xmlns:xlink="http://www.w3.org/1999/xlink">
    <title>Icon/pray</title>
    <g id="Icon/pray" stroke="none" stroke-width="1" fill="none" fill-rule="evenodd">
        <path d="M11.3607429,8.3419793 L11.45,8.4 L14.929,11.009 L16.4696699,9.46966991 C16.7359365,9.20340335 17.1526002,9.1791973 17.4462117,9.39705176 L17.5303301,9.46966991 C17.7965966,9.73593648 17.8208027,10.1526002 17.6029482,10.4462117 L17.5303301,10.5303301 L15.5303301,12.5303301 C15.292803,12.7678572 14.9306154,12.8156617 14.6428809,12.6595931 L14.55,12.6 L11.75,10.5 L11.75,15.689 L15.5303301,19.4696699 C15.9779367,19.9172765 15.7011666,20.6658915 15.1026609,20.7434532 L15,20.75 L7,20.75 C6.58578644,20.75 6.25,20.4142136 6.25,20 C6.25,19.6203042 6.53215388,19.306509 6.89822944,19.2568466 L7,19.25 L13.189,19.25 L10.4696699,16.5303301 C10.3571481,16.4178083 10.2840724,16.273214 10.2593431,16.1180341 L10.25,16 L10.25,9 C10.25,8.41832095 10.8750057,8.0716017 11.3607429,8.3419793 Z M12,3.25 C12.9664983,3.25 13.75,4.03350169 13.75,5 C13.75,5.96649831 12.9664983,6.75 12,6.75 C11.0335017,6.75 10.25,5.96649831 10.25,5 C10.25,4.03350169 11.0335017,3.25 12,3.25 Z M12,4.75 C11.8619288,4.75 11.75,4.86192881 11.75,5 C11.75,5.13807119 11.8619288,5.25 12,5.25 C12.1380712,5.25 12.25,5.13807119 12.25,5 C12.25,4.86192881 12.1380712,4.75 12,4.75 Z" id="Icon-Color" fill="#212121"></path>
    </g>
</svg>