<?xml version="1.0" encoding="UTF-8"?>
<svg width="24px" height="24px" viewBox="0 0 24 24" version="1.1" xmlns="http://www.w3.org/2000/svg" xmlns:xlink="http://www.w3.org/1999/xlink">
    <title>Icon/presentation</title>
    <g id="Icon/presentation" stroke="none" stroke-width="1" fill="none" fill-rule="evenodd">
        <path d="M21,3.25 C21.4142136,3.25 21.75,3.58578644 21.75,4 C21.75,4.37969577 21.4678461,4.69349096 21.1017706,4.74315338 L21,4.75 L20.75,4.75 L20.75,14 C20.75,15.4625318 19.6082954,16.6584043 18.1675223,16.7449812 L18,16.75 L12.75,16.75 L12.75,19.25 L15,19.25 C15.4142136,19.25 15.75,19.5857864 15.75,20 C15.75,20.3796958 15.4678461,20.693491 15.1017706,20.7431534 L15,20.75 L9,20.75 C8.58578644,20.75 8.25,20.4142136 8.25,20 C8.25,19.6203042 8.53215388,19.306509 8.89822944,19.2568466 L9,19.25 L11.25,19.25 L11.25,16.75 L6,16.75 C4.53746816,16.75 3.34159572,15.6082954 3.25501879,14.1675223 L3.25,14 L3.25,4.75 L3,4.75 C2.58578644,4.75 2.25,4.41421356 2.25,4 C2.25,3.62030423 2.53215388,3.30650904 2.89822944,3.25684662 L3,3.25 L21,3.25 Z M19.25,4.75 L4.75,4.75 L4.75,14 C4.75,14.6472087 5.24187466,15.1795339 5.87219476,15.2435464 L6,15.25 L18,15.25 C18.6472087,15.25 19.1795339,14.7581253 19.2435464,14.1278052 L19.25,14 L19.25,4.75 Z M16.5303301,7.46966991 C16.7965966,7.73593648 16.8208027,8.15260016 16.6029482,8.44621165 L16.5303301,8.53033009 L13.5303301,11.5303301 C13.2640635,11.7965966 12.8473998,11.8208027 12.5537883,11.6029482 L12.4696699,11.5303301 L11,10.061 L8.53033009,12.5303301 C8.26406352,12.7965966 7.84739984,12.8208027 7.55378835,12.6029482 L7.46966991,12.5303301 C7.20340335,12.2640635 7.1791973,11.8473998 7.39705176,11.5537883 L7.46966991,11.4696699 L10.4696699,8.46966991 C10.7359365,8.20340335 11.1526002,8.1791973 11.4462117,8.39705176 L11.5303301,8.46966991 L13,9.939 L15.4696699,7.46966991 C15.7625631,7.1767767 16.2374369,7.1767767 16.5303301,7.46966991 Z" id="Icon-Color" fill="#212121"></path>
    </g>
</svg>