<?xml version="1.0" encoding="UTF-8"?>
<svg width="24px" height="24px" viewBox="0 0 24 24" version="1.1" xmlns="http://www.w3.org/2000/svg" xmlns:xlink="http://www.w3.org/1999/xlink">
    <title>Icon/propeller</title>
    <g id="Icon/propeller" stroke="none" stroke-width="1" fill="none" fill-rule="evenodd">
        <path d="M12,2.25 C14.8483861,2.25 16.4298631,3.71303028 16.2378414,5.86860237 L16.2162829,6.06057756 C16.0658507,7.56592277 15.6339597,9.09673417 14.9237899,10.6505987 C15.2966213,11.1145713 15.562342,11.670659 15.6808249,12.2793665 L15.3980873,12.251658 C17.0102922,12.3877533 18.481941,12.7280198 19.7932611,13.2659025 L20.1818275,13.4331893 C22.3144807,14.3086995 22.8623627,16.4612973 21.3965054,19.0000236 C19.9734561,21.4646105 17.9159541,22.1042938 16.148005,20.8638407 L15.9881057,20.7458913 C14.7141226,19.8296851 13.5683923,18.6391173 12.5532311,17.179169 C12.4573197,17.0412346 12.4141266,16.8823572 12.4193565,16.7264387 C12.2832838,16.7420438 12.142571,16.75 12,16.75 C11.857429,16.75 11.7167162,16.7420438 11.5782816,16.7265511 C11.5859093,16.8823567 11.5426503,17.0414198 11.446562,17.1794664 C10.5225349,18.5069821 9.491649,19.6113781 8.37052309,20.4777711 L8.03149473,20.730534 C6.2065066,22.1403057 4.06845118,21.5389219 2.60249457,19.0000236 C1.17813916,16.5331747 1.65536237,14.4301306 3.61839211,13.5205495 L3.79544594,13.4434107 C5.1487512,12.8325646 6.65811883,12.4442871 8.3196804,12.2776277 C8.43794845,11.6700512 8.70358331,11.1143172 9.07776285,10.6496779 L9.15408615,10.8187099 C8.46631683,9.35362787 8.025306,7.9089191 7.83598738,6.50598384 L7.7867475,6.08637787 C7.47811574,3.80109999 9.06814502,2.25 12,2.25 Z M15.6683308,13.7846302 L15.6243692,13.9661266 C15.355361,14.9779058 14.6739399,15.8216003 13.7710557,16.3062605 C13.7761953,16.3106909 13.7805194,16.3167196 13.7847689,16.322831 C14.6136522,17.5148848 15.5286671,18.4987816 16.5431411,19.2879829 L16.885001,19.5438575 C17.9419127,20.3617445 19.0597931,20.0471773 20.0974946,18.2499764 C21.0979502,16.5172819 20.8675153,15.4096507 19.7199066,14.8684774 L19.5886361,14.8106752 C18.4240394,14.2853971 17.1181912,13.9426207 15.6683308,13.7846302 Z M8.3323785,13.7854011 L8.72712431,13.7463388 C7.27942275,13.8686196 5.97020383,14.169087 4.78034266,14.6529973 L4.38811669,14.8211021 C3.15052962,15.3276834 2.86383166,16.4528235 3.90150543,18.2499764 C4.93908172,20.0469605 6.05601914,20.3611283 7.1351057,19.5281087 C8.26559757,18.7150967 9.29308366,17.6476462 10.215438,16.3225336 L10.2289443,16.3062605 C9.27281195,15.7930172 8.56503489,14.8771423 8.3323785,13.7854011 Z M12,10.75 C10.7573593,10.75 9.75,11.7573593 9.75,13 C9.75,14.2426407 10.7573593,15.25 12,15.25 C13.2426407,15.25 14.25,14.2426407 14.25,13 C14.25,11.7573593 13.2426407,10.75 12,10.75 Z M12,3.75 C9.99902303,3.75 9.15518535,4.50346388 9.26066666,5.76874203 L9.27628291,5.91142244 C9.39831924,7.13261588 9.7323907,8.38419303 10.2809285,9.66647156 C10.7968529,9.40002266 11.3809066,9.25 12,9.25 C12.6190934,9.25 13.2031471,9.40002266 13.7177899,9.66569671 C14.2054756,8.52920591 14.5234863,7.4142645 14.6762504,6.30906072 L14.7267393,5.88568261 C14.9057053,4.55970723 14.075485,3.75 12,3.75 Z" id="Icon-Color" fill="#212121"></path>
    </g>
</svg>