<?xml version="1.0" encoding="UTF-8"?>
<svg width="24px" height="24px" viewBox="0 0 24 24" version="1.1" xmlns="http://www.w3.org/2000/svg" xmlns:xlink="http://www.w3.org/1999/xlink">
    <title>Icon/pyramid</title>
    <g id="Icon/pyramid" stroke="none" stroke-width="1" fill="none" fill-rule="evenodd">
        <path d="M12,2.25 L12.0174363,2.2501993 C12.0371252,2.25064947 12.0567992,2.25186226 12.0764072,2.25383765 L12,2.25 C12.0419145,2.25 12.0830259,2.25343829 12.1230676,2.26004821 C12.1395031,2.26267846 12.1565506,2.26605785 12.1734816,2.27002732 C12.1897434,2.27402636 12.2053537,2.27827951 12.2207528,2.28301514 C12.2335675,2.28663546 12.246657,2.29100722 12.2596366,2.29574735 C12.2784093,2.30308736 12.2967419,2.3107068 12.3146906,2.31901497 C12.3299102,2.32537648 12.3447137,2.332782 12.359299,2.34070679 C12.3683878,2.34646821 12.377677,2.35180416 12.3868383,2.35733047 C12.4081757,2.36927941 12.428582,2.38296868 12.4483919,2.39776986 C12.4552339,2.40383985 12.4625871,2.40953583 12.4698297,2.41536363 C12.4856593,2.42719638 12.5006394,2.44031766 12.5151768,2.45414096 C12.5253727,2.46457047 12.5354295,2.47462731 12.5451957,2.48496172 C12.5762273,2.51743696 12.6050009,2.55416946 12.6308839,2.59443181 L12.5846364,2.53017029 C12.5929737,2.54053175 12.6010413,2.55111948 12.6088285,2.56192281 L12.6308839,2.59443181 L21.6308839,16.5944318 C21.8795266,16.9812095 21.7247785,17.4986144 21.3046038,17.6853587 L21.3046038,17.6853587 L12.3046038,21.6853587 L12.3046038,21.6853587 L12.2919338,21.6910613 C12.2580567,21.7053901 12.2229076,21.7173006 12.186703,21.7265764 C12.1847594,21.7268933 12.1830997,21.7273131 12.1814389,21.7277272 C12.1473924,21.7363818 12.112041,21.7425731 12.0759341,21.7462035 C12.0647026,21.7472819 12.0540249,21.7481291 12.0433371,21.7487475 C12.0292927,21.7495773 12.0146957,21.75 12,21.75 L11.9566629,21.7487475 C11.9459751,21.7481291 11.9352974,21.7472819 11.9246375,21.7462057 L12,21.75 C11.9373044,21.75 11.8764056,21.7423071 11.818196,21.7278138 C11.7766583,21.7172798 11.7354422,21.7031569 11.6953962,21.6853587 L11.813297,21.7265764 C11.7737858,21.7164535 11.7355316,21.7031925 11.6988159,21.6870749 L11.6953962,21.6853587 L2.69539615,17.6853587 C2.27522149,17.4986144 2.12047337,16.9812095 2.36911614,16.5944318 L2.36911614,16.5944318 L11.3691161,2.59443181 C11.3732356,2.58802377 11.3774283,2.58170515 11.3816921,2.57547595 C11.3942269,2.55714446 11.4077895,2.53919653 11.4221136,2.5219022 C11.4307665,2.51106572 11.439832,2.50062368 11.4491162,2.49050117 C11.4614125,2.47775647 11.4739414,2.46513879 11.4869027,2.4529765 C11.5007611,2.43909326 11.5150591,2.42661621 11.5297184,2.41477713 C11.5374129,2.40953583 11.5447661,2.40383985 11.5522262,2.39827934 C11.571418,2.38296868 11.5918243,2.36927941 11.6127374,2.35670204 C11.6212995,2.3524216 11.6295381,2.34766293 11.6378737,2.34305829 C11.6541416,2.33331326 11.6708869,2.32493243 11.6878726,2.31721599 C11.7049291,2.31000894 11.7226157,2.30269868 11.7406273,2.29605995 C11.7525783,2.2912911 11.7646516,2.28723439 11.7768051,2.2834914 C11.7937477,2.27850101 11.810775,2.27385655 11.8280319,2.26980803 C11.8446028,2.2658299 11.8610763,2.2625841 11.8776262,2.25988913 C11.8920808,2.25754757 11.9073824,2.25550086 11.9228225,2.25392253 C11.9435315,2.25182894 11.9635384,2.25060878 11.9835599,2.25017718 C11.9885092,2.25006477 11.994247,2.25 12,2.25 Z M11.2497757,5.552 L4.103,16.669 L11.2497757,19.846 L11.2497757,5.552 Z M12.7497757,5.552 L12.7497757,19.846 L19.896,16.669 L12.7497757,5.552 Z" id="Icon-Color" fill="#212121"></path>
    </g>
</svg>