<?xml version="1.0" encoding="UTF-8"?>
<svg width="24px" height="24px" viewBox="0 0 24 24" version="1.1" xmlns="http://www.w3.org/2000/svg" xmlns:xlink="http://www.w3.org/1999/xlink">
    <title>Icon/qrcode</title>
    <g id="Icon/qrcode" stroke="none" stroke-width="1" fill="none" fill-rule="evenodd">
        <path d="M9,13.25 C9.96649831,13.25 10.75,14.0335017 10.75,15 L10.75,15 L10.75,19 C10.75,19.9664983 9.96649831,20.75 9,20.75 L9,20.75 L5,20.75 C4.03350169,20.75 3.25,19.9664983 3.25,19 L3.25,19 L3.25,15 C3.25,14.0335017 4.03350169,13.25 5,13.25 L5,13.25 Z M17,19.25 C17.4142136,19.25 17.75,19.5857864 17.75,20 C17.75,20.3796958 17.4678461,20.693491 17.1017706,20.7431534 L17,20.75 L14,20.75 C13.5857864,20.75 13.25,20.4142136 13.25,20 C13.25,19.6203042 13.5321539,19.306509 13.8982294,19.2568466 L14,19.25 L17,19.25 Z M20,16.25 C20.3796958,16.25 20.693491,16.5321539 20.7431534,16.8982294 L20.75,17 L20.75,20 C20.75,20.4142136 20.4142136,20.75 20,20.75 C19.6203042,20.75 19.306509,20.4678461 19.2568466,20.1017706 L19.25,20 L19.25,17.75 L17,17.75 C16.5857864,17.75 16.25,17.4142136 16.25,17 C16.25,16.6203042 16.5321539,16.306509 16.8982294,16.2568466 L17,16.25 L20,16.25 L20,16.25 Z M9,14.75 L5,14.75 C4.86192881,14.75 4.75,14.8619288 4.75,15 L4.75,15 L4.75,19 C4.75,19.1380712 4.86192881,19.25 5,19.25 L5,19.25 L9,19.25 C9.13807119,19.25 9.25,19.1380712 9.25,19 L9.25,19 L9.25,15 C9.25,14.8619288 9.13807119,14.75 9,14.75 L9,14.75 Z M7,16.25 C7.37969577,16.25 7.69349096,16.5321539 7.74315338,16.8982294 L7.75,17.01 C7.75,17.4242136 7.41421356,17.76 7,17.76 C6.62030423,17.76 6.30650904,17.4778461 6.25684662,17.1117706 L6.25,17 C6.25,16.5857864 6.58578644,16.25 7,16.25 Z M17,13.25 C17.4142136,13.25 17.75,13.5857864 17.75,14 C17.75,14.3796958 17.4678461,14.693491 17.1017706,14.7431534 L17,14.75 L14.75,14.75 L14.75,17 C14.75,17.4142136 14.4142136,17.75 14,17.75 C13.6203042,17.75 13.306509,17.4678461 13.2568466,17.1017706 L13.25,17 L13.25,14 C13.25,13.5857864 13.5857864,13.25 14,13.25 L17,13.25 Z M20,13.25 C20.3796958,13.25 20.693491,13.5321539 20.7431534,13.8982294 L20.75,14.01 C20.75,14.4242136 20.4142136,14.76 20,14.76 C19.6203042,14.76 19.306509,14.4778461 19.2568466,14.1117706 L19.25,14 C19.25,13.5857864 19.5857864,13.25 20,13.25 Z M9,3.25 C9.96649831,3.25 10.75,4.03350169 10.75,5 L10.75,5 L10.75,9 C10.75,9.96649831 9.96649831,10.75 9,10.75 L9,10.75 L5,10.75 C4.03350169,10.75 3.25,9.96649831 3.25,9 L3.25,9 L3.25,5 C3.25,4.03350169 4.03350169,3.25 5,3.25 L5,3.25 Z M19,3.25 C19.9664983,3.25 20.75,4.03350169 20.75,5 L20.75,5 L20.75,9 C20.75,9.96649831 19.9664983,10.75 19,10.75 L19,10.75 L15,10.75 C14.0335017,10.75 13.25,9.96649831 13.25,9 L13.25,9 L13.25,5 C13.25,4.03350169 14.0335017,3.25 15,3.25 L15,3.25 Z M9,4.75 L5,4.75 C4.86192881,4.75 4.75,4.86192881 4.75,5 L4.75,5 L4.75,9 C4.75,9.13807119 4.86192881,9.25 5,9.25 L5,9.25 L9,9.25 C9.13807119,9.25 9.25,9.13807119 9.25,9 L9.25,9 L9.25,5 C9.25,4.86192881 9.13807119,4.75 9,4.75 L9,4.75 Z M19,4.75 L15,4.75 C14.8619288,4.75 14.75,4.86192881 14.75,5 L14.75,5 L14.75,9 C14.75,9.13807119 14.8619288,9.25 15,9.25 L15,9.25 L19,9.25 C19.1380712,9.25 19.25,9.13807119 19.25,9 L19.25,9 L19.25,5 C19.25,4.86192881 19.1380712,4.75 19,4.75 L19,4.75 Z M7,6.25 C7.37969577,6.25 7.69349096,6.53215388 7.74315338,6.89822944 L7.75,7.01 C7.75,7.42421356 7.41421356,7.76 7,7.76 C6.62030423,7.76 6.30650904,7.47784612 6.25684662,7.11177056 L6.25,7 C6.25,6.58578644 6.58578644,6.25 7,6.25 Z M17,6.25 C17.3796958,6.25 17.693491,6.53215388 17.7431534,6.89822944 L17.75,7.01 C17.75,7.42421356 17.4142136,7.76 17,7.76 C16.6203042,7.76 16.306509,7.47784612 16.2568466,7.11177056 L16.25,7 C16.25,6.58578644 16.5857864,6.25 17,6.25 Z" id="Icon-Color" fill="#212121"></path>
    </g>
</svg>