<?xml version="1.0" encoding="UTF-8"?>
<svg width="24px" height="24px" viewBox="0 0 24 24" version="1.1" xmlns="http://www.w3.org/2000/svg" xmlns:xlink="http://www.w3.org/1999/xlink">
    <title>Icon/radioactive</title>
    <g id="Icon/radioactive" stroke="none" stroke-width="1" fill="none" fill-rule="evenodd">
        <path d="M9,11.25 C9.37986791,11.25 9.69374278,11.5324002 9.74321263,11.8986614 L9.75,12.0004809 C9.74952097,12.7473894 10.119318,13.4417807 10.7298847,13.8591777 L10.87,13.948 C10.9052177,13.9679477 10.9334636,13.9869682 10.9600167,14.0075316 L11.0342724,14.0733721 C11.2192714,14.2608409 11.2924868,14.5340843 11.2260075,14.7889366 L11.1943294,14.8837971 L11.1493265,14.9753333 L8.14932653,20.1653333 C7.94211093,20.5238162 7.48358939,20.6465507 7.12500008,20.4395191 C4.1097565,18.6986679 2.25163618,15.4820552 2.25,12.0003524 C2.2498216,11.6205305 2.53200849,11.3065443 2.89819681,11.2568509 L3,11.25 L9,11.25 Z M21,11.25 C21.4143512,11.25 21.7501946,11.5860013 21.75,12.0003524 C21.7483638,15.4820552 19.8902435,18.6986679 16.8749999,20.4395191 C16.5462931,20.629298 16.1336154,20.5419819 15.9075096,20.2499882 L15.8506735,20.1653333 L12.8506735,14.9753333 C12.8333992,14.9454488 12.8184164,14.914869 12.8056706,14.8837971 L12.7739925,14.7889366 C12.7075132,14.5340843 12.7807286,14.2608409 12.9657276,14.0733721 L13.0399833,14.0075316 L13.2701153,13.8591777 C13.8337153,13.4738882 14.1921625,12.8525798 14.2435967,12.1718099 L14.2500002,12.0004809 C14.2497566,11.620613 14.5319555,11.3065572 14.8981849,11.2568525 L15,11.25 L21,11.25 Z M20.214,12.75 L15.673,12.75 L15.6474986,12.8730891 C15.4786509,13.5799851 15.1073918,14.223501 14.579946,14.7235136 L14.486,14.807 L16.756,18.735 L16.8604432,18.6621353 C18.7401403,17.2921129 19.9553376,15.1884713 20.2030504,12.8757108 L20.214,12.75 Z M8.326,12.75 L3.785,12.75 L3.7969496,12.8757108 C4.04466238,15.1884713 5.25985969,17.2921129 7.13955683,18.6621353 L7.243,18.735 L9.513,14.807 L9.42005403,14.7235136 C8.89260825,14.223501 8.5213491,13.5799851 8.35250144,12.8730891 L8.326,12.75 Z M16.875,3.56048095 C17.2039455,3.75039772 17.3345798,4.15185036 17.1943432,4.49376394 L17.1493265,4.58533326 L14.1493265,9.77533326 C14.1320523,9.80521768 14.1130318,9.83346363 14.0924684,9.86001667 L14.0266277,9.93427253 C13.8860261,10.0730217 13.6971763,10.1488927 13.5040232,10.1501249 L13.4069095,10.1443959 L13.3110633,10.1260075 L13.214,10.093 L13.12,10.047 L12.9616289,9.96390215 C12.3531652,9.67613423 11.6468348,9.67613423 11.0383711,9.96390215 L10.875,10.0495191 C10.5462931,10.2392981 10.1336154,10.151982 9.90750965,9.85998817 L9.85067347,9.77533326 L6.85067347,4.58533326 C6.64330741,4.22658998 6.76615036,3.76766288 7.125,3.56048095 C10.1416605,1.8188112 13.8583395,1.8188112 16.875,3.56048095 Z M8.6848783,4.44947076 L8.542,4.514 L10.812,8.442 L10.981706,8.38888861 C11.647252,8.20113874 12.352748,8.20113874 13.018294,8.38888861 L13.187,8.442 L15.457,4.514 L15.3151217,4.44947076 C13.2035385,3.52248126 10.7964615,3.52248126 8.6848783,4.44947076 Z" id="Icon-Color" fill="#212121"></path>
    </g>
</svg>