<?xml version="1.0" encoding="UTF-8"?>
<svg width="24px" height="24px" viewBox="0 0 24 24" version="1.1" xmlns="http://www.w3.org/2000/svg" xmlns:xlink="http://www.w3.org/1999/xlink">
    <title>Icon/receipt</title>
    <g id="Icon/receipt" stroke="none" stroke-width="1" fill="none" fill-rule="evenodd">
        <path d="M17,2.25 C18.4625318,2.25 19.6584043,3.3917046 19.7449812,4.83247767 L19.75,5 L19.75,21 C19.75,21.563785 19.1586231,21.9134441 18.6735166,21.6756079 L18.5839749,21.6240377 L16.095,19.965 L14.5303301,21.5303301 C14.2640635,21.7965966 13.8473998,21.8208027 13.5537883,21.6029482 L13.4696699,21.5303301 L12,20.061 L10.5303301,21.5303301 C10.2640635,21.7965966 9.84739984,21.8208027 9.55378835,21.6029482 L9.46966991,21.5303301 L7.904,19.965 L5.41602515,21.6240377 L5.37853936,21.647603 L5.29193385,21.6910613 L5.19937971,21.7232093 L5.10177056,21.7431534 L5.004,21.75 C4.89744661,21.75 4.79804491,21.7290133 4.70812865,21.6910613 L4.60934762,21.6404373 L4.52253699,21.5786414 L4.46966991,21.5303301 L4.40627192,21.4583026 L4.393,21.438 L4.37596228,21.4160251 L4.35239699,21.3785394 L4.30893872,21.2919338 L4.27679072,21.1993797 L4.25684662,21.1017706 L4.24996856,21.0092059 L4.24996856,5 C4.24996856,3.53746816 5.3917046,2.34159572 6.83247767,2.25501879 L7,2.25 L17,2.25 Z M17,3.75 L7,3.75 C6.35279131,3.75 5.8204661,4.24187466 5.75645361,4.87219476 L5.75,5 L5.75,19.597 L7.58397485,18.3759623 C7.84838991,18.1996856 8.19072937,18.2110884 8.44108873,18.393347 L8.53033009,18.4696699 L10,19.939 L11.4696699,18.4696699 C11.7359365,18.2034034 12.1526002,18.1791973 12.4462117,18.3970518 L12.5303301,18.4696699 L14,19.939 L15.4696699,18.4696699 C15.6943795,18.2449603 16.0323072,18.1890034 16.3135486,18.3186231 L16.4160251,18.3759623 L18.25,19.598 L18.25,5 C18.25,4.35279131 17.7581253,3.8204661 17.1278052,3.75645361 L17,3.75 Z M15,14.25 C15.4142136,14.25 15.75,14.5857864 15.75,15 C15.75,15.3796958 15.4678461,15.693491 15.1017706,15.7431534 L15,15.75 L13,15.75 C12.5857864,15.75 12.25,15.4142136 12.25,15 C12.25,14.6203042 12.5321539,14.306509 12.8982294,14.2568466 L13,14.25 L15,14.25 Z M15,10.25 C15.4142136,10.25 15.75,10.5857864 15.75,11 C15.75,11.3796958 15.4678461,11.693491 15.1017706,11.7431534 L15,11.75 L9,11.75 C8.58578644,11.75 8.25,11.4142136 8.25,11 C8.25,10.6203042 8.53215388,10.306509 8.89822944,10.2568466 L9,10.25 L15,10.25 Z M15,6.25 C15.4142136,6.25 15.75,6.58578644 15.75,7 C15.75,7.37969577 15.4678461,7.69349096 15.1017706,7.74315338 L15,7.75 L9,7.75 C8.58578644,7.75 8.25,7.41421356 8.25,7 C8.25,6.62030423 8.53215388,6.30650904 8.89822944,6.25684662 L9,6.25 L15,6.25 Z" id="Icon-Color" fill="#212121"></path>
    </g>
</svg>