<?xml version="1.0" encoding="UTF-8"?>
<svg width="24px" height="24px" viewBox="0 0 24 24" version="1.1" xmlns="http://www.w3.org/2000/svg" xmlns:xlink="http://www.w3.org/1999/xlink">
    <title>Icon/media/repeat once</title>
    <g id="Icon/media/repeat-once" stroke="none" stroke-width="1" fill="none" fill-rule="evenodd">
        <path d="M20,11.25 C20.3796958,11.25 20.693491,11.5321539 20.7431534,11.8982294 L20.75,12 L20.75,15 C20.75,17.0042592 19.1776389,18.6412737 17.1991586,18.744802 L17,18.75 L5.811,18.75 L7.53033009,20.4696699 C7.79659665,20.7359365 7.8208027,21.1526002 7.60294824,21.4462117 L7.53033009,21.5303301 C7.26406352,21.7965966 6.84739984,21.8208027 6.55378835,21.6029482 L6.46966991,21.5303301 L3.44843704,18.5082166 L3.37849655,18.42005 L3.3239304,18.3251715 L3.28881291,18.2386647 L3.26241813,18.136298 L3.25399994,18.077931 L3.25,18 L3.25317463,17.9305305 L3.26973472,17.828633 L3.28898031,17.7607164 L3.31160159,17.7018614 L3.34686081,17.6309547 L3.39705176,17.5537883 C3.42217116,17.5205706 3.44507007,17.4942698 3.46966991,17.4696699 L6.46966991,14.4696699 C6.76256313,14.1767767 7.23743687,14.1767767 7.53033009,14.4696699 C7.79659665,14.7359365 7.8208027,15.1526002 7.60294824,15.4462117 L7.53033009,15.5303301 L5.811,17.25 L17,17.25 C18.190864,17.25 19.1656449,16.3248384 19.2448092,15.1540488 L19.25,15 L19.25,12 C19.25,11.5857864 19.5857864,11.25 20,11.25 Z M12.7434532,9.89733906 L12.75,10 L12.75,14 C12.75,14.4142136 12.4142136,14.75 12,14.75 C11.6203042,14.75 11.306509,14.4678461 11.2568466,14.1017706 L11.25,14 L11.25,11.706 L11.1561203,11.7336609 C10.9504209,11.7772318 10.7299552,11.7336609 10.5537883,11.6029482 L10.4696699,11.5303301 C10.2034034,11.2640635 10.1791973,10.8473998 10.3970518,10.5537883 L10.4696699,10.4696699 L11.4696699,9.46966991 C11.9172765,9.0220633 12.6658915,9.2988334 12.7434532,9.89733906 Z M17.3441588,2.33339881 L17.4462117,2.39705176 L17.5303301,2.46966991 L20.5303301,5.46966991 L20.587,5.535 L20.6322869,5.59642748 L20.6760696,5.67482849 L20.7111871,5.76133534 L20.7375819,5.863702 L20.7482462,5.94847595 L20.7482462,6.05141886 L20.7302653,6.17136702 L20.7110197,6.23928365 L20.6883984,6.29813864 L20.6531392,6.36904532 L20.5937281,6.45830264 L20.5303301,6.53033009 L17.5303301,9.53033009 C17.2374369,9.8232233 16.7625631,9.8232233 16.4696699,9.53033009 C16.2034034,9.26406352 16.1791973,8.84739984 16.3970518,8.55378835 L16.4696699,8.46966991 L18.189,6.75 L7,6.75 C5.80913601,6.75 4.83435508,7.67516159 4.75519081,8.84595119 L4.75,9 L4.75,12 C4.75,12.4142136 4.41421356,12.75 4,12.75 C3.62030423,12.75 3.30650904,12.4678461 3.25684662,12.1017706 L3.25,12 L3.25,9 C3.25,6.99574083 4.82236105,5.35872626 6.80084143,5.25519801 L7,5.25 L18.189,5.25 L16.4696699,3.53033009 C16.2034034,3.26406352 16.1791973,2.84739984 16.3970518,2.55378835 L16.4696699,2.46966991 C16.7063513,2.23298853 17.061865,2.18756482 17.3441588,2.33339881 Z" id="Icon-Color" fill="#212121"></path>
    </g>
</svg>