<?xml version="1.0" encoding="UTF-8"?>
<svg width="24px" height="24px" viewBox="0 0 24 24" version="1.1" xmlns="http://www.w3.org/2000/svg" xmlns:xlink="http://www.w3.org/1999/xlink">
    <title>Icon/arrows/circle/fill/right</title>
    <g id="Icon/arrows/circle/fill/right" stroke="none" stroke-width="1" fill="none" fill-rule="evenodd">
        <path d="M12,21.5 C17.3847763,21.5 21.75,17.1347763 21.75,11.75 C21.75,6.36522369 17.3847763,2 12,2 C6.61522369,2 2.25,6.36522369 2.25,11.75 C2.25,17.1347763 6.61522369,21.5 12,21.5 Z M10.400973,7.15458253 C10.194863,6.94847249 9.86069258,6.94847249 9.65458253,7.15458253 C9.46720977,7.3419553 9.45017588,7.63516308 9.60348087,7.84177857 L9.65458253,7.90097302 L13.5033704,11.75 L9.65458253,15.599027 C9.46720977,15.7863997 9.45017588,16.0796075 9.60348087,16.286223 L9.65458253,16.3454175 C9.8419553,16.5327902 10.1351631,16.5498241 10.3417786,16.3965191 L10.400973,16.3454175 L14.6231952,12.1231952 C14.810568,11.9358225 14.8276019,11.6426147 14.6742969,11.4359992 L14.6231952,11.3768048 L10.400973,7.15458253 Z" id="Icon-Color" fill="#212121"></path>
    </g>
</svg>