<?xml version="1.0" encoding="UTF-8"?>
<svg width="24px" height="24px" viewBox="0 0 24 24" version="1.1" xmlns="http://www.w3.org/2000/svg" xmlns:xlink="http://www.w3.org/1999/xlink">
    <title>Icon/rotate</title>
    <g id="Icon/rotate" stroke="none" stroke-width="1" fill="none" fill-rule="evenodd">
        <path d="M11.9916965,3.2896949 C16.3945423,3.27660923 20.1214154,6.53701369 20.6936388,10.9025252 C20.7474727,11.3132255 20.4581752,11.6898049 20.0474748,11.7436388 C19.6367745,11.7974727 19.2601951,11.5081752 19.2063612,11.0974748 C18.732233,7.48033472 15.6442476,4.77885257 11.9961816,4.78972768 C8.34810209,4.80066865 5.27632711,7.52056897 4.82383826,11.1404798 C4.37134885,14.760395 6.67909792,18.1527283 10.2122345,19.0612871 C13.3692357,19.8731214 16.6258905,18.4759086 18.2465637,15.7513481 L14.95,15.75 C14.5703042,15.75 14.256509,15.4678461 14.2068466,15.1017706 L14.2,15 C14.2,14.6203042 14.4821539,14.306509 14.8482294,14.2568466 L14.95,14.25 L19.95,14.25 C20.3296958,14.25 20.643491,14.5321539 20.6931534,14.8982294 L20.7000846,15 L20.7000846,20 C20.7000846,20.4142136 20.3642136,20.75 19.95,20.75 C19.5703042,20.75 19.256509,20.4678461 19.2068466,20.1017706 L19.2,20 L19.2005551,17.0390733 C17.1540578,19.982302 13.4425572,21.4407784 9.83865824,20.5140228 C5.57452793,19.4174862 2.78931354,15.3232909 3.33542144,10.9544277 C3.88152837,6.58557227 7.58883728,3.30293902 11.9916965,3.2896949 Z" id="Icon-Color" fill="#212121"></path>
    </g>
</svg>