<?xml version="1.0" encoding="UTF-8"?>
<svg width="24px" height="24px" viewBox="0 0 24 24" version="1.1" xmlns="http://www.w3.org/2000/svg" xmlns:xlink="http://www.w3.org/1999/xlink">
    <title>Icon/rss</title>
    <g id="Icon/rss" stroke="none" stroke-width="1" fill="none" fill-rule="evenodd">
        <path d="M5,17.25 C5.96649831,17.25 6.75,18.0335017 6.75,19 C6.75,19.9664983 5.96649831,20.75 5,20.75 C4.03350169,20.75 3.25,19.9664983 3.25,19 C3.25,18.0335017 4.03350169,17.25 5,17.25 Z M4,3.25 C13.2507696,3.25 20.75,10.7492304 20.75,20 C20.75,20.4142136 20.4142136,20.75 20,20.75 C19.5857864,20.75 19.25,20.4142136 19.25,20 C19.25,11.5776576 12.4223424,4.75 4,4.75 C3.58578644,4.75 3.25,4.41421356 3.25,4 C3.25,3.58578644 3.58578644,3.25 4,3.25 Z M4,10.25 C9.38477631,10.25 13.75,14.6152237 13.75,20 C13.75,20.4142136 13.4142136,20.75 13,20.75 C12.5857864,20.75 12.25,20.4142136 12.25,20 C12.25,15.4436508 8.55634919,11.75 4,11.75 C3.58578644,11.75 3.25,11.4142136 3.25,11 C3.25,10.5857864 3.58578644,10.25 4,10.25 Z M5,18.75 C4.86192881,18.75 4.75,18.8619288 4.75,19 C4.75,19.1380712 4.86192881,19.25 5,19.25 C5.13807119,19.25 5.25,19.1380712 5.25,19 C5.25,18.8619288 5.13807119,18.75 5,18.75 Z" id="Icon-Color" fill="#212121"></path>
    </g>
</svg>