<?xml version="1.0" encoding="UTF-8"?>
<svg width="24px" height="24px" viewBox="0 0 24 24" version="1.1" xmlns="http://www.w3.org/2000/svg" xmlns:xlink="http://www.w3.org/1999/xlink">
    <title>Icon/scale</title>
    <g id="Icon/scale" stroke="none" stroke-width="1" fill="none" fill-rule="evenodd">
        <path d="M12,2.25 C12.3796958,2.25 12.693491,2.53215388 12.7431534,2.89822944 L12.75,3 L12.75,4.365 L18.1232992,5.26020456 L18.140934,5.26303215 C18.1665603,5.26781998 18.1919698,5.27392705 18.2170429,5.28135335 L18.1232992,5.26020456 C18.1635712,5.26691656 18.2025553,5.27672118 18.240049,5.28933481 C18.2649687,5.29683561 18.2893266,5.30634334 18.3131973,5.31715697 C18.316071,5.31963417 18.31946,5.32121665 18.3228339,5.32282307 C18.4352864,5.37459738 18.536062,5.45646439 18.6132415,5.56742032 L18.637872,5.60549458 C18.6478966,5.62168863 18.6573124,5.63826991 18.6660939,5.65520229 L18.6708204,5.6645898 L21.6910613,11.7080662 L21.7232093,11.8006203 L21.7360234,11.8549016 L21.7431534,11.8982294 L21.75,12 C21.75,14.0042592 20.1776389,15.6412737 18.1991586,15.744802 L18,15.75 C15.9289322,15.75 14.25,14.0710678 14.25,12 C14.25,11.9223775 14.2620484,11.8454656 14.285509,11.771959 L14.3291796,11.6645898 L16.875,6.572 L12.75,5.884 L12.75,19.25 L17,19.25 C17.4142136,19.25 17.75,19.5857864 17.75,20 C17.75,20.3796958 17.4678461,20.693491 17.1017706,20.7431534 L17,20.75 L7,20.75 C6.58578644,20.75 6.25,20.4142136 6.25,20 C6.25,19.6203042 6.53215388,19.306509 6.89822944,19.2568466 L7,19.25 L11.25,19.25 L11.25,5.884 L7.124,6.572 L9.69106128,11.7080662 L9.72320928,11.8006203 L9.73602336,11.8549016 L9.74315338,11.8982294 L9.75,12 C9.75,14.0042592 8.17763895,15.6412737 6.19915857,15.744802 L6,15.75 C3.92893219,15.75 2.25,14.0710678 2.25,12 C2.25,11.9223775 2.26204836,11.8454656 2.28550899,11.771959 L2.32917961,11.6645898 L5.32917961,5.6645898 C5.34268756,5.63826991 5.35210344,5.62168863 5.36212799,5.60549458 L5.32917961,5.6645898 C5.40985757,5.50323388 5.53419878,5.38897704 5.67671302,5.32181929 C5.68053996,5.32121665 5.68392901,5.31963417 5.68733307,5.3180759 C5.71067336,5.30634334 5.73503128,5.29683561 5.75975875,5.2886338 C5.76574549,5.28738543 5.77157556,5.28550314 5.77744048,5.28368899 C5.80803022,5.27392705 5.83343967,5.26781998 5.85906596,5.26303215 L5.87670076,5.26020456 L11.25,4.364 L11.25,3 C11.25,2.58578644 11.5857864,2.25 12,2.25 Z M6,7.676 L3.756,12.163 L3.77053985,12.3053117 C3.91275497,13.353619 4.77696938,14.1725288 5.84595119,14.2448092 L6,14.25 C7.1390873,14.25 8.08047288,13.4035384 8.22946015,12.3053117 L8.243,12.163 L6,7.676 Z M18,7.676 L15.756,12.163 L15.7705398,12.3053117 C15.912755,13.353619 16.7769694,14.1725288 17.8459512,14.2448092 L18,14.25 C19.1390873,14.25 20.0804729,13.4035384 20.2294602,12.3053117 L20.243,12.163 L18,7.676 Z" id="Icon-Color" fill="#212121"></path>
    </g>
</svg>