<?xml version="1.0" encoding="UTF-8"?>
<svg width="24px" height="24px" viewBox="0 0 24 24" version="1.1" xmlns="http://www.w3.org/2000/svg" xmlns:xlink="http://www.w3.org/1999/xlink">
    <title>Icon/school</title>
    <g id="Icon/school" stroke="none" stroke-width="1" fill="none" fill-rule="evenodd">
        <path d="M12.1691093,4.26931129 L12.278543,4.30364248 L22.2963282,8.31081835 L22.381,8.354 L22.456,8.405 C22.6083578,8.52207264 22.7154749,8.69363951 22.7430263,8.89623355 L22.75,9 L22.75,15 C22.75,15.4142136 22.4142136,15.75 22,15.75 C21.6203042,15.75 21.306509,15.4678461 21.2568466,15.1017706 L21.25,15 L21.25,10.107 L18.75,11.107 L18.75,16 C18.75,18.2123882 15.6747765,19.75 12,19.75 C8.41485222,19.75 5.40036757,18.286479 5.25545228,16.1606653 L5.25,16 L5.25,11.108 L1.72145699,9.69635752 C1.12982469,9.4597046 1.09502279,8.65756287 1.61705129,8.35438185 L1.72145699,8.30364248 L11.721457,4.30364248 C11.8645036,4.24642383 12.0207734,4.23498011 12.1691093,4.26931129 Z M17.25,11.707 L12.278543,13.6963575 C12.1354964,13.7535762 11.9792266,13.7650199 11.8308907,13.7306887 L11.721457,13.6963575 L6.75,11.708 L6.75,16 C6.75,17.1013203 9.04735948,18.25 12,18.25 C14.8631666,18.25 17.1101644,17.1698824 17.2437169,16.1002172 L17.25,16 L17.25,11.707 Z M12,5.807 L4.019,9 L12,12.192 L19.98,9 L12,5.807 Z" id="Icon-Color" fill="#212121"></path>
    </g>
</svg>