<?xml version="1.0" encoding="UTF-8"?>
<svg width="24px" height="24px" viewBox="0 0 24 24" version="1.1" xmlns="http://www.w3.org/2000/svg" xmlns:xlink="http://www.w3.org/1999/xlink">
    <title>Icon/screen-share</title>
    <g id="Icon/screen-share" stroke="none" stroke-width="1" fill="none" fill-rule="evenodd">
        <path d="M13,3.25 C13.4142136,3.25 13.75,3.58578644 13.75,4 C13.75,4.37969577 13.4678461,4.69349096 13.1017706,4.74315338 L13,4.75 L4,4.75 C3.88165327,4.75 3.78251318,4.83223341 3.75660268,4.94267729 L3.75,5 L3.75,15 C3.75,15.1183467 3.83223341,15.2174868 3.94267729,15.2433973 L4,15.25 L20,15.25 C20.1183467,15.25 20.2174868,15.1677666 20.2433973,15.0573227 L20.25,15 L20.25,12 C20.25,11.5857864 20.5857864,11.25 21,11.25 C21.3796958,11.25 21.693491,11.5321539 21.7431534,11.8982294 L21.75,12 L21.75,15 C21.75,15.9181734 21.0428897,16.6711923 20.1435272,16.7441988 L20,16.75 L15.75,16.75 L15.75,19.25 L17,19.25 C17.4142136,19.25 17.75,19.5857864 17.75,20 C17.75,20.3796958 17.4678461,20.693491 17.1017706,20.7431534 L17,20.75 L7,20.75 C6.58578644,20.75 6.25,20.4142136 6.25,20 C6.25,19.6203042 6.53215388,19.306509 6.89822944,19.2568466 L7,19.25 L8.25,19.25 L8.25,16.75 L4,16.75 C3.0818266,16.75 2.32880766,16.0428897 2.2558012,15.1435272 L2.25,15 L2.25,5 C2.25,4.0818266 2.95711027,3.32880766 3.85647279,3.2558012 L4,3.25 L13,3.25 Z M14.25,16.75 L9.75,16.75 L9.75,19.25 L14.25,19.25 L14.25,16.75 Z M21,3.25 L21.017448,3.25020172 C21.0374655,3.25066463 21.0574681,3.25192429 21.077404,3.2539807 L21,3.25 C21.0468456,3.25 21.092688,3.25429489 21.1371551,3.26251238 C21.1480328,3.26457582 21.1597261,3.26701468 21.171367,3.26973472 C21.1948272,3.27517085 21.2172835,3.28157935 21.2392836,3.28898031 C21.2490913,3.29230301 21.2594565,3.29602848 21.2697519,3.29998933 C21.2890942,3.30744952 21.3075139,3.315445 21.3255328,3.32413984 C21.3392927,3.33072263 21.3532452,3.33798287 21.3670058,3.34571114 C21.3852507,3.35603365 21.4030473,3.36704718 21.4203291,3.3787629 C21.4295877,3.38495801 21.4390095,3.39166315 21.4483068,3.39861198 C21.5064902,3.44218946 21.5578105,3.49350982 21.6010016,3.55126304 L21.5303301,3.46966991 C21.5673834,3.50672319 21.5997491,3.54668892 21.6274273,3.58883021 C21.6405922,3.60898514 21.6529723,3.62997247 21.664329,3.65158175 C21.6691626,3.66070362 21.6735192,3.66943437 21.6776949,3.67822959 C21.690442,3.70501812 21.7019466,3.73347789 21.7116971,3.76273953 C21.7139554,3.76968322 21.7158799,3.77575442 21.7177252,3.78184446 C21.7290814,3.81893395 21.7377062,3.85807689 21.7431534,3.89822944 L21.75,4 L21.75,8 C21.75,8.41421356 21.4142136,8.75 21,8.75 C20.6203042,8.75 20.306509,8.46784612 20.2568466,8.10177056 L20.25,8 L20.25,5.81 L16.5303301,9.53033009 C16.2374369,9.8232233 15.7625631,9.8232233 15.4696699,9.53033009 C15.2034034,9.26406352 15.1791973,8.84739984 15.3970518,8.55378835 L15.4696699,8.46966991 L19.188,4.75 L17,4.75 C16.6203042,4.75 16.306509,4.46784612 16.2568466,4.10177056 L16.25,4 C16.25,3.62030423 16.5321539,3.30650904 16.8982294,3.25684662 L17,3.25 L21,3.25 Z" id="Icon-Color" fill="#212121"></path>
    </g>
</svg>