<?xml version="1.0" encoding="UTF-8"?>
<svg width="24px" height="24px" viewBox="0 0 24 24" version="1.1" xmlns="http://www.w3.org/2000/svg" xmlns:xlink="http://www.w3.org/1999/xlink">
    <title>Icon/selector</title>
    <g id="Icon/selector" stroke="none" stroke-width="1" fill="none" fill-rule="evenodd">
        <path d="M16.4462117,14.3970518 L16.5303301,14.4696699 C16.7965966,14.7359365 16.8208027,15.1526002 16.6029482,15.4462117 L16.5303301,15.5303301 L12.5303301,19.5303301 C12.2640635,19.7965966 11.8473998,19.8208027 11.5537883,19.6029482 L11.4696699,19.5303301 L7.46966991,15.5303301 C7.1767767,15.2374369 7.1767767,14.7625631 7.46966991,14.4696699 C7.73593648,14.2034034 8.15260016,14.1791973 8.44621165,14.3970518 L8.53033009,14.4696699 L12,17.939 L15.4696699,14.4696699 C15.7359365,14.2034034 16.1526002,14.1791973 16.4462117,14.3970518 Z M12.4462117,4.39705176 L12.5303301,4.46966991 L16.5303301,8.46966991 C16.8232233,8.76256313 16.8232233,9.23743687 16.5303301,9.53033009 C16.2640635,9.79659665 15.8473998,9.8208027 15.5537883,9.60294824 L15.4696699,9.53033009 L12,6.061 L8.53033009,9.53033009 C8.26406352,9.79659665 7.84739984,9.8208027 7.55378835,9.60294824 L7.46966991,9.53033009 C7.20340335,9.26406352 7.1791973,8.84739984 7.39705176,8.55378835 L7.46966991,8.46966991 L11.4696699,4.46966991 C11.7359365,4.20340335 12.1526002,4.1791973 12.4462117,4.39705176 Z" id="Icon-Color" fill="#212121"></path>
    </g>
</svg>