<?xml version="1.0" encoding="UTF-8"?>
<svg width="24px" height="24px" viewBox="0 0 24 24" version="1.1" xmlns="http://www.w3.org/2000/svg" xmlns:xlink="http://www.w3.org/1999/xlink">
    <title>Icon/share 02</title>
    <g id="Icon/share-02" stroke="none" stroke-width="1" fill="none" fill-rule="evenodd">
        <path d="M8.15855573,8.92935636 L8.15855573,10.4364207 L3.26059655,10.4364207 C2.84615385,10.4364207 2.50706436,10.7755102 2.50706436,11.2276295 L2.50706436,21.4756672 C2.50706436,22.0408163 2.95918367,22.4929356 3.44897959,22.4929356 L20.5918367,22.4929356 C21.0062794,22.4929356 21.3453689,22.1161695 21.3453689,21.7017268 L21.3453689,11.4160126 C21.3453689,10.88854 20.9309262,10.4364207 20.4034537,10.4364207 L15.6938776,10.4364207 L15.6938776,8.92935636 L20.4034537,8.92935636 C21.7598116,8.92935636 22.8524333,10.0596546 22.8524333,11.4160126 L22.8524333,21.7017268 C22.8524333,22.9827316 21.8351648,24 20.5918367,24 L3.44897959,24 C2.09262166,24 1,22.8697017 1,21.4756672 L1,11.2276295 C1,9.9466248 2.01726845,8.92935636 3.26059655,8.92935636 L8.15855573,8.92935636 Z M11.9262166,0 L17.9262166,4.92555332 L17.0244825,5.89134809 L12.6198583,2.28571429 L12.6198583,16 L11.232575,16 L11.232575,2.28571429 L6.82795074,5.89134809 L5.92621664,4.92555332 L11.9262166,0 Z" id="Icon-Color" fill="#212121"></path>
    </g>
</svg>