<?xml version="1.0" encoding="UTF-8"?>
<svg width="24px" height="24px" viewBox="0 0 24 24" version="1.1" xmlns="http://www.w3.org/2000/svg" xmlns:xlink="http://www.w3.org/1999/xlink">
    <title>Icon/brand/sketch</title>
    <g id="Icon/brand/sketch" stroke="none" stroke-width="1" fill="none" fill-rule="evenodd">
        <path d="M16.4820831,3.25400289 L7.55191693,3.25400289 C6.97546871,3.25560394 6.43678276,3.54098313 6.11166693,4.01700289 L2.57132949,9.20949738 L2.4865396,9.34667341 C2.17510615,9.90631867 2.19586761,10.5897681 2.53015286,11.1274053 L2.593,11.218 L2.64143049,11.3000549 L2.67261912,11.3420588 L10.7073592,20.17185 C11.4046151,20.9388318 12.6103849,20.9388318 13.3079551,20.1715046 L21.3076694,11.3818186 C21.8544138,10.7809238 21.917293,9.88221126 21.4595339,9.21129715 L17.9229128,4.01785298 C17.5972172,3.54098313 17.0585313,3.25560394 16.4820831,3.25400289 Z M7.55608307,4.75399711 L16.48,4.75399711 C16.5602667,4.75422583 16.6372218,4.79499428 16.6836669,4.86299711 L20.2200872,10.056147 C20.2867364,10.1538318 20.277551,10.2851148 20.1982639,10.3722547 L12.1983306,19.1621814 L12.1502382,19.2036877 C12.0467698,19.2728688 11.904752,19.2590721 11.8169551,19.1624954 L3.912,10.478 L3.89858738,10.4559715 C3.87896698,10.4275949 3.85701941,10.3999354 3.83266397,10.3731754 C3.75252928,10.2851293 3.74331313,10.1531061 3.81029592,10.0550515 L7.35067051,4.86250262 C7.39677818,4.79499428 7.47373332,4.75422583 7.55608307,4.75399711 Z" id="Icon-Color" fill="#212121"></path>
    </g>
</svg>