<?xml version="1.0" encoding="UTF-8"?>
<svg width="24px" height="24px" viewBox="0 0 24 24" version="1.1" xmlns="http://www.w3.org/2000/svg" xmlns:xlink="http://www.w3.org/1999/xlink">
    <title>Icon/brand/soundcloud</title>
    <g id="Icon/brand/soundcloud" stroke="none" stroke-width="1" fill="none" fill-rule="evenodd">
        <path d="M12,6.25 C14.9414689,6.25 16.7907795,7.59518932 17.5466965,10.0949198 L17.5466965,10.0949198 L17.59,10.25 L18,10.25 C19.8417743,10.25 21.6307909,11.8500713 21.7442948,13.8035231 L21.7442948,13.8035231 L21.75,14 C21.75,16.0249568 19.9625963,17.75 18,17.75 L18,17.75 L12,17.75 C11.5857864,17.75 11.25,17.4142136 11.25,17 L11.25,17 L11.25,7 C11.25,6.58578644 11.5857864,6.25 12,6.25 Z M9,7.25 C9.37969577,7.25 9.69349096,7.53215388 9.74315338,7.89822944 L9.75,8 L9.75,17 C9.75,17.4142136 9.41421356,17.75 9,17.75 C8.62030423,17.75 8.30650904,17.4678461 8.25684662,17.1017706 L8.25,17 L8.25,8 C8.25,7.58578644 8.58578644,7.25 9,7.25 Z M6,9.25 C6.37969577,9.25 6.69349096,9.53215388 6.74315338,9.89822944 L6.75,10 L6.75,17 C6.75,17.4142136 6.41421356,17.75 6,17.75 C5.62030423,17.75 5.30650904,17.4678461 5.25684662,17.1017706 L5.25,17 L5.25,10 C5.25,9.58578644 5.58578644,9.25 6,9.25 Z M3,13.25 C3.37969577,13.25 3.69349096,13.5321539 3.74315338,13.8982294 L3.75,14 L3.75,16 C3.75,16.4142136 3.41421356,16.75 3,16.75 C2.62030423,16.75 2.30650904,16.4678461 2.25684662,16.1017706 L2.25,16 L2.25,14 C2.25,13.5857864 2.58578644,13.25 3,13.25 Z M12.75,7.787 L12.75,16.25 L18,16.25 C19.0981102,16.25 20.1579154,15.2713284 20.2443261,14.1473601 L20.2443261,14.1473601 L20.25,14 C20.25,12.8141547 19.099697,11.75 18,11.75 L18,11.75 L17,11.75 C16.6424892,11.75 16.3346781,11.4976552 16.2645645,11.1470871 C15.8671092,9.15981051 14.8340528,8.06555681 12.9374839,7.80908518 L12.9374839,7.80908518 L12.75,7.787 Z" id="Icon-Color" fill="#212121"></path>
    </g>
</svg>