<?xml version="1.0" encoding="UTF-8"?>
<svg width="24px" height="24px" viewBox="0 0 24 24" version="1.1" xmlns="http://www.w3.org/2000/svg" xmlns:xlink="http://www.w3.org/1999/xlink">
    <title>Icon/speakerphone</title>
    <g id="Icon/speakerphone" stroke="none" stroke-width="1" fill="none" fill-rule="evenodd">
        <path d="M10.75,19 C10.75,19.9181734 10.0428897,20.6711923 9.14352721,20.7441988 L9,20.75 L8,20.75 C7.0818266,20.75 6.32880766,20.0428897 6.2558012,19.1435272 L6.25,19 L6.25,14.7495173 L4,14.75 C3.0818266,14.75 2.32880766,14.0428897 2.2558012,13.1435272 L2.25,13 L2.25,9 C2.25,8.0818266 2.95711027,7.32880766 3.85647279,7.2558012 L4,7.25 L11.727,7.25 L16.0439999,3.6537189 C16.5359987,3.24391979 17.2206633,3.15576878 17.8004197,3.4275787 C18.3355795,3.67848017 18.6921422,4.19427017 18.7435726,4.77545645 L18.75,4.922 L18.7505323,7.32512168 C20.4619473,7.6727801 21.75,9.18596966 21.75,11 C21.75,12.8140303 20.4619473,14.3272199 18.7505323,14.6748783 L18.75,17.0776144 C18.7503291,17.7179253 18.3801762,18.3006114 17.8004197,18.5724213 C17.2689763,18.8215804 16.649381,18.7682723 16.1707348,18.441919 L16.0438617,18.346166 L11.728,14.75 L10.75,14.7495173 L10.75,19 Z M7.75,19 C7.75,19.1183467 7.83223341,19.2174868 7.94267729,19.2433973 L8,19.25 L9,19.25 C9.11834673,19.25 9.21748682,19.1677666 9.24339732,19.0573227 L9.25,19 L9.25,14.7495173 L7.75,14.7495173 L7.75,19 Z M17.0404652,4.78382874 L17.0041383,4.80616596 L12.4583026,8.59372808 L12.3785394,8.64760301 L12.2919338,8.69106128 L12.192616,8.72502984 L12.081,8.744 L12,8.75 L10.75,8.74951726 L10.75,13.2495173 L12,13.25 C12.1403619,13.25 12.2771701,13.2893678 12.3952894,13.3626237 L12.4801383,13.423834 L17.0040001,17.1937189 C17.0487273,17.2309734 17.1109695,17.2389871 17.1636746,17.2142771 C17.2032035,17.1957446 17.232014,17.161315 17.243936,17.1205385 L17.25,17.078 L17.25,4.92161443 C17.25,4.86340435 17.2163798,4.81043289 17.1636746,4.7857229 C17.1241458,4.7671904 17.0792523,4.767065 17.0404652,4.78382874 Z M9.25,13.2495173 L9.25,8.74951726 L4,8.75 C3.88165327,8.75 3.78251318,8.83223341 3.75660268,8.94267729 L3.75,9 L3.75,13 C3.75,13.1183467 3.83223341,13.2174868 3.94267729,13.2433973 L4,13.25 L9.25,13.2495173 Z M18.7502535,8.8781189 L18.7502535,13.1218811 C19.6240153,12.8129322 20.25,11.9795694 20.25,11 C20.25,10.0204306 19.6240153,9.18706778 18.7502535,8.8781189 Z" id="Icon-Color" fill="#212121"></path>
    </g>
</svg>