<?xml version="1.0" encoding="UTF-8"?>
<svg width="24px" height="24px" viewBox="0 0 24 24" version="1.1" xmlns="http://www.w3.org/2000/svg" xmlns:xlink="http://www.w3.org/1999/xlink">
    <title>Icon/stack</title>
    <g id="Icon/stack" stroke="none" stroke-width="1" fill="none" fill-rule="evenodd">
        <path d="M20.6191834,15.5766253 L20.6708204,15.6645898 C20.8406255,16.0042 20.7285929,16.41105 20.4233747,16.6191834 L20.3354102,16.6708204 L12.3354102,20.6708204 C12.1594555,20.7587977 11.95754,20.7734606 11.7729318,20.7148091 L11.6645898,20.6708204 L3.6645898,16.6708204 C3.29410593,16.4855785 3.14393767,16.0350737 3.32917961,15.6645898 C3.49898472,15.3249796 3.8916843,15.1704957 4.24132194,15.2897902 L4.3354102,15.3291796 L12,19.161 L19.6645898,15.3291796 C20.0042,15.1593745 20.41105,15.2714071 20.6191834,15.5766253 Z M20.6191834,11.5766253 L20.6708204,11.6645898 C20.8406255,12.0042 20.7285929,12.41105 20.4233747,12.6191834 L20.3354102,12.6708204 L12.3354102,16.6708204 C12.1594555,16.7587977 11.95754,16.7734606 11.7729318,16.7148091 L11.6645898,16.6708204 L3.6645898,12.6708204 C3.29410593,12.4855785 3.14393767,12.0350737 3.32917961,11.6645898 C3.49898472,11.3249796 3.8916843,11.1704957 4.24132194,11.2897902 L4.3354102,11.3291796 L12,15.161 L19.6645898,11.3291796 C20.0042,11.1593745 20.41105,11.2714071 20.6191834,11.5766253 Z M12.047,3.251 L12.1450984,3.26397664 L12.2413219,3.28979023 L12.3354102,3.32917961 L20.3354102,7.32917961 C20.8536475,7.58829823 20.8860373,8.29782219 20.4325797,8.61324149 L20.3354102,8.67082039 L12.3354102,12.6708204 C12.1594555,12.7587977 11.95754,12.7734606 11.7729318,12.7148091 L11.6645898,12.6708204 L3.6645898,8.67082039 C3.14635255,8.41170177 3.11396272,7.70217781 3.56742032,7.38675851 L3.6645898,7.32917961 L11.6739126,3.32455838 L11.7586781,3.28979023 L11.8549016,3.26397664 L11.951041,3.25147831 L12.047,3.251 Z M12,4.838 L5.676,8 L12,11.161 L18.323,8 L12,4.838 Z" id="Icon-Color" fill="#212121"></path>
    </g>
</svg>