<svg width="24" height="24" viewBox="0 0 24 24" fill="none" xmlns="http://www.w3.org/2000/svg">
<path fill-rule="evenodd" clip-rule="evenodd" d="M16.8964 21.5C16.6222 21.5 16.3784 21.4086 16.1651 21.2867L11.8386 18.4531C11.7776 18.4227 11.7472 18.4227 11.6862 18.4531L7.35968 21.2867C7.11593 21.4086 6.87218 21.5 6.59796 21.5C6.1714 21.5 5.77531 21.3172 5.53156 20.982C5.25734 20.6469 5.16593 20.2203 5.28781 19.8242L6.50656 14.4922C6.50656 14.4312 6.50656 14.3703 6.44562 14.3398L2.45421 10.7445C2.05812 10.3789 1.90577 9.8 2.05812 9.28203C2.24093 8.76406 2.69796 8.39844 3.2464 8.36797L8.39562 7.97188C8.45656 7.97188 8.48702 7.94141 8.51749 7.88047L10.437 2.88359C10.6808 2.33516 11.1683 2 11.7472 2C12.3261 2 12.8136 2.33516 13.0269 2.88359L14.9464 7.88047C14.9769 7.94141 15.0073 7.97188 15.0683 7.97188L20.2175 8.36797C20.7659 8.39844 21.223 8.76406 21.4058 9.28203C21.5886 9.8 21.4362 10.3789 21.0097 10.7445L17.0183 14.3398C16.9878 14.3703 16.9573 14.4312 16.9573 14.4922L18.2066 19.8242C18.298 20.2203 18.2066 20.6469 17.9628 20.982C17.7191 21.3172 17.2925 21.5 16.8964 21.5ZM11.7472 17.2039C12.0214 17.2039 12.2651 17.2953 12.5089 17.4172L16.8355 20.2508C16.8964 20.3117 16.9878 20.2812 17.0487 20.2203C17.0792 20.1898 17.0792 20.1594 17.0792 20.0984L15.83 14.7664C15.7081 14.2789 15.8909 13.7609 16.2566 13.4258L20.2784 9.86094C20.3394 9.8 20.3394 9.73906 20.3089 9.70859C20.2784 9.64766 20.248 9.61719 20.187 9.61719L15.0378 9.22109C14.5198 9.19062 14.0628 8.825 13.88 8.3375L11.8995 3.31016C11.8386 3.18828 11.6862 3.18828 11.6253 3.31016L9.70578 8.30703C9.52296 8.79453 9.06593 9.12969 8.54796 9.19063L3.36827 9.58672C3.30734 9.58672 3.2464 9.61719 3.2464 9.67812C3.2464 9.70859 3.21593 9.8 3.27687 9.83047L7.29874 13.3953C7.66437 13.7305 7.84718 14.2484 7.72531 14.7359L6.47609 20.068C6.47609 20.1289 6.47609 20.1594 6.50656 20.1898C6.56749 20.2508 6.62843 20.2812 6.71984 20.2203L11.0464 17.3867C11.2292 17.2648 11.473 17.2039 11.7472 17.2039Z" fill="#C4C4C4"/>
</svg>
