<?xml version="1.0" encoding="UTF-8"?>
<svg width="24px" height="24px" viewBox="0 0 24 24" version="1.1" xmlns="http://www.w3.org/2000/svg" xmlns:xlink="http://www.w3.org/1999/xlink">
    <title>Icon/tool</title>
    <g id="Icon/tool" stroke="none" stroke-width="1" fill="none" fill-rule="evenodd">
        <path d="M6.1767767,2.8232233 C8.75803478,1.59043445 11.8360534,2.11853895 13.8587572,4.14124279 C15.6857155,5.9682011 16.2933545,8.65610297 15.4854509,11.0612756 L15.389,11.328 L21.0303301,16.9696699 C22.1067976,18.0461374 22.1498563,19.7646829 21.1595062,20.8925167 L21.0303301,21.0303301 C19.9538626,22.1067976 18.2353171,22.1498563 17.1074833,21.1595062 L16.9696699,21.0303301 L11.328,15.389 L11.3178387,15.3934642 C8.93431978,16.3027283 6.22722616,15.7894418 4.34023065,14.049828 L4.14124279,13.8587572 C2.11853895,11.8360534 1.59043445,8.75803478 2.8232233,6.1767767 C3.03037235,5.74304049 3.57803415,5.62063408 3.9482751,5.89842081 L4.03033009,5.96966991 L7.311,9.25 L9.25,9.25 L9.25,7.311 L5.96966991,4.03033009 C5.62978918,3.69044935 5.69693724,3.13330672 6.08225074,2.87683579 L6.1767767,2.8232233 Z M12.798097,5.20190296 C11.505814,3.90961995 9.65970016,3.40170505 7.92883494,3.79295414 L7.868,3.807 L10.5303301,6.46966991 C10.6428519,6.58219174 10.7159276,6.72678598 10.7406569,6.88196594 L10.75,7 L10.75,10 C10.75,10.3796958 10.4678461,10.693491 10.1017706,10.7431534 L10,10.75 L7,10.75 L6.94768643,10.7481845 L6.89822944,10.7431534 L6.80062029,10.7232093 L6.70806615,10.6910613 L6.64528991,10.6610428 L6.548,10.598 C6.51634926,10.5741329 6.49229046,10.5529506 6.46966991,10.5303301 L3.807,7.868 L3.79295414,7.92883494 C3.41871588,9.58444515 3.86715318,11.3455002 5.03780195,12.6264526 L5.20190296,12.798097 C6.77511706,14.3713111 9.16913152,14.7820591 11.1767767,13.8232233 C11.4277323,13.7033688 11.7209471,13.7333126 11.9408912,13.8932327 L12.0303301,13.9696699 L18.0303301,19.9696699 C18.565864,20.5052038 19.434136,20.5052038 19.9696699,19.9696699 C20.4695016,19.4698383 20.5028237,18.6801548 20.0696362,18.1416762 L19.9696699,18.0303301 L13.9696699,12.0303301 C13.744925,11.8055852 13.6862468,11.4635831 13.8232233,11.1767767 C14.7820591,9.16913152 14.3713111,6.77511706 12.798097,5.20190296 Z" id="Icon-Color" fill="#212121"></path>
    </g>
</svg>