<?xml version="1.0" encoding="UTF-8"?>
<svg width="24px" height="24px" viewBox="0 0 24 24" version="1.1" xmlns="http://www.w3.org/2000/svg" xmlns:xlink="http://www.w3.org/1999/xlink">
    <title>Icon/umbrella</title>
    <g id="Icon/umbrella" stroke="none" stroke-width="1" fill="none" fill-rule="evenodd">
        <path d="M12,3.25 C16.8324916,3.25 20.75,7.16750844 20.75,12 C20.75,12.4142136 20.4142136,12.75 20,12.75 L20,12.75 L12.75,12.75 L12.75,18 C12.75,18.6903559 13.3096441,19.25 14,19.25 C14.6472087,19.25 15.1795339,18.7581253 15.2435464,18.1278052 L15.25,18 C15.25,17.5857864 15.5857864,17.25 16,17.25 C16.4142136,17.25 16.75,17.5857864 16.75,18 C16.75,19.5187831 15.5187831,20.75 14,20.75 C12.5374682,20.75 11.3415957,19.6082954 11.2550188,18.1675223 L11.25,18 L11.25,12.75 L4,12.75 C3.62030423,12.75 3.30650904,12.4678461 3.25684662,12.1017706 L3.25,12 C3.25,7.16750844 7.16750844,3.25 12,3.25 Z M12,4.75 C8.31626072,4.75 5.27420171,7.49735986 4.81104821,11.0548544 L4.81104821,11.0548544 L4.788,11.25 L19.211,11.25 L19.1889518,11.0548544 C18.7358668,7.5746967 15.814784,4.86983329 12.2393142,4.75387522 L12.2393142,4.75387522 Z" id="Icon-Color" fill="#212121"></path>
    </g>
</svg>