<?xml version="1.0" encoding="UTF-8"?>
<svg width="24px" height="24px" viewBox="0 0 24 24" version="1.1" xmlns="http://www.w3.org/2000/svg" xmlns:xlink="http://www.w3.org/1999/xlink">
    <title>Icon/arrows/circle/fill/up</title>
    <g id="Icon/arrows/circle/fill/up" stroke="none" stroke-width="1" fill="none" fill-rule="evenodd">
        <path d="M12,21.5 C17.3847763,21.5 21.75,17.1347763 21.75,11.75 C21.75,6.36522369 17.3847763,2 12,2 C6.61522369,2 2.25,6.36522369 2.25,11.75 C2.25,17.1347763 6.61522369,21.5 12,21.5 Z M7.39347142,13.3768048 C7.18736138,13.5829148 7.18736138,13.9170852 7.39347142,14.1231952 C7.58084419,14.310568 7.87405196,14.3276019 8.08066746,14.1742969 L8.13986191,14.1231952 L11.9888889,10.2744074 L15.8379159,14.1231952 C16.0252886,14.310568 16.3184964,14.3276019 16.5251119,14.1742969 L16.5843064,14.1231952 C16.7716791,13.9358225 16.788713,13.6426147 16.635408,13.4359992 L16.5843064,13.3768048 L12.3620841,9.15458253 C12.1747114,8.96720977 11.8815036,8.95017588 11.6748881,9.10348087 L11.6156936,9.15458253 L7.39347142,13.3768048 Z" id="Icon-Color" fill="#212121"></path>
    </g>
</svg>