<?xml version="1.0" encoding="UTF-8"?>
<svg width="24px" height="24px" viewBox="0 0 24 24" version="1.1" xmlns="http://www.w3.org/2000/svg" xmlns:xlink="http://www.w3.org/1999/xlink">
    <title>Icon/arrows/circle/outline/up</title>
    <g id="Icon/arrows/circle/outline/up" stroke="none" stroke-width="1" fill="none" fill-rule="evenodd">
        <path d="M12.25,2.25 C6.86522369,2.25 2.5,6.61522369 2.5,12 C2.5,17.3847763 6.86522369,21.75 12.25,21.75 C17.6347763,21.75 22,17.3847763 22,12 C22,6.61522369 17.6347763,2.25 12.25,2.25 Z M12.25,3.75 C16.8063492,3.75 20.5,7.44365081 20.5,12 C20.5,16.5563492 16.8063492,20.25 12.25,20.25 C7.69365081,20.25 4,16.5563492 4,12 C4,7.44365081 7.69365081,3.75 12.25,3.75 Z M14.1071629,6.91271845 C14.3241208,6.69576052 14.6758792,6.69576052 14.8928371,6.91271845 C15.0900716,7.10995295 15.108002,7.41859271 14.9466283,7.63608271 L14.8928371,7.69839266 L10.8414815,11.75 L14.8928371,15.8016073 C15.0900716,15.9988418 15.108002,16.3074816 14.9466283,16.5249716 L14.8928371,16.5872815 C14.6956026,16.784516 14.3869628,16.8024464 14.1694728,16.6410728 L14.1071629,16.5872815 L9.66271845,12.1428371 C9.46548396,11.9456026 9.44755356,11.6369628 9.60892723,11.4194728 L9.66271845,11.3571629 L14.1071629,6.91271845 Z" id="Icon-Color" fill="#212121" transform="translate(12.250000, 12.000000) rotate(-270.000000) translate(-12.250000, -12.000000) "></path>
    </g>
</svg>