<?xml version="1.0" encoding="UTF-8"?>
<svg width="24px" height="24px" viewBox="0 0 24 24" version="1.1" xmlns="http://www.w3.org/2000/svg" xmlns:xlink="http://www.w3.org/1999/xlink">
    <title>Icon/brand/vimeo</title>
    <g id="Icon/brand/vimeo" stroke="none" stroke-width="1" fill="none" fill-rule="evenodd">
        <path d="M18.5,3.25 C15.8751926,3.25 13.7337945,4.95147438 13.2596404,7.88013478 C13.1571844,8.51296479 13.8444967,8.97431504 14.3913652,8.63979159 C14.9770117,8.28154734 15.1221515,8.31179873 15.2119353,8.54767742 C15.3822269,8.99506533 15.2578818,9.8496661 14.8363041,10.6507039 C14.3574314,11.5633829 13.8876472,12.2839928 13.4752262,12.7618414 L13.3907453,12.8570544 L13.2386654,13.0155517 L13.113,13.134 L13.0499097,13.0088219 L12.9750707,12.8383977 C12.9395924,12.7528205 12.9033888,12.6590485 12.8663214,12.5566529 L12.7523883,12.2231671 L12.6324392,11.8353683 C12.6119002,11.7660662 12.5910757,11.6943939 12.5699486,11.6202978 L12.4394147,11.1462069 L12.3007839,10.6113731 L12.1995313,10.1994988 L12.1445883,9.94587871 L12.0898966,9.66226283 L12.0008055,9.14340249 L11.8199761,8.00271928 L11.77141,7.71177105 L11.6700459,7.15870105 C11.147277,4.48901329 10.3668671,3.25 8.5,3.25 C8.04628871,3.25 7.58332936,3.35822427 7.11272379,3.55991236 C6.17707479,3.96090479 5.22593964,4.71993875 4.26724014,5.73503235 C3.78231562,6.24848183 3.32607942,6.79596528 2.91047776,7.34334307 L2.71292916,7.607534 L2.48270119,7.92798356 L2.37596228,8.08397485 C2.17765099,8.38144179 2.21687163,8.7775318 2.46966991,9.03033009 L3.46966991,10.0303301 C3.73159969,10.2922599 4.14552429,10.3237336 4.44404664,10.1044192 L4.5869634,10.0063007 C4.67393966,9.94967496 4.78210532,9.88382597 4.90206687,9.81832243 C5.05421125,9.73524585 5.19875429,9.66859009 5.32582608,9.62450465 L5.40571599,9.59915517 L5.472,9.582 L5.55524464,9.82850274 L5.68443987,10.27406 L5.8997329,11.0833888 L6.1150348,11.934127 L6.43803457,13.2534867 L6.99284515,15.5388581 L7.26565281,16.6023135 L7.40562904,17.1116161 L7.49094671,17.4032135 L7.5709166,17.6596619 L7.68281692,17.9844326 L7.75336254,18.1650135 L7.82171655,18.3200493 C8.82761508,20.4621096 10.7612085,21.6054332 12.9248707,20.1180493 L13.5884589,19.6173219 L14.1776974,19.1640119 L14.7077268,18.7442526 C14.9604627,18.5404494 15.196673,18.3440277 15.4248742,18.1471873 L15.8731215,17.7506372 L16.3151522,17.3391038 C16.5371369,17.1272802 16.762468,16.9046377 16.9996624,16.6633765 C19.5238343,14.095925 21.2144252,11.2755204 21.7397954,8.12329924 C22.2145071,5.2782367 20.716218,3.25 18.5,3.25 Z M18.5,4.75 C19.7386424,4.75 20.5896831,5.90205536 20.2602271,7.87656552 C19.7925307,10.6827441 18.256333,13.2455752 15.9300251,15.61177 C15.3317546,16.2202985 14.8115451,16.7050084 14.2160049,17.20626 L13.7528284,17.5874933 L13.2470224,17.9880886 L12.6842065,18.4212046 L12.05,18.9 C10.8713823,19.7094524 9.84684621,19.1036497 9.17887369,17.6812046 L9.12324882,17.5520939 L9.06239411,17.3890866 L8.99575188,17.1904522 L8.88371705,16.8219147 L8.70887607,16.1896862 L8.50084701,15.3838021 L8.11681658,13.8190895 L7.4632167,11.1277388 L7.27100203,10.3774566 L7.14694111,9.92093617 L7.07200617,9.66168762 L6.96231579,9.31364239 C6.82301645,8.90003917 6.70804155,8.67764482 6.57546827,8.5190257 C6.14085967,7.99575135 5.51744963,7.97031622 4.83417392,8.20736735 L4.61922058,8.29000032 C4.47517643,8.35057287 4.32971071,8.42179995 4.18319696,8.50180199 L4.106,8.545 L3.979,8.418 L4.10514724,8.25040693 C4.49032683,7.74309722 4.91299688,7.23589317 5.35775986,6.76496765 C6.18796342,5.88592859 6.99384358,5.24281241 7.70360274,4.93862991 C7.9983033,4.81232967 8.26493578,4.75 8.5,4.75 C9.21464686,4.75 9.6616843,5.29449645 10.0132257,6.6318868 L10.1112162,7.03578825 C10.1271645,7.10677257 10.1429333,7.17960849 10.1585414,7.25432281 L10.250409,7.72536426 C10.2654482,7.80769951 10.2803638,7.89196682 10.2951744,7.97819301 L10.5557692,9.59831544 L10.6178297,9.95140963 L10.677565,10.2593036 L10.7388766,10.5408562 L10.9128983,11.2419854 L11.0478713,11.7575535 L11.177793,12.2259453 L11.3041945,12.6487536 C11.7839426,14.1841866 12.2198457,14.75 13,14.75 C13.9495587,14.75 15.0458534,13.4797862 16.1641336,11.3484631 C16.7692905,10.1986087 16.9562455,8.91370207 16.6138147,8.01407258 L16.5550787,7.87388252 C16.2642168,7.2410308 15.7415096,6.90780826 15.101,6.893 L15.1176999,6.85671668 C15.7539428,5.48443308 16.9997491,4.75 18.5,4.75 Z" id="Icon-Color" fill="#212121"></path>
    </g>
</svg>