<?xml version="1.0" encoding="UTF-8"?>
<svg width="24px" height="24px" viewBox="0 0 24 24" version="1.1" xmlns="http://www.w3.org/2000/svg" xmlns:xlink="http://www.w3.org/1999/xlink">
    <title>Icon/wallet</title>
    <g id="Icon/wallet" stroke="none" stroke-width="1" fill="none" fill-rule="evenodd">
        <path d="M16,3.25 C16.9181734,3.25 17.6711923,3.95711027 17.7441988,4.85647279 L17.75,5 L17.75,7.25 L18,7.25 C18.9181734,7.25 19.6711923,7.95711027 19.7441988,8.85647279 L19.75,9 L19.75,11.25 L20,11.25 C20.3796958,11.25 20.693491,11.5321539 20.7431534,11.8982294 L20.75,12 L20.75,16 C20.75,16.3796958 20.4678461,16.693491 20.1017706,16.7431534 L20,16.75 L19.75,16.75 L19.75,19 C19.75,19.9181734 19.0428897,20.6711923 18.1435272,20.7441988 L18,20.75 L6,20.75 C4.53746816,20.75 3.34159572,19.6082954 3.25501879,18.1675223 L3.25,18 L3.25,6 C3.25,4.53746816 4.3917046,3.34159572 5.83247767,3.25501879 L6,3.25 L16,3.25 Z M4.75025471,8.4502754 L4.75,18 C4.75,18.6472087 5.24187466,19.1795339 5.87219476,19.2435464 L6,19.25 L18,19.25 C18.1183467,19.25 18.2174868,19.1677666 18.2433973,19.0573227 L18.25,19 L18.25,16.75 L16,16.75 C14.4812169,16.75 13.25,15.5187831 13.25,14 C13.25,12.5374682 14.3917046,11.3415957 15.8324777,11.2550188 L16,11.25 L18.25,11.25 L18.25,9 C18.25,8.88165327 18.1677666,8.78251318 18.0573227,8.75660268 L18,8.75 L6,8.75 C5.5499902,8.75 5.12522627,8.64190962 4.75025471,8.4502754 Z M19.25,12.75 L16,12.75 C15.3527913,12.75 14.8204661,13.2418747 14.7564536,13.8721948 L14.75,14 C14.75,14.6472087 15.2418747,15.1795339 15.8721948,15.2435464 L16,15.25 L19.25,15.25 L19.25,12.75 Z M16,4.75 L6,4.75 C5.30964406,4.75 4.75,5.30964406 4.75,6 C4.75,6.64720869 5.24187466,7.1795339 5.87219476,7.24354639 L6,7.25 L16.25,7.25 L16.25,5 C16.25,4.88165327 16.1677666,4.78251318 16.0573227,4.75660268 L16,4.75 Z" id="Icon-Color" fill="#212121"></path>
    </g>
</svg>