<?xml version="1.0" encoding="UTF-8"?>
<svg width="24px" height="24px" viewBox="0 0 24 24" version="1.1" xmlns="http://www.w3.org/2000/svg" xmlns:xlink="http://www.w3.org/1999/xlink">
    <title>Icon/wifi</title>
    <g id="Icon/wifi" stroke="none" stroke-width="1" fill="none" fill-rule="evenodd">
        <path d="M12.01,17.25 C12.4242136,17.25 12.76,17.5857864 12.76,18 C12.76,18.3796958 12.4778461,18.693491 12.1117706,18.7431534 L12,18.75 C11.5857864,18.75 11.25,18.4142136 11.25,18 C11.25,17.6203042 11.5321539,17.306509 11.8982294,17.2568466 L12.01,17.25 Z M15.35825,14.6415898 C15.6511874,14.9344388 15.6512591,15.4093126 15.3584102,15.70225 C15.0655612,15.9951874 14.5906874,15.9952591 14.29775,15.7024102 C13.0286255,14.4336689 10.9713745,14.4336689 9.70225,15.7024102 C9.40931256,15.9952591 8.93443883,15.9951874 8.64158984,15.70225 C8.34874085,15.4093126 8.34881256,14.9344388 8.64175,14.6415898 C10.4966243,12.7872756 13.5033757,12.7872756 15.35825,14.6415898 Z M12,9.2497085 C14.3207224,9.2497085 16.5463875,10.1716427 18.1873437,11.8126836 C18.4802294,12.1055843 18.4802172,12.5804581 18.1873164,12.8733438 C17.8944157,13.1662294 17.4195419,13.1662172 17.1266562,12.8733164 C15.7670068,11.5135969 13.9228843,10.7497085 12,10.7497085 C10.0771157,10.7497085 8.23299323,11.5135969 6.87334375,12.8733164 C6.58045808,13.1662172 6.10558434,13.1662294 5.81268358,12.8733438 C5.51978281,12.5804581 5.51977058,12.1055843 5.81265625,11.8126836 C7.45361252,10.1716427 9.67927759,9.2497085 12,9.2497085 Z M21.043692,8.98303684 C21.3374871,9.27502535 21.3389517,9.74989683 21.0469632,10.043692 C20.7549746,10.3374871 20.2801032,10.3389517 19.986308,10.0469632 C15.5631059,5.65096056 8.43876206,5.65096056 4.04538666,10.0452735 C3.75252469,10.338198 3.27765096,10.3382486 2.9847265,10.0453867 C2.69180203,9.75252469 2.69175137,9.27765096 2.98461334,8.9847265 C7.96323794,4.00503944 16.0348941,4.00503944 21.043692,8.98303684 Z" id="Icon-Color" fill="#212121"></path>
    </g>
</svg>