<?xml version="1.0" encoding="UTF-8"?>
<svg width="24px" height="24px" viewBox="0 0 24 24" version="1.1" xmlns="http://www.w3.org/2000/svg" xmlns:xlink="http://www.w3.org/1999/xlink">
    <title>Icon/wiper</title>
    <g id="Icon/wiper" stroke="none" stroke-width="1" fill="none" fill-rule="evenodd">
        <path d="M12,4.18725393 C15.6592574,4.18725393 19.1421287,5.75947856 21.5625,8.50392163 C21.7982225,8.77120582 21.810385,9.16197116 21.606342,9.44156973 L21.5303301,9.53033009 L16.0303301,15.0303301 C15.7395059,15.3211542 15.268718,15.3235084 14.975,15.0356071 C14.1597763,14.236528 13.1030926,13.8316364 12.0431744,13.8209322 L12.4718968,16.3143628 C13.2091695,16.5203318 13.75,17.197007 13.75,18 C13.75,18.9664983 12.9664983,19.75 12,19.75 C11.0335017,19.75 10.25,18.9664983 10.25,18 C10.25,17.4084513 10.5435072,16.8854548 10.9928372,16.5686951 L10.5639865,14.0696723 C10.0037962,14.2703411 9.47724397,14.5923194 9.025,15.0356071 C8.75798364,15.2973355 8.34462848,15.3191835 8.05317926,15.1024923 L7.96966991,15.0303301 L2.46966991,9.53033009 L2.449,9.506 L2.42617827,9.48309423 L2.36246767,9.39541031 L2.33895724,9.35471009 L2.3128926,9.30108571 L2.29538635,9.25746609 L2.27755578,9.20175791 L2.26633908,9.15612035 L2.25655997,9.09906438 L2.25181545,9.05231357 L2.25181545,8.94768643 L2.26633908,8.84387965 L2.28064604,8.78716421 L2.289,8.765 L2.29538635,8.74253391 L2.33895724,8.64528991 L2.39705176,8.55378835 L2.4375,8.50392163 C4.77719224,5.85095999 8.10973171,4.29337137 11.634695,4.19247987 L12,4.18725393 Z M4.28027453,8.75377191 L4.044,8.983 L8.539,13.478 L8.56037648,13.4621577 C9.09793889,13.059955 9.68975857,12.7640434 10.3071581,12.5744228 L9.18481049,6.04512237 C7.35712669,6.51757894 5.66714623,7.44535102 4.28027453,8.75377191 Z M12,5.68725393 C11.5489237,5.68725393 11.1008851,5.71433005 10.658016,5.76751988 L11.7865198,12.3246551 C12.9847738,12.2803984 14.1942082,12.6088954 15.2264895,13.3101462 L15.46,13.478 L19.955,8.983 L19.7197255,8.75377191 C17.724692,6.87159094 15.1024292,5.77709447 12.345307,5.69254624 L12,5.68725393 Z" id="Icon-Color" fill="#212121"></path>
    </g>
</svg>