<?xml version="1.0" encoding="UTF-8"?>
<svg width="24px" height="24px" viewBox="0 0 24 24" version="1.1" xmlns="http://www.w3.org/2000/svg" xmlns:xlink="http://www.w3.org/1999/xlink">
    <title>Icon/social/outline/youtube</title>
    <g id="Icon/social/outline/youtube" stroke="none" stroke-width="1" fill="none" fill-rule="evenodd">
        <path d="M12,2 C17.5228475,2 22,6.4771525 22,12 C22,17.5228475 17.5228475,22 12,22 C6.4771525,22 2,17.5228475 2,12 C2,6.4771525 6.4771525,2 12,2 Z M12,2.75 C6.89136606,2.75 2.75,6.89136606 2.75,12 C2.75,17.1086339 6.89136606,21.25 12,21.25 C17.1086339,21.25 21.25,17.1086339 21.25,12 C21.25,6.89136606 17.1086339,2.75 12,2.75 Z M14.5641026,8 C15.8555992,8 16.9123454,9.01157072 16.9948187,10.2904187 L17,10.4516129 L17,13.5483871 C17,14.848216 15.9949137,15.9117799 14.7242635,15.9947852 L14.5641026,16 L9.43589744,16 C8.14440079,16 7.08765463,14.9884293 7.00518133,13.7095813 L7,13.5483871 L7,10.4516129 C7,9.15178402 8.0050863,8.08822014 9.27573651,8.00521476 L9.43589744,8 L14.5641026,8 Z M14.5641026,8.77419355 L9.43589744,8.77419355 C8.56386888,8.77419355 7.84826008,9.44822684 7.77534843,10.3068787 L7.76923077,10.4516129 L7.76923077,13.5483871 C7.76923077,14.4260416 8.43894333,15.1462673 9.29209106,15.2196493 L9.43589744,15.2258065 L14.5641026,15.2258065 C15.4361311,15.2258065 16.1517399,14.5517732 16.2246516,13.6931213 L16.2307692,13.5483871 L16.2307692,10.4516129 C16.2307692,9.52519977 15.4845771,8.77419355 14.5641026,8.77419355 Z M11.1069283,10.0879452 L11.172242,10.1196802 L13.7363445,11.6680673 C13.9604234,11.803382 13.9828313,12.111078 13.8035682,12.280869 L13.7363445,12.3319327 L11.172242,13.8803198 C10.9372493,14.0222251 10.6436161,13.8778847 10.5963091,13.621082 L10.5897436,13.5483871 L10.5897436,10.4516129 C10.5897436,10.1757987 10.8637941,9.99664838 11.1069283,10.0879452 Z M11.3589744,11.1354839 L11.3589744,12.864 L12.7907692,12 L11.3589744,11.1354839 Z" id="Icon-Color" fill="#212121"></path>
    </g>
</svg>