<?xml version="1.0" encoding="UTF-8"?>
<svg width="24px" height="24px" viewBox="0 0 24 24" version="1.1" xmlns="http://www.w3.org/2000/svg" xmlns:xlink="http://www.w3.org/1999/xlink">
    <title>Icon/social/default/youtube</title>
    <g id="Icon/social/default/youtube" stroke="none" stroke-width="1" fill="none" fill-rule="evenodd">
        <path d="M17,4.25 C19.6233526,4.25 21.75,6.37664744 21.75,9 L21.75,9 L21.75,15 C21.75,17.6233526 19.6233526,19.75 17,19.75 L17,19.75 L7,19.75 C4.37664744,19.75 2.25,17.6233526 2.25,15 L2.25,15 L2.25,9 C2.25,6.37664744 4.37664744,4.25 7,4.25 L7,4.25 Z M17,5.75 L7,5.75 C5.20507456,5.75 3.75,7.20507456 3.75,9 L3.75,9 L3.75,15 C3.75,16.7949254 5.20507456,18.25 7,18.25 L7,18.25 L17,18.25 C18.7949254,18.25 20.25,16.7949254 20.25,15 L20.25,15 L20.25,9 C20.25,7.20507456 18.7949254,5.75 17,5.75 L17,5.75 Z M9.25,9 C9.25,8.41702914 9.88597843,8.05694427 10.3858718,8.35688031 L10.3858718,8.35688031 L15.3858718,11.3568803 C15.8713761,11.6481829 15.8713761,12.3518171 15.3858718,12.6431197 L15.3858718,12.6431197 L10.3858718,15.6431197 C9.88597843,15.9430557 9.25,15.5829709 9.25,15 L9.25,15 Z M10.75,10.325 L10.75,13.674 L13.542,12 L10.75,10.325 Z" id="Icon-Color" fill="#212121"></path>
    </g>
</svg>