<?xml version="1.0" encoding="UTF-8"?>
<svg width="101px" height="240px" viewBox="0 0 101 240" version="1.1" xmlns="http://www.w3.org/2000/svg" xmlns:xlink="http://www.w3.org/1999/xlink">
    <title>Vector/Plant 03/Dark</title>
    <g id="Vector/Plant-03/Dark" stroke="none" stroke-width="1" fill="none" fill-rule="evenodd">
        <path d="M51.3678436,25 C51.4450548,25.1317281 59.139642,38.4288549 63.6851564,59.6024955 C69.6912016,87.6742868 67.5041785,116.862171 57.3803964,143.745461 C33.1874951,208.273257 51.1735914,238.820214 51.3578883,239.12154 L49.9066372,240 C49.7115348,239.683853 45.1112279,232.066681 43.5163515,216.249429 C42.0534873,201.737934 42.9941344,177.277675 55.7863361,143.157629 C80.020776,78.5194758 50.2013695,26.3658496 49.8966819,25.8463477 L51.3678436,25 Z M79,193 L56.7777778,240 C56.7777778,240 45.6666667,213.142857 79,193 Z M0,211.001547 C38.9655766,210.759502 44,239 44,239 L44,239 Z M41,125 C47.0751322,125 52,129.924868 52,136 C52,142.075132 47.0751322,147 41,147 C34.9248678,147 30,142.075132 30,136 C30,129.924868 34.9248678,125 41,125 Z M90,94 C96.0751322,94 101,98.9248678 101,105 C101,111.075132 96.0751322,116 90,116 C83.9248678,116 79,111.075132 79,105 C79,98.9248678 83.9248678,94 90,94 Z M46,72 C52.0751322,72 57,76.9248678 57,83 C57,89.0751322 52.0751322,94 46,94 C39.9248678,94 35,89.0751322 35,83 C35,76.9248678 39.9248678,72 46,72 Z M79,40 C85.0751322,40 90,44.9248678 90,51 C90,57.0751322 85.0751322,62 79,62 C72.9248678,62 68,57.0751322 68,51 C68,44.9248678 72.9248678,40 79,40 Z M41,0 C47.0751322,0 52,4.92486775 52,11 C52,17.0751322 47.0751322,22 41,22 C34.9248678,22 30,17.0751322 30,11 C30,4.92486775 34.9248678,0 41,0 Z" id="Combined-Shape" fill="#FFFFFF"></path>
    </g>
</svg>