<?xml version="1.0" encoding="UTF-8"?>
<svg width="90px" height="232px" viewBox="0 0 90 232" version="1.1" xmlns="http://www.w3.org/2000/svg" xmlns:xlink="http://www.w3.org/1999/xlink">
    <title>Vector/Plant 04/Dark</title>
    <g id="Vector/Plant-04/Dark" stroke="none" stroke-width="1" fill="none" fill-rule="evenodd">
        <path d="M48.4216635,63 C48.4346468,63.0085518 48.6322045,63.1417289 48.9690149,63.4069982 L49.1341886,63.5388367 C51.3183311,65.3047389 57.9052898,71.5054331 60.1922595,83.5747191 C61.7743431,91.9243156 61.0300121,101.44507 57.9799706,111.872354 C54.1839158,124.849584 46.7816793,139.288712 35.9789467,154.788765 C31.4306888,161.286773 27.921632,168.471075 25.5810359,176.077027 C20.3555708,193.152957 19.61629,216.610519 45.7698801,231.389868 L45.4342282,232 C33.4101326,225.205458 25.9247441,215.92904 23.185765,204.42872 C21.1520697,195.890075 21.7364915,186.281623 24.9225388,175.870217 C27.2844248,168.194043 30.8256436,160.943396 35.4157326,154.385397 C59.7667369,119.446626 61.9645506,96.680426 59.5203076,83.7342538 C56.8404151,69.5391364 48.1334911,63.6437615 48.0457956,63.5859194 L48.4216635,63 Z M24.524762,107 C24.6554296,107.08737 27.7374676,109.201954 28.7079228,114.40481 C29.9715877,121.17959 27.130789,129.689394 20.2644004,139.698115 C18.6984114,141.970576 17.4902987,144.483168 16.6845961,147.143274 C14.8942825,153.086612 14.6392584,161.249857 23.5911697,166.388601 L23.2600872,167 C13.9098826,161.632835 14.1702044,153.126621 16.0350837,146.936054 C16.8619195,144.205641 18.101741,141.626588 19.7088592,139.293936 C28.1234925,127.028724 28.8839166,119.061073 28.0401438,114.536804 C27.1236517,109.623915 24.1837336,107.606959 24.1541814,107.58712 L24.524762,107 Z M85.1445382,121.217446 C85.1445382,121.217446 84.526209,123.053872 83.518427,125.594321 L83.2881577,126.169994 C81.3173744,131.056172 78.0691594,138.069038 74.9970273,140.0171 C70.1430565,143.095036 63.6684657,141.664591 60.535624,136.82211 C57.4027823,131.979629 58.7980331,125.558863 63.6520038,122.480927 C68.505976,119.40299 85.1445382,121.217446 85.1445382,121.217446 Z M20.6398056,88.9253238 C24.8432797,92.7931138 25.1437727,99.3672767 21.3109754,103.609128 C17.4781782,107.850979 10.9634931,108.154215 6.76001896,104.286425 C2.55654359,100.418634 0,84 0,84 C0,84 16.4363303,85.0575363 20.6398056,88.9253238 Z M66.4752373,29 L66.846318,29.5867732 C66.8165992,29.6069488 63.8617384,31.6503992 62.9547089,36.5644577 C62.1202354,41.0861353 62.8889602,49.0469025 71.2911462,61.2937529 C72.8982012,63.6263703 74.1380189,66.205343 74.9649239,68.9356601 C76.8297872,75.1261879 77.0901261,83.6323546 67.7398993,89 L67.4088336,88.3882646 C76.3607499,83.2493788 76.1057256,75.0861833 74.3154077,69.1432181 C73.5097092,66.4830734 72.3015974,63.9704378 70.7356048,61.6979302 C63.8692089,51.6894373 61.0284119,43.17951 62.2920776,36.4047686 C63.26253,31.201942 66.3445833,29.0873693 66.4752373,29 Z M45.6396532,44.9252961 C48.3588042,47.4273034 49.5486768,51.20315 48.7610577,54.830511 C47.9734385,58.457872 45.3279856,61.385665 41.8212155,62.5110186 C38.3144454,63.6363722 34.4791199,62.7883185 31.759969,60.2863111 C27.5565247,56.4185418 25,40 25,40 C25,40 41.4362089,41.0575303 45.6396532,44.9252961 Z M89.5829925,33 C89.5829925,33 89.6015457,33.1893977 89.6308254,33.533506 L89.6518483,33.785451 C89.9248714,37.1203804 90.7891552,50.126618 88.0680437,54.2940985 C86.0432043,57.3977384 82.5147274,59.1858762 78.8123333,58.9846453 C75.1099391,58.7834145 71.7964007,56.6234025 70.1204377,53.3186183 C68.4444747,50.0138341 68.6608376,46.0666129 70.6879893,42.9644803 C73.8191278,38.1690232 89.5829925,33 89.5829925,33 Z M84.5829925,0 C84.5829925,0 84.6015457,0.189397669 84.6308254,0.533505996 L84.6518483,0.785450991 C84.9248714,4.12038039 85.7891552,17.126618 83.0680437,21.2940985 C81.0432043,24.3977384 77.5147274,26.1858762 73.8123333,25.9846453 C70.1099391,25.7834145 66.7964007,23.6234025 65.1204377,20.3186183 C63.4444747,17.0138341 63.6608376,13.0666129 65.6879893,9.9644803 C68.8191278,5.16902318 84.5829925,0 84.5829925,0 Z" id="Color" fill="#FFFFFF"></path>
    </g>
</svg>