<?xml version="1.0" encoding="UTF-8"?>
<svg width="144px" height="80px" viewBox="0 0 144 80" version="1.1" xmlns="http://www.w3.org/2000/svg" xmlns:xlink="http://www.w3.org/1999/xlink">
    <title>Vector/Bubble/Dark</title>
    <g id="Vector/Bubble/Dark" stroke="none" stroke-width="1" fill="none" fill-rule="evenodd">
        <rect id="Background" fill="#121212" x="-3.26849658e-13" y="-2.48689958e-13" width="143.326653" height="79.7931034" rx="7"></rect>
        <path d="M82.0634372,44.9655172 C85.2247913,44.9655172 87.7875752,47.5283011 87.7875752,50.6896552 C87.7875752,53.8510094 85.2247913,56.4137932 82.0634372,56.4137932 L25.4315528,56.4137932 C22.2701987,56.4137932 19.7074148,53.8510094 19.7074148,50.6896552 C19.7074148,47.5283011 22.2701987,44.9655172 25.4315528,44.9655172 L82.0634372,44.9655172 Z M124.165642,23.4482759 C127.326996,23.4482759 129.88978,26.0110597 129.88978,29.1724139 C129.88978,32.333768 127.326996,34.8965519 124.165642,34.8965519 L25.4315528,34.8965519 C22.2701987,34.8965519 19.7074148,32.333768 19.7074148,29.1724139 C19.7074148,26.0110597 22.2701987,23.4482759 25.4315528,23.4482759 L124.165642,23.4482759 Z" id="Lines" fill="#FFFFFF"></path>
    </g>
</svg>