<?xml version="1.0" encoding="UTF-8"?>
<svg width="24px" height="24px" viewBox="0 0 24 24" version="1.1" xmlns="http://www.w3.org/2000/svg" xmlns:xlink="http://www.w3.org/1999/xlink">
    <title>Icon/a-b</title>
    <g id="Icon/a-b" stroke="none" stroke-width="1" fill="none" fill-rule="evenodd">
        <path d="M12,5.25 C12.3796958,5.25 12.693491,5.53215388 12.7431534,5.89822944 L12.75,6 L12.75,18 C12.75,18.4142136 12.4142136,18.75 12,18.75 C11.6203042,18.75 11.306509,18.4678461 11.2568466,18.1017706 L11.25,18 L11.25,6 C11.25,5.58578644 11.5857864,5.25 12,5.25 Z M5.5,7.25 C7.23303146,7.25 8.64924593,8.60645477 8.74485521,10.3155761 L8.75,10.5 L8.75,16 C8.75,16.4142136 8.41421356,16.75 8,16.75 C7.62030423,16.75 7.30650904,16.4678461 7.25684662,16.1017706 L7.25,16 L7.25,12.75 L3.75,12.75 L3.75,16 C3.75,16.4142136 3.41421356,16.75 3,16.75 C2.62030423,16.75 2.30650904,16.4678461 2.25684662,16.1017706 L2.25,16 L2.25,10.5 C2.25,8.70507456 3.70507456,7.25 5.5,7.25 Z M19,7.25 C20.5187831,7.25 21.75,8.48121694 21.75,10 C21.75,10.7879979 21.4185689,11.498586 20.8875019,11.999969 C21.4185689,12.501414 21.75,13.2120021 21.75,14 C21.75,15.4625318 20.6082954,16.6584043 19.1675223,16.7449812 L19,16.75 L16,16.75 C15.6203042,16.75 15.306509,16.4678461 15.2568466,16.1017706 L15.25,16 L15.25,8 C15.25,7.62030423 15.5321539,7.30650904 15.8982294,7.25684662 L16,7.25 L19,7.25 Z M19,12.75 L16.75,12.75 L16.75,15.25 L19,15.25 C19.6903559,15.25 20.25,14.6903559 20.25,14 C20.25,13.3096441 19.6903559,12.75 19,12.75 Z M5.5,8.75 C4.5818266,8.75 3.82880766,9.45711027 3.7558012,10.3564728 L3.75,10.5 L3.75,11.25 L7.25,11.25 L7.25,10.5 C7.25,9.53350169 6.46649831,8.75 5.5,8.75 Z M19,8.75 L16.75,8.75 L16.75,11.25 L19,11.25 C19.6903559,11.25 20.25,10.6903559 20.25,10 C20.25,9.35279131 19.7581253,8.8204661 19.1278052,8.75645361 L19,8.75 Z" id="Icon-Color" fill="#212121"></path>
    </g>
</svg>