<?xml version="1.0" encoding="UTF-8"?>
<svg width="24px" height="24px" viewBox="0 0 24 24" version="1.1" xmlns="http://www.w3.org/2000/svg" xmlns:xlink="http://www.w3.org/1999/xlink">
    <title>Icon/accessible</title>
    <g id="Icon/accessible" stroke="none" stroke-width="1" fill="none" fill-rule="evenodd">
        <path d="M12,2.25 C17.3847763,2.25 21.75,6.61522369 21.75,12 C21.75,17.3847763 17.3847763,21.75 12,21.75 C6.61522369,21.75 2.25,17.3847763 2.25,12 C2.25,6.61522369 6.61522369,2.25 12,2.25 Z M12,3.75 C7.44365081,3.75 3.75,7.44365081 3.75,12 C3.75,16.5563492 7.44365081,20.25 12,20.25 C16.5563492,20.25 20.25,16.5563492 20.25,12 C20.25,7.44365081 16.5563492,3.75 12,3.75 Z M15.7115125,10.2628292 C15.8315828,10.6230402 15.6631389,11.0099574 15.3315538,11.1728345 L15.2371708,11.2115125 L12.75,12.04 L12.75,13.272 L14.6240377,16.0839749 C14.8538021,16.4286214 14.7606717,16.8942734 14.4160251,17.1240377 C14.1027101,17.3329144 13.6893906,17.2749359 13.4442056,17.0037301 L13.3759623,16.9160251 L12,14.853 L10.6240377,16.9160251 C10.415161,17.2293402 10.0113359,17.3347906 9.68070135,17.1787487 L9.58397485,17.1240377 C9.27065984,16.915161 9.16520938,16.5113359 9.3212513,16.1807014 L9.37596228,16.0839749 L11.25,13.271 L11.25,12.04 L8.76282918,11.2115125 C8.36987169,11.0805266 8.1575017,10.6557867 8.28848753,10.2628292 C8.40855787,9.90261814 8.7754633,9.69415078 9.13845771,9.76280012 L9.23717082,9.78848753 L12,10.709 L14.7628292,9.78848753 C15.1557867,9.6575017 15.5805266,9.86987169 15.7115125,10.2628292 Z M12,6.25 C12.6903559,6.25 13.25,6.80964406 13.25,7.5 C13.25,8.19035594 12.6903559,8.75 12,8.75 C11.3096441,8.75 10.75,8.19035594 10.75,7.5 C10.75,6.80964406 11.3096441,6.25 12,6.25 Z M12,7.25 C11.8619288,7.25 11.75,7.36192881 11.75,7.5 C11.75,7.63807119 11.8619288,7.75 12,7.75 C12.1380712,7.75 12.25,7.63807119 12.25,7.5 C12.25,7.36192881 12.1380712,7.25 12,7.25 Z" id="Icon-Color" fill="#212121"></path>
    </g>
</svg>