<?xml version="1.0" encoding="UTF-8"?>
<svg width="24px" height="24px" viewBox="0 0 24 24" version="1.1" xmlns="http://www.w3.org/2000/svg" xmlns:xlink="http://www.w3.org/1999/xlink">
    <title>Icon/access-point</title>
    <g id="Icon/access-point" stroke="none" stroke-width="1" fill="none" fill-rule="evenodd">
        <path d="M18.1873164,5.81265625 C19.8283573,7.45361252 20.7502915,9.67927759 20.7502915,12 C20.7502915,14.3207224 19.8283573,16.5463875 18.1873164,18.1873438 C17.8944157,18.4802294 17.4195419,18.4802172 17.1266563,18.1873164 C16.8337706,17.8944157 16.8337828,17.4195419 17.1266836,17.1266563 C18.4864031,15.7670068 19.2502915,13.9228843 19.2502915,12 C19.2502915,10.0771157 18.4864031,8.23299323 17.1266836,6.87334375 C16.8337828,6.58045808 16.8337706,6.10558434 17.1266563,5.81268358 C17.4195419,5.51978281 17.8944157,5.51977058 18.1873164,5.81265625 Z M6.86734375,5.81268358 C7.16022942,6.10558434 7.16021719,6.58045808 6.86731642,6.87334375 C5.50759687,8.23299323 4.7437085,10.0771157 4.7437085,12 C4.7437085,13.9228843 5.50759687,15.7670068 6.86731642,17.1266563 C7.16021719,17.4195419 7.16022942,17.8944157 6.86734375,18.1873164 C6.57445808,18.4802172 6.09958434,18.4802294 5.80668358,18.1873438 C4.16564274,16.5463875 3.2437085,14.3207224 3.2437085,12 C3.2437085,9.67927759 4.16564274,7.45361252 5.80668358,5.81265625 C6.09958434,5.51977058 6.57445808,5.51978281 6.86734375,5.81268358 Z M15.3584102,8.64175 C17.2127244,10.4966243 17.2127244,13.5033757 15.3584102,15.35825 C15.0655612,15.6511874 14.5906874,15.6512591 14.29775,15.3584102 C14.0048126,15.0655612 14.0047409,14.5906874 14.2975898,14.29775 C15.5663311,13.0286255 15.5663311,10.9713745 14.2975898,9.70225 C14.0047409,9.40931256 14.0048126,8.93443883 14.29775,8.64158984 C14.5906874,8.34874085 15.0655612,8.34881256 15.3584102,8.64175 Z M9.69825,8.64158984 C9.99118744,8.93443883 9.99125915,9.40931256 9.69841016,9.70225 C8.42966886,10.9713745 8.42966886,13.0286255 9.69841016,14.29775 C9.99125915,14.5906874 9.99118744,15.0655612 9.69825,15.3584102 C9.40531256,15.6512591 8.93043883,15.6511874 8.63758984,15.35825 C6.78327563,13.5033757 6.78327563,10.4966243 8.63758984,8.64175 C8.93043883,8.34881256 9.40531256,8.34874085 9.69825,8.64158984 Z M12,11.25 C12.3796958,11.25 12.693491,11.5321539 12.7431534,11.8982294 L12.75,12.01 C12.75,12.4242136 12.4142136,12.76 12,12.76 C11.6203042,12.76 11.306509,12.4778461 11.2568466,12.1117706 L11.25,12 C11.25,11.5857864 11.5857864,11.25 12,11.25 Z" id="Icon-Color" fill="#212121"></path>
    </g>
</svg>