<?xml version="1.0" encoding="UTF-8"?>
<svg width="24px" height="24px" viewBox="0 0 24 24" version="1.1" xmlns="http://www.w3.org/2000/svg" xmlns:xlink="http://www.w3.org/1999/xlink">
    <title>Icon/access-point-off</title>
    <g id="Icon/access-point-off" stroke="none" stroke-width="1" fill="none" fill-rule="evenodd">
        <path d="M3.44621165,2.39705176 L3.53033009,2.46966991 L21.5303301,20.4696699 C21.8232233,20.7625631 21.8232233,21.2374369 21.5303301,21.5303301 C21.2640635,21.7965966 20.8473998,21.8208027 20.5537883,21.6029482 L20.4696699,21.5303301 L9.23109188,10.2918361 C8.45572859,11.5448656 8.61150135,13.2105129 9.69841016,14.29775 C9.99125915,14.5906874 9.99118744,15.0655612 9.69825,15.3584102 C9.40531256,15.6512591 8.93043883,15.6511874 8.63758984,15.35825 C6.96320748,13.6833619 6.80073517,11.0692939 8.15017292,9.21214072 L6.3667765,7.42829632 C5.32159071,8.71464701 4.7437085,10.3275318 4.7437085,12 C4.7437085,13.9228843 5.50759687,15.7670068 6.86731642,17.1266563 C7.16021719,17.4195419 7.16022942,17.8944157 6.86734375,18.1873164 C6.57445808,18.4802172 6.09958434,18.4802294 5.80668358,18.1873438 C4.16564274,16.5463875 3.2437085,14.3207224 3.2437085,12 C3.2437085,9.92920828 3.97775977,7.93410195 5.30176137,6.36255884 L2.46966991,3.53033009 C2.1767767,3.23743687 2.1767767,2.76256313 2.46966991,2.46966991 C2.73593648,2.20340335 3.15260016,2.1791973 3.44621165,2.39705176 Z M18.1872011,5.81254097 C20.7622983,8.38638613 21.4744987,12.2858466 19.9754824,15.603791 C19.8049418,15.9812679 19.3606859,16.1490229 18.983209,15.9784824 C18.6057321,15.8079418 18.4379771,15.3636859 18.6085176,14.986209 C19.8505598,12.2370552 19.2604509,9.00607359 17.1267989,6.87345903 C16.8338345,6.58063704 16.833719,6.10576332 17.126541,5.81279889 C17.419363,5.51983446 17.8942367,5.51971898 18.1872011,5.81254097 Z M15.35825,8.64158982 C16.2491095,9.5321803 16.749731,10.7401645 16.75,11.9998398 C16.7500884,12.4140534 16.4143737,12.7499115 16.0001602,12.75 C15.5859466,12.7500884 15.2500885,12.4143737 15.25,12.0001602 C15.2498159,11.138277 14.9072855,10.3117616 14.29775,9.70241018 C14.0048126,9.4095612 14.0047408,8.93468747 14.2975898,8.64175002 C14.5904388,8.34881257 15.0653125,8.34874084 15.35825,8.64158982 Z" id="Icon-Color" fill="#212121"></path>
    </g>
</svg>