<?xml version="1.0" encoding="UTF-8"?>
<svg width="24px" height="24px" viewBox="0 0 24 24" version="1.1" xmlns="http://www.w3.org/2000/svg" xmlns:xlink="http://www.w3.org/1999/xlink">
    <title>Icon/activity</title>
    <g id="Icon/activity" stroke="none" stroke-width="1" fill="none" fill-rule="evenodd">
        <path d="M13.2723931,3.81809828 C13.4414972,3.14168186 14.341567,3.05532223 14.6555661,3.63403445 L14.7022469,3.73665742 L17.52,11.25 L21,11.25 C21.3796958,11.25 21.693491,11.5321539 21.7431534,11.8982294 L21.75,12 C21.75,12.3796958 21.4678461,12.693491 21.1017706,12.7431534 L21,12.75 L17,12.75 C16.7221036,12.75 16.4701177,12.5967717 16.3404546,12.3571288 L16.2977531,12.2633426 L14.143,6.518 L10.7276069,20.1819017 C10.5585028,20.8583181 9.65843301,20.9446778 9.34443389,20.3659656 L9.29775312,20.2633426 L6.48,12.75 L3,12.75 C2.62030423,12.75 2.30650904,12.4678461 2.25684662,12.1017706 L2.25,12 C2.25,11.6203042 2.53215388,11.306509 2.89822944,11.2568466 L3,11.25 L7,11.25 C7.27789637,11.25 7.52988232,11.4032283 7.65954541,11.6428712 L7.70224688,11.7366574 L9.856,17.481 L13.2723931,3.81809828 Z" id="Icon-Color" fill="#212121"></path>
    </g>
</svg>