<?xml version="1.0" encoding="UTF-8"?>
<svg width="24px" height="24px" viewBox="0 0 24 24" version="1.1" xmlns="http://www.w3.org/2000/svg" xmlns:xlink="http://www.w3.org/1999/xlink">
    <title>Icon/adjustments</title>
    <g id="Icon/adjustments" stroke="none" stroke-width="1" fill="none" fill-rule="evenodd">
        <path d="M6,3.25 C6.37969577,3.25 6.69349096,3.53215388 6.74315338,3.89822944 L6.75,4 L6.75055384,7.35367295 C7.90452293,7.68032018 8.75,8.74142422 8.75,10 C8.75,11.2585758 7.90452293,12.3196798 6.75055384,12.646327 L6.75,20 C6.75,20.4142136 6.41421356,20.75 6,20.75 C5.62030423,20.75 5.30650904,20.4678461 5.25684662,20.1017706 L5.25,20 L5.25044448,12.6466094 C4.09596473,12.3202917 3.25,11.2589387 3.25,10 C3.25,8.7410613 4.09596473,7.67970826 5.25044448,7.35339057 L5.25,4 C5.25,3.58578644 5.58578644,3.25 6,3.25 Z M12,3.25 C12.3796958,3.25 12.693491,3.53215388 12.7431534,3.89822944 L12.75,4 L12.7505538,13.353673 C13.9045229,13.6803202 14.75,14.7414242 14.75,16 C14.75,17.2585758 13.9045229,18.3196798 12.7505538,18.646327 L12.75,20 C12.75,20.4142136 12.4142136,20.75 12,20.75 C11.6203042,20.75 11.306509,20.4678461 11.2568466,20.1017706 L11.25,20 L11.2504445,18.6466094 C10.0959647,18.3202917 9.25,17.2589387 9.25,16 C9.25,14.7410613 10.0959647,13.6797083 11.2504445,13.3533906 L11.25,4 C11.25,3.58578644 11.5857864,3.25 12,3.25 Z M18,3.25 C18.3796958,3.25 18.693491,3.53215388 18.7431534,3.89822944 L18.75,4 L18.7505538,4.35367295 C19.9045229,4.68032018 20.75,5.74142422 20.75,7 C20.75,8.25857578 19.9045229,9.31967982 18.7505538,9.64632705 L18.75,20 C18.75,20.4142136 18.4142136,20.75 18,20.75 C17.6203042,20.75 17.306509,20.4678461 17.2568466,20.1017706 L17.25,20 L17.2504445,9.64660943 C16.0959647,9.32029174 15.25,8.2589387 15.25,7 C15.25,5.7410613 16.0959647,4.67970826 17.2504445,4.35339057 L17.25,4 C17.25,3.58578644 17.5857864,3.25 18,3.25 Z M12,14.75 C11.3096441,14.75 10.75,15.3096441 10.75,16 C10.75,16.6903559 11.3096441,17.25 12,17.25 C12.6903559,17.25 13.25,16.6903559 13.25,16 C13.25,15.3096441 12.6903559,14.75 12,14.75 Z M6,8.75 C5.30964406,8.75 4.75,9.30964406 4.75,10 C4.75,10.6903559 5.30964406,11.25 6,11.25 C6.69035594,11.25 7.25,10.6903559 7.25,10 C7.25,9.30964406 6.69035594,8.75 6,8.75 Z M18,5.75 C17.3096441,5.75 16.75,6.30964406 16.75,7 C16.75,7.69035594 17.3096441,8.25 18,8.25 C18.6903559,8.25 19.25,7.69035594 19.25,7 C19.25,6.30964406 18.6903559,5.75 18,5.75 Z" id="Icon-Color" fill="#212121"></path>
    </g>
</svg>