<?xml version="1.0" encoding="UTF-8"?>
<svg width="24px" height="24px" viewBox="0 0 24 24" version="1.1" xmlns="http://www.w3.org/2000/svg" xmlns:xlink="http://www.w3.org/1999/xlink">
    <title>Icon/brand/airbnb</title>
    <g id="Icon/brand/airbnb" stroke="none" stroke-width="1" fill="none" fill-rule="evenodd">
        <path d="M11.997,2.25 C13.2012552,2.25 14.0433228,2.78144058 15.1240137,4.08393885 C17.4330402,7.54704567 18.8276913,10.2997914 20.1963575,13.721457 C21.5589404,17.1279142 21.5589404,19.0182947 19.45,20.6 C17.5324045,22.0381966 15.8993422,22.0381966 14.1645898,21.1708204 C13.6285105,20.9027807 13.2027092,20.6243722 12.7698617,20.263666 L12.5728072,20.0952479 L12.3717894,19.9134812 L11.999,19.556 L11.8958195,19.6574054 C11.2330367,20.2961879 10.7922146,20.6467488 10.2110784,20.9725643 L10.0116725,21.0806144 L9.8354102,21.1708204 C8.10065778,22.0381966 6.46759547,22.0381966 4.55,20.6 C2.49964126,19.0622309 2.44268686,17.2326972 3.69372838,14.000687 L3.91721424,13.4390116 C5.23539923,10.1787206 6.6358548,7.44371611 8.92356414,4.02018577 C9.9787993,2.75245474 10.7827269,2.25 11.997,2.25 Z M11.997,3.75 C11.3082731,3.75 10.8743843,4.0211805 10.1240137,4.91606115 C8.08069242,7.98066002 6.76242521,10.4972879 5.54970489,13.4115152 L5.30838455,13.9999422 L5.19635752,14.278543 C4.05894041,17.1220858 4.05894041,18.3567053 5.45,19.4 C6.86573787,20.4618034 7.89934222,20.4618034 9.1645898,19.8291796 C9.72485664,19.5490462 10.0815189,19.3022997 10.6410937,18.7805939 L11.0044401,18.4321085 L10.5865143,17.8713544 L10.2064876,17.3472766 C10.1462548,17.2628223 10.0875612,17.179773 10.0303867,17.098067 L9.70541053,16.6234586 C8.68185867,15.0918783 8.25,14.0483493 8.25,13 C8.25,10.5857864 9.58578644,9.25 12,9.25 C14.4142136,9.25 15.75,10.5857864 15.75,13 C15.75,14.1009062 15.2737552,15.1964967 14.1364614,16.8561725 L13.7933729,17.3462067 L13.4133511,17.8698907 L12.9954382,18.4301756 L13.359974,18.7833771 L13.55062,18.9573661 L13.7301383,19.111334 C14.0740766,19.3979493 14.4027395,19.6128443 14.8354102,19.8291796 C16.1006578,20.4618034 17.1342621,20.4618034 18.55,19.4 C19.9410596,18.3567053 19.9410596,17.1220858 18.8036425,14.278543 C17.4711835,10.9473954 16.1225643,8.28550695 13.9240229,4.98036488 C13.1483807,4.05033824 12.6724948,3.75 11.997,3.75 Z M12,10.75 C10.4142136,10.75 9.75,11.4142136 9.75,13 C9.75,13.4943955 9.94437103,14.075584 10.3729615,14.8412777 L10.5875486,15.2081316 C10.6261333,15.271576 10.6661402,15.3362011 10.7075874,15.4020514 L10.9736997,15.8122109 C11.0209808,15.8831398 11.0697385,15.9553827 11.1199909,16.0289843 L11.4395874,16.4872528 L11.7959283,16.9802625 L11.999,17.255 L12.2043978,16.9798181 L12.5612937,16.4860131 L12.8813197,16.0270646 L13.1653508,15.6008267 C13.8755518,14.5058987 14.2111429,13.7369931 14.2468041,13.1109869 L14.25,13 C14.25,11.4142136 13.5857864,10.75 12,10.75 Z" id="Icon-Color" fill="#212121"></path>
    </g>
</svg>