<?xml version="1.0" encoding="UTF-8"?>
<svg width="24px" height="24px" viewBox="0 0 24 24" version="1.1" xmlns="http://www.w3.org/2000/svg" xmlns:xlink="http://www.w3.org/1999/xlink">
    <title>Icon/alarm</title>
    <g id="Icon/alarm" stroke="none" stroke-width="1" fill="none" fill-rule="evenodd">
        <path d="M12,5.25 C16.2802068,5.25 19.75,8.71979319 19.75,13 C19.75,17.2802068 16.2802068,20.75 12,20.75 C7.71979319,20.75 4.25,17.2802068 4.25,13 C4.25,8.71979319 7.71979319,5.25 12,5.25 Z M12,6.75 C8.54822031,6.75 5.75,9.54822031 5.75,13 C5.75,16.4517797 8.54822031,19.25 12,19.25 C15.4517797,19.25 18.25,16.4517797 18.25,13 C18.25,9.54822031 15.4517797,6.75 12,6.75 Z M12,9.25 C12.3796958,9.25 12.693491,9.53215388 12.7431534,9.89822944 L12.75,10 L12.75,12.25 L14,12.25 C14.3796958,12.25 14.693491,12.5321539 14.7431534,12.8982294 L14.75,13 C14.75,13.3796958 14.4678461,13.693491 14.1017706,13.7431534 L14,13.75 L12,13.75 C11.6203042,13.75 11.306509,13.4678461 11.2568466,13.1017706 L11.25,13 L11.25,10 C11.25,9.58578644 11.5857864,9.25 12,9.25 Z M7.60655206,3.55887123 C7.82803269,3.86340709 7.78695859,4.27874729 7.52597762,4.5347887 L7.44112877,4.60655206 L4.69112877,6.60655206 C4.35613932,6.85018076 3.88707663,6.77611823 3.64344794,6.44112877 C3.42196731,6.13659291 3.46304141,5.72125271 3.72402238,5.4652113 L3.80887123,5.39344794 L6.55887123,3.39344794 C6.89386068,3.14981924 7.36292337,3.22388177 7.60655206,3.55887123 Z M17.346714,3.33483774 L17.4411288,3.39344794 L20.1911288,5.39344794 C20.5261182,5.63707663 20.6001808,6.10613932 20.3565521,6.44112877 C20.1350714,6.74566464 19.7272817,6.83455842 19.403286,6.66516226 L19.3088712,6.60655206 L16.5588712,4.60655206 C16.2238818,4.36292337 16.1498192,3.89386068 16.3934479,3.55887123 C16.6149286,3.25433536 17.0227183,3.16544158 17.346714,3.33483774 Z" id="Icon-Color" fill="#212121"></path>
    </g>
</svg>