<?xml version="1.0" encoding="UTF-8"?>
<svg width="24px" height="24px" viewBox="0 0 24 24" version="1.1" xmlns="http://www.w3.org/2000/svg" xmlns:xlink="http://www.w3.org/1999/xlink">
    <title>Icon/alert-octagon</title>
    <g id="Icon/alert-octagon" stroke="none" stroke-width="1" fill="none" fill-rule="evenodd">
        <path d="M15.3,2.25 C15.7937023,2.25 16.1842265,2.42356628 16.5303301,2.76966991 L16.5303301,2.76966991 L21.2303301,7.46966991 C21.5764337,7.81577355 21.75,8.20629768 21.75,8.7 L21.75,8.7 L21.75,15.3 C21.75,15.7937023 21.5764337,16.1842265 21.2303301,16.5303301 L21.2303301,16.5303301 L16.5303301,21.2303301 C16.1842265,21.5764337 15.7937023,21.75 15.3,21.75 L15.3,21.75 L8.7,21.75 C8.20629768,21.75 7.81577355,21.5764337 7.46966991,21.2303301 L7.46966991,21.2303301 L2.76966991,16.5303301 C2.42356628,16.1842265 2.25,15.7937023 2.25,15.3 L2.25,15.3 L2.25,8.7 C2.25,8.20629768 2.42356628,7.81577355 2.76966991,7.46966991 L2.76966991,7.46966991 L7.46966991,2.76966991 C7.81577355,2.42356628 8.20629768,2.25 8.7,2.25 L8.7,2.25 Z M15.3,3.75 L8.7,3.75 C8.61870232,3.75 8.60422645,3.75643372 8.53033009,3.83033009 L8.53033009,3.83033009 L3.78660348,8.57658355 C3.75361897,8.61564075 3.75,8.63902674 3.75,8.7 L3.75,8.7 L3.75,15.3 C3.75,15.3812977 3.75643372,15.3957735 3.83033009,15.4696699 L3.83033009,15.4696699 L8.57658355,20.2133965 C8.61564075,20.246381 8.63902674,20.25 8.7,20.25 L8.7,20.25 L15.3,20.25 C15.3812977,20.25 15.3957735,20.2435663 15.4696699,20.1696699 L15.4696699,20.1696699 L20.2133965,15.4234164 C20.246381,15.3843593 20.25,15.3609733 20.25,15.3 L20.25,15.3 L20.25,8.7 C20.25,8.61870232 20.2435663,8.60422645 20.1696699,8.53033009 L20.1696699,8.53033009 L15.4234164,3.78660348 C15.3843593,3.75361897 15.3609733,3.75 15.3,3.75 L15.3,3.75 Z M12.01,15.25 C12.4242136,15.25 12.76,15.5857864 12.76,16 C12.76,16.3796958 12.4778461,16.693491 12.1117706,16.7431534 L12,16.75 C11.5857864,16.75 11.25,16.4142136 11.25,16 C11.25,15.6203042 11.5321539,15.306509 11.8982294,15.2568466 L12.01,15.25 Z M12,7.25 C12.3796958,7.25 12.693491,7.53215388 12.7431534,7.89822944 L12.75,8 L12.75,12 C12.75,12.4142136 12.4142136,12.75 12,12.75 C11.6203042,12.75 11.306509,12.4678461 11.2568466,12.1017706 L11.25,12 L11.25,8 C11.25,7.58578644 11.5857864,7.25 12,7.25 Z" id="Icon-Color" fill="#212121"></path>
    </g>
</svg>