<?xml version="1.0" encoding="UTF-8"?>
<svg width="24px" height="24px" viewBox="0 0 24 24" version="1.1" xmlns="http://www.w3.org/2000/svg" xmlns:xlink="http://www.w3.org/1999/xlink">
    <title>Icon/alert-circle</title>
    <g id="Icon/alert-circle" stroke="none" stroke-width="1" fill="none" fill-rule="evenodd">
        <path d="M12,2.25 C17.3847763,2.25 21.75,6.61522369 21.75,12 C21.75,17.3847763 17.3847763,21.75 12,21.75 C6.61522369,21.75 2.25,17.3847763 2.25,12 C2.25,6.61522369 6.61522369,2.25 12,2.25 Z M12,3.75 C7.44365081,3.75 3.75,7.44365081 3.75,12 C3.75,16.5563492 7.44365081,20.25 12,20.25 C16.5563492,20.25 20.25,16.5563492 20.25,12 C20.25,7.44365081 16.5563492,3.75 12,3.75 Z M12.01,15.25 C12.4242136,15.25 12.76,15.5857864 12.76,16 C12.76,16.3796958 12.4778461,16.693491 12.1117706,16.7431534 L12,16.75 C11.5857864,16.75 11.25,16.4142136 11.25,16 C11.25,15.6203042 11.5321539,15.306509 11.8982294,15.2568466 L12.01,15.25 Z M12,7.25 C12.3796958,7.25 12.693491,7.53215388 12.7431534,7.89822944 L12.75,8 L12.75,12 C12.75,12.4142136 12.4142136,12.75 12,12.75 C11.6203042,12.75 11.306509,12.4678461 11.2568466,12.1017706 L11.25,12 L11.25,8 C11.25,7.58578644 11.5857864,7.25 12,7.25 Z" id="Icon-Color" fill="#212121"></path>
    </g>
</svg>