<?xml version="1.0" encoding="UTF-8"?>
<svg width="24px" height="24px" viewBox="0 0 24 24" version="1.1" xmlns="http://www.w3.org/2000/svg" xmlns:xlink="http://www.w3.org/1999/xlink">
    <title>Icon/align-right</title>
    <g id="Icon/align-right" stroke="none" stroke-width="1" fill="none" fill-rule="evenodd">
        <path d="M20,17.25 C20.4142136,17.25 20.75,17.5857864 20.75,18 C20.75,18.3796958 20.4678461,18.693491 20.1017706,18.7431534 L20,18.75 L6,18.75 C5.58578644,18.75 5.25,18.4142136 5.25,18 C5.25,17.6203042 5.53215388,17.306509 5.89822944,17.2568466 L6,17.25 L20,17.25 Z M20,11.25 C20.4142136,11.25 20.75,11.5857864 20.75,12 C20.75,12.3796958 20.4678461,12.693491 20.1017706,12.7431534 L20,12.75 L10,12.75 C9.58578644,12.75 9.25,12.4142136 9.25,12 C9.25,11.6203042 9.53215388,11.306509 9.89822944,11.2568466 L10,11.25 L20,11.25 Z M20,5.25 C20.4142136,5.25 20.75,5.58578644 20.75,6 C20.75,6.37969577 20.4678461,6.69349096 20.1017706,6.74315338 L20,6.75 L4,6.75 C3.58578644,6.75 3.25,6.41421356 3.25,6 C3.25,5.62030423 3.53215388,5.30650904 3.89822944,5.25684662 L4,5.25 L20,5.25 Z" id="Icon-Color" fill="#212121"></path>
    </g>
</svg>