<?xml version="1.0" encoding="UTF-8"?>
<svg width="24px" height="24px" viewBox="0 0 24 24" version="1.1" xmlns="http://www.w3.org/2000/svg" xmlns:xlink="http://www.w3.org/1999/xlink">
    <title>Icon/ambulance</title>
    <g id="Icon/ambulance" stroke="none" stroke-width="1" fill="none" fill-rule="evenodd">
        <path d="M13,4.25 C13.3796958,4.25 13.693491,4.53215388 13.7431534,4.89822944 L13.75,5 L13.75,5.25 L18,5.25 C18.2258118,5.25 18.4374316,5.35155242 18.5786421,5.52282768 L18.6431197,5.61412818 L21.6431197,10.6141282 C21.6955857,10.702455 21.7294398,10.7971427 21.7431534,10.8982294 L21.7500719,10.9914058 L21.7500719,17 C21.7500719,17.3796958 21.4678461,17.693491 21.1017706,17.7431534 L21,17.75 L19.646327,17.7505538 C19.3196798,18.9045229 18.2585758,19.75 17,19.75 C15.7414242,19.75 14.6803202,18.9045229 14.353673,17.7505538 L9.64632705,17.7505538 C9.31967982,18.9045229 8.25857578,19.75 7,19.75 C5.74142422,19.75 4.68032018,18.9045229 4.35367295,17.7505538 L3,17.75 C2.62030423,17.75 2.30650904,17.4678461 2.25684662,17.1017706 L2.25,17 L2.25,6 C2.25,5.0818266 2.95711027,4.32880766 3.85647279,4.2558012 L4,4.25 L13,4.25 Z M7,15.75 C6.30964406,15.75 5.75,16.3096441 5.75,17 C5.75,17.6903559 6.30964406,18.25 7,18.25 C7.69035594,18.25 8.25,17.6903559 8.25,17 C8.25,16.3096441 7.69035594,15.75 7,15.75 Z M17,15.75 C16.3096441,15.75 15.75,16.3096441 15.75,17 C15.75,17.6903559 16.3096441,18.25 17,18.25 C17.6903559,18.25 18.25,17.6903559 18.25,17 C18.25,16.3096441 17.6903559,15.75 17,15.75 Z M20.25,11.75 L13.75,11.75 L13.75,16.25 L14.3533906,16.2504445 C14.6797083,15.0959647 15.7410613,14.25 17,14.25 C18.2589387,14.25 19.3202917,15.0959647 19.6466094,16.2504445 L20.25,16.25 L20.25,11.75 Z M12.25,5.75 L4,5.75 C3.88165327,5.75 3.78251318,5.83223341 3.75660268,5.94267729 L3.75,6 L3.75,16.25 L4.35339057,16.2504445 C4.67970826,15.0959647 5.7410613,14.25 7,14.25 C8.2589387,14.25 9.32029174,15.0959647 9.64660943,16.2504445 L12.25,16.25 L12.25,5.75 Z M8,7.25 C8.37969577,7.25 8.69349096,7.53215388 8.74315338,7.89822944 L8.75,8 L8.75,9.25 L10,9.25 C10.4142136,9.25 10.75,9.58578644 10.75,10 C10.75,10.3796958 10.4678461,10.693491 10.1017706,10.7431534 L10,10.75 L8.75,10.75 L8.75,12 C8.75,12.4142136 8.41421356,12.75 8,12.75 C7.62030423,12.75 7.30650904,12.4678461 7.25684662,12.1017706 L7.25,12 L7.25,10.75 L6,10.75 C5.58578644,10.75 5.25,10.4142136 5.25,10 C5.25,9.62030423 5.53215388,9.30650904 5.89822944,9.25684662 L6,9.25 L7.25,9.25 L7.25,8 C7.25,7.58578644 7.58578644,7.25 8,7.25 Z M17.575,6.75 L13.75,6.75 L13.75,10.25 L19.675,10.25 L17.575,6.75 Z" id="Icon-Color" fill="#212121"></path>
    </g>
</svg>