<?xml version="1.0" encoding="UTF-8"?>
<svg width="24px" height="24px" viewBox="0 0 24 24" version="1.1" xmlns="http://www.w3.org/2000/svg" xmlns:xlink="http://www.w3.org/1999/xlink">
    <title>Icon/anchor</title>
    <g id="Icon/anchor" stroke="none" stroke-width="1" fill="none" fill-rule="evenodd">
        <polygon id="Path" points="0 0 24 0 24 24 0 24"></polygon>
        <path d="M12,2.25 C14.0710678,2.25 15.75,3.92893219 15.75,6 C15.75,7.81403036 14.4619473,9.32721991 12.7505323,9.67487832 L12.7501809,20.2116586 C16.1551552,19.8616294 18.8616294,17.1551552 19.2116586,13.7501809 L19,13.75 C18.5857864,13.75 18.25,13.4142136 18.25,13 C18.25,12.6203042 18.5321539,12.306509 18.8982294,12.2568466 L19,12.25 L21,12.25 C21.4142136,12.25 21.75,12.5857864 21.75,13 C21.75,13.3796958 21.4678461,13.693491 21.1017706,13.7431534 L21,13.75 L20.7182758,13.7503647 C20.3448501,18.1471531 16.7201446,21.6170653 12.2579911,21.7462695 L12,21.75 C7.42027656,21.75 3.66232141,18.2315917 3.28172422,13.7503647 L3,13.75 C2.58578644,13.75 2.25,13.4142136 2.25,13 C2.25,12.6203042 2.53215388,12.306509 2.89822944,12.2568466 L3,12.25 L5,12.25 C5.41421356,12.25 5.75,12.5857864 5.75,13 C5.75,13.3796958 5.46784612,13.693491 5.10177056,13.7431534 L5,13.75 L4.78834139,13.7501809 C5.13840497,17.1554898 7.84537679,19.8621614 11.2508229,20.2117617 L11.2504629,9.67508036 C9.53855206,9.32780652 8.25,7.81438199 8.25,6 C8.25,3.92893219 9.92893219,2.25 12,2.25 Z M12,3.75 C10.7573593,3.75 9.75,4.75735931 9.75,6 C9.75,7.24264069 10.7573593,8.25 12,8.25 C13.2426407,8.25 14.25,7.24264069 14.25,6 C14.25,4.75735931 13.2426407,3.75 12,3.75 Z" id="Icon-Color" fill="#212121"></path>
    </g>
</svg>