<?xml version="1.0" encoding="UTF-8"?>
<svg width="24px" height="24px" viewBox="0 0 24 24" version="1.1" xmlns="http://www.w3.org/2000/svg" xmlns:xlink="http://www.w3.org/1999/xlink">
    <title>Icon/brand/android</title>
    <g id="Icon/brand/android" stroke="none" stroke-width="1" fill="none" fill-rule="evenodd">
        <path d="M8.61918342,2.57662535 L8.67082039,2.6645898 L9.29890403,3.92263165 C10.1042157,3.49332195 11.0236924,3.25 12,3.25 C12.9762495,3.25 13.8956749,3.49329298 14.7009521,3.92255498 L15.3291796,2.6645898 C15.5144215,2.29410593 15.9649263,2.14393767 16.3354102,2.32917961 C16.6750204,2.49898472 16.8295043,2.8916843 16.7102098,3.24132194 L16.6708204,3.3354102 L15.9346073,4.80696135 C17.0021115,5.80906724 17.6868159,7.21418575 17.7458479,8.77944429 L17.75,9 L17.75,17 C17.75,17.9181734 17.0428897,18.6711923 16.1435272,18.7441988 L16,18.75 L15.75,18.7498357 L15.75,21 C15.75,21.4142136 15.4142136,21.75 15,21.75 C14.6203042,21.75 14.306509,21.4678461 14.2568466,21.1017706 L14.25,21 L14.25,18.7498357 L9.75,18.7498357 L9.75,21 C9.75,21.4142136 9.41421356,21.75 9,21.75 C8.62030423,21.75 8.30650904,21.4678461 8.25684662,21.1017706 L8.25,21 L8.25,18.7498357 L8,18.75 C7.0818266,18.75 6.32880766,18.0428897 6.2558012,17.1435272 L6.25,17 L6.25,9 C6.25,7.34669921 6.94776903,5.85637111 8.06488132,4.80744145 L7.32917961,3.3354102 C7.14393767,2.96492632 7.29410593,2.51442154 7.6645898,2.32917961 C8.00420002,2.1593745 8.41105003,2.27140712 8.61918342,2.57662535 Z M16.25,9.75 L7.75,9.75 L7.75,17 C7.75,17.1183467 7.83223341,17.2174868 7.94267729,17.2433973 L8,17.25 L16,17.25 C16.1183467,17.25 16.2174868,17.1677666 16.2433973,17.0573227 L16.25,17 L16.25,9.75 Z M4,9.25 C4.37969577,9.25 4.69349096,9.53215388 4.74315338,9.89822944 L4.75,10 L4.75,16 C4.75,16.4142136 4.41421356,16.75 4,16.75 C3.62030423,16.75 3.30650904,16.4678461 3.25684662,16.1017706 L3.25,16 L3.25,10 C3.25,9.58578644 3.58578644,9.25 4,9.25 Z M20,9.25 C20.3796958,9.25 20.693491,9.53215388 20.7431534,9.89822944 L20.75,10 L20.75,16 C20.75,16.4142136 20.4142136,16.75 20,16.75 C19.6203042,16.75 19.306509,16.4678461 19.2568466,16.1017706 L19.25,16 L19.25,10 C19.25,9.58578644 19.5857864,9.25 20,9.25 Z M12,4.75 C9.92893219,4.75 8.2038664,6.23141075 7.82663386,8.19240103 L7.816,8.25 L16.183,8.25 L16.1733661,8.19240103 C15.808708,6.2967771 14.1845746,4.84929358 12.2059163,4.75490093 L12,4.75 Z" id="Icon-Color" fill="#212121"></path>
    </g>
</svg>