<?xml version="1.0" encoding="UTF-8"?>
<svg width="24px" height="24px" viewBox="0 0 24 24" version="1.1" xmlns="http://www.w3.org/2000/svg" xmlns:xlink="http://www.w3.org/1999/xlink">
    <title>Icon/archive</title>
    <g id="Icon/archive" stroke="none" stroke-width="1" fill="none" fill-rule="evenodd">
        <path d="M19,3.25 C20.5187831,3.25 21.75,4.48121694 21.75,6 C21.75,7.25857578 20.9045229,8.31967982 19.7505538,8.64632705 L19.75,18 C19.75,19.4625318 18.6082954,20.6584043 17.1675223,20.7449812 L17,20.75 L7,20.75 C5.53746816,20.75 4.34159572,19.6082954 4.25501879,18.1675223 L4.25,18 L4.25044448,8.64660943 C3.09596473,8.32029174 2.25,7.2589387 2.25,6 C2.25,4.48121694 3.48121694,3.25 5,3.25 L5,3.25 Z M18.25,8.75 L5.75,8.75 L5.75,18 C5.75,18.6472087 6.24187466,19.1795339 6.87219476,19.2435464 L7,19.25 L17,19.25 C17.6472087,19.25 18.1795339,18.7581253 18.2435464,18.1278052 L18.25,18 L18.25,8.75 Z M14,11.25 C14.4142136,11.25 14.75,11.5857864 14.75,12 C14.75,12.3796958 14.4678461,12.693491 14.1017706,12.7431534 L14,12.75 L10,12.75 C9.58578644,12.75 9.25,12.4142136 9.25,12 C9.25,11.6203042 9.53215388,11.306509 9.89822944,11.2568466 L10,11.25 L14,11.25 Z M19,4.75 L5,4.75 C4.30964406,4.75 3.75,5.30964406 3.75,6 C3.75,6.69035594 4.30964406,7.25 5,7.25 L5,7.25 L19,7.25 C19.6903559,7.25 20.25,6.69035594 20.25,6 C20.25,5.30964406 19.6903559,4.75 19,4.75 L19,4.75 Z" id="Icon-Color" fill="#212121"></path>
    </g>
</svg>