<?xml version="1.0" encoding="UTF-8"?>
<svg width="24px" height="24px" viewBox="0 0 24 24" version="1.1" xmlns="http://www.w3.org/2000/svg" xmlns:xlink="http://www.w3.org/1999/xlink">
    <title>Icon/arrows/arrows-horizontal</title>
    <g id="Icon/arrows/arrows-horizontal" stroke="none" stroke-width="1" fill="none" fill-rule="evenodd">
        <path d="M17.4462117,7.39705176 L17.5303301,7.46966991 L21.5303301,11.4696699 C21.5557782,11.495118 21.5794061,11.5223864 21.6010016,11.551263 L21.5303301,11.4696699 C21.5673834,11.5067232 21.5997491,11.5466889 21.6274273,11.5888302 C21.6405922,11.6089851 21.6529723,11.6299725 21.664329,11.6515818 C21.6691626,11.6607036 21.6735192,11.6694344 21.6776949,11.6782296 C21.690442,11.7050181 21.7019466,11.7334779 21.7116971,11.7627395 C21.7139554,11.7696832 21.7158799,11.7757544 21.7177252,11.7818445 C21.7386468,11.8503231 21.75,11.9238357 21.75,12 C21.75,12.0376878 21.7472202,12.0747263 21.7418544,12.1109218 C21.7399772,12.1231969 21.7378222,12.1355698 21.7353557,12.1478927 C21.730412,12.1728958 21.7242388,12.1971921 21.7169138,12.2209837 C21.7132873,12.2326435 21.7092554,12.2446929 21.7049093,12.256654 C21.696425,12.2799516 21.6871231,12.3020202 21.6768269,12.3235218 C21.6713347,12.3351229 21.6650317,12.3474599 21.658365,12.359651 C21.6451298,12.3836668 21.6310246,12.4063902 21.6157838,12.4282634 C21.6118625,12.4340051 21.6074572,12.4401347 21.6029482,12.4462117 C21.5971451,12.4538569 21.5954427,12.4560847 21.5937281,12.4583026 L21.5303301,12.5303301 L17.5303301,16.5303301 C17.2374369,16.8232233 16.7625631,16.8232233 16.4696699,16.5303301 C16.2034034,16.2640635 16.1791973,15.8473998 16.3970518,15.5537883 L16.4696699,15.4696699 L19.189,12.75 L4.811,12.75 L7.53033009,15.4696699 C7.79659665,15.7359365 7.8208027,16.1526002 7.60294824,16.4462117 L7.53033009,16.5303301 C7.26406352,16.7965966 6.84739984,16.8208027 6.55378835,16.6029482 L6.46966991,16.5303301 L2.46966991,12.5303301 L2.40627192,12.4583026 C2.40333265,12.4545004 2.40042909,12.4506692 2.39756175,12.4468095 L2.46966991,12.5303301 C2.43261664,12.4932768 2.40025089,12.4533111 2.37257267,12.4111698 C2.35879966,12.3900893 2.34590077,12.3681124 2.334124,12.3454587 C2.32980838,12.3372282 2.32598644,12.3295243 2.32230508,12.3217704 C2.30955796,12.2949819 2.29805336,12.2665221 2.28830293,12.2372605 C2.28604456,12.2303168 2.28412011,12.2242456 2.2822748,12.2181555 C2.26135317,12.1496769 2.25,12.0761643 2.25,12 C2.25,11.9616078 2.25288471,11.9238893 2.25844919,11.8870495 C2.26025385,11.8754819 2.26230949,11.8637722 2.26464433,11.8521073 C2.26958796,11.8271042 2.27576118,11.8028079 2.28308617,11.7790163 C2.28671273,11.7673565 2.29074464,11.7553071 2.29509073,11.743346 C2.30357499,11.7200484 2.31287686,11.6979798 2.32317314,11.6764782 C2.32866533,11.6648771 2.33496828,11.6525401 2.34163501,11.640349 C2.35661472,11.613153 2.37281741,11.5874705 2.39046912,11.562899 C2.3923342,11.5601997 2.39467862,11.5569867 2.39705176,11.5537883 C2.42217116,11.5205706 2.44507007,11.4942698 2.46966991,11.4696699 L6.46966991,7.46966991 C6.76256313,7.1767767 7.23743687,7.1767767 7.53033009,7.46966991 C7.79659665,7.73593648 7.8208027,8.15260016 7.60294824,8.44621165 L7.53033009,8.53033009 L4.809,11.25 L19.189,11.25 L16.4696699,8.53033009 C16.2034034,8.26406352 16.1791973,7.84739984 16.3970518,7.55378835 L16.4696699,7.46966991 C16.7359365,7.20340335 17.1526002,7.1791973 17.4462117,7.39705176 Z" id="Icon-Color" fill="#212121"></path>
    </g>
</svg>