<?xml version="1.0" encoding="UTF-8"?>
<svg width="24px" height="24px" viewBox="0 0 24 24" version="1.1" xmlns="http://www.w3.org/2000/svg" xmlns:xlink="http://www.w3.org/1999/xlink">
    <title>Icon/arrows/arrow-forward-up</title>
    <g id="Icon/arrows/arrow-forward-up" stroke="none" stroke-width="1" fill="none" fill-rule="evenodd">
        <path d="M15.4462117,4.39705176 L15.5303301,4.46966991 L19.5303301,8.46966991 C19.5647711,8.50411092 19.5951622,8.54106819 19.6215034,8.57994996 L19.6760696,8.67482849 L19.7111871,8.76133534 L19.7375819,8.863702 L19.7482462,8.94847595 L19.7482462,9.05141886 L19.7302653,9.17136702 L19.7110197,9.23928365 L19.6883984,9.29813864 L19.6537149,9.36802591 L19.6029482,9.44621165 L19.5569535,9.50230667 L15.5303301,13.5303301 C15.2374369,13.8232233 14.7625631,13.8232233 14.4696699,13.5303301 C14.2034034,13.2640635 14.1791973,12.8473998 14.3970518,12.5537883 L14.4696699,12.4696699 L17.189,9.75 L8,9.75 C6.20507456,9.75 4.75,11.2050746 4.75,13 C4.75,14.7330315 6.10645477,16.1492459 7.81557609,16.2448552 L8,16.25 L9,16.25 C9.41421356,16.25 9.75,16.5857864 9.75,17 C9.75,17.3796958 9.46784612,17.693491 9.10177056,17.7431534 L9,17.75 L8,17.75 C5.37664744,17.75 3.25,15.6233526 3.25,13 C3.25,10.4495183 5.26014129,8.36853034 7.782572,8.25488786 L8,8.25 L17.189,8.25 L14.4696699,5.53033009 C14.2034034,5.26406352 14.1791973,4.84739984 14.3970518,4.55378835 L14.4696699,4.46966991 C14.7063513,4.23298853 15.061865,4.18756482 15.3441588,4.33339881 L15.4462117,4.39705176 Z" id="Icon-Color" fill="#212121"></path>
    </g>
</svg>