<?xml version="1.0" encoding="UTF-8"?>
<svg width="24px" height="24px" viewBox="0 0 24 24" version="1.1" xmlns="http://www.w3.org/2000/svg" xmlns:xlink="http://www.w3.org/1999/xlink">
    <title>Icon/arrows/arrow-bar-to-up</title>
    <g id="Icon/arrows/arrow-bar-to-up" stroke="none" stroke-width="1" fill="none" fill-rule="evenodd">
        <path d="M12.0058164,9.25002241 L12.0214353,9.25030447 C12.0397861,9.2508259 12.0581215,9.25201707 12.0764015,9.25387798 L12,9.25 C12.0383922,9.25 12.0761107,9.25288471 12.1129505,9.25844919 C12.1157553,9.25892832 12.1187341,9.25939723 12.1217105,9.25988414 L12.1442371,9.26392206 C12.1522874,9.26549193 12.160317,9.26719456 12.1683223,9.26902996 C12.1865768,9.27316611 12.2039102,9.27782957 12.2209837,9.28308617 C12.2254388,9.28450368 12.2303468,9.28606411 12.2352415,9.28767627 L12.247588,9.29186258 C12.2553531,9.29457125 12.2630825,9.29741137 12.2707728,9.30038294 C12.2890438,9.30745993 12.3064613,9.31500351 12.3235218,9.32317314 C12.329868,9.32616196 12.3370367,9.32971951 12.3441588,9.33339881 L12.3547101,9.33895724 C12.3588251,9.34116736 12.3629239,9.34341866 12.3670058,9.34571114 C12.3708548,9.34794123 12.3747079,9.35015259 12.3785394,9.35239699 L12.4220088,9.37982811 L12.4220088,9.37982811 L12.4462117,9.39705176 L12.4462117,9.39705176 C12.4538569,9.40285492 12.4560847,9.40455735 12.4583026,9.40627192 L12.5303301,9.46966991 L16.5303301,13.4696699 C16.8232233,13.7625631 16.8232233,14.2374369 16.5303301,14.5303301 C16.2640635,14.7965966 15.8473998,14.8208027 15.5537883,14.6029482 L15.4696699,14.5303301 L12.75,11.811 L12.75,20 C12.75,20.4142136 12.4142136,20.75 12,20.75 C11.6203042,20.75 11.306509,20.4678461 11.2568466,20.1017706 L11.25,20 L11.25,11.81 L8.53033009,14.5303301 C8.23743687,14.8232233 7.76256313,14.8232233 7.46966991,14.5303301 C7.20340335,14.2640635 7.1791973,13.8473998 7.39705176,13.5537883 L7.46966991,13.4696699 L11.4696699,9.46966991 L11.5416974,9.40627192 C11.5442322,9.40431241 11.5467799,9.40236877 11.5493403,9.40044115 L11.4696699,9.46966991 C11.4974543,9.44188558 11.5268762,9.41673691 11.557625,9.39422391 L11.4696699,9.46966991 C11.5067232,9.43261664 11.5466889,9.40025089 11.5888302,9.37257267 C11.5994209,9.36569224 11.6103495,9.35890572 11.6214606,9.35239699 C11.6408229,9.34125612 11.6518315,9.33536818 11.6629503,9.32977443 C11.6682959,9.32708905 11.6732524,9.3246681 11.6782296,9.32230508 C11.6875567,9.31788747 11.6977525,9.31330102 11.7080662,9.30893872 L11.7302481,9.29998933 C11.7398897,9.29628001 11.7495925,9.29277711 11.7593497,9.28948065 C11.7731076,9.28496585 11.7774712,9.28359992 11.7818445,9.2822748 C11.7965131,9.27775105 11.8121756,9.27352798 11.8280319,9.26980803 C11.8402739,9.26701468 11.8519672,9.26457582 11.863702,9.26241813 C11.8822562,9.25892518 11.9019296,9.25608547 11.9218342,9.25402422 C11.9428629,9.25189016 11.9631986,9.25062303 11.9835489,9.25017932 C11.9885092,9.25006477 11.994247,9.25 12,9.25 L12.0058164,9.25002241 Z M20,3.25 C20.4142136,3.25 20.75,3.58578644 20.75,4 C20.75,4.37969577 20.4678461,4.69349096 20.1017706,4.74315338 L20,4.75 L4,4.75 C3.58578644,4.75 3.25,4.41421356 3.25,4 C3.25,3.62030423 3.53215388,3.30650904 3.89822944,3.25684662 L4,3.25 L20,3.25 Z" id="Icon-Color" fill="#212121"></path>
    </g>
</svg>