<?xml version="1.0" encoding="UTF-8"?>
<svg width="24px" height="24px" viewBox="0 0 24 24" version="1.1" xmlns="http://www.w3.org/2000/svg" xmlns:xlink="http://www.w3.org/1999/xlink">
    <title>Icon/arrows/arrows-diagonal</title>
    <g id="Icon/arrows/arrows-diagonal" stroke="none" stroke-width="1" fill="none" fill-rule="evenodd">
        <path d="M10.5303301,13.4696699 C10.7965966,13.7359365 10.8208027,14.1526002 10.6029482,14.4462117 L10.5303301,14.5303301 L5.81,19.25 L8,19.25 C8.37969577,19.25 8.69349096,19.5321539 8.74315338,19.8982294 L8.75,20 C8.75,20.3796958 8.46784612,20.693491 8.10177056,20.7431534 L8,20.75 L4,20.75 L3.97158812,20.749465 C3.95623781,20.7488867 3.94090188,20.7478395 3.92560364,20.7463234 L4,20.75 C3.95315442,20.75 3.90731196,20.7457051 3.86284491,20.7374876 C3.85196718,20.7354242 3.8402739,20.7329853 3.82863298,20.7302653 C3.8051728,20.7248291 3.78271655,20.7184207 3.76071635,20.7110197 C3.75090869,20.707697 3.74054351,20.7039715 3.73024809,20.7000107 C3.71090579,20.6925505 3.69248608,20.684555 3.67446717,20.6758602 C3.66000914,20.6689416 3.64537558,20.6612981 3.63095468,20.6531392 C3.61349194,20.643187 3.59634194,20.6325387 3.57967093,20.6212371 C3.56933877,20.6143147 3.55887091,20.6068243 3.54855842,20.5990323 C3.4918014,20.5560981 3.44146961,20.5055276 3.39899844,20.448737 L3.46966991,20.5303301 C3.43261664,20.4932768 3.40025089,20.4533111 3.37257267,20.4111698 C3.35940783,20.3910149 3.34702767,20.3700275 3.33567096,20.3484182 C3.33083742,20.3392964 3.32648082,20.3305656 3.32230508,20.3217704 C3.30955796,20.2949819 3.29805336,20.2665221 3.28830293,20.2372605 C3.28604456,20.2303168 3.28412011,20.2242456 3.2822748,20.2181555 C3.2709186,20.181066 3.26229378,20.1419231 3.25684662,20.1017706 L3.25,20 L3.25,16 C3.25,15.5857864 3.58578644,15.25 4,15.25 C4.37969577,15.25 4.69349096,15.5321539 4.74315338,15.8982294 L4.75,16 L4.75,18.188 L9.46966991,13.4696699 C9.76256313,13.1767767 10.2374369,13.1767767 10.5303301,13.4696699 Z M20,3.25 L20.017448,3.25020172 C20.0374655,3.25066463 20.0574681,3.25192429 20.077404,3.2539807 L20,3.25 C20.0468456,3.25 20.092688,3.25429489 20.1371551,3.26251238 C20.1480328,3.26457582 20.1597261,3.26701468 20.171367,3.26973472 C20.1948272,3.27517085 20.2172835,3.28157935 20.2392836,3.28898031 C20.2490913,3.29230301 20.2594565,3.29602848 20.2697519,3.29998933 C20.2890942,3.30744952 20.3075139,3.315445 20.3255328,3.32413984 C20.3399909,3.33105843 20.3546244,3.3387019 20.3690453,3.34686081 C20.3865081,3.35681304 20.4036581,3.36746126 20.4203291,3.3787629 C20.4306612,3.38568532 20.4411291,3.39317572 20.4514416,3.40096775 C20.5081986,3.44390193 20.5585304,3.49447237 20.6010016,3.55126304 L20.5303301,3.46966991 C20.5673834,3.50672319 20.5997491,3.54668892 20.6274273,3.58883021 C20.6405922,3.60898514 20.6529723,3.62997247 20.664329,3.65158175 C20.6691626,3.66070362 20.6735192,3.66943437 20.6776949,3.67822959 C20.690442,3.70501812 20.7019466,3.73347789 20.7116971,3.76273953 C20.7139554,3.76968322 20.7158799,3.77575442 20.7177252,3.78184446 C20.7290814,3.81893395 20.7377062,3.85807689 20.7431534,3.89822944 L20.75,4 L20.75,8 C20.75,8.41421356 20.4142136,8.75 20,8.75 C19.6203042,8.75 19.306509,8.46784612 19.2568466,8.10177056 L19.25,8 L19.25,5.81 L14.5303301,10.5303301 C14.2374369,10.8232233 13.7625631,10.8232233 13.4696699,10.5303301 C13.2034034,10.2640635 13.1791973,9.84739984 13.3970518,9.55378835 L13.4696699,9.46966991 L18.188,4.75 L16,4.75 C15.6203042,4.75 15.306509,4.46784612 15.2568466,4.10177056 L15.25,4 C15.25,3.62030423 15.5321539,3.30650904 15.8982294,3.25684662 L16,3.25 L20,3.25 Z" id="Icon-Color" fill="#212121"></path>
    </g>
</svg>