<?xml version="1.0" encoding="UTF-8"?>
<svg width="24px" height="24px" viewBox="0 0 24 24" version="1.1" xmlns="http://www.w3.org/2000/svg" xmlns:xlink="http://www.w3.org/1999/xlink">
    <title>Icon/arrows/arrow-bar-up</title>
    <g id="Icon/arrows/arrow-bar-up" stroke="none" stroke-width="1" fill="none" fill-rule="evenodd">
        <path d="M20,19.25 C20.4142136,19.25 20.75,19.5857864 20.75,20 C20.75,20.3796958 20.4678461,20.693491 20.1017706,20.7431534 L20,20.75 L4,20.75 C3.58578644,20.75 3.25,20.4142136 3.25,20 C3.25,19.6203042 3.53215388,19.306509 3.89822944,19.2568466 L4,19.25 L20,19.25 Z M12.0058164,3.25002241 L12.0214353,3.25030447 C12.0397861,3.2508259 12.0581215,3.25201707 12.0764015,3.25387798 L12,3.25 C12.0383922,3.25 12.0761107,3.25288471 12.1129505,3.25844919 C12.1157553,3.25892832 12.1187341,3.25939723 12.1217105,3.25988414 L12.1442371,3.26392206 C12.1522874,3.26549193 12.160317,3.26719456 12.1683223,3.26902996 C12.1865768,3.27316611 12.2039102,3.27782957 12.2209837,3.28308617 C12.2254388,3.28450368 12.2303468,3.28606411 12.2352415,3.28767627 L12.247588,3.29186258 C12.2553531,3.29457125 12.2630825,3.29741137 12.2707728,3.30038294 C12.2890438,3.30745993 12.3064613,3.31500351 12.3235218,3.32317314 C12.329868,3.32616196 12.3370367,3.32971951 12.3441588,3.33339881 L12.3547101,3.33895724 C12.3588251,3.34116736 12.3629239,3.34341866 12.3670058,3.34571114 C12.3708548,3.34794123 12.3747079,3.35015259 12.3785394,3.35239699 L12.4220088,3.37982811 L12.4220088,3.37982811 L12.4462117,3.39705176 L12.4462117,3.39705176 C12.4538569,3.40285492 12.4560847,3.40455735 12.4583026,3.40627192 L12.5303301,3.46966991 L16.5303301,7.46966991 C16.8232233,7.76256313 16.8232233,8.23743687 16.5303301,8.53033009 C16.2640635,8.79659665 15.8473998,8.8208027 15.5537883,8.60294824 L15.4696699,8.53033009 L12.75,5.811 L12.75,14 C12.75,14.4142136 12.4142136,14.75 12,14.75 C11.6203042,14.75 11.306509,14.4678461 11.2568466,14.1017706 L11.25,14 L11.25,5.81 L8.53033009,8.53033009 C8.23743687,8.8232233 7.76256313,8.8232233 7.46966991,8.53033009 C7.20340335,8.26406352 7.1791973,7.84739984 7.39705176,7.55378835 L7.46966991,7.46966991 L11.4696699,3.46966991 L11.5416974,3.40627192 C11.5442322,3.40431241 11.5467799,3.40236877 11.5493403,3.40044115 L11.4696699,3.46966991 C11.4974543,3.44188558 11.5268762,3.41673691 11.557625,3.39422391 L11.4696699,3.46966991 C11.5067232,3.43261664 11.5466889,3.40025089 11.5888302,3.37257267 C11.5994209,3.36569224 11.6103495,3.35890572 11.6214606,3.35239699 C11.6408229,3.34125612 11.6518315,3.33536818 11.6629503,3.32977443 C11.6682959,3.32708905 11.6732524,3.3246681 11.6782296,3.32230508 C11.6875567,3.31788747 11.6977525,3.31330102 11.7080662,3.30893872 L11.7302481,3.29998933 C11.7398897,3.29628001 11.7495925,3.29277711 11.7593497,3.28948065 C11.7731076,3.28496585 11.7774712,3.28359992 11.7818445,3.2822748 C11.7965131,3.27775105 11.8121756,3.27352798 11.8280319,3.26980803 C11.8402739,3.26701468 11.8519672,3.26457582 11.863702,3.26241813 C11.8822562,3.25892518 11.9019296,3.25608547 11.9218342,3.25402422 C11.9428629,3.25189016 11.9631986,3.25062303 11.9835489,3.25017932 C11.9885092,3.25006477 11.994247,3.25 12,3.25 L12.0058164,3.25002241 Z" id="Icon-Color" fill="#212121"></path>
    </g>
</svg>