<?xml version="1.0" encoding="UTF-8"?>
<svg width="24px" height="24px" viewBox="0 0 24 24" version="1.1" xmlns="http://www.w3.org/2000/svg" xmlns:xlink="http://www.w3.org/1999/xlink">
    <title>Icon/arrows/arrow-down-left-circle</title>
    <g id="Icon/arrows/arrow-down-left-circle" stroke="none" stroke-width="1" fill="none" fill-rule="evenodd">
        <path d="M12,2.25 C17.3847763,2.25 21.75,6.61522369 21.75,12 C21.75,17.3847763 17.3847763,21.75 12,21.75 C6.61522369,21.75 2.25,17.3847763 2.25,12 C2.25,6.61522369 6.61522369,2.25 12,2.25 Z M12,3.75 C7.44365081,3.75 3.75,7.44365081 3.75,12 C3.75,16.5563492 7.44365081,20.25 12,20.25 C16.5563492,20.25 20.25,16.5563492 20.25,12 C20.25,7.44365081 16.5563492,3.75 12,3.75 Z M9,8.25 C9.37969577,8.25 9.69349096,8.53215388 9.74315338,8.89822944 L9.75,9 L9.75,13.188 L14.4696699,8.46966991 C14.7625631,8.1767767 15.2374369,8.1767767 15.5303301,8.46966991 C15.7965966,8.73593648 15.8208027,9.15260016 15.6029482,9.44621165 L15.5303301,9.53033009 L10.81,14.25 L15,14.25 C15.3796958,14.25 15.693491,14.5321539 15.7431534,14.8982294 L15.75,15 C15.75,15.3796958 15.4678461,15.693491 15.1017706,15.7431534 L15,15.75 L9,15.75 L8.97158812,15.749465 C8.95623781,15.7488867 8.94090188,15.7478395 8.92560364,15.7463234 L9,15.75 C8.95315442,15.75 8.90731196,15.7457051 8.86284491,15.7374876 C8.85196718,15.7354242 8.8402739,15.7329853 8.82863298,15.7302653 C8.8051728,15.7248291 8.78271655,15.7184207 8.76071635,15.7110197 C8.75090869,15.707697 8.74054351,15.7039715 8.73024809,15.7000107 C8.71090579,15.6925505 8.69248608,15.684555 8.67446717,15.6758602 C8.66000914,15.6689416 8.64537558,15.6612981 8.63095468,15.6531392 C8.61173957,15.642195 8.59292968,15.6304105 8.57470339,15.6178404 C8.56611921,15.6120011 8.55728321,15.6056246 8.54855842,15.5990323 C8.4918014,15.5560981 8.44146961,15.5055276 8.39899844,15.448737 L8.46966991,15.5303301 C8.43261664,15.4932768 8.40025089,15.4533111 8.37257267,15.4111698 C8.35940783,15.3910149 8.34702767,15.3700275 8.33567096,15.3484182 C8.33066821,15.3389734 8.32615614,15.3299144 8.32183867,15.3207862 C8.30927765,15.2942877 8.29793447,15.2661653 8.28830293,15.2372605 C8.28604456,15.2303168 8.28412011,15.2242456 8.2822748,15.2181555 C8.2709186,15.181066 8.26229378,15.1419231 8.25684662,15.1017706 L8.25,15 L8.25,9 C8.25,8.58578644 8.58578644,8.25 9,8.25 Z" id="Icon-Color" fill="#212121"></path>
    </g>
</svg>