<?xml version="1.0" encoding="UTF-8"?>
<svg width="24px" height="24px" viewBox="0 0 24 24" version="1.1" xmlns="http://www.w3.org/2000/svg" xmlns:xlink="http://www.w3.org/1999/xlink">
    <title>Icon/arrows/arrow-down-right</title>
    <g id="Icon/arrows/arrow-down-right" stroke="none" stroke-width="1" fill="none" fill-rule="evenodd">
        <path d="M7.44621165,6.39705176 L7.53033009,6.46966991 L16.25,15.189 L16.25,8 C16.25,7.62030423 16.5321539,7.30650904 16.8982294,7.25684662 L17,7.25 C17.3796958,7.25 17.693491,7.53215388 17.7431534,7.89822944 L17.75,8 L17.75,17 L17.7494268,17.0294084 C17.7488542,17.0440905 17.7478527,17.0587591 17.7464221,17.0733936 L17.75,17 C17.75,17.0468456 17.7457051,17.092688 17.7374876,17.1371551 C17.7354242,17.1480328 17.7329853,17.1597261 17.7302653,17.171367 C17.7248291,17.1948272 17.7184207,17.2172835 17.7110197,17.2392836 C17.707697,17.2490913 17.7039715,17.2594565 17.7000107,17.2697519 C17.6925505,17.2890942 17.684555,17.3075139 17.6758602,17.3255328 C17.6689416,17.3399909 17.6612981,17.3546244 17.6531392,17.3690453 C17.643187,17.3865081 17.6325387,17.4036581 17.6212371,17.4203291 C17.6143147,17.4306612 17.6068243,17.4411291 17.5990323,17.4514416 C17.5560981,17.5081986 17.5055276,17.5585304 17.448737,17.6010016 L17.5303301,17.5303301 C17.4932768,17.5673834 17.4533111,17.5997491 17.4111698,17.6274273 C17.3910149,17.6405922 17.3700275,17.6529723 17.3484182,17.664329 C17.3392964,17.6691626 17.3305656,17.6735192 17.3217704,17.6776949 C17.2949819,17.690442 17.2665221,17.7019466 17.2372605,17.7116971 C17.2303168,17.7139554 17.2242456,17.7158799 17.2181555,17.7177252 C17.181066,17.7290814 17.1419231,17.7377062 17.1017706,17.7431534 L17,17.75 L8,17.75 C7.58578644,17.75 7.25,17.4142136 7.25,17 C7.25,16.6203042 7.53215388,16.306509 7.89822944,16.2568466 L8,16.25 L15.189,16.25 L6.46966991,7.53033009 C6.1767767,7.23743687 6.1767767,6.76256313 6.46966991,6.46966991 C6.73593648,6.20340335 7.15260016,6.1791973 7.44621165,6.39705176 Z" id="Icon-Color" fill="#212121"></path>
    </g>
</svg>