<?xml version="1.0" encoding="UTF-8"?>
<svg width="24px" height="24px" viewBox="0 0 24 24" version="1.1" xmlns="http://www.w3.org/2000/svg" xmlns:xlink="http://www.w3.org/1999/xlink">
    <title>Icon/arrows/arrow-bar-down</title>
    <g id="Icon/arrows/arrow-bar-down" stroke="none" stroke-width="1" fill="none" fill-rule="evenodd">
        <path d="M12,9.25 C12.3796958,9.25 12.693491,9.53215388 12.7431534,9.89822944 L12.75,10 L12.75,18.188 L15.4696699,15.4696699 C15.7625631,15.1767767 16.2374369,15.1767767 16.5303301,15.4696699 C16.7965966,15.7359365 16.8208027,16.1526002 16.6029482,16.4462117 L16.5303301,16.5303301 L12.5303301,20.5303301 C12.5057302,20.5549299 12.4794294,20.5778288 12.4516193,20.5988352 L12.4462117,20.6029482 L12.444,20.603 L12.4363794,20.6101204 C12.4271097,20.6167674 12.4177225,20.6231775 12.4082262,20.6293508 C12.3954328,20.6375905 12.3823024,20.6455676 12.3689158,20.653145 C12.3642897,20.6558298 12.359511,20.6584643 12.3547101,20.6610428 L12.3397334,20.6688686 C12.3328033,20.6723903 12.3258299,20.6757973 12.3188161,20.6790896 C12.3034012,20.6863291 12.2869994,20.6933602 12.2703089,20.6998114 C12.2594565,20.7039715 12.2490913,20.707697 12.2386647,20.7111871 C12.2362508,20.71204 12.2332093,20.7130414 12.2301592,20.7140238 C12.2265028,20.7151482 12.2238077,20.7159937 12.2211087,20.7168237 C12.2055612,20.7216872 12.1888748,20.7262256 12.1719681,20.730192 C12.1597261,20.7329853 12.1480328,20.7354242 12.136298,20.7375819 C12.1163698,20.7413287 12.095284,20.7443128 12.0739357,20.7464018 C12.0587591,20.7478527 12.0440905,20.7488542 12.0294084,20.7494268 C12.0197772,20.7498078 12.0099111,20.75 12,20.75 L11.9715881,20.749465 C11.9562378,20.7488867 11.9409019,20.7478395 11.9256036,20.7463234 L11.8982294,20.7431534 L11.8982294,20.7431534 L11.8862321,20.7413716 C11.8775172,20.7400414 11.8688213,20.7385575 11.8601487,20.7369197 C11.8499882,20.7350093 11.8392886,20.7327551 11.828633,20.7302653 C11.8188282,20.7280328 11.8096899,20.725704 11.8006203,20.7232093 L11.775548,20.715787 C11.7685184,20.7135892 11.7615148,20.7112856 11.7545397,20.708876 C11.7463046,20.7060293 11.7382553,20.7030912 11.7302481,20.7000107 C11.7224274,20.6970038 11.7152184,20.6940864 11.7080662,20.6910613 L11.6802971,20.6786726 C11.6710353,20.6743102 11.6618443,20.6697476 11.6527307,20.664985 C11.6450266,20.6609504 11.6379655,20.6571057 11.6309547,20.6531392 C11.6134919,20.643187 11.5963419,20.6325387 11.5796709,20.6212371 C11.5693388,20.6143147 11.5588709,20.6068243 11.5485584,20.5990323 C11.5205706,20.5778288 11.4942698,20.5549299 11.4696699,20.5303301 L7.46966991,16.5303301 C7.1767767,16.2374369 7.1767767,15.7625631 7.46966991,15.4696699 C7.73593648,15.2034034 8.15260016,15.1791973 8.44621165,15.3970518 L8.53033009,15.4696699 L11.25,18.189 L11.25,10 C11.25,9.58578644 11.5857864,9.25 12,9.25 Z M20,3.25 C20.4142136,3.25 20.75,3.58578644 20.75,4 C20.75,4.37969577 20.4678461,4.69349096 20.1017706,4.74315338 L20,4.75 L4,4.75 C3.58578644,4.75 3.25,4.41421356 3.25,4 C3.25,3.62030423 3.53215388,3.30650904 3.89822944,3.25684662 L4,3.25 L20,3.25 Z" id="Icon-Color" fill="#212121"></path>
    </g>
</svg>