<?xml version="1.0" encoding="UTF-8"?>
<svg width="24px" height="24px" viewBox="0 0 24 24" version="1.1" xmlns="http://www.w3.org/2000/svg" xmlns:xlink="http://www.w3.org/1999/xlink">
    <title>Icon/arrows/arrow-bottom-circle</title>
    <g id="Icon/arrows/arrow-bottom-circle" stroke="none" stroke-width="1" fill="none" fill-rule="evenodd">
        <path d="M12,2.25 C13.5187831,2.25 14.75,3.48121694 14.75,5 C14.75,6.25857578 13.9045229,7.31967982 12.7505538,7.64632705 L12.75,19.189 L14.4696699,17.4696699 C14.7359365,17.2034034 15.1526002,17.1791973 15.4462117,17.3970518 L15.5303301,17.4696699 C15.7965966,17.7359365 15.8208027,18.1526002 15.6029482,18.4462117 L15.5303301,18.5303301 L12.5303301,21.5303301 C12.504882,21.5557782 12.4776136,21.5794061 12.448737,21.6010016 L12.5303301,21.5303301 C12.4932768,21.5673834 12.4533111,21.5997491 12.4111698,21.6274273 C12.3910149,21.6405922 12.3700275,21.6529723 12.3484182,21.664329 C12.3392964,21.6691626 12.3305656,21.6735192 12.3217704,21.6776949 C12.2949819,21.690442 12.2665221,21.7019466 12.2372605,21.7116971 C12.2303168,21.7139554 12.2242456,21.7158799 12.2181555,21.7177252 C12.1496769,21.7386468 12.0761643,21.75 12,21.75 C11.9616078,21.75 11.9238893,21.7471153 11.8870495,21.7415508 C11.8754819,21.7397462 11.8637722,21.7376905 11.8521073,21.7353557 C11.8271042,21.730412 11.8028079,21.7242388 11.7790163,21.7169138 C11.7673565,21.7132873 11.7553071,21.7092554 11.743346,21.7049093 C11.7200484,21.696425 11.6979798,21.6871231 11.6764782,21.6768269 C11.6648771,21.6713347 11.6525401,21.6650317 11.640349,21.658365 C11.6142131,21.6439668 11.5895138,21.6284682 11.5658344,21.611629 C11.5621288,21.6090699 11.5579462,21.6060333 11.5537883,21.6029482 C11.5205706,21.5778288 11.4942698,21.5549299 11.4696699,21.5303301 L8.46966991,18.5303301 C8.1767767,18.2374369 8.1767767,17.7625631 8.46966991,17.4696699 C8.73593648,17.2034034 9.15260016,17.1791973 9.44621165,17.3970518 L9.53033009,17.4696699 L11.25,19.189 L11.2504445,7.64660943 C10.1475486,7.33487209 9.32621382,6.35231686 9.25501879,5.16752233 L9.25,5 C9.25,3.48121694 10.4812169,2.25 12,2.25 Z M12,3.75 C11.3096441,3.75 10.75,4.30964406 10.75,5 C10.75,5.69035594 11.3096441,6.25 12,6.25 C12.6903559,6.25 13.25,5.69035594 13.25,5 C13.25,4.30964406 12.6903559,3.75 12,3.75 Z" id="Icon-Color" fill="#212121"></path>
    </g>
</svg>