<?xml version="1.0" encoding="UTF-8"?>
<svg width="24px" height="24px" viewBox="0 0 24 24" version="1.1" xmlns="http://www.w3.org/2000/svg" xmlns:xlink="http://www.w3.org/1999/xlink">
    <title>Icon/arrows/arrows-diagonal-2</title>
    <g id="Icon/arrows/arrows-diagonal-2" stroke="none" stroke-width="1" fill="none" fill-rule="evenodd">
        <path d="M14.4462117,13.3970518 L14.5303301,13.4696699 L19.25,18.189 L19.25,16 C19.25,15.6203042 19.5321539,15.306509 19.8982294,15.2568466 L20,15.25 C20.3796958,15.25 20.693491,15.5321539 20.7431534,15.8982294 L20.75,16 L20.75,20 L20.7494268,20.0294084 C20.7488542,20.0440905 20.7478527,20.0587591 20.7464221,20.0733936 L20.75,20 C20.75,20.0468456 20.7457051,20.092688 20.7374876,20.1371551 C20.7354242,20.1480328 20.7329853,20.1597261 20.7302653,20.171367 C20.7248291,20.1948272 20.7184207,20.2172835 20.7110197,20.2392836 C20.707697,20.2490913 20.7039715,20.2594565 20.7000107,20.2697519 C20.6925505,20.2890942 20.684555,20.3075139 20.6758602,20.3255328 C20.6689416,20.3399909 20.6612981,20.3546244 20.6531392,20.3690453 C20.643187,20.3865081 20.6325387,20.4036581 20.6212371,20.4203291 C20.6143147,20.4306612 20.6068243,20.4411291 20.5990323,20.4514416 C20.5560981,20.5081986 20.5055276,20.5585304 20.448737,20.6010016 L20.5303301,20.5303301 C20.4932768,20.5673834 20.4533111,20.5997491 20.4111698,20.6274273 C20.3910149,20.6405922 20.3700275,20.6529723 20.3484182,20.664329 C20.3392964,20.6691626 20.3305656,20.6735192 20.3217704,20.6776949 C20.2949819,20.690442 20.2665221,20.7019466 20.2372605,20.7116971 C20.2303168,20.7139554 20.2242456,20.7158799 20.2181555,20.7177252 C20.181066,20.7290814 20.1419231,20.7377062 20.1017706,20.7431534 L20,20.75 L16,20.75 C15.5857864,20.75 15.25,20.4142136 15.25,20 C15.25,19.6203042 15.5321539,19.306509 15.8982294,19.2568466 L16,19.25 L18.189,19.25 L13.4696699,14.5303301 C13.1767767,14.2374369 13.1767767,13.7625631 13.4696699,13.4696699 C13.7359365,13.2034034 14.1526002,13.1791973 14.4462117,13.3970518 Z M8,3.25 C8.41421356,3.25 8.75,3.58578644 8.75,4 C8.75,4.37969577 8.46784612,4.69349096 8.10177056,4.74315338 L8,4.75 L5.811,4.75 L10.5303301,9.46966991 C10.8232233,9.76256313 10.8232233,10.2374369 10.5303301,10.5303301 C10.2640635,10.7965966 9.84739984,10.8208027 9.55378835,10.6029482 L9.46966991,10.5303301 L4.75,5.811 L4.75,8 C4.75,8.37969577 4.46784612,8.69349096 4.10177056,8.74315338 L4,8.75 C3.62030423,8.75 3.30650904,8.46784612 3.25684662,8.10177056 L3.25,8 L3.25,4 L3.25017932,3.98354891 C3.25062303,3.96319859 3.25189016,3.94286288 3.2539807,3.92259605 L3.25,4 C3.25,3.95315442 3.25429489,3.90731196 3.26251238,3.86284491 C3.26457582,3.85196718 3.26701468,3.8402739 3.26973472,3.82863298 C3.27517085,3.8051728 3.28157935,3.78271655 3.28898031,3.76071635 C3.29230301,3.75090869 3.29602848,3.74054351 3.29998933,3.73024809 C3.30744952,3.71090579 3.315445,3.69248608 3.32413984,3.67446717 C3.33105843,3.66000914 3.3387019,3.64537558 3.34686081,3.63095468 C3.35681304,3.61349194 3.36746126,3.59634194 3.3787629,3.57967093 C3.38568532,3.56933877 3.39317572,3.55887091 3.40096775,3.54855842 C3.44462629,3.49084242 3.49618887,3.43976524 3.55415605,3.39684567 L3.46966991,3.46966991 C3.50672319,3.43261664 3.54668892,3.40025089 3.58883021,3.37257267 C3.60898514,3.35940783 3.62997247,3.34702767 3.65158175,3.33567096 C3.66070362,3.33083742 3.66943437,3.32648082 3.67822959,3.32230508 C3.70660552,3.30880073 3.73676262,3.2967322 3.76780866,3.28663399 C3.77310765,3.28496585 3.77747119,3.28359992 3.78184446,3.2822748 C3.81893395,3.2709186 3.85807689,3.26229378 3.89822944,3.25684662 L4,3.25 L8,3.25 Z" id="Icon-Color" fill="#212121"></path>
    </g>
</svg>