<?xml version="1.0" encoding="UTF-8"?>
<svg width="24px" height="24px" viewBox="0 0 24 24" version="1.1" xmlns="http://www.w3.org/2000/svg" xmlns:xlink="http://www.w3.org/1999/xlink">
    <title>Icon/arrows/arrow-bar-left</title>
    <g id="Icon/arrows/arrow-bar-left" stroke="none" stroke-width="1" fill="none" fill-rule="evenodd">
        <path d="M4,3.25 C4.37969577,3.25 4.69349096,3.53215388 4.74315338,3.89822944 L4.75,4 L4.75,20 C4.75,20.4142136 4.41421356,20.75 4,20.75 C3.62030423,20.75 3.30650904,20.4678461 3.25684662,20.1017706 L3.25,20 L3.25,4 C3.25,3.58578644 3.58578644,3.25 4,3.25 Z M14.5303301,7.46966991 C14.7965966,7.73593648 14.8208027,8.15260016 14.6029482,8.44621165 L14.5303301,8.53033009 L11.81,11.25 L20,11.25 C20.4142136,11.25 20.75,11.5857864 20.75,12 C20.75,12.3796958 20.4678461,12.693491 20.1017706,12.7431534 L20,12.75 L11.811,12.75 L14.5303301,15.4696699 C14.8232233,15.7625631 14.8232233,16.2374369 14.5303301,16.5303301 C14.2640635,16.7965966 13.8473998,16.8208027 13.5537883,16.6029482 L13.4696699,16.5303301 L9.46966991,12.5303301 L9.40627192,12.4583026 C9.40455735,12.4560847 9.40285492,12.4538569 9.40116475,12.4516193 L9.39705176,12.4462117 L9.396,12.444 L9.3898796,12.4363794 C9.38323258,12.4271097 9.37682246,12.4177225 9.37064924,12.4082262 C9.36240946,12.3954328 9.35443242,12.3823024 9.34685504,12.3689158 C9.34417023,12.3642897 9.34153571,12.359511 9.33895724,12.3547101 L9.33113136,12.3397334 C9.32760972,12.3328033 9.32420273,12.3258299 9.32091038,12.3188161 C9.3136709,12.3034012 9.30663983,12.2869994 9.30018864,12.2703089 C9.29602848,12.2594565 9.29230301,12.2490913 9.28881291,12.2386647 C9.28157935,12.2172835 9.27517085,12.1948272 9.26980803,12.1719681 C9.26701468,12.1597261 9.26457582,12.1480328 9.26241813,12.136298 C9.25891107,12.1176674 9.25606315,12.0979156 9.25399994,12.077931 C9.25192429,12.0574681 9.25066463,12.0374655 9.25020172,12.017448 C9.25006606,12.0116044 9.25,12.0058099 9.25,12 L9.25017932,11.9835489 C9.25062303,11.9631986 9.25189016,11.9428629 9.2539807,11.922596 L9.25684662,11.8982294 L9.25684662,11.8982294 L9.25862837,11.8862321 C9.25995855,11.8775172 9.26144254,11.8688213 9.26308032,11.8601487 C9.26499067,11.8499882 9.26724489,11.8392886 9.26973472,11.828633 C9.27196724,11.8188282 9.27429596,11.8096899 9.27679072,11.8006203 L9.28421298,11.775548 C9.28641076,11.7685184 9.28871442,11.7615148 9.29112396,11.7545397 C9.29397067,11.7463046 9.29690881,11.7382553 9.29998933,11.7302481 C9.30744952,11.7109058 9.315445,11.6924861 9.32413984,11.6744672 L9.3239304,11.6748285 L9.33339881,11.6558412 C9.33393497,11.6548034 9.33447371,11.6537665 9.33501503,11.6527307 C9.33904959,11.6450266 9.34289429,11.6379655 9.34686081,11.6309547 C9.35681304,11.6134919 9.36746126,11.5963419 9.3787629,11.5796709 C9.38568532,11.5693388 9.39317572,11.5588709 9.40096775,11.5485584 C9.42217116,11.5205706 9.44507007,11.4942698 9.46966991,11.4696699 L13.4696699,7.46966991 C13.7625631,7.1767767 14.2374369,7.1767767 14.5303301,7.46966991 Z" id="Icon-Color" fill="#212121"></path>
    </g>
</svg>