<?xml version="1.0" encoding="UTF-8"?>
<svg width="24px" height="24px" viewBox="0 0 24 24" version="1.1" xmlns="http://www.w3.org/2000/svg" xmlns:xlink="http://www.w3.org/1999/xlink">
    <title>Icon/arrows/arrow-bar-right</title>
    <g id="Icon/arrows/arrow-bar-right" stroke="none" stroke-width="1" fill="none" fill-rule="evenodd">
        <path d="M20,3.25 C20.3796958,3.25 20.693491,3.53215388 20.7431534,3.89822944 L20.75,4 L20.75,20 C20.75,20.4142136 20.4142136,20.75 20,20.75 C19.6203042,20.75 19.306509,20.4678461 19.2568466,20.1017706 L19.25,20 L19.25,4 C19.25,3.58578644 19.5857864,3.25 20,3.25 Z M10.4462117,7.39705176 L10.5303301,7.46966991 L14.5303301,11.4696699 C14.5557782,11.495118 14.5794061,11.5223864 14.6010016,11.551263 L14.5303301,11.4696699 C14.5673834,11.5067232 14.5997491,11.5466889 14.6274273,11.5888302 C14.6343078,11.5994209 14.6410943,11.6103495 14.647603,11.6214606 C14.6587439,11.6408229 14.6646318,11.6518315 14.6702256,11.6629503 C14.6729109,11.6682959 14.6753319,11.6732524 14.6776949,11.6782296 C14.6821125,11.6875567 14.686699,11.6977525 14.6910613,11.7080662 L14.6996171,11.7292272 C14.7013261,11.7336501 14.7029916,11.7380858 14.7046137,11.7425339 L14.7119519,11.7636325 C14.7139554,11.7696832 14.7158799,11.7757544 14.7177252,11.7818445 C14.7222489,11.7965131 14.726472,11.8121756 14.730192,11.8280319 C14.7329853,11.8402739 14.7354242,11.8519672 14.7375819,11.863702 C14.7412529,11.8832199 14.7441946,11.9038837 14.746277,11.9248004 C14.7478395,11.9409019 14.7488867,11.9562378 14.749465,11.9715881 C14.7498115,11.9804163 14.75,11.9901861 14.75,12 L14.7494268,12.0294084 C14.7488542,12.0440905 14.7478527,12.0587591 14.7464221,12.0733936 L14.75,12 C14.75,12.0383922 14.7471153,12.0761107 14.7415508,12.1129505 C14.7410717,12.1157553 14.7406028,12.1187341 14.7401159,12.1217105 L14.7360779,12.1442371 C14.7345081,12.1522874 14.7328054,12.160317 14.73097,12.1683223 C14.7268339,12.1865768 14.7221704,12.2039102 14.7169138,12.2209837 C14.7154963,12.2254388 14.7139359,12.2303468 14.7123237,12.2352415 L14.7081374,12.247588 C14.7054287,12.2553531 14.7025886,12.2630825 14.6996171,12.2707728 C14.6925401,12.2890438 14.6849965,12.3064613 14.6768269,12.3235218 C14.673838,12.329868 14.6702805,12.3370367 14.6666012,12.3441588 L14.6610428,12.3547101 C14.6588326,12.3588251 14.6565813,12.3629239 14.6542889,12.3670058 C14.6423873,12.3880597 14.6295487,12.4085083 14.6157838,12.4282634 C14.6118625,12.4340051 14.6074572,12.4401347 14.6029482,12.4462117 C14.5971451,12.4538569 14.5954427,12.4560847 14.5937281,12.4583026 L14.5303301,12.5303301 L10.5303301,16.5303301 C10.2374369,16.8232233 9.76256313,16.8232233 9.46966991,16.5303301 C9.20340335,16.2640635 9.1791973,15.8473998 9.39705176,15.5537883 L9.46966991,15.4696699 L12.188,12.75 L4,12.75 C3.58578644,12.75 3.25,12.4142136 3.25,12 C3.25,11.6203042 3.53215388,11.306509 3.89822944,11.2568466 L4,11.25 L12.189,11.25 L9.46966991,8.53033009 C9.1767767,8.23743687 9.1767767,7.76256313 9.46966991,7.46966991 C9.73593648,7.20340335 10.1526002,7.1791973 10.4462117,7.39705176 Z" id="Icon-Color" fill="#212121"></path>
    </g>
</svg>