<?xml version="1.0" encoding="UTF-8"?>
<svg width="24px" height="24px" viewBox="0 0 24 24" version="1.1" xmlns="http://www.w3.org/2000/svg" xmlns:xlink="http://www.w3.org/1999/xlink">
    <title>Icon/arrows/arrow-left-bar</title>
    <g id="Icon/arrows/arrow-left-bar" stroke="none" stroke-width="1" fill="none" fill-rule="evenodd">
        <path d="M21,8.25 C21.3796958,8.25 21.693491,8.53215388 21.7431534,8.89822944 L21.75,9 L21.75,15 C21.75,15.4142136 21.4142136,15.75 21,15.75 C20.6203042,15.75 20.306509,15.4678461 20.2568466,15.1017706 L20.25,15 L20.25,12.75 L4.81,12.75 L6.53033009,14.4696699 C6.79659665,14.7359365 6.8208027,15.1526002 6.60294824,15.4462117 L6.53033009,15.5303301 C6.26406352,15.7965966 5.84739984,15.8208027 5.55378835,15.6029482 L5.46966991,15.5303301 L2.46966991,12.5303301 L2.40627192,12.4583026 C2.40382253,12.4551341 2.40139794,12.4519455 2.39899844,12.448737 L2.46966991,12.5303301 C2.43261664,12.4932768 2.40025089,12.4533111 2.37257267,12.4111698 C2.35940783,12.3910149 2.34702767,12.3700275 2.33567096,12.3484182 C2.33083742,12.3392964 2.32648082,12.3305656 2.32230508,12.3217704 C2.30955796,12.2949819 2.29805336,12.2665221 2.28830293,12.2372605 C2.28604456,12.2303168 2.28412011,12.2242456 2.2822748,12.2181555 C2.26135317,12.1496769 2.25,12.0761643 2.25,12 C2.25,11.9616078 2.25288471,11.9238893 2.25844919,11.8870495 C2.26025385,11.8754819 2.26230949,11.8637722 2.26464433,11.8521073 C2.26958796,11.8271042 2.27576118,11.8028079 2.28308617,11.7790163 C2.28671273,11.7673565 2.29074464,11.7553071 2.29509073,11.743346 C2.30357499,11.7200484 2.31287686,11.6979798 2.32317314,11.6764782 C2.32866533,11.6648771 2.33496828,11.6525401 2.34163501,11.640349 C2.35487024,11.6163332 2.36897543,11.5936098 2.38421622,11.5717366 C2.38813751,11.5659949 2.39254279,11.5598653 2.39705176,11.5537883 C2.42217116,11.5205706 2.44507007,11.4942698 2.46966991,11.4696699 L5.46966991,8.46966991 C5.76256313,8.1767767 6.23743687,8.1767767 6.53033009,8.46966991 C6.79659665,8.73593648 6.8208027,9.15260016 6.60294824,9.44621165 L6.53033009,9.53033009 L4.81,11.25 L20.25,11.25 L20.25,9 C20.25,8.58578644 20.5857864,8.25 21,8.25 Z" id="Icon-Color" fill="#212121"></path>
    </g>
</svg>