<?xml version="1.0" encoding="UTF-8"?>
<svg width="24px" height="24px" viewBox="0 0 24 24" version="1.1" xmlns="http://www.w3.org/2000/svg" xmlns:xlink="http://www.w3.org/1999/xlink">
    <title>Icon/arrows/arrow-down-right-circle</title>
    <g id="Icon/arrows/arrow-down-right-circle" stroke="none" stroke-width="1" fill="none" fill-rule="evenodd">
        <path d="M12,2.25 C17.3847763,2.25 21.75,6.61522369 21.75,12 C21.75,17.3847763 17.3847763,21.75 12,21.75 C6.61522369,21.75 2.25,17.3847763 2.25,12 C2.25,6.61522369 6.61522369,2.25 12,2.25 Z M12,3.75 C7.44365081,3.75 3.75,7.44365081 3.75,12 C3.75,16.5563492 7.44365081,20.25 12,20.25 C16.5563492,20.25 20.25,16.5563492 20.25,12 C20.25,7.44365081 16.5563492,3.75 12,3.75 Z M15,8.25 C15.3796958,8.25 15.693491,8.53215388 15.7431534,8.89822944 L15.75,9 L15.75,15 C15.75,15.2843897 15.6036554,15.5083555 15.3991119,15.6353865 C15.3904812,15.64054 15.3816861,15.6458312 15.372776,15.6509448 C15.365536,15.6551312 15.3583179,15.6590735 15.3510396,15.6628993 C15.3026762,15.6886383 15.2507925,15.709298 15.1964621,15.7240054 C15.1291122,15.7425613 15.0594004,15.7519899 14.9892229,15.7514843 L9,15.75 C8.58578644,15.75 8.25,15.4142136 8.25,15 C8.25,14.6203042 8.53215388,14.306509 8.89822944,14.2568466 L9,14.25 L13.189,14.25 L8.46966991,9.53033009 C8.1767767,9.23743687 8.1767767,8.76256313 8.46966991,8.46966991 C8.73593648,8.20340335 9.15260016,8.1791973 9.44621165,8.39705176 L9.53033009,8.46966991 L14.25,13.189 L14.25,9 C14.25,8.62030423 14.5321539,8.30650904 14.8982294,8.25684662 L15,8.25 Z" id="Icon-Color" fill="#212121"></path>
    </g>
</svg>