<?xml version="1.0" encoding="UTF-8"?>
<svg width="24px" height="24px" viewBox="0 0 24 24" version="1.1" xmlns="http://www.w3.org/2000/svg" xmlns:xlink="http://www.w3.org/1999/xlink">
    <title>Icon/arrows/arrow-down-circle </title>
    <g id="Icon/arrows/arrow-down-circle-" stroke="none" stroke-width="1" fill="none" fill-rule="evenodd">
        <path d="M12,2.25 C17.3847763,2.25 21.75,6.61522369 21.75,12 C21.75,17.3847763 17.3847763,21.75 12,21.75 C6.61522369,21.75 2.25,17.3847763 2.25,12 C2.25,6.61522369 6.61522369,2.25 12,2.25 Z M12,3.75 C7.44365081,3.75 3.75,7.44365081 3.75,12 C3.75,16.5563492 7.44365081,20.25 12,20.25 C16.5563492,20.25 20.25,16.5563492 20.25,12 C20.25,7.44365081 16.5563492,3.75 12,3.75 Z M11.6452899,16.6610428 L11.6330196,16.6542367 C11.6291452,16.6520588 11.6252921,16.6498474 11.6214606,16.647603 L11.577013,16.6195035 C11.5691909,16.6141498 11.5614478,16.6086314 11.5537883,16.6029482 C11.5205706,16.5778288 11.4942698,16.5549299 11.4696699,16.5303301 L7.46966991,12.5303301 C7.1767767,12.2374369 7.1767767,11.7625631 7.46966991,11.4696699 C7.73593648,11.2034034 8.15260016,11.1791973 8.44621165,11.3970518 L8.53033009,11.4696699 L11.25,14.189 L11.25,8 C11.25,7.58578644 11.5857864,7.25 12,7.25 C12.3796958,7.25 12.693491,7.53215388 12.7431534,7.89822944 L12.75,8 L12.75,14.188 L15.4696699,11.4696699 C15.7625631,11.1767767 16.2374369,11.1767767 16.5303301,11.4696699 C16.7965966,11.7359365 16.8208027,12.1526002 16.6029482,12.4462117 L16.5303301,12.5303301 L12.5303301,16.5303301 C12.504882,16.5557782 12.4776136,16.5794061 12.448737,16.6010016 L12.5303301,16.5303301 C12.4932768,16.5673834 12.4533111,16.5997491 12.4111698,16.6274273 C12.4005791,16.6343078 12.3896505,16.6410943 12.3785394,16.647603 C12.3591771,16.6587439 12.3481685,16.6646318 12.3370497,16.6702256 C12.3317041,16.6729109 12.3267476,16.6753319 12.3217704,16.6776949 C12.3124433,16.6821125 12.3022475,16.686699 12.2919338,16.6910613 L12.2707728,16.6996171 C12.2591615,16.7041037 12.2474611,16.7082907 12.2356835,16.712178 C12.2303168,16.7139554 12.2242456,16.7158799 12.2181555,16.7177252 C12.2034869,16.7222489 12.1878244,16.726472 12.1719681,16.730192 C12.1597261,16.7329853 12.1480328,16.7354242 12.136298,16.7375819 C12.1163698,16.7413287 12.095284,16.7443128 12.0739357,16.7464018 C12.0587591,16.7478527 12.0440905,16.7488542 12.0294084,16.7494268 C12.0197772,16.7498078 12.0099111,16.75 12,16.75 L11.9715881,16.749465 C11.9562378,16.7488867 11.9409019,16.7478395 11.9256036,16.7463234 L12,16.75 C11.9616078,16.75 11.9238893,16.7471153 11.8870495,16.7415508 C11.8842447,16.7410717 11.8812659,16.7406028 11.8782895,16.7401159 L11.8557629,16.7360779 C11.8477126,16.7345081 11.839683,16.7328054 11.8316777,16.73097 C11.8134232,16.7268339 11.7960898,16.7221704 11.7790163,16.7169138 C11.7745612,16.7154963 11.7696532,16.7139359 11.7647585,16.7123237 L11.752412,16.7081374 C11.7446469,16.7054287 11.7369175,16.7025886 11.7292272,16.6996171 C11.7109562,16.6925401 11.6935387,16.6849965 11.6764782,16.6768269 C11.670132,16.673838 11.6629633,16.6702805 11.6558412,16.6666012 L11.6452899,16.6610428 L11.6452899,16.6610428 Z" id="Icon-Color" fill="#212121"></path>
    </g>
</svg>