<?xml version="1.0" encoding="UTF-8"?>
<svg width="24px" height="24px" viewBox="0 0 24 24" version="1.1" xmlns="http://www.w3.org/2000/svg" xmlns:xlink="http://www.w3.org/1999/xlink">
    <title>Icon/arrows/arrows-down</title>
    <g id="Icon/arrows/arrows-down" stroke="none" stroke-width="1" fill="none" fill-rule="evenodd">
        <path d="M7,2.25 C7.37969577,2.25 7.69349096,2.53215388 7.74315338,2.89822944 L7.75,3 L7.75,19.189 L9.46966991,17.4696699 C9.73593648,17.2034034 10.1526002,17.1791973 10.4462117,17.3970518 L10.5303301,17.4696699 C10.7965966,17.7359365 10.8208027,18.1526002 10.6029482,18.4462117 L10.5303301,18.5303301 L7.53033009,21.5303301 C7.50488197,21.5557782 7.47761357,21.5794061 7.44873696,21.6010016 L7.53033009,21.5303301 C7.49327681,21.5673834 7.45331108,21.5997491 7.41116979,21.6274273 C7.39101486,21.6405922 7.37002753,21.6529723 7.34841825,21.664329 C7.33929638,21.6691626 7.33056563,21.6735192 7.32177041,21.6776949 C7.29498188,21.690442 7.26652211,21.7019466 7.23726047,21.7116971 C7.23031678,21.7139554 7.22424558,21.7158799 7.21815554,21.7177252 C7.14967686,21.7386468 7.07616427,21.75 7,21.75 C6.96160776,21.75 6.92388927,21.7471153 6.88704947,21.7415508 C6.87548189,21.7397462 6.86377221,21.7376905 6.85210733,21.7353557 C6.82710419,21.730412 6.80280788,21.7242388 6.77901634,21.7169138 C6.76735654,21.7132873 6.75530706,21.7092554 6.74334602,21.7049093 C6.72004839,21.696425 6.69797981,21.6871231 6.67647821,21.6768269 C6.66487713,21.6713347 6.65254006,21.6650317 6.64034898,21.658365 C6.61421307,21.6439668 6.5895138,21.6284682 6.56583438,21.611629 C6.56212882,21.6090699 6.55794624,21.6060333 6.55378835,21.6029482 C6.52057056,21.5778288 6.49426976,21.5549299 6.46966991,21.5303301 L3.46966991,18.5303301 C3.1767767,18.2374369 3.1767767,17.7625631 3.46966991,17.4696699 C3.73593648,17.2034034 4.15260016,17.1791973 4.44621165,17.3970518 L4.53033009,17.4696699 L6.25,19.189 L6.25,3 C6.25,2.58578644 6.58578644,2.25 7,2.25 Z M17,2.25 C17.3796958,2.25 17.693491,2.53215388 17.7431534,2.89822944 L17.75,3 L17.75,19.188 L19.4696699,17.4696699 C19.7359365,17.2034034 20.1526002,17.1791973 20.4462117,17.3970518 L20.5303301,17.4696699 C20.7965966,17.7359365 20.8208027,18.1526002 20.6029482,18.4462117 L20.5303301,18.5303301 L17.5303301,21.5303301 C17.504882,21.5557782 17.4776136,21.5794061 17.448737,21.6010016 L17.5303301,21.5303301 C17.4932768,21.5673834 17.4533111,21.5997491 17.4111698,21.6274273 C17.3910149,21.6405922 17.3700275,21.6529723 17.3484182,21.664329 C17.3399423,21.6688242 17.3318676,21.6728683 17.3237373,21.6767576 C17.2963695,21.6898799 17.2672357,21.7017089 17.2372605,21.7116971 C17.2303168,21.7139554 17.2242456,21.7158799 17.2181555,21.7177252 C17.1496769,21.7386468 17.0761643,21.75 17,21.75 C16.9616078,21.75 16.9238893,21.7471153 16.8870495,21.7415508 C16.8754819,21.7397462 16.8637722,21.7376905 16.8521073,21.7353557 C16.8271042,21.730412 16.8028079,21.7242388 16.7790163,21.7169138 C16.7673565,21.7132873 16.7553071,21.7092554 16.743346,21.7049093 C16.7200484,21.696425 16.6979798,21.6871231 16.6764782,21.6768269 C16.6648771,21.6713347 16.6525401,21.6650317 16.640349,21.658365 C16.6142131,21.6439668 16.5895138,21.6284682 16.5658344,21.611629 C16.5621288,21.6090699 16.5579462,21.6060333 16.5537883,21.6029482 C16.5205706,21.5778288 16.4942698,21.5549299 16.4696699,21.5303301 L13.4696699,18.5303301 C13.1767767,18.2374369 13.1767767,17.7625631 13.4696699,17.4696699 C13.7359365,17.2034034 14.1526002,17.1791973 14.4462117,17.3970518 L14.5303301,17.4696699 L16.25,19.19 L16.25,3 C16.25,2.58578644 16.5857864,2.25 17,2.25 Z" id="Icon-Color" fill="#212121"></path>
    </g>
</svg>