<?xml version="1.0" encoding="UTF-8"?>
<svg width="24px" height="24px" viewBox="0 0 24 24" version="1.1" xmlns="http://www.w3.org/2000/svg" xmlns:xlink="http://www.w3.org/1999/xlink">
    <title>Icon/arrows/arrow-loop-left</title>
    <g id="Icon/arrows/arrow-loop-left" stroke="none" stroke-width="1" fill="none" fill-rule="evenodd">
        <path d="M7.53033009,14.4696699 C7.79659665,14.7359365 7.8208027,15.1526002 7.60294824,15.4462117 L7.53033009,15.5303301 C7.26406352,15.7965966 6.84739984,15.8208027 6.55378835,15.6029482 L6.46966991,15.5303301 L3.46966991,12.5303301 L3.46032832,12.520822 C3.43841873,12.4981245 3.41792784,12.4740486 3.39899844,12.448737 L3.46966991,12.5303301 C3.43261664,12.4932768 3.40025089,12.4533111 3.37257267,12.4111698 C3.35940783,12.3910149 3.34702767,12.3700275 3.33567096,12.3484182 C3.33083742,12.3392964 3.32648082,12.3305656 3.32230508,12.3217704 C3.30955796,12.2949819 3.29805336,12.2665221 3.28830293,12.2372605 C3.28604456,12.2303168 3.28412011,12.2242456 3.2822748,12.2181555 C3.2709186,12.181066 3.26229378,12.1419231 3.25684662,12.1017706 L3.25,12 C3.25,11.9616078 3.25288471,11.9238893 3.25844919,11.8870495 C3.26025385,11.8754819 3.26230949,11.8637722 3.26464433,11.8521073 C3.26958796,11.8271042 3.27576118,11.8028079 3.28308617,11.7790163 C3.28671273,11.7673565 3.29074464,11.7553071 3.29509073,11.743346 C3.30357499,11.7200484 3.31287686,11.6979798 3.32317314,11.6764782 C3.32866533,11.6648771 3.33496828,11.6525401 3.34163501,11.640349 C3.35487024,11.6163332 3.36897543,11.5936098 3.38421622,11.5717366 C3.38813751,11.5659949 3.39254279,11.5598653 3.39705176,11.5537883 C3.42217116,11.5205706 3.44507007,11.4942698 3.46966991,11.4696699 L6.46966991,8.46966991 C6.76256313,8.1767767 7.23743687,8.1767767 7.53033009,8.46966991 C7.79659665,8.73593648 7.8208027,9.15260016 7.60294824,9.44621165 L7.53033009,9.53033009 L5.81,11.25 L12.25,11.25 L12.25,8 C12.25,5.44951834 14.2601413,3.36853034 16.782572,3.25488786 L17,3.25 C19.6233526,3.25 21.75,5.37664744 21.75,8 C21.75,10.5504817 19.7398587,12.6314697 17.217428,12.7451121 L17,12.75 L13.75,12.75 L13.75,21 C13.75,21.3796958 13.4678461,21.693491 13.1017706,21.7431534 L13,21.75 C12.6203042,21.75 12.306509,21.4678461 12.2568466,21.1017706 L12.25,21 L12.25,12.75 L5.81,12.75 L7.53033009,14.4696699 Z M17,4.75 C15.2669685,4.75 13.8507541,6.10645477 13.7551448,7.81557609 L13.75,8 L13.75,11.25 L17,11.25 C18.7330315,11.25 20.1492459,9.89354523 20.2448552,8.18442391 L20.25,8 C20.25,6.20507456 18.7949254,4.75 17,4.75 Z" id="Icon-Color" fill="#212121"></path>
    </g>
</svg>