<?xml version="1.0" encoding="UTF-8"?>
<svg width="24px" height="24px" viewBox="0 0 24 24" version="1.1" xmlns="http://www.w3.org/2000/svg" xmlns:xlink="http://www.w3.org/1999/xlink">
    <title>Icon/arrows/arrow-back</title>
    <g id="Icon/arrows/arrow-back" stroke="none" stroke-width="1" fill="none" fill-rule="evenodd">
        <path d="M16,6.25 C18.6233526,6.25 20.75,8.37664744 20.75,11 C20.75,13.5504817 18.7398587,15.6314697 16.217428,15.7451121 L16,15.75 L6.811,15.75 L9.53033009,18.4696699 C9.79659665,18.7359365 9.8208027,19.1526002 9.60294824,19.4462117 L9.53033009,19.5303301 C9.26406352,19.7965966 8.84739984,19.8208027 8.55378835,19.6029482 L8.46966991,19.5303301 L4.42971423,15.4871297 L4.37849655,15.42005 L4.3239304,15.3251715 L4.28881291,15.2386647 L4.26241813,15.136298 L4.25399994,15.077931 L4.25,15 L4.25317463,14.9305305 L4.26973472,14.828633 L4.29998933,14.7302481 L4.34686081,14.6309547 L4.39705176,14.5537883 C4.42217116,14.5205706 4.44507007,14.4942698 4.46966991,14.4696699 L8.46966991,10.4696699 C8.76256313,10.1767767 9.23743687,10.1767767 9.53033009,10.4696699 C9.79659665,10.7359365 9.8208027,11.1526002 9.60294824,11.4462117 L9.53033009,11.5303301 L6.811,14.25 L16,14.25 C17.7949254,14.25 19.25,12.7949254 19.25,11 C19.25,9.26696854 17.8935452,7.85075407 16.1844239,7.75514479 L16,7.75 L15,7.75 C14.5857864,7.75 14.25,7.41421356 14.25,7 C14.25,6.62030423 14.5321539,6.30650904 14.8982294,6.25684662 L15,6.25 L16,6.25 Z" id="Icon-Color" fill="#212121"></path>
    </g>
</svg>