<?xml version="1.0" encoding="UTF-8"?>
<svg width="24px" height="24px" viewBox="0 0 24 24" version="1.1" xmlns="http://www.w3.org/2000/svg" xmlns:xlink="http://www.w3.org/1999/xlink">
    <title>Icon/arrows/arrow-loop-right</title>
    <g id="Icon/arrows/arrow-loop-right" stroke="none" stroke-width="1" fill="none" fill-rule="evenodd">
        <path d="M8,3.25 C10.5504817,3.25 12.6314697,5.26014129 12.7451121,7.782572 L12.75,8 L12.75,11.25 L19.189,11.25 L17.4696699,9.53033009 C17.2034034,9.26406352 17.1791973,8.84739984 17.3970518,8.55378835 L17.4696699,8.46966991 C17.7359365,8.20340335 18.1526002,8.1791973 18.4462117,8.39705176 L18.5303301,8.46966991 L21.5303301,11.4696699 C21.5557782,11.495118 21.5794061,11.5223864 21.6010016,11.551263 L21.5303301,11.4696699 C21.5673834,11.5067232 21.5997491,11.5466889 21.6274273,11.5888302 C21.6405922,11.6089851 21.6529723,11.6299725 21.664329,11.6515818 C21.6691626,11.6607036 21.6735192,11.6694344 21.6776949,11.6782296 C21.6899877,11.7040657 21.7011487,11.73151 21.7106789,11.7597057 C21.7133022,11.76763 21.7155678,11.7747243 21.7177252,11.7818445 C21.7290814,11.818934 21.7377062,11.8580769 21.7431534,11.8982294 L21.75,12 C21.75,12.0383922 21.7471153,12.0761107 21.7415508,12.1129505 C21.7397462,12.1245181 21.7376905,12.1362278 21.7353557,12.1478927 C21.730412,12.1728958 21.7242388,12.1971921 21.7169138,12.2209837 C21.7132873,12.2326435 21.7092554,12.2446929 21.7049093,12.256654 C21.696425,12.2799516 21.6871231,12.3020202 21.6768269,12.3235218 C21.6713347,12.3351229 21.6650317,12.3474599 21.658365,12.359651 C21.6451298,12.3836668 21.6310246,12.4063902 21.6157838,12.4282634 C21.6118625,12.4340051 21.6074572,12.4401347 21.6029482,12.4462117 C21.5805116,12.4758777 21.5607481,12.4989877 21.5396717,12.520822 L21.5303301,12.5303301 L18.5303301,15.5303301 C18.2374369,15.8232233 17.7625631,15.8232233 17.4696699,15.5303301 C17.2034034,15.2640635 17.1791973,14.8473998 17.3970518,14.5537883 L17.4696699,14.4696699 L19.189,12.75 L12.75,12.75 L12.75,21 C12.75,21.3796958 12.4678461,21.693491 12.1017706,21.7431534 L12,21.75 C11.6203042,21.75 11.306509,21.4678461 11.2568466,21.1017706 L11.25,21 L11.25,12.75 L8,12.75 C5.44951834,12.75 3.36853034,10.7398587 3.25488786,8.217428 L3.25,8 C3.25,5.37664744 5.37664744,3.25 8,3.25 Z M8,4.75 C6.20507456,4.75 4.75,6.20507456 4.75,8 C4.75,9.73303146 6.10645477,11.1492459 7.81557609,11.2448552 L8,11.25 L11.25,11.25 L11.25,8 C11.25,6.32886252 9.98870469,4.95231635 8.36614883,4.77039625 L8.18442391,4.75514479 L8,4.75 Z" id="Icon-Color" fill="#212121"></path>
    </g>
</svg>