<?xml version="1.0" encoding="UTF-8"?>
<svg width="24px" height="24px" viewBox="0 0 24 24" version="1.1" xmlns="http://www.w3.org/2000/svg" xmlns:xlink="http://www.w3.org/1999/xlink">
    <title>Icon/arrows/arrows-double-ne-sw</title>
    <g id="Icon/arrows/arrows-double-ne-sw" stroke="none" stroke-width="1" fill="none" fill-rule="evenodd">
        <path d="M21.5303301,9.46966991 C21.7965966,9.73593648 21.8208027,10.1526002 21.6029482,10.4462117 L21.5303301,10.5303301 L11.81,20.25 L14,20.25 C14.3796958,20.25 14.693491,20.5321539 14.7431534,20.8982294 L14.75,21 C14.75,21.3796958 14.4678461,21.693491 14.1017706,21.7431534 L14,21.75 L10,21.75 L9.97158812,21.749465 C9.95623781,21.7488867 9.94090188,21.7478395 9.92560364,21.7463234 L10,21.75 C9.95315442,21.75 9.90731196,21.7457051 9.86284491,21.7374876 C9.85196718,21.7354242 9.8402739,21.7329853 9.82863298,21.7302653 C9.8051728,21.7248291 9.78271655,21.7184207 9.76071635,21.7110197 C9.75090869,21.707697 9.74054351,21.7039715 9.73024809,21.7000107 C9.71090579,21.6925505 9.69248608,21.684555 9.67446717,21.6758602 C9.66000914,21.6689416 9.64537558,21.6612981 9.63095468,21.6531392 C9.61349194,21.643187 9.59634194,21.6325387 9.57967093,21.6212371 C9.56933877,21.6143147 9.55887091,21.6068243 9.54855842,21.5990323 C9.4918014,21.5560981 9.44146961,21.5055276 9.39899844,21.448737 L9.46966991,21.5303301 C9.43261664,21.4932768 9.40025089,21.4533111 9.37257267,21.4111698 C9.35940783,21.3910149 9.34702767,21.3700275 9.33567096,21.3484182 C9.33083742,21.3392964 9.32648082,21.3305656 9.32230508,21.3217704 C9.30955796,21.2949819 9.29805336,21.2665221 9.28830293,21.2372605 C9.28604456,21.2303168 9.28412011,21.2242456 9.2822748,21.2181555 C9.2709186,21.181066 9.26229378,21.1419231 9.25684662,21.1017706 L9.25,21 L9.25,17 C9.25,16.5857864 9.58578644,16.25 10,16.25 C10.3796958,16.25 10.693491,16.5321539 10.7431534,16.8982294 L10.75,17 L10.75,19.188 L20.4696699,9.46966991 C20.7625631,9.1767767 21.2374369,9.1767767 21.5303301,9.46966991 Z M14,2.25 L14.017448,2.25020172 C14.0374655,2.25066463 14.0574681,2.25192429 14.077404,2.2539807 L14,2.25 C14.0468456,2.25 14.092688,2.25429489 14.1371551,2.26251238 C14.1480328,2.26457582 14.1597261,2.26701468 14.171367,2.26973472 C14.1948272,2.27517085 14.2172835,2.28157935 14.2392836,2.28898031 C14.2490913,2.29230301 14.2594565,2.29602848 14.2697519,2.29998933 C14.2890942,2.30744952 14.3075139,2.315445 14.3255328,2.32413984 C14.3399909,2.33105843 14.3546244,2.3387019 14.3690453,2.34686081 C14.3865081,2.35681304 14.4036581,2.36746126 14.4203291,2.3787629 C14.4306612,2.38568532 14.4411291,2.39317572 14.4514416,2.40096775 C14.5081986,2.44390193 14.5585304,2.49447237 14.6010016,2.55126304 L14.5303301,2.46966991 C14.5673834,2.50672319 14.5997491,2.54668892 14.6274273,2.58883021 C14.6405922,2.60898514 14.6529723,2.62997247 14.664329,2.65158175 C14.6691626,2.66070362 14.6735192,2.66943437 14.6776949,2.67822959 C14.690442,2.70501812 14.7019466,2.73347789 14.7116971,2.76273953 C14.7139554,2.76968322 14.7158799,2.77575442 14.7177252,2.78184446 C14.7290814,2.81893395 14.7377062,2.85807689 14.7431534,2.89822944 L14.75,3 L14.75,7 C14.75,7.41421356 14.4142136,7.75 14,7.75 C13.6203042,7.75 13.306509,7.46784612 13.2568466,7.10177056 L13.25,7 L13.25,4.81 L3.53033009,14.5303301 C3.23743687,14.8232233 2.76256313,14.8232233 2.46966991,14.5303301 C2.20340335,14.2640635 2.1791973,13.8473998 2.39705176,13.5537883 L2.46966991,13.4696699 L12.188,3.75 L10,3.75 C9.62030423,3.75 9.30650904,3.46784612 9.25684662,3.10177056 L9.25,3 C9.25,2.62030423 9.53215388,2.30650904 9.89822944,2.25684662 L10,2.25 L14,2.25 Z" id="Icon-Color" fill="#212121"></path>
    </g>
</svg>