<?xml version="1.0" encoding="UTF-8"?>
<svg width="24px" height="24px" viewBox="0 0 24 24" version="1.1" xmlns="http://www.w3.org/2000/svg" xmlns:xlink="http://www.w3.org/1999/xlink">
    <title>Icon/arrows/arrow-narrow-left</title>
    <g id="Icon/arrows/arrow-narrow-left" stroke="none" stroke-width="1" fill="none" fill-rule="evenodd">
        <path d="M9.53033009,7.46966991 C9.79659665,7.73593648 9.8208027,8.15260016 9.60294824,8.44621165 L9.53033009,8.53033009 L6.81,11.25 L19,11.25 C19.4142136,11.25 19.75,11.5857864 19.75,12 C19.75,12.3796958 19.4678461,12.693491 19.1017706,12.7431534 L19,12.75 L6.811,12.75 L9.53033009,15.4696699 C9.8232233,15.7625631 9.8232233,16.2374369 9.53033009,16.5303301 C9.26406352,16.7965966 8.84739984,16.8208027 8.55378835,16.6029482 L8.46966991,16.5303301 L4.46966991,12.5303301 L4.40627192,12.4583026 C4.40455735,12.4560847 4.40285492,12.4538569 4.40116475,12.4516193 L4.39705176,12.4462117 L4.396,12.444 L4.3898796,12.4363794 C4.38323258,12.4271097 4.37682246,12.4177225 4.37064924,12.4082262 C4.36240946,12.3954328 4.35443242,12.3823024 4.34685504,12.3689158 C4.34417023,12.3642897 4.34153571,12.359511 4.33895724,12.3547101 L4.33113136,12.3397334 C4.32760972,12.3328033 4.32420273,12.3258299 4.32091038,12.3188161 C4.3136709,12.3034012 4.30663983,12.2869994 4.30018864,12.2703089 C4.29602848,12.2594565 4.29230301,12.2490913 4.28881291,12.2386647 C4.28157935,12.2172835 4.27517085,12.1948272 4.26980803,12.1719681 C4.26701468,12.1597261 4.26457582,12.1480328 4.26241813,12.136298 C4.25891107,12.1176674 4.25606315,12.0979156 4.25399994,12.077931 C4.25192429,12.0574681 4.25066463,12.0374655 4.25020172,12.017448 C4.25006606,12.0116044 4.25,12.0058099 4.25,12 L4.25017932,11.9835489 C4.25062303,11.9631986 4.25189016,11.9428629 4.2539807,11.922596 L4.25684662,11.8982294 L4.25684662,11.8982294 L4.25862837,11.8862321 C4.25995855,11.8775172 4.26144254,11.8688213 4.26308032,11.8601487 C4.26499067,11.8499882 4.26724489,11.8392886 4.26973472,11.828633 C4.27196724,11.8188282 4.27429596,11.8096899 4.27679072,11.8006203 L4.28421298,11.775548 C4.28641076,11.7685184 4.28871442,11.7615148 4.29112396,11.7545397 C4.29397067,11.7463046 4.29690881,11.7382553 4.29998933,11.7302481 C4.30744952,11.7109058 4.315445,11.6924861 4.32413984,11.6744672 L4.3239304,11.6748285 L4.33339881,11.6558412 C4.33393497,11.6548034 4.33447371,11.6537665 4.33501503,11.6527307 C4.33904959,11.6450266 4.34289429,11.6379655 4.34686081,11.6309547 C4.35681304,11.6134919 4.36746126,11.5963419 4.3787629,11.5796709 C4.38568532,11.5693388 4.39317572,11.5588709 4.40096775,11.5485584 C4.42217116,11.5205706 4.44507007,11.4942698 4.46966991,11.4696699 L8.46966991,7.46966991 C8.76256313,7.1767767 9.23743687,7.1767767 9.53033009,7.46966991 Z" id="Icon-Color" fill="#212121"></path>
    </g>
</svg>