<?xml version="1.0" encoding="UTF-8"?>
<svg width="24px" height="24px" viewBox="0 0 24 24" version="1.1" xmlns="http://www.w3.org/2000/svg" xmlns:xlink="http://www.w3.org/1999/xlink">
    <title>Icon/atom</title>
    <g id="Icon/atom" stroke="none" stroke-width="1" fill="none" fill-rule="evenodd">
        <path d="M19.4880949,4.29231734 L19.6013979,4.3986021 L19.7076827,4.51190507 C21.028894,6.01422604 20.2803276,8.93490473 18.1768276,11.9995035 C20.3345074,15.1439501 21.0666077,18.1361881 19.6013979,19.6013979 C18.1361881,21.0666077 15.1439501,20.3345074 12.0003006,18.1766932 C8.85604993,20.3345074 5.86381194,21.0666077 4.3986021,19.6013979 C2.93334587,18.1361417 3.66553894,15.1437606 5.82351177,12.000002 C3.71967236,8.93490473 2.97110603,6.01422604 4.29231734,4.51190507 L4.3986021,4.3986021 L4.51190507,4.29231734 C6.01428587,2.97105341 8.93513737,3.71973199 11.9998697,5.8234237 C15.0645059,3.71982342 17.9856224,2.97097274 19.4880949,4.29231734 Z M6.77880564,13.28468 L6.6853682,13.432553 C5.21264032,15.7671916 4.70972477,17.7912002 5.45926227,18.5407377 C6.22441961,19.3058951 8.31771966,18.765855 10.7137996,17.2212991 C10.0163799,16.6612716 9.32054302,16.0380574 8.64124279,15.3587572 C7.96149701,14.6790114 7.33791087,13.9827073 6.77880564,13.28468 Z M17.2204256,13.2848456 L17.098069,13.4370896 C16.5710012,14.0839971 15.9890196,14.7284948 15.3587572,15.3587572 C14.679457,16.0380574 13.9836201,16.6612716 13.2860526,17.2200949 C15.682074,18.7658018 17.7755427,19.3059328 18.5407377,18.5407377 C19.3060393,17.7754362 18.7656514,15.6814912 17.2204256,13.2848456 Z M11.9996195,7.6845155 L11.8625214,7.79076719 C11.1426631,8.35024697 10.4140478,8.98975816 9.70190296,9.70190296 C8.94438478,10.4594211 8.26905056,11.2355755 7.68480415,12.0000028 C8.26882812,12.7641689 8.94426002,13.5404541 9.70190296,14.298097 C10.4594211,15.0556152 11.2355755,15.7309494 12.0000028,16.3151959 C12.7642832,15.7310724 13.5405099,15.0556842 14.298097,14.298097 C15.05574,13.5404541 15.7311719,12.7641689 16.3154845,11.9996195 C15.7309494,11.2355755 15.0556152,10.4594211 14.298097,9.70190296 C13.5404541,8.94426002 12.7641689,8.26882812 11.9996195,7.6845155 Z M12,11.25 C12.3796958,11.25 12.693491,11.5321539 12.7431534,11.8982294 L12.75,12.01 C12.75,12.4242136 12.4142136,12.76 12,12.76 C11.6203042,12.76 11.306509,12.4778461 11.2568466,12.1117706 L11.25,12 C11.25,11.5857864 11.5857864,11.25 12,11.25 Z M5.53407116,5.39197727 L5.45784806,5.45926227 L5.39197727,5.53407116 C4.7283807,6.35437774 5.28211057,8.39250186 6.77941114,10.7149013 C7.27445822,10.0965264 7.82057811,9.47929992 8.4115446,8.8737523 L8.64124279,8.64124279 C9.32078494,7.96170064 10.0168755,7.33828449 10.7146926,6.77930814 C8.39250186,5.28211057 6.35437774,4.7283807 5.53407116,5.39197727 Z M13.5144289,6.63403727 L13.284761,6.77887048 C13.9033859,7.27438065 14.5206571,7.82053614 15.1262477,8.4115446 L15.3587572,8.64124279 C16.0383815,9.32086712 16.6618663,10.0170439 17.2208946,10.7149458 C18.7178894,8.39250186 19.2716193,6.35437774 18.6080227,5.53407116 L18.5407377,5.45926227 L18.4659288,5.39197727 C17.6727369,4.7503154 15.740905,5.24683433 13.5144289,6.63403727 Z" id="Icon-Color" fill="#212121"></path>
    </g>
</svg>