<?xml version="1.0" encoding="UTF-8"?>
<svg width="24px" height="24px" viewBox="0 0 24 24" version="1.1" xmlns="http://www.w3.org/2000/svg" xmlns:xlink="http://www.w3.org/1999/xlink">
    <title>Icon/award</title>
    <g id="Icon/award" stroke="none" stroke-width="1" fill="none" fill-rule="evenodd">
        <path d="M12,2.25 C15.7279221,2.25 18.75,5.27207794 18.75,9 C18.75,10.0723725 18.499929,11.0863377 18.0549209,11.9867619 L21.24728,17.5173893 C21.5291725,18.0056414 21.1918546,18.6041436 20.652822,18.6407246 L20.5494915,18.6408344 L17.4502755,18.4407846 L16.0739157,21.2248093 C15.8240312,21.7301915 15.138937,21.7815154 14.8094983,21.3533046 L14.7520895,21.2673893 L11.9998754,16.5 L9.24791053,21.2673893 C8.96601804,21.7556414 8.27904103,21.7627667 7.97784464,21.3142412 L7.92608427,21.2248093 L6.5497245,18.4407846 L3.45050854,18.6408344 C2.88789241,18.6771192 2.50089757,18.1094722 2.7070196,17.6100645 L2.75272,17.5173893 L5.94507907,11.9867619 C5.500071,11.0863377 5.25,10.0723725 5.25,9 C5.25,5.27207794 8.27207794,2.25 12,2.25 Z M17.1302574,13.3868726 C16.146258,14.5365314 14.7825422,15.3515307 13.2334098,15.6375707 L15.3493523,19.3038789 L16.3273775,17.3279186 C16.444801,17.090434 16.6770929,16.9351089 16.9357467,16.9130427 L17.0479542,16.9118934 L19.2459666,17.0530129 Z M6.86974259,13.3868726 L4.75316734,17.0525129 L6.95204578,16.9118934 C7.21642521,16.8948428 7.46708666,17.018351 7.61552341,17.2313186 L7.67262247,17.3279186 L8.64978166,19.3033789 L10.7659017,15.6374435 C9.2170537,15.3512892 7.8535962,14.536361 6.86974259,13.3868726 Z M12,3.75 C9.10050506,3.75 6.75,6.10050506 6.75,9 C6.75,11.8994949 9.10050506,14.25 12,14.25 C14.8994949,14.25 17.25,11.8994949 17.25,9 C17.25,6.10050506 14.8994949,3.75 12,3.75 Z" id="Icon-Color" fill="#212121"></path>
    </g>
</svg>