<?xml version="1.0" encoding="UTF-8"?>
<svg width="24px" height="24px" viewBox="0 0 24 24" version="1.1" xmlns="http://www.w3.org/2000/svg" xmlns:xlink="http://www.w3.org/1999/xlink">
    <title>Icon/media/backward</title>
    <g id="Icon/media/backward" stroke="none" stroke-width="1" fill="none" fill-rule="evenodd">
        <path d="M3.25,5 C3.25,4.42115687 3.87791079,4.06050355 4.37790327,4.35216582 L4.37790327,4.35216582 L16.3779033,11.3521658 C16.8740322,11.6415744 16.8740322,12.3584256 16.3779033,12.6478342 L16.3779033,12.6478342 L4.37790327,19.6478342 C3.87791079,19.9394965 3.25,19.5788431 3.25,19 L3.25,19 Z M20,4.25 C20.3796958,4.25 20.693491,4.53215388 20.7431534,4.89822944 L20.75,5 L20.75,19 C20.75,19.4142136 20.4142136,19.75 20,19.75 C19.6203042,19.75 19.306509,19.4678461 19.2568466,19.1017706 L19.25,19 L19.25,5 C19.25,4.58578644 19.5857864,4.25 20,4.25 Z M4.75,6.305 L4.75,17.694 L14.512,12 L4.75,6.305 Z" id="Icon-Color" fill="#212121" transform="translate(12.000000, 12.000000) scale(-1, 1) translate(-12.000000, -12.000000) "></path>
    </g>
</svg>