<?xml version="1.0" encoding="UTF-8"?>
<svg width="24px" height="24px" viewBox="0 0 24 24" version="1.1" xmlns="http://www.w3.org/2000/svg" xmlns:xlink="http://www.w3.org/1999/xlink">
    <title>Icon/ball-basketball</title>
    <g id="Icon/ball-basketball" stroke="none" stroke-width="1" fill="none" fill-rule="evenodd">
        <path d="M12,2.25 C17.3847763,2.25 21.75,6.61522369 21.75,12 C21.75,17.3847763 17.3847763,21.75 12,21.75 C6.61522369,21.75 2.25,17.3847763 2.25,12 C2.25,6.61522369 6.61522369,2.25 12,2.25 Z M12,13.061 L10.4048422,14.6569514 C11.7080522,16.1768914 12.5513855,18.1027136 12.7191537,20.2187294 C14.4459874,20.0700071 16.0208358,19.3888486 17.2787961,18.3403658 L12,13.061 Z M9.3403658,15.7212039 L6.72120391,18.3403658 C7.96240217,19.3748778 9.51210004,20.0517894 11.2120575,20.2128606 C11.0517894,18.5121 10.3748778,16.9624022 9.3403658,15.7212039 Z M14.6569514,10.4048422 L13.061,12 L18.3403658,17.2787961 C19.3888486,16.0208358 20.0700071,14.4459874 20.2191037,12.7189885 C18.1027136,12.5513855 16.1768914,11.7080522 14.6569514,10.4048422 Z M3.78794246,12.7871394 L3.80965022,12.9971706 C4.00456496,14.6150044 4.66772154,16.0887081 5.6596342,17.2787961 L8.27879609,14.6596342 C7.03759783,13.6251222 5.48789996,12.9482106 3.78794246,12.7871394 Z M5.6596342,6.72120391 C4.61115145,7.97916416 3.92999286,9.55401265 3.78089632,11.2810115 C5.89774985,11.4486512 7.82395215,12.2923173 9.34404726,13.5960142 L10.939,12 Z M18.3403658,6.72120391 L15.7212039,9.3403658 C16.9624022,10.3748778 18.5121,11.0517894 20.2120575,11.2128606 C20.0517894,9.51210004 19.3748778,7.96240217 18.3403658,6.72120391 Z M11.2808463,3.78127063 L11.2490818,3.78371505 C9.53460304,3.93840715 7.97140732,4.6176166 6.72120391,5.6596342 L12,10.939 L13.5960142,9.34404726 C12.2923173,7.82395215 11.4486512,5.89774985 11.2808463,3.78127063 Z M12.7879425,3.78713935 L12.8096502,3.99717063 C13.004565,5.61500439 13.6677215,7.08870814 14.6596342,8.27879609 L17.2787961,5.6596342 C16.0375978,4.6251222 14.4879,3.94821059 12.7879425,3.78713935 Z" id="Icon-Color" fill="#212121"></path>
    </g>
</svg>