<?xml version="1.0" encoding="UTF-8"?>
<svg width="24px" height="24px" viewBox="0 0 24 24" version="1.1" xmlns="http://www.w3.org/2000/svg" xmlns:xlink="http://www.w3.org/1999/xlink">
    <title>Icon/bandage</title>
    <g id="Icon/bandage" stroke="none" stroke-width="1" fill="none" fill-rule="evenodd">
        <path d="M20.0303301,3.96966991 C22.1960607,6.13540057 22.254594,9.61037584 20.2059299,11.8468765 L20.0303301,12.0303301 L12.0303301,20.0303301 C9.80444024,22.2562199 6.19555976,22.2562199 3.96966991,20.0303301 C1.80393926,17.8645994 1.74540599,14.3896242 3.79407013,12.1531235 L3.96966991,11.9696699 L11.9696699,3.96966991 C14.1955598,1.74378007 17.8044402,1.74378007 20.0303301,3.96966991 Z M13.1921625,4.87673039 L13.0303301,5.03033009 L5.03033009,13.0303301 C3.39022668,14.6704335 3.39022668,17.3295665 5.03033009,18.9696699 C6.61752693,20.5568668 9.15906992,20.6080667 10.8078375,19.1232696 L10.9696699,18.9696699 L18.9696699,10.9696699 C20.6097733,9.32956651 20.6097733,6.67043349 18.9696699,5.03033009 C17.3824731,3.44313324 14.8409301,3.39193334 13.1921625,4.87673039 Z M12,13.25 C12.3796958,13.25 12.693491,13.5321539 12.7431534,13.8982294 L12.75,14.01 C12.75,14.4242136 12.4142136,14.76 12,14.76 C11.6203042,14.76 11.306509,14.4778461 11.2568466,14.1117706 L11.25,14 C11.25,13.5857864 11.5857864,13.25 12,13.25 Z M14,11.25 C14.3796958,11.25 14.693491,11.5321539 14.7431534,11.8982294 L14.75,12.01 C14.75,12.4242136 14.4142136,12.76 14,12.76 C13.6203042,12.76 13.306509,12.4778461 13.2568466,12.1117706 L13.25,12 C13.25,11.5857864 13.5857864,11.25 14,11.25 Z M10,11.25 C10.3796958,11.25 10.693491,11.5321539 10.7431534,11.8982294 L10.75,12.01 C10.75,12.4242136 10.4142136,12.76 10,12.76 C9.62030423,12.76 9.30650904,12.4778461 9.25684662,12.1117706 L9.25,12 C9.25,11.5857864 9.58578644,11.25 10,11.25 Z M12,9.25 C12.3796958,9.25 12.693491,9.53215388 12.7431534,9.89822944 L12.75,10.01 C12.75,10.4242136 12.4142136,10.76 12,10.76 C11.6203042,10.76 11.306509,10.4778461 11.2568466,10.1117706 L11.25,10 C11.25,9.58578644 11.5857864,9.25 12,9.25 Z" id="Icon-Color" fill="#212121"></path>
    </g>
</svg>