<?xml version="1.0" encoding="UTF-8"?>
<svg width="24px" height="24px" viewBox="0 0 24 24" version="1.1" xmlns="http://www.w3.org/2000/svg" xmlns:xlink="http://www.w3.org/1999/xlink">
    <title>Icon/basket</title>
    <g id="Icon/basket" stroke="none" stroke-width="1" fill="none" fill-rule="evenodd">
        <path d="M12.4962304,3.43740396 L12.576166,3.5198617 L17.3516305,9.25 L21,9.25 C21.4553998,9.25 21.7976337,9.64944075 21.7450261,10.0875588 L21.7276069,10.1819017 L19.740216,18.1207488 C19.4911416,19.6476284 18.3543897,20.7843803 17,20.75 L17,20.75 L6.84851904,20.7480492 C5.55244398,20.6890798 4.49900569,19.5865564 4.27239312,18.1819017 L4.27239312,18.1819017 L2.27239312,10.1819017 C2.15405311,9.70854167 2.51207164,9.25 3,9.25 L3,9.25 L6.64763055,9.25 L11.423834,3.5198617 C11.6986932,3.19003073 12.1859686,3.16254482 12.4962304,3.43740396 Z M20.039,10.75 L3.96,10.75 L5.740216,17.8792512 C5.86791475,18.6620719 6.35232519,19.1901572 6.88518624,19.2454643 L6.88518624,19.2454643 L7,19.25 L17.0189003,19.2502382 C17.5766534,19.2642983 18.1229639,18.7179877 18.2723931,17.8180983 L18.2723931,17.8180983 L20.039,10.75 Z M12,12.25 C13.5187831,12.25 14.75,13.4812169 14.75,15 C14.75,16.5187831 13.5187831,17.75 12,17.75 C10.4812169,17.75 9.25,16.5187831 9.25,15 C9.25,13.4812169 10.4812169,12.25 12,12.25 Z M12,13.75 C11.3096441,13.75 10.75,14.3096441 10.75,15 C10.75,15.6903559 11.3096441,16.25 12,16.25 C12.6903559,16.25 13.25,15.6903559 13.25,15 C13.25,14.3096441 12.6903559,13.75 12,13.75 Z M12,5.172 L8.60063055,9.25 L15.3986305,9.25 L12,5.172 Z" id="Icon-Color" fill="#212121"></path>
    </g>
</svg>