<?xml version="1.0" encoding="UTF-8"?>
<svg width="24px" height="24px" viewBox="0 0 24 24" version="1.1" xmlns="http://www.w3.org/2000/svg" xmlns:xlink="http://www.w3.org/1999/xlink">
    <title>Icon/battery-charging</title>
    <g id="Icon/battery-charging" stroke="none" stroke-width="1" fill="none" fill-rule="evenodd">
        <path d="M17,6.25 C18.4625318,6.25 19.6584043,7.3917046 19.7449812,8.83247767 L19.75,9 L19.75,9.275 C20.2808365,9.38362783 20.6880689,9.82591734 20.7435464,10.3721948 L20.75,10.5 L20.75,13.5 C20.75,14.0609142 20.3805475,14.5355381 19.8717118,14.6938025 L19.75,14.724 L19.75,15 C19.75,16.4625318 18.6082954,17.6584043 17.1675223,17.7449812 L17,17.75 L15,17.75 C14.5857864,17.75 14.25,17.4142136 14.25,17 C14.25,16.6203042 14.5321539,16.306509 14.8982294,16.2568466 L15,16.25 L17,16.25 C17.6472087,16.25 18.1795339,15.7581253 18.2435464,15.1278052 L18.25,15 L18.25,14.5 C18.25,13.9390858 18.6194525,13.4644619 19.1282882,13.3061975 L19.25,13.275 L19.25,10.724 C18.7191635,10.6163722 18.3119311,10.1740827 18.2564536,9.62780524 L18.25,9.5 L18.25,9 C18.25,8.35279131 17.7581253,7.8204661 17.1278052,7.75645361 L17,7.75 L16,7.75 C15.5857864,7.75 15.25,7.41421356 15.25,7 C15.25,6.62030423 15.5321539,6.30650904 15.8982294,6.25684662 L16,6.25 L17,6.25 Z M8,6.25 C8.41421356,6.25 8.75,6.58578644 8.75,7 C8.75,7.37969577 8.46784612,7.69349096 8.10177056,7.74315338 L8,7.75 L6,7.75 C5.35279131,7.75 4.8204661,8.24187466 4.75645361,8.87219476 L4.75,9 L4.75,15 C4.75,15.6472087 5.24187466,16.1795339 5.87219476,16.2435464 L6,16.25 L7,16.25 C7.41421356,16.25 7.75,16.5857864 7.75,17 C7.75,17.3796958 7.46784612,17.693491 7.10177056,17.7431534 L7,17.75 L6,17.75 C4.53746816,17.75 3.34159572,16.6082954 3.25501879,15.1675223 L3.25,15 L3.25,9 C3.25,7.53746816 4.3917046,6.34159572 5.83247767,6.25501879 L6,6.25 L8,6.25 Z M12.3354102,7.32917961 C12.6750204,7.49898472 12.8295043,7.8916843 12.7102098,8.24132194 L12.6708204,8.3354102 L11.213,11.25 L13,11.25 C13.5226905,11.25 13.8740692,11.7656845 13.7105017,12.2410413 L13.6708204,12.3354102 L11.6708204,16.3354102 C11.4855785,16.7058941 11.0350737,16.8560623 10.6645898,16.6708204 C10.3249796,16.5010153 10.1704957,16.1083157 10.2897902,15.7586781 L10.3291796,15.6645898 L11.786,12.75 L10,12.75 C9.47730952,12.75 9.12593081,12.2343155 9.28949833,11.7589587 L9.32917961,11.6645898 L11.3291796,7.6645898 C11.5144215,7.29410593 11.9649263,7.14393767 12.3354102,7.32917961 Z" id="Icon-Color" fill="#212121"></path>
    </g>
</svg>