<?xml version="1.0" encoding="UTF-8"?>
<svg width="24px" height="24px" viewBox="0 0 24 24" version="1.1" xmlns="http://www.w3.org/2000/svg" xmlns:xlink="http://www.w3.org/1999/xlink">
    <title>Icon/bed</title>
    <g id="Icon/bed" stroke="none" stroke-width="1" fill="none" fill-rule="evenodd">
        <path d="M3,6.25 C3.37969577,6.25 3.69349096,6.53215388 3.74315338,6.89822944 L3.75,7 L3.75,13.25 L10.25,13.25 L10.25,8 C10.25,7.62030423 10.5321539,7.30650904 10.8982294,7.25684662 L11,7.25 L19,7.25 C20.4625318,7.25 21.6584043,8.3917046 21.7449812,9.83247767 L21.75,10 L21.75,18 C21.75,18.4142136 21.4142136,18.75 21,18.75 C20.6203042,18.75 20.306509,18.4678461 20.2568466,18.1017706 L20.25,18 L20.25,14.75 L3.75,14.75 L3.75,18 C3.75,18.4142136 3.41421356,18.75 3,18.75 C2.62030423,18.75 2.30650904,18.4678461 2.25684662,18.1017706 L2.25,18 L2.25,7 C2.25,6.58578644 2.58578644,6.25 3,6.25 Z M19,8.75 L11.75,8.75 L11.75,13.25 L20.25,13.25 L20.25,10 C20.25,9.39593855 19.8215225,8.89195339 19.2519186,8.77539556 L19.1278052,8.75645361 L19,8.75 Z M7,8.25 C7.96649831,8.25 8.75,9.03350169 8.75,10 C8.75,10.9664983 7.96649831,11.75 7,11.75 C6.03350169,11.75 5.25,10.9664983 5.25,10 C5.25,9.03350169 6.03350169,8.25 7,8.25 Z M7,9.75 C6.86192881,9.75 6.75,9.86192881 6.75,10 C6.75,10.1380712 6.86192881,10.25 7,10.25 C7.13807119,10.25 7.25,10.1380712 7.25,10 C7.25,9.86192881 7.13807119,9.75 7,9.75 Z" id="Icon-Color" fill="#212121"></path>
    </g>
</svg>