<?xml version="1.0" encoding="UTF-8"?>
<svg width="24px" height="24px" viewBox="0 0 24 24" version="1.1" xmlns="http://www.w3.org/2000/svg" xmlns:xlink="http://www.w3.org/1999/xlink">
    <title>Icon/social/default/behance</title>
    <g id="Icon/social/default/behance" stroke="none" stroke-width="1" fill="none" fill-rule="evenodd">
        <path d="M17.5,8.75 C19.8472102,8.75 21.75,10.6527898 21.75,13 C21.75,13.3796958 21.4678461,13.693491 21.1017706,13.7431534 L21,13.75 L14.75,13.75 L14.75,14.943 L14.7737047,15.0768879 C14.9921899,16.1402094 15.81836,16.9768243 16.8788529,17.2086503 L17.0577073,17.2416232 C18.2636811,17.4232458 19.4452163,16.7888925 19.9601241,15.6833477 C20.1350063,15.3078625 20.5811672,15.1452418 20.9566523,15.3201241 C21.3321375,15.4950063 21.4947582,15.9411672 21.3198759,16.3166523 C20.5241094,18.0252217 18.6981004,19.0055858 16.8343228,18.7248964 C15.039574,18.4546029 13.6227034,17.0771213 13.2904965,15.3081727 L13.2570188,15.1023666 L13.25,15 L13.25,13 C13.25,10.6527898 15.1527898,8.75 17.5,8.75 Z M7.5,5.25 C9.57106781,5.25 11.25,6.92893219 11.25,9 C11.25,10.2025555 10.68395,11.272903 9.80375828,11.9591341 L9.748,12 L9.80375828,12.0408659 C10.6350505,12.6889731 11.186136,13.6797025 11.244802,14.8008414 L11.25,15 C11.25,17.0042592 9.67763895,18.6412737 7.69915857,18.744802 L7.5,18.75 L3,18.75 C2.62030423,18.75 2.30650904,18.4678461 2.25684662,18.1017706 L2.25,18 L2.25,6 C2.25,5.62030423 2.53215388,5.30650904 2.89822944,5.25684662 L3,5.25 L7.5,5.25 Z M7.5,12.75 L3.75,12.75 L3.75,17.25 L7.5,17.25 C8.69086399,17.25 9.66564492,16.3248384 9.74480919,15.1540488 L9.75,15 C9.75,13.809136 8.82483841,12.8343551 7.65404881,12.7551908 L7.5,12.75 Z M17.5,10.25 C16.2624731,10.25 15.2158679,11.0674335 14.8706756,12.1918094 L14.854,12.25 L20.145,12.25 L20.1293244,12.1918094 C19.7998226,11.1185415 18.8312237,10.3249463 17.6675223,10.2550188 L17.5,10.25 Z M7.5,6.75 L3.75,6.75 L3.75,11.25 L7.5,11.25 L7.512,11.251 L7.65404881,11.2448092 C8.82483841,11.1656449 9.75,10.190864 9.75,9 C9.75,7.80913601 8.82483841,6.83435508 7.65404881,6.75519081 L7.5,6.75 Z M19,5.25 C19.4142136,5.25 19.75,5.58578644 19.75,6 C19.75,6.37969577 19.4678461,6.69349096 19.1017706,6.74315338 L19,6.75 L16,6.75 C15.5857864,6.75 15.25,6.41421356 15.25,6 C15.25,5.62030423 15.5321539,5.30650904 15.8982294,5.25684662 L16,5.25 L19,5.25 Z" id="Icon-Color" fill="#212121"></path>
    </g>
</svg>