<?xml version="1.0" encoding="UTF-8"?>
<svg width="24px" height="24px" viewBox="0 0 24 24" version="1.1" xmlns="http://www.w3.org/2000/svg" xmlns:xlink="http://www.w3.org/1999/xlink">
    <title>Icon/blockquote</title>
    <g id="Icon/blockquote" stroke="none" stroke-width="1" fill="none" fill-rule="evenodd">
        <path d="M21,18.25 C21.4142136,18.25 21.75,18.5857864 21.75,19 C21.75,19.3796958 21.4678461,19.693491 21.1017706,19.7431534 L21,19.75 L6,19.75 C5.58578644,19.75 5.25,19.4142136 5.25,19 C5.25,18.6203042 5.53215388,18.306509 5.89822944,18.2568466 L6,18.25 L21,18.25 Z M21,14.25 C21.4142136,14.25 21.75,14.5857864 21.75,15 C21.75,15.3796958 21.4678461,15.693491 21.1017706,15.7431534 L21,15.75 L6,15.75 C5.58578644,15.75 5.25,15.4142136 5.25,15 C5.25,14.6203042 5.53215388,14.306509 5.89822944,14.2568466 L6,14.25 L21,14.25 Z M21,10.25 C21.4142136,10.25 21.75,10.5857864 21.75,11 C21.75,11.3796958 21.4678461,11.693491 21.1017706,11.7431534 L21,11.75 L15,11.75 C14.5857864,11.75 14.25,11.4142136 14.25,11 C14.25,10.6203042 14.5321539,10.306509 14.8982294,10.2568466 L15,10.25 L21,10.25 Z M11,4.75 C11.4142136,4.75 11.75,5.08578644 11.75,5.5 C11.75,5.87969577 11.4678461,6.19349096 11.1017706,6.24315338 L11,6.25 C10.3527913,6.25 9.8204661,6.74187466 9.75645361,7.37219476 L9.75,7.5 L9.75,8.25 L10,8.25 C10.9181734,8.25 11.6711923,8.95711027 11.7441988,9.85647279 L11.75,10 C11.75,10.9664983 10.9664983,11.75 10,11.75 C9.0818266,11.75 8.32880766,11.0428897 8.2558012,10.1435272 L8.25,10 L8.25,7.5 C8.25,5.98121694 9.48121694,4.75 11,4.75 Z M5,4.75 C5.41421356,4.75 5.75,5.08578644 5.75,5.5 C5.75,5.87969577 5.46784612,6.19349096 5.10177056,6.24315338 L5,6.25 C4.35279131,6.25 3.8204661,6.74187466 3.75645361,7.37219476 L3.75,7.5 L3.75,8.25 L4,8.25 C4.9181734,8.25 5.67119234,8.95711027 5.7441988,9.85647279 L5.75,10 C5.75,10.9664983 4.96649831,11.75 4,11.75 C3.0818266,11.75 2.32880766,11.0428897 2.2558012,10.1435272 L2.25,10 L2.25,7.5 C2.25,5.98121694 3.48121694,4.75 5,4.75 Z M10,9.75 L9.75,9.75 L9.75,10 C9.75,10.1380712 9.86192881,10.25 10,10.25 C10.1380712,10.25 10.25,10.1380712 10.25,10 C10.25,9.88165327 10.1677666,9.78251318 10.0573227,9.75660268 L10,9.75 Z M4,9.75 L3.75,9.75 L3.75,10 C3.75,10.1380712 3.86192881,10.25 4,10.25 C4.13807119,10.25 4.25,10.1380712 4.25,10 C4.25,9.88165327 4.16776659,9.78251318 4.05732271,9.75660268 L4,9.75 Z M21,6.25 C21.4142136,6.25 21.75,6.58578644 21.75,7 C21.75,7.37969577 21.4678461,7.69349096 21.1017706,7.74315338 L21,7.75 L15,7.75 C14.5857864,7.75 14.25,7.41421356 14.25,7 C14.25,6.62030423 14.5321539,6.30650904 14.8982294,6.25684662 L15,6.25 L21,6.25 Z" id="Icon-Color" fill="#212121"></path>
    </g>
</svg>