<?xml version="1.0" encoding="UTF-8"?>
<svg width="24px" height="24px" viewBox="0 0 24 24" version="1.1" xmlns="http://www.w3.org/2000/svg" xmlns:xlink="http://www.w3.org/1999/xlink">
    <title>Icon/bluetooth-connected</title>
    <g id="Icon/bluetooth-connected" stroke="none" stroke-width="1" fill="none" fill-rule="evenodd">
        <path d="M12.3846525,3.35566752 L12.4685213,3.41434839 L17.4685213,7.41434839 C17.8149566,7.69149667 17.8416055,8.19919092 17.5484679,8.51180781 L17.4685213,8.58565161 L13.2,12 L17.4685213,15.4143484 C17.8149566,15.6914967 17.8416055,16.1991909 17.5484679,16.5118078 L17.4685213,16.5856516 L12.4685213,20.5856516 C12.0047306,20.9566842 11.3300981,20.6654358 11.2565704,20.1021482 L11.25,20 L11.25,13.559 L7.46852129,16.5856516 C7.17447906,16.8208854 6.75769069,16.7989306 6.489933,16.5499846 L6.41434839,16.4685213 C6.17911461,16.1744791 6.20106942,15.7576907 6.45001539,15.489933 L6.53147871,15.4143484 L10.799,12 L6.53147871,8.58565161 C6.23743649,8.35041782 6.16736568,7.93897568 6.35146372,7.62310199 L6.41434839,7.53147871 C6.64958218,7.23743649 7.06102432,7.16736568 7.37689801,7.35146372 L7.46852129,7.41434839 L11.25,10.44 L11.25,4 C11.25,3.4060581 11.8988663,3.06120004 12.3846525,3.35566752 Z M12.75,13.56 L12.75,18.439 L15.799,16 L12.75,13.56 Z M5,11.25 C5.41421356,11.25 5.75,11.5857864 5.75,12 C5.75,12.3796958 5.46784612,12.693491 5.10177056,12.7431534 L5,12.75 L4,12.75 C3.58578644,12.75 3.25,12.4142136 3.25,12 C3.25,11.6203042 3.53215388,11.306509 3.89822944,11.2568466 L4,11.25 L5,11.25 Z M19,11.25 C19.4142136,11.25 19.75,11.5857864 19.75,12 C19.75,12.3796958 19.4678461,12.693491 19.1017706,12.7431534 L19,12.75 L18,12.75 C17.5857864,12.75 17.25,12.4142136 17.25,12 C17.25,11.6203042 17.5321539,11.306509 17.8982294,11.2568466 L18,11.25 L19,11.25 Z M12.75,5.56 L12.75,10.439 L15.799,8 L12.75,5.56 Z" id="Icon-Color" fill="#212121"></path>
    </g>
</svg>