<?xml version="1.0" encoding="UTF-8"?>
<svg width="24px" height="24px" viewBox="0 0 24 24" version="1.1" xmlns="http://www.w3.org/2000/svg" xmlns:xlink="http://www.w3.org/1999/xlink">
    <title>Icon/bolt</title>
    <g id="Icon/bolt" stroke="none" stroke-width="1" fill="none" fill-rule="evenodd">
        <path d="M12.9349846,2.25281206 L13.0397863,2.25096799 L13.1017706,2.25684662 L13.1444221,2.26385365 L13.1993797,2.27679072 L13.2472716,2.29172494 L13.2919338,2.30893872 L13.346714,2.33483774 L13.4411288,2.39344794 L13.4583026,2.40627192 C13.4836507,2.42586705 13.5077095,2.44704936 13.5303301,2.46966991 L13.5976321,2.54653258 L13.6558362,2.63579117 L13.6910613,2.70806615 L13.7232093,2.80062029 L13.7431534,2.89822944 L13.75,3 L13.75,9.25 L19,9.25 C19.5769083,9.25 19.9245244,9.86599605 19.6628491,10.351757 L19.6065521,10.4411288 L11.6065521,21.4411288 C11.2006889,21.9991907 10.3416775,21.7543562 10.256791,21.1057146 L10.25,21 L10.25,14.75 L5,14.75 C4.42309168,14.75 4.07547556,14.134004 4.3371509,13.648243 L4.39344794,13.5588712 L12.403,2.546 L12.4692609,2.47020774 L12.5465326,2.40236794 L12.6357912,2.3441638 L12.7080662,2.30893872 L12.8006203,2.27679072 L12.8982294,2.25684662 L12.9349846,2.25281206 Z M12.25,5.306 L6.472,13.25 L11,13.25 C11.3796958,13.25 11.693491,13.5321539 11.7431534,13.8982294 L11.75,14 L11.75,18.692 L17.526,10.75 L13,10.75 C12.6203042,10.75 12.306509,10.4678461 12.2568466,10.1017706 L12.25,10 L12.25,5.306 Z" id="Icon-Color" fill="#212121"></path>
    </g>
</svg>