<?xml version="1.0" encoding="UTF-8"?>
<svg width="24px" height="24px" viewBox="0 0 24 24" version="1.1" xmlns="http://www.w3.org/2000/svg" xmlns:xlink="http://www.w3.org/1999/xlink">
    <title>Icon/bone</title>
    <g id="Icon/bone" stroke="none" stroke-width="1" fill="none" fill-rule="evenodd">
        <path d="M15,2.25 C13.4830335,2.25032381 12.1157917,3.1643607 11.5357092,4.56586205 L11.4589561,4.76743364 C11.0821378,5.8492869 11.2244438,7.03308579 11.8195994,7.98615652 L11.873,8.067 L8.067,11.873 L8.0137223,11.8366634 C6.87546099,11.1115748 5.40852249,11.0440215 4.18943413,11.7159071 C2.72652808,12.5221699 1.97326637,14.1988164 2.34201553,15.8279811 L2.39117518,16.0213258 C2.76931717,17.3593606 3.85475251,18.3683432 5.19262329,18.6625254 L5.316,18.686 L5.33697103,18.7927577 C5.64615456,20.2094018 6.73852686,21.3333443 8.17163598,21.6578498 C9.80016907,22.026606 11.4763299,21.2741843 12.2830709,19.8122438 L12.3783831,19.6277124 C12.9470655,18.4481399 12.8527027,17.0706365 12.1650739,15.989046 L12.128,15.934 L15.934,12.128 L15.9999384,12.1720756 C17.1584666,12.9031603 18.6519026,12.9545855 19.8765653,12.2470611 C21.3461605,11.3980317 22.062302,9.66780677 21.6226203,8.02852611 L21.5648902,7.83425184 C21.147257,6.55562597 20.0814308,5.61318236 18.7948554,5.33475315 L18.685,5.314 L18.6689052,5.22064713 C18.3101984,3.52361245 16.8038333,2.25 15,2.25 Z M15.0001601,3.74999998 C16.190864,3.74999998 17.1656449,4.67516159 17.2448092,5.84595119 L17.25,6 C17.25,6.37975308 17.5322359,6.69357481 17.8983733,6.74317314 L18.0001601,6.74999998 C19.018493,6.7497826 19.9100193,7.43354725 20.1738284,8.41711564 C20.4376374,9.40068403 20.0079525,10.438819 19.1261953,10.9482366 C18.2444382,11.4576542 17.130461,11.3113393 16.4101601,10.5915 C16.1172394,10.298767 15.6424968,10.2988431 15.3496699,10.5916699 L10.5916699,15.3496699 C10.2988626,15.6424772 10.2987641,16.1171813 10.59145,16.4101101 C11.2995756,17.1188234 11.4538071,18.210358 10.9697625,19.0875224 C10.4857179,19.9646867 9.48002141,20.4161397 8.50290156,20.194886 C7.52578171,19.9736323 6.81266249,19.13298 6.75369998,18.1328601 L6.74970094,17.978822 C6.73847042,17.5812616 6.41885682,17.2615967 6.02129823,17.2503025 L5.84529823,17.2453025 C4.86736556,17.187655 4.02625786,16.4743426 3.80500836,15.4968437 C3.58375886,14.5193449 4.03571589,13.513357 4.91345952,13.0295993 C5.79120314,12.5458417 6.88308928,12.7009593 7.5913744,13.4100344 C7.8842197,13.7032063 8.35932142,13.7033387 8.65233009,13.4103301 L13.4103301,8.65233009 C13.7032897,8.35937049 13.7032136,7.88436568 13.4101601,7.59149998 C12.7664274,6.94817977 12.5736321,5.98041801 12.9216817,5.1395172 C13.2697312,4.29861639 14.0900762,3.75019426 15.0001601,3.74999998 Z" id="Icon-Color" fill="#212121"></path>
    </g>
</svg>