<?xml version="1.0" encoding="UTF-8"?>
<svg width="24px" height="24px" viewBox="0 0 24 24" version="1.1" xmlns="http://www.w3.org/2000/svg" xmlns:xlink="http://www.w3.org/1999/xlink">
    <title>Icon/book</title>
    <g id="Icon/book" stroke="none" stroke-width="1" fill="none" fill-rule="evenodd">
        <path d="M21.5983528,5.5474903 L21.6185228,5.57569461 C21.6832814,5.66991467 21.7270695,5.77967088 21.7431534,5.89822944 L21.75,6 L21.75,19 C21.75,19.0489589 21.7453089,19.0968222 21.7363516,19.1431648 C21.7330765,19.160368 21.7290631,19.1777128 21.7244068,19.1949692 C21.6933148,19.3110768 21.6347198,19.4164421 21.5560594,19.5032957 C21.5114901,19.5528002 21.461428,19.5950213 21.4073031,19.6299537 C21.3966045,19.6368032 21.3857415,19.6434564 21.3747007,19.6498364 C21.2619971,19.7146753 21.1339842,19.7492911 21.0040232,19.7501103 L21,19.75 L20.9880842,19.7500413 C20.9269123,19.7491251 20.8654307,19.7407046 20.8050308,19.7244068 C20.7945205,19.7215934 20.7836545,19.7184147 20.7728936,19.7149998 C20.7224358,19.6988806 20.6728293,19.6771333 20.625,19.6495191 C18.0724411,18.1757985 14.9275589,18.1757985 12.375,19.6495191 L12.3484182,19.664329 C12.3275429,19.6753 12.3060871,19.6853159 12.284109,19.6943186 L12.375,19.6495191 C12.3310064,19.6749188 12.2850773,19.6955031 12.2379467,19.7112719 C12.2210272,19.7171329 12.2035026,19.7222973 12.1857242,19.7268265 C12.1674866,19.7313175 12.149116,19.7352793 12.1306507,19.7385436 C12.1142491,19.7415522 12.097175,19.7439641 12.0799263,19.7457914 C12.0629296,19.747546 12.0462189,19.7487631 12.0294912,19.7494206 C12.0197772,19.7498078 12.0099111,19.75 12,19.75 L11.9715081,19.7494593 C11.9544466,19.7488114 11.9374023,19.7475814 11.9204059,19.7457693 L12,19.75 C11.9552678,19.75 11.9114502,19.7460839 11.8688714,19.7385758 C11.850884,19.7352793 11.8325134,19.7313175 11.8142779,19.7266582 C11.7964974,19.7222973 11.7789728,19.7171329 11.7617276,19.7113591 C11.7469548,19.7062203 11.7319797,19.7006745 11.717152,19.6946345 C11.6830728,19.6809309 11.6505049,19.6647472 11.6193794,19.6463794 C9.07244112,18.1757985 5.92755888,18.1757985 3.375,19.6495191 C3.32717074,19.6771333 3.27756417,19.6988806 3.22701363,19.7149844 C3.21634553,19.7184147 3.20547953,19.7215934 3.19451445,19.7245299 C3.13588144,19.7403505 3.07575843,19.7487555 3.01590296,19.7499709 C3.0102408,19.7499486 3.00512641,19.75 3,19.75 C2.86601576,19.7492911 2.73800288,19.7146753 2.6253239,19.6498496 C2.61425851,19.6434564 2.60339549,19.6368032 2.59271944,19.6298859 C2.53857201,19.5950213 2.48850992,19.5528002 2.44412498,19.503723 C2.3652802,19.4164421 2.30668515,19.3110768 2.27547015,19.1945144 C2.27093687,19.1777128 2.26692354,19.160368 2.2635445,19.1429674 C2.26100636,19.1294954 2.25873545,19.1156937 2.25684662,19.1017706 L2.25,19 L2.25,6 C2.25,5.84251255 2.29854074,5.6963624 2.38147717,5.57569461 C2.40614035,5.53949077 2.43432333,5.50519566 2.46572747,5.47337225 C2.51491102,5.42442881 2.56590508,5.38494068 2.62146064,5.35239699 L2.625,5.35048095 C5.44703724,3.72117699 8.88168173,3.6160606 11.7827651,5.03513179 L12,5.146 L12.2172349,5.03513179 C15.0182809,3.66499409 18.3167252,3.71573993 21.0809268,5.18736932 L21.375,5.35048095 C21.4340949,5.38494068 21.485089,5.42442881 21.5303301,5.46966991 C21.5573974,5.49680585 21.5787757,5.52157969 21.5983528,5.5474903 Z M12.7496879,6.44587738 L12.7502681,17.7939397 C15.1489657,16.7941854 17.8521238,16.794325 20.2507364,17.7943584 L20.251311,6.44638744 C17.8963653,5.24367907 15.104757,5.24350906 12.7496879,6.44587738 Z M3.74968786,6.44587738 L3.75026807,17.7939397 C6.14896566,16.7941854 8.85212381,16.794325 11.2507364,17.7943584 L11.251311,6.44638744 C8.89636529,5.24367907 6.10475703,5.24350906 3.74968786,6.44587738 Z" id="Icon-Color" fill="#212121"></path>
    </g>
</svg>