<?xml version="1.0" encoding="UTF-8"?>
<svg width="24px" height="24px" viewBox="0 0 24 24" version="1.1" xmlns="http://www.w3.org/2000/svg" xmlns:xlink="http://www.w3.org/1999/xlink">
    <title>Icon/bug</title>
    <g id="Icon/bug" stroke="none" stroke-width="1" fill="none" fill-rule="evenodd">
        <path d="M12,4.25 C14.0042592,4.25 15.6412737,5.82236105 15.744802,7.80084143 L15.75,8 L15.75,8.249 L16,8.2499725 C16.1588172,8.2499725 16.3109827,8.30025706 16.4365558,8.39013746 L19.5957097,6.36829645 C19.94459,6.1450131 20.4084202,6.24682949 20.6317036,6.59570973 C20.8346884,6.91287358 20.7689958,7.32503743 20.4932552,7.56511121 L20.4042903,7.63170355 L17.2136593,9.67368732 C17.4838563,10.3069576 17.6572471,10.9841075 17.726439,11.6900758 L17.75,12 L17.75,12.25 L21,12.25 C21.4142136,12.25 21.75,12.5857864 21.75,13 C21.75,13.3796958 21.4678461,13.693491 21.1017706,13.7431534 L21,13.75 L17.75,13.75 L17.75,15 C17.75,15.5704433 17.6669322,16.121485 17.512233,16.6416888 L20.3844574,18.3560338 C20.7401102,18.5683638 20.8562962,19.0288047 20.6439662,19.3844574 C20.4493304,19.7104724 20.0462124,19.8352689 19.7064346,19.6902562 L19.6155426,19.6439662 L16.8951726,18.0181103 C15.8855079,19.6522398 14.0804497,20.7429033 12.0201334,20.7499655 C12.0136491,20.7499086 12.0068352,20.75 12,20.75 L11.98,20.749 L11.7740905,20.7456435 C9.80014536,20.6693816 8.08144164,19.5980451 7.105429,18.0190839 L4.38445744,19.6439662 C4.02880472,19.8562962 3.56836377,19.7401102 3.35603379,19.3844574 C3.16139798,19.0584424 3.24280687,18.6443762 3.53166981,18.414081 L3.61554256,18.3560338 L6.48783955,16.6419326 C6.35312471,16.1890037 6.27271258,15.7126951 6.25415208,15.2205557 L6.25,15 L6.25,13.75 L3,13.75 C2.58578644,13.75 2.25,13.4142136 2.25,13 C2.25,12.6203042 2.53215388,12.306509 2.89822944,12.2568466 L3,12.25 L6.251,12.25 L6.2511373,11.9587124 C6.2947139,11.1683319 6.47675757,10.3950978 6.7858551,9.67324978 L3.59570973,7.63170355 C3.24682949,7.4084202 3.1450131,6.94458997 3.36829645,6.59570973 C3.57128131,6.27854588 3.97306526,6.16556702 4.30655821,6.31540268 L4.40429027,6.36829645 L7.564,8.39 L7.616,8.356 C7.70479397,8.30358145 7.79839065,8.27039091 7.89822944,8.25684662 L8.0095213,8.2499725 L8.25,8.249 L8.25,8 C8.25,5.92893219 9.92893219,4.25 12,4.25 Z M8.985,9.749 L8.42,9.75 L8.33771207,9.89886642 C8.03513705,10.4769072 7.8430635,11.1031261 7.77268089,11.7309635 L7.75,12 L7.75,15 C7.75,17.0912904 9.2604819,18.8297888 11.2499804,19.1840299 L11.25,14 C11.25,13.5857864 11.5857864,13.25 12,13.25 C12.3796958,13.25 12.693491,13.5321539 12.7431534,13.8982294 L12.75,14 L12.7510146,19.1838526 C14.6743516,18.8409182 16.1497694,17.2042165 16.2450991,15.2059163 L16.25,15 L16.2500828,13.0112585 C16.2500277,13.0075123 16.25,13.0037594 16.25,13 L16.251,12.988 L16.2511373,12.0412876 C16.209787,11.2912866 16.0081334,10.561136 15.662297,9.89919672 L15.579,9.75 L15.0143221,9.74986599 C15.0095588,9.7499552 15.0047846,9.75 15,9.75 L14.985,9.749 L9.01432215,9.74986599 C9.00955883,9.7499552 9.00478465,9.75 9,9.75 L8.985,9.749 Z M12,5.75 C10.809136,5.75 9.83435508,6.67516159 9.75519081,7.84595119 L9.75,8 L9.75,8.249 L14.25,8.249 L14.25,8 C14.25,6.75735931 13.2426407,5.75 12,5.75 Z" id="Icon-Color" fill="#212121"></path>
    </g>
</svg>