<?xml version="1.0" encoding="UTF-8"?>
<svg width="24px" height="24px" viewBox="0 0 24 24" version="1.1" xmlns="http://www.w3.org/2000/svg" xmlns:xlink="http://www.w3.org/1999/xlink">
    <title>Icon/building-hospital</title>
    <g id="Icon/building-hospital" stroke="none" stroke-width="1" fill="none" fill-rule="evenodd">
        <path d="M17,2.25 C18.4625318,2.25 19.6584043,3.3917046 19.7449812,4.83247767 L19.75,5 L19.75,20.25 L21,20.25 C21.4142136,20.25 21.75,20.5857864 21.75,21 C21.75,21.3796958 21.4678461,21.693491 21.1017706,21.7431534 L21,21.75 L3,21.75 C2.58578644,21.75 2.25,21.4142136 2.25,21 C2.25,20.6203042 2.53215388,20.306509 2.89822944,20.2568466 L3,20.25 L4.25,20.25 L4.25,5 C4.25,3.53746816 5.3917046,2.34159572 6.83247767,2.25501879 L7,2.25 L17,2.25 Z M17,3.75 L7,3.75 C6.35279131,3.75 5.8204661,4.24187466 5.75645361,4.87219476 L5.75,5 L5.75,20.25 L8.25,20.25 L8.25,17 C8.25,15.5374682 9.3917046,14.3415957 10.8324777,14.2550188 L11,14.25 L13,14.25 C14.4625318,14.25 15.6584043,15.3917046 15.7449812,16.8324777 L15.75,17 L15.75,20.25 L18.25,20.25 L18.25,5 C18.25,4.35279131 17.7581253,3.8204661 17.1278052,3.75645361 L17,3.75 Z M13,15.75 L11,15.75 C10.3527913,15.75 9.8204661,16.2418747 9.75645361,16.8721948 L9.75,17 L9.75,20.25 L14.25,20.25 L14.25,17 C14.25,16.3527913 13.7581253,15.8204661 13.1278052,15.7564536 L13,15.75 Z M12,6.25 C12.3796958,6.25 12.693491,6.53215388 12.7431534,6.89822944 L12.75,7 L12.75,8.25 L14,8.25 C14.4142136,8.25 14.75,8.58578644 14.75,9 C14.75,9.37969577 14.4678461,9.69349096 14.1017706,9.74315338 L14,9.75 L12.75,9.75 L12.75,11 C12.75,11.4142136 12.4142136,11.75 12,11.75 C11.6203042,11.75 11.306509,11.4678461 11.2568466,11.1017706 L11.25,11 L11.25,9.75 L10,9.75 C9.58578644,9.75 9.25,9.41421356 9.25,9 C9.25,8.62030423 9.53215388,8.30650904 9.89822944,8.25684662 L10,8.25 L11.25,8.25 L11.25,7 C11.25,6.58578644 11.5857864,6.25 12,6.25 Z" id="Icon-Color" fill="#212121"></path>
    </g>
</svg>