<?xml version="1.0" encoding="UTF-8"?>
<svg width="24px" height="24px" viewBox="0 0 24 24" version="1.1" xmlns="http://www.w3.org/2000/svg" xmlns:xlink="http://www.w3.org/1999/xlink">
    <title>Icon/building-store</title>
    <g id="Icon/building-store" stroke="none" stroke-width="1" fill="none" fill-rule="evenodd">
        <path d="M3,21.75 C2.58578644,21.75 2.25,21.4142136 2.25,21 C2.25,20.6203042 2.53215388,20.306509 2.89822944,20.2568466 L3,20.25 L4.25,20.25 L4.24998919,11.317471 C3.11576608,10.7179131 2.32607826,9.55371817 2.25519801,8.19915857 L2.25,8 L2.25072058,6.94993428 L2.26423078,6.85146155 L2.28949833,6.75895871 L2.32173397,6.67950098 L4.32917961,2.6645898 C4.44034312,2.44226278 4.65306933,2.29158773 4.89482472,2.25739283 L5,2.25 L19,2.25 C19.2485692,2.25 19.4784711,2.37288418 19.6171722,2.57382434 L19.6708204,2.6645898 L21.6910613,6.70806615 L21.7232093,6.80062029 L21.7360234,6.85490161 L21.7431534,6.89822944 L21.75,7 L21.75,8 C21.75,9.4386127 20.9399118,10.6880192 19.7510148,11.3169401 L19.75,20.25 L21,20.25 C21.4142136,20.25 21.75,20.5857864 21.75,21 C21.75,21.3796958 21.4678461,21.693491 21.1017706,21.7431534 L21,21.75 L3,21.75 Z M14.9991349,10.2492136 C14.3167468,11.1604959 13.2272164,11.75 12,11.75 C10.7727836,11.75 9.68325324,11.1604959 8.99913485,10.2492136 C8.31674676,11.1604959 7.22721641,11.75 6,11.75 C5.91614834,11.75 5.83293947,11.7472479 5.7504588,11.741829 L5.75,20.25 L8.25,20.25 L8.25,17 C8.25,15.5374682 9.3917046,14.3415957 10.8324777,14.2550188 L11,14.25 L13,14.25 C14.4625318,14.25 15.6584043,15.3917046 15.7449812,16.8324777 L15.75,17 L15.75,20.25 L18.25,20.25 L18.250547,11.7417628 C18.167737,11.7472255 18.0841925,11.75 18,11.75 C16.7727836,11.75 15.6832532,11.1604959 14.9991349,10.2492136 Z M13,15.75 L11,15.75 C10.3527913,15.75 9.8204661,16.2418747 9.75645361,16.8721948 L9.75,17 L9.75,20.25 L14.25,20.25 L14.25,17 C14.25,16.3527913 13.7581253,15.8204661 13.1278052,15.7564536 L13,15.75 Z M8.25,7.75 L3.75,7.75 L3.75,8 C3.75,9.24264069 4.75735931,10.25 6,10.25 C7.19086399,10.25 8.16564492,9.32483841 8.24480919,8.15404881 L8.25,8 L8.25,7.75 Z M14.25,7.75 L9.75,7.75 L9.75,8 C9.75,9.24264069 10.7573593,10.25 12,10.25 C13.190864,10.25 14.1656449,9.32483841 14.2448092,8.15404881 L14.25,8 L14.25,7.75 Z M20.25,7.75 L15.75,7.75 L15.75,8 C15.75,9.24264069 16.7573593,10.25 18,10.25 C19.190864,10.25 20.1656449,9.32483841 20.2448092,8.15404881 L20.25,8 L20.25,7.75 Z M18.536,3.75 L5.463,3.75 L4.213,6.25 L19.786,6.25 L18.536,3.75 Z" id="Icon-Color" fill="#212121"></path>
    </g>
</svg>