<?xml version="1.0" encoding="UTF-8"?>
<svg width="24px" height="24px" viewBox="0 0 24 24" version="1.1" xmlns="http://www.w3.org/2000/svg" xmlns:xlink="http://www.w3.org/1999/xlink">
    <title>Icon/camera</title>
    <g id="Icon/camera" stroke="none" stroke-width="1" fill="none" fill-rule="evenodd">
        <path d="M15,3.25 C15.9181734,3.25 16.6711923,3.95711027 16.7441988,4.85647279 L16.75,5 C16.75,5.64720869 17.2418747,6.1795339 17.8721948,6.24354639 L18,6.25 L19,6.25 C20.4625318,6.25 21.6584043,7.3917046 21.7449812,8.83247767 L21.75,9 L21.75,18 C21.75,19.4625318 20.6082954,20.6584043 19.1675223,20.7449812 L19,20.75 L5,20.75 C3.53746816,20.75 2.34159572,19.6082954 2.25501879,18.1675223 L2.25,18 L2.25,9 C2.25,7.53746816 3.3917046,6.34159572 4.83247767,6.25501879 L5,6.25 L6,6.25 C6.64720869,6.25 7.1795339,5.75812534 7.24354639,5.12780524 L7.25,5 C7.25,4.0818266 7.95711027,3.32880766 8.85647279,3.2558012 L9,3.25 L15,3.25 Z M15,4.75 L9,4.75 C8.86192881,4.75 8.75,4.86192881 8.75,5 C8.75,6.46253184 7.6082954,7.65840428 6.16752233,7.74498121 L6,7.75 L5,7.75 C4.35279131,7.75 3.8204661,8.24187466 3.75645361,8.87219476 L3.75,9 L3.75,18 C3.75,18.6472087 4.24187466,19.1795339 4.87219476,19.2435464 L5,19.25 L19,19.25 C19.6472087,19.25 20.1795339,18.7581253 20.2435464,18.1278052 L20.25,18 L20.25,9 C20.25,8.35279131 19.7581253,7.8204661 19.1278052,7.75645361 L19,7.75 L18,7.75 C16.4812169,7.75 15.25,6.51878306 15.25,5 C15.25,4.88165327 15.1677666,4.78251318 15.0573227,4.75660268 L15,4.75 Z M12,9.25 C14.0710678,9.25 15.75,10.9289322 15.75,13 C15.75,15.0710678 14.0710678,16.75 12,16.75 C9.92893219,16.75 8.25,15.0710678 8.25,13 C8.25,10.9289322 9.92893219,9.25 12,9.25 Z M12,10.75 C10.7573593,10.75 9.75,11.7573593 9.75,13 C9.75,14.2426407 10.7573593,15.25 12,15.25 C13.2426407,15.25 14.25,14.2426407 14.25,13 C14.25,11.7573593 13.2426407,10.75 12,10.75 Z" id="Icon-Color" fill="#212121"></path>
    </g>
</svg>