<?xml version="1.0" encoding="UTF-8"?>
<svg width="24px" height="24px" viewBox="0 0 24 24" version="1.1" xmlns="http://www.w3.org/2000/svg" xmlns:xlink="http://www.w3.org/1999/xlink">
    <title>Icon/cast</title>
    <g id="Icon/cast" stroke="none" stroke-width="1" fill="none" fill-rule="evenodd">
        <path d="M3.01,18.25 C3.42421356,18.25 3.76,18.5857864 3.76,19 C3.76,19.3796958 3.47784612,19.693491 3.11177056,19.7431534 L3,19.75 C2.58578644,19.75 2.25,19.4142136 2.25,19 C2.25,18.6203042 2.53215388,18.306509 2.89822944,18.2568466 L3.01,18.25 Z M3,14.25 C5.62335256,14.25 7.75,16.3766474 7.75,19 C7.75,19.4142136 7.41421356,19.75 7,19.75 C6.58578644,19.75 6.25,19.4142136 6.25,19 C6.25,17.2050746 4.79492544,15.75 3,15.75 C2.58578644,15.75 2.25,15.4142136 2.25,15 C2.25,14.5857864 2.58578644,14.25 3,14.25 Z M3,10.25 C7.83249156,10.25 11.75,14.1675084 11.75,19 C11.75,19.4142136 11.4142136,19.75 11,19.75 C10.5857864,19.75 10.25,19.4142136 10.25,19 C10.25,14.9959356 7.00406444,11.75 3,11.75 C2.58578644,11.75 2.25,11.4142136 2.25,11 C2.25,10.5857864 2.58578644,10.25 3,10.25 Z M18,4.25 C20.0042592,4.25 21.6412737,5.82236105 21.744802,7.80084143 L21.75,8 L21.75,16 C21.75,18.0042592 20.1776389,19.6412737 18.1991586,19.744802 L18,19.75 L15,19.75 C14.5857864,19.75 14.25,19.4142136 14.25,19 C14.25,18.6203042 14.5321539,18.306509 14.8982294,18.2568466 L15,18.25 L18,18.25 C19.190864,18.25 20.1656449,17.3248384 20.2448092,16.1540488 L20.25,16 L20.25,8 C20.25,6.80913601 19.3248384,5.83435508 18.1540488,5.75519081 L18,5.75 L6.00711873,5.74996622 C5.06144228,5.75894263 4.2223158,6.35831869 3.90711873,7.24996622 C3.7690662,7.6404971 3.34056467,7.84517125 2.95003378,7.70711873 C2.5595029,7.5690662 2.35482875,7.14056467 2.49288127,6.75003378 C2.99536937,5.32856672 4.29679203,4.35278141 5.79459368,4.25749511 L6,4.25 L18,4.25 Z" id="Icon-Color" fill="#212121"></path>
    </g>
</svg>