<?xml version="1.0" encoding="UTF-8"?>
<svg width="24px" height="24px" viewBox="0 0 24 24" version="1.1" xmlns="http://www.w3.org/2000/svg" xmlns:xlink="http://www.w3.org/1999/xlink">
    <title>Icon/ce</title>
    <g id="Icon/ce" stroke="none" stroke-width="1" fill="none" fill-rule="evenodd">
        <path d="M11,3.25 C11.4142136,3.25 11.75,3.58578644 11.75,4 C11.75,4.41421356 11.4142136,4.75 11,4.75 C6.99593556,4.75 3.75,7.99593556 3.75,12 C3.75,16.0040644 6.99593556,19.25 11,19.25 C11.4142136,19.25 11.75,19.5857864 11.75,20 C11.75,20.4142136 11.4142136,20.75 11,20.75 C6.16750844,20.75 2.25,16.8324916 2.25,12 C2.25,7.16750844 6.16750844,3.25 11,3.25 Z M20,3.25 C20.4142136,3.25 20.75,3.58578644 20.75,4 C20.75,4.41421356 20.4142136,4.75 20,4.75 C16.2488962,4.75 13.1631561,7.59876052 12.7882383,11.2508229 L20,11.25 C20.4142136,11.25 20.75,11.5857864 20.75,12 C20.75,12.3796958 20.4678461,12.693491 20.1017706,12.7431534 L20,12.75 L12.7883414,12.7501809 C13.1637215,16.4017615 16.2492399,19.25 20,19.25 C20.4142136,19.25 20.75,19.5857864 20.75,20 C20.75,20.4142136 20.4142136,20.75 20,20.75 C15.1675084,20.75 11.25,16.8324916 11.25,12 C11.25,7.16750844 15.1675084,3.25 20,3.25 Z" id="Icon-Color" fill="#212121"></path>
    </g>
</svg>