<?xml version="1.0" encoding="UTF-8"?>
<svg width="24px" height="24px" viewBox="0 0 24 24" version="1.1" xmlns="http://www.w3.org/2000/svg" xmlns:xlink="http://www.w3.org/1999/xlink">
    <title>Icon/chart-bar</title>
    <g id="Icon/chart-bar" stroke="none" stroke-width="1" fill="none" fill-rule="evenodd">
        <path d="M4,20.75 C3.03350169,20.75 2.25,19.9664983 2.25,19 L2.25,19 L2.25,13 C2.25,12.0335017 3.03350169,11.25 4,11.25 L4,11.25 L8,11.25 C8.08525896,11.25 8.16909388,11.256097 8.25109254,11.2678788 L8.25,9 C8.25,8.03350169 9.03350169,7.25 10,7.25 L10,7.25 L14,7.25 C14.085259,7.25 14.1690939,7.25609702 14.2510925,7.26787884 L14.25,5 C14.25,4.03350169 15.0335017,3.25 16,3.25 L16,3.25 L20,3.25 C20.9664983,3.25 21.75,4.03350169 21.75,5 L21.75,5 L21.75,19 C21.75,19.9664983 20.9664983,20.75 20,20.75 L20,20.75 Z M8,12.75 L4,12.75 C3.86192881,12.75 3.75,12.8619288 3.75,13 L3.75,13 L3.75,19 C3.75,19.1380712 3.86192881,19.25 4,19.25 L4,19.25 L8,19.25 C8.13807119,19.25 8.25,19.1380712 8.25,19 L8.25,19 L8.25,13 C8.25,12.8619288 8.13807119,12.75 8,12.75 L8,12.75 Z M14,8.75 L10,8.75 C9.86192881,8.75 9.75,8.86192881 9.75,9 L9.75,9 L9.75,19 C9.75,19.1380712 9.86192881,19.25 10,19.25 L10,19.25 L14,19.25 C14.1380712,19.25 14.25,19.1380712 14.25,19 L14.25,19 L14.25,9 C14.25,8.86192881 14.1380712,8.75 14,8.75 L14,8.75 Z M20,4.75 L16,4.75 C15.8619288,4.75 15.75,4.86192881 15.75,5 L15.75,5 L15.75,19 C15.75,19.1380712 15.8619288,19.25 16,19.25 L16,19.25 L20,19.25 C20.1380712,19.25 20.25,19.1380712 20.25,19 L20.25,19 L20.25,5 C20.25,4.86192881 20.1380712,4.75 20,4.75 L20,4.75 Z" id="Icon-Color" fill="#212121"></path>
    </g>
</svg>