<?xml version="1.0" encoding="UTF-8"?>
<svg width="24px" height="24px" viewBox="0 0 24 24" version="1.1" xmlns="http://www.w3.org/2000/svg" xmlns:xlink="http://www.w3.org/1999/xlink">
    <title>Icon/chevrons/chevrons-left</title>
    <g id="Icon/chevrons/chevrons-left" stroke="none" stroke-width="1" fill="none" fill-rule="evenodd">
        <path d="M11.5303301,6.46966991 C11.7965966,6.73593648 11.8208027,7.15260016 11.6029482,7.44621165 L11.5303301,7.53033009 L7.061,12 L11.5303301,16.4696699 C11.7965966,16.7359365 11.8208027,17.1526002 11.6029482,17.4462117 L11.5303301,17.5303301 C11.2640635,17.7965966 10.8473998,17.8208027 10.5537883,17.6029482 L10.4696699,17.5303301 L5.46966991,12.5303301 C5.20340335,12.2640635 5.1791973,11.8473998 5.39705176,11.5537883 L5.46966991,11.4696699 L10.4696699,6.46966991 C10.7625631,6.1767767 11.2374369,6.1767767 11.5303301,6.46966991 Z M17.5303301,6.46966991 C17.7965966,6.73593648 17.8208027,7.15260016 17.6029482,7.44621165 L17.5303301,7.53033009 L13.061,12 L17.5303301,16.4696699 C17.7965966,16.7359365 17.8208027,17.1526002 17.6029482,17.4462117 L17.5303301,17.5303301 C17.2640635,17.7965966 16.8473998,17.8208027 16.5537883,17.6029482 L16.4696699,17.5303301 L11.4696699,12.5303301 C11.2034034,12.2640635 11.1791973,11.8473998 11.3970518,11.5537883 L11.4696699,11.4696699 L16.4696699,6.46966991 C16.7625631,6.1767767 17.2374369,6.1767767 17.5303301,6.46966991 Z" id="Icon-Color" fill="#212121"></path>
    </g>
</svg>