<?xml version="1.0" encoding="UTF-8"?>
<svg width="24px" height="24px" viewBox="0 0 24 24" version="1.1" xmlns="http://www.w3.org/2000/svg" xmlns:xlink="http://www.w3.org/1999/xlink">
    <title>Icon/circle-plus</title>
    <g id="Icon/circle-plus" stroke="none" stroke-width="1" fill="none" fill-rule="evenodd">
        <path d="M12,2.25 C17.3847763,2.25 21.75,6.61522369 21.75,12 C21.75,17.3847763 17.3847763,21.75 12,21.75 C6.61522369,21.75 2.25,17.3847763 2.25,12 C2.25,6.61522369 6.61522369,2.25 12,2.25 Z M12,3.75 C7.44365081,3.75 3.75,7.44365081 3.75,12 C3.75,16.5563492 7.44365081,20.25 12,20.25 C16.5563492,20.25 20.25,16.5563492 20.25,12 C20.25,7.44365081 16.5563492,3.75 12,3.75 Z M12,8.25 C12.3796958,8.25 12.693491,8.53215388 12.7431534,8.89822944 L12.75,9 L12.75,11.25 L15,11.25 C15.4142136,11.25 15.75,11.5857864 15.75,12 C15.75,12.3796958 15.4678461,12.693491 15.1017706,12.7431534 L15,12.75 L12.75,12.75 L12.75,15 C12.75,15.4142136 12.4142136,15.75 12,15.75 C11.6203042,15.75 11.306509,15.4678461 11.2568466,15.1017706 L11.25,15 L11.25,12.75 L9,12.75 C8.58578644,12.75 8.25,12.4142136 8.25,12 C8.25,11.6203042 8.53215388,11.306509 8.89822944,11.2568466 L9,11.25 L11.25,11.25 L11.25,9 C11.25,8.58578644 11.5857864,8.25 12,8.25 Z" id="Icon-Color" fill="#212121"></path>
    </g>
</svg>