<?xml version="1.0" encoding="UTF-8"?>
<svg width="24px" height="24px" viewBox="0 0 24 24" version="1.1" xmlns="http://www.w3.org/2000/svg" xmlns:xlink="http://www.w3.org/1999/xlink">
    <title>Icon/click</title>
    <g id="Icon/click" stroke="none" stroke-width="1" fill="none" fill-rule="evenodd">
        <path d="M12.0395507,11.250854 L12.1543239,11.2659252 L12.25,11.292 L21.2371708,14.2884875 C21.8337731,14.487355 21.9237759,15.2716749 21.4340461,15.6123867 L21.3354102,15.6708204 L17.558,17.558 L15.6708204,21.3354102 C15.3895794,21.8978922 14.6004139,21.8760708 14.3323847,21.3430792 L14.2884875,21.2371708 L11.285,12.225 L11.264,12.145 C11.2565593,12.1054582 11.2526086,12.0724264 11.250854,12.0395507 L11.250854,11.9604493 L11.264,11.854 C11.2858834,11.7511823 11.3239103,11.6614842 11.3774626,11.5816681 L11.4367193,11.5045145 L11.5045145,11.4367193 C11.5532629,11.3937998 11.608158,11.3567795 11.6684462,11.3271655 L11.7628292,11.2884875 L11.8615423,11.2628001 L11.9604493,11.250854 L12.0395507,11.250854 Z M8.33033009,15.6696699 C8.59659665,15.9359365 8.6208027,16.3526002 8.40294824,16.6462117 L8.33033009,16.7303301 L6.13033009,18.9303301 C5.83743687,19.2232233 5.36256313,19.2232233 5.06966991,18.9303301 C4.80340335,18.6640635 4.7791973,18.2473998 4.99705176,17.9537883 L5.06966991,17.8696699 L7.26966991,15.6696699 C7.56256313,15.3767767 8.03743687,15.3767767 8.33033009,15.6696699 Z M13.186,13.186 L15.139,19.045 L16.3291796,16.6645898 C16.3872378,16.5484734 16.4741723,16.4499273 16.5809382,16.3779962 L16.6645898,16.3291796 L19.045,15.139 L13.186,13.186 Z M6,11.25 C6.41421356,11.25 6.75,11.5857864 6.75,12 C6.75,12.3796958 6.46784612,12.693491 6.10177056,12.7431534 L6,12.75 L3,12.75 C2.58578644,12.75 2.25,12.4142136 2.25,12 C2.25,11.6203042 2.53215388,11.306509 2.89822944,11.2568466 L3,11.25 L6,11.25 Z M6.04621165,4.99705176 L6.13033009,5.06966991 L8.33033009,7.26966991 C8.6232233,7.56256313 8.6232233,8.03743687 8.33033009,8.33033009 C8.06406352,8.59659665 7.64739984,8.6208027 7.35378835,8.40294824 L7.26966991,8.33033009 L5.06966991,6.13033009 C4.7767767,5.83743687 4.7767767,5.36256313 5.06966991,5.06966991 C5.33593648,4.80340335 5.75260016,4.7791973 6.04621165,4.99705176 Z M18.9303301,5.06966991 C19.1965966,5.33593648 19.2208027,5.75260016 19.0029482,6.04621165 L18.9303301,6.13033009 L16.7303301,8.33033009 C16.4374369,8.6232233 15.9625631,8.6232233 15.6696699,8.33033009 C15.4034034,8.06406352 15.3791973,7.64739984 15.5970518,7.35378835 L15.6696699,7.26966991 L17.8696699,5.06966991 C18.1625631,4.7767767 18.6374369,4.7767767 18.9303301,5.06966991 Z M12,2.25 C12.3796958,2.25 12.693491,2.53215388 12.7431534,2.89822944 L12.75,3 L12.75,6 C12.75,6.41421356 12.4142136,6.75 12,6.75 C11.6203042,6.75 11.306509,6.46784612 11.2568466,6.10177056 L11.25,6 L11.25,3 C11.25,2.58578644 11.5857864,2.25 12,2.25 Z" id="Icon-Color" fill="#212121"></path>
    </g>
</svg>