<?xml version="1.0" encoding="UTF-8"?>
<svg width="24px" height="24px" viewBox="0 0 24 24" version="1.1" xmlns="http://www.w3.org/2000/svg" xmlns:xlink="http://www.w3.org/1999/xlink">
    <title>Icon/cloud</title>
    <g id="Icon/cloud" stroke="none" stroke-width="1" fill="none" fill-rule="evenodd">
        <path d="M7,18.75 L6.77568268,18.7456349 C3.87387513,18.6325041 1.54545455,16.3344578 1.54545455,13.5 C1.54545455,10.810899 3.64118615,8.6046036 6.3340112,8.28878548 L6.426,8.279 L6.4720517,8.14611202 C7.07880404,6.5030642 8.46382916,5.18990461 10.249182,4.57481707 L10.495085,4.49530297 C12.6284147,3.84994297 14.9807884,4.27764729 16.6786371,5.6258213 C18.0683805,6.72934482 18.8510636,8.3168528 18.8612461,9.96681229 L18.854,10.25 L19,10.25 C21.2781746,10.25 23.1376867,12.042507 23.245099,14.2940837 L23.2499999,14.5 C23.2499999,16.7781746 21.4574929,18.6376867 19.2059163,18.7450991 L19,18.75 L7,18.75 Z M15.7458638,6.8005272 C14.4372624,5.76143439 12.5964599,5.42674302 10.9294159,5.93104554 C9.28109221,6.42968491 8.06779731,7.66735366 7.73179077,9.1642628 C7.65493253,9.50666628 7.35092355,9.75 7,9.75 C4.80869042,9.75 3.04545455,11.4365734 3.04545455,13.5 C3.04545455,15.4989445 4.70021009,17.1442211 6.7958596,17.2450988 L7,17.25 L19,17.25 C20.4625318,17.25 21.6584042,16.1082954 21.7449811,14.6675223 L21.7499999,14.5 C21.7499999,13.0374682 20.6082954,11.8415958 19.1675223,11.7550188 L19,11.75 L18,11.75 C17.5195313,11.75 17.1629784,11.3045406 17.2682092,10.8357372 C17.6009811,9.35323855 17.0277686,7.81842166 15.7458638,6.8005272 Z" id="Icon-Color" fill="#212121"></path>
    </g>
</svg>