<?xml version="1.0" encoding="UTF-8"?>
<svg width="24px" height="24px" viewBox="0 0 24 24" version="1.1" xmlns="http://www.w3.org/2000/svg" xmlns:xlink="http://www.w3.org/1999/xlink">
    <title>Icon/cloud-download</title>
    <g id="Icon/cloud-download" stroke="none" stroke-width="1" fill="none" fill-rule="evenodd">
        <path d="M11.9711242,22.7494474 L12,22.75 C11.9616078,22.75 11.9238893,22.7471153 11.8870495,22.7415508 C11.8754819,22.7397462 11.8637722,22.7376905 11.8521073,22.7353557 C11.8271042,22.730412 11.8028079,22.7242388 11.7790163,22.7169138 C11.7679823,22.7134791 11.7565511,22.7096707 11.7451987,22.7055797 C11.7188825,22.6960791 11.6937965,22.6853891 11.6694541,22.6734181 C11.660864,22.6692435 11.6521736,22.6647663 11.6435552,22.6601081 C11.6227515,22.648797 11.6023773,22.6364819 11.5826652,22.6232565 C11.5729212,22.6167953 11.5632903,22.6099985 11.5537883,22.6029482 L11.4696699,22.5303301 L8.46966991,19.5303301 C8.1767767,19.2374369 8.1767767,18.7625631 8.46966991,18.4696699 C8.73593648,18.2034034 9.15260016,18.1791973 9.44621165,18.3970518 L9.53033009,18.4696699 L11.2498117,20.1889163 L11.25,13 C11.25,12.5857864 11.5857864,12.25 12,12.25 C12.3796958,12.25 12.693491,12.5321539 12.7431534,12.8982294 L12.75,13 L12.7498117,20.1889163 L14.4696699,18.4696699 C14.7359365,18.2034034 15.1526002,18.1791973 15.4462117,18.3970518 L15.5303301,18.4696699 C15.7965966,18.7359365 15.8208027,19.1526002 15.6029482,19.4462117 L15.5303301,19.5303301 L12.5303301,22.5303301 C12.504882,22.5557782 12.4776136,22.5794061 12.448737,22.6010016 L12.5303301,22.5303301 C12.4924151,22.5682451 12.4514506,22.601252 12.4082262,22.6293508 C12.3913258,22.640261 12.3738866,22.6506243 12.3560107,22.660283 C12.3431963,22.667261 12.3300916,22.6738405 12.3168439,22.6800119 C12.2908805,22.6920978 12.2642192,22.7027312 12.2368577,22.7118312 C12.230643,22.7138474 12.2249001,22.7156722 12.2191403,22.7174261 C12.1502453,22.7385589 12.0764588,22.75 12,22.75 C11.9864955,22.7499183 11.978808,22.7497416 11.9711242,22.7494474 Z M16.6786371,5.6258213 C18.0683805,6.72934482 18.8510636,8.3168528 18.8612461,9.96681229 L18.854,10.25 L19,10.25 C21.2781746,10.25 23.1376867,12.042507 23.245099,14.2940837 L23.2499999,14.5 C23.2499999,16.8472102 21.3472101,18.75 19,18.75 C18.5857864,18.75 18.25,18.4142136 18.25,18 C18.25,17.5857864 18.5857864,17.25 19,17.25 C20.518783,17.25 21.7499999,16.0187831 21.7499999,14.5 C21.7499999,13.0374682 20.6082954,11.8415958 19.1675223,11.7550188 L19,11.75 L18,11.75 C17.5195313,11.75 17.1629784,11.3045406 17.2682092,10.8357372 C17.6009811,9.35323855 17.0277686,7.81842166 15.7458638,6.8005272 C14.4372624,5.76143439 12.5964599,5.42674302 10.9294159,5.93104554 C9.28109221,6.42968491 8.06779731,7.66735366 7.73179077,9.1642628 C7.65246175,9.51767361 7.33189652,9.76389593 6.96998199,9.74939904 C5.12123902,9.67534558 3.48555627,10.8576182 3.06127917,12.5547266 C2.63948927,14.2418862 3.52892248,15.9841955 5.19968896,16.712478 C5.57939688,16.8779916 5.75303566,17.319981 5.58752202,17.699689 C5.42200838,18.0793969 4.98001897,18.2530357 4.60031104,18.087522 C2.26620244,17.0700905 1.00427197,14.598097 1.60606542,12.1909231 C2.14918673,10.0184379 4.06945688,8.46359813 6.32158479,8.26714025 L6.433,8.259 L6.4720517,8.14611202 C7.07880404,6.5030642 8.46382916,5.18990461 10.249182,4.57481707 L10.495085,4.49530297 C12.6284147,3.84994297 14.9807884,4.27764729 16.6786371,5.6258213 Z" id="Icon-Color" fill="#212121"></path>
    </g>
</svg>