<?xml version="1.0" encoding="UTF-8"?>
<svg width="24px" height="24px" viewBox="0 0 24 24" version="1.1" xmlns="http://www.w3.org/2000/svg" xmlns:xlink="http://www.w3.org/1999/xlink">
    <title>Icon/command</title>
    <g id="Icon/command" stroke="none" stroke-width="1" fill="none" fill-rule="evenodd">
        <path d="M6.83247767,9.74498121 C5.3917046,9.65840428 4.25,8.46253184 4.25,7 C4.25,5.48121694 5.48121694,4.25 7,4.25 C8.46253184,4.25 9.65840428,5.3917046 9.74498121,6.83247767 L9.75,7 L9.75,8.25 L14.25,8.25 L14.25,7 C14.25,5.53746816 15.3917046,4.34159572 16.8324777,4.25501879 L17,4.25 C18.5187831,4.25 19.75,5.48121694 19.75,7 C19.75,8.46253184 18.6082954,9.65840428 17.1675223,9.74498121 L17,9.75 L15.75,9.75 L15.75,14.25 L17,14.25 C18.4625318,14.25 19.6584043,15.3917046 19.7449812,16.8324777 L19.75,17 C19.75,18.5187831 18.5187831,19.75 17,19.75 C15.5374682,19.75 14.3415957,18.6082954 14.2550188,17.1675223 L14.25,17 L14.25,15.75 L9.75,15.75 L9.75,17 C9.75,18.4625318 8.6082954,19.6584043 7.16752233,19.7449812 L7,19.75 C5.48121694,19.75 4.25,18.5187831 4.25,17 C4.25,15.5374682 5.3917046,14.3415957 6.83247767,14.2550188 L7,14.25 L8.25,14.25 L8.25,9.75 L7,9.75 L6.83247767,9.74498121 Z M8.25,15.75 L7,15.75 C6.30964406,15.75 5.75,16.3096441 5.75,17 C5.75,17.6903559 6.30964406,18.25 7,18.25 C7.64720869,18.25 8.1795339,17.7581253 8.24354639,17.1278052 L8.25,17 L8.25,15.75 Z M17,15.75 L15.75,15.75 L15.75,17 C15.75,17.6472087 16.2418747,18.1795339 16.8721948,18.2435464 L17,18.25 C17.6903559,18.25 18.25,17.6903559 18.25,17 C18.25,16.3527913 17.7581253,15.8204661 17.1278052,15.7564536 L17,15.75 Z M14.25,9.75 L9.75,9.75 L9.75,14.25 L14.25,14.25 L14.25,9.75 Z M7,5.75 C6.30964406,5.75 5.75,6.30964406 5.75,7 C5.75,7.64720869 6.24187466,8.1795339 6.87219476,8.24354639 L7,8.25 L8.25,8.25 L8.25,7 C8.25,6.35279131 7.75812534,5.8204661 7.12780524,5.75645361 L7,5.75 Z M17,5.75 C16.3527913,5.75 15.8204661,6.24187466 15.7564536,6.87219476 L15.75,7 L15.75,8.25 L17,8.25 C17.6472087,8.25 18.1795339,7.75812534 18.2435464,7.12780524 L18.25,7 C18.25,6.30964406 17.6903559,5.75 17,5.75 Z" id="Icon-Color" fill="#212121"></path>
    </g>
</svg>