<?xml version="1.0" encoding="UTF-8"?>
<svg width="24px" height="24px" viewBox="0 0 24 24" version="1.1" xmlns="http://www.w3.org/2000/svg" xmlns:xlink="http://www.w3.org/1999/xlink">
    <title>Icon/confetti</title>
    <g id="Icon/confetti" stroke="none" stroke-width="1" fill="none" fill-rule="evenodd">
        <path d="M6.80017892,9.68755798 C7.01792157,9.21239293 7.64273999,9.10007981 8.01233009,9.46966991 L8.01233009,9.46966991 L14.5303301,15.9876699 C14.6709824,16.1283222 14.75,16.3190876 14.75,16.518 L14.75,16.518 L14.7421346,16.6268144 C14.7057726,16.8766028 14.5457448,17.0938998 14.312469,17.2008087 L14.312469,17.2008087 L4.73253078,21.5912379 C4.06681545,21.895224 3.28230775,21.7536651 2.76482132,21.2361787 C2.24733489,20.7186922 2.10577603,19.9341845 2.41017892,19.267558 L2.41017892,19.267558 Z M19,17.25 C19.3796958,17.25 19.693491,17.5321539 19.7431534,17.8982294 L19.75,18 L19.7494429,18.2498226 L20,18.25 C20.4142136,18.25 20.75,18.5857864 20.75,19 C20.75,19.3796958 20.4678461,19.693491 20.1017706,19.7431534 L20,19.75 L19.7494429,19.7498226 L19.75,20 C19.75,20.4142136 19.4142136,20.75 19,20.75 C18.6203042,20.75 18.306509,20.4678461 18.2568466,20.1017706 L18.25,20 L18.2494429,19.7498226 L18,19.75 C17.5857864,19.75 17.25,19.4142136 17.25,19 C17.25,18.6203042 17.5321539,18.306509 17.8982294,18.2568466 L18,18.25 L18.2494429,18.2498226 L18.25,18 C18.25,17.5857864 18.5857864,17.25 19,17.25 Z M7.714,11.293 L3.77423792,19.8915308 C3.73036543,19.9876095 3.75079577,20.1008328 3.82548149,20.1755185 C3.90016721,20.2502042 4.01339051,20.2706346 4.10853103,20.2271913 L4.10853103,20.2271913 L12.707,16.286 L7.714,11.293 Z M20.7276069,12.3180983 C20.8196966,12.6864573 20.6220737,13.0593157 20.2789731,13.1962817 L20.1819017,13.2276069 L18.1819017,13.7276069 C17.7800555,13.8280684 17.3728547,13.5837479 17.2723931,13.1819017 C17.1803034,12.8135427 17.3779263,12.4406843 17.7210269,12.3037183 L17.8180983,12.2723931 L19.8180983,11.7723931 C20.2199445,11.6719316 20.6271453,11.9162521 20.7276069,12.3180983 Z M15.5303301,8.46966991 C15.7965966,8.73593648 15.8208027,9.15260016 15.6029482,9.44621165 L15.5303301,9.53033009 L14.5303301,10.5303301 C14.2374369,10.8232233 13.7625631,10.8232233 13.4696699,10.5303301 C13.2034034,10.2640635 13.1791973,9.84739984 13.3970518,9.55378835 L13.4696699,9.46966991 L14.4696699,8.46966991 C14.7625631,8.1767767 15.2374369,8.1767767 15.5303301,8.46966991 Z M5,3.25 C5.37969577,3.25 5.69349096,3.53215388 5.74315338,3.89822944 L5.75,4 L5.74944295,4.24982258 L6,4.25 C6.41421356,4.25 6.75,4.58578644 6.75,5 C6.75,5.37969577 6.46784612,5.69349096 6.10177056,5.74315338 L6,5.75 L5.74944295,5.74982258 L5.75,6 C5.75,6.41421356 5.41421356,6.75 5,6.75 C4.62030423,6.75 4.30650904,6.46784612 4.25684662,6.10177056 L4.25,6 L4.24944295,5.74982258 L4,5.75 C3.58578644,5.75 3.25,5.41421356 3.25,5 C3.25,4.62030423 3.53215388,4.30650904 3.89822944,4.25684662 L4,4.25 L4.24944295,4.24982258 L4.25,4 C4.25,3.58578644 4.58578644,3.25 5,3.25 Z M11.6819017,3.27239312 C12.0502607,3.36448287 12.2862544,3.71431886 12.2456477,4.08150923 L12.2276069,4.18190172 L11.7276069,6.18190172 C11.6271453,6.5837479 11.2199445,6.82806842 10.8180983,6.72760688 C10.4497393,6.63551713 10.2137456,6.28568114 10.2543523,5.91849077 L10.2723931,5.81809828 L10.7723931,3.81809828 C10.8728547,3.4162521 11.2800555,3.17193158 11.6819017,3.27239312 Z M19,3.25 C19.3796958,3.25 19.693491,3.53215388 19.7431534,3.89822944 L19.75,4 L19.7494429,4.24982258 L20,4.25 C20.4142136,4.25 20.75,4.58578644 20.75,5 C20.75,5.37969577 20.4678461,5.69349096 20.1017706,5.74315338 L20,5.75 L19.7494429,5.74982258 L19.75,6 C19.75,6.41421356 19.4142136,6.75 19,6.75 C18.6203042,6.75 18.306509,6.46784612 18.2568466,6.10177056 L18.25,6 L18.2494429,5.74982258 L18,5.75 C17.5857864,5.75 17.25,5.41421356 17.25,5 C17.25,4.62030423 17.5321539,4.30650904 17.8982294,4.25684662 L18,4.25 L18.2494429,4.24982258 L18.25,4 C18.25,3.58578644 18.5857864,3.25 19,3.25 Z" id="Icon-Color" fill="#212121"></path>
    </g>
</svg>