<?xml version="1.0" encoding="UTF-8"?>
<svg width="24px" height="24px" viewBox="0 0 24 24" version="1.1" xmlns="http://www.w3.org/2000/svg" xmlns:xlink="http://www.w3.org/1999/xlink">
    <title>Icon/contrast</title>
    <g id="Icon/contrast" stroke="none" stroke-width="1" fill="none" fill-rule="evenodd">
        <path d="M12,2.25 C17.3847763,2.25 21.75,6.61522369 21.75,12 C21.75,17.3847763 17.3847763,21.75 12,21.75 C6.61522369,21.75 2.25,17.3847763 2.25,12 C2.25,6.61522369 6.61522369,2.25 12,2.25 Z M12,3.75 C7.44365081,3.75 3.75,7.44365081 3.75,12 C3.75,16.5563492 7.44365081,20.25 12,20.25 C16.5563492,20.25 20.25,16.5563492 20.25,12 C20.25,7.44365081 16.5563492,3.75 12,3.75 Z M12,6.25 C15.1756373,6.25 17.75,8.82436269 17.75,12 C17.75,15.1756373 15.1756373,17.75 12,17.75 C11.6203042,17.75 11.306509,17.4678461 11.2568466,17.1017706 L11.25,17 L11.25,7 C11.25,6.58578644 11.5857864,6.25 12,6.25 Z M12.75,7.817 L12.75,16.183 L12.807599,16.1733661 C14.7032229,15.808708 16.1507064,14.1845746 16.2450991,12.2059163 L16.25,12 C16.25,9.92893219 14.7685892,8.2038664 12.807599,7.82663386 L12.75,7.817 Z" id="Icon-Color" fill="#212121"></path>
    </g>
</svg>