<?xml version="1.0" encoding="UTF-8"?>
<svg width="24px" height="24px" viewBox="0 0 24 24" version="1.1" xmlns="http://www.w3.org/2000/svg" xmlns:xlink="http://www.w3.org/1999/xlink">
    <title>Icon/copyright</title>
    <g id="Icon/copyright" stroke="none" stroke-width="1" fill="none" fill-rule="evenodd">
        <path d="M12,2.25 C17.3847763,2.25 21.75,6.61522369 21.75,12 C21.75,17.3847763 17.3847763,21.75 12,21.75 C6.61522369,21.75 2.25,17.3847763 2.25,12 C2.25,6.61522369 6.61522369,2.25 12,2.25 Z M12,3.75 C7.44365081,3.75 3.75,7.44365081 3.75,12 C3.75,16.5563492 7.44365081,20.25 12,20.25 C16.5563492,20.25 20.25,16.5563492 20.25,12 C20.25,7.44365081 16.5563492,3.75 12,3.75 Z M15.0324139,8.47176195 C15.3241517,8.76580603 15.3222821,9.24067609 15.028238,9.53241391 C14.734194,9.82415172 14.2593239,9.82228213 13.9675861,9.52823805 C12.872706,8.42470264 11.2498397,8.50222977 10.2334505,9.71338648 C9.16880663,10.9820447 9.16880663,13.0179553 10.2334505,14.2866135 C11.2498397,15.4977702 12.872706,15.5752974 13.9675861,14.471762 C14.2593239,14.1777179 14.734194,14.1758483 15.028238,14.4675861 C15.3222821,14.7593239 15.3241517,15.234194 15.0324139,15.528238 C13.3130844,17.2611593 10.6653113,17.1346705 9.08443433,15.2508551 C7.55181203,13.4245412 7.55181203,10.5754588 9.08443433,8.7491449 C10.6653113,6.86532945 13.3130844,6.73884075 15.0324139,8.47176195 Z" id="Icon-Color" fill="#212121"></path>
    </g>
</svg>