<?xml version="1.0" encoding="UTF-8"?>
<svg width="24px" height="24px" viewBox="0 0 24 24" version="1.1" xmlns="http://www.w3.org/2000/svg" xmlns:xlink="http://www.w3.org/1999/xlink">
    <title>Icon/corner-down-left</title>
    <g id="Icon/corner-down-left" stroke="none" stroke-width="1" fill="none" fill-rule="evenodd">
        <path d="M18,5.25 C18.3796958,5.25 18.693491,5.53215388 18.7431534,5.89822944 L18.75,6 L18.75,12 C18.75,14.0042592 17.1776389,15.6412737 15.1991586,15.744802 L15,15.75 L6.811,15.75 L9.53033009,18.4696699 C9.8232233,18.7625631 9.8232233,19.2374369 9.53033009,19.5303301 C9.26406352,19.7965966 8.84739984,19.8208027 8.55378835,19.6029482 L8.46966991,19.5303301 L4.49403763,15.5559706 C4.43718413,15.5035292 4.38910406,15.4426853 4.35097349,15.3762783 L4.30918985,15.2920314 C4.30307527,15.2780607 4.29759211,15.2638748 4.29255594,15.2495668 C4.21264104,15.0238054 4.23699179,14.7606545 4.40170696,14.5468915 L4.46966991,14.4696699 L8.46966991,10.4696699 C8.76256313,10.1767767 9.23743687,10.1767767 9.53033009,10.4696699 C9.79659665,10.7359365 9.8208027,11.1526002 9.60294824,11.4462117 L9.53033009,11.5303301 L6.81,14.25 L15,14.25 C16.190864,14.25 17.1656449,13.3248384 17.2448092,12.1540488 L17.25,12 L17.25,6 C17.25,5.58578644 17.5857864,5.25 18,5.25 Z" id="Icon-Color" fill="#212121"></path>
    </g>
</svg>