<?xml version="1.0" encoding="UTF-8"?>
<svg width="24px" height="24px" viewBox="0 0 24 24" version="1.1" xmlns="http://www.w3.org/2000/svg" xmlns:xlink="http://www.w3.org/1999/xlink">
    <title>Icon/currency-rupee</title>
    <g id="Icon/currency-rupee" stroke="none" stroke-width="1" fill="none" fill-rule="evenodd">
        <path d="M18,4.25 C18.3796958,4.25 18.693491,4.53215388 18.7431534,4.89822944 L18.75,5 C18.75,5.37969577 18.4678461,5.69349096 18.1017706,5.74315338 L18,5.75 L13.463,5.75 L13.4989495,5.78750763 C14.1158301,6.45904079 14.5418935,7.30865748 14.6911886,8.2504066 L18,8.25 C18.4142136,8.25 18.75,8.58578644 18.75,9 C18.75,9.37969577 18.4678461,9.69349096 18.1017706,9.74315338 L18,9.75 L14.6909553,9.75106377 C14.3420034,11.9477785 12.4870984,13.6428572 10.217428,13.7451121 L10,13.75 L8.811,13.75 L13.5303301,18.4696699 C13.7965966,18.7359365 13.8208027,19.1526002 13.6029482,19.4462117 L13.5303301,19.5303301 C13.2640635,19.7965966 12.8473998,19.8208027 12.5537883,19.6029482 L12.4696699,19.5303301 L6.46966991,13.5303301 C6.0220633,13.0827235 6.2988334,12.3341085 6.89733906,12.2565468 L7,12.25 L10,12.25 C11.5365541,12.25 12.8240554,11.1836786 13.1628775,9.75066246 L7,9.75 C6.58578644,9.75 6.25,9.41421356 6.25,9 C6.25,8.62030423 6.53215388,8.30650904 6.89822944,8.25684662 L7,8.25 L13.1631154,8.2503444 C12.8382886,6.87455115 11.6390934,5.83651988 10.1844239,5.75514479 L10,5.75 L7,5.75 L6.88020833,5.74240451 C6.03993056,5.63259549 6.03993056,4.36740451 6.88020833,4.25759549 L7,4.25 L18,4.25 Z" id="Icon-Color" fill="#212121"></path>
    </g>
</svg>