<?xml version="1.0" encoding="UTF-8"?>
<svg width="24px" height="24px" viewBox="0 0 24 24" version="1.1" xmlns="http://www.w3.org/2000/svg" xmlns:xlink="http://www.w3.org/1999/xlink">
    <title>Icon/currency-dollar</title>
    <g id="Icon/currency-dollar" stroke="none" stroke-width="1" fill="none" fill-rule="evenodd">
        <path d="M12,2.25 C12.3796958,2.25 12.693491,2.53215388 12.7431534,2.89822944 L12.75,3 L12.75,5.25 L14.0323532,5.25069815 C15.5622765,5.31675691 16.8983291,6.30642551 17.4073532,7.75069815 C17.5450388,8.14135854 17.3399623,8.56966761 16.9493019,8.70735323 C16.5586415,8.84503884 16.1303324,8.63996225 15.9926468,8.24930185 C15.7063207,7.4368985 14.9838663,6.86422773 14.1649655,6.76373415 L14,6.75 L10,6.75 C8.75735931,6.75 7.75,7.75735931 7.75,9 C7.75,10.190864 8.67516159,11.1656449 9.84595119,11.2448092 L10,11.25 L14,11.25 C16.0710678,11.25 17.75,12.9289322 17.75,15 C17.75,17.0042592 16.1776389,18.6412737 14.1991586,18.744802 L14,18.75 L12.75,18.75 L12.75,21 C12.75,21.4142136 12.4142136,21.75 12,21.75 C11.6203042,21.75 11.306509,21.4678461 11.2568466,21.1017706 L11.25,21 L11.25,18.749 L9.96764677,18.7493019 C8.4377235,18.6832431 7.10167089,17.6935745 6.59264677,16.2493019 C6.45496116,15.8586415 6.66003775,15.4303324 7.05069815,15.2926468 C7.44135854,15.1549612 7.86966761,15.3600377 8.00735323,15.7506981 C8.29367929,16.5631015 9.01613366,17.1357723 9.83503452,17.2362659 L10,17.25 L14,17.25 C15.2426407,17.25 16.25,16.2426407 16.25,15 C16.25,13.809136 15.3248384,12.8343551 14.1540488,12.7551908 L14,12.75 L10,12.75 C7.92893219,12.75 6.25,11.0710678 6.25,9 C6.25,6.99574083 7.82236105,5.35872626 9.80084143,5.25519801 L10,5.25 L11.25,5.25 L11.25,3 C11.25,2.58578644 11.5857864,2.25 12,2.25 Z" id="Icon-Color" fill="#212121"></path>
    </g>
</svg>