<?xml version="1.0" encoding="UTF-8"?>
<svg width="24px" height="24px" viewBox="0 0 24 24" version="1.1" xmlns="http://www.w3.org/2000/svg" xmlns:xlink="http://www.w3.org/1999/xlink">
    <title>Icon/currency-euro</title>
    <g id="Icon/currency-euro" stroke="none" stroke-width="1" fill="none" fill-rule="evenodd">
        <path d="M17.7644834,6.50617871 C18.0372128,6.81793428 18.0055759,7.29175299 17.6938203,7.56448241 C17.3820647,7.83721183 16.908246,7.80557487 16.6355166,7.4938193 C14.5817328,5.14614971 11.3422951,5.17186198 9.31490601,7.55329573 C8.88217608,8.06159365 8.53924065,8.6364081 8.2860997,9.25013379 L13,9.25 C13.4142136,9.25 13.75,9.58578644 13.75,10 C13.75,10.3796958 13.4678461,10.693491 13.1017706,10.7431534 L13,10.75 L7.8565172,10.7507376 C7.71560322,11.5748754 7.71566059,12.426153 7.85668932,13.2502686 L13,13.25 C13.4142136,13.25 13.75,13.5857864 13.75,14 C13.75,14.3796958 13.4678461,14.693491 13.1017706,14.7431534 L13,14.75 L8.28650984,14.7508603 C8.53961101,15.3642126 8.88240974,15.9386808 9.31490601,16.4467043 C11.3422953,18.8281383 14.5817328,18.85385 16.6355164,16.5061789 C16.9082457,16.1944232 17.3820644,16.1627861 17.6938201,16.4355154 C18.0055758,16.7082447 18.0372129,17.1820634 17.7644836,17.4938191 C15.1071548,20.5314 10.7932311,20.4971599 8.17274771,17.4190594 C7.50254189,16.6318149 7.00762438,15.7208833 6.68799519,14.7509637 L5,14.75 C4.58578644,14.75 4.25,14.4142136 4.25,14 C4.25,13.6203042 4.53215388,13.306509 4.89822944,13.2568466 L5,13.25 L6.33869819,13.2506378 C6.2216475,12.423101 6.22160026,11.5779155 6.33855648,10.7503645 L5,10.75 C4.58578644,10.75 4.25,10.4142136 4.25,10 C4.25,9.62030423 4.53215388,9.30650904 4.89822944,9.25684662 L5,9.25 L6.6876646,9.25003972 C7.00728308,8.27974499 7.50231078,7.36845653 8.17274771,6.58094063 C10.7932307,3.50284045 15.1071543,3.4685997 17.7644834,6.50617871 Z" id="Icon-Color" fill="#212121"></path>
    </g>
</svg>