<?xml version="1.0" encoding="UTF-8"?>
<svg width="24px" height="24px" viewBox="0 0 24 24" version="1.1" xmlns="http://www.w3.org/2000/svg" xmlns:xlink="http://www.w3.org/1999/xlink">
    <title>Icon/cut</title>
    <g id="Icon/cut" stroke="none" stroke-width="1" fill="none" fill-rule="evenodd">
        <path d="M18.4740527,3.41881671 C18.7658515,3.65682771 18.8320183,4.06891569 18.6449338,4.38302977 L18.5811833,4.47405273 L12.968,11.3549767 L14.9897419,13.8337837 C15.5182611,13.497521 16.1366677,13.2899523 16.8008414,13.255198 L17,13.25 C19.0710678,13.25 20.75,14.9289322 20.75,17 C20.75,19.0710678 19.0710678,20.75 17,20.75 C14.9289322,20.75 13.25,19.0710678 13.25,17 C13.25,16.2133822 13.4921989,15.4833329 13.9060919,14.8803569 L11.999,12.5429767 L10.0939081,14.8803569 C10.4726486,15.4321212 10.7076209,16.0902904 10.744802,16.8008414 L10.75,17 C10.75,19.0710678 9.07106781,20.75 7,20.75 C4.92893219,20.75 3.25,19.0710678 3.25,17 C3.25,14.9289322 4.92893219,13.25 7,13.25 C7.73963629,13.25 8.42925944,13.4641317 9.01025813,13.8337837 L11.031,11.3549767 L5.41881671,4.47405273 C5.15700462,4.15307406 5.20496861,3.68062881 5.52594727,3.41881671 C5.81774606,3.18080572 6.23472385,3.19880802 6.50482973,3.44520422 L6.58118329,3.52594727 L11.999,10.1679767 L17.4188167,3.52594727 C17.6806288,3.20496861 18.1530741,3.15700462 18.4740527,3.41881671 Z M7,14.75 C5.75735931,14.75 4.75,15.7573593 4.75,17 C4.75,18.2426407 5.75735931,19.25 7,19.25 C8.24264069,19.25 9.25,18.2426407 9.25,17 C9.25,15.7573593 8.24264069,14.75 7,14.75 Z M17,14.75 C15.7573593,14.75 14.75,15.7573593 14.75,17 C14.75,18.2426407 15.7573593,19.25 17,19.25 C18.2426407,19.25 19.25,18.2426407 19.25,17 C19.25,15.7573593 18.2426407,14.75 17,14.75 Z" id="Icon-Color" fill="#212121"></path>
    </g>
</svg>