<?xml version="1.0" encoding="UTF-8"?>
<svg width="24px" height="24px" viewBox="0 0 24 24" version="1.1" xmlns="http://www.w3.org/2000/svg" xmlns:xlink="http://www.w3.org/1999/xlink">
    <title>Icon/devices</title>
    <g id="Icon/devices" stroke="none" stroke-width="1" fill="none" fill-rule="evenodd">
        <path d="M17,3.25 C17.9181734,3.25 18.6711923,3.95711027 18.7441988,4.85647279 L18.75,5 L18.75,7.25 L20,7.25 C20.9181734,7.25 21.6711923,7.95711027 21.7441988,8.85647279 L21.75,9 L21.75,19 C21.75,19.9664983 20.9664983,20.75 20,20.75 L20,20.75 L14,20.75 C13.0335017,20.75 12.25,19.9664983 12.25,19 L12.25,19 L12.25,18.75 L4,18.75 C3.0818266,18.75 2.32880766,18.0428897 2.2558012,17.1435272 L2.25,17 L2.25,5 C2.25,4.0818266 2.95711027,3.32880766 3.85647279,3.2558012 L4,3.25 L17,3.25 Z M20,8.75 L18.9730708,8.75033802 C18.9906508,8.83014122 19,8.91379682 19,9 C19,9.50626102 18.6775384,9.92465461 18.2591664,9.99087118 L18.1428571,10 L15.8571429,10 C15.3837559,10 15,9.55228475 15,9 C15,8.91378888 15.0093509,8.8301258 15.0269341,8.75031597 L14,8.75 C13.8619288,8.75 13.75,8.86192881 13.75,9 L13.75,9 L13.75,19 C13.75,19.1380712 13.8619288,19.25 14,19.25 L14,19.25 L20,19.25 C20.1380712,19.25 20.25,19.1380712 20.25,19 L20.25,19 L20.25,9 C20.25,8.86192881 20.1380712,8.75 20,8.75 L20,8.75 Z M17,4.75 L4,4.75 C3.88165327,4.75 3.78251318,4.83223341 3.75660268,4.94267729 L3.75,5 L3.75,17 C3.75,17.1183467 3.83223341,17.2174868 3.94267729,17.2433973 L4,17.25 L12.25,17.25 L12.25,9 C12.25,8.0818266 12.9571103,7.32880766 13.8564728,7.2558012 L14,7.25 L17.25,7.25 L17.25,5 C17.25,4.88165327 17.1677666,4.78251318 17.0573227,4.75660268 L17,4.75 Z" id="Icon-Color" fill="#212121"></path>
    </g>
</svg>