<?xml version="1.0" encoding="UTF-8"?>
<svg width="24px" height="24px" viewBox="0 0 24 24" version="1.1" xmlns="http://www.w3.org/2000/svg" xmlns:xlink="http://www.w3.org/1999/xlink">
    <title>Icon/devices-pc</title>
    <g id="Icon/devices-pc" stroke="none" stroke-width="1" fill="none" fill-rule="evenodd">
        <path d="M9,4.25 C9.41421356,4.25 9.75,4.58578644 9.75,5 L9.75,5 L9.75,19 C9.75,19.4142136 9.41421356,19.75 9,19.75 L9,19.75 L3,19.75 C2.58578644,19.75 2.25,19.4142136 2.25,19 L2.25,19 L2.25,5 C2.25,4.58578644 2.58578644,4.25 3,4.25 L3,4.25 Z M22,8.25 C22.4142136,8.25 22.75,8.58578644 22.75,9 L22.75,9 L22.75,16 C22.75,16.4142136 22.4142136,16.75 22,16.75 L22,16.75 L17.75,16.75 L17.75,18.25 L20,18.25 C20.4142136,18.25 20.75,18.5857864 20.75,19 C20.75,19.3796958 20.4678461,19.693491 20.1017706,19.7431534 L20,19.75 L14,19.75 C13.5857864,19.75 13.25,19.4142136 13.25,19 C13.25,18.6203042 13.5321539,18.306509 13.8982294,18.2568466 L14,18.25 L16.25,18.25 L16.25,16.75 L12,16.75 C11.6203042,16.75 11.306509,16.4678461 11.2568466,16.1017706 L11.25,16 L11.25,9 C11.25,8.58578644 11.5857864,8.25 12,8.25 L12,8.25 Z M8.25,5.75 L3.75,5.75 L3.75,18.25 L8.25,18.25 L8.25,5.75 Z M6,15.25 C6.37969577,15.25 6.69349096,15.5321539 6.74315338,15.8982294 L6.75,16.01 C6.75,16.4242136 6.41421356,16.76 6,16.76 C5.62030423,16.76 5.30650904,16.4778461 5.25684662,16.1117706 L5.25,16 C5.25,15.5857864 5.58578644,15.25 6,15.25 Z M21.25,9.75 L12.75,9.75 L12.75,15.25 L21.25,15.25 L21.25,9.75 Z M6,12.25 C6.37969577,12.25 6.69349096,12.5321539 6.74315338,12.8982294 L6.75,13.01 C6.75,13.4242136 6.41421356,13.76 6,13.76 C5.62030423,13.76 5.30650904,13.4778461 5.25684662,13.1117706 L5.25,13 C5.25,12.5857864 5.58578644,12.25 6,12.25 Z" id="Icon-Color" fill="#212121"></path>
    </g>
</svg>