<?xml version="1.0" encoding="UTF-8"?>
<svg width="24px" height="24px" viewBox="0 0 24 24" version="1.1" xmlns="http://www.w3.org/2000/svg" xmlns:xlink="http://www.w3.org/1999/xlink">
    <title>Icon/device-tv</title>
    <g id="Icon/device-tv" stroke="none" stroke-width="1" fill="none" fill-rule="evenodd">
        <path d="M16.4462117,2.39705176 L16.5303301,2.46966991 C16.7965966,2.73593648 16.8208027,3.15260016 16.6029482,3.44621165 L16.5303301,3.53033009 L13.81,6.25 L19,6.25 C20.4625318,6.25 21.6584043,7.3917046 21.7449812,8.83247767 L21.75,9 L21.75,18 C21.75,19.5187831 20.5187831,20.75 19,20.75 L19,20.75 L5,20.75 C3.48121694,20.75 2.25,19.5187831 2.25,18 L2.25,18 L2.25,9 C2.25,7.48121694 3.48121694,6.25 5,6.25 L5,6.25 L10.189,6.25 L7.46966991,3.53033009 C7.1767767,3.23743687 7.1767767,2.76256313 7.46966991,2.46966991 C7.73593648,2.20340335 8.15260016,2.1791973 8.44621165,2.39705176 L8.53033009,2.46966991 L12,5.939 L15.4696699,2.46966991 C15.7359365,2.20340335 16.1526002,2.1791973 16.4462117,2.39705176 Z M19,7.75 L5,7.75 C4.30964406,7.75 3.75,8.30964406 3.75,9 L3.75,9 L3.75,18 C3.75,18.6903559 4.30964406,19.25 5,19.25 L5,19.25 L19,19.25 C19.6903559,19.25 20.25,18.6903559 20.25,18 L20.25,18 L20.25,9 C20.25,8.30964406 19.6903559,7.75 19,7.75 L19,7.75 Z" id="Icon-Color" fill="#212121"></path>
    </g>
</svg>