<?xml version="1.0" encoding="UTF-8"?>
<svg width="24px" height="24px" viewBox="0 0 24 24" version="1.1" xmlns="http://www.w3.org/2000/svg" xmlns:xlink="http://www.w3.org/1999/xlink">
    <title>Icon/device-computer-camera</title>
    <g id="Icon/device-computer-camera" stroke="none" stroke-width="1" fill="none" fill-rule="evenodd">
        <path d="M12,2.25 C16.2802068,2.25 19.75,5.71979319 19.75,10 C19.75,12.4284268 18.6330748,14.5959817 16.8849164,16.0169725 L18.7343425,19.1004998 C19.0581874,19.6409487 19.0665171,20.3137609 18.7561514,20.8620616 C18.4716495,21.3646705 17.9596175,21.6915262 17.3905009,21.7428954 L17.234,21.75 L6.7654075,21.75 C6.13535967,21.749502 5.55421435,21.4103623 5.24384864,20.8620616 C4.96169799,20.3636064 4.94293198,19.7622491 5.18529196,19.2507656 L5.26583147,19.1002096 L7.11508355,16.0169725 C5.36692524,14.5959817 4.25,12.4284268 4.25,10 C4.25,5.71979319 7.71979319,2.25 12,2.25 Z M15.6334245,16.847234 C14.5497213,17.4234892 13.312991,17.75 12,17.75 C10.687009,17.75 9.45027869,17.4234892 8.36657549,16.847234 L6.5523425,19.8715002 C6.50607894,19.9487072 6.50488899,20.0448233 6.54922695,20.1231519 C6.58248041,20.1818984 6.63749296,20.2238374 6.70064256,20.2411651 L6.766,20.25 L17.2334075,20.2500002 C17.3234143,20.2499291 17.4064351,20.2014806 17.4507731,20.1231519 C17.4840265,20.0644054 17.4916705,19.9956535 17.4739702,19.9325 L17.4478315,19.8717904 Z M12,3.75 C8.54822031,3.75 5.75,6.54822031 5.75,10 C5.75,13.4517797 8.54822031,16.25 12,16.25 C15.4517797,16.25 18.25,13.4517797 18.25,10 C18.25,6.54822031 15.4517797,3.75 12,3.75 Z M12,6.25 C14.0710678,6.25 15.75,7.92893219 15.75,10 C15.75,12.0710678 14.0710678,13.75 12,13.75 C9.92893219,13.75 8.25,12.0710678 8.25,10 C8.25,7.92893219 9.92893219,6.25 12,6.25 Z M12,7.75 C10.7573593,7.75 9.75,8.75735931 9.75,10 C9.75,11.2426407 10.7573593,12.25 12,12.25 C13.2426407,12.25 14.25,11.2426407 14.25,10 C14.25,8.75735931 13.2426407,7.75 12,7.75 Z" id="Icon-Color" fill="#212121"></path>
    </g>
</svg>