<?xml version="1.0" encoding="UTF-8"?>
<svg width="24px" height="24px" viewBox="0 0 24 24" version="1.1" xmlns="http://www.w3.org/2000/svg" xmlns:xlink="http://www.w3.org/1999/xlink">
    <title>Icon/device-cctv</title>
    <g id="Icon/device-cctv" stroke="none" stroke-width="1" fill="none" fill-rule="evenodd">
        <path d="M20,2.25 C20.9664983,2.25 21.75,3.03350169 21.75,4 L21.75,4 L21.75,6 C21.75,6.96649831 20.9664983,7.75 20,7.75 L20,7.75 L19.75,7.75 L19.75,14 C19.75,18.2802068 16.2802068,21.75 12,21.75 C7.8021049,21.75 4.38375329,18.4123771 4.25383071,14.246017 L4.25,14 L4.25,7.75 L4,7.75 C3.0818266,7.75 2.32880766,7.04288973 2.2558012,6.14352721 L2.25,6 L2.25,4 C2.25,3.03350169 3.03350169,2.25 4,2.25 L4,2.25 Z M18.25,7.75 L5.75,7.75 L5.75,14 C5.75,17.4517796 8.54822035,20.25 12,20.25 C15.3750734,20.25 18.1253119,17.5747632 18.245878,14.2291269 L18.25,14 L18.25,7.75 Z M12,9.25 C14.6233526,9.25 16.75,11.3766474 16.75,14 C16.75,16.6233526 14.6233526,18.75 12,18.75 C9.37664744,18.75 7.25,16.6233526 7.25,14 C7.25,11.3766474 9.37664744,9.25 12,9.25 Z M12,10.75 C10.2050746,10.75 8.75,12.2050746 8.75,14 C8.75,15.7949254 10.2050746,17.25 12,17.25 C13.7949254,17.25 15.25,15.7949254 15.25,14 C15.25,12.2050746 13.7949254,10.75 12,10.75 Z M12.01,13.25 C12.4242136,13.25 12.76,13.5857864 12.76,14 C12.76,14.3796958 12.4778461,14.693491 12.1117706,14.7431534 L12,14.75 C11.5857864,14.75 11.25,14.4142136 11.25,14 C11.25,13.6203042 11.5321539,13.306509 11.8982294,13.2568466 L12.01,13.25 Z M20,3.75 L4,3.75 C3.86192881,3.75 3.75,3.86192881 3.75,4 L3.75,4 L3.75,6 C3.75,6.13807119 3.86192881,6.25 4,6.25 L4,6.25 L20,6.25 C20.1380712,6.25 20.25,6.13807119 20.25,6 L20.25,6 L20.25,4 C20.25,3.86192881 20.1380712,3.75 20,3.75 L20,3.75 Z" id="Icon-Color" fill="#212121"></path>
    </g>
</svg>