<?xml version="1.0" encoding="UTF-8"?>
<svg width="24px" height="24px" viewBox="0 0 24 24" version="1.1" xmlns="http://www.w3.org/2000/svg" xmlns:xlink="http://www.w3.org/1999/xlink">
    <title>Icon/device-speaker</title>
    <g id="Icon/device-speaker" stroke="none" stroke-width="1" fill="none" fill-rule="evenodd">
        <path d="M17,2.25 C18.5187831,2.25 19.75,3.48121694 19.75,5 L19.75,5 L19.75,19 C19.75,20.5187831 18.5187831,21.75 17,21.75 L17,21.75 L7,21.75 C5.48121694,21.75 4.25,20.5187831 4.25,19 L4.25,19 L4.25,5 C4.25,3.48121694 5.48121694,2.25 7,2.25 L7,2.25 Z M17,3.75 L7,3.75 C6.30964406,3.75 5.75,4.30964406 5.75,5 L5.75,5 L5.75,19 C5.75,19.6903559 6.30964406,20.25 7,20.25 L7,20.25 L17,20.25 C17.6903559,20.25 18.25,19.6903559 18.25,19 L18.25,19 L18.25,5 C18.25,4.30964406 17.6903559,3.75 17,3.75 L17,3.75 Z M12,10.25 C14.0710678,10.25 15.75,11.9289322 15.75,14 C15.75,16.0710678 14.0710678,17.75 12,17.75 C9.92893219,17.75 8.25,16.0710678 8.25,14 C8.25,11.9289322 9.92893219,10.25 12,10.25 Z M12,11.75 C10.7573593,11.75 9.75,12.7573593 9.75,14 C9.75,15.2426407 10.7573593,16.25 12,16.25 C13.2426407,16.25 14.25,15.2426407 14.25,14 C14.25,12.7573593 13.2426407,11.75 12,11.75 Z M12,6.25 C12.3796958,6.25 12.693491,6.53215388 12.7431534,6.89822944 L12.75,7.01 C12.75,7.42421356 12.4142136,7.76 12,7.76 C11.6203042,7.76 11.306509,7.47784612 11.2568466,7.11177056 L11.25,7 C11.25,6.58578644 11.5857864,6.25 12,6.25 Z" id="Icon-Color" fill="#212121"></path>
    </g>
</svg>