<?xml version="1.0" encoding="UTF-8"?>
<svg width="24px" height="24px" viewBox="0 0 24 24" version="1.1" xmlns="http://www.w3.org/2000/svg" xmlns:xlink="http://www.w3.org/1999/xlink">
    <title>Icon/dice</title>
    <g id="Icon/dice" stroke="none" stroke-width="1" fill="none" fill-rule="evenodd">
        <path d="M18,3.25 C19.5187831,3.25 20.75,4.48121694 20.75,6 L20.75,6 L20.75,18 C20.75,19.5187831 19.5187831,20.75 18,20.75 L18,20.75 L6,20.75 C4.48121694,20.75 3.25,19.5187831 3.25,18 L3.25,18 L3.25,6 C3.25,4.48121694 4.48121694,3.25 6,3.25 L6,3.25 Z M18,4.75 L6,4.75 C5.30964406,4.75 4.75,5.30964406 4.75,6 L4.75,6 L4.75,18 C4.75,18.6903559 5.30964406,19.25 6,19.25 L6,19.25 L18,19.25 C18.6903559,19.25 19.25,18.6903559 19.25,18 L19.25,18 L19.25,6 C19.25,5.30964406 18.6903559,4.75 18,4.75 L18,4.75 Z M15.5,14.25 C16.1903559,14.25 16.75,14.8096441 16.75,15.5 C16.75,16.1903559 16.1903559,16.75 15.5,16.75 C14.8096441,16.75 14.25,16.1903559 14.25,15.5 C14.25,14.8096441 14.8096441,14.25 15.5,14.25 Z M8.5,14.25 C9.19035594,14.25 9.75,14.8096441 9.75,15.5 C9.75,16.1903559 9.19035594,16.75 8.5,16.75 C7.80964406,16.75 7.25,16.1903559 7.25,15.5 C7.25,14.8096441 7.80964406,14.25 8.5,14.25 Z M15.5,15.25 C15.3619288,15.25 15.25,15.3619288 15.25,15.5 C15.25,15.6380712 15.3619288,15.75 15.5,15.75 C15.6380712,15.75 15.75,15.6380712 15.75,15.5 C15.75,15.3619288 15.6380712,15.25 15.5,15.25 Z M8.5,15.25 C8.36192881,15.25 8.25,15.3619288 8.25,15.5 C8.25,15.6380712 8.36192881,15.75 8.5,15.75 C8.63807119,15.75 8.75,15.6380712 8.75,15.5 C8.75,15.3619288 8.63807119,15.25 8.5,15.25 Z M8.5,7.25 C9.19035594,7.25 9.75,7.80964406 9.75,8.5 C9.75,9.19035594 9.19035594,9.75 8.5,9.75 C7.80964406,9.75 7.25,9.19035594 7.25,8.5 C7.25,7.80964406 7.80964406,7.25 8.5,7.25 Z M15.5,7.25 C16.1903559,7.25 16.75,7.80964406 16.75,8.5 C16.75,9.19035594 16.1903559,9.75 15.5,9.75 C14.8096441,9.75 14.25,9.19035594 14.25,8.5 C14.25,7.80964406 14.8096441,7.25 15.5,7.25 Z M8.5,8.25 C8.36192881,8.25 8.25,8.36192881 8.25,8.5 C8.25,8.63807119 8.36192881,8.75 8.5,8.75 C8.63807119,8.75 8.75,8.63807119 8.75,8.5 C8.75,8.36192881 8.63807119,8.25 8.5,8.25 Z M15.5,8.25 C15.3619288,8.25 15.25,8.36192881 15.25,8.5 C15.25,8.63807119 15.3619288,8.75 15.5,8.75 C15.6380712,8.75 15.75,8.63807119 15.75,8.5 C15.75,8.36192881 15.6380712,8.25 15.5,8.25 Z" id="Icon-Color" fill="#212121"></path>
    </g>
</svg>