<?xml version="1.0" encoding="UTF-8"?>
<svg width="24px" height="24px" viewBox="0 0 24 24" version="1.1" xmlns="http://www.w3.org/2000/svg" xmlns:xlink="http://www.w3.org/1999/xlink">
    <title>Icon/dimensions</title>
    <g id="Icon/dimensions" stroke="none" stroke-width="1" fill="none" fill-rule="evenodd">
        <path d="M19.0058164,9.25002241 C19.0383922,9.25 19.0761107,9.25288471 19.1129505,9.25844919 C19.1245181,9.26025385 19.1362278,9.26230949 19.1478927,9.26464433 C19.1728958,9.26958796 19.1971921,9.27576118 19.2209837,9.28308617 C19.2326435,9.28671273 19.2446929,9.29074464 19.256654,9.29509073 C19.2799516,9.30357499 19.3020202,9.31287686 19.3235218,9.32317314 C19.3351229,9.32866533 19.3474599,9.33496828 19.359651,9.34163501 C19.3836668,9.35487024 19.4063902,9.36897543 19.4282634,9.38421622 C19.4340051,9.38813751 19.4401347,9.39254279 19.4462117,9.39705176 C19.4538569,9.40285492 19.4560847,9.40455735 19.4583026,9.40627192 L19.5303301,9.46966991 L21.5303301,11.4696699 C21.8232233,11.7625631 21.8232233,12.2374369 21.5303301,12.5303301 C21.2640635,12.7965966 20.8473998,12.8208027 20.5537883,12.6029482 L20.4696699,12.5303301 L19.75,11.811 L19.75,19.188 L20.4696699,18.4696699 C20.7359365,18.2034034 21.1526002,18.1791973 21.4462117,18.3970518 L21.5303301,18.4696699 C21.7965966,18.7359365 21.8208027,19.1526002 21.6029482,19.4462117 L21.5303301,19.5303301 L19.5303301,21.5303301 C19.504882,21.5557782 19.4776136,21.5794061 19.448737,21.6010016 L19.5303301,21.5303301 C19.4932768,21.5673834 19.4533111,21.5997491 19.4111698,21.6274273 C19.3910149,21.6405922 19.3700275,21.6529723 19.3484182,21.664329 C19.3392964,21.6691626 19.3305656,21.6735192 19.3217704,21.6776949 C19.2949819,21.690442 19.2665221,21.7019466 19.2372605,21.7116971 C19.2303168,21.7139554 19.2242456,21.7158799 19.2181555,21.7177252 C19.1496769,21.7386468 19.0761643,21.75 19,21.75 C18.9616078,21.75 18.9238893,21.7471153 18.8870495,21.7415508 C18.8754819,21.7397462 18.8637722,21.7376905 18.8521073,21.7353557 C18.8271042,21.730412 18.8028079,21.7242388 18.7790163,21.7169138 C18.7673565,21.7132873 18.7553071,21.7092554 18.743346,21.7049093 C18.7200484,21.696425 18.6979798,21.6871231 18.6764782,21.6768269 C18.6648771,21.6713347 18.6525401,21.6650317 18.640349,21.658365 C18.6142131,21.6439668 18.5895138,21.6284682 18.5658344,21.611629 C18.5621288,21.6090699 18.5579462,21.6060333 18.5537883,21.6029482 C18.5205706,21.5778288 18.4942698,21.5549299 18.4696699,21.5303301 L16.4696699,19.5303301 C16.1767767,19.2374369 16.1767767,18.7625631 16.4696699,18.4696699 C16.7359365,18.2034034 17.1526002,18.1791973 17.4462117,18.3970518 L17.5303301,18.4696699 L18.25,19.189 L18.25,11.81 L17.5303301,12.5303301 C17.2640635,12.7965966 16.8473998,12.8208027 16.5537883,12.6029482 L16.4696699,12.5303301 C16.2034034,12.2640635 16.1791973,11.8473998 16.3970518,11.5537883 L16.4696699,11.4696699 L18.4696699,9.46966991 L18.5416974,9.40627192 C18.5458164,9.40308771 18.5499695,9.39994541 18.5541561,9.39684567 L18.4696699,9.46966991 C18.5067232,9.43261664 18.5466889,9.40025089 18.5888302,9.37257267 C18.6089851,9.35940783 18.6299725,9.34702767 18.6515818,9.33567096 C18.6607036,9.33083742 18.6694344,9.32648082 18.6782296,9.32230508 C18.7066055,9.30880073 18.7367626,9.2967322 18.7678087,9.28663399 C18.7731076,9.28496585 18.7774712,9.28359992 18.7818445,9.2822748 C18.8503231,9.26135317 18.9238357,9.25 19,9.25 L19.0058164,9.25002241 Z M12,9.25 C13.5187831,9.25 14.75,10.4812169 14.75,12 L14.75,12 L14.75,19 C14.75,20.5187831 13.5187831,21.75 12,21.75 L12,21.75 L5,21.75 C3.48121694,21.75 2.25,20.5187831 2.25,19 L2.25,19 L2.25,12 C2.25,10.4812169 3.48121694,9.25 5,9.25 L5,9.25 Z M12,10.75 L5,10.75 C4.30964406,10.75 3.75,11.3096441 3.75,12 L3.75,12 L3.75,19 C3.75,19.6903559 4.30964406,20.25 5,20.25 L5,20.25 L12,20.25 C12.6903559,20.25 13.25,19.6903559 13.25,19 L13.25,19 L13.25,12 C13.25,11.3096441 12.6903559,10.75 12,10.75 L12,10.75 Z M12.4462117,2.39705176 L12.5303301,2.46966991 L14.5303301,4.46966991 C14.5557782,4.49511803 14.5794061,4.52238643 14.6010016,4.55126304 L14.5303301,4.46966991 C14.5673834,4.50672319 14.5997491,4.54668892 14.6274273,4.58883021 C14.6405922,4.60898514 14.6529723,4.62997247 14.664329,4.65158175 C14.6691626,4.66070362 14.6735192,4.66943437 14.6776949,4.67822959 C14.690442,4.70501812 14.7019466,4.73347789 14.7116971,4.76273953 C14.7139554,4.76968322 14.7158799,4.77575442 14.7177252,4.78184446 C14.7386468,4.85032314 14.75,4.92383573 14.75,5 C14.75,5.03839224 14.7471153,5.07611073 14.7415508,5.11295053 C14.7397462,5.12451811 14.7376905,5.13622779 14.7353557,5.14789267 C14.730412,5.17289581 14.7242388,5.19719212 14.7169138,5.22098366 C14.7132873,5.23264346 14.7092554,5.24469294 14.7049093,5.25665398 C14.696425,5.27995161 14.6871231,5.30202019 14.6768269,5.32352179 C14.6713347,5.33512287 14.6650317,5.34745994 14.658365,5.35965102 C14.6451298,5.38366677 14.6310246,5.40639019 14.6157838,5.42826335 C14.6118625,5.43400509 14.6074572,5.44013473 14.6029482,5.44621165 C14.5971451,5.45385686 14.5954427,5.45608469 14.5937281,5.45830264 L14.5303301,5.53033009 L12.5303301,7.53033009 C12.2374369,7.8232233 11.7625631,7.8232233 11.4696699,7.53033009 C11.2034034,7.26406352 11.1791973,6.84739984 11.3970518,6.55378835 L11.4696699,6.46966991 L12.188,5.75 L4.811,5.75 L5.53033009,6.46966991 C5.79659665,6.73593648 5.8208027,7.15260016 5.60294824,7.44621165 L5.53033009,7.53033009 C5.26406352,7.79659665 4.84739984,7.8208027 4.55378835,7.60294824 L4.46966991,7.53033009 L2.46966991,5.53033009 L2.40627192,5.45830264 C2.40333265,5.45450043 2.40042909,5.4506692 2.39756175,5.44680947 L2.46966991,5.53033009 C2.43261664,5.49327681 2.40025089,5.45331108 2.37257267,5.41116979 C2.35879966,5.39008928 2.34590077,5.36811237 2.334124,5.3454587 C2.32980838,5.33722816 2.32598644,5.32952434 2.32230508,5.32177041 C2.30955796,5.29498188 2.29805336,5.26652211 2.28830293,5.23726047 C2.28604456,5.23031678 2.28412011,5.22424558 2.2822748,5.21815554 C2.26135317,5.14967686 2.25,5.07616427 2.25,5 C2.25,4.96160776 2.25288471,4.92388927 2.25844919,4.88704947 C2.26025385,4.87548189 2.26230949,4.86377221 2.26464433,4.85210733 C2.26958796,4.82710419 2.27576118,4.80280788 2.28308617,4.77901634 C2.28671273,4.76735654 2.29074464,4.75530706 2.29509073,4.74334602 C2.30357499,4.72004839 2.31287686,4.69797981 2.32317314,4.67647821 C2.32866533,4.66487713 2.33496828,4.65254006 2.34163501,4.64034898 C2.35661472,4.61315299 2.37281741,4.58747047 2.39046912,4.56289895 C2.3923342,4.56019971 2.39467862,4.55698673 2.39705176,4.55378835 C2.42217116,4.52057056 2.44507007,4.49426976 2.46966991,4.46966991 L4.46966991,2.46966991 C4.76256313,2.1767767 5.23743687,2.1767767 5.53033009,2.46966991 C5.79659665,2.73593648 5.8208027,3.15260016 5.60294824,3.44621165 L5.53033009,3.53033009 L4.81,4.25 L12.189,4.25 L11.4696699,3.53033009 C11.2034034,3.26406352 11.1791973,2.84739984 11.3970518,2.55378835 L11.4696699,2.46966991 C11.7359365,2.20340335 12.1526002,2.1791973 12.4462117,2.39705176 Z" id="Icon-Color" fill="#212121"></path>
    </g>
</svg>