<?xml version="1.0" encoding="UTF-8"?>
<svg width="24px" height="24px" viewBox="0 0 24 24" version="1.1" xmlns="http://www.w3.org/2000/svg" xmlns:xlink="http://www.w3.org/1999/xlink">
    <title>Icon/directions</title>
    <g id="Icon/directions" stroke="none" stroke-width="1" fill="none" fill-rule="evenodd">
        <path d="M12,2.25 C12.3796958,2.25 12.693491,2.53215388 12.7431534,2.89822944 L12.75,3 L12.75,4.25 L19,4.25 C19.1591299,4.25 19.3130458,4.30057128 19.4402609,4.39281377 L19.5303301,4.46966991 L21.5303301,6.46966991 C21.7965966,6.73593648 21.8208027,7.15260016 21.6029482,7.44621165 L21.5303301,7.53033009 L19.5303301,9.53033009 C19.4178083,9.64285191 19.273214,9.71592756 19.1180341,9.74065695 L19,9.75 L12.75,9.75 L12.75,12.25 L13,12.25 C13.9181734,12.25 14.6711923,12.9571103 14.7441988,13.8564728 L14.75,14 L14.75,16 C14.75,16.9181734 14.0428897,17.6711923 13.1435272,17.7441988 L13,17.75 L12.75,17.75 L12.75,22 C12.75,22.4142136 12.4142136,22.75 12,22.75 C11.6203042,22.75 11.306509,22.4678461 11.2568466,22.1017706 L11.25,22 L11.25,17.75 L6,17.75 C5.84087011,17.75 5.68695425,17.6994287 5.55973913,17.6071862 L5.46966991,17.5303301 L3.46966991,15.5303301 C3.20340335,15.2640635 3.1791973,14.8473998 3.39705176,14.5537883 L3.46966991,14.4696699 L5.46966991,12.4696699 C5.58219174,12.3571481 5.72678598,12.2840724 5.88196594,12.2593431 L6,12.25 L11.25,12.25 L11.25,9.75 L9,9.75 C8.0818266,9.75 7.32880766,9.04288973 7.2558012,8.14352721 L7.25,8 L7.25,6 C7.25,5.0818266 7.95711027,4.32880766 8.85647279,4.2558012 L9,4.25 L11.25,4.25 L11.25,3 C11.25,2.58578644 11.5857864,2.25 12,2.25 Z M13,13.75 L6.31,13.75 L5.061,15 L6.311,16.25 L13,16.25 C13.1183467,16.25 13.2174868,16.1677666 13.2433973,16.0573227 L13.25,16 L13.25,14 C13.25,13.8816533 13.1677666,13.7825132 13.0573227,13.7566027 L13,13.75 Z M18.689,5.75 L9,5.75 C8.88165327,5.75 8.78251318,5.83223341 8.75660268,5.94267729 L8.75,6 L8.75,8 C8.75,8.11834673 8.83223341,8.21748682 8.94267729,8.24339732 L9,8.25 L18.688,8.25 L19.939,7 L18.689,5.75 Z" id="Icon-Color" fill="#212121"></path>
    </g>
</svg>