<?xml version="1.0" encoding="UTF-8"?>
<svg width="24px" height="24px" viewBox="0 0 24 24" version="1.1" xmlns="http://www.w3.org/2000/svg" xmlns:xlink="http://www.w3.org/1999/xlink">
    <title>Icon/direction</title>
    <g id="Icon/direction" stroke="none" stroke-width="1" fill="none" fill-rule="evenodd">
        <path d="M15.4462117,13.3970518 L15.5303301,13.4696699 C15.7965966,13.7359365 15.8208027,14.1526002 15.6029482,14.4462117 L15.5303301,14.5303301 L12.5303301,17.5303301 C12.2640635,17.7965966 11.8473998,17.8208027 11.5537883,17.6029482 L11.4696699,17.5303301 L8.46966991,14.5303301 C8.1767767,14.2374369 8.1767767,13.7625631 8.46966991,13.4696699 C8.73593648,13.2034034 9.15260016,13.1791973 9.44621165,13.3970518 L9.53033009,13.4696699 L12,15.939 L14.4696699,13.4696699 C14.7359365,13.2034034 15.1526002,13.1791973 15.4462117,13.3970518 Z M12.4462117,6.39705176 L12.5303301,6.46966991 L15.5303301,9.46966991 C15.8232233,9.76256313 15.8232233,10.2374369 15.5303301,10.5303301 C15.2640635,10.7965966 14.8473998,10.8208027 14.5537883,10.6029482 L14.4696699,10.5303301 L12,8.061 L9.53033009,10.5303301 C9.26406352,10.7965966 8.84739984,10.8208027 8.55378835,10.6029482 L8.46966991,10.5303301 C8.20340335,10.2640635 8.1791973,9.84739984 8.39705176,9.55378835 L8.46966991,9.46966991 L11.4696699,6.46966991 C11.7359365,6.20340335 12.1526002,6.1791973 12.4462117,6.39705176 Z" id="Icon-Color" fill="#212121"></path>
    </g>
</svg>