<?xml version="1.0" encoding="UTF-8"?>
<svg width="24px" height="24px" viewBox="0 0 24 24" version="1.1" xmlns="http://www.w3.org/2000/svg" xmlns:xlink="http://www.w3.org/1999/xlink">
    <title>Icon/disabled</title>
    <g id="Icon/disabled" stroke="none" stroke-width="1" fill="none" fill-rule="evenodd">
        <path d="M7.69293081,11.2130385 C7.85141526,11.5957336 7.66965661,12.0344463 7.28696149,12.1929308 C5.61671113,12.8846269 4.56682751,14.5572332 4.67000399,16.3620973 C4.77318047,18.1669614 6.00683337,19.7090275 7.7450279,20.2058772 C9.48322242,20.7027268 11.3454957,20.0456076 12.3869615,18.5679308 C12.6255867,18.229359 13.0934974,18.1483363 13.4320692,18.3869615 C13.770641,18.6255867 13.8516637,19.0934974 13.6130385,19.4320692 C12.2039966,21.431279 9.68445035,22.3203227 7.33277541,21.6481143 C4.98110046,20.9759059 3.31204065,18.8895812 3.17244894,16.4477062 C3.03285724,14.0058313 4.45328801,11.7428933 6.71303851,10.8070692 C7.09573362,10.6485847 7.53444635,10.8303434 7.69293081,11.2130385 Z M11,2.25 C12.5187831,2.25 13.75,3.48121694 13.75,5 C13.75,6.25880144 12.9042197,7.32006031 11.7499331,7.64650268 L11.7490153,10.25 L16,10.25 C16.4142136,10.25 16.75,10.5857864 16.75,11 C16.75,11.3796958 16.4678461,11.693491 16.1017706,11.7431534 L16,11.75 L11.7490153,11.75 L11.75,14.25 L15,14.25 C15.1898648,14.25 15.3711511,14.3219217 15.5086722,14.4488536 L15.5856516,14.5314787 L19.5856516,19.5314787 C19.8444088,19.8549252 19.7919677,20.3268944 19.4685213,20.5856516 C19.1744791,20.8208854 18.7576907,20.7989306 18.489933,20.5499846 L18.4143484,20.4685213 L14.64,15.75 L11,15.75 C10.6203042,15.75 10.306509,15.4678461 10.2568466,15.1017706 L10.25,15 L10.2494462,7.64632705 C9.09547707,7.31967982 8.25,6.25857578 8.25,5 C8.25,3.48121694 9.48121694,2.25 11,2.25 Z M11,3.75 C10.3096441,3.75 9.75,4.30964406 9.75,5 C9.75,5.69035594 10.3096441,6.25 11,6.25 C10.9945353,6.25001463 10.9972659,6.25 11,6.25 C11.6947196,6.24562579 12.25,5.68765923 12.25,5 C12.25,4.30964406 11.6903559,3.75 11,3.75 Z" id="Icon-Color" fill="#212121"></path>
    </g>
</svg>