<?xml version="1.0" encoding="UTF-8"?>
<svg width="24px" height="24px" viewBox="0 0 24 24" version="1.1" xmlns="http://www.w3.org/2000/svg" xmlns:xlink="http://www.w3.org/1999/xlink">
    <title>Icon/dots-vertical</title>
    <g id="Icon/dots-vertical" stroke="none" stroke-width="1" fill="none" fill-rule="evenodd">
        <path d="M12,17.25 C12.9664983,17.25 13.75,18.0335017 13.75,19 C13.75,19.9664983 12.9664983,20.75 12,20.75 C11.0335017,20.75 10.25,19.9664983 10.25,19 C10.25,18.0335017 11.0335017,17.25 12,17.25 Z M12,18.75 C11.8619288,18.75 11.75,18.8619288 11.75,19 C11.75,19.1380712 11.8619288,19.25 12,19.25 C12.1380712,19.25 12.25,19.1380712 12.25,19 C12.25,18.8619288 12.1380712,18.75 12,18.75 Z M12,10.25 C12.9664983,10.25 13.75,11.0335017 13.75,12 C13.75,12.9664983 12.9664983,13.75 12,13.75 C11.0335017,13.75 10.25,12.9664983 10.25,12 C10.25,11.0335017 11.0335017,10.25 12,10.25 Z M12,11.75 C11.8619288,11.75 11.75,11.8619288 11.75,12 C11.75,12.1380712 11.8619288,12.25 12,12.25 C12.1380712,12.25 12.25,12.1380712 12.25,12 C12.25,11.8619288 12.1380712,11.75 12,11.75 Z M12,3.25 C12.9664983,3.25 13.75,4.03350169 13.75,5 C13.75,5.96649831 12.9664983,6.75 12,6.75 C11.0335017,6.75 10.25,5.96649831 10.25,5 C10.25,4.03350169 11.0335017,3.25 12,3.25 Z M12,4.75 C11.8619288,4.75 11.75,4.86192881 11.75,5 C11.75,5.13807119 11.8619288,5.25 12,5.25 C12.1380712,5.25 12.25,5.13807119 12.25,5 C12.25,4.86192881 12.1380712,4.75 12,4.75 Z" id="Icon-Color" fill="#212121"></path>
    </g>
</svg>