<?xml version="1.0" encoding="UTF-8"?>
<svg width="24px" height="24px" viewBox="0 0 24 24" version="1.1" xmlns="http://www.w3.org/2000/svg" xmlns:xlink="http://www.w3.org/1999/xlink">
    <title>Icon/download</title>
    <g id="Icon/download" stroke="none" stroke-width="1" fill="none" fill-rule="evenodd">
        <path d="M20,16.25 C20.3796958,16.25 20.693491,16.5321539 20.7431534,16.8982294 L20.75,17 L20.75,19 C20.75,20.4625318 19.6082954,21.6584043 18.1675223,21.7449812 L18,21.75 L6,21.75 C4.53746816,21.75 3.34159572,20.6082954 3.25501879,19.1675223 L3.25,19 L3.25,17 C3.25,16.5857864 3.58578644,16.25 4,16.25 C4.37969577,16.25 4.69349096,16.5321539 4.74315338,16.8982294 L4.75,17 L4.75,19 C4.75,19.6472087 5.24187466,20.1795339 5.87219476,20.2435464 L6,20.25 L18,20.25 C18.6472087,20.25 19.1795339,19.7581253 19.2435464,19.1278052 L19.25,19 L19.25,17 C19.25,16.5857864 19.5857864,16.25 20,16.25 Z M12,3.25 C12.3796958,3.25 12.693491,3.53215388 12.7431534,3.89822944 L12.75,4 L12.75,14.189 L16.4696699,10.4696699 C16.7359365,10.2034034 17.1526002,10.1791973 17.4462117,10.3970518 L17.5303301,10.4696699 C17.7965966,10.7359365 17.8208027,11.1526002 17.6029482,11.4462117 L17.5303301,11.5303301 L12.5303301,16.5303301 C12.504882,16.5557782 12.4776136,16.5794061 12.448737,16.6010016 L12.5303301,16.5303301 C12.4952875,16.5653727 12.4576399,16.5962227 12.4180107,16.6228802 C12.3958626,16.6377139 12.3725275,16.6516585 12.3484182,16.664329 C12.3392964,16.6691626 12.3305656,16.6735192 12.3217704,16.6776949 C12.2949819,16.690442 12.2665221,16.7019466 12.2372605,16.7116971 C12.2303168,16.7139554 12.2242456,16.7158799 12.2181555,16.7177252 C12.1496769,16.7386468 12.0761643,16.75 12,16.75 C11.9616078,16.75 11.9238893,16.7471153 11.8870495,16.7415508 C11.8754819,16.7397462 11.8637722,16.7376905 11.8521073,16.7353557 C11.8271042,16.730412 11.8028079,16.7242388 11.7790163,16.7169138 C11.7673565,16.7132873 11.7553071,16.7092554 11.743346,16.7049093 C11.7200484,16.696425 11.6979798,16.6871231 11.6764782,16.6768269 C11.6648771,16.6713347 11.6525401,16.6650317 11.640349,16.658365 C11.6142131,16.6439668 11.5895138,16.6284682 11.5658344,16.611629 C11.5621288,16.6090699 11.5579462,16.6060333 11.5537883,16.6029482 C11.5205706,16.5778288 11.4942698,16.5549299 11.4696699,16.5303301 L6.46966991,11.5303301 C6.1767767,11.2374369 6.1767767,10.7625631 6.46966991,10.4696699 C6.73593648,10.2034034 7.15260016,10.1791973 7.44621165,10.3970518 L7.53033009,10.4696699 L11.25,14.189 L11.25,4 C11.25,3.58578644 11.5857864,3.25 12,3.25 Z" id="Icon-Color" fill="#212121"></path>
    </g>
</svg>