<?xml version="1.0" encoding="UTF-8"?>
<svg width="24px" height="24px" viewBox="0 0 24 24" version="1.1" xmlns="http://www.w3.org/2000/svg" xmlns:xlink="http://www.w3.org/1999/xlink">
    <title>Icon/arrows/circle/outline/down</title>
    <g id="Icon/arrows/circle/outline/down" stroke="none" stroke-width="1" fill="none" fill-rule="evenodd">
        <path d="M12.25,2.25 C6.86522369,2.25 2.5,6.61522369 2.5,12 C2.5,17.3847763 6.86522369,21.75 12.25,21.75 C17.6347763,21.75 22,17.3847763 22,12 C22,6.61522369 17.6347763,2.25 12.25,2.25 Z M12.25,3.75 C16.8063492,3.75 20.5,7.44365081 20.5,12 C20.5,16.5563492 16.8063492,20.25 12.25,20.25 C7.69365081,20.25 4,16.5563492 4,12 C4,7.44365081 7.69365081,3.75 12.25,3.75 Z M10.6983927,16.5872815 C10.4814347,16.8042395 10.1296764,16.8042395 9.91271845,16.5872815 C9.71548396,16.3900471 9.69755356,16.0814073 9.85892723,15.8639173 L9.91271845,15.8016073 L13.9640741,11.75 L9.91271845,7.69839266 C9.71548396,7.50115817 9.69755356,7.1925184 9.85892723,6.97502841 L9.91271845,6.91271845 C10.1099529,6.71548396 10.4185927,6.69755356 10.6360827,6.85892723 L10.6983927,6.91271845 L15.1428371,11.3571629 C15.3400716,11.5543974 15.358002,11.8630372 15.1966283,12.0805272 L15.1428371,12.1428371 L10.6983927,16.5872815 Z" id="Icon-Color" fill="#212121" transform="translate(12.250000, 12.000000) rotate(-270.000000) translate(-12.250000, -12.000000) "></path>
    </g>
</svg>