<?xml version="1.0" encoding="UTF-8"?>
<svg width="24px" height="24px" viewBox="0 0 24 24" version="1.1" xmlns="http://www.w3.org/2000/svg" xmlns:xlink="http://www.w3.org/1999/xlink">
    <title>Icon/drag-drop</title>
    <g id="Icon/drag-drop" stroke="none" stroke-width="1" fill="none" fill-rule="evenodd">
        <path d="M13.0395507,12.250854 L13.1543239,12.2659252 L13.25,12.292 L22.2371708,15.2884875 C22.8337731,15.487355 22.9237759,16.2716749 22.4340461,16.6123867 L22.3354102,16.6708204 L18.558,18.558 L16.6708204,22.3354102 C16.3895794,22.8978922 15.6004139,22.8760708 15.3323847,22.3430792 L15.2884875,22.2371708 L12.285,13.225 L12.264,13.145 C12.2565593,13.1054582 12.2526086,13.0724264 12.250854,13.0395507 L12.250854,12.9604493 L12.264,12.854 C12.2858834,12.7511823 12.3239103,12.6614842 12.3774626,12.5816681 L12.4367193,12.5045145 L12.5045145,12.4367193 C12.5532629,12.3937998 12.608158,12.3567795 12.6684462,12.3271655 L12.7628292,12.2884875 L12.8615423,12.2628001 L12.9604493,12.250854 L13.0395507,12.250854 Z M14.186,14.186 L16.139,20.045 L17.3291796,17.6645898 C17.3872378,17.5484734 17.4741723,17.4499273 17.5809382,17.3779962 L17.6645898,17.3291796 L20.045,16.139 L14.186,14.186 Z M17,6.25 C18.4625318,6.25 19.6584043,7.3917046 19.7449812,8.83247767 L19.75,9 L19.75,11 C19.75,11.4142136 19.4142136,11.75 19,11.75 C18.6203042,11.75 18.306509,11.4678461 18.2568466,11.1017706 L18.25,11 L18.25,9 C18.25,8.35279131 17.7581253,7.8204661 17.1278052,7.75645361 L17,7.75 L9,7.75 C8.35279131,7.75 7.8204661,8.24187466 7.75645361,8.87219476 L7.75,9 L7.75,17 C7.75,17.6472087 8.24187466,18.1795339 8.87219476,18.2435464 L9,18.25 L11,18.25 C11.4142136,18.25 11.75,18.5857864 11.75,19 C11.75,19.3796958 11.4678461,19.693491 11.1017706,19.7431534 L11,19.75 L9,19.75 C7.53746816,19.75 6.34159572,18.6082954 6.25501879,17.1675223 L6.25,17 L6.25,9 C6.25,7.53746816 7.3917046,6.34159572 8.83247767,6.25501879 L9,6.25 L17,6.25 Z M3,14.25 C3.37969577,14.25 3.69349096,14.5321539 3.74315338,14.8982294 L3.75,15.01 C3.75,15.4242136 3.41421356,15.76 3,15.76 C2.62030423,15.76 2.30650904,15.4778461 2.25684662,15.1117706 L2.25,15 C2.25,14.5857864 2.58578644,14.25 3,14.25 Z M3,10.25 C3.37969577,10.25 3.69349096,10.5321539 3.74315338,10.8982294 L3.75,11.01 C3.75,11.4242136 3.41421356,11.76 3,11.76 C2.62030423,11.76 2.30650904,11.4778461 2.25684662,11.1117706 L2.25,11 C2.25,10.5857864 2.58578644,10.25 3,10.25 Z M3,6.25 C3.37969577,6.25 3.69349096,6.53215388 3.74315338,6.89822944 L3.75,7.01 C3.75,7.42421356 3.41421356,7.76 3,7.76 C2.62030423,7.76 2.30650904,7.47784612 2.25684662,7.11177056 L2.25,7 C2.25,6.58578644 2.58578644,6.25 3,6.25 Z M3,2.25 C3.37969577,2.25 3.69349096,2.53215388 3.74315338,2.89822944 L3.75,3.01 C3.75,3.42421356 3.41421356,3.76 3,3.76 C2.62030423,3.76 2.30650904,3.47784612 2.25684662,3.11177056 L2.25,3 C2.25,2.58578644 2.58578644,2.25 3,2.25 Z M7,2.25 C7.37969577,2.25 7.69349096,2.53215388 7.74315338,2.89822944 L7.75,3.01 C7.75,3.42421356 7.41421356,3.76 7,3.76 C6.62030423,3.76 6.30650904,3.47784612 6.25684662,3.11177056 L6.25,3 C6.25,2.58578644 6.58578644,2.25 7,2.25 Z M11,2.25 C11.3796958,2.25 11.693491,2.53215388 11.7431534,2.89822944 L11.75,3.01 C11.75,3.42421356 11.4142136,3.76 11,3.76 C10.6203042,3.76 10.306509,3.47784612 10.2568466,3.11177056 L10.25,3 C10.25,2.58578644 10.5857864,2.25 11,2.25 Z M15,2.25 C15.3796958,2.25 15.693491,2.53215388 15.7431534,2.89822944 L15.75,3.01 C15.75,3.42421356 15.4142136,3.76 15,3.76 C14.6203042,3.76 14.306509,3.47784612 14.2568466,3.11177056 L14.25,3 C14.25,2.58578644 14.5857864,2.25 15,2.25 Z" id="Icon-Color" fill="#212121"></path>
    </g>
</svg>