<?xml version="1.0" encoding="UTF-8"?>
<svg width="24px" height="24px" viewBox="0 0 24 24" version="1.1" xmlns="http://www.w3.org/2000/svg" xmlns:xlink="http://www.w3.org/1999/xlink">
    <title>Icon/drone</title>
    <g id="Icon/drone" stroke="none" stroke-width="1" fill="none" fill-rule="evenodd">
        <path d="M18.0044011,13.2898857 L18.1061165,13.2975451 C20.2756922,13.6076351 21.8537045,15.5166614 21.7500318,17.7058317 C21.6463592,19.8950019 19.8950019,21.6463592 17.7058317,21.7500318 C15.5166614,21.8537045 13.6076351,20.2756922 13.2975451,18.1061165 C13.2389386,17.69607 13.523837,17.3161516 13.9338835,17.2575451 C14.34393,17.1989386 14.7238484,17.483837 14.7824549,17.8938835 C14.9831014,19.2977266 16.2183537,20.3187933 17.6348756,20.251711 C19.0513976,20.1846287 20.1846287,19.0513976 20.251711,17.6348756 C20.3187933,16.2183537 19.2977266,14.9831014 17.8938835,14.7824549 C17.483837,14.7238484 17.1989386,14.34393 17.2575451,13.9338835 C17.3112678,13.5580075 17.6349816,13.2872907 18.0044011,13.2898857 Z M6.7424549,13.9338835 C6.80106144,14.34393 6.51616305,14.7238484 6.10611653,14.7824549 C4.70227344,14.9831014 3.68120668,16.2183537 3.74828897,17.6348756 C3.81537127,19.0513976 4.94860243,20.1846287 6.36512436,20.251711 C7.78164629,20.3187933 9.01689863,19.2977266 9.2175451,17.8938835 C9.27615164,17.483837 9.65607001,17.1989386 10.0661165,17.2575451 C10.476163,17.3161516 10.7610614,17.69607 10.7024549,18.1061165 C10.3923649,20.2756922 8.48333856,21.8537045 6.2941683,21.7500318 C4.10499805,21.6463592 2.35364081,19.8950019 2.24996817,17.7058317 C2.14629552,15.5166614 3.7243078,13.6076351 5.89388347,13.2975451 C6.30392999,13.2389386 6.68384836,13.523837 6.7424549,13.9338835 Z M6.94621165,5.89705176 L7.03033009,5.96966991 L10.3101423,9.24914234 L13.6891423,9.24914234 L16.9696699,5.96966991 C17.2625631,5.6767767 17.7374369,5.6767767 18.0303301,5.96966991 C18.2965966,6.23593648 18.3208027,6.65260016 18.1029482,6.94621165 L18.0303301,7.03033009 L14.7491423,10.3111423 L14.7491423,13.6881423 L18.0303301,16.9696699 C18.3232233,17.2625631 18.3232233,17.7374369 18.0303301,18.0303301 C17.7640635,18.2965966 17.3473998,18.3208027 17.0537883,18.1029482 L16.9696699,18.0303301 L13.6881423,14.7491423 L10.3111423,14.7491423 L7.03033009,18.0303301 C6.73743687,18.3232233 6.26256313,18.3232233 5.96966991,18.0303301 C5.70340335,17.7640635 5.6791973,17.3473998 5.89705176,17.0537883 L5.96966991,16.9696699 L9.24914234,13.6891423 L9.24914234,10.3101423 L5.96966991,7.03033009 C5.6767767,6.73743687 5.6767767,6.26256313 5.96966991,5.96966991 C6.23593648,5.70340335 6.65260016,5.6791973 6.94621165,5.89705176 Z M13.25,10.75 L10.75,10.75 L10.75,13.25 L13.25,13.25 L13.25,10.75 Z M10.7024549,5.89388347 C10.7610614,6.30392999 10.476163,6.68384836 10.0661165,6.7424549 C9.65607001,6.80106144 9.27615164,6.51616305 9.2175451,6.10611653 C9.01689863,4.70227344 7.78164629,3.68120668 6.36512436,3.74828897 C4.94860243,3.81537127 3.81537127,4.94860243 3.74828897,6.36512436 C3.68120668,7.78164629 4.70227344,9.01689863 6.10611653,9.2175451 C6.51616305,9.27615164 6.80106144,9.65607001 6.7424549,10.0661165 C6.68384836,10.476163 6.30392999,10.7610614 5.89388347,10.7024549 C3.7243078,10.3923649 2.14629552,8.48333856 2.24996817,6.2941683 C2.35364081,4.10499805 4.10499805,2.35364081 6.2941683,2.24996817 C8.48333856,2.14629552 10.3923649,3.7243078 10.7024549,5.89388347 Z M17.4948953,2.24514854 L17.7058317,2.24996817 C19.8950019,2.35364081 21.6463592,4.10499805 21.7500318,6.2941683 C21.8537045,8.48333856 20.2756922,10.3923649 18.1061165,10.7024549 C17.69607,10.7610614 17.3161516,10.476163 17.2575451,10.0661165 C17.1989386,9.65607001 17.483837,9.27615164 17.8938835,9.2175451 C19.2977266,9.01689863 20.3187933,7.78164629 20.251711,6.36512436 C20.1846287,4.94860243 19.0513976,3.81537127 17.6348756,3.74828897 C16.2183537,3.68120668 14.9831014,4.70227344 14.7824549,6.10611653 C14.7238484,6.51616305 14.34393,6.80106144 13.9338835,6.7424549 C13.523837,6.68384836 13.2389386,6.30392999 13.2975451,5.89388347 C13.5976322,3.79429411 15.3951623,2.24871834 17.4948953,2.24514854 Z" id="Icon-Color" fill="#212121" fill-rule="nonzero"></path>
    </g>
</svg>