<?xml version="1.0" encoding="UTF-8"?>
<svg width="24px" height="24px" viewBox="0 0 24 24" version="1.1" xmlns="http://www.w3.org/2000/svg" xmlns:xlink="http://www.w3.org/1999/xlink">
    <title>Icon/ear</title>
    <g id="Icon/ear" stroke="none" stroke-width="1" fill="none" fill-rule="evenodd">
        <path d="M18.9932582,5.08086618 C21.0699075,7.61382257 21.3299515,11.1788109 19.5999986,14.0499989 C18.9888172,14.8649106 18.2649107,15.5888171 17.514235,16.1459487 C16.7110599,16.9024714 16.0911503,17.8323357 15.662906,18.9507887 C14.9298745,20.3360459 13.6162874,21.3213705 12.0812317,21.6374113 C10.5461768,21.9534521 8.9501975,21.5671564 7.72957435,20.584123 C7.40697211,20.3243141 7.35606806,19.8521766 7.61587698,19.5295743 C7.87568589,19.2069721 8.34782341,19.1560681 8.67042565,19.415877 C9.54229933,20.1180437 10.6822845,20.3939692 11.7787524,20.1682258 C12.8752204,19.9424824 13.8134963,19.2386795 14.2982617,18.3352994 C14.7682463,17.0893437 15.5164121,15.967095 16.5499986,14.9999994 C17.2512026,14.4740979 17.8740978,13.8512027 18.3571407,13.2136909 C19.7177023,10.9495797 19.5079894,8.07458952 17.8332723,6.03188287 C16.1585556,3.98917653 13.3804796,3.21986317 10.8935587,4.11011602 C8.40663818,5.00036876 6.74790612,7.35794354 6.74999557,9.99940617 C6.75032551,10.4136196 6.41480504,10.7496718 6.00059161,10.7499998 C5.58637818,10.7503277 5.25032598,10.4148073 5.24999557,10.0005938 C5.24740465,6.72518088 7.30423207,3.80178863 10.3880134,2.69787529 C13.4717952,1.59396176 16.9166095,2.54791032 18.9932582,5.08086618 Z M16.3075883,8.19750561 C17.121982,9.72237018 16.7884497,11.60637 15.5000536,12.758969 C15.1913436,13.035141 14.717203,13.0087637 14.441031,12.7000536 C14.164859,12.3913436 14.1912363,11.917203 14.4999464,11.641031 C15.272984,10.9494716 15.4731034,9.81907168 14.9844672,8.90415293 C14.495831,7.98923419 13.4450702,7.52689944 12.4404081,7.78476692 C11.4915605,8.02830843 10.8160665,8.85464467 10.7543895,9.81942831 L10.7499464,9.99103098 C10.7548998,10.4052149 10.423153,10.7449929 10.008969,10.7499464 C9.59478508,10.7548998 9.25500708,10.423153 9.25005363,10.008969 C9.22938048,8.28037954 10.3930529,6.76164139 12.0674898,6.33186226 C13.7419267,5.90208312 15.4931947,6.67264104 16.3075883,8.19750561 Z" id="Icon-Color" fill="#212121"></path>
    </g>
</svg>