<?xml version="1.0" encoding="UTF-8"?>
<svg width="24px" height="24px" viewBox="0 0 24 24" version="1.1" xmlns="http://www.w3.org/2000/svg" xmlns:xlink="http://www.w3.org/1999/xlink">
    <title>Icon/equal</title>
    <g id="Icon/equal" stroke="none" stroke-width="1" fill="none" fill-rule="evenodd">
        <path d="M19,14.25 C19.4142136,14.25 19.75,14.5857864 19.75,15 C19.75,15.3796958 19.4678461,15.693491 19.1017706,15.7431534 L19,15.75 L5,15.75 C4.58578644,15.75 4.25,15.4142136 4.25,15 C4.25,14.6203042 4.53215388,14.306509 4.89822944,14.2568466 L5,14.25 L19,14.25 Z M19,8.25 C19.4142136,8.25 19.75,8.58578644 19.75,9 C19.75,9.37969577 19.4678461,9.69349096 19.1017706,9.74315338 L19,9.75 L5,9.75 C4.58578644,9.75 4.25,9.41421356 4.25,9 C4.25,8.62030423 4.53215388,8.30650904 4.89822944,8.25684662 L5,8.25 L19,8.25 Z" id="Icon-Color" fill="#212121"></path>
    </g>
</svg>