<?xml version="1.0" encoding="UTF-8"?>
<svg width="24px" height="24px" viewBox="0 0 24 24" version="1.1" xmlns="http://www.w3.org/2000/svg" xmlns:xlink="http://www.w3.org/1999/xlink">
    <title>Icon/equal-not</title>
    <g id="Icon/equal-not" stroke="none" stroke-width="1" fill="none" fill-rule="evenodd">
        <path d="M19.5303301,4.46966991 C19.7965966,4.73593648 19.8208027,5.15260016 19.6029482,5.44621165 L19.5303301,5.53033009 L16.81,8.25 L19,8.25 C19.4142136,8.25 19.75,8.58578644 19.75,9 C19.75,9.37969577 19.4678461,9.69349096 19.1017706,9.74315338 L19,9.75 L15.31,9.75 L10.81,14.25 L19,14.25 C19.4142136,14.25 19.75,14.5857864 19.75,15 C19.75,15.3796958 19.4678461,15.693491 19.1017706,15.7431534 L19,15.75 L9.31,15.75 L5.53033009,19.5303301 C5.23743687,19.8232233 4.76256313,19.8232233 4.46966991,19.5303301 C4.20340335,19.2640635 4.1791973,18.8473998 4.39705176,18.5537883 L4.46966991,18.4696699 L7.188,15.75 L5,15.75 C4.58578644,15.75 4.25,15.4142136 4.25,15 C4.25,14.6203042 4.53215388,14.306509 4.89822944,14.2568466 L5,14.25 L8.688,14.25 L13.188,9.75 L5,9.75 C4.58578644,9.75 4.25,9.41421356 4.25,9 C4.25,8.62030423 4.53215388,8.30650904 4.89822944,8.25684662 L5,8.25 L14.688,8.25 L18.4696699,4.46966991 C18.7625631,4.1767767 19.2374369,4.1767767 19.5303301,4.46966991 Z" id="Shape" fill="#212121"></path>
    </g>
</svg>