<?xml version="1.0" encoding="UTF-8"?>
<svg width="24px" height="24px" viewBox="0 0 24 24" version="1.1" xmlns="http://www.w3.org/2000/svg" xmlns:xlink="http://www.w3.org/1999/xlink">
    <title>Icon/exchange</title>
    <g id="Icon/exchange" stroke="none" stroke-width="1" fill="none" fill-rule="evenodd">
        <path d="M19,3.25 C20.5187831,3.25 21.75,4.48121694 21.75,6 C21.75,7.2589387 20.9040353,8.32029174 19.7495555,8.64660943 L19.75,13 C19.75,16.1017853 17.2939828,18.629937 14.2205557,18.7458479 L14,18.75 L12.811,18.75 L14.5303301,20.4696699 C14.8232233,20.7625631 14.8232233,21.2374369 14.5303301,21.5303301 C14.2640635,21.7965966 13.8473998,21.8208027 13.5537883,21.6029482 L13.4696699,21.5303301 L10.4921196,18.5541951 C10.4361021,18.5021576 10.3886745,18.4419373 10.3509735,18.3762783 L10.3162432,18.3082524 L10.2925559,18.2495668 C10.212641,18.0238054 10.2369918,17.7606545 10.401707,17.5468915 L10.4696699,17.4696699 L13.4696699,14.4696699 C13.7625631,14.1767767 14.2374369,14.1767767 14.5303301,14.4696699 C14.7965966,14.7359365 14.8208027,15.1526002 14.6029482,15.4462117 L14.5303301,15.5303301 L12.81,17.25 L14,17.25 C16.2781746,17.25 18.1376867,15.457493 18.2450991,13.2059163 L18.25,13 L18.2494462,8.64632705 C17.0954771,8.31967982 16.25,7.25857578 16.25,6 C16.25,4.48121694 17.4812169,3.25 19,3.25 Z M10.3441588,2.33339881 L10.4462117,2.39705176 L10.5303301,2.46966991 L13.5303301,5.46966991 C13.7553464,5.69468625 13.7973002,5.99577262 13.7073443,6.24943487 L13.6490613,6.37616127 C13.6236177,6.42051065 13.5937676,6.46233549 13.5598491,6.50082919 L10.5303301,9.53033009 C10.2374369,9.8232233 9.76256313,9.8232233 9.46966991,9.53033009 C9.20340335,9.26406352 9.1791973,8.84739984 9.39705176,8.55378835 L9.46966991,8.46966991 L11.188,6.75 L10,6.75 C7.72182541,6.75 5.86231326,8.54250701 5.75490093,10.7940837 L5.75,11 L5.75055384,15.353673 C6.90452293,15.6803202 7.75,16.7414242 7.75,18 C7.75,19.5187831 6.51878306,20.75 5,20.75 C3.48121694,20.75 2.25,19.5187831 2.25,18 C2.25,16.7410613 3.09596473,15.6797083 4.25044448,15.3533906 L4.25,11 C4.25,7.89821472 6.70601719,5.37006299 9.77944429,5.25415208 L10,5.25 L11.189,5.25 L9.46966991,3.53033009 C9.20340335,3.26406352 9.1791973,2.84739984 9.39705176,2.55378835 L9.46966991,2.46966991 C9.7063513,2.23298853 10.061865,2.18756482 10.3441588,2.33339881 Z M5,16.75 C4.30964406,16.75 3.75,17.3096441 3.75,18 C3.75,18.6903559 4.30964406,19.25 5,19.25 C5.69035594,19.25 6.25,18.6903559 6.25,18 C6.25,17.3096441 5.69035594,16.75 5,16.75 Z M19,4.75 C18.3096441,4.75 17.75,5.30964406 17.75,6 C17.75,6.69035594 18.3096441,7.25 19,7.25 C19.6903559,7.25 20.25,6.69035594 20.25,6 C20.25,5.30964406 19.6903559,4.75 19,4.75 Z" id="Icon-Color" fill="#212121"></path>
    </g>
</svg>