<?xml version="1.0" encoding="UTF-8"?>
<svg width="24px" height="24px" viewBox="0 0 24 24" version="1.1" xmlns="http://www.w3.org/2000/svg" xmlns:xlink="http://www.w3.org/1999/xlink">
    <title>Icon/eyeglass</title>
    <g id="Icon/eyeglass" stroke="none" stroke-width="1" fill="none" fill-rule="evenodd">
        <path d="M6.5,20.75 C4.22182543,20.75 2.36231326,18.957493 2.25490093,16.7059163 L2.25,16.5 L2.25,14 C2.25,13.9630166 2.25267687,13.9266585 2.25784742,13.8911088 C2.2581211,13.8892425 2.25852552,13.8865888 2.2589446,13.883935 L2.26606343,13.8448671 C2.27001762,13.826066 2.27467601,13.8075241 2.28000971,13.7892704 L2.28163029,13.7844891 L5.28163029,3.78448909 C5.36622708,3.50249978 5.60633657,3.29951243 5.89126651,3.25788548 L6,3.25 L8,3.25 C8.41421356,3.25 8.75,3.58578644 8.75,4 C8.75,4.37969577 8.46784612,4.69349096 8.10177056,4.74315338 L8,4.75 L6.558,4.75 L4.008,13.25 L10,13.25 C10.3796958,13.25 10.693491,13.5321539 10.7431534,13.8982294 L10.75,14 L10.75,15.25 L13.25,15.25 L13.25,14 C13.25,13.6203042 13.5321539,13.306509 13.8982294,13.2568466 L14,13.25 L19.991,13.25 L17.441,4.75 L16,4.75 C15.6203042,4.75 15.306509,4.46784612 15.2568466,4.10177056 L15.25,4 C15.25,3.62030423 15.5321539,3.30650904 15.8982294,3.25684662 L16,3.25 L18,3.25 C18.2944055,3.25 18.5578271,3.4216552 18.6795725,3.68260717 L18.7183697,3.78448909 L21.7183697,13.7844891 C21.725324,13.8075241 21.7299824,13.826066 21.7339366,13.8448671 L21.7183697,13.7844891 C21.729181,13.8205267 21.7371527,13.8567407 21.7424142,13.8928907 C21.7425924,13.894157 21.742877,13.8961919 21.7431534,13.8982294 L21.7467452,13.9286796 C21.7485038,13.946886 21.7495833,13.9650559 21.7500002,13.9831585 L21.75,16.5 C21.75,18.8472102 19.8472102,20.75 17.5,20.75 C15.2370538,20.75 13.3871918,18.9813769 13.2572894,16.7510063 L10.7427106,16.7510063 C10.6128082,18.9813769 8.76294613,20.75 6.5,20.75 Z M20.25,14.75 L14.75,14.75 L14.75,16.5 C14.75,17.9625318 15.8917046,19.1584043 17.3324777,19.2449812 L17.5,19.25 C18.9625318,19.25 20.1584043,18.1082954 20.2449812,16.6675223 L20.25,16.5 L20.25,14.75 Z M9.25,14.75 L3.75,14.75 L3.75,16.5 C3.75,17.9625318 4.89170462,19.1584043 6.33247767,19.2449812 L6.5,19.25 C7.96253181,19.25 9.15840428,18.1082954 9.24498121,16.6675223 L9.25,16.5 L9.25,14.75 Z" id="Icon-Color" fill="#212121"></path>
    </g>
</svg>