<?xml version="1.0" encoding="UTF-8"?>
<svg width="24px" height="24px" viewBox="0 0 24 24" version="1.1" xmlns="http://www.w3.org/2000/svg" xmlns:xlink="http://www.w3.org/1999/xlink">
    <title>Icon/facebook</title>
    <g id="Icon/facebook" stroke="none" stroke-width="1" fill="none" fill-rule="evenodd">
        <path d="M18,2.25 C18.3796958,2.25 18.693491,2.53215388 18.7431534,2.89822944 L18.75,3 L18.75,7 C18.75,7.37969577 18.4678461,7.69349096 18.1017706,7.74315338 L18,7.75 L15,7.75 C14.8816533,7.75 14.7825132,7.83223341 14.7566027,7.94267729 L14.75,8 L14.75,9.25 L18,9.25 C18.4553998,9.25 18.7976337,9.64944075 18.7450261,10.0875588 L18.7276069,10.1819017 L17.7276069,14.1819017 C17.6534124,14.4786797 17.4081415,14.6967202 17.1128448,14.7415097 L17,14.75 L14.75,14.75 L14.75,21 C14.75,21.3796958 14.4678461,21.693491 14.1017706,21.7431534 L14,21.75 L10,21.75 C9.62030423,21.75 9.30650904,21.4678461 9.25684662,21.1017706 L9.25,21 L9.25,14.75 L7,14.75 C6.62030423,14.75 6.30650904,14.4678461 6.25684662,14.1017706 L6.25,14 L6.25,10 C6.25,9.62030423 6.53215388,9.30650904 6.89822944,9.25684662 L7,9.25 L9.25,9.25 L9.25,8 C9.25,4.89821472 11.7060172,2.37006299 14.7794443,2.25415208 L15,2.25 L18,2.25 Z M17.25,3.75 L15,3.75 C12.7218254,3.75 10.8623133,5.54250701 10.7549009,7.79408366 L10.75,8 L10.75,10 C10.75,10.3796958 10.4678461,10.693491 10.1017706,10.7431534 L10,10.75 L7.75,10.75 L7.75,13.25 L10,13.25 C10.3796958,13.25 10.693491,13.5321539 10.7431534,13.8982294 L10.75,14 L10.75,20.25 L13.25,20.25 L13.25,14 C13.25,13.6203042 13.5321539,13.306509 13.8982294,13.2568466 L14,13.25 L16.414,13.25 L17.039,10.75 L14,10.75 C13.6203042,10.75 13.306509,10.4678461 13.2568466,10.1017706 L13.25,10 L13.25,8 C13.25,7.0818266 13.9571103,6.32880766 14.8564728,6.2558012 L15,6.25 L17.25,6.25 L17.25,3.75 Z" id="Icon-Color" fill="#212121"></path>
    </g>
</svg>