<?xml version="1.0" encoding="UTF-8"?>
<svg width="24px" height="24px" viewBox="0 0 24 24" version="1.1" xmlns="http://www.w3.org/2000/svg" xmlns:xlink="http://www.w3.org/1999/xlink">
    <title>Icon/fall</title>
    <g id="Icon/fall" stroke="none" stroke-width="1" fill="none" fill-rule="evenodd">
        <path d="M15.5303301,4.46966991 C15.7965966,4.73593648 15.8208027,5.15260016 15.6029482,5.44621165 L15.5303301,5.53033009 L12.5303301,8.53033009 C12.4178083,8.64285191 12.273214,8.71592756 12.1180341,8.74065695 L12,8.75 L9.5,8.75 L11.6,11.55 C11.6399846,11.6033128 11.6725954,11.6615958 11.6970766,11.7232614 L11.7276069,11.8180983 L12.7276069,15.8180983 C12.7455621,15.889919 12.7527355,15.9638004 12.7490701,16.0373383 L12.7354355,16.1470871 L11.7354355,21.1470871 C11.6542015,21.5532569 11.2590827,21.8166695 10.8529129,21.7354355 C10.4805906,21.660971 10.228224,21.3227561 10.2513193,20.9540499 L10.2645645,20.8529129 L11.231,16.017 L10.309,12.329 L7.99999418,9.25 L5.814,12.165 L6.72760688,15.8180983 C6.81969662,16.1864573 6.62207367,16.5593157 6.27897311,16.6962817 L6.18190172,16.7276069 C5.81354272,16.8196966 5.4406843,16.6220737 5.3037183,16.2789731 L5.27239312,16.1819017 L4.27239312,12.1819017 C4.22674662,11.9993157 4.25169083,11.8076893 4.33969242,11.6443272 L4.4,11.55 L7.4,7.55 C7.46636089,7.46172036 7.546591,7.3910788 7.64073539,7.3398043 C7.64464861,7.33931108 7.64798137,7.3375322 7.65132558,7.33577965 L7.64073539,7.3398043 C7.6709259,7.32336143 7.70254733,7.30891023 7.73548689,7.29667624 C7.7405427,7.29620058 7.74453954,7.29474425 7.74854714,7.29332242 C7.77354776,7.28317505 7.80038045,7.27539684 7.82795837,7.26910218 C7.84021035,7.26710436 7.85224931,7.26458788 7.86434035,7.26236727 C7.87389985,7.26005116 7.88379836,7.25849961 7.89378191,7.25713769 L7.91359074,7.25499269 C7.937568,7.25220771 7.96168451,7.25057251 7.98585069,7.25009987 L8,7.25 L11.688,7.25 L14.4696699,4.46966991 C14.7625631,4.1767767 15.2374369,4.1767767 15.5303301,4.46966991 Z M16,11.25 C16.0776225,11.25 16.1545344,11.2620484 16.228041,11.285509 L16.3354102,11.3291796 L20.3354102,13.3291796 C20.7058941,13.5144215 20.8560623,13.9649263 20.6708204,14.3354102 C20.5010153,14.6750204 20.1083157,14.8295043 19.7586781,14.7102098 L19.6645898,14.6708204 L15.824,12.75 L13.5,12.75 C13.1203042,12.75 12.806509,12.4678461 12.7568466,12.1017706 L12.75,12 C12.75,11.6203042 13.0321539,11.306509 13.3982294,11.2568466 L13.5,11.25 L16,11.25 Z M6,3.25 C6.96649831,3.25 7.75,4.03350169 7.75,5 C7.75,5.96649831 6.96649831,6.75 6,6.75 C5.03350169,6.75 4.25,5.96649831 4.25,5 C4.25,4.03350169 5.03350169,3.25 6,3.25 Z M6,4.75 C5.86192881,4.75 5.75,4.86192881 5.75,5 C5.75,5.13807119 5.86192881,5.25 6,5.25 C6.13807119,5.25 6.25,5.13807119 6.25,5 C6.25,4.86192881 6.13807119,4.75 6,4.75 Z" id="Icon-Color" fill="#212121"></path>
    </g>
</svg>