<?xml version="1.0" encoding="UTF-8"?>
<svg width="24px" height="24px" viewBox="0 0 24 24" version="1.1" xmlns="http://www.w3.org/2000/svg" xmlns:xlink="http://www.w3.org/1999/xlink">
    <title>Icon/feather</title>
    <g id="Icon/feather" stroke="none" stroke-width="1" fill="none" fill-rule="evenodd">
        <path d="M13.4709254,4.46841686 C14.2571302,3.68592123 15.3285981,3.24999886 16.4825737,3.24999886 C17.6139322,3.24935647 18.699191,3.6982527 19.4995235,4.49790249 C20.2998562,5.29755249 20.7496783,6.38242809 20.75,7.514 C20.75,8.67333298 20.3163239,9.74574402 19.5314434,10.5292197 L11.5303301,18.5303301 C11.5057302,18.5549299 11.4794294,18.5778288 11.4516193,18.5988352 L11.5303301,18.5303301 C11.4958891,18.5647711 11.4589318,18.5951622 11.42005,18.6215034 C11.4036581,18.6325387 11.3865081,18.643187 11.3689158,18.653145 C11.3546244,18.6612981 11.3399909,18.6689416 11.3251715,18.6760696 C11.3075139,18.684555 11.2890942,18.6925505 11.2703089,18.6998114 C11.2594565,18.7039715 11.2490913,18.707697 11.2386647,18.7111871 C11.2172835,18.7184207 11.1948272,18.7248291 11.1719681,18.730192 C11.1597261,18.7329853 11.1480328,18.7354242 11.136298,18.7375819 C11.1254532,18.7396501 11.1136561,18.741541 11.1017706,18.7431534 L11.0733936,18.7464221 C11.0587591,18.7478527 11.0440905,18.7488542 11.0294084,18.7494268 L11,18.75 L6.31,18.75 L4.53033009,20.5303301 C4.23743687,20.8232233 3.76256313,20.8232233 3.46966991,20.5303301 C3.20340335,20.2640635 3.1791973,19.8473998 3.39705176,19.5537883 L3.46966991,19.4696699 L5.25,17.688 L5.25,13 L5.25317463,12.9305305 L5.26973472,12.828633 L5.28898031,12.7607164 L5.31160159,12.7018614 L5.34686081,12.6309547 L5.39705176,12.5537883 C5.42217116,12.5205706 5.44507007,12.4942698 5.46966991,12.4696699 L13.4709254,4.46841686 L13.4709254,4.46841686 Z M10.688,17.2499982 L13.188,14.7499982 L10.31,14.75 L7.81,17.25 L10.688,17.2499982 Z M9.25,10.81 L6.75,13.31 L6.75,16.188 L9.25,13.688 L9.25,10.81 Z M14.688,13.2499982 L17.188,10.7499982 L14.31,10.75 L11.81,13.25 L14.688,13.2499982 Z M13.25,6.81 L10.75,9.31 L10.75,12.188 L13.25,9.688 L13.25,6.81 Z M16.483,4.74999886 C15.8282355,4.74999886 15.2255528,4.95815063 14.7495318,5.33558387 L14.75,9.25 L18.6650873,9.25144458 C19.0426454,8.77800858 19.25,8.17447561 19.25,7.51421325 C19.2497915,6.7807533 18.9581718,6.07742832 18.439316,5.55901513 C17.9204603,5.04060199 17.2168866,4.7495824 16.483,4.74999886 Z" id="Icon-Color" fill="#212121"></path>
    </g>
</svg>