<?xml version="1.0" encoding="UTF-8"?>
<svg width="24px" height="24px" viewBox="0 0 24 24" version="1.1" xmlns="http://www.w3.org/2000/svg" xmlns:xlink="http://www.w3.org/1999/xlink">
    <title>Icon/file-download</title>
    <g id="Icon/file-download" stroke="none" stroke-width="1" fill="none" fill-rule="evenodd">
        <path d="M14,2.25 C14.0390967,2.25 14.0774947,2.25299154 14.1149775,2.2587582 C14.1201729,2.25966144 14.1262433,2.26067244 14.1322964,2.26175721 C14.1627176,2.26708067 14.1916945,2.27411383 14.219961,2.28277213 C14.2301883,2.28610722 14.2409404,2.28966439 14.2516036,2.29346186 C14.2759859,2.30195558 14.2990538,2.31154247 14.3215074,2.32221224 C14.3332411,2.32795576 14.3456145,2.33423379 14.3578125,2.34085495 C14.3770988,2.35119841 14.39548,2.36226424 14.4133267,2.37407291 C14.4550319,2.40169523 14.4943231,2.43366293 14.5303301,2.46966991 L14.4506597,2.40044115 C14.4532201,2.40236877 14.4557678,2.40431241 14.4583026,2.40627192 L14.5303301,2.46966991 L19.5303301,7.46966991 C19.5552127,7.49455252 19.578355,7.5211754 19.5995589,7.54934032 C19.608648,7.56149229 19.617497,7.57404542 19.6259415,7.58683944 C19.6377358,7.60452002 19.6488016,7.6229012 19.6590805,7.64177281 C19.6657662,7.6543855 19.6720442,7.66675889 19.6779729,7.67929261 C19.6881556,7.70031071 19.6975009,7.72270882 19.7057618,7.74562497 C19.7098803,7.75768657 19.7136812,7.76911984 19.7172063,7.78064437 C19.7346723,7.83698936 19.7455198,7.89682316 19.7488794,7.95864926 L19.75,8 L19.75,19 C19.75,20.5187831 18.5187831,21.75 17,21.75 L17,21.75 L7,21.75 C5.48121694,21.75 4.25,20.5187831 4.25,19 L4.25,19 L4.25,5 C4.25,3.48121694 5.48121694,2.25 7,2.25 L7,2.25 L14,2.25 L14,2.25 Z M13.25,3.75 L7,3.75 C6.30964406,3.75 5.75,4.30964406 5.75,5 L5.75,5 L5.75,19 C5.75,19.6903559 6.30964406,20.25 7,20.25 L7,20.25 L17,20.25 C17.6903559,20.25 18.25,19.6903559 18.25,19 L18.25,19 L18.25,8.75 L15,8.75 C14.0818266,8.75 13.3288077,8.04288973 13.2558012,7.14352721 L13.25,7 L13.25,3.75 Z M12,10.25 C12.3796958,10.25 12.693491,10.5321539 12.7431534,10.8982294 L12.75,11 L12.75,15.189 L14.4696699,13.4696699 C14.7359365,13.2034034 15.1526002,13.1791973 15.4462117,13.3970518 L15.5303301,13.4696699 C15.7965966,13.7359365 15.8208027,14.1526002 15.6029482,14.4462117 L15.5303301,14.5303301 L12.5303301,17.5303301 C12.504882,17.5557782 12.4776136,17.5794061 12.448737,17.6010016 L12.5303301,17.5303301 C12.4932768,17.5673834 12.4533111,17.5997491 12.4111698,17.6274273 C12.3910149,17.6405922 12.3700275,17.6529723 12.3484182,17.664329 C12.3392964,17.6691626 12.3305656,17.6735192 12.3217704,17.6776949 C12.2949819,17.690442 12.2665221,17.7019466 12.2372605,17.7116971 C12.2303168,17.7139554 12.2242456,17.7158799 12.2181555,17.7177252 C12.1496769,17.7386468 12.0761643,17.75 12,17.75 C11.9616078,17.75 11.9238893,17.7471153 11.8870495,17.7415508 C11.8754819,17.7397462 11.8637722,17.7376905 11.8521073,17.7353557 C11.8271042,17.730412 11.8028079,17.7242388 11.7790163,17.7169138 C11.7673565,17.7132873 11.7553071,17.7092554 11.743346,17.7049093 C11.7200484,17.696425 11.6979798,17.6871231 11.6764782,17.6768269 C11.6648771,17.6713347 11.6525401,17.6650317 11.640349,17.658365 C11.6142131,17.6439668 11.5895138,17.6284682 11.5658344,17.611629 C11.5621288,17.6090699 11.5579462,17.6060333 11.5537883,17.6029482 C11.5205706,17.5778288 11.4942698,17.5549299 11.4696699,17.5303301 L8.46966991,14.5303301 C8.1767767,14.2374369 8.1767767,13.7625631 8.46966991,13.4696699 C8.73593648,13.2034034 9.15260016,13.1791973 9.44621165,13.3970518 L9.53033009,13.4696699 L11.25,15.189 L11.25,11 C11.25,10.5857864 11.5857864,10.25 12,10.25 Z M14.75,4.811 L14.75,7 C14.75,7.11834673 14.8322334,7.21748682 14.9426773,7.24339732 L15,7.25 L17.189,7.25 L14.75,4.811 Z" id="Icon-Color" fill="#212121"></path>
    </g>
</svg>