<?xml version="1.0" encoding="UTF-8"?>
<svg width="24px" height="24px" viewBox="0 0 24 24" version="1.1" xmlns="http://www.w3.org/2000/svg" xmlns:xlink="http://www.w3.org/1999/xlink">
    <title>Icon/fingerprint</title>
    <g id="Icon/fingerprint" stroke="none" stroke-width="1" fill="none" fill-rule="evenodd">
        <path d="M11.9999913,10.25 C12.379687,10.25 12.6934822,10.5321539 12.7431447,10.8982294 L12.7499913,11 L12.7499913,13.0008349 C12.7469782,15.7070519 13.572682,18.349304 15.1160633,20.5722673 C15.3522935,20.9125145 15.2679711,21.3798418 14.927724,21.616072 C14.5874768,21.8523023 14.1201495,21.7679799 13.8839192,21.4277327 C12.2439124,19.0655977 11.3318505,16.2781762 11.2552406,13.4102188 L11.2499913,13 L11.2499913,11 C11.2499913,10.5857864 11.5857777,10.25 11.9999913,10.25 Z M8.7449108,14.9127768 C8.97941798,16.9155334 9.56325717,18.861664 10.4699108,20.6627768 C10.6561541,21.0327583 10.5072048,21.4836676 10.1372232,21.6699108 C9.76724172,21.8561541 9.31633245,21.7072048 9.1300892,21.3372232 C8.14459611,19.379492 7.5099883,17.2641326 7.2550892,15.0872232 C7.20691713,14.6758204 7.50137388,14.3032613 7.91277676,14.2550892 C8.32417964,14.2069171 8.69673874,14.5013739 8.7449108,14.9127768 Z M16.3750028,3.40048256 C16.7337214,3.60759088 16.8566258,4.06628421 16.6495174,4.42500279 C16.4424091,4.78372137 15.9837158,4.90662576 15.6249972,4.69951744 C13.3787816,3.40265141 10.6108807,3.40452934 8.36642691,4.70444214 C6.20213221,5.95792949 4.84253211,8.23423364 4.75452227,10.7226747 L4.75,11 L4.74958604,12.0249152 C4.6736063,14.3107996 4.96715545,16.5939596 5.61890422,18.7862789 C5.73693914,19.1833187 5.51076097,19.6008693 5.11372113,19.7189042 C4.71668129,19.8369391 4.2991307,19.610761 4.18109578,19.2137211 C3.53701464,17.0471939 3.21968936,14.7978001 3.23833411,12.5593345 L3.25,12 L3.25000279,11.0020451 C3.24146715,7.87171368 4.90583581,4.97528644 7.61465932,3.40642616 C10.3234828,1.83756588 13.6640529,1.83529941 16.3750028,3.40048256 Z M12,6.25 C14.5504817,6.25 16.6314697,8.26014129 16.7451121,10.782572 L16.75,11 L16.75,12 C16.75,14.0014245 17.3991453,15.9488604 18.6,17.55 C18.8485281,17.8813708 18.7813708,18.3514719 18.45,18.6 C18.1186292,18.8485281 17.6485281,18.7813708 17.4,18.45 C16.0778641,16.6871522 15.3311879,14.5631004 15.2562528,12.366689 L15.25,12 L15.25,11 C15.25,9.20507456 13.7949254,7.75 12,7.75 C10.2050746,7.75 8.75,9.20507456 8.75,11 C8.75,11.4142136 8.41421356,11.75 8,11.75 C7.58578644,11.75 7.25,11.4142136 7.25,11 C7.25,8.37664744 9.37664744,6.25 12,6.25 Z M19.5424117,6.61295067 C20.4698298,8.1522486 20.8993027,9.93713317 20.7809827,11.6569881 L20.75,12 L20.7499995,13.0008335 C20.7489758,13.9220952 20.9903922,14.8274067 21.4499995,15.6258335 C21.656646,15.9848183 21.5331514,16.4433531 21.1741665,16.6499995 C20.8151817,16.856646 20.3566469,16.7331514 20.1500005,16.3741665 C19.6127971,15.4409405 19.3074376,14.3941414 19.257346,13.3222363 L19.25,13 L19.2544633,11.9182993 C19.4274822,10.3394636 19.0772492,8.7474955 18.2575883,7.38704933 C18.0438268,7.03225513 18.1581565,6.57134972 18.5129507,6.35758828 C18.8677449,6.14382684 19.3286503,6.25815648 19.5424117,6.61295067 Z" id="Icon-Color" fill="#212121"></path>
    </g>
</svg>