<?xml version="1.0" encoding="UTF-8"?>
<svg width="24px" height="24px" viewBox="0 0 24 24" version="1.1" xmlns="http://www.w3.org/2000/svg" xmlns:xlink="http://www.w3.org/1999/xlink">
    <title>Icon/firetruck</title>
    <g id="Icon/firetruck" stroke="none" stroke-width="1" fill="none" fill-rule="evenodd">
        <path d="M21.7115125,2.76282918 C21.8315828,3.12304021 21.6631389,3.50995736 21.3315538,3.67283453 L21.2371708,3.71151247 L13.6197965,6.24979652 L16,6.25 C19.1017853,6.25 21.629937,8.70601719 21.7458479,11.7794443 L21.75,12 L21.75,18 C21.75,18.3796958 21.4678461,18.693491 21.1017706,18.7431534 L21,18.75 L19.1205017,18.7511101 C18.6160982,19.3612233 17.853451,19.75 17,19.75 C16.146549,19.75 15.3839018,19.3612233 14.8794983,18.7511101 L7.12050165,18.7511101 C6.61609825,19.3612233 5.85345096,19.75 5,19.75 C3.48121694,19.75 2.25,18.5187831 2.25,17 L2.25,17 L2.25,12 C2.25,11.6203042 2.53215388,11.306509 2.89822944,11.2568466 L3,11.25 L5.24979652,11.2497965 L5.24979652,9.03979652 L3.23717082,9.71151247 C2.84421334,9.8424983 2.41947336,9.63012831 2.28848753,9.23717082 C2.16841718,8.87695979 2.3368611,8.49004264 2.66844624,8.32716547 L2.76282918,8.28848753 L20.7628292,2.28848753 C21.1557867,2.1575017 21.5805266,2.36987169 21.7115125,2.76282918 Z M5,15.75 C4.30964406,15.75 3.75,16.3096441 3.75,17 C3.75,17.6903559 4.30964406,18.25 5,18.25 C5.69035594,18.25 6.25,17.6903559 6.25,17 C6.25,16.3096441 5.69035594,15.75 5,15.75 Z M17,15.75 C16.3096441,15.75 15.75,16.3096441 15.75,17 C15.75,17.6903559 16.3096441,18.25 17,18.25 C17.6903559,18.25 18.25,17.6903559 18.25,17 C18.25,16.3096441 17.6903559,15.75 17,15.75 Z M11.2497965,12.7497965 L3.75,12.75 L3.75025471,14.5497246 C4.12522627,14.3580904 4.5499902,14.25 5,14.25 C6.51878306,14.25 7.75,15.4812169 7.75,17 C7.75,17.0845473 7.74618458,17.1682035 7.73871652,17.2508057 L11.2497965,17.2497965 L11.2497965,12.7497965 Z M14.4407965,7.74979652 L12.75,7.75 L12.7497965,17.2497965 L14.2612835,17.2508057 C14.2587841,17.2231606 14.2566938,17.1953974 14.2550188,17.1675223 L14.25,17 C14.25,15.4812169 15.4812169,14.25 17,14.25 C18.5187831,14.25 19.75,15.4812169 19.75,17 C19.75,17.0845473 19.7461846,17.1682035 19.7387165,17.2508057 L20.25,17.25 L20.25,12.75 L16.5,12.75 C16.2055945,12.75 15.9421729,12.5783448 15.8204275,12.3173928 L15.7816303,12.2155109 L14.4407965,7.74979652 Z M11.2497965,7.03979652 L6.74979652,8.53979652 L6.74979652,11.2497965 L11.2497965,11.2497965 L11.2497965,7.03979652 Z M16.008,7.75 L17.058,11.25 L20.183,11.25 L20.1733661,11.192401 C19.808708,9.2967771 18.1845746,7.84929358 16.2059163,7.75490093 L16.008,7.75 Z" id="Icon-Color" fill="#212121"></path>
    </g>
</svg>