<?xml version="1.0" encoding="UTF-8"?>
<svg width="24px" height="24px" viewBox="0 0 24 24" version="1.1" xmlns="http://www.w3.org/2000/svg" xmlns:xlink="http://www.w3.org/1999/xlink">
    <title>Icon/brand/firefox</title>
    <g id="Icon/brand/firefox" stroke="none" stroke-width="1" fill="none" fill-rule="evenodd">
        <path d="M10.8308495,2.18467267 C11.0771994,2.25351348 11.2544578,2.43348257 11.3334906,2.64971415 L12.3054416,2.65055075 L12.8533846,2.65562441 L13.3292954,2.66747787 L13.7474395,2.68789146 C14.3384632,2.72582211 14.78267,2.79865182 15.2967166,2.93341936 C15.9607994,3.10752187 16.5906718,3.37731204 17.2283536,3.7715725 C17.2714923,3.79288585 17.31186,3.81932889 17.3496913,3.84984388 L17.2553732,3.78834951 C21.6982879,6.63263676 23.0731293,12.4948161 20.3580527,17.0178482 C17.642976,21.5408804 11.8228493,23.0840786 7.22345639,20.5004675 C2.68664027,17.9520077 0.960863109,12.3001209 3.26609694,7.66297478 C2.97421412,5.80449981 3.51744387,3.62497519 4.53255885,2.74757822 C4.99325868,2.34938033 5.71138915,2.63719009 5.76956897,3.24334271 C5.80246755,3.58609998 5.8954181,3.76591254 6.17785914,4.03486835 L6.323,4.166 L6.33943046,4.16251242 C6.88034588,4.0276377 7.30491103,4.00277121 7.71773092,4.09783241 L7.772,4.112 L8.17693142,3.61849645 L8.48028864,3.26399429 C9.35617714,2.27349157 9.94594524,1.93739214 10.8308495,2.18467267 Z M9.431,4.459 L8.73721765,5.29852239 L8.55816606,5.50206173 C8.33107579,5.75407654 7.96309572,5.8222802 7.66077256,5.66839007 C7.31151437,5.49060883 7.07621836,5.49132495 6.35770624,5.71585998 C6.10392983,5.79516511 5.82713404,5.73418326 5.63017923,5.55557594 L5.29595828,5.26115098 C5.19088072,5.16768061 5.09469846,5.07611082 5.00700028,4.9846023 L4.941,4.912 L4.91751207,4.98947221 C4.55838985,6.21831952 4.58389995,8.00713856 5.30093437,8.81249332 L5.41371433,8.92572762 C5.72259193,9.20171223 5.74925698,9.67583672 5.47327238,9.98471433 C5.19728777,10.2935919 4.72316328,10.320257 4.41428567,10.0442724 C4.29264312,9.93558379 4.18083243,9.81580832 4.0785103,9.68648201 C3.01855435,13.2991164 4.55213443,17.279455 7.95808188,19.1926734 C11.8498759,21.3788059 16.7745985,20.0730228 19.071971,16.2458417 C20.7702847,13.4166299 20.5774008,9.96819007 18.8456752,7.39181702 C18.875296,7.70201748 18.8884048,8.03278465 18.8906722,8.39431948 L18.889,9.184 C18.889,11.5311828 17.7859222,13.7353028 15.6984589,15.3494848 C14.141135,16.4716535 12.0007524,16.7171507 9.53600932,15.7822481 C8.69372867,15.4627624 9.02692192,14.2016469 9.91708968,14.339883 C10.6096122,14.4474264 10.9279607,14.2555052 11.4465545,13.4868672 L11.6793988,13.1294701 C11.8029409,12.9383489 11.9203386,12.7672537 12.0356016,12.6150304 L12.092,12.543 L11.9907664,12.5529452 L11.8149587,12.5749314 L11.4310147,12.6358207 L10.7465474,12.7573693 L10.3761377,12.8160324 L10.0633107,12.8546902 C9.53595674,12.9065744 9.24428426,12.8522346 8.88782069,12.6621705 C7.48620258,11.9167115 7.19493459,10.3203194 8.85139628,9.12452736 C9.92498276,8.47414934 10.6561641,7.90834948 11.0146425,7.44286228 L10.9916935,7.42848844 C10.0846646,6.83810453 9.50757091,5.80006479 9.43885582,4.68195644 L9.431,4.459 Z M12.2190248,6.36269383 C12.5809503,6.47320543 12.8038537,6.83602839 12.7388531,7.20882567 C12.5396821,8.35113011 11.5077202,9.26910506 9.67973388,10.3735641 C9.05312075,10.827085 9.09839129,11.0752054 9.59286878,11.3381967 C9.60714005,11.345806 9.62621447,11.3518027 9.6510199,11.3560207 L9.74355699,11.3631728 L9.87604704,11.3586568 L10.054057,11.3414767 L10.283154,11.3106364 L10.5689049,11.2651399 L11.3877379,11.1221936 C12.8378687,10.8899459 13.7752977,11.0224444 14.4016277,11.9270687 C14.714886,12.3795156 14.4491064,12.9905867 13.9301614,13.0901418 L13.8299719,13.1026505 C13.57222,13.1181338 13.3844596,13.2753136 13.0310644,13.8037827 L12.8125101,14.1401807 C12.6466177,14.3965886 12.483962,14.6246387 12.3191497,14.8242506 L12.29,14.858 L12.3219037,14.8598498 C13.2302353,14.8821429 14.01003,14.6627289 14.6453129,14.2538936 L14.8011137,14.1477687 C16.5042836,12.8303039 17.389,11.062504 17.3890376,9.19151035 L17.3908586,8.41251096 C17.3834924,6.96097648 17.1910294,6.20728899 16.360017,5.00074047 L16.4542004,5.05643544 C15.9429264,4.73767047 15.4439598,4.52271528 14.9163176,4.38438337 C14.6827933,4.32316035 14.4628384,4.27731271 14.2231479,4.24320966 L13.9239148,4.20769103 C13.8717532,4.20263336 13.8182694,4.19798739 13.7631968,4.19372406 L13.4115649,4.17250344 C13.3490716,4.1696545 13.2844567,4.16713011 13.2174537,4.16490123 L12.7846477,4.15484161 L12.2817392,4.15047986 L10.9552038,4.15022516 C10.8137212,5.13103268 11.3600572,6.10041364 12.2190248,6.36269383 Z" id="Icon-Color" fill="#212121"></path>
    </g>
</svg>