<?xml version="1.0" encoding="UTF-8"?>
<svg width="24px" height="24px" viewBox="0 0 24 24" version="1.1" xmlns="http://www.w3.org/2000/svg" xmlns:xlink="http://www.w3.org/1999/xlink">
    <title>Icon/flag</title>
    <g id="Icon/flag" stroke="none" stroke-width="1" fill="none" fill-rule="evenodd">
        <path d="M12.3356292,4.28683499 L12.525,4.46439287 C14.1775849,6.08425009 16.8224151,6.08425009 18.475,4.46439287 L18.4957169,4.44483641 C18.5125877,4.42950275 18.5301603,4.41492757 18.5483807,4.40116475 L18.475,4.46439287 C18.5127067,4.4274329 18.5533226,4.3952614 18.5960939,4.36787083 C18.6082529,4.36014504 18.6210015,4.35249468 18.6339886,4.3452195 C18.6507898,4.33576945 18.6674133,4.32729038 18.6842655,4.31947199 C18.6977014,4.31323677 18.7121003,4.30706714 18.7267226,4.3013433 C18.742436,4.29522784 18.7577608,4.28982808 18.7732113,4.28494131 C18.7909854,4.27925882 18.8093745,4.27418513 18.8280319,4.26980803 C18.843307,4.266286 18.8586564,4.26319121 18.8740708,4.26057999 C18.8900421,4.25782242 18.9063535,4.25560604 18.9228225,4.25392253 C18.9427577,4.25190922 18.9625392,4.25066773 18.982334,4.25020546 L19,4.25 L19,4.25 L19.0246101,4.25040266 C19.044734,4.25106049 19.0648351,4.25252381 19.0848606,4.25479209 L19,4.25 C19.0447322,4.25 19.0885498,4.25391612 19.1311286,4.26142422 C19.1478371,4.26443642 19.1648261,4.26803808 19.1816965,4.27223295 C19.1991859,4.27651399 19.2163279,4.28144818 19.2332064,4.28696497 C19.248654,4.29204576 19.2643044,4.29772368 19.2797882,4.30393802 C19.292436,4.3090241 19.3045318,4.31427759 19.3164571,4.31983548 C19.3348657,4.32835574 19.3534111,4.33792396 19.3716115,4.34831465 C19.3827996,4.35478711 19.3936126,4.36134107 19.4042424,4.36815592 C19.4219376,4.37940517 19.4393988,4.39166472 19.4564236,4.40475303 C19.5116712,4.44725187 19.5608618,4.49722443 19.6024383,4.55319053 L19.5356071,4.475 C19.5679829,4.50802991 19.5966844,4.54329211 19.6217167,4.58027993 C19.6348218,4.59977719 19.6468742,4.61951347 19.6580139,4.63982149 C19.6626693,4.64820224 19.6672288,4.65692182 19.6716048,4.66570885 C19.6820165,4.6866484 19.6916211,4.70840898 19.7001935,4.73068191 C19.7049373,4.74308713 19.7092067,4.75514724 19.7131579,4.76728745 C19.7195897,4.78684758 19.725322,4.80727363 19.730192,4.82803188 C19.7334829,4.84232143 19.736407,4.85667413 19.738908,4.87108501 C19.7405,4.87994435 19.7419095,4.88906057 19.7431534,4.89822944 L19.7472921,4.9360823 C19.7482266,4.94708074 19.7489192,4.9580954 19.74937,4.96911766 L19.75,5 L19.75,14 L19.7488894,14.0408853 C19.7482711,14.0522678 19.7473947,14.0636385 19.7462604,14.0749878 L19.75,14 C19.75,14.0469727 19.7456818,14.0929368 19.7374207,14.137517 C19.7346735,14.1519432 19.7315595,14.1663567 19.7280178,14.1806851 C19.7236531,14.1986355 19.7185507,14.2163842 19.7128243,14.2338501 C19.7081672,14.2479308 19.7031369,14.2618914 19.6976803,14.2757215 C19.689784,14.2957476 19.6808978,14.3156276 19.6711951,14.3350281 C19.6651346,14.3472649 19.6585917,14.3595144 19.6516853,14.3716115 C19.6430457,14.3865929 19.634056,14.4011334 19.6245949,14.415333 C19.6155075,14.4291147 19.6056385,14.4429067 19.595247,14.4564236 C19.5751912,14.4824469 19.5535162,14.507144 19.5303301,14.5303301 L19.525,14.5356071 C17.3512568,16.6663017 13.9086088,16.7254876 11.6643708,14.713165 L11.475,14.5356071 C9.8954436,12.9873322 7.40939987,12.9189132 5.74972726,14.3303501 L5.75,21 C5.75,21.4142136 5.41421356,21.75 5,21.75 C4.62030423,21.75 4.30650904,21.4678461 4.25684662,21.1017706 L4.25,21 L4.25,5 L4.25055632,4.97106844 C4.25118393,4.95473578 4.25234227,4.93842071 4.25403106,4.92215131 L4.25,5 C4.25,4.95209775 4.25449083,4.90524439 4.26307443,4.85983797 C4.2657125,4.84623257 4.26877067,4.83222764 4.27223295,4.81830351 C4.27651399,4.80081413 4.28144818,4.78367207 4.28696497,4.76679357 C4.29193334,4.75169124 4.29747563,4.73638006 4.30353114,4.72122779 C4.31319931,4.69710807 4.32388389,4.67400992 4.33567096,4.65158175 C4.33926214,4.64460929 4.3434529,4.63693118 4.34778756,4.62931329 C4.38198638,4.56944026 4.42398612,4.51485725 4.47250496,4.46684985 C4.47308224,4.46627761 4.47403959,4.46533426 4.475,4.46439287 C6.64874323,2.33369832 10.0913912,2.27451236 12.3356292,4.28683499 Z M5.74972726,5.33035011 L5.75008525,12.5193485 C7.84278348,11.3788801 10.4930996,11.6347089 12.3356292,13.286835 L12.525,13.4643929 C14.1048712,15.0129764 16.591591,15.081114 18.2512649,13.6688059 L18.2509123,6.48010767 C16.1580588,7.62120117 13.5071932,7.36555361 11.6643708,5.71316501 L11.475,5.53560713 C9.8954436,3.98733217 7.40939987,3.91891316 5.74972726,5.33035011 Z" id="Icon-Color" fill="#212121"></path>
    </g>
</svg>