<?xml version="1.0" encoding="UTF-8"?>
<svg width="24px" height="24px" viewBox="0 0 24 24" version="1.1" xmlns="http://www.w3.org/2000/svg" xmlns:xlink="http://www.w3.org/1999/xlink">
    <title>Icon/flame</title>
    <g id="Icon/flame" stroke="none" stroke-width="1" fill="none" fill-rule="evenodd">
        <path d="M10.25,4 C10.25,5.79068847 9.61751211,7.12670856 8.36788246,8.52560122 L8.22621028,8.68186493 L7.46288796,9.47653973 C6.10967807,10.8672771 5.25,13.030418 5.25,15 C5.25,18.7279221 8.27207794,21.75 12,21.75 C15.7279221,21.75 18.75,18.7279221 18.75,15 C18.75,13.3521592 17.6802603,10.7590206 16.5600903,9.5012026 C16.2228812,9.12255679 15.6149272,9.18067005 15.3555573,9.61634179 L15.0992347,10.0390535 L14.8624234,10.4122459 L14.6431273,10.7376774 C13.9743156,11.6944448 13.538941,11.9592557 13.0517922,11.7833671 L12.998,11.761 L13.0960592,11.5481912 C14.2681249,8.81913108 13.2313222,5.17066207 11.5303301,3.46966991 C11.0578564,2.99719627 10.25,3.33182136 10.25,4 Z M11.4645273,6.14178384 L11.478,6.088 L11.483826,6.10000662 C12.2132929,7.78414533 12.4006586,10.0673985 11.3785583,11.5801069 C11.1623848,11.9000437 11.2244476,12.3318267 11.5219808,12.5779253 L11.6631076,12.6908374 C13.1619731,13.8489588 14.4572833,13.5237563 15.9362491,11.4725197 L16.032,11.336 L16.1291259,11.5020629 C16.7474723,12.6050612 17.25,14.0683908 17.25,15 C17.25,17.8994949 14.8994949,20.25 12,20.25 C9.10050506,20.25 6.75,17.8994949 6.75,15 C6.75,13.4171378 7.4601186,11.6303217 8.53753292,10.5230281 L8.99279304,10.055369 L9.33171016,9.69571031 C9.38447222,9.63831669 9.43584624,9.58165256 9.48654326,9.52489999 C10.4450636,8.45188844 11.113818,7.37235501 11.4645273,6.14178384 Z" id="Icon-Color" fill="#212121"></path>
    </g>
</svg>