<?xml version="1.0" encoding="UTF-8"?>
<svg width="24px" height="24px" viewBox="0 0 24 24" version="1.1" xmlns="http://www.w3.org/2000/svg" xmlns:xlink="http://www.w3.org/1999/xlink">
    <title>Icon/flip-horizontal</title>
    <g id="Icon/flip-horizontal" stroke="none" stroke-width="1" fill="none" fill-rule="evenodd">
        <path d="M17,15.25 C17.7554448,15.25 18.0192653,16.2221019 17.4260281,16.6183048 L17.3354102,16.6708204 L7.3354102,21.6708204 C6.86790162,21.9045747 6.32299782,21.6004738 6.25671105,21.1021521 L6.25,21 L6.25,16 C6.25,15.6203042 6.53215388,15.306509 6.89822944,15.2568466 L7,15.25 L17,15.25 Z M13.822,16.75 L7.75,16.75 L7.75,19.786 L13.822,16.75 Z M21,11.25 C21.4142136,11.25 21.75,11.5857864 21.75,12 C21.75,12.3796958 21.4678461,12.693491 21.1017706,12.7431534 L21,12.75 L3,12.75 C2.58578644,12.75 2.25,12.4142136 2.25,12 C2.25,11.6203042 2.53215388,11.306509 2.89822944,11.2568466 L3,11.25 L21,11.25 Z M7.24104129,2.28949833 L7.3354102,2.32917961 L17.3354102,7.32917961 C18.0111005,7.66702477 17.8123316,8.65448329 17.1045368,8.74355421 L17,8.75 L7,8.75 C6.62030423,8.75 6.30650904,8.46784612 6.25684662,8.10177056 L6.25,8 L6.25,3 C6.25,2.47730952 6.76568451,2.12593081 7.24104129,2.28949833 Z M7.75,4.213 L7.75,7.25 L13.824,7.25 L7.75,4.213 Z" id="Icon-Color" fill="#212121"></path>
    </g>
</svg>