<?xml version="1.0" encoding="UTF-8"?>
<svg width="24px" height="24px" viewBox="0 0 24 24" version="1.1" xmlns="http://www.w3.org/2000/svg" xmlns:xlink="http://www.w3.org/1999/xlink">
    <title>Icon/flip-vertical</title>
    <g id="Icon/flip-vertical" stroke="none" stroke-width="1" fill="none" fill-rule="evenodd">
        <path d="M12,2.25 C12.3796958,2.25 12.693491,2.53215388 12.7431534,2.89822944 L12.75,3 L12.75,21 C12.75,21.4142136 12.4142136,21.75 12,21.75 C11.6203042,21.75 11.306509,21.4678461 11.2568466,21.1017706 L11.25,21 L11.25,3 C11.25,2.58578644 11.5857864,2.25 12,2.25 Z M16.048959,6.25147831 L16.1017706,6.25684662 L16.1443951,6.26399429 L16.1993797,6.27679072 L16.2919338,6.30893872 L16.3260874,6.32455838 L16.4099458,6.37180723 L16.4875472,6.42983443 L16.5303301,6.46966991 L16.5937281,6.54169736 L16.6191834,6.57662535 L16.647603,6.62146064 L21.6708204,16.6645898 C21.9045747,17.1320984 21.6004738,17.6770022 21.1021521,17.743289 L21,17.75 L16,17.75 C15.6203042,17.75 15.306509,17.4678461 15.2568466,17.1017706 L15.25,17 L15.2514783,6.95104097 L15.2568466,6.89822944 L15.2639943,6.85560492 L15.2767907,6.80062029 L15.3089387,6.70806615 L15.3245584,6.67391264 L15.3718072,6.5900542 L15.4298344,6.51245278 L15.4696699,6.46966991 L15.5416974,6.40627192 L15.5766253,6.38081658 L15.6214606,6.35239699 L15.7080662,6.30893872 L15.8006203,6.27679072 L15.8549016,6.26397664 L15.8982294,6.25684662 L15.9520616,6.25133921 L16.048959,6.25147831 Z M8.04793843,6.25133921 L8.10177056,6.25684662 L8.14509839,6.26397664 L8.24132194,6.28979023 L8.29193385,6.30893872 L8.37853936,6.35239699 L8.42337465,6.38081658 L8.50175965,6.44230728 L8.53033009,6.46966991 L8.57016557,6.51245278 L8.62819277,6.5900542 L8.67544162,6.67391264 L8.69106128,6.70806615 L8.72320928,6.80062029 L8.73600571,6.85560492 L8.74315338,6.89822944 L8.75,7 L8.75,17 C8.75,17.3796958 8.46784612,17.693491 8.10177056,17.7431534 L8,17.75 L3,17.75 C2.47730952,17.75 2.12593081,17.2343155 2.28949833,16.7589587 L2.32917961,16.6645898 L7.35239699,6.62146064 L7.38081658,6.57662535 L7.40627192,6.54169736 L7.46966991,6.46966991 L7.51245278,6.42983443 L7.5900542,6.37180723 L7.67391264,6.32455838 L7.70806615,6.30893872 L7.80062029,6.27679072 L7.85560492,6.26399429 L7.89822944,6.25684662 L7.95104097,6.25147831 L8.04793843,6.25133921 Z M16.75,10.177 L16.75,16.25 L19.786,16.25 L16.75,10.177 Z M7.25,10.175 L4.213,16.25 L7.25,16.25 L7.25,10.175 Z" id="Icon-Color" fill="#212121"></path>
    </g>
</svg>