<?xml version="1.0" encoding="UTF-8"?>
<svg width="24px" height="24px" viewBox="0 0 24 24" version="1.1" xmlns="http://www.w3.org/2000/svg" xmlns:xlink="http://www.w3.org/1999/xlink">
    <title>Icon/float-center</title>
    <g id="Icon/float-center" stroke="none" stroke-width="1" fill="none" fill-rule="evenodd">
        <path d="M20,18.25 C20.4142136,18.25 20.75,18.5857864 20.75,19 C20.75,19.3796958 20.4678461,19.693491 20.1017706,19.7431534 L20,19.75 L4,19.75 C3.58578644,19.75 3.25,19.4142136 3.25,19 C3.25,18.6203042 3.53215388,18.306509 3.89822944,18.2568466 L4,18.25 L20,18.25 Z M20,14.25 C20.4142136,14.25 20.75,14.5857864 20.75,15 C20.75,15.3796958 20.4678461,15.693491 20.1017706,15.7431534 L20,15.75 L4,15.75 C3.58578644,15.75 3.25,15.4142136 3.25,15 C3.25,14.6203042 3.53215388,14.306509 3.89822944,14.2568466 L4,14.25 L20,14.25 Z M14,4.25 C14.9664983,4.25 15.75,5.03350169 15.75,6 L15.75,6 L15.75,10 C15.75,10.9664983 14.9664983,11.75 14,11.75 L14,11.75 L10,11.75 C9.03350169,11.75 8.25,10.9664983 8.25,10 L8.25,10 L8.25,6 C8.25,5.03350169 9.03350169,4.25 10,4.25 L10,4.25 Z M5,10.25 C5.41421356,10.25 5.75,10.5857864 5.75,11 C5.75,11.3796958 5.46784612,11.693491 5.10177056,11.7431534 L5,11.75 L4,11.75 C3.58578644,11.75 3.25,11.4142136 3.25,11 C3.25,10.6203042 3.53215388,10.306509 3.89822944,10.2568466 L4,10.25 L5,10.25 Z M20,10.25 C20.4142136,10.25 20.75,10.5857864 20.75,11 C20.75,11.3796958 20.4678461,11.693491 20.1017706,11.7431534 L20,11.75 L19,11.75 C18.5857864,11.75 18.25,11.4142136 18.25,11 C18.25,10.6203042 18.5321539,10.306509 18.8982294,10.2568466 L19,10.25 L20,10.25 Z M14,5.75 L10,5.75 C9.86192881,5.75 9.75,5.86192881 9.75,6 L9.75,6 L9.75,10 C9.75,10.1380712 9.86192881,10.25 10,10.25 L10,10.25 L14,10.25 C14.1380712,10.25 14.25,10.1380712 14.25,10 L14.25,10 L14.25,6 C14.25,5.86192881 14.1380712,5.75 14,5.75 L14,5.75 Z M5,6.25 C5.41421356,6.25 5.75,6.58578644 5.75,7 C5.75,7.37969577 5.46784612,7.69349096 5.10177056,7.74315338 L5,7.75 L4,7.75 C3.58578644,7.75 3.25,7.41421356 3.25,7 C3.25,6.62030423 3.53215388,6.30650904 3.89822944,6.25684662 L4,6.25 L5,6.25 Z M20,6.25 C20.4142136,6.25 20.75,6.58578644 20.75,7 C20.75,7.37969577 20.4678461,7.69349096 20.1017706,7.74315338 L20,7.75 L19,7.75 C18.5857864,7.75 18.25,7.41421356 18.25,7 C18.25,6.62030423 18.5321539,6.30650904 18.8982294,6.25684662 L19,6.25 L20,6.25 Z" id="Icon-Color" fill="#212121"></path>
    </g>
</svg>