<?xml version="1.0" encoding="UTF-8"?>
<svg width="24px" height="24px" viewBox="0 0 24 24" version="1.1" xmlns="http://www.w3.org/2000/svg" xmlns:xlink="http://www.w3.org/1999/xlink">
    <title>Icon/focus</title>
    <g id="Icon/focus" stroke="none" stroke-width="1" fill="none" fill-rule="evenodd">
        <path d="M12,2.25 C17.3847763,2.25 21.75,6.61522369 21.75,12 C21.75,17.3847763 17.3847763,21.75 12,21.75 C6.61522369,21.75 2.25,17.3847763 2.25,12 C2.25,6.61522369 6.61522369,2.25 12,2.25 Z M12,3.75 C7.44365081,3.75 3.75,7.44365081 3.75,12 C3.75,16.5563492 7.44365081,20.25 12,20.25 C16.5563492,20.25 20.25,16.5563492 20.25,12 C20.25,7.44365081 16.5563492,3.75 12,3.75 Z M12,10.75 C12.6903559,10.75 13.25,11.3096441 13.25,12 C13.25,12.6903559 12.6903559,13.25 12,13.25 C11.3096441,13.25 10.75,12.6903559 10.75,12 C10.75,11.3096441 11.3096441,10.75 12,10.75 Z M12,11.75 C11.8619288,11.75 11.75,11.8619288 11.75,12 C11.75,12.1380712 11.8619288,12.25 12,12.25 C12.1380712,12.25 12.25,12.1380712 12.25,12 C12.25,11.8619288 12.1380712,11.75 12,11.75 Z" id="Icon-Color" fill="#212121"></path>
    </g>
</svg>