<?xml version="1.0" encoding="UTF-8"?>
<svg width="24px" height="24px" viewBox="0 0 24 24" version="1.1" xmlns="http://www.w3.org/2000/svg" xmlns:xlink="http://www.w3.org/1999/xlink">
    <title>Icon/geometry</title>
    <g id="Icon/geometry" stroke="none" stroke-width="1" fill="none" fill-rule="evenodd">
        <path d="M12,2.25 C12.3796958,2.25 12.693491,2.53215388 12.7431534,2.89822944 L12.75,3 L12.7505538,4.35367295 C13.9045229,4.68032018 14.75,5.74142422 14.75,7 C14.75,7.8240564 14.3875426,8.56345634 13.8133561,9.06747149 L15.1914964,13.2017811 C15.3225088,13.5947297 15.1101675,14.0194841 14.7172189,14.1504964 C14.357016,14.2705911 13.9700875,14.1021734 13.8071879,13.7705992 L13.7685036,13.6762189 L12.4466617,9.71390963 C12.3012897,9.73765403 12.1520866,9.75 12,9.75 C11.8479134,9.75 11.6987103,9.73765403 11.5533383,9.71390963 L9.51009008,15.8416048 C10.3063176,16.1076789 11.1451265,16.25 12,16.25 C15.0476511,16.25 17.8957564,14.4355332 19.3338463,11.6554144 C19.5241557,11.2875079 19.9766791,11.1435369 20.3445856,11.3338463 C20.7124921,11.5241557 20.8564631,11.9766791 20.6661537,12.3445856 C19.6914425,14.2288997 18.1633309,15.7373345 16.3499814,16.6768883 L17.7115276,20.7628745 C17.8424884,21.1558403 17.6300914,21.5805667 17.2371255,21.7115276 C16.8769069,21.831575 16.4900004,21.6631064 16.3271444,21.3315109 L16.2884724,21.2371255 L14.964923,17.2637968 C14.0185296,17.5804332 13.0198025,17.75 12,17.75 C10.9799708,17.75 9.98135854,17.5807954 9.03526118,17.264721 L7.71151247,21.2371708 C7.58052664,21.6301283 7.15578666,21.8424983 6.76282918,21.7115125 C6.40261814,21.5914421 6.19415078,21.2245367 6.26280012,20.8615423 L6.28848753,20.7628292 L7.64995196,16.6783702 C5.83564791,15.7391217 4.30765371,14.2303009 3.33361161,12.3441315 C3.14355301,11.9760954 3.28783232,11.5236702 3.65586847,11.3336116 C4.02390461,11.143553 4.47632979,11.2878323 4.66638839,11.6558685 C5.45919376,13.1910846 6.68155357,14.431185 8.13077949,15.2342391 L10.1866439,9.06747149 C9.6124574,8.56345634 9.25,7.8240564 9.25,7 C9.25,5.74119856 10.0957803,4.67993969 11.2500669,4.35349732 L11.25,3 C11.25,2.58578644 11.5857864,2.25 12,2.25 Z M12,5.75 C11.3096441,5.75 10.75,6.30964406 10.75,7 C10.75,7.69035594 11.3096441,8.25 12,8.25 C12.6903559,8.25 13.25,7.69035594 13.25,7 C13.25,6.30964406 12.6903559,5.75 12,5.75 Z" id="Icon-Color" fill="#212121"></path>
    </g>
</svg>