<?xml version="1.0" encoding="UTF-8"?>
<svg width="24px" height="24px" viewBox="0 0 24 24" version="1.1" xmlns="http://www.w3.org/2000/svg" xmlns:xlink="http://www.w3.org/1999/xlink">
    <title>Icon/brand/github</title>
    <g id="Icon/brand/github" stroke="none" stroke-width="1" fill="none" fill-rule="evenodd">
        <path d="M18.6382455,2.3455552 L18.744565,2.36380697 C18.7610243,2.36742292 18.778028,2.37152838 18.7973381,2.37642713 C19.0136548,2.4354226 19.1922308,2.5881054 19.2841216,2.7926279 C19.7483801,3.82593341 19.8421039,4.98203107 19.5592747,6.06833986 L19.543,6.122 L19.5809566,6.16668292 C20.279695,7.04183076 20.6877094,8.1166494 20.7434245,9.239978 L20.75,9.5 C20.75,13.4203733 19.0064526,15.3656272 15.835359,16.0477531 L15.691,16.076 L15.6969123,16.0976867 C15.7289499,16.2453262 15.7450661,16.408817 15.751645,16.6150284 L15.7551582,16.9597448 L15.7507114,17.3493771 L15.75,21 C15.75,21.4142136 15.4142136,21.75 15,21.75 C14.6203042,21.75 14.306509,21.4678461 14.2568466,21.1017706 L14.25,21 L14.2544736,16.7516783 L14.2474615,16.5782891 C14.2367047,16.4322149 14.2139918,16.3596055 14.1728283,16.2841391 C14.1338332,16.2126481 14.0702918,16.130952 13.9696699,16.0303301 C13.5240168,15.584677 13.7934382,14.8214105 14.4201002,14.7542681 C17.6881352,14.4041215 19.25,13.0517752 19.2500004,9.50076411 C19.2489814,8.50057107 18.8587627,7.54003288 18.1619569,6.82250324 C17.9596383,6.6141674 17.8957758,6.30775696 17.9980212,6.03594353 C18.2385767,5.3964407 18.2821057,4.70504692 18.1313264,4.04874928 L18.078,3.85 L17.9826497,3.8669368 L17.8490311,3.89629744 L17.7008276,3.93503665 C17.1048834,4.102463 16.3777644,4.44954488 15.5160251,5.02403772 C15.3380747,5.14267134 15.1179414,5.17969122 14.9109756,5.12578907 C13.0021624,4.62865806 10.9978376,4.62865806 9.08902439,5.12578907 C8.88205856,5.17969122 8.66192529,5.14267134 8.48397485,5.02403772 C7.6222356,4.44954488 6.89511658,4.102463 6.29917243,3.93503665 L6.10481737,3.88550896 C6.07458842,3.87865725 6.04543556,3.87248002 6.01735028,3.8669368 L5.921,3.85 L5.8686736,4.04874928 C5.73464757,4.63212496 5.75414902,5.24323093 5.92908714,5.82097336 L6.00197876,6.03594353 C6.10422415,6.30775696 6.04036174,6.6141674 5.83804309,6.82250324 C5.14123726,7.54003288 4.75101862,8.50057107 4.75,9.5 C4.75,13.0517752 6.31186478,14.4041215 9.57989984,14.7542681 C10.2065618,14.8214105 10.4759832,15.584677 10.0303301,16.0303301 C9.72296197,16.3376982 9.65616312,16.5928418 9.73040811,17.3228637 L9.75,17.5 L9.75,21 C9.75,21.4142136 9.41421356,21.75 9,21.75 C8.62030423,21.75 8.30650904,21.4678461 8.25684662,21.1017706 L8.25,21 L8.25209288,19.9706011 C6.37179277,20.331351 5.17588937,19.6992518 4.09378531,18.2428743 L3.85838875,17.9114791 L3.5590611,17.4780803 C3.24921769,17.0385562 3.04281322,16.825738 2.85165206,16.7425759 L2.78837526,16.7195241 C2.39099305,16.602647 2.16359876,16.1857575 2.28047587,15.7883753 C2.39735299,15.3909931 2.81424254,15.1635988 3.21162474,15.2804759 C3.78467597,15.4490204 4.1809011,15.7956141 4.64390265,16.4185482 L4.88302715,16.754969 L5.18554793,17.1929716 C6.03915497,18.4052896 6.75629607,18.8130193 8.25359616,18.4364722 L8.25579159,17.5930261 C8.18151359,16.998802 8.17845041,16.5244958 8.28472311,16.1079791 L8.294,16.073 L8.164641,16.0477521 C5.07282471,15.3826711 3.33806963,13.5167653 3.25326458,9.78962148 L3.25000039,9.49923589 C3.25123941,8.28309208 3.66655588,7.10913788 4.41904337,6.16668142 L4.456,6.122 L4.44072529,6.06833986 C4.1796522,5.06559328 4.23942895,4.00338163 4.61532208,3.0331751 L4.71587838,2.7926279 C4.80776922,2.5881054 4.98634525,2.4354226 5.20266195,2.37642713 L5.25543496,2.36380697 L5.36175446,2.3455552 C6.1467304,2.23982374 7.28954586,2.52826328 8.79920593,3.44630633 L9.037,3.594 L9.11657088,3.57547574 C11.0147586,3.14542917 12.9852414,3.14542917 14.8834291,3.57547574 L14.962,3.594 L15.2007941,3.44630633 C16.7104541,2.52826328 17.8532696,2.23982374 18.6382455,2.3455552 Z" id="Icon-Color" fill="#212121"></path>
    </g>
</svg>