<?xml version="1.0" encoding="UTF-8"?>
<svg width="24px" height="24px" viewBox="0 0 24 24" version="1.1" xmlns="http://www.w3.org/2000/svg" xmlns:xlink="http://www.w3.org/1999/xlink">
    <title>Icon/glass-full</title>
    <g id="Icon/glass-full" stroke="none" stroke-width="1" fill="none" fill-rule="evenodd">
        <path d="M17,2.25 C17.3732378,2.25 17.6896783,2.52444743 17.7424621,2.89393398 L17.7424621,2.89393398 L18.7424621,9.89393398 L18.7460847,9.92235969 C18.7478332,9.93931865 18.7490004,9.95630899 18.7495907,9.97329967 L18.75,10 C18.75,13.1540875 16.1848537,15.428628 12.7507815,15.7186339 L12.75,20.25 L16,20.25 C16.4142136,20.25 16.75,20.5857864 16.75,21 C16.75,21.3796958 16.4678461,21.693491 16.1017706,21.7431534 L16,21.75 L8,21.75 C7.58578644,21.75 7.25,21.4142136 7.25,21 C7.25,20.6203042 7.53215388,20.306509 7.89822944,20.2568466 L8,20.25 L11.25,20.25 L11.250224,15.7187187 C7.89743063,15.435969 5.37267828,13.2615983 5.25434129,10.2238246 L5.25,10 L5.2502169,9.98074744 C5.25080938,9.95825196 5.25240908,9.93580505 5.25500566,9.91347901 L5.25753788,9.89393398 L6.25753788,2.89393398 C6.31032167,2.52444743 6.62676222,2.25 7,2.25 L7,2.25 Z M6.82290709,10.3498812 L6.76809919,10.3834695 C6.97838601,12.5882631 9.0005176,14.1583433 11.7554538,14.2461231 L11.7554538,14.2461231 L12,14.25 C14.4298854,14.25 16.3306352,13.1125258 16.9947941,11.3932839 C15.2760709,12.0281795 13.3228429,11.8146646 11.7642625,10.7531762 L11.55009,10.6000675 C10.1597318,9.55762462 8.28996984,9.47422919 6.82290709,10.3498812 Z M16.349,3.75 L7.65,3.75 L6.95369055,8.62611702 C8.68372404,7.96751973 10.6611329,8.17442198 12.2357375,9.24682378 L12.44991,9.39993252 C13.8444261,10.4454929 15.7212177,10.526261 17.1902441,9.64223699 L16.349,3.75 Z" id="Icon-Color" fill="#212121"></path>
    </g>
</svg>