<?xml version="1.0" encoding="UTF-8"?>
<svg width="24px" height="24px" viewBox="0 0 24 24" version="1.1" xmlns="http://www.w3.org/2000/svg" xmlns:xlink="http://www.w3.org/1999/xlink">
    <title>Icon/golf</title>
    <g id="Icon/golf" stroke="none" stroke-width="1" fill="none" fill-rule="evenodd">
        <path d="M15.3766016,17.0214083 C16.2226242,17.5126472 16.75,18.2005287 16.75,19 C16.75,20.655534 14.561068,21.75 12,21.75 C9.43893202,21.75 7.25,20.655534 7.25,19 C7.25,18.1931013 7.77234297,17.5155695 8.62339836,17.0214083 C8.98160567,16.8134169 9.44060037,16.9351911 9.64859171,17.2933984 C9.85658305,17.6516057 9.73480895,18.1106004 9.37660164,18.3185917 C8.94173859,18.5710928 8.75,18.8197972 8.75,19 C8.75,19.544466 10.161068,20.25 12,20.25 C13.838932,20.25 15.25,19.544466 15.25,19 C15.25,18.8251235 15.0528216,18.5679342 14.6233984,18.3185917 C14.2651911,18.1106004 14.1434169,17.6516057 14.3514083,17.2933984 C14.5593996,16.9351911 15.0183943,16.8134169 15.3766016,17.0214083 Z M12.2771062,2.3027205 L12.3721042,2.34881764 L19.3721042,6.34881764 C19.8423745,6.61754354 19.8737259,7.2683413 19.4661583,7.58801011 L19.3721042,7.65118236 L12.75,11.435 L12.75,18 C12.75,18.3796958 12.4678461,18.693491 12.1017706,18.7431534 L12,18.75 C11.6203042,18.75 11.306509,18.4678461 11.2568466,18.1017706 L11.25,18 L11.25,3 C11.25,2.46012469 11.7967778,2.109075 12.2771062,2.3027205 Z M12.75,4.293 L12.75,9.706 L17.487,7 L12.75,4.293 Z" id="Icon-Color" fill="#212121"></path>
    </g>
</svg>