<?xml version="1.0" encoding="UTF-8"?>
<svg width="24px" height="24px" viewBox="0 0 24 24" version="1.1" xmlns="http://www.w3.org/2000/svg" xmlns:xlink="http://www.w3.org/1999/xlink">
    <title>Icon/brand/google-drive</title>
    <g id="Icon/brand/google-drive" stroke="none" stroke-width="1" fill="none" fill-rule="evenodd">
        <path d="M8.49343759,4.44582005 L8.51746201,4.42483126 C8.53338829,4.41135746 8.54991665,4.3985193 8.5670178,4.38636853 C8.57508947,4.38063516 8.58301284,4.37526966 8.59101847,4.37007286 C8.61022249,4.35745437 8.63062425,4.34545746 8.65168518,4.33442237 C8.66088139,4.32990905 8.66984418,4.32547581 8.67887819,4.32123218 C8.69820547,4.31175187 8.71829777,4.30331869 8.73888589,4.29575286 C8.75108889,4.29171239 8.76346731,4.28753552 8.77593086,4.28368818 C8.7927502,4.27806113 8.8101152,4.27338401 8.82777471,4.269319 C8.84351037,4.26604669 8.85890666,4.26298446 8.87437194,4.26040277 C8.91459711,4.25351123 8.95668328,4.25 9,4.25 L8.92323126,4.25386531 C8.94324257,4.25184423 8.96332323,4.25061573 8.98341885,4.25017982 L9,4.25 L15,4.25 C15.2634471,4.25 15.5075773,4.38822413 15.6431197,4.61412818 L15.6431197,4.61412818 L21.6431197,14.6141282 C21.6498598,14.6253617 21.6562667,14.636664 21.6623452,14.6480263 C21.6679161,14.6585903 21.6734887,14.6696889 21.6787891,14.680919 C21.6881274,14.7002421 21.696249,14.7193531 21.7035081,14.7385652 C21.706244,14.7467467 21.7094597,14.7558022 21.7125037,14.76492 C21.7194977,14.7846249 21.7250089,14.8036345 21.7297215,14.8226861 C21.7323763,14.8351963 21.735242,14.8482072 21.7377614,14.8613028 C21.7412453,14.877384 21.7437438,14.893374 21.7457054,14.9093537 C21.7467348,14.9200075 21.7478736,14.9310203 21.7487655,14.9420721 C21.7504774,14.961614 21.7511865,14.9807086 21.7511575,14.9997287 C21.7511998,15.0146284 21.7507627,15.0300426 21.7498327,15.0454858 C21.7486646,15.0610178 21.7472337,15.0760315 21.7453536,15.0909588 C21.7437438,15.106626 21.7412453,15.122616 21.7381975,15.1385943 C21.7357058,15.1493819 21.7334197,15.1600101 21.7309073,15.1705746 C21.7263354,15.1917469 21.7202666,15.213076 21.7131667,15.2343054 C21.7094597,15.2441978 21.706244,15.2532533 21.7028596,15.2622414 C21.6990891,15.2731303 21.6943505,15.2847883 21.6892871,15.2963998 L21.6787891,15.319081 C21.6734887,15.3303111 21.6679161,15.3414097 21.6620775,15.3523655 L21.6431197,15.3858718 L18.6431197,20.3858718 C18.5269405,20.5795039 18.3309825,20.708718 18.111463,20.7416847 L18,20.75 L6,20.75 L5.97035936,20.7494252 C5.95596397,20.7488667 5.94158232,20.747901 5.92723443,20.7465283 L6,20.75 C5.95667664,20.75 5.91421124,20.7463267 5.87289824,20.7392745 C5.85790629,20.7368268 5.84250326,20.7337416 5.82719559,20.7301752 C5.8097765,20.7258837 5.79273755,20.7212105 5.77595218,20.7159632 C5.76106676,20.7117235 5.74632375,20.7066664 5.73172654,20.7011407 C5.71674628,20.6948536 5.70204855,20.6886695 5.68759785,20.6820396 C5.66978725,20.6747137 5.65209652,20.6658221 5.63472562,20.6561885 C5.62515372,20.6498495 5.61548439,20.6441624 5.60595689,20.638268 C5.58662304,20.6274631 5.56793576,20.614743 5.54975888,20.6010832 C5.54278822,20.5946437 5.53538464,20.5888687 5.52809411,20.5829597 C5.51010119,20.5695227 5.49314539,20.5543937 5.47677997,20.5383529 C5.46674976,20.5275964 5.45653502,20.5170703 5.44663327,20.506253 C5.41360988,20.4706129 5.3835208,20.4302726 5.35688031,20.3858718 L5.41286221,20.4667041 C5.39892771,20.449197 5.38575977,20.4310527 5.37340917,20.4123218 L5.35688031,20.3858718 L2.35688031,15.3858718 C2.21437323,15.14836 2.21437323,14.85164 2.35688031,14.6141282 L2.35688031,14.6141282 L8.35688031,4.61412818 C8.3592278,4.6102157 8.36160207,4.60633474 8.36400269,4.60248531 C8.39773437,4.54834142 8.43850015,4.49814944 8.48524841,4.45372292 L8.49343759,4.44582005 L8.49343759,4.44582005 Z M19.674,15.75 L9.424,15.75 L7.324,19.25 L17.574,19.25 L19.674,15.75 Z M9,6.458 L3.874,15 L6,18.542 L11.125,10 L9,6.458 Z M13.675,14.25 L12,11.458 L10.324,14.25 L13.675,14.25 Z M14.575,5.75 L10.325,5.75 L15.425,14.25 L19.675,14.25 L14.575,5.75 Z" id="Icon-Color" fill="#212121"></path>
    </g>
</svg>