<?xml version="1.0" encoding="UTF-8"?>
<svg width="24px" height="24px" viewBox="0 0 24 24" version="1.1" xmlns="http://www.w3.org/2000/svg" xmlns:xlink="http://www.w3.org/1999/xlink">
    <title>Icon/brand/google</title>
    <g id="Icon/brand/google" stroke="none" stroke-width="1" fill="none" fill-rule="evenodd">
        <path d="M6.06703622,4.26287371 C9.69515564,1.4807524 14.7691975,1.59334767 18.2703333,4.53367034 C18.5875268,4.80005569 18.628715,5.27313982 18.3623297,5.59033333 C18.0959443,5.90752684 17.6228602,5.948715 17.3056667,5.68232966 C14.3431671,3.19436432 10.0497471,3.0990914 6.97979987,5.45319404 C3.90985267,7.80729668 2.88800725,11.9784314 4.52221606,15.4849591 C6.15642486,18.9914868 10.0077175,20.8915072 13.7847467,20.054593 C17.2140153,19.2947356 19.7457366,16.4640558 20.1828786,13.0538372 L20.216,12.75 L13,12.75 C12.6203042,12.75 12.306509,12.4678461 12.2568466,12.1017706 L12.25,12 C12.25,11.6203042 12.5321539,11.306509 12.8982294,11.2568466 L13,11.25 L21,11.25 C21.4142136,11.25 21.75,11.5857864 21.75,12 C21.75,16.5720224 18.5730171,20.52999 14.1092461,21.5190725 C9.6454843,22.5081529 5.09395665,20.2626743 3.16261897,16.118596 C1.2312813,11.9745178 2.43891679,7.04499501 6.06703622,4.26287371 Z" id="Icon-Color" fill="#212121"></path>
    </g>
</svg>