<?xml version="1.0" encoding="UTF-8"?>
<svg width="24px" height="24px" viewBox="0 0 24 24" version="1.1" xmlns="http://www.w3.org/2000/svg" xmlns:xlink="http://www.w3.org/1999/xlink">
    <title>Icon/brand/google-play</title>
    <g id="Icon/brand/google-play" stroke="none" stroke-width="1" fill="none" fill-rule="evenodd">
        <path d="M4.11184061,2.38483929 C4.53260271,2.19803063 5.02092961,2.22119047 5.42423244,2.4540384 L5.42423244,2.4540384 L20.0465603,10.8732273 C20.4492111,11.1053346 20.6973225,11.5347404 20.6973225,11.9995 C20.6973225,12.4642596 20.4492111,12.8936654 20.0462658,13.1259424 L20.0462658,13.1259424 L5.42500004,21.545519 C4.97643826,21.8044963 4.42379741,21.8045393 3.97519533,21.5456318 C3.52653461,21.2866905 3.24999912,20.8080536 3.24999912,20.29 L3.24999912,20.29 L3.24999912,3.71183704 C3.24942155,3.19351303 3.52556102,2.71429872 3.97429829,2.45488584 L3.97429829,2.45488584 Z M4.74899822,4.88416205 L4.74899822,19.1151621 L11.2449982,11.9991621 L4.74899822,4.88416205 Z M12.2599982,13.1111621 L6.93599822,18.9431621 L13.9159982,14.9241621 L12.2599982,13.1111621 Z M15.2479982,9.83916205 L13.2749982,12.0001621 L15.2459982,14.1581621 L18.997,11.999 L15.2479982,9.83916205 Z M6.93199822,5.05216205 L12.2599982,10.8881621 L13.9169982,9.07316205 L6.93199822,5.05216205 Z" id="Icon-Color" fill="#212121"></path>
    </g>
</svg>