<?xml version="1.0" encoding="UTF-8"?>
<svg width="24px" height="24px" viewBox="0 0 24 24" version="1.1" xmlns="http://www.w3.org/2000/svg" xmlns:xlink="http://www.w3.org/1999/xlink">
    <title>Icon/gps</title>
    <g id="Icon/gps" stroke="none" stroke-width="1" fill="none" fill-rule="evenodd">
        <path d="M12,2.25 C17.3847763,2.25 21.75,6.61522369 21.75,12 C21.75,17.3847763 17.3847763,21.75 12,21.75 C6.61522369,21.75 2.25,17.3847763 2.25,12 C2.25,6.61522369 6.61522369,2.25 12,2.25 Z M12,3.75 C7.44365081,3.75 3.75,7.44365081 3.75,12 C3.75,16.5563492 7.44365081,20.25 12,20.25 C16.5563492,20.25 20.25,16.5563492 20.25,12 C20.25,7.44365081 16.5563492,3.75 12,3.75 Z M15.6953962,7.31464134 C16.3230011,7.03570581 16.9642942,7.6769989 16.6853587,8.30460385 L16.6853587,8.30460385 L12.6853587,17.3046038 C12.3956595,17.9564269 11.4453941,17.8739057 11.2723931,17.1819017 L11.2723931,17.1819017 L10.381,13.618 L6.81809828,12.7276069 C6.16453893,12.564217 6.05462322,11.7075266 6.59353705,11.3687943 L6.59353705,11.3687943 L6.69539615,11.3146413 Z M14.522,9.477 L9.294,11.8 L11.1819017,12.2723931 C11.4170264,12.3311743 11.6070549,12.4991598 11.6958925,12.7202551 L11.6958925,12.7202551 L11.7276069,12.8180983 L12.199,14.705 L14.522,9.477 Z" id="Icon-Color" fill="#212121"></path>
    </g>
</svg>