<?xml version="1.0" encoding="UTF-8"?>
<svg width="24px" height="24px" viewBox="0 0 24 24" version="1.1" xmlns="http://www.w3.org/2000/svg" xmlns:xlink="http://www.w3.org/1999/xlink">
    <title>Icon/grain</title>
    <g id="Icon/grain" stroke="none" stroke-width="1" fill="none" fill-rule="evenodd">
        <path d="M4.5,17.75 C5.46649831,17.75 6.25,18.5335017 6.25,19.5 C6.25,20.4664983 5.46649831,21.25 4.5,21.25 C3.53350169,21.25 2.75,20.4664983 2.75,19.5 C2.75,18.5335017 3.53350169,17.75 4.5,17.75 Z M14.5,17.75 C15.4664983,17.75 16.25,18.5335017 16.25,19.5 C16.25,20.4664983 15.4664983,21.25 14.5,21.25 C13.5335017,21.25 12.75,20.4664983 12.75,19.5 C12.75,18.5335017 13.5335017,17.75 14.5,17.75 Z M4.5,19.25 C4.36192881,19.25 4.25,19.3619288 4.25,19.5 C4.25,19.6380712 4.36192881,19.75 4.5,19.75 C4.63807119,19.75 4.75,19.6380712 4.75,19.5 C4.75,19.3619288 4.63807119,19.25 4.5,19.25 Z M14.5,19.25 C14.3619288,19.25 14.25,19.3619288 14.25,19.5 C14.25,19.6380712 14.3619288,19.75 14.5,19.75 C14.6380712,19.75 14.75,19.6380712 14.75,19.5 C14.75,19.3619288 14.6380712,19.25 14.5,19.25 Z M9.5,12.75 C10.4664983,12.75 11.25,13.5335017 11.25,14.5 C11.25,15.4664983 10.4664983,16.25 9.5,16.25 C8.53350169,16.25 7.75,15.4664983 7.75,14.5 C7.75,13.5335017 8.53350169,12.75 9.5,12.75 Z M19.5,12.75 C20.4664983,12.75 21.25,13.5335017 21.25,14.5 C21.25,15.4664983 20.4664983,16.25 19.5,16.25 C18.5335017,16.25 17.75,15.4664983 17.75,14.5 C17.75,13.5335017 18.5335017,12.75 19.5,12.75 Z M9.5,14.25 C9.36192881,14.25 9.25,14.3619288 9.25,14.5 C9.25,14.6380712 9.36192881,14.75 9.5,14.75 C9.63807119,14.75 9.75,14.6380712 9.75,14.5 C9.75,14.3619288 9.63807119,14.25 9.5,14.25 Z M19.5,14.25 C19.3619288,14.25 19.25,14.3619288 19.25,14.5 C19.25,14.6380712 19.3619288,14.75 19.5,14.75 C19.6380712,14.75 19.75,14.6380712 19.75,14.5 C19.75,14.3619288 19.6380712,14.25 19.5,14.25 Z M4.5,7.75 C5.46649831,7.75 6.25,8.53350169 6.25,9.5 C6.25,10.4664983 5.46649831,11.25 4.5,11.25 C3.53350169,11.25 2.75,10.4664983 2.75,9.5 C2.75,8.53350169 3.53350169,7.75 4.5,7.75 Z M14.5,7.75 C15.4664983,7.75 16.25,8.53350169 16.25,9.5 C16.25,10.4664983 15.4664983,11.25 14.5,11.25 C13.5335017,11.25 12.75,10.4664983 12.75,9.5 C12.75,8.53350169 13.5335017,7.75 14.5,7.75 Z M4.5,9.25 C4.36192881,9.25 4.25,9.36192881 4.25,9.5 C4.25,9.63807119 4.36192881,9.75 4.5,9.75 C4.63807119,9.75 4.75,9.63807119 4.75,9.5 C4.75,9.36192881 4.63807119,9.25 4.5,9.25 Z M14.5,9.25 C14.3619288,9.25 14.25,9.36192881 14.25,9.5 C14.25,9.63807119 14.3619288,9.75 14.5,9.75 C14.6380712,9.75 14.75,9.63807119 14.75,9.5 C14.75,9.36192881 14.6380712,9.25 14.5,9.25 Z M9.5,2.75 C10.4664983,2.75 11.25,3.53350169 11.25,4.5 C11.25,5.46649831 10.4664983,6.25 9.5,6.25 C8.53350169,6.25 7.75,5.46649831 7.75,4.5 C7.75,3.53350169 8.53350169,2.75 9.5,2.75 Z M19.5,2.75 C20.4664983,2.75 21.25,3.53350169 21.25,4.5 C21.25,5.46649831 20.4664983,6.25 19.5,6.25 C18.5335017,6.25 17.75,5.46649831 17.75,4.5 C17.75,3.53350169 18.5335017,2.75 19.5,2.75 Z M9.5,4.25 C9.36192881,4.25 9.25,4.36192881 9.25,4.5 C9.25,4.63807119 9.36192881,4.75 9.5,4.75 C9.63807119,4.75 9.75,4.63807119 9.75,4.5 C9.75,4.36192881 9.63807119,4.25 9.5,4.25 Z M19.5,4.25 C19.3619288,4.25 19.25,4.36192881 19.25,4.5 C19.25,4.63807119 19.3619288,4.75 19.5,4.75 C19.6380712,4.75 19.75,4.63807119 19.75,4.5 C19.75,4.36192881 19.6380712,4.25 19.5,4.25 Z" id="Icon-Color" fill="#212121"></path>
    </g>
</svg>