<?xml version="1.0" encoding="UTF-8"?>
<svg width="24px" height="24px" viewBox="0 0 24 24" version="1.1" xmlns="http://www.w3.org/2000/svg" xmlns:xlink="http://www.w3.org/1999/xlink">
    <title>Icon/grip-vertical</title>
    <g id="Icon/grip-vertical" stroke="none" stroke-width="1" fill="none" fill-rule="evenodd">
        <path d="M9,17.25 C9.96649831,17.25 10.75,18.0335017 10.75,19 C10.75,19.9664983 9.96649831,20.75 9,20.75 C8.03350169,20.75 7.25,19.9664983 7.25,19 C7.25,18.0335017 8.03350169,17.25 9,17.25 Z M15,17.25 C15.9664983,17.25 16.75,18.0335017 16.75,19 C16.75,19.9664983 15.9664983,20.75 15,20.75 C14.0335017,20.75 13.25,19.9664983 13.25,19 C13.25,18.0335017 14.0335017,17.25 15,17.25 Z M9,18.75 C8.86192881,18.75 8.75,18.8619288 8.75,19 C8.75,19.1380712 8.86192881,19.25 9,19.25 C9.13807119,19.25 9.25,19.1380712 9.25,19 C9.25,18.8619288 9.13807119,18.75 9,18.75 Z M15,18.75 C14.8619288,18.75 14.75,18.8619288 14.75,19 C14.75,19.1380712 14.8619288,19.25 15,19.25 C15.1380712,19.25 15.25,19.1380712 15.25,19 C15.25,18.8619288 15.1380712,18.75 15,18.75 Z M9,10.25 C9.96649831,10.25 10.75,11.0335017 10.75,12 C10.75,12.9664983 9.96649831,13.75 9,13.75 C8.03350169,13.75 7.25,12.9664983 7.25,12 C7.25,11.0335017 8.03350169,10.25 9,10.25 Z M15,10.25 C15.9664983,10.25 16.75,11.0335017 16.75,12 C16.75,12.9664983 15.9664983,13.75 15,13.75 C14.0335017,13.75 13.25,12.9664983 13.25,12 C13.25,11.0335017 14.0335017,10.25 15,10.25 Z M9,11.75 C8.86192881,11.75 8.75,11.8619288 8.75,12 C8.75,12.1380712 8.86192881,12.25 9,12.25 C9.13807119,12.25 9.25,12.1380712 9.25,12 C9.25,11.8619288 9.13807119,11.75 9,11.75 Z M15,11.75 C14.8619288,11.75 14.75,11.8619288 14.75,12 C14.75,12.1380712 14.8619288,12.25 15,12.25 C15.1380712,12.25 15.25,12.1380712 15.25,12 C15.25,11.8619288 15.1380712,11.75 15,11.75 Z M9,3.25 C9.96649831,3.25 10.75,4.03350169 10.75,5 C10.75,5.96649831 9.96649831,6.75 9,6.75 C8.03350169,6.75 7.25,5.96649831 7.25,5 C7.25,4.03350169 8.03350169,3.25 9,3.25 Z M15,3.25 C15.9664983,3.25 16.75,4.03350169 16.75,5 C16.75,5.96649831 15.9664983,6.75 15,6.75 C14.0335017,6.75 13.25,5.96649831 13.25,5 C13.25,4.03350169 14.0335017,3.25 15,3.25 Z M9,4.75 C8.86192881,4.75 8.75,4.86192881 8.75,5 C8.75,5.13807119 8.86192881,5.25 9,5.25 C9.13807119,5.25 9.25,5.13807119 9.25,5 C9.25,4.86192881 9.13807119,4.75 9,4.75 Z M15,4.75 C14.8619288,4.75 14.75,4.86192881 14.75,5 C14.75,5.13807119 14.8619288,5.25 15,5.25 C15.1380712,5.25 15.25,5.13807119 15.25,5 C15.25,4.86192881 15.1380712,4.75 15,4.75 Z" id="Icon-Color" fill="#212121"></path>
    </g>
</svg>