<?xml version="1.0" encoding="UTF-8"?>
<svg width="24px" height="24px" viewBox="0 0 24 24" version="1.1" xmlns="http://www.w3.org/2000/svg" xmlns:xlink="http://www.w3.org/1999/xlink">
    <title>Icon/hamburger 02</title>
    <g id="Icon/hamburger-02" stroke="none" stroke-width="1" fill="none" fill-rule="evenodd">
        <path d="M23,15.25 C23.4142136,15.25 23.75,15.5857864 23.75,16 C23.75,16.3796958 23.4678461,16.693491 23.1017706,16.7431534 L23,16.75 L7,16.75 C6.58578644,16.75 6.25,16.4142136 6.25,16 C6.25,15.6203042 6.53215388,15.306509 6.89822944,15.2568466 L7,15.25 L23,15.25 Z M22.9714286,8 C23.5394929,8 24,8.33578644 24,8.75 C24,9.12969577 23.6130461,9.44349096 23.1109996,9.49315338 L22.9714286,9.5 L1.02857143,9.5 C0.460507114,9.5 0,9.16421356 0,8.75 C0,8.37030423 0.386953895,8.05650904 0.889000378,8.00684662 L1.02857143,8 L22.9714286,8 Z" id="Icon-Color" fill="#212121"></path>
    </g>
</svg>