<?xml version="1.0" encoding="UTF-8"?>
<svg width="24px" height="24px" viewBox="0 0 24 24" version="1.1" xmlns="http://www.w3.org/2000/svg" xmlns:xlink="http://www.w3.org/1999/xlink">
    <title>Icon/hand-finger</title>
    <g id="Icon/hand-finger" stroke="none" stroke-width="1" fill="none" fill-rule="evenodd">
        <path d="M9.5,2.25 C10.690864,2.25 11.6656449,3.17516159 11.7448092,4.34595119 L11.75,4.5 L11.7503021,7.37851889 C12.3639499,7.16162118 13.0496468,7.21926249 13.625,7.55144281 C14.0090262,7.77316042 14.3117094,8.09860497 14.5059318,8.48080679 C14.8047082,8.33331899 15.142624,8.25 15.5,8.25 C16.3755656,8.25 17.1343228,8.75011584 17.506193,9.48026875 C17.8061807,9.33295634 18.1434026,9.25 18.5,9.25 C19.690864,9.25 20.6656449,10.1751616 20.7448092,11.3459512 L20.75,11.5 L20.75,16 C20.75,19.6486046 17.855153,22.6210814 14.2369716,22.7459181 L14,22.75 L12,22.75 L11.6664255,22.7283671 C9.69358158,22.5701139 7.8828782,21.5515725 6.72323333,19.9358289 L6.56918134,19.7118232 L6.29631614,19.2907997 L6.01841611,18.8300546 L5.19206073,17.4040939 L3.06034793,13.6397485 C2.46290325,12.5778246 2.81932077,11.2332793 3.86411828,10.6068862 C4.83919735,10.0218184 6.07291301,10.1362318 6.9224143,10.8714065 L7.06033009,10.9996699 L7.24995502,11.189 L7.25,4.5 C7.25,3.25735931 8.25735931,2.25 9.5,2.25 Z M9.5,3.75 C9.12030423,3.75 8.80650904,4.03215388 8.75684662,4.39822944 L8.75,4.5 L8.75,13 L8.74942679,13.0294084 C8.74885421,13.0440905 8.74785266,13.0587591 8.74642213,13.0733936 L8.75,13 C8.75,13.0468456 8.74570511,13.092688 8.73748762,13.1371551 C8.73542418,13.1480328 8.73298532,13.1597261 8.73026528,13.171367 C8.72482915,13.1948272 8.71842065,13.2172835 8.71101969,13.2392836 C8.70769699,13.2490913 8.70397152,13.2594565 8.70001067,13.2697519 C8.69255048,13.2890942 8.684555,13.3075139 8.67586016,13.3255328 C8.66894157,13.3399909 8.6612981,13.3546244 8.65313919,13.3690453 C8.64318696,13.3865081 8.63253874,13.4036581 8.6212371,13.4203291 C8.61431468,13.4306612 8.60682428,13.4411291 8.59903225,13.4514416 C8.55609807,13.5081986 8.50552763,13.5585304 8.44873696,13.6010016 L8.53033009,13.5303301 C8.49327681,13.5673834 8.45331108,13.5997491 8.41116979,13.6274273 C8.39101486,13.6405922 8.37002753,13.6529723 8.34841825,13.664329 C8.33929638,13.6691626 8.33056563,13.6735192 8.32177041,13.6776949 C8.29498188,13.690442 8.26652211,13.7019466 8.23726047,13.7116971 C8.23031678,13.7139554 8.22424558,13.7158799 8.21815554,13.7177252 C8.14967686,13.7386468 8.07616427,13.75 8,13.75 C7.96160776,13.75 7.92388927,13.7471153 7.88704947,13.7415508 C7.87548189,13.7397462 7.86377221,13.7376905 7.85210733,13.7353557 C7.82710419,13.730412 7.80280788,13.7242388 7.77901634,13.7169138 C7.76735654,13.7132873 7.75530706,13.7092554 7.74334602,13.7049093 C7.72004839,13.696425 7.69797981,13.6871231 7.67647821,13.6768269 C7.66487713,13.6713347 7.65254006,13.6650317 7.64034898,13.658365 C7.61421307,13.6439668 7.5895138,13.6284682 7.56583438,13.611629 C7.56212882,13.6090699 7.55794624,13.6060333 7.55378835,13.6029482 C7.52057056,13.5778288 7.49426976,13.5549299 7.46966991,13.5303301 L5.99997384,12.0606338 C5.63749929,11.6985744 5.075191,11.629519 4.63565207,11.8932515 C4.28730969,12.1020951 4.16850385,12.5502768 4.36766075,12.9042669 L6.58694328,16.8213043 L7.41344422,18.2416264 L7.62892649,18.5914031 L7.8223735,18.8875 C8.74960724,20.2954871 10.2932979,21.1683787 11.9678187,21.2445644 L12.207,21.25 L14,21.25 C16.8270076,21.25 19.1321316,19.0155511 19.245621,16.2164046 L19.25,16 L19.25,11.5 C19.25,11.0857864 18.9142136,10.75 18.5,10.75 C18.1203042,10.75 17.806509,11.0321539 17.7568466,11.3982294 L17.75,11.5 L17.75,12 C17.75,12.4142136 17.4142136,12.75 17,12.75 C16.6203042,12.75 16.306509,12.4678461 16.2568466,12.1017706 L16.25,12 L16.25,10.5 C16.25,10.0857864 15.9142136,9.75 15.5,9.75 C15.1203042,9.75 14.806509,10.0321539 14.7568466,10.3982294 L14.75,10.5 L14.75,12 C14.75,12.4142135 14.4142136,12.75 14,12.75 C13.6203042,12.75 13.306509,12.4678461 13.2568466,12.1017705 L13.25,12 L13.25,9.49999996 C13.25,9.23205077 13.1070508,8.9844555 12.875,8.85048091 C12.6429492,8.71650631 12.3570508,8.71650631 12.125,8.85048091 C11.9260993,8.96531627 11.792661,9.16362806 11.758595,9.38668266 L11.75,9.49999996 L11.75,12 C11.75,12.4142136 11.4142136,12.75 11,12.75 C10.6203042,12.75 10.306509,12.4678461 10.2568466,12.1017706 L10.25,12 L10.25,4.5 C10.25,4.08578644 9.91421356,3.75 9.5,3.75 Z" id="Icon-Color" fill="#212121"></path>
    </g>
</svg>