<?xml version="1.0" encoding="UTF-8"?>
<svg width="24px" height="24px" viewBox="0 0 24 24" version="1.1" xmlns="http://www.w3.org/2000/svg" xmlns:xlink="http://www.w3.org/1999/xlink">
    <title>Icon/headset</title>
    <g id="Icon/headset" stroke="none" stroke-width="1" fill="none" fill-rule="evenodd">
        <path d="M12,3.25 C16.7461971,3.25 20.6097972,7.02884663 20.7462695,11.7420089 L20.75,12 L20.75,17 C20.75,18.2948395 19.855099,19.3806637 18.6500494,19.6727203 C18.0973379,21.5184464 15.2887756,22.75 12,22.75 C11.5857864,22.75 11.25,22.4142136 11.25,22 C11.25,21.5857864 11.5857864,21.25 12,21.25 C14.4339632,21.25 16.4226451,20.4694408 17.0462228,19.578293 C15.9966905,19.1911327 15.25,18.1827658 15.25,17 L15.25,17 L15.25,15 C15.25,13.4812169 16.4812169,12.25 18,12.25 C18.4504174,12.25 18.8755432,12.3582863 19.2507641,12.5502456 L19.25,12 C19.25,7.99593556 16.0040644,4.75 12,4.75 C8.07601685,4.75 4.88014067,7.86739652 4.75387522,11.7606858 L4.75,12 L4.75025471,12.5497246 C5.12522627,12.3580904 5.5499902,12.25 6,12.25 C7.51878306,12.25 8.75,13.4812169 8.75,15 L8.75,15 L8.75,17 C8.75,18.5187831 7.51878306,19.75 6,19.75 C4.48121694,19.75 3.25,18.5187831 3.25,17 L3.25,17 L3.25,12 C3.25,7.16750844 7.16750844,3.25 12,3.25 Z M6,13.75 C5.30964406,13.75 4.75,14.3096441 4.75,15 L4.75,15 L4.75,17 C4.75,17.6903559 5.30964406,18.25 6,18.25 C6.69035594,18.25 7.25,17.6903559 7.25,17 L7.25,17 L7.25,15 C7.25,14.3096441 6.69035594,13.75 6,13.75 Z M18,13.75 C17.3096441,13.75 16.75,14.3096441 16.75,15 L16.75,15 L16.75,17 C16.75,17.6903559 17.3096441,18.25 18,18.25 C18.6903559,18.25 19.25,17.6903559 19.25,17 L19.25,17 L19.25,15 C19.25,14.3096441 18.6903559,13.75 18,13.75 Z" id="Icon-Color" fill="#212121"></path>
    </g>
</svg>