<?xml version="1.0" encoding="UTF-8"?>
<svg width="24px" height="24px" viewBox="0 0 24 24" version="1.1" xmlns="http://www.w3.org/2000/svg" xmlns:xlink="http://www.w3.org/1999/xlink">
    <title>Icon/heading</title>
    <g id="Icon/heading" stroke="none" stroke-width="1" fill="none" fill-rule="evenodd">
        <path d="M9,3.25 C9.41421356,3.25 9.75,3.58578644 9.75,4 C9.75,4.37969577 9.46784612,4.69349096 9.10177056,4.74315338 L9,4.75 L7.75,4.75 L7.75,11.25 L16.25,11.25 L16.25,4.75 L15,4.75 C14.5857864,4.75 14.25,4.41421356 14.25,4 C14.25,3.62030423 14.5321539,3.30650904 14.8982294,3.25684662 L15,3.25 L19,3.25 C19.4142136,3.25 19.75,3.58578644 19.75,4 C19.75,4.37969577 19.4678461,4.69349096 19.1017706,4.74315338 L19,4.75 L17.75,4.75 L17.75,19.25 L19,19.25 C19.4142136,19.25 19.75,19.5857864 19.75,20 C19.75,20.3796958 19.4678461,20.693491 19.1017706,20.7431534 L19,20.75 L15,20.75 C14.5857864,20.75 14.25,20.4142136 14.25,20 C14.25,19.6203042 14.5321539,19.306509 14.8982294,19.2568466 L15,19.25 L16.25,19.25 L16.25,12.75 L7.75,12.75 L7.75,19.25 L9,19.25 C9.41421356,19.25 9.75,19.5857864 9.75,20 C9.75,20.3796958 9.46784612,20.693491 9.10177056,20.7431534 L9,20.75 L5,20.75 C4.58578644,20.75 4.25,20.4142136 4.25,20 C4.25,19.6203042 4.53215388,19.306509 4.89822944,19.2568466 L5,19.25 L6.25,19.25 L6.25,4.75 L5,4.75 C4.58578644,4.75 4.25,4.41421356 4.25,4 C4.25,3.62030423 4.53215388,3.30650904 4.89822944,3.25684662 L5,3.25 L9,3.25 Z" id="Icon-Color" fill="#212121"></path>
    </g>
</svg>