<svg width="24" height="24" viewBox="0 0 24 24" fill="none" xmlns="http://www.w3.org/2000/svg">
<path fill-rule="evenodd" clip-rule="evenodd" d="M11.711 4.58172L11.7652 4.63657L11.8196 4.58419C13.0625 3.4147 14.7752 2.84829 16.4927 3.06936L16.738 3.10632C18.8636 3.47341 20.605 4.99931 21.2481 7.05833C21.8911 9.11736 21.3276 11.3631 19.7887 12.8746L19.7432 12.9126L12.2909 20.2944C12.0252 20.5576 11.6118 20.5815 11.3193 20.3662L11.2354 20.2944L3.74011 12.8711C2.1891 11.3618 1.6169 9.10947 2.25946 7.04291C2.90202 4.97636 4.65051 3.44561 6.78389 3.08193C8.58905 2.7742 10.411 3.34616 11.711 4.58172Z" fill="#DC3545"/>
</svg>
