<svg width="24" height="24" viewBox="0 0 24 24" fill="none" xmlns="http://www.w3.org/2000/svg">
<mask id="path-1-inside-1" fill="white">
<path fill-rule="evenodd" clip-rule="evenodd" d="M11.711 4.58172L11.7652 4.63657L11.8196 4.58419C13.0625 3.4147 14.7752 2.84829 16.4927 3.06936L16.738 3.10632C18.8636 3.47341 20.605 4.99931 21.2481 7.05833C21.8911 9.11736 21.3276 11.3631 19.7887 12.8746L19.7432 12.9126L12.2909 20.2944C12.0252 20.5576 11.6118 20.5815 11.3193 20.3662L11.2354 20.2944L3.74011 12.8711C2.1891 11.3618 1.6169 9.10947 2.25946 7.04291C2.90202 4.97636 4.65051 3.44561 6.78389 3.08193C8.58905 2.7742 10.411 3.34616 11.711 4.58172ZM7.03596 4.5606C5.45912 4.82941 4.16676 5.96083 3.69182 7.48828C3.2395 8.943 3.60157 10.5223 4.62738 11.633L4.79093 11.8007L11.7632 18.7066L18.7354 11.8007L18.7662 11.7736L18.8952 11.6413C19.9127 10.5295 20.2689 8.95491 19.8163 7.5055C19.341 5.98361 18.0539 4.85577 16.4827 4.58444C14.9116 4.31312 13.3208 4.94397 12.3626 6.2183C12.0615 6.61871 11.4601 6.61704 11.1612 6.21496C10.207 4.93113 8.6128 4.29179 7.03596 4.5606Z"/>
</mask>
<path d="M11.711 4.58172L12.4228 3.8793L12.4116 3.86791L12.4 3.85688L11.711 4.58172ZM11.7652 4.63657L11.0534 5.33899L11.747 6.04179L12.4585 5.35717L11.7652 4.63657ZM11.8196 4.58419L11.1343 3.85585L11.1262 3.86359L11.8196 4.58419ZM16.4927 3.06936L16.6416 2.08052L16.631 2.07892L16.6203 2.07755L16.4927 3.06936ZM16.738 3.10632L16.9082 2.12091L16.8976 2.11908L16.887 2.11748L16.738 3.10632ZM19.7887 12.8746L20.4286 13.6431L20.4602 13.6168L20.4894 13.5881L19.7887 12.8746ZM19.7432 12.9126L19.1032 12.1441L19.0701 12.1717L19.0394 12.2021L19.7432 12.9126ZM12.2909 20.2944L12.9946 21.005L12.9947 21.0049L12.2909 20.2944ZM11.3193 20.3662L10.6691 21.126L10.697 21.1499L10.7265 21.1716L11.3193 20.3662ZM11.2354 20.2944L10.5317 21.005L10.5576 21.0306L10.5852 21.0543L11.2354 20.2944ZM3.74011 12.8711L4.44383 12.1605L4.43751 12.1544L3.74011 12.8711ZM6.78389 3.08193L6.95193 4.06771L6.78389 3.08193ZM3.69182 7.48828L4.64672 7.7852L3.69182 7.48828ZM4.62738 11.633L3.89274 12.3115L3.90201 12.3215L3.91155 12.3313L4.62738 11.633ZM4.79093 11.8007L4.0751 12.499L4.0811 12.5051L4.08721 12.5112L4.79093 11.8007ZM11.7632 18.7066L11.0594 19.417L11.7632 20.1141L12.4669 19.417L11.7632 18.7066ZM18.7354 11.8007L18.0742 11.0505L18.0523 11.0697L18.0317 11.0902L18.7354 11.8007ZM18.7662 11.7736L19.4274 12.5237L19.4557 12.4988L19.4821 12.4718L18.7662 11.7736ZM18.8952 11.6413L19.6111 12.3395L19.6222 12.3281L19.6329 12.3164L18.8952 11.6413ZM19.8163 7.5055L20.7708 7.20739L19.8163 7.5055ZM12.3626 6.2183L13.1619 6.81928L12.3626 6.2183ZM11.1612 6.21496L10.3586 6.81147L11.1612 6.21496ZM10.9993 5.28415L11.0534 5.33899L12.4769 3.93414L12.4228 3.8793L10.9993 5.28415ZM12.4585 5.35717L12.5129 5.30479L11.1262 3.86359L11.0718 3.91597L12.4585 5.35717ZM12.5049 5.31248C13.5316 4.34643 14.9466 3.8786 16.365 4.06118L16.6203 2.07755C14.6038 1.81798 12.5934 2.48298 11.1343 3.8559L12.5049 5.31248ZM16.3437 4.05821L16.589 4.09516L16.887 2.11748L16.6416 2.08052L16.3437 4.05821ZM16.5678 4.09174C18.3238 4.39498 19.7623 5.65551 20.2935 7.35644L22.2026 6.76023C21.4477 4.34312 19.4035 2.55183 16.9082 2.12091L16.5678 4.09174ZM20.2935 7.35644C20.8247 9.05737 20.3593 10.9125 19.088 12.1612L20.4894 13.5881C22.296 11.8136 22.9575 9.17734 22.2026 6.76023L20.2935 7.35644ZM19.1488 12.1062L19.1032 12.1441L20.3831 13.681L20.4286 13.6431L19.1488 12.1062ZM19.0394 12.2021L11.5872 19.584L12.9947 21.0049L20.4469 13.623L19.0394 12.2021ZM11.5872 19.5839C11.6764 19.4956 11.8138 19.4885 11.912 19.5608L10.7265 21.1716C11.4099 21.6746 12.374 21.6196 12.9946 21.005L11.5872 19.5839ZM11.9694 19.6064L11.8855 19.5346L10.5852 21.0543L10.6691 21.126L11.9694 19.6064ZM11.9391 19.5839L4.4438 12.1606L3.03642 13.5816L10.5317 21.005L11.9391 19.5839ZM4.43751 12.1544C3.15624 10.9076 2.68355 9.04698 3.21437 7.33983L1.30456 6.746C0.550242 9.17196 1.22196 11.816 3.04271 13.5878L4.43751 12.1544ZM3.21437 7.33983C3.74518 5.63267 5.18958 4.36814 6.95193 4.06771L6.61584 2.09615C4.11144 2.52308 2.05887 4.32004 1.30456 6.746L3.21437 7.33983ZM6.95193 4.06771C8.44296 3.81353 9.94823 4.28589 11.0221 5.30656L12.4 3.85688C10.8739 2.40644 8.73514 1.73487 6.61584 2.09615L6.95193 4.06771ZM6.86791 3.57482C4.92004 3.90688 3.3236 5.30451 2.73691 7.19137L4.64672 7.7852C5.00991 6.61714 5.99819 5.75194 7.20401 5.54638L6.86791 3.57482ZM2.73691 7.19137C2.17814 8.98844 2.62543 10.9392 3.89274 12.3115L5.36202 10.9546C4.57771 10.1053 4.30085 8.89757 4.64672 7.7852L2.73691 7.19137ZM3.91155 12.3313L4.0751 12.499L5.50675 11.1024L5.3432 10.9348L3.91155 12.3313ZM4.08721 12.5112L11.0594 19.417L12.4669 17.9961L5.49464 11.0902L4.08721 12.5112ZM12.4669 19.417L19.4391 12.5112L18.0317 11.0902L11.0594 17.9961L12.4669 19.417ZM19.3966 12.5509L19.4274 12.5237L18.1049 11.0234L18.0742 11.0505L19.3966 12.5509ZM19.4821 12.4718L19.6111 12.3395L18.1793 10.9431L18.0503 11.0754L19.4821 12.4718ZM19.6329 12.3164C20.8899 10.9429 21.33 8.9979 20.7708 7.20739L18.8617 7.8036C19.2079 8.91192 18.9355 10.1161 18.1575 10.9661L19.6329 12.3164ZM20.7708 7.20739C20.1837 5.32741 18.5937 3.93419 16.6529 3.59903L16.3126 5.56986C17.514 5.77734 18.4983 6.63981 18.8617 7.8036L20.7708 7.20739ZM16.6529 3.59903C14.7121 3.26387 12.747 4.04315 11.5633 5.61732L13.1619 6.81928C13.8946 5.84479 15.1111 5.36238 16.3126 5.56986L16.6529 3.59903ZM11.5633 5.61732C11.6637 5.48385 11.8642 5.48441 11.9638 5.61844L10.3586 6.81147C11.0559 7.74967 12.4594 7.75357 13.1619 6.81928L11.5633 5.61732ZM11.9638 5.61844C10.7851 4.03253 8.81577 3.24276 6.86791 3.57482L7.20401 5.54638C8.40983 5.34082 9.62894 5.82972 10.3586 6.81147L11.9638 5.61844Z" fill="#C4C4C4" mask="url(#path-1-inside-1)"/>
</svg>
