<?xml version="1.0" encoding="UTF-8"?>
<svg width="24px" height="24px" viewBox="0 0 24 24" version="1.1" xmlns="http://www.w3.org/2000/svg" xmlns:xlink="http://www.w3.org/1999/xlink">
    <title>Icon/helicopter</title>
    <g id="Icon/helicopter" stroke="none" stroke-width="1" fill="none" fill-rule="evenodd">
        <path d="M11,19.75 C10.5857864,19.75 10.25,19.4142136 10.25,19 C10.25,18.6203042 10.5321539,18.306509 10.8982294,18.2568466 L11,18.25 L14.2498357,18.25 L14.2498357,16.75 L12,16.75 C10.5418684,16.75 9.34192167,15.6040581 9.2550369,14.1670515 L9.25,14 L9.24983571,12.749 L4,12.75 C3.75143084,12.75 3.52152892,12.6271158 3.38282777,12.4261757 L3.32917961,12.3354102 L2.32917961,10.3354102 C2.14393767,9.96492632 2.29410593,9.51442154 2.6645898,9.32917961 C3.00420002,9.1593745 3.41105003,9.27140712 3.61918342,9.57662535 L3.67082039,9.6645898 L4.463,11.25 L9.24983571,11.249 L9.25,11 C9.25,9.53746816 10.3917046,8.34159572 11.8324777,8.25501879 L12,8.25 L12.2498357,8.25 L12.2498357,6.75 L5,6.75 C4.58578644,6.75 4.25,6.41421356 4.25,6 C4.25,5.62030423 4.53215388,5.30650904 4.89822944,5.25684662 L5,5.25 L20,5.25 C20.4142136,5.25 20.75,5.58578644 20.75,6 C20.75,6.37969577 20.4678461,6.69349096 20.1017706,6.74315338 L20,6.75 L13.7498357,6.75 L13.7498357,8.25 L14,8.25 C18.4260131,8.25 21.6148643,10.295068 21.745812,13.7758767 L21.75,14 C21.75,15.5187831 20.5187831,16.75 19,16.75 L19,16.75 L15.7498357,16.75 L15.7498357,18.25 L19,18.25 C19.4142136,18.25 19.75,18.5857864 19.75,19 C19.75,19.3796958 19.4678461,19.693491 19.1017706,19.7431534 L19,19.75 L11,19.75 Z M14,9.75 L12,9.75 C11.3096441,9.75 10.75,10.3096441 10.75,11 L10.75,11 L10.75,14 C10.75,14.6857864 11.3142136,15.25 12,15.25 L12,15.25 L19,15.25 C19.6903559,15.25 20.25,14.6903559 20.25,14 C20.25,13.9154481 20.2474504,13.8319349 20.2423888,13.7494812 L15,13.75 C14.6203042,13.75 14.306509,13.4678461 14.2568466,13.1017706 L14.25,13 L14.2498357,9.753 L14,9.75 Z M15.7512201,9.87807539 L15.75,12.25 L19.8180036,12.2489608 C19.1432771,11.0147371 17.7107001,10.181959 15.7512201,9.87807539 Z" id="Icon-Color" fill="#212121"></path>
    </g>
</svg>