<?xml version="1.0" encoding="UTF-8"?>
<svg width="24px" height="24px" viewBox="0 0 24 24" version="1.1" xmlns="http://www.w3.org/2000/svg" xmlns:xlink="http://www.w3.org/1999/xlink">
    <title>Icon/hexagon</title>
    <g id="Icon/hexagon" stroke="none" stroke-width="1" fill="none" fill-rule="evenodd">
        <path d="M10.664214,2.64469001 L4.64534179,6.22755731 C3.79182943,6.701161 3.25023638,7.62118495 3.25,8.61982249 L3.25,15.157 C3.25073565,16.1556977 3.79225975,17.0750783 4.6648752,17.5596776 L10.625233,21.3690381 C11.4952328,21.8538097 12.5047672,21.8538097 13.335125,21.3926775 L19.374767,17.5360381 C20.2081464,17.0748524 20.7497427,16.1548591 20.7500559,15.1562352 L20.7500559,8.62 L20.7452314,8.43632057 C20.6977122,7.6445252 20.3069746,6.91155584 19.6804796,6.42815929 L19.556,6.339 L19.4999779,6.28830612 C19.4729771,6.26712835 19.443913,6.24716954 19.4127375,6.22860453 L13.393786,2.64469001 C12.545235,2.17233415 11.512765,2.17233415 10.664214,2.64469001 Z M12.661,3.954 L18.496,7.428 L18.5364101,7.46360122 L18.5791403,7.49407465 L18.6250209,7.5225311 C19.0146791,7.74748372 19.2533975,8.16450783 19.250144,8.61446431 L19.250144,15.156 C19.2499278,15.5643578 19.0504943,15.9439435 18.7213124,16.1764354 L12.567233,20.1049619 C12.2294397,20.2909281 11.7705603,20.2909281 11.393125,20.0813225 L5.43276702,16.2719619 C4.99648141,16.02805 4.75033409,15.6101497 4.7499998,15.1564474 L4.7499998,8.62 C4.7499998,8.16625136 4.99628607,7.74805865 5.39312498,7.52767751 L11.4126582,3.94444269 C11.7469426,3.75868103 12.1637742,3.73804084 12.5296569,3.89015459 L12.661,3.954 Z" id="Icon-Color" fill="#212121"></path>
    </g>
</svg>