<?xml version="1.0" encoding="UTF-8"?>
<svg width="24px" height="24px" viewBox="0 0 24 24" version="1.1" xmlns="http://www.w3.org/2000/svg" xmlns:xlink="http://www.w3.org/1999/xlink">
    <title>Icon/hexagon-off</title>
    <g id="Icon/hexagon-off" stroke="none" stroke-width="1" fill="none" fill-rule="evenodd">
        <path d="M3.44621165,2.39705176 L3.53033009,2.46966991 L21.5303301,20.4696699 C21.8232233,20.7625631 21.8232233,21.2374369 21.5303301,21.5303301 C21.2640635,21.7965966 20.8473998,21.8208027 20.5537883,21.6029482 L20.4696699,21.5303301 L17.605,18.666 L13.335125,21.3926775 C12.5601244,21.8230676 11.629041,21.8517602 10.800999,21.4595358 L10.625233,21.3690381 L4.6648752,17.5596776 C3.84679822,17.1053658 3.31971949,16.2689219 3.2564241,15.3432395 L3.25,15.157 L3.25,8.61982249 C3.25022161,7.6835998 3.72624497,6.81647108 4.48902452,6.32149673 L4.972,6.033 L2.46966991,3.53033009 C2.1767767,3.23743687 2.1767767,2.76256313 2.46966991,2.46966991 C2.73593648,2.20340335 3.15260016,2.1791973 3.44621165,2.39705176 Z M6.066,7.127 L5.39312498,7.52767751 C5.03596996,7.72602054 4.80084975,8.08459093 4.75731895,8.48510434 L4.75,8.62 L4.75,15.1564474 C4.75030066,15.5647795 4.94971008,15.9441119 5.30764116,16.1937068 L5.43276702,16.2719619 L11.393125,20.0813225 C11.7286231,20.2676385 12.128472,20.2883403 12.450457,20.1600122 L12.5672738,20.1049358 L16.519,17.58 L6.066,7.127 Z M13.0438284,2.48262767 L13.2371408,2.56539082 L13.4127375,2.65560453 L19.4127375,6.22860453 C19.443913,6.24716954 19.4729771,6.26712835 19.4999779,6.28830612 L19.556,6.339 L19.6804796,6.42815929 C20.3069746,6.91155584 20.6977122,7.6445252 20.7452314,8.43632057 L20.7500559,8.62 L20.7500559,15.156 C20.7500559,15.4915214 20.6889644,15.8215537 20.570415,16.1311769 C20.422305,16.5180054 19.9886516,16.711525 19.6018231,16.563415 C19.2149946,16.415305 19.021475,15.9816516 19.169585,15.5948231 C19.2049375,15.5024908 19.2289182,15.4058245 19.2409772,15.3065803 L19.2500559,15.156 L19.2500763,8.61446431 C19.2530654,8.20950348 19.0600024,7.83121786 18.737299,7.59561989 L18.6250209,7.5225311 C18.5933757,7.50426212 18.5638547,7.4845595 18.5364101,7.46360122 L18.496,7.428 L12.664214,3.95530999 C12.3131543,3.75988851 11.8944588,3.73817501 11.5415235,3.88259654 L11.4125159,3.9445274 L9.07651588,5.3345274 C8.72055322,5.54633737 8.26028257,5.42947853 8.0484726,5.07351588 C7.85431346,4.74721678 7.93632742,4.33326998 8.22552662,4.10339721 L8.30948412,4.0454726 L10.664214,2.64469001 C11.3952733,2.23773727 12.2628463,2.18138996 13.0438284,2.48262767 Z" id="Icon-Color" fill="#212121"></path>
    </g>
</svg>