<?xml version="1.0" encoding="UTF-8"?>
<svg width="24px" height="24px" viewBox="0 0 24 24" version="1.1" xmlns="http://www.w3.org/2000/svg" xmlns:xlink="http://www.w3.org/1999/xlink">
    <title>Icon/infinity</title>
    <g id="Icon/infinity" stroke="none" stroke-width="1" fill="none" fill-rule="evenodd">
        <path d="M13.337551,8.92866968 L13.6415898,8.64175 C14.9999675,7.28296208 17.0431397,6.87630931 18.8182692,7.61143499 C20.5933986,8.34656068 21.7508542,10.0786738 21.7508542,12 C21.7508542,13.9213262 20.5933986,15.6534393 18.8182692,16.388565 C17.1141449,17.0942857 15.1629924,16.7477433 13.8313362,15.5391203 L13.6681684,15.3835661 C13.1380859,14.9028451 12.6583977,14.3713721 12.2355704,13.7975667 L12,13.464 L11.766763,13.7953441 C11.4308345,14.252166 11.0608484,14.6796725 10.662449,15.0713303 L10.3584102,15.35825 C9.00003253,16.7170379 6.95686031,17.1236907 5.18173084,16.388565 C3.40660138,15.6534393 2.24914581,13.9213262 2.24914581,12 C2.24914581,10.0786738 3.40660138,8.34656068 5.18173084,7.61143499 C6.88585513,6.90571433 8.83700762,7.2522567 10.1921788,8.48327784 L10.643782,8.91088936 C11.0515149,9.31143738 11.4261677,9.74338897 11.7644296,10.2024333 L11.999,10.535 L12.233237,10.2046559 C12.5691655,9.74783405 12.9391516,9.32032754 13.337551,8.92866968 Z M18.2443486,8.99729763 C17.0937107,8.52078956 15.7784721,8.74542903 14.8303598,9.582414 L14.6758316,9.72756613 C14.0372671,10.3066673 13.4836932,10.9713622 13.0303781,11.7017714 L12.853,12 L13.0306698,12.2985064 C13.4201006,12.9254049 13.885816,13.5065239 14.4260761,14.0368455 L14.7024102,14.29775 C15.6318264,15.227447 17.0297864,15.5056831 18.2443486,15.0027024 C19.4589109,14.4997216 20.2508542,13.3145916 20.2508542,12 C20.2508542,10.6854084 19.4589109,9.50027836 18.2443486,8.99729763 Z M9.59259089,9.98093481 L9.29758984,9.70225 C8.36817357,8.772553 6.97021362,8.49431689 5.75565136,8.99729763 C4.5410891,9.50027836 3.74914581,10.6854084 3.74914581,12 C3.74914581,13.3145916 4.5410891,14.4997216 5.75565136,15.0027024 C6.9062893,15.4792104 8.22152792,15.254571 9.16964019,14.417586 L9.32416841,14.2724339 C9.96273291,13.6933327 10.5163068,13.0286378 10.9696219,12.2982286 L11.146,12 L10.9696219,11.7017714 C10.5810661,11.0757064 10.1188508,10.4979212 9.59259089,9.98093481 Z" id="Icon-Color" fill="#212121"></path>
    </g>
</svg>