<?xml version="1.0" encoding="UTF-8"?>
<svg width="24px" height="24px" viewBox="0 0 24 24" version="1.1" xmlns="http://www.w3.org/2000/svg" xmlns:xlink="http://www.w3.org/1999/xlink">
    <title>Icon/social/outline/instagram</title>
    <g id="Icon/social/outline/instagram" stroke="none" stroke-width="1" fill="none" fill-rule="evenodd">
        <path d="M12,2 C17.5228475,2 22,6.4771525 22,12 C22,17.5228475 17.5228475,22 12,22 C6.4771525,22 2,17.5228475 2,12 C2,6.4771525 6.4771525,2 12,2 Z M12,2.75 C6.89136606,2.75 2.75,6.89136606 2.75,12 C2.75,17.1086339 6.89136606,21.25 12,21.25 C17.1086339,21.25 21.25,17.1086339 21.25,12 C21.25,6.89136606 17.1086339,2.75 12,2.75 Z M14.2857143,7 C15.7292522,7 16.9095938,8.12687726 16.9950464,9.548939 L17,9.71428571 L17,14.2857143 C17,15.7292522 15.8731227,16.9095938 14.451061,16.9950464 L14.2857143,17 L9.71428571,17 C8.2707478,17 7.09040617,15.8731227 7.00495361,14.451061 L7,14.2857143 L7,9.71428571 C7,8.2707478 8.12687726,7.09040617 9.548939,7.00495361 L9.71428571,7 L14.2857143,7 Z M14.2857143,7.85714286 L9.71428571,7.85714286 C8.73745554,7.85714286 7.93677095,8.61131173 7.86273031,9.56915109 L7.85714286,9.71428571 L7.85714286,14.2857143 C7.85714286,15.2625445 8.61131173,16.063229 9.56915109,16.1372697 L9.71428571,16.1428571 L14.2857143,16.1428571 C15.2625445,16.1428571 16.063229,15.3886883 16.1372697,14.4308489 L16.1428571,14.2857143 L16.1428571,9.71428571 C16.1428571,8.68861404 15.311386,7.85714286 14.2857143,7.85714286 Z M12,9.85714286 C13.1834673,9.85714286 14.1428571,10.8165327 14.1428571,12 C14.1428571,13.1834673 13.1834673,14.1428571 12,14.1428571 C10.8165327,14.1428571 9.85714286,13.1834673 9.85714286,12 C9.85714286,10.8165327 10.8165327,9.85714286 12,9.85714286 Z M12,10.7142857 C11.2899196,10.7142857 10.7142857,11.2899196 10.7142857,12 C10.7142857,12.7100804 11.2899196,13.2857143 12,13.2857143 C12.7100804,13.2857143 13.2857143,12.7100804 13.2857143,12 C13.2857143,11.2899196 12.7100804,10.7142857 12,10.7142857 Z M14.5714286,9 C14.7883976,9 14.9677091,9.16123079 14.9960876,9.37041682 L15,9.42857143 C15,9.66583632 14.808122,9.85771429 14.5714286,9.85771429 C14.3544596,9.85771429 14.175148,9.6964835 14.1467695,9.48729746 L14.1428571,9.42914286 C14.1428571,9.19187796 14.3347351,9 14.5714286,9 Z" id="Icon-Color" fill="#212121"></path>
    </g>
</svg>