<?xml version="1.0" encoding="UTF-8"?>
<svg width="24px" height="24px" viewBox="0 0 24 24" version="1.1" xmlns="http://www.w3.org/2000/svg" xmlns:xlink="http://www.w3.org/1999/xlink">
    <title>Icon/layout-align-middle</title>
    <g id="Icon/layout-align-middle" stroke="none" stroke-width="1" fill="none" fill-rule="evenodd">
        <path d="M13,5.25 C14.5187831,5.25 15.75,6.48121694 15.75,8 L15.75,8 L15.75,11.25 L20,11.25 C20.4142136,11.25 20.75,11.5857864 20.75,12 C20.75,12.3796958 20.4678461,12.693491 20.1017706,12.7431534 L20,12.75 L15.75,12.75 L15.75,16 C15.75,17.4625318 14.6082954,18.6584043 13.1675223,18.7449812 L13,18.75 L11,18.75 C9.48121694,18.75 8.25,17.5187831 8.25,16 L8.25,16 L8.25,12.75 L4,12.75 C3.58578644,12.75 3.25,12.4142136 3.25,12 C3.25,11.6203042 3.53215388,11.306509 3.89822944,11.2568466 L4,11.25 L8.25,11.25 L8.25,8 C8.25,6.53746816 9.3917046,5.34159572 10.8324777,5.25501879 L11,5.25 Z M13,6.75 L11,6.75 C10.3096441,6.75 9.75,7.30964406 9.75,8 L9.75,8 L9.75,16 C9.75,16.6903559 10.3096441,17.25 11,17.25 L11,17.25 L13,17.25 C13.6903559,17.25 14.25,16.6903559 14.25,16 L14.25,16 L14.25,8 C14.25,7.30964406 13.6903559,6.75 13,6.75 L13,6.75 Z" id="Icon-Color" fill="#212121"></path>
    </g>
</svg>