<?xml version="1.0" encoding="UTF-8"?>
<svg width="24px" height="24px" viewBox="0 0 24 24" version="1.1" xmlns="http://www.w3.org/2000/svg" xmlns:xlink="http://www.w3.org/1999/xlink">
    <title>Icon/layout-cards</title>
    <g id="Icon/layout-cards" stroke="none" stroke-width="1" fill="none" fill-rule="evenodd">
        <path d="M8,3.25 C9.51878306,3.25 10.75,4.48121694 10.75,6 L10.75,6 L10.75,18 C10.75,19.5187831 9.51878306,20.75 8,20.75 L8,20.75 L6,20.75 C4.48121694,20.75 3.25,19.5187831 3.25,18 L3.25,18 L3.25,6 C3.25,4.48121694 4.48121694,3.25 6,3.25 L6,3.25 Z M8,4.75 L6,4.75 C5.30964406,4.75 4.75,5.30964406 4.75,6 L4.75,6 L4.75,18 C4.75,18.6903559 5.30964406,19.25 6,19.25 L6,19.25 L8,19.25 C8.69035594,19.25 9.25,18.6903559 9.25,18 L9.25,18 L9.25,6 C9.25,5.30964406 8.69035594,4.75 8,4.75 L8,4.75 Z M18,3.25 C19.5187831,3.25 20.75,4.48121694 20.75,6 L20.75,6 L20.75,12 C20.75,13.5187831 19.5187831,14.75 18,14.75 L18,14.75 L16,14.75 C14.4812169,14.75 13.25,13.5187831 13.25,12 L13.25,12 L13.25,6 C13.25,4.48121694 14.4812169,3.25 16,3.25 L16,3.25 Z M18,4.75 L16,4.75 C15.3096441,4.75 14.75,5.30964406 14.75,6 L14.75,6 L14.75,12 C14.75,12.6903559 15.3096441,13.25 16,13.25 L16,13.25 L18,13.25 C18.6903559,13.25 19.25,12.6903559 19.25,12 L19.25,12 L19.25,6 C19.25,5.30964406 18.6903559,4.75 18,4.75 L18,4.75 Z" id="Icon-Color" fill="#212121"></path>
    </g>
</svg>