<?xml version="1.0" encoding="UTF-8"?>
<svg width="24px" height="24px" viewBox="0 0 24 24" version="1.1" xmlns="http://www.w3.org/2000/svg" xmlns:xlink="http://www.w3.org/1999/xlink">
    <title>Icon/layout-grid-add</title>
    <g id="Icon/layout-grid-add" stroke="none" stroke-width="1" fill="none" fill-rule="evenodd">
        <path d="M9,13.25 C9.96649831,13.25 10.75,14.0335017 10.75,15 L10.75,15 L10.75,19 C10.75,19.9664983 9.96649831,20.75 9,20.75 L9,20.75 L5,20.75 C4.03350169,20.75 3.25,19.9664983 3.25,19 L3.25,19 L3.25,15 C3.25,14.0335017 4.03350169,13.25 5,13.25 L5,13.25 Z M17,13.25 C17.3796958,13.25 17.693491,13.5321539 17.7431534,13.8982294 L17.75,14 L17.75,16.25 L20,16.25 C20.4142136,16.25 20.75,16.5857864 20.75,17 C20.75,17.3796958 20.4678461,17.693491 20.1017706,17.7431534 L20,17.75 L17.75,17.75 L17.75,20 C17.75,20.4142136 17.4142136,20.75 17,20.75 C16.6203042,20.75 16.306509,20.4678461 16.2568466,20.1017706 L16.25,20 L16.25,17.75 L14,17.75 C13.5857864,17.75 13.25,17.4142136 13.25,17 C13.25,16.6203042 13.5321539,16.306509 13.8982294,16.2568466 L14,16.25 L16.25,16.25 L16.25,14 C16.25,13.5857864 16.5857864,13.25 17,13.25 Z M9,14.75 L5,14.75 C4.86192881,14.75 4.75,14.8619288 4.75,15 L4.75,15 L4.75,19 C4.75,19.1380712 4.86192881,19.25 5,19.25 L5,19.25 L9,19.25 C9.13807119,19.25 9.25,19.1380712 9.25,19 L9.25,19 L9.25,15 C9.25,14.8619288 9.13807119,14.75 9,14.75 L9,14.75 Z M9,3.25 C9.96649831,3.25 10.75,4.03350169 10.75,5 L10.75,5 L10.75,9 C10.75,9.96649831 9.96649831,10.75 9,10.75 L9,10.75 L5,10.75 C4.03350169,10.75 3.25,9.96649831 3.25,9 L3.25,9 L3.25,5 C3.25,4.03350169 4.03350169,3.25 5,3.25 L5,3.25 Z M19,3.25 C19.9664983,3.25 20.75,4.03350169 20.75,5 L20.75,5 L20.75,9 C20.75,9.96649831 19.9664983,10.75 19,10.75 L19,10.75 L15,10.75 C14.0335017,10.75 13.25,9.96649831 13.25,9 L13.25,9 L13.25,5 C13.25,4.03350169 14.0335017,3.25 15,3.25 L15,3.25 Z M9,4.75 L5,4.75 C4.86192881,4.75 4.75,4.86192881 4.75,5 L4.75,5 L4.75,9 C4.75,9.13807119 4.86192881,9.25 5,9.25 L5,9.25 L9,9.25 C9.13807119,9.25 9.25,9.13807119 9.25,9 L9.25,9 L9.25,5 C9.25,4.86192881 9.13807119,4.75 9,4.75 L9,4.75 Z M19,4.75 L15,4.75 C14.8619288,4.75 14.75,4.86192881 14.75,5 L14.75,5 L14.75,9 C14.75,9.13807119 14.8619288,9.25 15,9.25 L15,9.25 L19,9.25 C19.1380712,9.25 19.25,9.13807119 19.25,9 L19.25,9 L19.25,5 C19.25,4.86192881 19.1380712,4.75 19,4.75 L19,4.75 Z" id="Icon-Color" fill="#212121"></path>
    </g>
</svg>