<?xml version="1.0" encoding="UTF-8"?>
<svg width="24px" height="24px" viewBox="0 0 24 24" version="1.1" xmlns="http://www.w3.org/2000/svg" xmlns:xlink="http://www.w3.org/1999/xlink">
    <title>Icon/leaf</title>
    <g id="Icon/leaf" stroke="none" stroke-width="1" fill="none" fill-rule="evenodd">
        <path d="M20,3.25 C20.4142136,3.25 20.75,3.58578644 20.75,4 L20.75,4 L20.7487678,6.04297336 C20.2568288,14.6145188 16.1229706,18.75 9,18.75 L9,18.75 L6.17586225,18.7500571 C5.97982942,19.4796671 5.8371842,20.256881 5.7454128,21.0828236 C5.69967057,21.4945038 5.32885648,21.791155 4.91717636,21.7454128 C4.50549623,21.6996706 4.20884496,21.3288565 4.2545872,20.9171764 C4.37462229,19.8368605 4.57686403,18.825687 4.8648262,17.8838429 C3.65255483,16.42606 3.25119944,14.9563 3.23665934,13.2230653 L3.23665934,13.2230653 L3.23983997,12.7117202 C3.38408134,6.74121215 7.54060262,3.25 15.986,3.25 L15.986,3.25 Z M19.25,4.75 L15.986,4.75 C8.19052823,4.75 4.75074794,7.73392792 4.73599669,12.997772 L4.73599669,12.997772 L4.73662961,13.2145416 C4.74600348,14.3312044 4.94097938,15.2802474 5.50259971,16.2055244 C6.71355314,13.5914841 8.74413762,11.6263118 11.6953962,10.3146413 C12.0739093,10.1464133 12.5171306,10.316883 12.6853587,10.6953962 C12.8535867,11.0739093 12.683117,11.5171306 12.3046038,11.6853587 C9.54860809,12.9102457 7.71998872,14.744743 6.68236764,17.2498668 L9,17.25 C15.2049047,17.25 18.6884344,13.8668622 19.2255982,6.37787429 L19.2255982,6.37787429 L19.25,6 L19.25,4.75 Z" id="Icon-Color" fill="#212121"></path>
    </g>
</svg>