<?xml version="1.0" encoding="UTF-8"?>
<svg width="16px" height="10px" viewBox="0 0 16 10" version="1.1" xmlns="http://www.w3.org/2000/svg" xmlns:xlink="http://www.w3.org/1999/xlink">
    <title>Icon Color</title>
    <g id="🧠-Symbols" stroke="none" stroke-width="1" fill="none" fill-rule="evenodd">
        <g id="Icon/arrows/thin/left" transform="translate(-4.000000, -7.000000)" fill="#212121">
            <path d="M15.1234678,7.78254369 L15.1767767,7.8232233 L19.1767767,11.8232233 L19.1767767,11.8232233 C19.1916217,11.8385914 19.2018625,11.8515677 19.2107628,11.8654839 L19.1767767,11.8232233 C19.1952181,11.8416647 19.2101762,11.8622704 19.2216508,11.8842228 C19.2396593,11.9184813 19.25,11.9580331 19.25,12 C19.25,12.0325939 19.2437625,12.0637309 19.2324162,12.0922825 C19.228256,12.1027961 19.2232419,12.1132917 19.2174563,12.1234678 C19.210092,12.1359133 19.2046003,12.1440285 19.1986644,12.1517858 L19.1767767,12.1767767 L15.1767767,16.1767767 C15.0791456,16.2744078 14.9208544,16.2744078 14.8232233,16.1767767 C14.7418641,16.0954175 14.7283042,15.9719331 14.7825437,15.8765322 L14.8232233,15.8232233 L18.396,12.25 L5,12.25 C4.86192881,12.25 4.75,12.1380712 4.75,12 C4.75,11.8816533 4.83223341,11.7825132 4.94267729,11.7566027 L5,11.75 L18.397,11.75 L14.8232233,8.1767767 C14.7255922,8.07914562 14.7255922,7.92085438 14.8232233,7.8232233 C14.9045825,7.74186408 15.0280669,7.72830421 15.1234678,7.78254369 Z" id="Icon-Color" transform="translate(12.000000, 12.000000) scale(-1, 1) translate(-12.000000, -12.000000) "></path>
        </g>
    </g>
</svg>