<?xml version="1.0" encoding="UTF-8"?>
<svg width="24px" height="24px" viewBox="0 0 24 24" version="1.1" xmlns="http://www.w3.org/2000/svg" xmlns:xlink="http://www.w3.org/1999/xlink">
    <title>Icon/arrows/circle/fill/left</title>
    <g id="Icon/arrows/circle/fill/left" stroke="none" stroke-width="1" fill="none" fill-rule="evenodd">
        <path d="M12,21.5 C17.3847763,21.5 21.75,17.1347763 21.75,11.75 C21.75,6.36522369 17.3847763,2 12,2 C6.61522369,2 2.25,6.36522369 2.25,11.75 C2.25,17.1347763 6.61522369,21.5 12,21.5 Z M13.5768048,7.15458253 C13.7829148,6.94847249 14.1170852,6.94847249 14.3231952,7.15458253 C14.510568,7.3419553 14.5276019,7.63516308 14.3742969,7.84177857 L14.3231952,7.90097302 L10.4744074,11.75 L14.3231952,15.599027 C14.510568,15.7863997 14.5276019,16.0796075 14.3742969,16.286223 L14.3231952,16.3454175 C14.1358225,16.5327902 13.8426147,16.5498241 13.6359992,16.3965191 L13.5768048,16.3454175 L9.35458253,12.1231952 C9.16720977,11.9358225 9.15017588,11.6426147 9.30348087,11.4359992 L9.35458253,11.3768048 L13.5768048,7.15458253 Z" id="Icon-Color" fill="#212121"></path>
    </g>
</svg>