<?xml version="1.0" encoding="UTF-8"?>
<svg width="24px" height="24px" viewBox="0 0 24 24" version="1.1" xmlns="http://www.w3.org/2000/svg" xmlns:xlink="http://www.w3.org/1999/xlink">
    <title>Icon/letter-case-upper</title>
    <g id="Icon/letter-case-upper" stroke="none" stroke-width="1" fill="none" fill-rule="evenodd">
        <path d="M6.5,4.25000007 C8.77817459,4.25000007 10.6376867,6.04250707 10.7450991,8.29408374 L10.75,8.50000007 L10.75,19.0000001 C10.75,19.4142136 10.4142136,19.7500001 10,19.7500001 C9.62030423,19.7500001 9.30650904,19.4678462 9.25684662,19.1017706 L9.25,19.0000001 L9.25,13.75 L3.75,13.75 L3.75,19.0000001 C3.75,19.4142136 3.41421356,19.7500001 3,19.7500001 C2.62030423,19.7500001 2.30650904,19.4678462 2.25684662,19.1017706 L2.25,19.0000001 L2.25,8.50000007 C2.25,6.15278987 4.15278982,4.25000007 6.5,4.25000007 Z M17.5,4.25 C19.7781746,4.25 21.6376867,6.04250701 21.7450991,8.29408366 L21.75,8.5 L21.75,19 C21.75,19.4142136 21.4142136,19.75 21,19.75 C20.6203042,19.75 20.306509,19.4678461 20.2568466,19.1017706 L20.25,19 L20.25,13.75 L14.75,13.75 L14.75,19 C14.75,19.4142136 14.4142136,19.75 14,19.75 C13.6203042,19.75 13.306509,19.4678461 13.2568466,19.1017706 L13.25,19 L13.25,8.5 C13.25,6.15278981 15.1527898,4.25 17.5,4.25 Z M17.5,5.75 C16.0374682,5.75 14.8415957,6.8917046 14.7550188,8.33247767 L14.75,8.5 L14.75,12.25 L20.25,12.25 L20.25,8.5 C20.25,6.98121694 19.0187831,5.75 17.5,5.75 Z M6.5,5.75000007 C5.03746816,5.75000007 3.84159572,6.89170465 3.75501879,8.33247774 L3.75,8.50000007 L3.75,12.25 L9.25,12.25 L9.25,8.50000007 C9.25,6.98121699 8.01878306,5.75000007 6.5,5.75000007 Z" id="Icon-Color" fill="#212121"></path>
    </g>
</svg>