<?xml version="1.0" encoding="UTF-8"?>
<svg width="24px" height="24px" viewBox="0 0 24 24" version="1.1" xmlns="http://www.w3.org/2000/svg" xmlns:xlink="http://www.w3.org/1999/xlink">
    <title>Icon/letter-a</title>
    <g id="Icon/letter-a" stroke="none" stroke-width="1" fill="none" fill-rule="evenodd">
        <path d="M13,3.25 C15.5504817,3.25 17.6314697,5.26014129 17.7451121,7.782572 L17.75,8 L17.75,20 C17.75,20.4142136 17.4142136,20.75 17,20.75 C16.6203042,20.75 16.306509,20.4678461 16.2568466,20.1017706 L16.25,20 L16.25,13.75 L7.75,13.75 L7.75,20 C7.75,20.4142136 7.41421356,20.75 7,20.75 C6.62030423,20.75 6.30650904,20.4678461 6.25684662,20.1017706 L6.25,20 L6.25,8 C6.25,5.44951834 8.26014129,3.36853034 10.782572,3.25488786 L11,3.25 L13,3.25 Z M13,4.75 L11,4.75 C9.26696854,4.75 7.85075407,6.10645477 7.75514479,7.81557609 L7.75,8 L7.75,12.25 L16.25,12.25 L16.25,8 C16.25,6.26696854 14.8935452,4.85075407 13.1844239,4.75514479 L13,4.75 Z" id="Icon-Color" fill="#212121"></path>
    </g>
</svg>