<?xml version="1.0" encoding="UTF-8"?>
<svg width="24px" height="24px" viewBox="0 0 24 24" version="1.1" xmlns="http://www.w3.org/2000/svg" xmlns:xlink="http://www.w3.org/1999/xlink">
    <title>Icon/letter-case-lower</title>
    <g id="Icon/letter-case-lower" stroke="none" stroke-width="1" fill="none" fill-rule="evenodd">
        <path d="M10,11.25 C10.3796958,11.25 10.693491,11.5321539 10.7431534,11.8982294 L10.75,12 L10.75,19 C10.75,19.4142136 10.4142136,19.75 10,19.75 C9.62030423,19.75 9.30650904,19.4678461 9.25684662,19.1017706 L9.25,19 L9.25125024,18.7394213 C8.50985949,19.3697054 7.54934102,19.75 6.5,19.75 C4.15278981,19.75 2.25,17.8472102 2.25,15.5 C2.25,13.1527898 4.15278981,11.25 6.5,11.25 C7.54934102,11.25 8.50985949,11.6302946 9.25125024,12.2605787 L9.25,12 C9.25,11.5857864 9.58578644,11.25 10,11.25 Z M21,11.25 C21.3796958,11.25 21.693491,11.5321539 21.7431534,11.8982294 L21.75,12 L21.75,19 C21.75,19.4142136 21.4142136,19.75 21,19.75 C20.6203042,19.75 20.306509,19.4678461 20.2568466,19.1017706 L20.25,19 L20.2512502,18.7394213 C19.5098595,19.3697054 18.549341,19.75 17.5,19.75 C15.1527898,19.75 13.25,17.8472102 13.25,15.5 C13.25,13.1527898 15.1527898,11.25 17.5,11.25 C18.549341,11.25 19.5098595,11.6302946 20.2512502,12.2605787 L20.25,12 C20.25,11.5857864 20.5857864,11.25 21,11.25 Z M6.5,12.75 C4.98121694,12.75 3.75,13.9812169 3.75,15.5 C3.75,17.0187831 4.98121694,18.25 6.5,18.25 C8.01878306,18.25 9.25,17.0187831 9.25,15.5 C9.25,13.9812169 8.01878306,12.75 6.5,12.75 Z M17.5,12.75 C15.9812169,12.75 14.75,13.9812169 14.75,15.5 C14.75,17.0187831 15.9812169,18.25 17.5,18.25 C19.0187831,18.25 20.25,17.0187831 20.25,15.5 C20.25,13.9812169 19.0187831,12.75 17.5,12.75 Z" id="Icon-Color" fill="#212121"></path>
    </g>
</svg>