<?xml version="1.0" encoding="UTF-8"?>
<svg width="24px" height="24px" viewBox="0 0 24 24" version="1.1" xmlns="http://www.w3.org/2000/svg" xmlns:xlink="http://www.w3.org/1999/xlink">
    <title>Icon/license</title>
    <g id="Icon/license" stroke="none" stroke-width="1" fill="none" fill-rule="evenodd">
        <path d="M19,2.25 C20.5187831,2.25 21.75,3.48121694 21.75,5 C21.75,6.46253184 20.6082954,7.65840428 19.1675223,7.74498121 L19,7.75 L17.75,7.75 L17.75,19 C17.75,20.4625318 16.6082954,21.6584043 15.1675223,21.7449812 L15,21.75 L6,21.75 C3.99574083,21.75 2.35872626,20.1776389 2.25519801,18.1991586 L2.25,18 L2.25,17 C2.25,16.6203042 2.53215388,16.306509 2.89822944,16.2568466 L3,16.25 L4.25,16.25 L4.25,6 C4.25,3.99574083 5.82236105,2.35872626 7.80084143,2.25519801 L8,2.25 L19,2.25 Z M16.5497246,3.75025471 L8,3.75 C6.80913601,3.75 5.83435508,4.67516159 5.75519081,5.84595119 L5.75,6 L5.75,16.25 L13,16.25 C13.3796958,16.25 13.693491,16.5321539 13.7431534,16.8982294 L13.75,17 L13.75,19 C13.75,19.6903559 14.3096441,20.25 15,20.25 C15.6472087,20.25 16.1795339,19.7581253 16.2435464,19.1278052 L16.25,19 L16.25,5 C16.25,4.5499902 16.3580904,4.12522627 16.5497246,3.75025471 Z M12.25,17.75 L3.75,17.75 L3.75,18 C3.75,19.190864 4.67516159,20.1656449 5.84595119,20.2448092 L6,20.25 L12.55,20.25 C12.3820447,19.9216452 12.278328,19.5554228 12.2550188,19.1675223 L12.25,19 L12.25,17.75 Z M13,10.25 C13.4142136,10.25 13.75,10.5857864 13.75,11 C13.75,11.3796958 13.4678461,11.693491 13.1017706,11.7431534 L13,11.75 L9,11.75 C8.58578644,11.75 8.25,11.4142136 8.25,11 C8.25,10.6203042 8.53215388,10.306509 8.89822944,10.2568466 L9,10.25 L13,10.25 Z M13,6.25 C13.4142136,6.25 13.75,6.58578644 13.75,7 C13.75,7.37969577 13.4678461,7.69349096 13.1017706,7.74315338 L13,7.75 L9,7.75 C8.58578644,7.75 8.25,7.41421356 8.25,7 C8.25,6.62030423 8.53215388,6.30650904 8.89822944,6.25684662 L9,6.25 L13,6.25 Z M19,3.75 C18.3527913,3.75 17.8204661,4.24187466 17.7564536,4.87219476 L17.75,5 L17.75,6.25 L19,6.25 C19.6472087,6.25 20.1795339,5.75812534 20.2435464,5.12780524 L20.25,5 C20.25,4.30964406 19.6903559,3.75 19,3.75 Z" id="Icon-Color" fill="#212121"></path>
    </g>
</svg>