<?xml version="1.0" encoding="UTF-8"?>
<svg width="24px" height="24px" viewBox="0 0 24 24" version="1.1" xmlns="http://www.w3.org/2000/svg" xmlns:xlink="http://www.w3.org/1999/xlink">
    <title>Icon/line-dashed</title>
    <g id="Icon/line-dashed" stroke="none" stroke-width="1" fill="none" fill-rule="evenodd">
        <path d="M7,11.25 C7.41421356,11.25 7.75,11.5857864 7.75,12 C7.75,12.3796958 7.46784612,12.693491 7.10177056,12.7431534 L7,12.75 L5,12.75 C4.58578644,12.75 4.25,12.4142136 4.25,12 C4.25,11.6203042 4.53215388,11.306509 4.89822944,11.2568466 L5,11.25 L7,11.25 Z M19,11.25 C19.4142136,11.25 19.75,11.5857864 19.75,12 C19.75,12.3796958 19.4678461,12.693491 19.1017706,12.7431534 L19,12.75 L17,12.75 C16.5857864,12.75 16.25,12.4142136 16.25,12 C16.25,11.6203042 16.5321539,11.306509 16.8982294,11.2568466 L17,11.25 L19,11.25 Z M13,11.25 C13.4142136,11.25 13.75,11.5857864 13.75,12 C13.75,12.3796958 13.4678461,12.693491 13.1017706,12.7431534 L13,12.75 L11,12.75 C10.5857864,12.75 10.25,12.4142136 10.25,12 C10.25,11.6203042 10.5321539,11.306509 10.8982294,11.2568466 L11,11.25 L13,11.25 Z" id="Icon-Color" fill="#212121"></path>
    </g>
</svg>