<?xml version="1.0" encoding="UTF-8"?>
<svg width="24px" height="24px" viewBox="0 0 24 24" version="1.1" xmlns="http://www.w3.org/2000/svg" xmlns:xlink="http://www.w3.org/1999/xlink">
    <title>Icon/list</title>
    <g id="Icon/list" stroke="none" stroke-width="1" fill="none" fill-rule="evenodd">
        <path d="M5,17.25 C5.37969577,17.25 5.69349096,17.5321539 5.74315338,17.8982294 L5.75,18.01 C5.75,18.4242136 5.41421356,18.76 5,18.76 C4.62030423,18.76 4.30650904,18.4778461 4.25684662,18.1117706 L4.25,18 C4.25,17.5857864 4.58578644,17.25 5,17.25 Z M20,17.25 C20.4142136,17.25 20.75,17.5857864 20.75,18 C20.75,18.3796958 20.4678461,18.693491 20.1017706,18.7431534 L20,18.75 L9,18.75 C8.58578644,18.75 8.25,18.4142136 8.25,18 C8.25,17.6203042 8.53215388,17.306509 8.89822944,17.2568466 L9,17.25 L20,17.25 Z M5,11.25 C5.37969577,11.25 5.69349096,11.5321539 5.74315338,11.8982294 L5.75,12.01 C5.75,12.4242136 5.41421356,12.76 5,12.76 C4.62030423,12.76 4.30650904,12.4778461 4.25684662,12.1117706 L4.25,12 C4.25,11.5857864 4.58578644,11.25 5,11.25 Z M20,11.25 C20.4142136,11.25 20.75,11.5857864 20.75,12 C20.75,12.3796958 20.4678461,12.693491 20.1017706,12.7431534 L20,12.75 L9,12.75 C8.58578644,12.75 8.25,12.4142136 8.25,12 C8.25,11.6203042 8.53215388,11.306509 8.89822944,11.2568466 L9,11.25 L20,11.25 Z M5,5.25 C5.37969577,5.25 5.69349096,5.53215388 5.74315338,5.89822944 L5.75,6.01 C5.75,6.42421356 5.41421356,6.76 5,6.76 C4.62030423,6.76 4.30650904,6.47784612 4.25684662,6.11177056 L4.25,6 C4.25,5.58578644 4.58578644,5.25 5,5.25 Z M20,5.25 C20.4142136,5.25 20.75,5.58578644 20.75,6 C20.75,6.37969577 20.4678461,6.69349096 20.1017706,6.74315338 L20,6.75 L9,6.75 C8.58578644,6.75 8.25,6.41421356 8.25,6 C8.25,5.62030423 8.53215388,5.30650904 8.89822944,5.25684662 L9,5.25 L20,5.25 Z" id="Icon-Color" fill="#212121"></path>
    </g>
</svg>