<?xml version="1.0" encoding="UTF-8"?>
<svg width="24px" height="24px" viewBox="0 0 24 24" version="1.1" xmlns="http://www.w3.org/2000/svg" xmlns:xlink="http://www.w3.org/1999/xlink">
    <title>Icon/live-photo</title>
    <g id="Icon/live-photo" stroke="none" stroke-width="1" fill="none" fill-rule="evenodd">
        <path d="M12,20.25 C12.3796958,20.25 12.693491,20.5321539 12.7431534,20.8982294 L12.75,21.01 C12.75,21.4242136 12.4142136,21.76 12,21.76 C11.6203042,21.76 11.306509,21.4778461 11.2568466,21.1117706 L11.25,21 C11.25,20.5857864 11.5857864,20.25 12,20.25 Z M15.9,19.36 C16.2796958,19.36 16.593491,19.6421539 16.6431534,20.0082294 L16.65,20.12 C16.65,20.5342136 16.3142136,20.87 15.9,20.87 C15.5203042,20.87 15.206509,20.5878461 15.1568466,20.2217706 L15.15,20.11 C15.15,19.6957864 15.4857864,19.36 15.9,19.36 Z M8.1,19.36 C8.47969577,19.36 8.79349096,19.6421539 8.84315338,20.0082294 L8.85,20.12 C8.85,20.5342136 8.51421356,20.87 8.1,20.87 C7.72030423,20.87 7.40650904,20.5878461 7.35684662,20.2217706 L7.35,20.11 C7.35,19.6957864 7.68578644,19.36 8.1,19.36 Z M19.04,16.86 C19.4196958,16.86 19.733491,17.1421539 19.7831534,17.5082294 L19.79,17.62 C19.79,18.0342136 19.4542136,18.37 19.04,18.37 C18.6603042,18.37 18.346509,18.0878461 18.2968466,17.7217706 L18.29,17.61 C18.29,17.1957864 18.6257864,16.86 19.04,16.86 Z M4.96,16.86 C5.33969577,16.86 5.65349096,17.1421539 5.70315338,17.5082294 L5.71,17.62 C5.71,18.0342136 5.37421356,18.37 4.96,18.37 C4.58030423,18.37 4.26650904,18.0878461 4.21684662,17.7217706 L4.21,17.61 C4.21,17.1957864 4.54578644,16.86 4.96,16.86 Z M12,6.25 C15.1756373,6.25 17.75,8.82436269 17.75,12 C17.75,15.1756373 15.1756373,17.75 12,17.75 C8.82436269,17.75 6.25,15.1756373 6.25,12 C6.25,8.82436269 8.82436269,6.25 12,6.25 Z M12,7.75 C9.65278981,7.75 7.75,9.65278981 7.75,12 C7.75,14.3472102 9.65278981,16.25 12,16.25 C14.3472102,16.25 16.25,14.3472102 16.25,12 C16.25,9.65278981 14.3472102,7.75 12,7.75 Z M20.77,13.25 C21.1496958,13.25 21.463491,13.5321539 21.5131534,13.8982294 L21.52,14.01 C21.52,14.4242136 21.1842136,14.76 20.77,14.76 C20.3903042,14.76 20.076509,14.4778461 20.0268466,14.1117706 L20.02,14 C20.02,13.5857864 20.3557864,13.25 20.77,13.25 Z M3.23,13.25 C3.60969577,13.25 3.92349096,13.5321539 3.97315338,13.8982294 L3.98,14.01 C3.98,14.4242136 3.64421356,14.76 3.23,14.76 C2.85030423,14.76 2.53650904,14.4778461 2.48684662,14.1117706 L2.48,14 C2.48,13.5857864 2.81578644,13.25 3.23,13.25 Z M12,10.25 C12.9664983,10.25 13.75,11.0335017 13.75,12 C13.75,12.9664983 12.9664983,13.75 12,13.75 C11.0335017,13.75 10.25,12.9664983 10.25,12 C10.25,11.0335017 11.0335017,10.25 12,10.25 Z M12,11.75 C11.8619288,11.75 11.75,11.8619288 11.75,12 C11.75,12.1380712 11.8619288,12.25 12,12.25 C12.1380712,12.25 12.25,12.1380712 12.25,12 C12.25,11.8619288 12.1380712,11.75 12,11.75 Z M20.77,9.25 C21.1496958,9.25 21.463491,9.53215388 21.5131534,9.89822944 L21.52,10.01 C21.52,10.4242136 21.1842136,10.76 20.77,10.76 C20.3903042,10.76 20.076509,10.4778461 20.0268466,10.1117706 L20.02,10 C20.02,9.58578644 20.3557864,9.25 20.77,9.25 Z M3.23,9.25 C3.60969577,9.25 3.92349096,9.53215388 3.97315338,9.89822944 L3.98,10.01 C3.98,10.4242136 3.64421356,10.76 3.23,10.76 C2.85030423,10.76 2.53650904,10.4778461 2.48684662,10.1117706 L2.48,10 C2.48,9.58578644 2.81578644,9.25 3.23,9.25 Z M19.04,5.64 C19.4196958,5.64 19.733491,5.92215388 19.7831534,6.28822944 L19.79,6.4 C19.79,6.81421356 19.4542136,7.15 19.04,7.15 C18.6603042,7.15 18.346509,6.86784612 18.2968466,6.50177056 L18.29,6.39 C18.29,5.97578644 18.6257864,5.64 19.04,5.64 Z M4.96,5.64 C5.33969577,5.64 5.65349096,5.92215388 5.70315338,6.28822944 L5.71,6.4 C5.71,6.81421356 5.37421356,7.15 4.96,7.15 C4.58030423,7.15 4.26650904,6.86784612 4.21684662,6.50177056 L4.21,6.39 C4.21,5.97578644 4.54578644,5.64 4.96,5.64 Z M15.9,3.14 C16.2796958,3.14 16.593491,3.42215388 16.6431534,3.78822944 L16.65,3.9 C16.65,4.31421356 16.3142136,4.65 15.9,4.65 C15.5203042,4.65 15.206509,4.36784612 15.1568466,4.00177056 L15.15,3.89 C15.15,3.47578644 15.4857864,3.14 15.9,3.14 Z M8.1,3.14 C8.47969577,3.14 8.79349096,3.42215388 8.84315338,3.78822944 L8.85,3.9 C8.85,4.31421356 8.51421356,4.65 8.1,4.65 C7.72030423,4.65 7.40650904,4.36784612 7.35684662,4.00177056 L7.35,3.89 C7.35,3.47578644 7.68578644,3.14 8.1,3.14 Z M12,2.25 C12.3796958,2.25 12.693491,2.53215388 12.7431534,2.89822944 L12.75,3.01 C12.75,3.42421356 12.4142136,3.76 12,3.76 C11.6203042,3.76 11.306509,3.47784612 11.2568466,3.11177056 L11.25,3 C11.25,2.58578644 11.5857864,2.25 12,2.25 Z" id="Icon-Color" fill="#212121"></path>
    </g>
</svg>