<?xml version="1.0" encoding="UTF-8"?>
<svg width="24px" height="24px" viewBox="0 0 24 24" version="1.1" xmlns="http://www.w3.org/2000/svg" xmlns:xlink="http://www.w3.org/1999/xlink">
    <title>Icon/live-view</title>
    <g id="Icon/live-view" stroke="none" stroke-width="1" fill="none" fill-rule="evenodd">
        <path d="M4,15.25 C4.37969577,15.25 4.69349096,15.5321539 4.74315338,15.8982294 L4.75,16 L4.75,18 C4.75,18.6472087 5.24187466,19.1795339 5.87219476,19.2435464 L6,19.25 L8,19.25 C8.41421356,19.25 8.75,19.5857864 8.75,20 C8.75,20.3796958 8.46784612,20.693491 8.10177056,20.7431534 L8,20.75 L6,20.75 C4.53746816,20.75 3.34159572,19.6082954 3.25501879,18.1675223 L3.25,18 L3.25,16 C3.25,15.5857864 3.58578644,15.25 4,15.25 Z M20,15.25 C20.3796958,15.25 20.693491,15.5321539 20.7431534,15.8982294 L20.75,16 L20.75,18 C20.75,19.4625318 19.6082954,20.6584043 18.1675223,20.7449812 L18,20.75 L16,20.75 C15.5857864,20.75 15.25,20.4142136 15.25,20 C15.25,19.6203042 15.5321539,19.306509 15.8982294,19.2568466 L16,19.25 L18,19.25 C18.6472087,19.25 19.1795339,18.7581253 19.2435464,18.1278052 L19.25,18 L19.25,16 C19.25,15.5857864 19.5857864,15.25 20,15.25 Z M15.0310636,7.40630264 C16.730513,8.81479308 17.2287476,11.1995212 16.2237626,13.2222004 L16.1144239,13.4300968 L12.5893406,18.4641922 L12.5442055,18.5162285 L12.5162285,18.5442055 L12.4641922,18.5893406 L12.4300968,18.6144239 L12.3759999,18.6491481 L12.3346383,18.6713186 L12.2812443,18.6953658 L12.2344331,18.7126275 L12.1310969,18.7386358 L12.0262452,18.7496286 L11.9737548,18.7496286 L11.921494,18.7458912 L11.8689031,18.7386358 L11.818459,18.7277085 L11.7655669,18.7126275 L11.7187557,18.6953658 L11.6653617,18.6713186 L11.6240001,18.6491481 L11.5699032,18.6144239 L11.5358078,18.5893406 L11.4837715,18.5442055 L11.4557945,18.5162285 L11.4106594,18.4641922 L7.84375,13.3630922 C6.7383197,11.3651461 7.21088528,8.86336172 8.9689364,7.40630264 C10.7269875,5.94924356 13.2730125,5.94924356 15.0310636,7.40630264 Z M9.92611438,8.5612097 C8.7755363,9.51479985 8.42968163,11.1223957 9.0270983,12.3980942 L9.11442394,12.5699032 L12,16.692 L14.84375,12.6369078 C15.5685826,11.326851 15.3018328,9.70019196 14.2196498,8.68947293 L14.0738856,8.5612097 C12.8710085,7.56427454 11.1289915,7.56427454 9.92611438,8.5612097 Z M12,10.25 C12.3796958,10.25 12.693491,10.5321539 12.7431534,10.8982294 L12.75,11.01 C12.75,11.4242136 12.4142136,11.76 12,11.76 C11.6203042,11.76 11.306509,11.4778461 11.2568466,11.1117706 L11.25,11 C11.25,10.5857864 11.5857864,10.25 12,10.25 Z M8,3.25 C8.41421356,3.25 8.75,3.58578644 8.75,4 C8.75,4.37969577 8.46784612,4.69349096 8.10177056,4.74315338 L8,4.75 L6,4.75 C5.35279131,4.75 4.8204661,5.24187466 4.75645361,5.87219476 L4.75,6 L4.75,8 C4.75,8.41421356 4.41421356,8.75 4,8.75 C3.62030423,8.75 3.30650904,8.46784612 3.25684662,8.10177056 L3.25,8 L3.25,6 C3.25,4.53746816 4.3917046,3.34159572 5.83247767,3.25501879 L6,3.25 L8,3.25 Z M18,3.25 C19.4625318,3.25 20.6584043,4.3917046 20.7449812,5.83247767 L20.75,6 L20.75,8 C20.75,8.41421356 20.4142136,8.75 20,8.75 C19.6203042,8.75 19.306509,8.46784612 19.2568466,8.10177056 L19.25,8 L19.25,6 C19.25,5.35279131 18.7581253,4.8204661 18.1278052,4.75645361 L18,4.75 L16,4.75 C15.5857864,4.75 15.25,4.41421356 15.25,4 C15.25,3.62030423 15.5321539,3.30650904 15.8982294,3.25684662 L16,3.25 L18,3.25 Z" id="Icon-Color" fill="#212121"></path>
    </g>
</svg>