<?xml version="1.0" encoding="UTF-8"?>
<svg width="24px" height="24px" viewBox="0 0 24 24" version="1.1" xmlns="http://www.w3.org/2000/svg" xmlns:xlink="http://www.w3.org/1999/xlink">
    <title>Icon/lock-open</title>
    <g id="Icon/lock-open" stroke="none" stroke-width="1" fill="none" fill-rule="evenodd">
        <path d="M12,1.25 C14.6233526,1.25 16.75,3.37664744 16.75,6 C16.75,6.41421356 16.4142136,6.75 16,6.75 C15.5857864,6.75 15.25,6.41421356 15.25,6 C15.25,4.20507456 13.7949254,2.75 12,2.75 C10.2669685,2.75 8.85075407,4.10645477 8.75514479,5.81557609 L8.75,6 L8.75,10.25 L17,10.25 C18.4625318,10.25 19.6584043,11.3917046 19.7449812,12.8324777 L19.75,13 L19.75,19 C19.75,20.5187831 18.5187831,21.75 17,21.75 L17,21.75 L7,21.75 C5.48121694,21.75 4.25,20.5187831 4.25,19 L4.25,19 L4.25,13 C4.25,11.4812169 5.48121694,10.25 7,10.25 L7,10.25 L7.25,10.25 L7.25,6 C7.25,3.37664744 9.37664744,1.25 12,1.25 Z M17,11.75 L7,11.75 C6.30964406,11.75 5.75,12.3096441 5.75,13 L5.75,13 L5.75,19 C5.75,19.6903559 6.30964406,20.25 7,20.25 L7,20.25 L17,20.25 C17.6903559,20.25 18.25,19.6903559 18.25,19 L18.25,19 L18.25,13 C18.25,12.3096441 17.6903559,11.75 17,11.75 L17,11.75 Z M12,14.25 C12.9664983,14.25 13.75,15.0335017 13.75,16 C13.75,16.9664983 12.9664983,17.75 12,17.75 C11.0335017,17.75 10.25,16.9664983 10.25,16 C10.25,15.0335017 11.0335017,14.25 12,14.25 Z M12,15.75 C11.8619288,15.75 11.75,15.8619288 11.75,16 C11.75,16.1380712 11.8619288,16.25 12,16.25 C12.1380712,16.25 12.25,16.1380712 12.25,16 C12.25,15.8619288 12.1380712,15.75 12,15.75 Z" id="Icon-Color" fill="#212121"></path>
    </g>
</svg>