<?xml version="1.0" encoding="UTF-8"?>
<svg width="24px" height="24px" viewBox="0 0 24 24" version="1.1" xmlns="http://www.w3.org/2000/svg" xmlns:xlink="http://www.w3.org/1999/xlink">
    <title>Icon/magnet</title>
    <g id="Icon/magnet" stroke="none" stroke-width="1" fill="none" fill-rule="evenodd">
        <path d="M7,2.25 C8.46253184,2.25 9.65840428,3.3917046 9.74498121,4.83247767 L9.75,5 L9.75,13 C9.75,14.2426407 10.7573593,15.25 12,15.25 C13.190864,15.25 14.1656449,14.3248384 14.2448092,13.1540488 L14.25,13 L14.25,5 C14.25,3.53746816 15.3917046,2.34159572 16.8324777,2.25501879 L17,2.25 L18,2.25 C19.4625318,2.25 20.6584043,3.3917046 20.7449812,4.83247767 L20.75,5 L20.75,13 C20.75,17.8324916 16.8324916,21.75 12,21.75 C7.25380293,21.75 3.39020278,17.9711534 3.25373052,13.2579911 L3.25,13 L3.25,5 C3.25,3.53746816 4.3917046,2.34159572 5.83247767,2.25501879 L6,2.25 L7,2.25 Z M19.1017706,8.74315338 L19,8.75 L15.75,8.75 L15.75,13 C15.75,15.0710678 14.0710678,16.75 12,16.75 C9.99574083,16.75 8.35872626,15.1776389 8.25519801,13.1991586 L8.25,13 L8.25,8.75 L4.75,8.75 L4.75,13 C4.75,17.0040644 7.99593556,20.25 12,20.25 C15.9239831,20.25 19.1198593,17.1326035 19.2461248,13.2393142 L19.25,13 L19.2513685,8.70683838 C19.203551,8.72384443 19.1534986,8.73613587 19.1017706,8.74315338 Z M18,3.75 L17,3.75 C16.3527913,3.75 15.8204661,4.24187466 15.7564536,4.87219476 L15.75,5 L15.75,7.25 L19,7.25 C19.0881705,7.25 19.1727874,7.26521461 19.2513685,7.29316162 L19.25,5 C19.25,4.35279131 18.7581253,3.8204661 18.1278052,3.75645361 L18,3.75 Z M7,3.75 L6,3.75 C5.35279131,3.75 4.8204661,4.24187466 4.75645361,4.87219476 L4.75,5 L4.75,7.25 L8.25,7.25 L8.25,5 C8.25,4.35279131 7.75812534,3.8204661 7.12780524,3.75645361 L7,3.75 Z" id="Icon-Color" fill="#212121"></path>
    </g>
</svg>