<?xml version="1.0" encoding="UTF-8"?>
<svg width="24px" height="24px" viewBox="0 0 24 24" version="1.1" xmlns="http://www.w3.org/2000/svg" xmlns:xlink="http://www.w3.org/1999/xlink">
    <title>Icon/mail-forward</title>
    <g id="Icon/mail-forward" stroke="none" stroke-width="1" fill="none" fill-rule="evenodd">
        <path d="M18.4462117,14.3970518 L18.5303301,14.4696699 L21.5303301,17.4696699 C21.5557782,17.495118 21.5794061,17.5223864 21.6010016,17.551263 L21.5303301,17.4696699 C21.5673834,17.5067232 21.5997491,17.5466889 21.6274273,17.5888302 C21.6405922,17.6089851 21.6529723,17.6299725 21.664329,17.6515818 C21.6691626,17.6607036 21.6735192,17.6694344 21.6776949,17.6782296 C21.690442,17.7050181 21.7019466,17.7334779 21.7116971,17.7627395 C21.7139554,17.7696832 21.7158799,17.7757544 21.7177252,17.7818445 C21.7386468,17.8503231 21.75,17.9238357 21.75,18 C21.75,18.0383922 21.7471153,18.0761107 21.7415508,18.1129505 C21.7397462,18.1245181 21.7376905,18.1362278 21.7353557,18.1478927 C21.730412,18.1728958 21.7242388,18.1971921 21.7169138,18.2209837 C21.7133925,18.2323004 21.7094833,18.244011 21.7052774,18.2556385 C21.6966993,18.2793003 21.687275,18.301703 21.6768269,18.3235218 C21.6713347,18.3351229 21.6650317,18.3474599 21.658365,18.359651 C21.6453236,18.3833134 21.6314487,18.4057063 21.6164709,18.4272756 C21.6123259,18.4333597 21.6076945,18.4398149 21.6029482,18.4462117 C21.5861456,18.468419 21.5727652,18.484668 21.5587366,18.5003239 L21.5303301,18.5303301 L18.5303301,21.5303301 C18.2374369,21.8232233 17.7625631,21.8232233 17.4696699,21.5303301 C17.2034034,21.2640635 17.1791973,20.8473998 17.3970518,20.5537883 L17.4696699,20.4696699 L19.189,18.75 L15,18.75 C14.5857864,18.75 14.25,18.4142136 14.25,18 C14.25,17.6203042 14.5321539,17.306509 14.8982294,17.2568466 L15,17.25 L19.189,17.25 L17.4696699,15.5303301 C17.2034034,15.2640635 17.1791973,14.8473998 17.3970518,14.5537883 L17.4696699,14.4696699 C17.7359365,14.2034034 18.1526002,14.1791973 18.4462117,14.3970518 Z M19,3.25 C20.4625318,3.25 21.6584043,4.3917046 21.7449812,5.83247767 L21.75,6 L21.75,13.5 C21.75,13.9142136 21.4142136,14.25 21,14.25 C20.6203042,14.25 20.306509,13.9678461 20.2568466,13.6017706 L20.25,13.5 L20.25,7.401 L12.4160251,12.6240377 C12.1955912,12.7709937 11.9167579,12.7893632 11.6817241,12.6791462 L11.5839749,12.6240377 L3.75,7.402 L3.75,16 C3.75,16.6472087 4.24187466,17.1795339 4.87219476,17.2435464 L5,17.25 L12,17.25 C12.4142136,17.25 12.75,17.5857864 12.75,18 C12.75,18.3796958 12.4678461,18.693491 12.1017706,18.7431534 L12,18.75 L5,18.75 C3.53746816,18.75 2.34159572,17.6082954 2.25501879,16.1675223 L2.25,16 L2.25,6 C2.25,4.53746816 3.3917046,3.34159572 4.83247767,3.25501879 L5,3.25 L19,3.25 Z M19,4.75 L5,4.75 C4.43692844,4.75 3.96081219,5.12229993 3.80438545,5.63416559 L12,11.097 L20.1956145,5.63416559 C20.0511745,5.16152336 19.6341624,4.80787698 19.1278052,4.75645361 L19,4.75 Z" id="Icon-Color" fill="#212121"></path>
    </g>
</svg>