<?xml version="1.0" encoding="UTF-8"?>
<svg width="24px" height="24px" viewBox="0 0 24 24" version="1.1" xmlns="http://www.w3.org/2000/svg" xmlns:xlink="http://www.w3.org/1999/xlink">
    <title>Icon/map</title>
    <g id="Icon/map" stroke="none" stroke-width="1" fill="none" fill-rule="evenodd">
        <path d="M14.8982294,20.7431534 C14.881669,20.7406641 14.8729747,20.7392234 14.8643019,20.7376285 C14.8349581,20.7323742 14.8066468,20.7254208 14.7790163,20.7169138 C14.7775088,20.7162511 14.7752189,20.7155357 14.7729318,20.7148091 L14.7597057,20.7106789 C14.7311539,20.7010284 14.7033725,20.6897055 14.6764782,20.6768269 L14.6645898,20.6708204 L9,17.838 L3.3354102,20.6708204 C2.86790162,20.9045747 2.32299782,20.6004738 2.25671105,20.1021521 L2.25,20 L2.25147831,6.95104097 L2.25684662,6.89822944 L2.26399429,6.85560492 L2.27679072,6.80062029 L2.30893872,6.70806615 L2.32455838,6.67391264 L2.37180723,6.5900542 L2.42983443,6.51245278 L2.46966991,6.46966991 L2.54169736,6.40627192 L2.57662535,6.38081658 L2.62146064,6.35239699 L8.6645898,3.32917961 L8.67647821,3.32317314 C8.70337253,3.31029449 8.73115389,3.29897163 8.75970572,3.28932109 L8.6645898,3.32917961 C8.70196071,3.31049415 8.74050269,3.29511586 8.7798012,3.28304473 C8.80728661,3.27438226 8.83626959,3.26730457 8.86585606,3.2619623 C8.87431685,3.26055511 8.88234136,3.25923656 8.8903807,3.25804934 C8.92596603,3.2527281 8.96266442,3.25 9,3.25 C9.03733558,3.25 9.07403397,3.2527281 9.10990672,3.25799583 C9.11762971,3.25923181 9.12566872,3.2605525 9.13368956,3.26200499 C9.16373041,3.26730457 9.19271339,3.27438226 9.22098366,3.28308617 C9.22249122,3.28374888 9.22478105,3.28446428 9.22706824,3.28519094 L9.24029428,3.28932109 C9.26884611,3.29897163 9.29662747,3.31029449 9.32352179,3.32317314 L9.3354102,3.32917961 L15,6.161 L20.6645898,3.32917961 C21.1320984,3.09542532 21.6770022,3.39952623 21.743289,3.89784788 L21.75,4 L21.75,17 C21.75,17.2485692 21.6271158,17.4784711 21.4261757,17.6171722 L21.3354102,17.6708204 L15.3354102,20.6708204 L15.3235218,20.6768269 C15.2966275,20.6897055 15.2688461,20.7010284 15.2402943,20.7106789 L15.3354102,20.6708204 C15.2980393,20.6895058 15.2594973,20.7048841 15.2201988,20.7169553 C15.1933532,20.7254208 15.1650419,20.7323742 15.1361518,20.7376723 C15.1270109,20.7392261 15.1183021,20.7406689 15.1095758,20.7419571 C15.1071993,20.7424017 15.1044873,20.7427848 15.1017706,20.7431534 L15,20.75 L15,20.75 L14.8982294,20.7431534 L14.8982294,20.7431534 Z M8.25,5.21203234 L3.75,7.463 L3.75,18.786 L8.25,16.5360323 L8.25,5.21203234 Z M9.75,5.21203234 L9.75,16.5360323 L14.25,18.7850323 L14.25,7.46303234 L9.75,5.21203234 Z M20.25,5.213 L15.75,7.46203234 L15.75,18.7850323 L20.25,16.536 L20.25,5.213 Z" id="Icon-Color" fill="#212121"></path>
    </g>
</svg>