<?xml version="1.0" encoding="UTF-8"?>
<svg width="24px" height="24px" viewBox="0 0 24 24" version="1.1" xmlns="http://www.w3.org/2000/svg" xmlns:xlink="http://www.w3.org/1999/xlink">
    <title>Icon/mask</title>
    <g id="Icon/mask" stroke="none" stroke-width="1" fill="none" fill-rule="evenodd">
        <path d="M18,3.25 C19.5187831,3.25 20.75,4.48121694 20.75,6 L20.75,6 L20.75,18 C20.75,19.5187831 19.5187831,20.75 18,20.75 L18,20.75 L6,20.75 C4.48121694,20.75 3.25,19.5187831 3.25,18 L3.25,18 L3.25,6 C3.25,4.48121694 4.48121694,3.25 6,3.25 L6,3.25 Z M18,4.75 L6,4.75 C5.30964406,4.75 4.75,5.30964406 4.75,6 L4.75,6 L4.75,18 C4.75,18.6903559 5.30964406,19.25 6,19.25 L6,19.25 L18,19.25 C18.6903559,19.25 19.25,18.6903559 19.25,18 L19.25,18 L19.25,6 C19.25,5.30964406 18.6903559,4.75 18,4.75 L18,4.75 Z M12,8.25 C14.0710678,8.25 15.75,9.92893219 15.75,12 C15.75,14.0710678 14.0710678,15.75 12,15.75 C9.92893219,15.75 8.25,14.0710678 8.25,12 C8.25,9.92893219 9.92893219,8.25 12,8.25 Z M12,9.75 C10.7573593,9.75 9.75,10.7573593 9.75,12 C9.75,13.2426407 10.7573593,14.25 12,14.25 C13.2426407,14.25 14.25,13.2426407 14.25,12 C14.25,10.7573593 13.2426407,9.75 12,9.75 Z" id="Icon-Color" fill="#212121"></path>
    </g>
</svg>