<?xml version="1.0" encoding="UTF-8"?>
<svg width="24px" height="24px" viewBox="0 0 24 24" version="1.1" xmlns="http://www.w3.org/2000/svg" xmlns:xlink="http://www.w3.org/1999/xlink">
    <title>Icon/massage</title>
    <g id="Icon/massage" stroke="none" stroke-width="1" fill="none" fill-rule="evenodd">
        <path d="M20,16.25 C20.4142136,16.25 20.75,16.5857864 20.75,17 C20.75,17.3796958 20.4678461,17.693491 20.1017706,17.7431534 L20,17.75 L8.75,17.75 L8.75,20 C8.75,20.2485692 8.62711582,20.4784711 8.42617566,20.6171722 L8.3354102,20.6708204 L4.3354102,22.6708204 C3.96492632,22.8560623 3.51442154,22.7058941 3.32917961,22.3354102 C3.1593745,21.9958 3.27140712,21.58895 3.57662535,21.3808166 L3.6645898,21.3291796 L7.25,19.536 L7.25,17 C7.25,16.6203042 7.53215388,16.306509 7.89822944,16.2568466 L8,16.25 L20,16.25 Z M20,19.25 C20.4142136,19.25 20.75,19.5857864 20.75,20 C20.75,20.3796958 20.4678461,20.693491 20.1017706,20.7431534 L20,20.75 L11,20.75 C10.5857864,20.75 10.25,20.4142136 10.25,20 C10.25,19.6203042 10.5321539,19.306509 10.8982294,19.2568466 L11,19.25 L20,19.25 Z M4,15.25 C4.96649831,15.25 5.75,16.0335017 5.75,17 C5.75,17.9664983 4.96649831,18.75 4,18.75 C3.03350169,18.75 2.25,17.9664983 2.25,17 C2.25,16.0335017 3.03350169,15.25 4,15.25 Z M4,16.75 C3.86192881,16.75 3.75,16.8619288 3.75,17 C3.75,17.1380712 3.86192881,17.25 4,17.25 C4.13807119,17.25 4.25,17.1380712 4.25,17 C4.25,16.8619288 4.13807119,16.75 4,16.75 Z M12.2371708,7.28848753 C14.3027918,7.97702786 15.3219246,9.50572706 15.631351,11.6717118 C15.6760225,11.9844121 15.7045978,12.2686199 15.7224801,12.5880258 L15.7391522,12.9922842 L15.7476339,13.4547898 L15.75,14 C15.75,14.4142136 15.4142136,14.75 15,14.75 C14.5857864,14.75 14.25,14.4142136 14.25,14 L14.2448939,13.2685182 L14.2340125,12.8729561 L14.2151287,12.5251393 C14.2112183,12.4699139 14.2069024,12.4157519 14.2021447,12.3621903 L14.1680102,12.0443206 C14.1613416,11.9913083 14.1541591,11.9379704 14.1464268,11.8838438 C13.9672983,10.6299442 13.527051,9.73206808 12.6877927,9.15956566 L12.51,9.047 L11.7276069,12.1819017 C11.6914061,12.3267048 11.6130675,12.4565545 11.5036975,12.5556907 L11.4160251,12.6240377 L8.41602515,14.6240377 C8.07137863,14.8538021 7.60572662,14.7606717 7.37596228,14.4160251 C7.1670856,14.1027101 7.22506409,13.6893906 7.49626991,13.4442056 L7.58397485,13.3759623 L10.343,11.535 L11.2723931,7.81809828 C11.3783527,7.39425997 11.8227077,7.15033314 12.2371708,7.28848753 Z M9,3.25 C9.96649831,3.25 10.75,4.03350169 10.75,5 C10.75,5.96649831 9.96649831,6.75 9,6.75 C8.03350169,6.75 7.25,5.96649831 7.25,5 C7.25,4.03350169 8.03350169,3.25 9,3.25 Z M9,4.75 C8.86192881,4.75 8.75,4.86192881 8.75,5 C8.75,5.13807119 8.86192881,5.25 9,5.25 C9.13807119,5.25 9.25,5.13807119 9.25,5 C9.25,4.86192881 9.13807119,4.75 9,4.75 Z" id="Icon-Color" fill="#212121"></path>
    </g>
</svg>