<?xml version="1.0" encoding="UTF-8"?>
<svg width="24px" height="24px" viewBox="0 0 24 24" version="1.1" xmlns="http://www.w3.org/2000/svg" xmlns:xlink="http://www.w3.org/1999/xlink">
    <title>Icon/maximize</title>
    <g id="Icon/maximize" stroke="none" stroke-width="1" fill="none" fill-rule="evenodd">
        <path d="M4,15.25 C4.37969577,15.25 4.69349096,15.5321539 4.74315338,15.8982294 L4.75,16 L4.75,18 C4.75,18.6472087 5.24187466,19.1795339 5.87219476,19.2435464 L6,19.25 L8,19.25 C8.41421356,19.25 8.75,19.5857864 8.75,20 C8.75,20.3796958 8.46784612,20.693491 8.10177056,20.7431534 L8,20.75 L6,20.75 C4.53746816,20.75 3.34159572,19.6082954 3.25501879,18.1675223 L3.25,18 L3.25,16 C3.25,15.5857864 3.58578644,15.25 4,15.25 Z M20,15.25 C20.3796958,15.25 20.693491,15.5321539 20.7431534,15.8982294 L20.75,16 L20.75,18 C20.75,19.4625318 19.6082954,20.6584043 18.1675223,20.7449812 L18,20.75 L16,20.75 C15.5857864,20.75 15.25,20.4142136 15.25,20 C15.25,19.6203042 15.5321539,19.306509 15.8982294,19.2568466 L16,19.25 L18,19.25 C18.6472087,19.25 19.1795339,18.7581253 19.2435464,18.1278052 L19.25,18 L19.25,16 C19.25,15.5857864 19.5857864,15.25 20,15.25 Z M8,3.25 C8.41421356,3.25 8.75,3.58578644 8.75,4 C8.75,4.37969577 8.46784612,4.69349096 8.10177056,4.74315338 L8,4.75 L6,4.75 C5.35279131,4.75 4.8204661,5.24187466 4.75645361,5.87219476 L4.75,6 L4.75,8 C4.75,8.41421356 4.41421356,8.75 4,8.75 C3.62030423,8.75 3.30650904,8.46784612 3.25684662,8.10177056 L3.25,8 L3.25,6 C3.25,4.53746816 4.3917046,3.34159572 5.83247767,3.25501879 L6,3.25 L8,3.25 Z M18,3.25 C19.4625318,3.25 20.6584043,4.3917046 20.7449812,5.83247767 L20.75,6 L20.75,8 C20.75,8.41421356 20.4142136,8.75 20,8.75 C19.6203042,8.75 19.306509,8.46784612 19.2568466,8.10177056 L19.25,8 L19.25,6 C19.25,5.35279131 18.7581253,4.8204661 18.1278052,4.75645361 L18,4.75 L16,4.75 C15.5857864,4.75 15.25,4.41421356 15.25,4 C15.25,3.62030423 15.5321539,3.30650904 15.8982294,3.25684662 L16,3.25 L18,3.25 Z" id="Icon-Color" fill="#212121"></path>
    </g>
</svg>