<?xml version="1.0" encoding="UTF-8"?>
<svg width="24px" height="24px" viewBox="0 0 24 24" version="1.1" xmlns="http://www.w3.org/2000/svg" xmlns:xlink="http://www.w3.org/1999/xlink">
    <title>Icon/medal</title>
    <g id="Icon/medal" stroke="none" stroke-width="1" fill="none" fill-rule="evenodd">
        <path d="M11.3291796,10.6645898 C11.6055728,10.1118034 12.3944272,10.1118034 12.6708204,10.6645898 L12.6708204,10.6645898 L13.999,13.323 L16.6232992,13.7602046 C17.1896327,13.8545935 17.4325807,14.5143023 17.099579,14.9512127 L17.099579,14.9512127 L17.0303301,15.0303301 L15.295,16.765 L15.7424621,19.893934 C15.8229886,20.4576195 15.2764782,20.8880941 14.7607646,20.7112178 L14.7607646,20.7112178 L14.6645898,20.6708204 L12,19.338 L9.3354102,20.6708204 C8.82611584,20.9254676 8.24491009,20.5431303 8.24962664,19.9979482 L8.24962664,19.9979482 L8.25753788,19.893934 L8.704,16.765 L6.96966991,15.0303301 C6.56368785,14.624348 6.74944086,13.9463102 7.27436457,13.7843349 L7.27436457,13.7843349 L7.37670076,13.7602046 L10,13.323 Z M12,12.676 L11.1708204,14.3354102 C11.0635104,14.5500302 10.8599869,14.7003475 10.6232992,14.7397954 L10.6232992,14.7397954 L9.06,14.999 L10.0303301,15.9696699 C10.1694345,16.1087743 10.2471962,16.2956913 10.2499327,16.4893734 L10.2499327,16.4893734 L10.2424621,16.606066 L9.944,18.689 L11.6645898,17.8291796 C11.8405445,17.7412023 12.04246,17.7265394 12.2270682,17.7851909 L12.2270682,17.7851909 L12.3354102,17.8291796 L14.055,18.689 L13.7575379,16.606066 C13.729717,16.4113199 13.7796578,16.2151292 13.8936779,16.0585417 L13.8936779,16.0585417 L13.9696699,15.9696699 L14.939,14.999 L13.3767008,14.7397954 C13.1738256,14.7059829 12.995316,14.5907153 12.8808764,14.4233175 L12.8808764,14.4233175 L12.8291796,14.3354102 L12,12.676 Z M8,3.25 C8.37969577,3.25 8.69349096,3.53215388 8.74315338,3.89822944 L8.75,4 L8.75,10 C8.75,10.4142136 8.41421356,10.75 8,10.75 C7.62030423,10.75 7.30650904,10.4678461 7.25684662,10.1017706 L7.25,10 L7.25,4 C7.25,3.58578644 7.58578644,3.25 8,3.25 Z M16,3.25 C16.3796958,3.25 16.693491,3.53215388 16.7431534,3.89822944 L16.75,4 L16.75,10 C16.75,10.4142136 16.4142136,10.75 16,10.75 C15.6203042,10.75 15.306509,10.4678461 15.2568466,10.1017706 L15.25,10 L15.25,4 C15.25,3.58578644 15.5857864,3.25 16,3.25 Z M12,3.25 C12.3796958,3.25 12.693491,3.53215388 12.7431534,3.89822944 L12.75,4 L12.75,7 C12.75,7.41421356 12.4142136,7.75 12,7.75 C11.6203042,7.75 11.306509,7.46784612 11.2568466,7.10177056 L11.25,7 L11.25,4 C11.25,3.58578644 11.5857864,3.25 12,3.25 Z" id="Icon-Color" fill="#212121"></path>
    </g>
</svg>