<?xml version="1.0" encoding="UTF-8"?>
<svg width="24px" height="24px" viewBox="0 0 24 24" version="1.1" xmlns="http://www.w3.org/2000/svg" xmlns:xlink="http://www.w3.org/1999/xlink">
    <title>Icon/message</title>
    <g id="Icon/message" stroke="none" stroke-width="1" fill="none" fill-rule="evenodd">
        <path d="M17,4.25 C19.0042592,4.25 20.6412737,5.82236105 20.744802,7.80084143 L20.75,8 L20.75,14 C20.75,16.0042592 19.1776389,17.6412737 17.1991586,17.744802 L17,17.75 L8.31,17.75 L4.4953392,21.5631636 L4.44621165,21.6029482 L4.35471009,21.6610428 L4.29193385,21.6910613 L4.19937971,21.7232093 L4.10177056,21.7431534 L4.05231357,21.7481845 L4,21.75 L3.94768643,21.7481845 L3.89822944,21.7431534 L3.80062029,21.7232093 L3.70806615,21.6910613 L3.64528991,21.6610428 L3.548,21.598 L3.47045774,21.5308641 L3.39705176,21.4462117 L3.33895724,21.3547101 L3.30893872,21.2919338 L3.27679072,21.1993797 L3.25684662,21.1017706 L3.255,21.077 L3.25181545,21.0523136 L3.25,8 C3.25,5.99574083 4.82236105,4.35872626 6.80084143,4.25519801 L7,4.25 L17,4.25 Z M17,5.75 L7,5.75 C5.80913601,5.75 4.83435508,6.67516159 4.75519081,7.84595119 L4.75,8 L4.75,19.188 L7.46966991,16.4696699 C7.58219174,16.3571481 7.72678598,16.2840724 7.88196594,16.2593431 L8,16.25 L17,16.25 C18.190864,16.25 19.1656449,15.3248384 19.2448092,14.1540488 L19.25,14 L19.25,8 C19.25,6.80913601 18.3248384,5.83435508 17.1540488,5.75519081 L17,5.75 Z M14,12.25 C14.4142136,12.25 14.75,12.5857864 14.75,13 C14.75,13.3796958 14.4678461,13.693491 14.1017706,13.7431534 L14,13.75 L8,13.75 C7.58578644,13.75 7.25,13.4142136 7.25,13 C7.25,12.6203042 7.53215388,12.306509 7.89822944,12.2568466 L8,12.25 L14,12.25 Z M16,8.25 C16.4142136,8.25 16.75,8.58578644 16.75,9 C16.75,9.37969577 16.4678461,9.69349096 16.1017706,9.74315338 L16,9.75 L8,9.75 C7.58578644,9.75 7.25,9.41421356 7.25,9 C7.25,8.62030423 7.53215388,8.30650904 7.89822944,8.25684662 L8,8.25 L16,8.25 Z" id="Icon-Color" fill="#212121"></path>
    </g>
</svg>