<?xml version="1.0" encoding="UTF-8"?>
<svg width="24px" height="24px" viewBox="0 0 24 24" version="1.1" xmlns="http://www.w3.org/2000/svg" xmlns:xlink="http://www.w3.org/1999/xlink">
    <title>Icon/brand/messenger</title>
    <g id="Icon/brand/messenger" stroke="none" stroke-width="1" fill="none" fill-rule="evenodd">
        <path d="M18.7319945,5.63593517 C22.2959365,8.6757681 22.781334,13.6310615 19.8526077,17.1841645 C17.0852416,20.5415069 12.0866753,21.6512975 7.92246487,19.9221251 L7.61,19.785 L3.15432392,20.7340748 L3.05511351,20.748062 L2.96044935,20.749146 L2.86154229,20.7371999 L2.76451954,20.7122013 L2.67529082,20.6761052 L2.586,20.625 C2.55479959,20.6047254 2.5288887,20.5847404 2.50451447,20.5632807 L2.44535259,20.5050227 L2.41392572,20.4682546 L2.377,20.417 L2.332,20.339 C2.30056662,20.2781842 2.27923063,20.2173198 2.26592518,20.1543239 L2.25193804,20.0551135 L2.25085404,19.9604493 L2.26280012,19.8615423 L2.289,19.759 L3.475,16.202 L3.38894463,16.0613235 C1.25190943,12.4291413 2.22412083,7.93057301 5.73806063,5.28115219 L5.96580106,5.11457767 C9.77077519,2.41515043 15.2146863,2.63587821 18.7319945,5.63593517 Z M6.83373404,6.33797146 C3.63497442,8.60732167 2.82958514,12.5862798 4.92130821,15.6799094 C5.03014115,15.8408718 5.07143095,16.0363854 5.03950171,16.2250935 L5.01151247,16.3371708 L4.126,18.993 L7.54391927,18.2664206 C7.67453625,18.2386297 7.8095839,18.246334 7.9352628,18.2878532 L8.02754972,18.3253066 C11.680451,20.0987148 16.2530077,19.1928565 18.6951348,16.230091 C21.0988958,13.3138708 20.7047456,9.2900967 17.7585745,6.7771861 C14.7657696,4.22449951 10.0805424,4.03453319 6.83373404,6.33797146 Z M16.6240377,10.5839749 C16.8329144,10.8972899 16.7749359,11.3106094 16.5037301,11.5557944 L16.4160251,11.6240377 L13.4160251,13.6240377 C13.1516101,13.8003144 12.8092706,13.7889116 12.5589113,13.606653 L12.4696699,13.5303301 L10.904,11.965 L8.41602515,13.6240377 C8.10271013,13.8329144 7.68939058,13.7749359 7.4442056,13.5037301 L7.37596228,13.4160251 C7.1670856,13.1027101 7.22506409,12.6893906 7.49626991,12.4442056 L7.58397485,12.3759623 L10.5839749,10.3759623 C10.8483899,10.1996856 11.1907294,10.2110884 11.4410887,10.393347 L11.5303301,10.4696699 L13.095,12.034 L15.5839749,10.3759623 C15.9286214,10.1461979 16.3942734,10.2393283 16.6240377,10.5839749 Z" id="Icon-Color" fill="#212121"></path>
    </g>
</svg>