<?xml version="1.0" encoding="UTF-8"?>
<svg width="24px" height="24px" viewBox="0 0 24 24" version="1.1" xmlns="http://www.w3.org/2000/svg" xmlns:xlink="http://www.w3.org/1999/xlink">
    <title>Icon/message-circle</title>
    <g id="Icon/message-circle" stroke="none" stroke-width="1" fill="none" fill-rule="evenodd">
        <path d="M18.7319945,5.63593517 C22.2959365,8.6757681 22.781334,13.6310615 19.8526077,17.1841645 C17.0852416,20.5415069 12.0866753,21.6512975 7.92246487,19.9221251 L7.61,19.785 L3.15432392,20.7340748 L3.05511351,20.748062 L2.96044935,20.749146 L2.86154229,20.7371999 L2.76451954,20.7122013 L2.67529082,20.6761052 L2.586,20.625 C2.55479959,20.6047254 2.5288887,20.5847404 2.50451447,20.5632807 L2.44535259,20.5050227 L2.41392572,20.4682546 L2.377,20.417 L2.332,20.339 C2.30056662,20.2781842 2.27923063,20.2173198 2.26592518,20.1543239 L2.25193804,20.0551135 L2.25085404,19.9604493 L2.26280012,19.8615423 L2.289,19.759 L3.475,16.202 L3.38894463,16.0613235 C1.25190943,12.4291413 2.22412083,7.93057301 5.73806063,5.28115219 L5.96580106,5.11457767 C9.77077519,2.41515043 15.2146863,2.63587821 18.7319945,5.63593517 Z M6.83373404,6.33797146 C3.63497442,8.60732167 2.82958514,12.5862798 4.92130821,15.6799094 C5.03014115,15.8408718 5.07143095,16.0363854 5.03950171,16.2250935 L5.01151247,16.3371708 L4.126,18.993 L7.54391927,18.2664206 C7.67453625,18.2386297 7.8095839,18.246334 7.9352628,18.2878532 L8.02754972,18.3253066 C11.680451,20.0987148 16.2530077,19.1928565 18.6951348,16.230091 C21.0988958,13.3138708 20.7047456,9.2900967 17.7585745,6.7771861 C14.7657696,4.22449951 10.0805424,4.03453319 6.83373404,6.33797146 Z M12,11.25 C12.3796958,11.25 12.693491,11.5321539 12.7431534,11.8982294 L12.75,12.01 C12.75,12.4242136 12.4142136,12.76 12,12.76 C11.6203042,12.76 11.306509,12.4778461 11.2568466,12.1117706 L11.25,12 C11.25,11.5857864 11.5857864,11.25 12,11.25 Z M8,11.25 C8.37969577,11.25 8.69349096,11.5321539 8.74315338,11.8982294 L8.75,12.01 C8.75,12.4242136 8.41421356,12.76 8,12.76 C7.62030423,12.76 7.30650904,12.4778461 7.25684662,12.1117706 L7.25,12 C7.25,11.5857864 7.58578644,11.25 8,11.25 Z M16,11.25 C16.3796958,11.25 16.693491,11.5321539 16.7431534,11.8982294 L16.75,12.01 C16.75,12.4242136 16.4142136,12.76 16,12.76 C15.6203042,12.76 15.306509,12.4778461 15.2568466,12.1117706 L15.25,12 C15.25,11.5857864 15.5857864,11.25 16,11.25 Z" id="Icon-Color" fill="#212121"></path>
    </g>
</svg>