<?xml version="1.0" encoding="UTF-8"?>
<svg width="24px" height="24px" viewBox="0 0 24 24" version="1.1" xmlns="http://www.w3.org/2000/svg" xmlns:xlink="http://www.w3.org/1999/xlink">
    <title>Icon/mic off</title>
    <g id="Icon/mic-off" stroke="none" stroke-width="1" fill="none" fill-rule="evenodd">
        <path d="M8,21.75 C7.58578644,21.75 7.25,21.4142136 7.25,21 C7.25,20.6203042 7.53215388,20.306509 7.89822944,20.2568466 L8,20.25 L11.25,20.25 L11.2502198,17.71495 C10.2407494,17.6169697 9.24424122,17.3202873 8.32092675,16.8222797 C5.81287336,15.4695126 4.24950531,12.8494857 4.24999979,9.99986983 C4.24999979,9.58565627 4.58591651,9.25 5.00013007,9.25 C5.41434362,9.25 5.75007178,9.58591662 5.74999979,10.0001302 C5.74960102,12.2982075 7.01038172,14.4111325 9.03300543,15.5020737 C10.778194,16.4433749 12.8476333,16.4927992 14.6159405,15.677579 L12.6366299,13.6985199 C11.6328942,13.8715059 10.5937959,13.6291769 9.76521775,13.0142734 C8.8712762,12.3508626 8.32142068,11.3272772 8.25648061,10.2236992 L8.24999986,10.002 L8.249,9.31 L2.46966991,3.53033009 C2.1767767,3.23743687 2.1767767,2.76256313 2.46966991,2.46966991 C2.73593648,2.20340335 3.15260016,2.1791973 3.44621165,2.39705176 L3.53033009,2.46966991 L21.5303301,20.4696699 C21.8232233,20.7625631 21.8232233,21.2374369 21.5303301,21.5303301 C21.2640635,21.7965966 20.8473998,21.8208027 20.5537883,21.6029482 L20.4696699,21.5303301 L15.7324805,16.7932906 C14.7995498,17.3062001 13.7839415,17.6143108 12.7506264,17.7147933 L12.75,20.25 L16,20.25 C16.4142136,20.25 16.75,20.5857864 16.75,21 C16.75,21.3796958 16.4678461,21.693491 16.1017706,21.7431534 L16,21.75 L8,21.75 Z M18.9986346,9.24999997 C19.4128475,9.24924717 19.7492447,9.58442175 19.7500116,9.99863462 C19.7527586,11.5145959 19.3089551,12.9977933 18.4739856,14.2630885 C18.2458431,14.6088107 17.7806338,14.704128 17.4349115,14.4759856 C17.0891893,14.2478431 16.993872,13.7826338 17.2220144,13.4369115 C17.8946859,12.4175594 18.2522246,11.22266 18.2500012,10.0013654 C18.2492472,9.5871525 18.5844217,9.25075532 18.9986346,9.24999997 Z M12,1.25 C14.0042592,1.25 15.6412737,2.82236105 15.744802,4.80084143 L15.75,5 L15.75,10 C15.75,10.3702363 15.6952595,10.7383535 15.5875,11.092389 C15.4668871,11.4886533 15.0478753,11.7121129 14.651611,11.5915 C14.2553467,11.4708871 14.0318871,11.0518753 14.1525,10.655611 C14.2009854,10.496316 14.2315865,10.3322205 14.2438566,10.16635 L14.25,10 L14.25,5 C14.25,3.75735931 13.2426407,2.75 12,2.75 C10.7573593,2.75 9.75,3.75735931 9.75,5 C9.75,5.41421356 9.41421356,5.75 9,5.75 C8.58578644,5.75 8.25,5.41421356 8.25,5 C8.25,2.92893219 9.92893219,1.25 12,1.25 Z" id="Icon-Color" fill="#212121"></path>
    </g>
</svg>