<?xml version="1.0" encoding="UTF-8"?>
<svg width="24px" height="24px" viewBox="0 0 24 24" version="1.1" xmlns="http://www.w3.org/2000/svg" xmlns:xlink="http://www.w3.org/1999/xlink">
    <title>Icon/minimize</title>
    <g id="Icon/minimize" stroke="none" stroke-width="1" fill="none" fill-rule="evenodd">
        <path d="M19,14.25 C19.4142136,14.25 19.75,14.5857864 19.75,15 C19.75,15.3796958 19.4678461,15.693491 19.1017706,15.7431534 L19,15.75 L17,15.75 C16.3527913,15.75 15.8204661,16.2418747 15.7564536,16.8721948 L15.75,17 L15.75,19 C15.75,19.4142136 15.4142136,19.75 15,19.75 C14.6203042,19.75 14.306509,19.4678461 14.2568466,19.1017706 L14.25,19 L14.25,17 C14.25,15.5374682 15.3917046,14.3415957 16.8324777,14.2550188 L17,14.25 L19,14.25 Z M7,14.25 C8.46253184,14.25 9.65840428,15.3917046 9.74498121,16.8324777 L9.75,17 L9.75,19 C9.75,19.4142136 9.41421356,19.75 9,19.75 C8.62030423,19.75 8.30650904,19.4678461 8.25684662,19.1017706 L8.25,19 L8.25,17 C8.25,16.3527913 7.75812534,15.8204661 7.12780524,15.7564536 L7,15.75 L5,15.75 C4.58578644,15.75 4.25,15.4142136 4.25,15 C4.25,14.6203042 4.53215388,14.306509 4.89822944,14.2568466 L5,14.25 L7,14.25 Z M15,4.25 C15.3796958,4.25 15.693491,4.53215388 15.7431534,4.89822944 L15.75,5 L15.75,7 C15.75,7.64720869 16.2418747,8.1795339 16.8721948,8.24354639 L17,8.25 L19,8.25 C19.4142136,8.25 19.75,8.58578644 19.75,9 C19.75,9.37969577 19.4678461,9.69349096 19.1017706,9.74315338 L19,9.75 L17,9.75 C15.5374682,9.75 14.3415957,8.6082954 14.2550188,7.16752233 L14.25,7 L14.25,5 C14.25,4.58578644 14.5857864,4.25 15,4.25 Z M9,4.25 C9.37969577,4.25 9.69349096,4.53215388 9.74315338,4.89822944 L9.75,5 L9.75,7 C9.75,8.46253184 8.6082954,9.65840428 7.16752233,9.74498121 L7,9.75 L5,9.75 C4.58578644,9.75 4.25,9.41421356 4.25,9 C4.25,8.62030423 4.53215388,8.30650904 4.89822944,8.25684662 L5,8.25 L7,8.25 C7.64720869,8.25 8.1795339,7.75812534 8.24354639,7.12780524 L8.25,7 L8.25,5 C8.25,4.58578644 8.58578644,4.25 9,4.25 Z" id="Icon-Color" fill="#212121"></path>
    </g>
</svg>