<?xml version="1.0" encoding="UTF-8"?>
<svg width="24px" height="24px" viewBox="0 0 24 24" version="1.1" xmlns="http://www.w3.org/2000/svg" xmlns:xlink="http://www.w3.org/1999/xlink">
    <title>Icon/mood-empty</title>
    <g id="Icon/mood-empty" stroke="none" stroke-width="1" fill="none" fill-rule="evenodd">
        <path d="M12,2.25 C17.3847763,2.25 21.75,6.61522369 21.75,12 C21.75,17.3847763 17.3847763,21.75 12,21.75 C6.61522369,21.75 2.25,17.3847763 2.25,12 C2.25,6.61522369 6.61522369,2.25 12,2.25 Z M12,3.75 C7.44365081,3.75 3.75,7.44365081 3.75,12 C3.75,16.5563492 7.44365081,20.25 12,20.25 C16.5563492,20.25 20.25,16.5563492 20.25,12 C20.25,7.44365081 16.5563492,3.75 12,3.75 Z M15,14.25 C15.4142136,14.25 15.75,14.5857864 15.75,15 C15.75,15.3796958 15.4678461,15.693491 15.1017706,15.7431534 L15,15.75 L9,15.75 C8.58578644,15.75 8.25,15.4142136 8.25,15 C8.25,14.6203042 8.53215388,14.306509 8.89822944,14.2568466 L9,14.25 L15,14.25 Z M9.01,9.25 C9.42421356,9.25 9.76,9.58578644 9.76,10 C9.76,10.3796958 9.47784612,10.693491 9.11177056,10.7431534 L9,10.75 C8.58578644,10.75 8.25,10.4142136 8.25,10 C8.25,9.62030423 8.53215388,9.30650904 8.89822944,9.25684662 L9.01,9.25 Z M15.01,9.25 C15.4242136,9.25 15.76,9.58578644 15.76,10 C15.76,10.3796958 15.4778461,10.693491 15.1117706,10.7431534 L15,10.75 C14.5857864,10.75 14.25,10.4142136 14.25,10 C14.25,9.62030423 14.5321539,9.30650904 14.8982294,9.25684662 L15.01,9.25 Z" id="Icon-Color" fill="#212121"></path>
    </g>
</svg>