<?xml version="1.0" encoding="UTF-8"?>
<svg width="24px" height="24px" viewBox="0 0 24 24" version="1.1" xmlns="http://www.w3.org/2000/svg" xmlns:xlink="http://www.w3.org/1999/xlink">
    <title>Icon/mood-crazy-happy</title>
    <g id="Icon/mood-crazy-happy" stroke="none" stroke-width="1" fill="none" fill-rule="evenodd">
        <path d="M12,2.25 C17.3847763,2.25 21.75,6.61522369 21.75,12 C21.75,17.3847763 17.3847763,21.75 12,21.75 C6.61522369,21.75 2.25,17.3847763 2.25,12 C2.25,6.61522369 6.61522369,2.25 12,2.25 Z M12,3.75 C7.44365081,3.75 3.75,7.44365081 3.75,12 C3.75,16.5563492 7.44365081,20.25 12,20.25 C16.5563492,20.25 20.25,16.5563492 20.25,12 C20.25,7.44365081 16.5563492,3.75 12,3.75 Z M15.0248907,14.4642857 C15.3207575,14.7541748 15.3256034,15.2290238 15.0357143,15.5248907 C14.2363362,16.3407525 13.1422065,16.8005103 12,16.8005103 C10.8577935,16.8005103 9.76366377,16.3407525 8.96428571,15.5248907 C8.67439661,15.2290238 8.67924251,14.7541748 8.97510934,14.4642857 C9.27097617,14.1743966 9.74582518,14.1792425 10.0357143,14.4751093 C10.5529589,15.0030199 11.2609252,15.3005103 12,15.3005103 C12.7390748,15.3005103 13.4470411,15.0030199 13.9642857,14.4751093 C14.2541748,14.1792425 14.7290238,14.1743966 15.0248907,14.4642857 Z M7.44621165,7.89705176 L7.53033009,7.96966991 L8.5,8.939 L9.46966991,7.96966991 C9.76256313,7.6767767 10.2374369,7.6767767 10.5303301,7.96966991 C10.7965966,8.23593648 10.8208027,8.65260016 10.6029482,8.94621165 L10.5303301,9.03033009 L9.561,10 L10.5303301,10.9696699 C10.8232233,11.2625631 10.8232233,11.7374369 10.5303301,12.0303301 C10.2640635,12.2965966 9.84739984,12.3208027 9.55378835,12.1029482 L9.46966991,12.0303301 L8.5,11.061 L7.53033009,12.0303301 C7.23743687,12.3232233 6.76256313,12.3232233 6.46966991,12.0303301 C6.20340335,11.7640635 6.1791973,11.3473998 6.39705176,11.0537883 L6.46966991,10.9696699 L7.439,10 L6.46966991,9.03033009 C6.1767767,8.73743687 6.1767767,8.26256313 6.46966991,7.96966991 C6.73593648,7.70340335 7.15260016,7.6791973 7.44621165,7.89705176 Z M14.4462117,7.89705176 L14.5303301,7.96966991 L15.5,8.939 L16.4696699,7.96966991 C16.7625631,7.6767767 17.2374369,7.6767767 17.5303301,7.96966991 C17.7965966,8.23593648 17.8208027,8.65260016 17.6029482,8.94621165 L17.5303301,9.03033009 L16.561,10 L17.5303301,10.9696699 C17.8232233,11.2625631 17.8232233,11.7374369 17.5303301,12.0303301 C17.2640635,12.2965966 16.8473998,12.3208027 16.5537883,12.1029482 L16.4696699,12.0303301 L15.5,11.061 L14.5303301,12.0303301 C14.2374369,12.3232233 13.7625631,12.3232233 13.4696699,12.0303301 C13.2034034,11.7640635 13.1791973,11.3473998 13.3970518,11.0537883 L13.4696699,10.9696699 L14.439,10 L13.4696699,9.03033009 C13.1767767,8.73743687 13.1767767,8.26256313 13.4696699,7.96966991 C13.7359365,7.70340335 14.1526002,7.6791973 14.4462117,7.89705176 Z" id="Icon-Color" fill="#212121"></path>
    </g>
</svg>