<?xml version="1.0" encoding="UTF-8"?>
<svg width="24px" height="24px" viewBox="0 0 24 24" version="1.1" xmlns="http://www.w3.org/2000/svg" xmlns:xlink="http://www.w3.org/1999/xlink">
    <title>Icon/mood-happy</title>
    <g id="Icon/mood-happy" stroke="none" stroke-width="1" fill="none" fill-rule="evenodd">
        <path d="M12,2.25 C17.3847763,2.25 21.75,6.61522369 21.75,12 C21.75,17.3847763 17.3847763,21.75 12,21.75 C6.61522369,21.75 2.25,17.3847763 2.25,12 C2.25,6.61522369 6.61522369,2.25 12,2.25 Z M12,3.75 C7.44365081,3.75 3.75,7.44365081 3.75,12 C3.75,16.5563492 7.44365081,20.25 12,20.25 C16.5563492,20.25 20.25,16.5563492 20.25,12 C20.25,7.44365081 16.5563492,3.75 12,3.75 Z M16,12.25 C16.4142136,12.25 16.75,12.5857864 16.75,13 C16.75,15.6233526 14.6233526,17.75 12,17.75 C9.37664744,17.75 7.25,15.6233526 7.25,13 C7.25,12.5857864 7.58578644,12.25 8,12.25 L16,12.25 Z M15.1628775,13.7506625 L8.83712248,13.7506625 C9.17594459,15.1836786 10.4634459,16.25 12,16.25 C13.5365541,16.25 14.8240554,15.1836786 15.1628775,13.7506625 Z M9.01,8.25 C9.42421356,8.25 9.76,8.58578644 9.76,9 C9.76,9.37969577 9.47784612,9.69349096 9.11177056,9.74315338 L9,9.75 C8.58578644,9.75 8.25,9.41421356 8.25,9 C8.25,8.62030423 8.53215388,8.30650904 8.89822944,8.25684662 L9.01,8.25 Z M15.01,8.25 C15.4242136,8.25 15.76,8.58578644 15.76,9 C15.76,9.37969577 15.4778461,9.69349096 15.1117706,9.74315338 L15,9.75 C14.5857864,9.75 14.25,9.41421356 14.25,9 C14.25,8.62030423 14.5321539,8.30650904 14.8982294,8.25684662 L15.01,8.25 Z" id="Icon-Color" fill="#212121"></path>
    </g>
</svg>