<?xml version="1.0" encoding="UTF-8"?>
<svg width="24px" height="24px" viewBox="0 0 24 24" version="1.1" xmlns="http://www.w3.org/2000/svg" xmlns:xlink="http://www.w3.org/1999/xlink">
    <title>Icon/moon-stars</title>
    <g id="Icon/moon-stars" stroke="none" stroke-width="1" fill="none" fill-rule="evenodd">
        <path d="M11.9998191,2.24200002 L12.0511777,2.24371847 L12.111,2.25 L12.393,2.25 C13.0386561,2.25 13.3672528,2.99987564 12.9755466,3.47326146 L12.9755466,3.47326146 L12.9035236,3.54942302 C10.5177622,5.7662714 10.0550547,9.37048673 11.8034833,12.1180805 C13.5519119,14.8656743 17.0128542,15.9730789 20.0315236,14.750823 C20.6485862,14.500975 21.2610597,15.1190856 21.0055691,15.7338334 C19.1284773,20.2503903 14.1955346,22.6772426 9.47200392,21.4079838 C4.7484732,20.138725 1.69633088,15.5662024 2.33588164,10.717106 C2.97543239,5.86800967 7.10872934,2.24317975 11.9998191,2.24200002 L11.9998191,2.24200002 Z M10.68,3.848 L10.4827787,3.8821355 C7.03340656,4.52597537 4.29651658,7.32304718 3.82300304,10.9132435 C3.28184471,15.016325 5.86442667,18.8853826 9.86126036,19.9593709 C13.2628209,20.8734034 16.7927254,19.522173 18.7478198,16.7435777 L18.7478198,16.7435777 L18.818,16.638 L18.5207026,16.6816761 C15.5064357,17.0586878 12.4567469,15.7409237 10.6868976,13.1492305 L10.6868976,13.1492305 L10.5379827,12.9233806 C8.74889291,10.1118893 8.85403768,6.56654803 10.6467987,3.89678997 L10.6467987,3.89678997 L10.68,3.848 Z M20,9.25 C20.3796958,9.25 20.693491,9.53215388 20.7431534,9.89822944 L20.75,10 L20.75,10.25 L21,10.25 C21.4142136,10.25 21.75,10.5857864 21.75,11 C21.75,11.3796958 21.4678461,11.693491 21.1017706,11.7431534 L21,11.75 L20.75,11.75 L20.75,12 C20.75,12.4142136 20.4142136,12.75 20,12.75 C19.6203042,12.75 19.306509,12.4678461 19.2568466,12.1017706 L19.25,12 L19.25,11.75 L19,11.75 C18.5857864,11.75 18.25,11.4142136 18.25,11 C18.25,10.6203042 18.5321539,10.306509 18.8982294,10.2568466 L19,10.25 L19.25,10.25 L19.25,10 C19.25,9.58578644 19.5857864,9.25 20,9.25 Z M17,3.25 L17.1017706,3.25684662 C17.4345665,3.30199427 17.6980057,3.56543348 17.7431534,3.89822944 L17.75,4 C17.75,4.64720869 18.2418747,5.1795339 18.8721948,5.24354639 L19,5.25 C19.9583333,5.25 19.9982639,6.62760417 19.1197917,6.74240451 L19,6.75 C18.3527913,6.75 17.8204661,7.24187466 17.7564536,7.87219476 L17.75,8 C17.75,8.95833333 16.3723958,8.99826389 16.2575955,8.11979167 L16.25,8 C16.25,7.35279131 15.7581253,6.8204661 15.1278052,6.75645361 L15,6.75 C14.0416667,6.75 14.0017361,5.37239583 14.8802083,5.25759549 L15,5.25 C15.6472087,5.25 16.1795339,4.75812534 16.2435464,4.12780524 L16.25,4 C16.25,3.62030423 16.5321539,3.30650904 16.8982294,3.25684662 L17,3.25 Z" id="Icon-Color" fill="#212121"></path>
    </g>
</svg>