<?xml version="1.0" encoding="UTF-8"?>
<svg width="24px" height="24px" viewBox="0 0 24 24" version="1.1" xmlns="http://www.w3.org/2000/svg" xmlns:xlink="http://www.w3.org/1999/xlink">
    <title>Icon/mouse</title>
    <g id="Icon/mouse" stroke="none" stroke-width="1" fill="none" fill-rule="evenodd">
        <path d="M14,2.25 C16.6233526,2.25 18.75,4.37664744 18.75,7 L18.75,7 L18.75,17 C18.75,19.6233526 16.6233526,21.75 14,21.75 L14,21.75 L10,21.75 C7.37664744,21.75 5.25,19.6233526 5.25,17 L5.25,17 L5.25,7 C5.25,4.37664744 7.37664744,2.25 10,2.25 L10,2.25 Z M14,3.75 L10,3.75 C8.20507456,3.75 6.75,5.20507456 6.75,7 L6.75,7 L6.75,17 C6.75,18.7949254 8.20507456,20.25 10,20.25 L10,20.25 L14,20.25 C15.7949254,20.25 17.25,18.7949254 17.25,17 L17.25,17 L17.25,7 C17.25,5.20507456 15.7949254,3.75 14,3.75 L14,3.75 Z M12,6.25 C12.3796958,6.25 12.693491,6.53215388 12.7431534,6.89822944 L12.75,7 L12.75,11 C12.75,11.4142136 12.4142136,11.75 12,11.75 C11.6203042,11.75 11.306509,11.4678461 11.2568466,11.1017706 L11.25,11 L11.25,7 C11.25,6.58578644 11.5857864,6.25 12,6.25 Z" id="Icon-Color" fill="#212121"></path>
    </g>
</svg>