<?xml version="1.0" encoding="UTF-8"?>
<svg width="24px" height="24px" viewBox="0 0 24 24" version="1.1" xmlns="http://www.w3.org/2000/svg" xmlns:xlink="http://www.w3.org/1999/xlink">
    <title>Icon/mug</title>
    <g id="Icon/mug" stroke="none" stroke-width="1" fill="none" fill-rule="evenodd">
        <path d="M14.9149247,4.24999869 C15.400268,4.24865573 15.8662677,4.44016518 16.2104101,4.78240096 C16.5163171,5.08661311 16.703666,5.48776907 16.7424701,5.91549483 L16.75,6.077 L16.75,7.25 L18.5,7.25 C20.2216422,7.25 21.6484605,8.52603605 21.7448146,10.1569439 L21.75,10.333 L21.75,12.667 C21.75,14.3220809 20.3825487,15.6551887 18.6832863,15.7451592 L18.5,15.75 L16.6385164,15.7507974 C16.1642188,17.9677097 14.2308424,19.6458402 11.8874332,19.7453257 L11.667,19.7499958 L7.333,19.7499958 C4.60066311,19.7499958 2.37019903,17.6038259 2.25469838,14.9114649 L2.25,14.692 L2.25,6.07491957 C2.2513492,5.58957281 2.44544458,5.12463963 2.78958987,4.78240096 C3.09549422,4.47819138 3.49768092,4.2930742 3.92415123,4.25663593 L4.085,4.249 L14.9149247,4.24999869 Z M14.917,5.74999582 L4.082,5.749 C3.99339703,5.74975075 3.90935968,5.78428714 3.84729969,5.84600331 C3.80075545,5.89228968 3.76943143,5.95102151 3.75657724,6.01353999 L3.75,6.077 L3.75,14.692 C3.75,16.5925317 5.25154504,18.146765 7.14263383,18.2450605 L7.333,18.2499958 L11.667,18.2499958 C13.5831849,18.2499958 15.1461919,16.7576577 15.2450372,14.8809146 L15.25,14.692 L15.25,6.07908043 C15.2497601,5.99155889 15.2147593,5.90771848 15.1527003,5.84600331 C15.1061553,5.79971618 15.0472481,5.76871768 14.9829022,5.75621476 L14.917,5.74999582 Z M16.75,14.25 L18.5,14.25 C19.4255854,14.25 20.1680672,13.6026121 20.2436592,12.8018039 L20.25,12.667 L20.25,10.333 C20.25,9.51666968 19.5562332,8.82631703 18.6524859,8.75590963 L18.5,8.75 L16.75,8.75 L16.75,14.25 Z" id="Icon-Color" fill="#212121"></path>
    </g>
</svg>