<?xml version="1.0" encoding="UTF-8"?>
<svg width="24px" height="24px" viewBox="0 0 24 24" version="1.1" xmlns="http://www.w3.org/2000/svg" xmlns:xlink="http://www.w3.org/1999/xlink">
    <title>Icon/music</title>
    <g id="Icon/music" stroke="none" stroke-width="1" fill="none" fill-rule="evenodd">
        <path d="M19,3.25 C19.3796958,3.25 19.693491,3.53215388 19.7431534,3.89822944 L19.75,4 L19.75,17 C19.75,19.0710678 18.0710678,20.75 16,20.75 C13.9289322,20.75 12.25,19.0710678 12.25,17 C12.25,14.9289322 13.9289322,13.25 16,13.25 C16.8447482,13.25 17.6242581,13.5293181 18.2512108,14.0006352 L18.25,8.75 L9.75,8.75 L9.75,17 C9.75,19.0042592 8.17763895,20.6412737 6.19915857,20.744802 L6,20.75 C3.92893219,20.75 2.25,19.0710678 2.25,17 C2.25,14.9289322 3.92893219,13.25 6,13.25 C6.84474816,13.25 7.62425809,13.5293181 8.2512108,14.0006352 L8.25,4 C8.25,3.62030423 8.53215388,3.30650904 8.89822944,3.25684662 L9,3.25 L19,3.25 Z M6,14.75 C4.75735931,14.75 3.75,15.7573593 3.75,17 C3.75,18.2426407 4.75735931,19.25 6,19.25 C7.24264069,19.25 8.25,18.2426407 8.25,17 C8.25,15.7573593 7.24264069,14.75 6,14.75 Z M16,14.75 C14.7573593,14.75 13.75,15.7573593 13.75,17 C13.75,18.2426407 14.7573593,19.25 16,19.25 C17.2426407,19.25 18.25,18.2426407 18.25,17 C18.25,15.7573593 17.2426407,14.75 16,14.75 Z M18.25,4.75 L9.75,4.75 L9.75,7.25 L18.25,7.25 L18.25,4.75 Z" id="Icon-Color" fill="#212121"></path>
    </g>
</svg>