<?xml version="1.0" encoding="UTF-8"?>
<svg width="24px" height="24px" viewBox="0 0 24 24" version="1.1" xmlns="http://www.w3.org/2000/svg" xmlns:xlink="http://www.w3.org/1999/xlink">
    <title>Icon/name affiliate</title>
    <g id="Icon/name-affiliate" stroke="none" stroke-width="1" fill="none" fill-rule="evenodd">
        <path d="M18.5,3.25 C19.7426407,3.25 20.75,4.25735931 20.75,5.5 C20.75,6.74264069 19.7426407,7.75 18.5,7.75 C18.1527458,7.75 17.823865,7.67133377 17.5302065,7.53085003 L12.7049444,12.3560799 C13.3612589,13.2324794 13.75,14.320842 13.75,15.5 C13.75,15.7632436 13.7306254,16.0219621 13.6932244,16.2748072 L16.6839737,17.1713781 C17.0933756,16.6127355 17.7543271,16.25 18.5,16.25 C19.7426407,16.25 20.75,17.2573593 20.75,18.5 C20.75,19.7426407 19.7426407,20.75 18.5,20.75 C17.2573593,20.75 16.25,19.7426407 16.25,18.5 L16.254,18.609 L13.2625121,17.7122784 C12.4564309,19.4446424 10.7329569,20.6638613 8.71640462,20.745621 L8.5,20.75 C5.60050506,20.75 3.25,18.3994949 3.25,15.5 C3.25,13.3905011 4.49415666,11.5715906 6.28871081,10.7370277 L5.39040288,7.74737752 C4.19866511,7.69021926 3.25,6.70589594 3.25,5.5 C3.25,4.25735931 4.25735931,3.25 5.5,3.25 C6.74264069,3.25 7.75,4.25735931 7.75,5.5 C7.75,6.24567292 7.38726454,6.90662443 6.82862186,7.31602631 L7.72519284,10.3067756 C7.97803794,10.2693746 8.23675638,10.25 8.5,10.25 C9.67915796,10.25 10.7675206,10.6387411 11.6439201,11.2950556 L16.46915,6.46979351 C16.3286662,6.17613497 16.25,5.84725423 16.25,5.5 C16.25,4.25735931 17.2573593,3.25 18.5,3.25 Z M8.5,11.75 C6.42893219,11.75 4.75,13.4289322 4.75,15.5 C4.75,17.5710678 6.42893219,19.25 8.5,19.25 C10.5710678,19.25 12.25,17.5710678 12.25,15.5 C12.25,13.4289322 10.5710678,11.75 8.5,11.75 Z" id="Icon-Color" fill="#212121"></path>
    </g>
</svg>