<?xml version="1.0" encoding="UTF-8"?>
<svg width="24px" height="24px" viewBox="0 0 24 24" version="1.1" xmlns="http://www.w3.org/2000/svg" xmlns:xlink="http://www.w3.org/1999/xlink">
    <title>Icon/news</title>
    <g id="Icon/news" stroke="none" stroke-width="1" fill="none" fill-rule="evenodd">
        <path d="M15,3.25 C15.9181734,3.25 16.6711923,3.95711027 16.7441988,4.85647279 L16.75,5 L16.75,5.25 L19,5.25 C19.9181734,5.25 20.6711923,5.95711027 20.7441988,6.85647279 L20.75,7 L20.75,18 C20.75,19.4625318 19.6082954,20.6584043 18.1675223,20.7449812 L18,20.75 L7,20.75 C4.99574083,20.75 3.35872626,19.1776389 3.25519801,17.1991586 L3.25,17 L3.25,5 C3.25,4.0818266 3.95711027,3.32880766 4.85647279,3.2558012 L5,3.25 L15,3.25 Z M15,4.75 L5,4.75 C4.88165327,4.75 4.78251318,4.83223341 4.75660268,4.94267729 L4.75,5 L4.75,17 C4.75,18.190864 5.67516159,19.1656449 6.84595119,19.2448092 L7,19.25 L15.55,19.25 C15.3820447,18.9216452 15.278328,18.5554228 15.2550188,18.1675223 L15.25,18 L15.25,5 C15.25,4.88165327 15.1677666,4.78251318 15.0573227,4.75660268 L15,4.75 Z M19,6.75 L16.75,6.75 L16.75,18 C16.75,18.6903559 17.3096441,19.25 18,19.25 C18.6472087,19.25 19.1795339,18.7581253 19.2435464,18.1278052 L19.25,18 L19.25,7 C19.25,6.88165327 19.1677666,6.78251318 19.0573227,6.75660268 L19,6.75 Z M12,15.25 C12.4142136,15.25 12.75,15.5857864 12.75,16 C12.75,16.3796958 12.4678461,16.693491 12.1017706,16.7431534 L12,16.75 L8,16.75 C7.58578644,16.75 7.25,16.4142136 7.25,16 C7.25,15.6203042 7.53215388,15.306509 7.89822944,15.2568466 L8,15.25 L12,15.25 Z M12,11.25 C12.4142136,11.25 12.75,11.5857864 12.75,12 C12.75,12.3796958 12.4678461,12.693491 12.1017706,12.7431534 L12,12.75 L8,12.75 C7.58578644,12.75 7.25,12.4142136 7.25,12 C7.25,11.6203042 7.53215388,11.306509 7.89822944,11.2568466 L8,11.25 L12,11.25 Z M12,7.25 C12.4142136,7.25 12.75,7.58578644 12.75,8 C12.75,8.37969577 12.4678461,8.69349096 12.1017706,8.74315338 L12,8.75 L8,8.75 C7.58578644,8.75 7.25,8.41421356 7.25,8 C7.25,7.62030423 7.53215388,7.30650904 7.89822944,7.25684662 L8,7.25 L12,7.25 Z" id="Icon-Color" fill="#212121"></path>
    </g>
</svg>