<?xml version="1.0" encoding="UTF-8"?>
<svg width="24px" height="24px" viewBox="0 0 24 24" version="1.1" xmlns="http://www.w3.org/2000/svg" xmlns:xlink="http://www.w3.org/1999/xlink">
    <title>Icon/note</title>
    <g id="Icon/note" stroke="none" stroke-width="1" fill="none" fill-rule="evenodd">
        <path d="M18,3.25 C19.4625318,3.25 20.6584043,4.3917046 20.7449812,5.83247767 L20.75,6 L20.75,13 C20.75,13.0383922 20.7471153,13.0761107 20.7415508,13.1129505 C20.7397462,13.1245181 20.7376905,13.1362278 20.7353557,13.1478927 C20.730412,13.1728958 20.7242388,13.1971921 20.7169138,13.2209837 C20.7132873,13.2326435 20.7092554,13.2446929 20.7049093,13.256654 C20.696425,13.2799516 20.6871231,13.3020202 20.6768269,13.3235218 C20.6713347,13.3351229 20.6650317,13.3474599 20.658365,13.359651 C20.6468742,13.3804865 20.6348218,13.4002228 20.6219118,13.4193321 C20.6160126,13.4281862 20.609593,13.4372562 20.6029482,13.4462117 C20.5971451,13.4538569 20.5954427,13.4560847 20.5937281,13.4583026 L20.5303301,13.5303301 L13.5303301,20.5302362 C13.5057302,20.5548564 13.4794294,20.5777713 13.4516193,20.5987902 L13.5303301,20.5303301 C13.4958891,20.5647711 13.4589318,20.5951622 13.42005,20.6215034 C13.4036581,20.632512 13.3865081,20.643165 13.3689158,20.6531269 C13.3546244,20.6612981 13.3399909,20.6689416 13.3251715,20.6760696 C13.3075139,20.6845475 13.2890942,20.6925449 13.2703089,20.6998073 C13.2594565,20.7039715 13.2490913,20.707697 13.2386647,20.7111871 C13.2172835,20.7184196 13.1948272,20.7248286 13.1719681,20.7301917 C13.1597261,20.7329853 13.1480328,20.7354242 13.136298,20.7375819 C13.1254532,20.7396501 13.1136561,20.741541 13.1017706,20.7431534 L13.0733936,20.7464221 C13.0587591,20.7478527 13.0440905,20.7488542 13.0294084,20.7494268 L13,20.75 L6,20.75 C4.53746816,20.75 3.34159572,19.6082954 3.25501879,18.1675223 L3.25,18 L3.25,6 C3.25,4.53746816 4.3917046,3.34159572 5.83247767,3.25501879 L6,3.25 L18,3.25 Z M18,4.75 L6,4.75 C5.35279131,4.75 4.8204661,5.24187466 4.75645361,5.87219476 L4.75,6 L4.75,18 C4.75,18.6472087 5.24187466,19.1795339 5.87219476,19.2435464 L6,19.25 L12.25,19.25 L12.25,14 C12.25,13.0818266 12.9571103,12.3288077 13.8564728,12.2558012 L14,12.25 L19.25,12.25 L19.25,6 C19.25,5.39593855 18.8215225,4.89195339 18.2519186,4.77539556 L18.1278052,4.75645361 L18,4.75 Z M18.188,13.75 L14,13.75 C13.8816533,13.75 13.7825132,13.8322334 13.7566027,13.9426773 L13.75,14 L13.75,18.188 L18.188,13.75 Z" id="Icon-Color" fill="#212121"></path>
    </g>
</svg>