<?xml version="1.0" encoding="UTF-8"?>
<svg width="24px" height="24px" viewBox="0 0 24 24" version="1.1" xmlns="http://www.w3.org/2000/svg" xmlns:xlink="http://www.w3.org/1999/xlink">
    <title>Icon/notes</title>
    <g id="Icon/notes" stroke="none" stroke-width="1" fill="none" fill-rule="evenodd">
        <path d="M17,2.25 C18.5187831,2.25 19.75,3.48121694 19.75,5 L19.75,5 L19.75,19 C19.75,20.5187831 18.5187831,21.75 17,21.75 L17,21.75 L7,21.75 C5.48121694,21.75 4.25,20.5187831 4.25,19 L4.25,19 L4.25,5 C4.25,3.48121694 5.48121694,2.25 7,2.25 L7,2.25 Z M17,3.75 L7,3.75 C6.30964406,3.75 5.75,4.30964406 5.75,5 L5.75,5 L5.75,19 C5.75,19.6903559 6.30964406,20.25 7,20.25 L7,20.25 L17,20.25 C17.6903559,20.25 18.25,19.6903559 18.25,19 L18.25,19 L18.25,5 C18.25,4.30964406 17.6903559,3.75 17,3.75 L17,3.75 Z M13,14.25 C13.4142136,14.25 13.75,14.5857864 13.75,15 C13.75,15.3796958 13.4678461,15.693491 13.1017706,15.7431534 L13,15.75 L9,15.75 C8.58578644,15.75 8.25,15.4142136 8.25,15 C8.25,14.6203042 8.53215388,14.306509 8.89822944,14.2568466 L9,14.25 L13,14.25 Z M15,10.25 C15.4142136,10.25 15.75,10.5857864 15.75,11 C15.75,11.3796958 15.4678461,11.693491 15.1017706,11.7431534 L15,11.75 L9,11.75 C8.58578644,11.75 8.25,11.4142136 8.25,11 C8.25,10.6203042 8.53215388,10.306509 8.89822944,10.2568466 L9,10.25 L15,10.25 Z M15,6.25 C15.4142136,6.25 15.75,6.58578644 15.75,7 C15.75,7.37969577 15.4678461,7.69349096 15.1017706,7.74315338 L15,7.75 L9,7.75 C8.58578644,7.75 8.25,7.41421356 8.25,7 C8.25,6.62030423 8.53215388,6.30650904 8.89822944,6.25684662 L9,6.25 L15,6.25 Z" id="Icon-Color" fill="#212121"></path>
    </g>
</svg>