<?xml version="1.0" encoding="UTF-8"?>
<svg width="24px" height="24px" viewBox="0 0 24 24" version="1.1" xmlns="http://www.w3.org/2000/svg" xmlns:xlink="http://www.w3.org/1999/xlink">
    <title>Icon/octagon</title>
    <g id="Icon/octagon" stroke="none" stroke-width="1" fill="none" fill-rule="evenodd">
        <path d="M15.3,2.25 L8.7,2.25 C8.20629768,2.25 7.81577355,2.42356628 7.46966991,2.76966991 L2.76966991,7.46966991 C2.42356628,7.81577355 2.25,8.20629768 2.25,8.7 L2.25,15.3 C2.25,15.7937023 2.42356628,16.1842265 2.76966991,16.5303301 L7.46966991,21.2303301 C7.81577355,21.5764337 8.20629768,21.75 8.7,21.75 L15.3,21.75 C15.7937023,21.75 16.1842265,21.5764337 16.5303301,21.2303301 L21.2303301,16.5303301 C21.5764337,16.1842265 21.75,15.7937023 21.75,15.3 L21.75,8.7 C21.75,8.20629768 21.5764337,7.81577355 21.2303301,7.46966991 L16.5303301,2.76966991 C16.1842265,2.42356628 15.7937023,2.25 15.3,2.25 Z M8.7,3.75 L15.3,3.75 C15.3609733,3.75 15.3843593,3.75361897 15.4234164,3.78660348 L20.1696699,8.53033009 C20.2435663,8.60422645 20.25,8.61870232 20.25,8.7 L20.25,15.3 C20.25,15.3609733 20.246381,15.3843593 20.2133965,15.4234164 L15.4696699,20.1696699 C15.3957735,20.2435663 15.3812977,20.25 15.3,20.25 L8.7,20.25 C8.63902674,20.25 8.61564075,20.246381 8.57658355,20.2133965 L3.83033009,15.4696699 C3.75643372,15.3957735 3.75,15.3812977 3.75,15.3 L3.75,8.7 C3.75,8.63902674 3.75361897,8.61564075 3.78660348,8.57658355 L8.53033009,3.83033009 C8.60422645,3.75643372 8.61870232,3.75 8.7,3.75 Z" id="Icon-Color" fill="#212121"></path>
    </g>
</svg>