<?xml version="1.0" encoding="UTF-8"?>
<svg width="24px" height="24px" viewBox="0 0 24 24" version="1.1" xmlns="http://www.w3.org/2000/svg" xmlns:xlink="http://www.w3.org/1999/xlink">
    <title>Icon/olympics</title>
    <g id="Icon/olympics" stroke="none" stroke-width="1" fill="none" fill-rule="evenodd">
        <path d="M18,5.25 C20.0710678,5.25 21.75,6.92893219 21.75,9 C21.75,11.0710678 20.0710678,12.75 18,12.75 C17.999666,12.75 17.9993319,12.75 17.9989979,12.7499999 C18.4709784,13.3765694 18.75,14.1557002 18.75,15 C18.75,17.0710678 17.0710678,18.75 15,18.75 C13.7727836,18.75 12.6832532,18.1604959 11.9991349,17.2492136 C11.3167468,18.1604959 10.2272164,18.75 9,18.75 C6.92893219,18.75 5.25,17.0710678 5.25,15 C5.25,14.1982963 5.50157777,13.4553518 5.93009383,12.8458059 L6,12.75 C3.92893219,12.75 2.25,11.0710678 2.25,9 C2.25,6.92893219 3.92893219,5.25 6,5.25 C7.22721641,5.25 8.31674676,5.83950409 9.00086515,6.75078638 C9.68325324,5.83950409 10.7727836,5.25 12,5.25 C13.2272164,5.25 14.3167468,5.83950409 15.0008651,6.75078638 C15.6832532,5.83950409 16.7727836,5.25 18,5.25 Z M9,12.75 C7.75735931,12.75 6.75,13.7573593 6.75,15 C6.75,16.2426407 7.75735931,17.25 9,17.25 C10.2426407,17.25 11.25,16.2426407 11.25,15 C11.25,13.7573593 10.2426407,12.75 9,12.75 Z M15,12.75 C13.7573593,12.75 12.75,13.7573593 12.75,15 C12.75,16.2426407 13.7573593,17.25 15,17.25 C16.2426407,17.25 17.25,16.2426407 17.25,15 C17.25,13.7573593 16.2426407,12.75 15,12.75 Z M6,6.75 C4.75735931,6.75 3.75,7.75735931 3.75,9 C3.75,10.2426407 4.75735931,11.25 6,11.25 C7.24264069,11.25 8.25,10.2426407 8.25,9 C8.25,7.75735931 7.24264069,6.75 6,6.75 Z M18,6.75 C16.7573593,6.75 15.75,7.75735931 15.75,9 C15.75,10.2426407 16.7573593,11.25 18,11.25 C19.2426407,11.25 20.25,10.2426407 20.25,9 C20.25,7.75735931 19.2426407,6.75 18,6.75 Z M12,6.75 C10.7573593,6.75 9.75,7.75735931 9.75,9 C9.75,10.2426407 10.7573593,11.25 12,11.25 C13.2426407,11.25 14.25,10.2426407 14.25,9 C14.25,7.75735931 13.2426407,6.75 12,6.75 Z" id="Icon-Color" fill="#212121"></path>
    </g>
</svg>