<?xml version="1.0" encoding="UTF-8"?>
<svg width="24px" height="24px" viewBox="0 0 24 24" version="1.1" xmlns="http://www.w3.org/2000/svg" xmlns:xlink="http://www.w3.org/1999/xlink">
    <title>Icon/omega</title>
    <g id="Icon/omega" stroke="none" stroke-width="1" fill="none" fill-rule="evenodd">
        <path d="M12,3.19011923 C15.8221073,3.19011923 19.124097,5.86188319 19.9216777,9.59984649 C20.6467511,12.9979949 19.1226669,16.4365275 16.2180537,18.2057154 L16.142,18.25 L20,18.25 C20.3796958,18.25 20.693491,18.5321539 20.7431534,18.8982294 L20.75,19 C20.75,19.3796958 20.4678461,19.693491 20.1017706,19.7431534 L20,19.75 L15,19.75 C14.6203042,19.75 14.306509,19.4678461 14.2568466,19.1017706 L14.25,19 L14.25,18 C14.25,17.7042113 14.4238494,17.4360484 14.6938776,17.3153183 C17.5369587,16.0441715 19.104581,12.9586078 18.4547004,9.91285996 C17.8048198,6.86711209 15.1143097,4.69011923 12,4.69011923 C8.88569031,4.69011923 6.19518022,6.86711209 5.54529963,9.91285996 C4.89541904,12.9586078 6.46304126,16.0441715 9.30612245,17.3153183 C9.54239711,17.4209571 9.70503486,17.6394742 9.74200251,17.8906082 L9.75,18 L9.75,19 C9.75,19.3796958 9.46784612,19.693491 9.10177056,19.7431534 L9,19.75 L4,19.75 C3.58578644,19.75 3.25,19.4142136 3.25,19 C3.25,18.6203042 3.53215388,18.306509 3.89822944,18.2568466 L4,18.25 L7.857,18.25 L7.78194634,18.2057154 C4.94994846,16.4807572 3.43031593,13.1688782 4.02814536,9.85475663 L4.07832227,9.59984649 C4.87590299,5.86188319 8.17789265,3.19011923 12,3.19011923 Z" id="Icon-Color" fill="#212121"></path>
    </g>
</svg>