<?xml version="1.0" encoding="UTF-8"?>
<svg width="24px" height="24px" viewBox="0 0 24 24" version="1.1" xmlns="http://www.w3.org/2000/svg" xmlns:xlink="http://www.w3.org/1999/xlink">
    <title>Icon/brand/opera</title>
    <g id="Icon/brand/opera" stroke="none" stroke-width="1" fill="none" fill-rule="evenodd">
        <path d="M12,2.25 C17.3847763,2.25 21.75,6.61522369 21.75,12 C21.75,17.3847763 17.3847763,21.75 12,21.75 C6.61522369,21.75 2.25,17.3847763 2.25,12 C2.25,6.61522369 6.61522369,2.25 12,2.25 Z M12,3.75 C7.44365081,3.75 3.75,7.44365081 3.75,12 C3.75,16.5563492 7.44365081,20.25 12,20.25 C16.5563492,20.25 20.25,16.5563492 20.25,12 C20.25,7.44365081 16.5563492,3.75 12,3.75 Z M12,6.25 C14.1730446,6.25 15.75,8.87825895 15.75,12 C15.75,15.121741 14.1730446,17.75 12,17.75 C9.82695537,17.75 8.25,15.121741 8.25,12 C8.25,8.87825895 9.82695537,6.25 12,6.25 Z M12,7.75 C10.8593361,7.75 9.75,9.59889355 9.75,12 C9.75,14.4011065 10.8593361,16.25 12,16.25 C13.1406639,16.25 14.25,14.4011065 14.25,12 C14.25,9.59889355 13.1406639,7.75 12,7.75 Z" id="Icon-Color" fill="#212121"></path>
    </g>
</svg>