<?xml version="1.0" encoding="UTF-8"?>
<svg width="24px" height="24px" viewBox="0 0 24 24" version="1.1" xmlns="http://www.w3.org/2000/svg" xmlns:xlink="http://www.w3.org/1999/xlink">
    <title>Icon/options vertical 3 dots</title>
    <g id="Icon/options-vertical-3-dots" stroke="none" stroke-width="1" fill="none" fill-rule="evenodd">
        <path d="M5,10 C5.96649831,10 6.75,10.7835017 6.75,11.75 C6.75,12.7164983 5.96649831,13.5 5,13.5 C4.03350169,13.5 3.25,12.7164983 3.25,11.75 C3.25,10.7835017 4.03350169,10 5,10 Z M12,10 C12.9664983,10 13.75,10.7835017 13.75,11.75 C13.75,12.7164983 12.9664983,13.5 12,13.5 C11.0335017,13.5 10.25,12.7164983 10.25,11.75 C10.25,10.7835017 11.0335017,10 12,10 Z M19,10 C19.9664983,10 20.75,10.7835017 20.75,11.75 C20.75,12.7164983 19.9664983,13.5 19,13.5 C18.0335017,13.5 17.25,12.7164983 17.25,11.75 C17.25,10.7835017 18.0335017,10 19,10 Z M5,11.5 C4.86192881,11.5 4.75,11.6119288 4.75,11.75 C4.75,11.8880712 4.86192881,12 5,12 C5.13807119,12 5.25,11.8880712 5.25,11.75 C5.25,11.6119288 5.13807119,11.5 5,11.5 Z M12,11.5 C11.8619288,11.5 11.75,11.6119288 11.75,11.75 C11.75,11.8880712 11.8619288,12 12,12 C12.1380712,12 12.25,11.8880712 12.25,11.75 C12.25,11.6119288 12.1380712,11.5 12,11.5 Z M19,11.5 C18.8619288,11.5 18.75,11.6119288 18.75,11.75 C18.75,11.8880712 18.8619288,12 19,12 C19.1380712,12 19.25,11.8880712 19.25,11.75 C19.25,11.6119288 19.1380712,11.5 19,11.5 Z" id="Icon-Color" fill="#212121" transform="translate(12.000000, 11.750000) rotate(90.000000) translate(-12.000000, -11.750000) "></path>
    </g>
</svg>