<?xml version="1.0" encoding="UTF-8"?>
<svg width="24px" height="24px" viewBox="0 0 24 24" version="1.1" xmlns="http://www.w3.org/2000/svg" xmlns:xlink="http://www.w3.org/1999/xlink">
    <title>Icon/options horizontal 2 dots</title>
    <g id="Icon/options-horizontal-2-dots" stroke="none" stroke-width="1" fill="none" fill-rule="evenodd">
        <path d="M6.75,10 C7.71649831,10 8.5,10.7835017 8.5,11.75 C8.5,12.7164983 7.71649831,13.5 6.75,13.5 C5.78350169,13.5 5,12.7164983 5,11.75 C5,10.7835017 5.78350169,10 6.75,10 Z M17.75,10 C18.7164983,10 19.5,10.7835017 19.5,11.75 C19.5,12.7164983 18.7164983,13.5 17.75,13.5 C16.7835017,13.5 16,12.7164983 16,11.75 C16,10.7835017 16.7835017,10 17.75,10 Z M6.75,11.5 C6.61192881,11.5 6.5,11.6119288 6.5,11.75 C6.5,11.8880712 6.61192881,12 6.75,12 C6.88807119,12 7,11.8880712 7,11.75 C7,11.6119288 6.88807119,11.5 6.75,11.5 Z M17.75,11.5 C17.6119288,11.5 17.5,11.6119288 17.5,11.75 C17.5,11.8880712 17.6119288,12 17.75,12 C17.8880712,12 18,11.8880712 18,11.75 C18,11.6119288 17.8880712,11.5 17.75,11.5 Z" id="Icon-Color" fill="#212121"></path>
    </g>
</svg>