<?xml version="1.0" encoding="UTF-8"?>
<svg width="24px" height="24px" viewBox="0 0 24 24" version="1.1" xmlns="http://www.w3.org/2000/svg" xmlns:xlink="http://www.w3.org/1999/xlink">
    <title>Icon/palette</title>
    <g id="Icon/palette" stroke="none" stroke-width="1" fill="none" fill-rule="evenodd">
        <path d="M11.9999999,2.25 C17.366387,2.25 21.7499999,6.14654479 21.7499999,11 C21.7499999,12.2790308 21.1815208,13.4989687 20.1802534,14.3889841 C19.2624505,15.2048089 18.0492503,15.6833568 16.7741077,15.7435373 L16.4999999,15.75 L13.987916,15.7499026 C13.4141783,15.7406575 12.9078328,16.1232246 12.7599828,16.6776621 C12.6235059,17.1894505 12.8248522,17.7263364 13.2515987,18.0242938 L13.3629161,18.0936527 L13.5086103,18.1988054 C14.1541784,18.7944983 14.3484791,19.7352844 13.9917221,20.5379876 C13.6572625,21.2905218 12.90817,21.7648798 12.0950592,21.7554519 L12.001,21.75 C8.62221615,21.75 5.49323999,20.0025807 3.71862114,17.1460314 L3.55625221,16.875 C1.81458242,13.8583395 1.81458242,10.1416605 3.5562522,7.125 C5.29792195,4.10833949 8.51666041,2.25 11.9999999,2.25 Z M11.9999999,3.75 C9.05255879,3.75 6.32901087,5.32244111 4.8552903,7.87500001 C3.38156972,10.4275589 3.38156972,13.5724411 4.85529031,16.125 C6.27988685,18.5924736 8.87237763,20.1440816 11.7060401,20.2447805 L12.0683124,20.2531175 C12.273668,20.2719001 12.4695244,20.1743767 12.5794016,20.0054284 L12.6210048,19.9287799 C12.7030465,19.7441862 12.6764675,19.5323745 12.5581279,19.3749794 L12.527,19.34 L12.4830903,19.3145791 C11.5322603,18.7053646 11.0502849,17.5734441 11.2700629,16.465781 L11.3106304,16.2911681 C11.6204113,15.1294895 12.6455575,14.3107724 13.8224054,14.2529193 L13.9999999,14.25 L16.4999999,14.25 C17.5125195,14.25 18.4792404,13.8940632 19.1837076,13.2678701 C19.8702675,12.6575947 20.2499999,11.8427013 20.2499999,11 C20.2499999,7.01689913 16.5747384,3.75 11.9999999,3.75 Z M7.5,9.25 C8.19035594,9.25 8.75,9.80964406 8.75,10.5 C8.75,11.1903559 8.19035594,11.75 7.5,11.75 C6.80964406,11.75 6.25,11.1903559 6.25,10.5 C6.25,9.80964406 6.80964406,9.25 7.5,9.25 Z M16.5,9.25 C17.1903559,9.25 17.75,9.80964406 17.75,10.5 C17.75,11.1903559 17.1903559,11.75 16.5,11.75 C15.8096441,11.75 15.25,11.1903559 15.25,10.5 C15.25,9.80964406 15.8096441,9.25 16.5,9.25 Z M7.5,10.25 C7.36192881,10.25 7.25,10.3619288 7.25,10.5 C7.25,10.6380712 7.36192881,10.75 7.5,10.75 C7.63807119,10.75 7.75,10.6380712 7.75,10.5 C7.75,10.3619288 7.63807119,10.25 7.5,10.25 Z M16.5,10.25 C16.3619288,10.25 16.25,10.3619288 16.25,10.5 C16.25,10.6380712 16.3619288,10.75 16.5,10.75 C16.6380712,10.75 16.75,10.6380712 16.75,10.5 C16.75,10.3619288 16.6380712,10.25 16.5,10.25 Z M12,6.25 C12.6903559,6.25 13.25,6.80964406 13.25,7.5 C13.25,8.19035594 12.6903559,8.75 12,8.75 C11.3096441,8.75 10.75,8.19035594 10.75,7.5 C10.75,6.80964406 11.3096441,6.25 12,6.25 Z M12,7.25 C11.8619288,7.25 11.75,7.36192881 11.75,7.5 C11.75,7.63807119 11.8619288,7.75 12,7.75 C12.1380712,7.75 12.25,7.63807119 12.25,7.5 C12.25,7.36192881 12.1380712,7.25 12,7.25 Z" id="Icon-Color" fill="#212121"></path>
    </g>
</svg>