<?xml version="1.0" encoding="UTF-8"?>
<svg width="24px" height="24px" viewBox="0 0 24 24" version="1.1" xmlns="http://www.w3.org/2000/svg" xmlns:xlink="http://www.w3.org/1999/xlink">
    <title>Icon/paperclip</title>
    <g id="Icon/paperclip" stroke="none" stroke-width="1" fill="none" fill-rule="evenodd">
        <path d="M11.4696699,3.46966991 C13.4194174,1.51992249 16.5805826,1.51992251 18.53033,3.46966996 C20.4209942,5.36033415 20.4782871,8.39010924 18.7022086,10.3498105 L18.5303301,10.5303301 L12.0303301,17.0303301 C10.9090097,18.1516504 9.09099027,18.1516504 7.96966994,17.0303301 C6.89320242,15.9538625 6.8501437,14.2353171 7.84049381,13.1074833 L7.96966991,12.9696699 L14.4696699,6.46966991 C14.7625631,6.1767767 15.2374369,6.1767767 15.5303301,6.46966991 C15.7965966,6.73593648 15.8208027,7.15260016 15.6029482,7.44621165 L15.5303301,7.53033009 L9.03033009,14.0303301 C8.4947962,14.565864 8.49479621,15.434136 9.03033011,15.9696699 C9.53016175,16.4695015 10.3198452,16.5028236 10.8583238,16.0696362 L10.9696699,15.9696699 L17.4696699,9.46966992 C18.8336309,8.10570889 18.8336309,5.89429115 17.4696699,4.53033013 C16.1544217,3.21508201 14.0511686,3.16810885 12.6796344,4.38941065 L12.5303301,4.53033009 L6.03033009,11.0303301 C3.83794199,13.2227182 3.83794202,16.7772817 6.03033015,18.9696698 C8.16181861,21.1011583 11.5808571,21.1603663 13.7838761,19.1472939 L13.9696699,18.9696699 L20.4696699,12.4696699 C20.7625631,12.1767767 21.2374369,12.1767767 21.5303301,12.4696699 C21.7965966,12.7359365 21.8208027,13.1526002 21.6029482,13.4462117 L21.5303301,13.5303301 L15.0303301,20.0303301 C12.2521555,22.8085046 7.74784454,22.8085046 4.96966998,20.03033 C2.25463575,17.3152958 2.19293039,12.9516943 4.78455395,10.1617252 L4.96966991,9.96966991 L11.4696699,3.46966991 Z" id="Icon-Color" fill="#212121"></path>
    </g>
</svg>