<?xml version="1.0" encoding="UTF-8"?>
<svg width="24px" height="24px" viewBox="0 0 24 24" version="1.1" xmlns="http://www.w3.org/2000/svg" xmlns:xlink="http://www.w3.org/1999/xlink">
    <title>Icon/media/pause outline</title>
    <g id="Icon/media/pause-outline" stroke="none" stroke-width="1" fill="none" fill-rule="evenodd">
        <path d="M12.25,2.25 C17.6347763,2.25 22,6.61522369 22,12 C22,17.3847763 17.6347763,21.75 12.25,21.75 C6.86522369,21.75 2.5,17.3847763 2.5,12 C2.5,6.61522369 6.86522369,2.25 12.25,2.25 Z M12.25,3.75 C7.69365081,3.75 4,7.44365081 4,12 C4,16.5563492 7.69365081,20.25 12.25,20.25 C16.8063492,20.25 20.5,16.5563492 20.5,12 C20.5,7.44365081 16.8063492,3.75 12.25,3.75 Z M16.25,13.25 C16.6642136,13.25 17,13.5857864 17,14 C17,14.4142136 16.6642136,14.75 16.25,14.75 L8.75,14.75 C8.33578644,14.75 8,14.4142136 8,14 C8,13.5857864 8.33578644,13.25 8.75,13.25 L16.25,13.25 Z M16.25,8.75 C16.6642136,8.75 17,9.08578644 17,9.5 C17,9.91421356 16.6642136,10.25 16.25,10.25 L8.75,10.25 C8.33578644,10.25 8,9.91421356 8,9.5 C8,9.08578644 8.33578644,8.75 8.75,8.75 L16.25,8.75 Z" id="Icon-Color" fill="#212121" transform="translate(12.250000, 12.000000) rotate(-270.000000) translate(-12.250000, -12.000000) "></path>
    </g>
</svg>