<?xml version="1.0" encoding="UTF-8"?>
<svg width="24px" height="24px" viewBox="0 0 24 24" version="1.1" xmlns="http://www.w3.org/2000/svg" xmlns:xlink="http://www.w3.org/1999/xlink">
    <title>Icon/pennant</title>
    <g id="Icon/pennant" stroke="none" stroke-width="1" fill="none" fill-rule="evenodd">
        <path d="M10,2.25 C10.3796958,2.25 10.693491,2.53215388 10.7431534,2.89822944 L10.75,3 L10.75,3.512 L19.3046038,7.31464134 C19.861349,7.56208364 19.8961456,8.31832649 19.4089936,8.62936886 L19.3046038,8.68535866 L10.75,12.487 L10.75,20.25 L12,20.25 C12.4142136,20.25 12.75,20.5857864 12.75,21 C12.75,21.3796958 12.4678461,21.693491 12.1017706,21.7431534 L12,21.75 L8,21.75 C7.58578644,21.75 7.25,21.4142136 7.25,21 C7.25,20.6203042 7.53215388,20.306509 7.89822944,20.2568466 L8,20.25 L9.25,20.25 L9.24981633,12.0027024 C9.24978656,11.992998 9.24994627,11.9833082 9.25029342,11.9736382 L9.25003197,4.01766684 C9.24981335,4.00864762 9.24975793,3.99961253 9.24986736,3.99056583 L9.25,3 C9.25,2.58578644 9.58578644,2.25 10,2.25 Z M10.75,5.154 L10.75,10.845 L17.153,8 L10.75,5.154 Z" id="Icon-Color" fill="#212121"></path>
    </g>
</svg>