<?xml version="1.0" encoding="UTF-8"?>
<svg width="24px" height="24px" viewBox="0 0 24 24" version="1.1" xmlns="http://www.w3.org/2000/svg" xmlns:xlink="http://www.w3.org/1999/xlink">
    <title>Icon/photo</title>
    <g id="Icon/photo" stroke="none" stroke-width="1" fill="none" fill-rule="evenodd">
        <path d="M17,3.25 C19.0710678,3.25 20.75,4.92893219 20.75,7 L20.75,7 L20.75,17 C20.75,19.0710678 19.0710678,20.75 17,20.75 L17,20.75 L7,20.75 C4.92893219,20.75 3.25,19.0710678 3.25,17 L3.25,17 L3.25,7 C3.25,4.92893219 4.92893219,3.25 7,3.25 L7,3.25 Z M8.64863017,11.4242243 L8.53033009,11.5303301 L4.75,15.31 L4.75,17 C4.75,18.190864 5.67516159,19.1656449 6.84595119,19.2448092 L7,19.25 L17,19.25 C18.2426407,19.25 19.25,18.2426407 19.25,17 L19.25,17 L19.25,15.311 L17.4799686,13.5404325 C16.8820142,12.9650506 16.2432055,12.9290893 15.6486302,13.4242243 L15.5303301,13.5303301 L15.061,14 L16.5303301,15.4696699 C16.8232233,15.7625631 16.8232233,16.2374369 16.5303301,16.5303301 C16.2640635,16.7965966 15.8473998,16.8208027 15.5537883,16.6029482 L15.4696699,16.5303301 L10.4799686,11.5404325 C9.88201418,10.9650506 9.24320551,10.9290893 8.64863017,11.4242243 Z M17,4.75 L7,4.75 C5.75735931,4.75 4.75,5.75735931 4.75,7 L4.75,7 L4.75,13.188 L7.47996857,10.4595675 C8.64981348,9.33388369 10.173827,9.28885634 11.381117,10.3334234 L11.5303301,10.4696699 L14,12.939 L14.4799686,12.4595675 C15.6498135,11.3338837 17.173827,11.2888563 18.381117,12.3334234 L18.5303301,12.4696699 L19.25,13.189 L19.25,7 C19.25,5.80913601 18.3248384,4.83435508 17.1540488,4.75519081 L17,4.75 Z M15.01,7.25 C15.4242136,7.25 15.76,7.58578644 15.76,8 C15.76,8.37969577 15.4778461,8.69349096 15.1117706,8.74315338 L15,8.75 C14.5857864,8.75 14.25,8.41421356 14.25,8 C14.25,7.62030423 14.5321539,7.30650904 14.8982294,7.25684662 L15.01,7.25 Z" id="Icon-Color" fill="#212121"></path>
    </g>
</svg>