<?xml version="1.0" encoding="UTF-8"?>
<svg width="24px" height="24px" viewBox="0 0 24 24" version="1.1" xmlns="http://www.w3.org/2000/svg" xmlns:xlink="http://www.w3.org/1999/xlink">
    <title>Icon/pill</title>
    <g id="Icon/pill" stroke="none" stroke-width="1" fill="none" fill-rule="evenodd">
        <path d="M20.0303301,3.96966991 C22.1960607,6.13540057 22.254594,9.61037584 20.2059299,11.8468765 L20.0303301,12.0303301 L12.0303301,20.0303301 C9.80444024,22.2562199 6.19555976,22.2562199 3.96966991,20.0303301 C1.80393926,17.8645994 1.74540599,14.3896242 3.79407013,12.1531235 L3.96966991,11.9696699 L11.9696699,3.96966991 C14.1955598,1.74378007 17.8044402,1.74378007 20.0303301,3.96966991 Z M8.50025253,9.56125253 L5.03033009,13.0303301 C3.39022668,14.6704335 3.39022668,17.3295665 5.03033009,18.9696699 C6.61752693,20.5568668 9.15906992,20.6080667 10.8078375,19.1232696 L10.9696699,18.9696699 L14.4392525,15.5002525 L8.50025253,9.56125253 Z M13.1921625,4.87673039 L13.0303301,5.03033009 L9.56125253,8.50025253 L15.5002525,14.4392525 L18.9696699,10.9696699 C20.6097733,9.32956651 20.6097733,6.67043349 18.9696699,5.03033009 C17.3824731,3.44313324 14.8409301,3.39193334 13.1921625,4.87673039 Z" id="Icon-Color" fill="#212121"></path>
    </g>
</svg>