<?xml version="1.0" encoding="UTF-8"?>
<svg width="24px" height="24px" viewBox="0 0 24 24" version="1.1" xmlns="http://www.w3.org/2000/svg" xmlns:xlink="http://www.w3.org/1999/xlink">
    <title>Icon/pin</title>
    <g id="Icon/pin" stroke="none" stroke-width="1" fill="none" fill-rule="evenodd">
        <path d="M14.9462117,3.39705176 L15.0303301,3.46966991 L20.5303301,8.96966991 C20.8232233,9.26256313 20.8232233,9.73743687 20.5303301,10.0303301 C20.2640635,10.2965966 19.8473998,10.3208027 19.5537883,10.1029482 L19.502,10.058 L16.145,13.415 L14.7022469,17.2633426 C14.6771853,17.3301735 14.6427784,17.3929109 14.6001939,17.4497414 L14.5303301,17.5303301 L13.0303301,19.0303301 C12.7640635,19.2965966 12.3473998,19.3208027 12.0537883,19.1029482 L11.9696699,19.0303301 L9,16.061 L5.03033009,20.0303301 C4.73743687,20.3232233 4.26256313,20.3232233 3.96966991,20.0303301 C3.70340335,19.7640635 3.6791973,19.3473998 3.89705176,19.0537883 L3.96966991,18.9696699 L7.939,15 L4.96966991,12.0303301 C4.70340335,11.7640635 4.6791973,11.3473998 4.89705176,11.0537883 L4.96966991,10.9696699 L6.46966991,9.46966991 C6.52013997,9.41919986 6.5774238,9.37632347 6.63970785,9.34220851 L6.73665742,9.29775312 L10.584,7.854 L13.941,4.497 L13.8970518,4.44621165 C13.6791973,4.15260016 13.7034034,3.73593648 13.9696699,3.46966991 C14.2359365,3.20340335 14.6526002,3.1791973 14.9462117,3.39705176 Z M15,5.561 L11.5303301,9.03033009 C11.47986,9.08080014 11.4225762,9.12367653 11.3602921,9.15779149 L11.2633426,9.20224688 L7.415,10.645 L6.561,11.5 L9.52364225,14.4630637 C9.52588187,14.4652489 9.5281112,14.467451 9.53033009,14.4696699 L9.536,14.476 L12.5,17.439 L13.354,16.584 L14.7977531,12.7366574 C14.8228147,12.6698265 14.8572216,12.6070891 14.8998061,12.5502586 L14.9696699,12.4696699 L18.439,9 L15,5.561 Z" id="Icon-Color" fill="#212121"></path>
    </g>
</svg>