<?xml version="1.0" encoding="UTF-8"?>
<svg width="24px" height="24px" viewBox="0 0 24 24" version="1.1" xmlns="http://www.w3.org/2000/svg" xmlns:xlink="http://www.w3.org/1999/xlink">
    <title>Icon/plane</title>
    <g id="Icon/plane" stroke="none" stroke-width="1" fill="none" fill-rule="evenodd">
        <path d="M9,2.25 L8.90229642,2.25621838 C8.45595672,2.3136002 8.1510938,2.7588695 8.27885704,3.20604085 L10.005,9.25 L7.311,9.25 L5.53033009,7.46966991 C5.3896778,7.32901763 5.19891237,7.25 5,7.25 L2,7.25 L1.89784788,7.25671105 C1.39952623,7.32299782 1.09542532,7.86790162 1.32917961,8.3354102 L3.161,12 L1.32917961,15.6645898 C1.0798417,16.1632656 1.44246348,16.75 2,16.75 L5,16.75 L5.11803406,16.7406569 C5.27321402,16.7159276 5.41780826,16.6428519 5.53033009,16.5303301 L7.31,14.75 L10.005,14.75 L8.27885704,20.7939592 C8.14196785,21.2730713 8.50171584,21.75 9,21.75 L12,21.75 L12.099777,21.7433469 C12.329473,21.7125484 12.5343417,21.5765753 12.6511824,21.3721042 L16.435,14.75 L20,14.75 C21.5187831,14.75 22.75,13.5187831 22.75,12 L22.7449812,11.8324777 C22.6584043,10.3917046 21.4625318,9.25 20,9.25 L16.436,9.25 L12.6511824,2.6278958 C12.5176502,2.39421455 12.2691426,2.25 12,2.25 L9,2.25 Z M9.994,3.75 L11.564,3.75 L15.3488176,10.3721042 C15.4823498,10.6057855 15.7308574,10.75 16,10.75 L20,10.75 C20.6903559,10.75 21.25,11.3096441 21.25,12 C21.25,12.6903559 20.6903559,13.25 20,13.25 L16,13.25 L15.900223,13.2566531 C15.670527,13.2874516 15.4656583,13.4234247 15.3488176,13.6278958 L11.563,20.25 L9.994,20.25 L11.721143,14.2060408 C11.8580321,13.7269287 11.4982842,13.25 11,13.25 L7,13.25 L6.88196594,13.2593431 C6.72678598,13.2840724 6.58219174,13.3571481 6.46966991,13.4696699 L4.688,15.25 L3.213,15.25 L4.67082039,12.3354102 L4.71480906,12.2270682 C4.77346062,12.04246 4.75879773,11.8405445 4.67082039,11.6645898 L3.213,8.75 L4.689,8.75 L6.46966991,10.5303301 C6.6103222,10.6709824 6.80108763,10.75 7,10.75 L11,10.75 L11.0977036,10.7437816 C11.5440433,10.6863998 11.8489062,10.2411305 11.721143,9.79395915 L9.994,3.75 Z" id="Icon-Color" fill="#212121"></path>
    </g>
</svg>