<?xml version="1.0" encoding="UTF-8"?>
<svg width="24px" height="24px" viewBox="0 0 24 24" version="1.1" xmlns="http://www.w3.org/2000/svg" xmlns:xlink="http://www.w3.org/1999/xlink">
    <title>Icon/media/play outline</title>
    <g id="Icon/media/play-outline" stroke="none" stroke-width="1" fill="none" fill-rule="evenodd">
        <path d="M12,2 C17.3847763,2 21.75,6.36522369 21.75,11.75 C21.75,17.1347763 17.3847763,21.5 12,21.5 C6.61522369,21.5 2.25,17.1347763 2.25,11.75 C2.25,6.36522369 6.61522369,2 12,2 Z M12,3.21875 C7.28832073,3.21875 3.46875,7.03832073 3.46875,11.75 C3.46875,16.4616793 7.28832073,20.28125 12,20.28125 C16.7116793,20.28125 20.53125,16.4616793 20.53125,11.75 C20.53125,7.03832073 16.7116793,3.21875 12,3.21875 Z M7.84291222,14.6851819 L16.5274515,14.6851819 C16.8459247,14.6851819 17.0410622,14.3359708 16.8741512,14.0647404 L12.5318816,7.00855225 C12.3729202,6.75024008 11.9974435,6.75024008 11.8384822,7.00855225 L7.49621253,14.0647404 C7.32930154,14.3359708 7.52443903,14.6851819 7.84291222,14.6851819 Z" id="Icon-Color" fill="#212121" transform="translate(12.000000, 11.750000) rotate(-270.000000) translate(-12.000000, -11.750000) "></path>
    </g>
</svg>