<?xml version="1.0" encoding="UTF-8"?>
<svg width="24px" height="24px" viewBox="0 0 24 24" version="1.1" xmlns="http://www.w3.org/2000/svg" xmlns:xlink="http://www.w3.org/1999/xlink">
    <title>Icon/pool</title>
    <g id="Icon/pool" stroke="none" stroke-width="1" fill="none" fill-rule="evenodd">
        <path d="M15.9842928,18.2501645 C17.022102,18.2284249 18.0039989,18.7193733 18.6092928,19.5626645 C18.9263514,20.0043884 19.4406784,20.2615519 20.0157072,20.2501645 C20.5593216,20.2615519 21.0736486,20.0043884 21.3907072,19.5626645 C21.632241,19.2261614 22.1008324,19.1491735 22.4373355,19.3907072 C22.7738386,19.632241 22.8508265,20.1008324 22.6092928,20.4373355 C22.0039989,21.2806267 21.022102,21.7715751 20.0157072,21.7498355 C18.977898,21.7715751 17.9960011,21.2806267 17.3907072,20.4373355 C17.0736486,19.9956116 16.5593216,19.7384481 15.9842928,19.7498355 C15.4406784,19.7384481 14.9263514,19.9956116 14.6092928,20.4373355 C14.0039989,21.2806267 13.022102,21.7715751 12.0157072,21.7498355 C10.977898,21.7715751 9.99600111,21.2806267 9.39070725,20.4373355 C9.07364856,19.9956116 8.55932162,19.7384481 7.98429275,19.7498355 C7.44067838,19.7384481 6.92635144,19.9956116 6.60929275,20.4373355 C6.00399889,21.2806267 5.022102,21.7715751 4.01570725,21.7498355 C2.977898,21.7715751 1.99600111,21.2806267 1.39070725,20.4373355 C1.14917352,20.1008324 1.2261614,19.632241 1.5626645,19.3907072 C1.89916759,19.1491735 2.36775902,19.2261614 2.60929275,19.5626645 C2.92635144,20.0043884 3.44067838,20.2615519 4.01570725,20.2501645 C4.55932162,20.2615519 5.07364856,20.0043884 5.39070725,19.5626645 C5.99600111,18.7193733 6.977898,18.2284249 7.98429275,18.2501645 C9.022102,18.2284249 10.0039989,18.7193733 10.6092928,19.5626645 C10.9263514,20.0043884 11.4406784,20.2615519 12.0157072,20.2501645 C12.5593216,20.2615519 13.0736486,20.0043884 13.3907072,19.5626645 C13.9960011,18.7193733 14.977898,18.2284249 15.9842928,18.2501645 Z M15.9842928,14.2501645 C17.022102,14.2284249 18.0039989,14.7193733 18.6092928,15.5626645 C18.9263514,16.0043884 19.4406784,16.2615519 20.0157072,16.2501645 C20.5593216,16.2615519 21.0736486,16.0043884 21.3907072,15.5626645 C21.632241,15.2261614 22.1008324,15.1491735 22.4373355,15.3907072 C22.7738386,15.632241 22.8508265,16.1008324 22.6092928,16.4373355 C22.0039989,17.2806267 21.022102,17.7715751 20.0157072,17.7498355 C18.977898,17.7715751 17.9960011,17.2806267 17.3907072,16.4373355 C17.0736486,15.9956116 16.5593216,15.7384481 15.9842928,15.7498355 C15.4406784,15.7384481 14.9263514,15.9956116 14.6092928,16.4373355 C14.0039989,17.2806267 13.022102,17.7715751 12.0157072,17.7498355 C10.977898,17.7715751 9.99600111,17.2806267 9.39070725,16.4373355 C9.07364856,15.9956116 8.55932162,15.7384481 7.98429275,15.7498355 C7.44067838,15.7384481 6.92635144,15.9956116 6.60929275,16.4373355 C6.00399889,17.2806267 5.022102,17.7715751 4.01570725,17.7498355 C2.977898,17.7715751 1.99600111,17.2806267 1.39070725,16.4373355 C1.14917352,16.1008324 1.2261614,15.632241 1.5626645,15.3907072 C1.89916759,15.1491735 2.36775902,15.2261614 2.60929275,15.5626645 C2.92635144,16.0043884 3.44067838,16.2615519 4.01570725,16.2501645 C4.55932162,16.2615519 5.07364856,16.0043884 5.39070725,15.5626645 C5.99600111,14.7193733 6.977898,14.2284249 7.98429275,14.2501645 C9.022102,14.2284249 10.0039989,14.7193733 10.6092928,15.5626645 C10.9263514,16.0043884 11.4406784,16.2615519 12.0157072,16.2501645 C12.5593216,16.2615519 13.0736486,16.0043884 13.3907072,15.5626645 C13.9960011,14.7193733 14.977898,14.2284249 15.9842928,14.2501645 Z M16.5,2.25 C17.7426407,2.25 18.75,3.25735931 18.75,4.5 C18.75,4.91421356 18.4142136,5.25 18,5.25 C17.6203042,5.25 17.306509,4.96784612 17.2568466,4.60177056 L17.25,4.5 C17.25,4.08578644 16.9142136,3.75 16.5,3.75 C16.1203042,3.75 15.806509,4.03215388 15.7568466,4.39822944 L15.75,4.5 L15.75,12 C15.75,12.4142136 15.4142136,12.75 15,12.75 C14.6203042,12.75 14.306509,12.4678461 14.2568466,12.1017706 L14.25,12 L14.2499432,10.75 L9.7499432,10.75 L9.75,12 C9.75,12.4142136 9.41421356,12.75 9,12.75 C8.62030423,12.75 8.30650904,12.4678461 8.25684662,12.1017706 L8.25,12 L8.25,4.5 C8.25,4.08578644 7.91421356,3.75 7.5,3.75 C7.12030423,3.75 6.80650904,4.03215388 6.75684662,4.39822944 L6.75,4.5 C6.75,4.91421356 6.41421356,5.25 6,5.25 C5.58578644,5.25 5.25,4.91421356 5.25,4.5 C5.25,3.25735931 6.25735931,2.25 7.5,2.25 C8.65831736,2.25 9.61220147,3.12528281 9.73632539,4.2505215 L14.2636836,4.25043957 C14.3878448,3.12524032 15.3417108,2.25 16.5,2.25 Z M14.2499432,5.75 L9.7499432,5.75 L9.7499432,9.25 L14.2499432,9.25 L14.2499432,5.75 Z" id="Icon-Color" fill="#212121"></path>
    </g>
</svg>