<?xml version="1.0" encoding="UTF-8"?>
<svg width="24px" height="24px" viewBox="0 0 24 24" version="1.1" xmlns="http://www.w3.org/2000/svg" xmlns:xlink="http://www.w3.org/1999/xlink">
    <title>Icon/printer</title>
    <g id="Icon/printer" stroke="none" stroke-width="1" fill="none" fill-rule="evenodd">
        <path d="M15,2.25 C16.4625318,2.25 17.6584043,3.3917046 17.7449812,4.83247767 L17.75,5 L17.75,8.25 L19,8.25 C20.4625318,8.25 21.6584043,9.3917046 21.7449812,10.8324777 L21.75,11 L21.75,15 C21.75,16.4625318 20.6082954,17.6584043 19.1675223,17.7449812 L19,17.75 L17.75,17.75 L17.75,19 C17.75,20.4625318 16.6082954,21.6584043 15.1675223,21.7449812 L15,21.75 L9,21.75 C7.48121694,21.75 6.25,20.5187831 6.25,19 L6.25,19 L6.25,17.75 L5,17.75 C3.53746816,17.75 2.34159572,16.6082954 2.25501879,15.1675223 L2.25,15 L2.25,11 C2.25,9.53746816 3.3917046,8.34159572 4.83247767,8.25501879 L5,8.25 L6.25,8.25 L6.25,5 C6.25,3.53746816 7.3917046,2.34159572 8.83247767,2.25501879 L9,2.25 L15,2.25 Z M15,13.75 L9,13.75 C8.30964406,13.75 7.75,14.3096441 7.75,15 L7.75,15 L7.75,19 C7.75,19.6903559 8.30964406,20.25 9,20.25 L9,20.25 L15,20.25 C15.6903559,20.25 16.25,19.6903559 16.25,19 L16.25,19 L16.25,15 C16.25,14.3096441 15.6903559,13.75 15,13.75 L15,13.75 Z M19,9.75 L5,9.75 C4.35279131,9.75 3.8204661,10.2418747 3.75645361,10.8721948 L3.75,11 L3.75,15 C3.75,15.6472087 4.24187466,16.1795339 4.87219476,16.2435464 L5,16.25 L6.25,16.25 L6.25,15 C6.25,13.5374682 7.3917046,12.3415957 8.83247767,12.2550188 L9,12.25 L15,12.25 C16.5187831,12.25 17.75,13.4812169 17.75,15 L17.75,15 L17.75,16.25 L19,16.25 C19.6472087,16.25 20.1795339,15.7581253 20.2435464,15.1278052 L20.25,15 L20.25,11 C20.25,10.3527913 19.7581253,9.8204661 19.1278052,9.75645361 L19,9.75 Z M15,3.75 L9,3.75 C8.35279131,3.75 7.8204661,4.24187466 7.75645361,4.87219476 L7.75,5 L7.75,8.25 L16.25,8.25 L16.25,5 C16.25,4.35279131 15.7581253,3.8204661 15.1278052,3.75645361 L15,3.75 Z" id="Icon-Color" fill="#212121"></path>
    </g>
</svg>