<?xml version="1.0" encoding="UTF-8"?>
<svg width="24px" height="24px" viewBox="0 0 24 24" version="1.1" xmlns="http://www.w3.org/2000/svg" xmlns:xlink="http://www.w3.org/1999/xlink">
    <title>Icon/puzzle</title>
    <g id="Icon/puzzle" stroke="none" stroke-width="1" fill="none" fill-rule="evenodd">
        <path d="M10,2.25 C11.4625318,2.25 12.6584043,3.3917046 12.7449812,4.83247767 L12.75,5 L12.75,6 C12.75,6.11834673 12.8322334,6.21748682 12.9426773,6.24339732 L13,6.25 L16,6.25 C16.9181734,6.25 17.6711923,6.95711027 17.7441988,7.85647279 L17.75,8 L17.75,11 C17.75,11.1183467 17.8322334,11.2174868 17.9426773,11.2433973 L18,11.25 L19,11.25 C20.5187831,11.25 21.75,12.4812169 21.75,14 C21.75,15.4625318 20.6082954,16.6584043 19.1675223,16.7449812 L19,16.75 L18,16.75 C17.8816533,16.75 17.7825132,16.8322334 17.7566027,16.9426773 L17.75,17 L17.75,20 C17.75,20.9181734 17.0428897,21.6711923 16.1435272,21.7441988 L16,21.75 L13,21.75 C12.0818266,21.75 11.3288077,21.0428897 11.2558012,20.1435272 L11.25,20 L11.25,19 C11.25,18.3096441 10.6903559,17.75 10,17.75 C9.35279131,17.75 8.8204661,18.2418747 8.75645361,18.8721948 L8.75,19 L8.75,20 C8.75,20.9181734 8.04288973,21.6711923 7.14352721,21.7441988 L7,21.75 L4,21.75 C3.0818266,21.75 2.32880766,21.0428897 2.2558012,20.1435272 L2.25,20 L2.25,17 C2.25,16.0818266 2.95711027,15.3288077 3.85647279,15.2558012 L4,15.25 L5,15.25 C5.69035594,15.25 6.25,14.6903559 6.25,14 C6.25,13.3527913 5.75812534,12.8204661 5.12780524,12.7564536 L5,12.75 L4,12.75 C3.0818266,12.75 2.32880766,12.0428897 2.2558012,11.1435272 L2.25,11 L2.25,8 C2.25,7.0818266 2.95711027,6.32880766 3.85647279,6.2558012 L4,6.25 L7,6.25 C7.11834673,6.25 7.21748682,6.16776659 7.24339732,6.05732271 L7.25,6 L7.25,5 C7.25,3.48121694 8.48121694,2.25 10,2.25 Z M10,3.75 C9.35279131,3.75 8.8204661,4.24187466 8.75645361,4.87219476 L8.75,5 L8.75,6 C8.75,6.9181734 8.04288973,7.67119234 7.14352721,7.7441988 L7,7.75 L4,7.75 C3.88165327,7.75 3.78251318,7.83223341 3.75660268,7.94267729 L3.75,8 L3.75,11 C3.75,11.1183467 3.83223341,11.2174868 3.94267729,11.2433973 L4,11.25 L5,11.25 C6.51878306,11.25 7.75,12.4812169 7.75,14 C7.75,15.4625318 6.6082954,16.6584043 5.16752233,16.7449812 L5,16.75 L4,16.75 C3.88165327,16.75 3.78251318,16.8322334 3.75660268,16.9426773 L3.75,17 L3.75,20 C3.75,20.1183467 3.83223341,20.2174868 3.94267729,20.2433973 L4,20.25 L7,20.25 C7.11834673,20.25 7.21748682,20.1677666 7.24339732,20.0573227 L7.25,20 L7.25,19 C7.25,17.4812169 8.48121694,16.25 10,16.25 C11.4625318,16.25 12.6584043,17.3917046 12.7449812,18.8324777 L12.75,19 L12.75,20 C12.75,20.1183467 12.8322334,20.2174868 12.9426773,20.2433973 L13,20.25 L16,20.25 C16.1183467,20.25 16.2174868,20.1677666 16.2433973,20.0573227 L16.25,20 L16.25,17 C16.25,16.0818266 16.9571103,15.3288077 17.8564728,15.2558012 L18,15.25 L19,15.25 C19.6903559,15.25 20.25,14.6903559 20.25,14 C20.25,13.3527913 19.7581253,12.8204661 19.1278052,12.7564536 L19,12.75 L18,12.75 C17.0818266,12.75 16.3288077,12.0428897 16.2558012,11.1435272 L16.25,11 L16.25,8 C16.25,7.88165327 16.1677666,7.78251318 16.0573227,7.75660268 L16,7.75 L13,7.75 C12.0818266,7.75 11.3288077,7.04288973 11.2558012,6.14352721 L11.25,6 L11.25,5 C11.25,4.30964406 10.6903559,3.75 10,3.75 Z" id="Icon-Color" fill="#212121"></path>
    </g>
</svg>