<?xml version="1.0" encoding="UTF-8"?>
<svg width="24px" height="24px" viewBox="0 0 24 24" version="1.1" xmlns="http://www.w3.org/2000/svg" xmlns:xlink="http://www.w3.org/1999/xlink">
    <title>Icon/brand/python</title>
    <g id="Icon/brand/python" stroke="none" stroke-width="1" fill="none" fill-rule="evenodd">
        <path d="M14,2.25 C15.4625318,2.25 16.6584043,3.3917046 16.7449812,4.83247767 L16.75,5 L16.75,6.25 L19,6.25 C20.4625318,6.25 21.6584043,7.3917046 21.7449812,8.83247767 L21.75,9 L21.75,13 C21.75,14.4625318 20.6082954,15.6584043 19.1675223,15.7449812 L19,15.75 L16.75,15.75 L16.75,19 C16.75,20.4625318 15.6082954,21.6584043 14.1675223,21.7449812 L14,21.75 L10,21.75 C8.53746816,21.75 7.34159572,20.6082954 7.25501879,19.1675223 L7.25,19 L7.25,17.75 L5,17.75 C3.53746816,17.75 2.34159572,16.6082954 2.25501879,15.1675223 L2.25,15 L2.25,11 C2.25,9.53746816 3.3917046,8.34159572 4.83247767,8.25501879 L5,8.25 L7.25,8.25 L7.25,5 C7.25,3.53746816 8.3917046,2.34159572 9.83247767,2.25501879 L10,2.25 L14,2.25 Z M19,7.75 L16.75,7.75 L16.75,10 C16.75,11.4625318 15.6082954,12.6584043 14.1675223,12.7449812 L14,12.75 L10,12.75 C9.35279131,12.75 8.8204661,13.2418747 8.75645361,13.8721948 L8.75,14 L8.75,19 C8.75,19.6472087 9.24187466,20.1795339 9.87219476,20.2435464 L10,20.25 L14,20.25 C14.6472087,20.25 15.1795339,19.7581253 15.2435464,19.1278052 L15.25,19 L15.25,15.75 L12,15.75 C11.5857864,15.75 11.25,15.4142136 11.25,15 C11.25,14.6203042 11.5321539,14.306509 11.8982294,14.2568466 L12,14.25 L19,14.25 C19.6472087,14.25 20.1795339,13.7581253 20.2435464,13.1278052 L20.25,13 L20.25,9 C20.25,8.35279131 19.7581253,7.8204661 19.1278052,7.75645361 L19,7.75 Z M13,17.25 C13.3796958,17.25 13.693491,17.5321539 13.7431534,17.8982294 L13.75,18.01 C13.75,18.4242136 13.4142136,18.76 13,18.76 C12.6203042,18.76 12.306509,18.4778461 12.2568466,18.1117706 L12.25,18 C12.25,17.5857864 12.5857864,17.25 13,17.25 Z M14,3.75 L10,3.75 C9.35279131,3.75 8.8204661,4.24187466 8.75645361,4.87219476 L8.75,5 L8.75,8.25 L12,8.25 C12.4142136,8.25 12.75,8.58578644 12.75,9 C12.75,9.37969577 12.4678461,9.69349096 12.1017706,9.74315338 L12,9.75 L5,9.75 C4.35279131,9.75 3.8204661,10.2418747 3.75645361,10.8721948 L3.75,11 L3.75,15 C3.75,15.6472087 4.24187466,16.1795339 4.87219476,16.2435464 L5,16.25 L7.25,16.25 L7.25,14 C7.25,12.5374682 8.3917046,11.3415957 9.83247767,11.2550188 L10,11.25 L14,11.25 C14.6472087,11.25 15.1795339,10.7581253 15.2435464,10.1278052 L15.25,10 L15.25,5 C15.25,4.35279131 14.7581253,3.8204661 14.1278052,3.75645361 L14,3.75 Z M11,5.25 C11.3796958,5.25 11.693491,5.53215388 11.7431534,5.89822944 L11.75,6.01 C11.75,6.42421356 11.4142136,6.76 11,6.76 C10.6203042,6.76 10.306509,6.47784612 10.2568466,6.11177056 L10.25,6 C10.25,5.58578644 10.5857864,5.25 11,5.25 Z" id="Icon-Color" fill="#212121"></path>
    </g>
</svg>