<?xml version="1.0" encoding="UTF-8"?>
<svg width="24px" height="24px" viewBox="0 0 24 24" version="1.1" xmlns="http://www.w3.org/2000/svg" xmlns:xlink="http://www.w3.org/1999/xlink">
    <title>Icon/question-mark</title>
    <g id="Icon/question-mark" stroke="none" stroke-width="1" fill="none" fill-rule="evenodd">
        <path d="M12,18.25 C12.3796958,18.25 12.693491,18.5321539 12.7431534,18.8982294 L12.75,19.01 C12.75,19.4242136 12.4142136,19.76 12,19.76 C11.6203042,19.76 11.306509,19.4778461 11.2568466,19.1117706 L11.25,19 C11.25,18.5857864 11.5857864,18.25 12,18.25 Z M12.5,4.25 C14.7533372,4.25 16.6328928,5.80251938 16.7436388,7.77173135 L16.7487966,7.95753109 C16.843354,9.624733 15.8241205,11.1535833 14.3183834,11.679067 C13.3562453,12.1301694 12.6856539,13.4713523 12.7493224,14.968126 C12.7669259,15.3819653 12.4457134,15.7317188 12.0318741,15.7493224 C11.6180347,15.7669259 11.2682812,15.4457134 11.2506776,15.0318741 C11.1630543,12.9719503 12.1232365,11.0515858 13.7512034,10.2924689 C14.6963977,9.96010026 15.3079378,9.04279006 15.25,8 C15.25,6.83381459 14.1369277,5.83310517 12.6834073,5.75491431 L12.5,5.75 L11.5,5.75 C9.95776079,5.75 8.75,6.78522353 8.75,8 C8.75,8.41421356 8.41421356,8.75 8,8.75 C7.58578644,8.75 7.25,8.41421356 7.25,8 C7.25,5.96467197 9.06127261,4.35047599 11.2898872,4.25451492 L11.5,4.25 L12.5,4.25 Z" id="Icon-Color" fill="#212121"></path>
    </g>
</svg>