<?xml version="1.0" encoding="UTF-8"?>
<svg width="24px" height="24px" viewBox="0 0 24 24" version="1.1" xmlns="http://www.w3.org/2000/svg" xmlns:xlink="http://www.w3.org/1999/xlink">
    <title>Icon/rainbow</title>
    <g id="Icon/rainbow" stroke="none" stroke-width="1" fill="none" fill-rule="evenodd">
        <path d="M12,6.25 C17.9372136,6.25 22.75,11.0627864 22.75,17 C22.75,17.4142136 22.4142136,17.75 22,17.75 C21.5857864,17.75 21.25,17.4142136 21.25,17 C21.25,11.8912136 17.1087864,7.75 12,7.75 C6.89121356,7.75 2.75,11.8912136 2.75,17 C2.75,17.4142136 2.41421356,17.75 2,17.75 C1.58578644,17.75 1.25,17.4142136 1.25,17 C1.25,11.0627864 6.06278644,6.25 12,6.25 Z M12,10.25 C15.7279221,10.25 18.75,13.2720779 18.75,17 C18.75,17.4142136 18.4142136,17.75 18,17.75 C17.5857864,17.75 17.25,17.4142136 17.25,17 C17.25,14.1005051 14.8994949,11.75 12,11.75 C9.10050506,11.75 6.75,14.1005051 6.75,17 C6.75,17.4142136 6.41421356,17.75 6,17.75 C5.58578644,17.75 5.25,17.4142136 5.25,17 C5.25,13.2720779 8.27207794,10.25 12,10.25 Z M12,14.25 C13.5187831,14.25 14.75,15.4812169 14.75,17 C14.75,17.4142136 14.4142136,17.75 14,17.75 C13.6203042,17.75 13.306509,17.4678461 13.2568466,17.1017706 L13.25,17 C13.25,16.3096441 12.6903559,15.75 12,15.75 C11.3527913,15.75 10.8204661,16.2418747 10.7564536,16.8721948 L10.75,17 C10.75,17.4142136 10.4142136,17.75 10,17.75 C9.58578644,17.75 9.25,17.4142136 9.25,17 C9.25,15.4812169 10.4812169,14.25 12,14.25 Z" id="Icon-Color" fill="#212121"></path>
    </g>
</svg>