<?xml version="1.0" encoding="UTF-8"?>
<svg width="24px" height="24px" viewBox="0 0 24 24" version="1.1" xmlns="http://www.w3.org/2000/svg" xmlns:xlink="http://www.w3.org/1999/xlink">
    <title>Icon/recharging</title>
    <g id="Icon/recharging" stroke="none" stroke-width="1" fill="none" fill-rule="evenodd">
        <path d="M12,2.25 C17.3847763,2.25 21.75,6.61522374 21.75,12 C21.75,17.3847763 17.3847763,21.75 12,21.75 C11.9480454,21.75 11.8973246,21.7447172 11.8483456,21.7346595 C11.2508247,21.7284196 10.6529404,21.6665948 10.0631667,21.5496851 C9.65685898,21.4691436 9.39277332,21.0744744 9.47331485,20.6681667 C9.54714458,20.295718 9.88492888,20.0427753 10.2536739,20.0652421 L10.3548333,20.0783149 C11.4139735,20.288266 12.5040265,20.288266 13.5631667,20.0783149 C13.6227585,20.0665021 13.6820999,20.0621026 13.7402366,20.0644779 C14.7314381,19.8532849 15.6564441,19.4624287 16.4802359,18.9286483 C16.5004503,18.9080915 16.5238082,18.8906071 16.5484393,18.8743263 C17.4520415,18.2770592 18.2291864,17.5077013 18.8355227,16.6101596 L18.8836716,16.5488991 C19.4399482,15.7087981 19.8465499,14.760939 20.0654574,13.7433412 C20.0674926,13.7111278 20.0717871,13.6780188 20.078381,13.6448333 C20.2893024,12.5833205 20.2893024,11.4906795 20.078381,10.4291667 C20.0669449,10.3716116 20.0624253,10.3142869 20.0642473,10.258053 C19.8537093,9.27114089 19.4647738,8.34925821 18.9338199,7.52775571 C18.912162,7.50494896 18.8924947,7.47904759 18.8743263,7.45156066 C18.2770592,6.54795852 17.5077013,5.77081359 16.6101596,5.16447732 L16.5538562,5.11961331 C15.7105953,4.56037099 14.7585789,4.15200864 13.7363153,3.93303445 C13.7041971,3.9316736 13.6724475,3.92728229 13.6406395,3.92077323 C12.5803295,3.70379638 11.4876878,3.69756695 10.4249728,3.9024399 C10.0182483,3.98084931 9.6249695,3.71469731 9.5465601,3.30797279 C9.46815069,2.90124826 9.73430269,2.5079695 10.1410272,2.4295601 C10.7301586,2.31598583 11.3270721,2.2573066 11.9241735,2.25347912 L12,2.25 L12,2.25 Z M5.1256737,16.5484393 C5.72294077,17.4520415 6.49229867,18.2291864 7.38984037,18.8355227 C7.73307282,19.0673941 7.82334876,19.5336079 7.59147732,19.8768404 C7.35960589,20.2200728 6.89339208,20.3103488 6.55015963,20.0784773 C5.48942853,19.3618981 4.58018737,18.4434541 3.8743263,17.3755607 C3.64592305,17.0300106 3.7408893,16.5647295 4.08643934,16.3363263 C4.43198939,16.1079231 4.89727046,16.2028893 5.1256737,16.5484393 Z M12.3354102,7.32917961 C12.6750204,7.49898472 12.8295043,7.8916843 12.7102098,8.24132194 L12.6708204,8.3354102 L11.213,11.25 L14,11.25 C14.5226905,11.25 14.8740692,11.7656845 14.7105017,12.2410413 L14.6708204,12.3354102 L12.6708204,16.3354102 C12.4855785,16.7058941 12.0350737,16.8560623 11.6645898,16.6708204 C11.3249796,16.5010153 11.1704957,16.1083157 11.2897902,15.7586781 L11.3291796,15.6645898 L12.786,12.75 L10,12.75 C9.47730952,12.75 9.12593081,12.2343155 9.28949833,11.7589587 L9.32917961,11.6645898 L11.3291796,7.6645898 C11.5144215,7.29410593 11.9649263,7.14393767 12.3354102,7.32917961 Z M3.2310132,9.46026239 L3.33216667,9.47338101 C3.73843782,9.55410663 4.00234462,9.94889551 3.92161899,10.3551667 C3.71069759,11.4166795 3.71069759,12.5093205 3.92161899,13.5708333 C4.00234462,13.9771045 3.73843782,14.3718934 3.33216667,14.452619 C2.92589551,14.5333446 2.53110663,14.2694378 2.45038101,13.8631667 C2.20111025,12.6086515 2.20111025,11.3173485 2.45038101,10.0628333 C2.52437949,9.69041811 2.86227836,9.43762849 3.2310132,9.46026239 Z M7.6636737,4.08643934 C7.89207695,4.43198939 7.7971107,4.89727046 7.45156066,5.1256737 C6.54795852,5.72294077 5.77081359,6.49229867 5.16447732,7.38984037 C4.93260589,7.73307282 4.46639208,7.82334876 4.12315963,7.59147732 C3.77992718,7.35960589 3.68965124,6.89339208 3.92152268,6.55015963 C4.6381019,5.48942853 5.55654591,4.58018737 6.62443934,3.8743263 C6.96998939,3.64592305 7.43527046,3.7408893 7.6636737,4.08643934 Z" id="Icon-Color" fill="#212121"></path>
    </g>
</svg>