<?xml version="1.0" encoding="UTF-8"?>
<svg width="24px" height="24px" viewBox="0 0 24 24" version="1.1" xmlns="http://www.w3.org/2000/svg" xmlns:xlink="http://www.w3.org/1999/xlink">
    <title>Icon/recycle</title>
    <g id="Icon/recycle" stroke="none" stroke-width="1" fill="none" fill-rule="evenodd">
        <path d="M20.730677,14.719742 L20.8021177,14.8026875 L20.8571619,14.8885609 L21.4448654,15.9677552 C21.7798209,16.7923906 21.6949497,17.7281453 21.2170947,18.4790603 C20.7733723,19.1763385 20.0417606,19.6341609 19.1968989,19.7334947 L19,19.75 L11.811,19.75 L12.5303301,20.4696699 C12.7965966,20.7359365 12.8208027,21.1526002 12.6029482,21.4462117 L12.5303301,21.5303301 C12.2640635,21.7965966 11.8473998,21.8208027 11.5537883,21.6029482 L11.4696699,21.5303301 L9.46966991,19.5303301 C9.43522891,19.4958891 9.40483779,19.4589318 9.37849655,19.42005 L9.3239304,19.3251715 L9.28881291,19.2386647 L9.26241813,19.136298 L9.25399994,19.077931 L9.25,19 L9.25317463,18.9305305 L9.26973472,18.828633 L9.28898031,18.7607164 L9.31160159,18.7018614 L9.34686081,18.6309547 L9.39705176,18.5537883 C9.42217116,18.5205706 9.44507007,18.4942698 9.46966991,18.4696699 L11.4696699,16.4696699 C11.7625631,16.1767767 12.2374369,16.1767767 12.5303301,16.4696699 C12.7965966,16.7359365 12.8208027,17.1526002 12.6029482,17.4462117 L12.5303301,17.5303301 L11.81,18.25 L18.9613846,18.2509948 C19.3654238,18.2301643 19.7343957,18.015072 19.9516025,17.6737471 C20.1416585,17.3750877 20.1949516,17.012102 20.1285663,16.7279665 L20.0928381,16.6114391 L19.5428381,15.6114391 C19.3432208,15.2484985 19.4756204,14.7924554 19.8385609,14.5928381 C20.1379869,14.4281538 20.5007808,14.4894486 20.730677,14.719742 Z M7.77095631,7.51770302 L7.86153253,7.51900478 L7.9540084,7.53184557 L8.05585792,7.56017035 L8.13463872,7.59334074 L8.22376163,7.64479588 L8.31864535,7.72033921 L8.36784008,7.77096469 L8.4249543,7.84453833 L8.49300926,7.96802132 L8.52954889,8.0729697 L9.26159969,10.8050205 C9.36880605,11.2051201 9.13136919,11.6163728 8.73126961,11.7235792 C8.36754272,11.8210395 7.99459836,11.6336707 7.84925058,11.2981975 L7.81271095,11.1932491 L7.5495486,10.2097246 L3.97306977,16.4023733 C3.78908991,16.7626967 3.7908793,17.1897819 3.977872,17.548551 C4.14149062,17.862474 4.42919889,18.0901201 4.70846012,18.1746965 L4.82723993,18.2020186 L5.96826534,18.2257046 C6.38238968,18.2343013 6.71113486,18.5769843 6.70253824,18.9911087 C6.69544603,19.3327612 6.46096624,19.6163026 6.14657822,19.7002519 L6.03902496,19.7206486 L5.93713423,19.7253816 L4.70867282,19.6947505 C3.82703988,19.5725129 3.05908812,19.0311349 2.64770417,18.2418428 C2.26570478,17.5089288 2.23502474,16.6464233 2.57143,15.8650848 L2.65558546,15.6863126 L6.2500105,9.46059065 L5.26716799,9.72357916 C4.9034411,9.82103949 4.53049674,9.6336707 4.38514896,9.29819746 L4.34860934,9.19324908 C4.25114901,8.82952219 4.4385178,8.45657783 4.77399104,8.31123005 L4.87893943,8.27469042 L7.61099023,7.54263961 C7.6643632,7.52833837 7.71793464,7.52017017 7.77095631,7.51770302 Z M12.1365202,2.27812803 C12.9622421,2.31376388 13.7245337,2.71844692 14.2329902,3.40045171 L14.3457336,3.56271855 L17.9401728,9.79046506 L18.203821,8.80578209 C18.3012813,8.4420552 18.6500197,8.21276031 19.0132219,8.25462206 L19.1223797,8.275452 C19.4861066,8.37291233 19.7154015,8.72165064 19.6735397,9.08485288 L19.6527098,9.19401066 L18.920659,11.9260615 L18.8973913,11.9982865 L18.8556557,12.0894526 L18.7994719,12.1778986 L18.7465533,12.2417054 L18.6737568,12.3103431 L18.5712146,12.3814662 C18.5343055,12.4027757 18.4963381,12.4205914 18.4576952,12.4350161 L18.3622512,12.4635424 L18.2588997,12.4795006 L18.1112581,12.4772215 C18.0699309,12.4720764 18.0357043,12.4653957 18.0021003,12.4563916 L15.2700495,11.7243407 C14.8699499,11.6171344 14.632513,11.2058817 14.7397194,10.8057821 C14.8371797,10.4420552 15.185918,10.2127603 15.5491203,10.2546221 L15.6582781,10.275452 L16.6406347,10.539599 L13.0668647,4.34566307 C12.8468054,4.00617013 12.4760441,3.79417719 12.0718446,3.77673307 C11.71817,3.76146946 11.3771686,3.8968091 11.1642926,4.0963682 L11.0812411,4.18557349 L10.4902157,5.16188746 C10.2757086,5.51623135 9.81456382,5.6295915 9.46021992,5.41508444 C9.16788621,5.23811611 9.03957206,4.89327997 9.12406389,4.57903734 L9.16017646,4.47569512 L9.20702294,4.38508867 L9.8477809,3.3365254 C10.3944583,2.63412771 11.2472813,2.23975096 12.1365202,2.27812803 Z" id="Icon-Color" fill="#212121"></path>
    </g>
</svg>