<?xml version="1.0" encoding="UTF-8"?>
<svg width="24px" height="24px" viewBox="0 0 24 24" version="1.1" xmlns="http://www.w3.org/2000/svg" xmlns:xlink="http://www.w3.org/1999/xlink">
    <title>Icon/brand/reddit</title>
    <g id="Icon/brand/reddit" stroke="none" stroke-width="1" fill="none" fill-rule="evenodd">
        <path d="M19,2.25 C19.9664983,2.25 20.75,3.03350169 20.75,4 C20.75,4.96649831 19.9664983,5.75 19,5.75 C18.1999138,5.75 17.5252325,5.21307788 17.3166181,4.47989567 L13.593,3.858 L12.908408,7.28095334 C15.0593809,7.42812824 17.0593801,8.0949567 18.6248989,9.17034286 L18.6248989,9.17034286 L18.833,9.319 L18.9768293,9.29162782 C20.2674866,9.07945357 21.5801043,9.66657548 22.2745311,10.8033867 L22.2745311,10.8033867 L22.3694604,10.9695007 C23.0639508,12.2712969 22.7892869,13.8601172 21.738,14.857 L21.738,14.857 L21.7336796,14.9399956 C21.4349071,18.7210217 17.308569,21.6381233 12.2914184,21.7468565 L12.2914184,21.7468565 L12.001,21.75 C7.06680064,21.75 2.91340361,19.0300212 2.31910245,15.3906567 L2.31910245,15.3906567 L2.31,15.329 L1.8496774,15.2345757 C1.77758666,15.219725 1.70827448,15.1943856 1.64389621,15.1595278 L1.64389621,15.1595278 L1.55129863,15.1002239 C0.267808875,14.1386041 -0.12234125,12.3844966 0.632539586,10.9695007 C1.29683472,9.72430432 2.67305358,9.06935003 4.02517067,9.29162782 L4.02517067,9.29162782 L4.168,9.319 L4.37706881,9.17041774 C6.07161633,8.00653868 8.2756311,7.32085282 10.6283371,7.25519394 L10.6283371,7.25519394 L11.001,7.25 L11.3847451,7.24989379 L12.2645645,2.8529129 C12.3373366,2.48905219 12.6627526,2.23831041 13.0240398,2.25030636 L13.1232992,2.26020456 L17.5638594,2.99973191 C17.880116,2.54651204 18.4054309,2.25 19,2.25 Z M12,8.75 L11.001,8.75 C8.58979779,8.75 6.35356502,9.48281452 4.79469547,10.7263113 C4.59289896,10.8872826 4.32250363,10.9331667 4.07890137,10.8477761 C3.26395363,10.5621104 2.36245926,10.9136197 1.95598496,11.6755406 C1.60031995,12.3422214 1.71670497,13.1487041 2.21434811,13.6867903 L2.21434811,13.6867903 L2.332,13.802 L3.1523226,13.9714243 C3.45133167,14.0330202 3.6791894,14.2681551 3.73682318,14.5606247 L3.73682318,14.5606247 L3.7502631,14.6727614 C3.88528088,17.7163234 7.49884862,20.25 12.001,20.25 C16.5998399,20.25 20.251,17.6132067 20.251,14.5 C20.251,14.2638007 20.3622687,14.0414017 20.5512986,13.8997761 C21.2424085,13.3819809 21.4524893,12.4374615 21.046015,11.6755406 C20.6395407,10.9136197 19.7380464,10.5621104 18.9230986,10.8477761 C18.6794775,10.9331733 18.4090606,10.8872752 18.2072605,10.7262762 C16.6481576,9.48240177 14.4121839,8.75 12,8.75 L12,8.75 Z M10.3350077,16.3289785 C10.9016632,16.6118815 11.4537231,16.75 12,16.75 C12.5462769,16.75 13.0983368,16.6118815 13.6649923,16.3289785 C14.0355872,16.1439589 14.4860018,16.2943973 14.6710215,16.6649923 C14.8560411,17.0355872 14.7056027,17.4860018 14.3350077,17.6710215 C13.5661572,18.0548704 12.7862238,18.25 12,18.25 C11.2137762,18.25 10.4338428,18.0548704 9.66499228,17.6710215 C9.29439735,17.4860018 9.14395886,17.0355872 9.32897852,16.6649923 C9.51399818,16.2943973 9.9644128,16.1439589 10.3350077,16.3289785 Z M9,11.75 C9.69035594,11.75 10.25,12.3096441 10.25,13 C10.25,13.6903559 9.69035594,14.25 9,14.25 C8.30964406,14.25 7.75,13.6903559 7.75,13 C7.75,12.3096441 8.30964406,11.75 9,11.75 Z M15,11.75 C15.6903559,11.75 16.25,12.3096441 16.25,13 C16.25,13.6903559 15.6903559,14.25 15,14.25 C14.3096441,14.25 13.75,13.6903559 13.75,13 C13.75,12.3096441 14.3096441,11.75 15,11.75 Z M9,12.75 C8.86192881,12.75 8.75,12.8619288 8.75,13 C8.75,13.1380712 8.86192881,13.25 9,13.25 C9.13807119,13.25 9.25,13.1380712 9.25,13 C9.25,12.8619288 9.13807119,12.75 9,12.75 Z M15,12.75 C14.8619288,12.75 14.75,12.8619288 14.75,13 C14.75,13.1380712 14.8619288,13.25 15,13.25 C15.1380712,13.25 15.25,13.1380712 15.25,13 C15.25,12.8619288 15.1380712,12.75 15,12.75 Z" id="Icon-Color" fill="#212121"></path>
    </g>
</svg>