<?xml version="1.0" encoding="UTF-8"?>
<svg width="24px" height="24px" viewBox="0 0 24 24" version="1.1" xmlns="http://www.w3.org/2000/svg" xmlns:xlink="http://www.w3.org/1999/xlink">
    <title>Icon/registered</title>
    <g id="Icon/registered" stroke="none" stroke-width="1" fill="none" fill-rule="evenodd">
        <path d="M12,2.25 C17.3847763,2.25 21.75,6.61522369 21.75,12 C21.75,17.3847763 17.3847763,21.75 12,21.75 C6.61522369,21.75 2.25,17.3847763 2.25,12 C2.25,6.61522369 6.61522369,2.25 12,2.25 Z M12,3.75 C7.44365081,3.75 3.75,7.44365081 3.75,12 C3.75,16.5563492 7.44365081,20.25 12,20.25 C16.5563492,20.25 20.25,16.5563492 20.25,12 C20.25,7.44365081 16.5563492,3.75 12,3.75 Z M13,7.25 C14.5187831,7.25 15.7500441,8.48121694 15.7500441,10 C15.7500441,11.3587101 14.7646359,12.4872762 13.469531,12.7100749 L15.6,15.55 C15.8485281,15.8813708 15.7813708,16.3514719 15.45,16.6 C15.1487538,16.8259347 14.7328545,16.7909723 14.4730032,16.5337844 L14.4,16.45 L11.625,12.75 L9.75,12.75 L9.75,16 C9.75,16.3796958 9.46784612,16.693491 9.10177056,16.7431534 L9,16.7500441 C8.62030423,16.7500441 8.30650904,16.4678461 8.25684662,16.1017706 L8.25,16 L8.25,8 C8.25,7.62030423 8.53215388,7.30650904 8.89822944,7.25684662 L9,7.25 L13,7.25 Z M13,8.75 L9.75,8.75 L9.75,11.25 L13,11.25 C13.6903559,11.25 14.25,10.6903559 14.25,10 C14.25,9.35279131 13.7581253,8.8204661 13.1278052,8.75645361 L13,8.75 Z" id="Icon-Color" fill="#212121"></path>
    </g>
</svg>