<?xml version="1.0" encoding="UTF-8"?>
<svg width="24px" height="24px" viewBox="0 0 24 24" version="1.1" xmlns="http://www.w3.org/2000/svg" xmlns:xlink="http://www.w3.org/1999/xlink">
    <title>Icon/replace</title>
    <g id="Icon/replace" stroke="none" stroke-width="1" fill="none" fill-rule="evenodd">
        <path d="M20,14.25 C20.9664983,14.25 21.75,15.0335017 21.75,16 L21.75,16 L21.75,20 C21.75,20.9664983 20.9664983,21.75 20,21.75 L20,21.75 L16,21.75 C15.0335017,21.75 14.25,20.9664983 14.25,20 L14.25,20 L14.25,16 C14.25,15.0335017 15.0335017,14.25 16,14.25 L16,14.25 Z M3,12.25 C3.37969577,12.25 3.69349096,12.5321539 3.74315338,12.8982294 L3.75,13 L3.75,16 C3.75,16.6472087 4.24187466,17.1795339 4.87219476,17.2435464 L5,17.25 L9.189,17.25 L7.46966991,15.5303301 C7.20340335,15.2640635 7.1791973,14.8473998 7.39705176,14.5537883 L7.46966991,14.4696699 C7.73593648,14.2034034 8.15260016,14.1791973 8.44621165,14.3970518 L8.53033009,14.4696699 L11.5303301,17.4696699 C11.7553464,17.6946862 11.7973002,17.9957726 11.7073443,18.2494349 L11.649649,18.3751469 C11.6241329,18.4197682 11.5941717,18.4618371 11.5601032,18.5005407 L8.53033009,21.5303301 C8.23743687,21.8232233 7.76256313,21.8232233 7.46966991,21.5303301 C7.20340335,21.2640635 7.1791973,20.8473998 7.39705176,20.5537883 L7.46966991,20.4696699 L9.188,18.75 L5,18.75 C3.53746816,18.75 2.34159572,17.6082954 2.25501879,16.1675223 L2.25,16 L2.25,13 C2.25,12.5857864 2.58578644,12.25 3,12.25 Z M20,15.75 L16,15.75 C15.8619288,15.75 15.75,15.8619288 15.75,16 L15.75,16 L15.75,20 C15.75,20.1380712 15.8619288,20.25 16,20.25 L16,20.25 L20,20.25 C20.1380712,20.25 20.25,20.1380712 20.25,20 L20.25,20 L20.25,16 C20.25,15.8619288 20.1380712,15.75 20,15.75 L20,15.75 Z M16.5303301,2.46966991 C16.7965966,2.73593648 16.8208027,3.15260016 16.6029482,3.44621165 L16.5303301,3.53033009 L14.81,5.25 L19,5.25 C20.4625318,5.25 21.6584043,6.3917046 21.7449812,7.83247767 L21.75,8 L21.75,11 C21.75,11.4142136 21.4142136,11.75 21,11.75 C20.6203042,11.75 20.306509,11.4678461 20.2568466,11.1017706 L20.25,11 L20.25,8 C20.25,7.35279131 19.7581253,6.8204661 19.1278052,6.75645361 L19,6.75 L14.811,6.75 L16.5303301,8.46966991 C16.8232233,8.76256313 16.8232233,9.23743687 16.5303301,9.53033009 C16.2640635,9.79659665 15.8473998,9.8208027 15.5537883,9.60294824 L15.4696699,9.53033009 L12.4696699,6.53033009 C12.2446536,6.30531375 12.2026998,6.00422738 12.2926557,5.75056513 L12.3509387,5.62383873 C12.3763823,5.57948935 12.4062324,5.53766451 12.4401509,5.49917081 L15.4696699,2.46966991 C15.7625631,2.1767767 16.2374369,2.1767767 16.5303301,2.46966991 Z M8,2.25 C8.96649831,2.25 9.75,3.03350169 9.75,4 L9.75,4 L9.75,8 C9.75,8.96649831 8.96649831,9.75 8,9.75 L8,9.75 L4,9.75 C3.03350169,9.75 2.25,8.96649831 2.25,8 L2.25,8 L2.25,4 C2.25,3.03350169 3.03350169,2.25 4,2.25 L4,2.25 Z M8,3.75 L4,3.75 C3.86192881,3.75 3.75,3.86192881 3.75,4 L3.75,4 L3.75,8 C3.75,8.13807119 3.86192881,8.25 4,8.25 L4,8.25 L8,8.25 C8.13807119,8.25 8.25,8.13807119 8.25,8 L8.25,8 L8.25,4 C8.25,3.86192881 8.13807119,3.75 8,3.75 L8,3.75 Z" id="Icon-Color" fill="#212121"></path>
    </g>
</svg>