<?xml version="1.0" encoding="UTF-8"?>
<svg width="24px" height="24px" viewBox="0 0 24 24" version="1.1" xmlns="http://www.w3.org/2000/svg" xmlns:xlink="http://www.w3.org/1999/xlink">
    <title>Icon/arrows/normal/right</title>
    <g id="Icon/arrows/normal/right" stroke="none" stroke-width="1" fill="none" fill-rule="evenodd">
        <path d="M19.6610428,12.3547101 L19.6542367,12.3669804 C19.6423873,12.3880597 19.6295487,12.4085083 19.6157838,12.4282634 C19.6118625,12.4340051 19.6074572,12.4401347 19.6029482,12.4462117 C19.5971451,12.4538569 19.5954427,12.4560847 19.5937281,12.4583026 L19.5303301,12.5303301 L13.5303301,18.5303301 C13.2374369,18.8232233 12.7625631,18.8232233 12.4696699,18.5303301 C12.2034034,18.2640635 12.1791973,17.8473998 12.3970518,17.5537883 L12.4696699,17.4696699 L17.188,12.75 L5,12.75 C4.58578644,12.75 4.25,12.4142136 4.25,12 C4.25,11.6203042 4.53215388,11.306509 4.89822944,11.2568466 L5,11.25 L17.189,11.25 L12.4696699,6.53033009 C12.1767767,6.23743687 12.1767767,5.76256313 12.4696699,5.46966991 C12.7359365,5.20340335 13.1526002,5.1791973 13.4462117,5.39705176 L13.5303301,5.46966991 L19.5303301,11.4696699 C19.5557782,11.495118 19.5794061,11.5223864 19.6010016,11.551263 L19.5303301,11.4696699 C19.5673834,11.5067232 19.5997491,11.5466889 19.6274273,11.5888302 C19.6343078,11.5994209 19.6410943,11.6103495 19.647603,11.6214606 C19.6587439,11.6408229 19.6646318,11.6518315 19.6702256,11.6629503 C19.6729109,11.6682959 19.6753319,11.6732524 19.6776949,11.6782296 C19.6821125,11.6875567 19.686699,11.6977525 19.6910613,11.7080662 L19.6996171,11.7292272 C19.7013261,11.7336501 19.7029916,11.7380858 19.7046137,11.7425339 L19.7119519,11.7636325 C19.7139554,11.7696832 19.7158799,11.7757544 19.7177252,11.7818445 C19.7222489,11.7965131 19.726472,11.8121756 19.730192,11.8280319 C19.7329853,11.8402739 19.7354242,11.8519672 19.7375819,11.863702 C19.7412529,11.8832199 19.7441946,11.9038837 19.746277,11.9248004 C19.7478395,11.9409019 19.7488867,11.9562378 19.749465,11.9715881 C19.7498115,11.9804163 19.75,11.9901861 19.75,12 L19.7494268,12.0294084 C19.7488542,12.0440905 19.7478527,12.0587591 19.7464221,12.0733936 L19.75,12 C19.75,12.0383922 19.7471153,12.0761107 19.7415508,12.1129505 C19.7410717,12.1157553 19.7406028,12.1187341 19.7401159,12.1217105 L19.7360779,12.1442371 C19.7345081,12.1522874 19.7328054,12.160317 19.73097,12.1683223 C19.7268339,12.1865768 19.7221704,12.2039102 19.7169138,12.2209837 C19.7154963,12.2254388 19.7139359,12.2303468 19.7123237,12.2352415 L19.7081374,12.247588 C19.7054287,12.2553531 19.7025886,12.2630825 19.6996171,12.2707728 C19.6925401,12.2890438 19.6849965,12.3064613 19.6768269,12.3235218 C19.673838,12.329868 19.6702805,12.3370367 19.6666012,12.3441588 L19.6610428,12.3547101 L19.6610428,12.3547101 Z" id="Icon-Color" fill="#212121"></path>
    </g>
</svg>