<?xml version="1.0" encoding="UTF-8"?>
<svg width="24px" height="24px" viewBox="0 0 24 24" version="1.1" xmlns="http://www.w3.org/2000/svg" xmlns:xlink="http://www.w3.org/1999/xlink">
    <title>Icon/arrows/circle/outline/right</title>
    <g id="Icon/arrows/circle/outline/right" stroke="none" stroke-width="1" fill="none" fill-rule="evenodd">
        <path d="M12.25,2.25 C6.86522369,2.25 2.5,6.61522369 2.5,12 C2.5,17.3847763 6.86522369,21.75 12.25,21.75 C17.6347763,21.75 22,17.3847763 22,12 C22,6.61522369 17.6347763,2.25 12.25,2.25 Z M12.25,3.75 C16.8063492,3.75 20.5,7.44365081 20.5,12 C20.5,16.5563492 16.8063492,20.25 12.25,20.25 C7.69365081,20.25 4,16.5563492 4,12 C4,7.44365081 7.69365081,3.75 12.25,3.75 Z M7.69049623,13.3016073 C7.47353829,13.5185653 7.47353829,13.8703236 7.69049623,14.0872815 C7.88773072,14.284516 8.19637049,14.3024464 8.41386048,14.1410728 L8.47617043,14.0872815 L12.5277778,10.0359259 L16.5793851,14.0872815 C16.7766196,14.284516 17.0852594,14.3024464 17.3027494,14.1410728 L17.3650593,14.0872815 C17.5622938,13.8900471 17.5802242,13.5814073 17.4188505,13.3639173 L17.3650593,13.3016073 L12.9206149,8.8571629 C12.7233804,8.65992841 12.4147406,8.641998 12.1972506,8.80337167 L12.1349407,8.8571629 L7.69049623,13.3016073 Z" id="Icon-Color" fill="#212121" transform="translate(12.250000, 12.000000) rotate(-270.000000) translate(-12.250000, -12.000000) "></path>
    </g>
</svg>