<?xml version="1.0" encoding="UTF-8"?>
<svg width="24px" height="24px" viewBox="0 0 24 24" version="1.1" xmlns="http://www.w3.org/2000/svg" xmlns:xlink="http://www.w3.org/1999/xlink">
    <title>Icon/router</title>
    <g id="Icon/router" stroke="none" stroke-width="1" fill="none" fill-rule="evenodd">
        <path d="M15,10.25 C15.3796958,10.25 15.693491,10.5321539 15.7431534,10.8982294 L15.75,11 L15.75,12.2496895 L19,12.25 C20.4625318,12.25 21.6584043,13.3917046 21.7449812,14.8324777 L21.75,15 L21.75,19 C21.75,20.5187831 20.5187831,21.75 19,21.75 L19,21.75 L5,21.75 C3.48121694,21.75 2.25,20.5187831 2.25,19 L2.25,19 L2.25,15 C2.25,13.4812169 3.48121694,12.25 5,12.25 L5,12.25 L14.25,12.2496895 L14.25,11 C14.25,10.5857864 14.5857864,10.25 15,10.25 Z M19,13.75 L5,13.75 C4.30964406,13.75 3.75,14.3096441 3.75,15 L3.75,15 L3.75,19 C3.75,19.6903559 4.30964406,20.25 5,20.25 L5,20.25 L19,20.25 C19.6903559,20.25 20.25,19.6903559 20.25,19 L20.25,19 L20.25,15 C20.25,14.3096441 19.6903559,13.75 19,13.75 L19,13.75 Z M17,16.25 C17.3796958,16.25 17.693491,16.5321539 17.7431534,16.8982294 L17.75,17.01 C17.75,17.4242136 17.4142136,17.76 17,17.76 C16.6203042,17.76 16.306509,17.4778461 16.2568466,17.1117706 L16.25,17 C16.25,16.5857864 16.5857864,16.25 17,16.25 Z M13,16.25 C13.3796958,16.25 13.693491,16.5321539 13.7431534,16.8982294 L13.75,17.01 C13.75,17.4242136 13.4142136,17.76 13,17.76 C12.6203042,17.76 12.306509,17.4778461 12.2568466,17.1117706 L12.25,17 C12.25,16.5857864 12.5857864,16.25 13,16.25 Z M15,6.33184476 C16.5304663,6.33184476 17.9671726,7.06927526 18.859375,8.31277911 C19.1008454,8.64932763 19.0237694,9.11790457 18.6872209,9.359375 C18.3506724,9.60084543 17.8820954,9.52376941 17.640625,9.18722089 C17.0301707,8.33640247 16.0471611,7.83184476 15,7.83184476 C13.9528389,7.83184476 12.9698293,8.33640247 12.359375,9.18722089 C12.1179046,9.52376941 11.6493276,9.60084543 11.3127791,9.359375 C10.9762306,9.11790457 10.8991546,8.64932763 11.140625,8.31277911 C12.0328274,7.06927526 13.4695337,6.33184476 15,6.33184476 Z M15,2.41368953 C17.81928,2.41368953 20.4658442,3.77211412 22.109375,6.06277911 C22.3508454,6.39932763 22.2737694,6.86790457 21.9372209,7.109375 C21.6006724,7.35084543 21.1320954,7.27376941 20.890625,6.93722089 C19.5288423,5.03924134 17.3359748,3.91368953 15,3.91368953 C12.6640252,3.91368953 10.4711577,5.03924134 9.109375,6.93722089 C8.86790457,7.27376941 8.39932763,7.35084543 8.06277911,7.109375 C7.72623059,6.86790457 7.64915457,6.39932763 7.890625,6.06277911 C9.53415581,3.77211412 12.18072,2.41368953 15,2.41368953 Z" id="Icon-Color" fill="#212121"></path>
    </g>
</svg>