<?xml version="1.0" encoding="UTF-8"?>
<svg width="24px" height="24px" viewBox="0 0 24 24" version="1.1" xmlns="http://www.w3.org/2000/svg" xmlns:xlink="http://www.w3.org/1999/xlink">
    <title>Icon/brand/safari</title>
    <g id="Icon/brand/safari" stroke="none" stroke-width="1" fill="none" fill-rule="evenodd">
        <path d="M12,2.25 C17.3847763,2.25 21.75,6.61522369 21.75,12 C21.75,17.3847763 17.3847763,21.75 12,21.75 C6.61522369,21.75 2.25,17.3847763 2.25,12 C2.25,6.61522369 6.61522369,2.25 12,2.25 Z M12,3.75 C7.44365081,3.75 3.75,7.44365081 3.75,12 C3.75,16.5563492 7.44365081,20.25 12,20.25 C16.5563492,20.25 20.25,16.5563492 20.25,12 C20.25,7.44365081 16.5563492,3.75 12,3.75 Z M16.7372355,8.13983936 L16.7115125,8.23717082 L14.7115125,14.2371708 C14.6475257,14.4291312 14.5092721,14.5856667 14.3300448,14.6734843 L14.2371708,14.7115125 L8.225,16.714 L8.13845771,16.7371999 L8.03955065,16.749146 L7.96044935,16.749146 L7.84567608,16.7340748 L7.75296924,16.7081879 L7.66844624,16.6728345 C7.60815803,16.6432205 7.55326292,16.6062002 7.50451447,16.5632807 L7.43671929,16.4954855 C7.39379981,16.4467371 7.3567795,16.391842 7.32716547,16.3315538 L7.29181207,16.2470308 L7.264,16.145 C7.25655927,16.1054582 7.25260864,16.0724264 7.25085404,16.0395507 L7.25085404,15.9604493 L7.264,15.854 L7.27715757,15.7998929 L7.292,15.749 L9.28848753,9.76282918 C9.35247431,9.57086882 9.49072792,9.41433327 9.6699552,9.32651569 L9.76282918,9.28848753 L15.7628292,7.28848753 C16.3165744,7.10390577 16.8448857,7.59119887 16.7372355,8.13983936 Z M14.813,9.186 L10.592,10.593 L9.185,14.814 L13.406,13.407 L14.813,9.186 Z" id="Icon-Color" fill="#212121"></path>
    </g>
</svg>