<?xml version="1.0" encoding="UTF-8"?>
<svg width="24px" height="24px" viewBox="0 0 24 24" version="1.1" xmlns="http://www.w3.org/2000/svg" xmlns:xlink="http://www.w3.org/1999/xlink">
    <title>Icon/share</title>
    <g id="Icon/share" stroke="none" stroke-width="1" fill="none" fill-rule="evenodd">
        <path d="M18,2.25 C20.0710678,2.25 21.75,3.92893219 21.75,6 C21.75,8.07106781 20.0710678,9.75 18,9.75 C16.7889253,9.75 15.7119384,9.17590152 15.0263395,8.28500453 L9.63213942,11.0635917 C9.70908112,11.3629067 9.75,11.6766748 9.75,12 C9.75,12.3233252 9.70908112,12.6370933 9.63213942,12.9364083 L15.0263395,15.7149955 C15.7119384,14.8240985 16.7889253,14.25 18,14.25 C20.0710678,14.25 21.75,15.9289322 21.75,18 C21.75,20.0710678 20.0710678,21.75 18,21.75 C15.9289322,21.75 14.25,20.0710678 14.25,18 C14.25,17.6766748 14.2909189,17.3629067 14.3678606,17.0635917 L8.97366054,14.2850045 C8.28806157,15.1759015 7.21107473,15.75 6,15.75 C3.92893219,15.75 2.25,14.0710678 2.25,12 C2.25,9.92893219 3.92893219,8.25 6,8.25 C7.21107473,8.25 8.28806157,8.82409848 8.97366054,9.71499547 L14.3678606,6.9364083 C14.2909189,6.63709335 14.25,6.32332523 14.25,6 C14.25,3.92893219 15.9289322,2.25 18,2.25 Z M18,15.75 C17.1259115,15.75 16.3682376,16.2484298 15.9956924,16.9765754 C15.9880854,16.9994278 15.9779981,17.0215959 15.9667309,17.0434674 L15.9538128,17.0629424 C15.8229533,17.3482244 15.75,17.6655926 15.75,18 C15.75,19.2426407 16.7573593,20.25 18,20.25 C19.2426407,20.25 20.25,19.2426407 20.25,18 C20.25,16.7573593 19.2426407,15.75 18,15.75 Z M6,9.75 C4.75735931,9.75 3.75,10.7573593 3.75,12 C3.75,13.2426407 4.75735931,14.25 6,14.25 C6.87408846,14.25 7.6317624,13.7515702 8.00430761,13.0234246 C8.01191462,13.0005722 8.02200193,12.9784041 8.03326908,12.9565326 L8.04618716,12.9370576 C8.1770467,12.6517756 8.25,12.3344074 8.25,12 C8.25,11.6655926 8.1770467,11.3482244 8.04618716,11.0629424 C8.04063334,11.0574937 8.03690303,11.0505216 8.03326908,11.0434674 L8.00690775,10.9816734 C7.63529569,10.2507573 6.87612691,9.75 6,9.75 Z M18,3.75 C16.7573593,3.75 15.75,4.75735931 15.75,6 C15.75,6.33440738 15.8229533,6.6517756 15.9538128,6.93705759 C15.9593667,6.94250633 15.963097,6.94947843 15.9667309,6.95653256 L15.9930922,7.0183266 C16.3647043,7.74924267 17.1238731,8.25 18,8.25 C19.2426407,8.25 20.25,7.24264069 20.25,6 C20.25,4.75735931 19.2426407,3.75 18,3.75 Z" id="Icon-Color" fill="#212121"></path>
    </g>
</svg>