<?xml version="1.0" encoding="UTF-8"?>
<svg width="24px" height="24px" viewBox="0 0 24 24" version="1.1" xmlns="http://www.w3.org/2000/svg" xmlns:xlink="http://www.w3.org/1999/xlink">
    <title>Icon/media/shuffle</title>
    <g id="Icon/media/shuffle" stroke="none" stroke-width="1" fill="none" fill-rule="evenodd">
        <path d="M18.4462117,3.39705176 L18.5303301,3.46966991 L21.5303301,6.46966991 C21.5557782,6.49511803 21.5794061,6.52238643 21.6010016,6.55126304 L21.5303301,6.46966991 C21.5673834,6.50672319 21.5997491,6.54668892 21.6274273,6.58883021 C21.6405922,6.60898514 21.6529723,6.62997247 21.664329,6.65158175 C21.6691626,6.66070362 21.6735192,6.66943437 21.6776949,6.67822959 C21.690442,6.70501812 21.7019466,6.73347789 21.7116971,6.76273953 C21.7139554,6.76968322 21.7158799,6.77575442 21.7177252,6.78184446 C21.7386468,6.85032314 21.75,6.92383573 21.75,7 C21.75,7.03839224 21.7471153,7.07611073 21.7415508,7.11295053 C21.7397462,7.12451811 21.7376905,7.13622779 21.7353557,7.14789267 C21.730412,7.17289581 21.7242388,7.19719212 21.7169138,7.22098366 C21.7132873,7.23264346 21.7092554,7.24469294 21.7049093,7.25665398 C21.696425,7.27995161 21.6871231,7.30202019 21.6768269,7.32352179 C21.6713347,7.33512287 21.6650317,7.34745994 21.658365,7.35965102 C21.6451298,7.38366677 21.6310246,7.40639019 21.6157838,7.42826335 C21.6118625,7.43400509 21.6074572,7.44013473 21.6029482,7.44621165 C21.5971451,7.45385686 21.5954427,7.45608469 21.5937281,7.45830264 L21.5303301,7.53033009 L18.5303301,10.5303301 C18.2374369,10.8232233 17.7625631,10.8232233 17.4696699,10.5303301 C17.2034034,10.2640635 17.1791973,9.84739984 17.3970518,9.55378835 L17.4696699,9.46966991 L19.189,7.75 L15.6049665,7.75 C14.2988508,7.7499417 13.0701334,8.35005514 12.2672789,9.36867924 L12.1218194,9.56453133 L11.6116665,10.29475 C11.113986,11.0065768 10.4700336,11.5852653 9.7357573,12.0016541 C10.3964471,12.3750284 10.9833581,12.8810572 11.4564733,13.4970725 L11.6073453,13.7027909 L12.1214567,14.43695 C12.8698904,15.5063143 14.0650786,16.1686883 15.3592648,16.2430018 L15.603,16.25 L19.189,16.25 L17.4696699,14.5303301 C17.2034034,14.2640635 17.1791973,13.8473998 17.3970518,13.5537883 L17.4696699,13.4696699 C17.7359365,13.2034034 18.1526002,13.1791973 18.4462117,13.3970518 L18.5303301,13.4696699 L21.5303301,16.4696699 C21.5557782,16.495118 21.5794061,16.5223864 21.6010016,16.551263 L21.5303301,16.4696699 C21.5673834,16.5067232 21.5997491,16.5466889 21.6274273,16.5888302 C21.6405922,16.6089851 21.6529723,16.6299725 21.664329,16.6515818 C21.6691626,16.6607036 21.6735192,16.6694344 21.6776949,16.6782296 C21.6902906,16.7047006 21.7016811,16.7328217 21.7113591,16.7617276 C21.7137382,16.7689987 21.7157759,16.7754111 21.7177252,16.7818445 C21.7386468,16.8503231 21.75,16.9238357 21.75,17 C21.75,17.0383922 21.7471153,17.0761107 21.7415508,17.1129505 C21.7397462,17.1245181 21.7376905,17.1362278 21.7353557,17.1478927 C21.730412,17.1728958 21.7242388,17.1971921 21.7169138,17.2209837 C21.7132873,17.2326435 21.7092554,17.2446929 21.7049093,17.256654 C21.696425,17.2799516 21.6871231,17.3020202 21.6768269,17.3235218 C21.6713347,17.3351229 21.6650317,17.3474599 21.658365,17.359651 C21.6451298,17.3836668 21.6310246,17.4063902 21.6157838,17.4282634 C21.6118625,17.4340051 21.6074572,17.4401347 21.6029482,17.4462117 C21.5971451,17.4538569 21.5954427,17.4560847 21.5937281,17.4583026 L21.5303301,17.5303301 L18.5303301,20.5303301 C18.2374369,20.8232233 17.7625631,20.8232233 17.4696699,20.5303301 C17.2034034,20.2640635 17.1791973,19.8473998 17.3970518,19.5537883 L17.4696699,19.4696699 L19.189,17.75 L15.6029433,17.75 C13.8119245,17.7498647 12.1284991,16.9156058 11.0435267,15.5029275 L10.8926547,15.2972091 L10.3785433,14.56305 C9.63010957,13.4936857 8.43492143,12.8313117 7.14073516,12.7569982 L6.897,12.75 L3,12.75 C2.58578644,12.75 2.25,12.4142136 2.25,12 C2.25,11.6203042 2.53215388,11.306509 2.89822944,11.2568466 L3,11.25 L6.89988347,11.25 C8.20571649,11.2497971 9.43408282,10.6496961 10.2367535,9.63127958 L10.3821806,9.43546867 L10.8923335,8.70525 C11.9192632,7.23644409 13.5689655,6.33452755 15.3497618,6.25564274 L15.605,6.25 L19.188,6.249 L17.4696699,4.53033009 C17.2034034,4.26406352 17.1791973,3.84739984 17.3970518,3.55378835 L17.4696699,3.46966991 C17.7359365,3.20340335 18.1526002,3.1791973 18.4462117,3.39705176 Z" id="Icon-Color" fill="#212121"></path>
    </g>
</svg>