<?xml version="1.0" encoding="UTF-8"?>
<svg width="24px" height="24px" viewBox="0 0 24 24" version="1.1" xmlns="http://www.w3.org/2000/svg" xmlns:xlink="http://www.w3.org/1999/xlink">
    <title>Icon/brand/skype</title>
    <g id="Icon/brand/skype" stroke="none" stroke-width="1" fill="none" fill-rule="evenodd">
        <path d="M3.78523153,3.78516624 C5.21498924,2.35516836 7.32617637,1.88301032 9.21111456,2.5344651 L9.21111456,2.5344651 L9.396,2.603 L9.53069225,2.56526292 C10.202326,2.39006132 10.8906941,2.28718085 11.5836256,2.25837821 L11.5836256,2.25837821 L11.9998348,2.25000002 C15.0949789,2.24931816 18.0065936,3.71826892 19.8452318,6.20811377 C21.5570674,8.52624519 22.1494774,11.4729096 21.487549,14.2555023 L21.487549,14.2555023 L21.396,14.605 L21.4644853,14.7889169 C22.0895443,16.5981895 21.6794586,18.6157956 20.3808346,20.0391263 L20.3808346,20.0391263 L20.2138894,20.2138894 C18.7842911,21.6434877 16.6735759,22.1155884 14.7889169,21.4644853 L14.7889169,21.4644853 L14.607,21.396 L14.5563252,21.4110276 C11.2960985,22.2983265 7.8062606,21.4328468 5.33843227,19.1249906 L5.33843227,19.1249906 L5.10284265,18.8971574 C2.54737608,16.3416908 1.61505624,12.5823359 2.68032219,9.12892781 L2.64488264,9.24901298 L2.603,9.392 L2.53544178,9.21125927 C1.90974126,7.40182368 2.31952727,5.38370314 3.61826939,3.95997798 L3.61826939,3.95997798 Z M9.04130898,4.07952751 C7.61962073,3.4374723 5.94893672,3.74259611 4.84598078,4.84573733 C3.74302483,5.94887856 3.43818166,7.61961378 4.08047565,9.04119418 C4.15577982,9.20786385 4.16758761,9.39630596 4.11367781,9.57107219 C3.21229893,12.4931867 4.00118495,15.6741793 6.16350282,17.8364972 C8.32582068,19.998815 11.5068133,20.7877011 14.4289278,19.8863222 C14.6036184,19.8324357 14.7919759,19.8442092 14.9585965,19.9194298 C16.3800956,20.5611629 18.0503962,20.2560622 19.1532292,19.1532292 C20.2560622,18.0503962 20.5611629,16.3800956 19.9194298,14.9585965 C19.8442447,14.7920543 19.8324457,14.6037929 19.8862486,14.4291666 C20.6573893,11.926301 20.1943489,9.20596496 18.6385781,7.09917316 C17.0828073,4.99238136 14.6191334,3.74942303 11.9990298,3.74999937 C11.1758259,3.74893443 10.357113,3.87127796 9.57018254,4.11295164 C9.39569753,4.16653761 9.20765954,4.15465385 9.04130898,4.07952751 Z M12,6.25 C14.3876172,6.25 16.1915384,7.17382447 16.7276069,9.31809828 C16.8280684,9.71994446 16.5837479,10.1271453 16.1819017,10.2276069 C15.7800555,10.3280684 15.3728547,10.0837479 15.2723931,9.68190172 C14.9379154,8.34399072 13.7780495,7.75 12,7.75 C9.73925471,7.75 8.75,8.4658748 8.75,9.5 C8.75,10.3780778 10.0612752,11.1855178 11.7905391,11.2463297 L12,11.25 C14.5514785,11.25 16.75,12.5471536 16.75,14.5 C16.75,16.4864774 15.0039604,17.75 12,17.75 C9.61238283,17.75 7.80846158,16.8261755 7.27239312,14.6819017 C7.17193158,14.2800555 7.4162521,13.8728547 7.81809828,13.7723931 C8.21994446,13.6719316 8.62714533,13.9162521 8.72760688,14.3180983 C9.06208463,15.6560093 10.2219505,16.25 12,16.25 C14.2607453,16.25 15.25,15.5341252 15.25,14.5 C15.25,13.6219222 13.9387248,12.8144822 12.2094609,12.7536703 L12,12.75 C9.44852146,12.75 7.25,11.4528464 7.25,9.5 C7.25,7.51352265 8.99603957,6.25 12,6.25 Z" id="Icon-Color" fill="#212121"></path>
    </g>
</svg>