<?xml version="1.0" encoding="UTF-8"?>
<svg width="24px" height="24px" viewBox="0 0 24 24" version="1.1" xmlns="http://www.w3.org/2000/svg" xmlns:xlink="http://www.w3.org/1999/xlink">
    <title>Icon/brand/slack</title>
    <g id="Icon/brand/slack" stroke="none" stroke-width="1" fill="none" fill-rule="evenodd">
        <path d="M3.25,10 C3.25,8.53746816 4.3917046,7.34159572 5.83247767,7.25501879 L6,7.25 L7.55024556,7.25076411 C7.35828628,6.87554321 7.25,6.45041741 7.25,6 C7.25,4.48121694 8.48121694,3.25 10,3.25 C10.7880466,3.25 11.4986737,3.581472 12.0000619,4.11259649 C12.500547,3.58183564 13.2115213,3.25 14,3.25 C15.4625318,3.25 16.6584043,4.3917046 16.7449812,5.83247767 L16.75,6 L16.7502547,7.5497246 C17.1252263,7.35809038 17.5499902,7.25 18,7.25 C19.5187831,7.25 20.75,8.48121694 20.75,10 C20.75,10.7880466 20.418528,11.4986737 19.8874035,12.0000619 L19.8865296,11.9991135 L19.9990511,12.1115263 C20.4645739,12.604133 20.75,13.2687341 20.75,14 C20.75,15.4625318 19.6082954,16.6584043 18.1675223,16.7449812 L18,16.75 L16.4502754,16.7502547 C16.6419096,17.1252263 16.75,17.5499902 16.75,18 C16.75,19.5187831 15.5187831,20.75 14,20.75 C13.2119534,20.75 12.5013263,20.418528 11.9999381,19.8874035 C11.499453,20.4181644 10.7884787,20.75 10,20.75 C8.53746816,20.75 7.34159572,19.6082954 7.25501879,18.1675223 L7.25,18 L7.25076411,16.4497544 C6.87554321,16.6417137 6.45041741,16.75 6,16.75 C4.48121694,16.75 3.25,15.5187831 3.25,14 C3.25,13.2119534 3.581472,12.5013263 4.11259649,11.9999381 L4.11347042,12.0008865 L4.00094893,11.8884737 C3.53542615,11.395867 3.25,10.7312659 3.25,10 Z M14,16.75 L12.75,16.75 L12.75,18 C12.75,18.6903559 13.3096441,19.25 14,19.25 C14.6903559,19.25 15.25,18.6903559 15.25,18 C15.25,17.3096441 14.6903559,16.75 14,16.75 Z M11.25,12.75 L8.75,12.75 L8.75,18 C8.75,18.6903559 9.30964406,19.25 10,19.25 C10.6472087,19.25 11.1795339,18.7581253 11.2435464,18.1278052 L11.25,18 L11.25,12.75 Z M18,12.75 L12.75,12.75 L12.75,15.25 L18,15.25 C18.6903559,15.25 19.25,14.6903559 19.25,14 C19.25,13.3527913 18.7581253,12.8204661 18.1278052,12.7564536 L18,12.75 Z M7.25,12.75 L6,12.75 C5.30964406,12.75 4.75,13.3096441 4.75,14 C4.75,14.6903559 5.30964406,15.25 6,15.25 C6.69035594,15.25 7.25,14.6903559 7.25,14 L7.25,12.75 Z M14,4.75 C13.3527913,4.75 12.8204661,5.24187466 12.7564536,5.87219476 L12.75,6 L12.75,11.25 L15.25,11.25 L15.25,6 C15.25,5.30964406 14.6903559,4.75 14,4.75 Z M18,8.75 C17.3096441,8.75 16.75,9.30964406 16.75,10 L16.75,11.25 L18,11.25 C18.6903559,11.25 19.25,10.6903559 19.25,10 C19.25,9.30964406 18.6903559,8.75 18,8.75 Z M11.25,8.75 L6,8.75 C5.30964406,8.75 4.75,9.30964406 4.75,10 C4.75,10.6472087 5.24187466,11.1795339 5.87219476,11.2435464 L6,11.25 L11.25,11.25 L11.25,8.75 Z M10,4.75 C9.30964406,4.75 8.75,5.30964406 8.75,6 C8.75,6.69035594 9.30964406,7.25 10,7.25 L11.25,7.25 L11.25,6 C11.25,5.30964406 10.6903559,4.75 10,4.75 Z" id="Icon-Color" fill="#212121"></path>
    </g>
</svg>