<?xml version="1.0" encoding="UTF-8"?>
<svg width="24px" height="24px" viewBox="0 0 24 24" version="1.1" xmlns="http://www.w3.org/2000/svg" xmlns:xlink="http://www.w3.org/1999/xlink">
    <title>Icon/brand/snapchat</title>
    <g id="Icon/brand/snapchat" stroke="none" stroke-width="1" fill="none" fill-rule="evenodd" stroke-linecap="round" stroke-linejoin="round">
        <path d="M16.882,7.842 C16.882,5.14574588 14.6962541,2.96000007 12,2.96000007 C9.30374588,2.96000007 7.11800004,5.14574588 7.118,7.842 C7.118,12.115 6.905,14.251 3,15.9600001 C5,16.842 5,16.842 6,18.9600001 C9,18.9600001 10,20.9600001 12,20.9600001 C14,20.9600001 15,18.9600001 18,18.9600001 C19,16.842 19,16.842 21,15.9600001 C17.094,14.251 16.882,12.115 16.882,7.842 Z M3,15.961 C7,13.843 7,11.843 4,8.843 M21,15.961 C17,13.843 17,11.843 20,8.843" id="Icon-Color" stroke="#212121" stroke-width="1.5"></path>
    </g>
</svg>