<?xml version="1.0" encoding="UTF-8"?>
<svg width="24px" height="24px" viewBox="0 0 24 24" version="1.1" xmlns="http://www.w3.org/2000/svg" xmlns:xlink="http://www.w3.org/1999/xlink">
    <title>Icon/media/sound off</title>
    <g id="Icon/media/sound-off" stroke="none" stroke-width="1" fill="none" fill-rule="evenodd">
        <path d="M10.7014232,3.39573039 C11.3812907,3.62235288 11.8110972,4.28192908 11.7568146,4.98447976 L11.75,5.034 L11.75,18.965 L11.7568146,19.0155202 C11.8074784,19.6712342 11.4364467,20.2895126 10.8339932,20.5532879 L10.7014232,20.6042696 C10.0215557,20.8308921 9.28196476,20.5611151 8.90386045,19.966505 L8.879,19.924 L5.633,15.75 L4,15.75 C3.0818266,15.75 2.32880766,15.0428897 2.2558012,14.1435272 L2.25,14 L2.25,10 C2.25,9.0818266 2.95711027,8.32880766 3.85647279,8.2558012 L4,8.25 L5.632,8.25 L8.879,4.075 L8.90386045,4.03349504 C9.28196476,3.43888491 10.0215557,3.1691079 10.7014232,3.39573039 Z M10.1822583,4.82546182 L10.1668158,4.84330266 L10.0920142,4.96045546 L6.59201416,9.46045546 C6.47360404,9.61269705 6.30214736,9.71227525 6.11434748,9.74123906 L6,9.75 L4,9.75 C3.88165327,9.75 3.78251318,9.83223341 3.75660268,9.94267729 L3.75,10 L3.75,14 C3.75,14.1183467 3.83223341,14.2174868 3.94267729,14.2433973 L4,14.25 L6.04089128,14.2511043 L6.10177056,14.2568466 L6.19937971,14.2767907 L6.29193385,14.3089387 L6.34287447,14.3327622 L6.37853936,14.352397 L6.45830264,14.4062719 L6.53033009,14.4696699 L6.59201416,14.5395445 L10.0920142,19.0395445 L10.1668158,19.1566973 C10.178103,19.1786211 10.2036883,19.1890424 10.2270816,19.1812447 C10.2426771,19.1760462 10.2541936,19.1637852 10.2589163,19.1489855 L10.2605658,19.1254473 L10.25,19 L10.25,5 L10.2605658,4.87455266 C10.2646903,4.85024135 10.2504748,4.8265531 10.2270816,4.81875534 C10.211486,4.81355683 10.1949163,4.8164557 10.1822583,4.82546182 Z M20.5303301,9.46966991 C20.7965966,9.73593648 20.8208027,10.1526002 20.6029482,10.4462117 L20.5303301,10.5303301 L19.061,12 L20.5303301,13.4696699 C20.8232233,13.7625631 20.8232233,14.2374369 20.5303301,14.5303301 C20.2640635,14.7965966 19.8473998,14.8208027 19.5537883,14.6029482 L19.4696699,14.5303301 L18,13.061 L16.5303301,14.5303301 C16.2374369,14.8232233 15.7625631,14.8232233 15.4696699,14.5303301 C15.2034034,14.2640635 15.1791973,13.8473998 15.3970518,13.5537883 L15.4696699,13.4696699 L16.939,12 L15.4696699,10.5303301 C15.1767767,10.2374369 15.1767767,9.76256313 15.4696699,9.46966991 C15.7063513,9.23298853 16.061865,9.18756482 16.3441588,9.33339881 L16.4462117,9.39705176 L16.5303301,9.46966991 L18,10.939 L19.4696699,9.46966991 C19.7625631,9.1767767 20.2374369,9.1767767 20.5303301,9.46966991 Z" id="Icon-Color" fill="#212121"></path>
    </g>
</svg>