<?xml version="1.0" encoding="UTF-8"?>
<svg width="24px" height="24px" viewBox="0 0 24 24" version="1.1" xmlns="http://www.w3.org/2000/svg" xmlns:xlink="http://www.w3.org/1999/xlink">
    <title>Icon/media/sound on</title>
    <g id="Icon/media/sound-on" stroke="none" stroke-width="1" fill="none" fill-rule="evenodd">
        <path d="M10.7014232,3.39573039 C11.3812907,3.62235288 11.8110972,4.28192908 11.7568146,4.98447976 L11.75,5.034 L11.75,18.965 L11.7568146,19.0155202 C11.8074784,19.6712342 11.4364467,20.2895126 10.8339932,20.5532879 L10.7014232,20.6042696 C10.0215557,20.8308921 9.28196476,20.5611151 8.90386045,19.966505 L8.879,19.924 L5.633,15.75 L4,15.75 C3.0818266,15.75 2.32880766,15.0428897 2.2558012,14.1435272 L2.25,14 L2.25,10 C2.25,9.0818266 2.95711027,8.32880766 3.85647279,8.2558012 L4,8.25 L5.632,8.25 L8.879,4.075 L8.90386045,4.03349504 C9.28196476,3.43888491 10.0215557,3.1691079 10.7014232,3.39573039 Z M18.1714045,4.41666667 C20.4619849,6.26773517 21.7931458,9.05496804 21.7931458,12 C21.7931458,14.945032 20.4619849,17.7322648 18.1714045,19.5833333 C17.8492384,19.8436829 17.3770162,19.7935706 17.1166667,19.4714045 C16.8563171,19.1492384 16.9064294,18.6770162 17.2285955,18.4166667 C19.1667789,16.8503779 20.2931458,14.4919501 20.2931458,12 C20.2931458,9.50804988 19.1667789,7.14962207 17.2285955,5.58333333 C16.9064294,5.32298381 16.8563171,4.85076158 17.1166667,4.52859548 C17.3770162,4.20642938 17.8492384,4.15631714 18.1714045,4.41666667 Z M10.1822583,4.82546182 L10.1668158,4.84330266 L10.0920142,4.96045546 L6.59201416,9.46045546 C6.47360404,9.61269705 6.30214736,9.71227525 6.11434748,9.74123906 L6,9.75 L4,9.75 C3.88165327,9.75 3.78251318,9.83223341 3.75660268,9.94267729 L3.75,10 L3.75,14 C3.75,14.1183467 3.83223341,14.2174868 3.94267729,14.2433973 L4,14.25 L6.04089128,14.2511043 L6.10177056,14.2568466 L6.19937971,14.2767907 L6.29193385,14.3089387 L6.34287447,14.3327622 L6.37853936,14.352397 L6.45830264,14.4062719 L6.53033009,14.4696699 L6.59201416,14.5395445 L10.0920142,19.0395445 L10.1668158,19.1566973 C10.178103,19.1786211 10.2036883,19.1890424 10.2270816,19.1812447 C10.2426771,19.1760462 10.2541936,19.1637852 10.2589163,19.1489855 L10.2605658,19.1254473 L10.25,19 L10.25,5 L10.2605658,4.87455266 C10.2646903,4.85024135 10.2504748,4.8265531 10.2270816,4.81875534 C10.211486,4.81355683 10.1949163,4.8164557 10.1822583,4.82546182 Z M15.45,7.4 C16.8978836,8.4859127 17.75,10.1901455 17.75,12 C17.75,13.8098545 16.8978836,15.5140873 15.45,16.6 C15.1186292,16.8485281 14.6485281,16.7813708 14.4,16.45 C14.1514719,16.1186292 14.2186292,15.6485281 14.55,15.4 C15.6201748,14.5973689 16.25,13.3377185 16.25,12 C16.25,10.6622815 15.6201748,9.40263112 14.55,8.6 C14.2186292,8.35147186 14.1514719,7.88137085 14.4,7.55 C14.6485281,7.21862915 15.1186292,7.15147186 15.45,7.4 Z" id="Icon-Color" fill="#212121"></path>
    </g>
</svg>