<?xml version="1.0" encoding="UTF-8"?>
<svg width="24px" height="24px" viewBox="0 0 24 24" version="1.1" xmlns="http://www.w3.org/2000/svg" xmlns:xlink="http://www.w3.org/1999/xlink">
    <title>Icon/brand/spotify</title>
    <g id="Icon/brand/spotify" stroke="none" stroke-width="1" fill="none" fill-rule="evenodd">
        <path d="M12,2.25 C17.3847763,2.25 21.75,6.61522369 21.75,12 C21.75,17.3847763 17.3847763,21.75 12,21.75 C6.61522369,21.75 2.25,17.3847763 2.25,12 C2.25,6.61522369 6.61522369,2.25 12,2.25 Z M12,3.75 C7.44365081,3.75 3.75,7.44365081 3.75,12 C3.75,16.5563492 7.44365081,20.25 12,20.25 C16.5563492,20.25 20.25,16.5563492 20.25,12 C20.25,7.44365081 16.5563492,3.75 12,3.75 Z M14.6240377,15.0839749 C14.8538021,15.4286214 14.7606717,15.8942734 14.4160251,16.1240377 C14.0713786,16.3538021 13.6057266,16.2606717 13.3759623,15.9160251 C12.6914997,14.8893313 10.7156679,14.7576092 9.41602515,15.6240377 C9.07137863,15.8538021 8.60572662,15.7606717 8.37596228,15.4160251 C8.14619793,15.0713786 8.23932834,14.6057266 8.58397485,14.3759623 C10.5116048,13.0908756 13.4247793,13.2850873 14.6240377,15.0839749 Z M15.95,11.9 C16.2813708,12.1485281 16.3485281,12.6186292 16.1,12.95 C15.8514719,13.2813708 15.3813708,13.3485281 15.05,13.1 C13.1245892,11.6559419 10.4581825,11.3951419 8.38072812,12.6191781 C8.02385383,12.8294484 7.56409226,12.7106024 7.35382193,12.3537281 C7.1435516,11.9968538 7.26239759,11.5370923 7.61927188,11.3268219 C10.2411354,9.78201992 13.558676,10.106507 15.95,11.9 Z M17.3974992,8.86400127 C17.7487516,9.08353402 17.8555315,9.54624681 17.6359987,9.89749921 C17.416466,10.2487516 16.9537532,10.3555315 16.6025008,10.1359987 C13.495433,8.19408134 10.042231,8.31740998 7.3354102,9.67082039 C6.96492632,9.85606233 6.51442154,9.70589407 6.32917961,9.3354102 C6.14393767,8.96492632 6.29410593,8.51442154 6.6645898,8.32917961 C9.80392282,6.7595131 13.8018643,6.61672947 17.3974992,8.86400127 Z" id="Icon-Color" fill="#212121"></path>
    </g>
</svg>