<svg width="24" height="24" viewBox="0 0 24 24" fill="none" xmlns="http://www.w3.org/2000/svg">
<path fill-rule="evenodd" clip-rule="evenodd" d="M16.1651 21.2867C16.3784 21.4086 16.6222 21.5 16.8964 21.5C17.2925 21.5 17.7191 21.3172 17.9628 20.982C18.2066 20.6469 18.298 20.2203 18.2066 19.8242L16.9573 14.4922C16.9573 14.4312 16.9878 14.3703 17.0183 14.3398L21.0097 10.7445C21.4362 10.3789 21.5886 9.8 21.4058 9.28203C21.223 8.76406 20.7659 8.39844 20.2175 8.36797L15.0683 7.97188C15.0073 7.97188 14.9769 7.94141 14.9464 7.88047L13.0269 2.88359C12.8136 2.33516 12.3261 2 11.7472 2C11.1683 2 10.6808 2.33516 10.437 2.88359L8.51749 7.88047C8.48702 7.94141 8.45656 7.97188 8.39562 7.97188L3.2464 8.36797C2.69796 8.39844 2.24093 8.76406 2.05812 9.28203C1.90577 9.8 2.05812 10.3789 2.45421 10.7445L6.44562 14.3398C6.50656 14.3703 6.50656 14.4312 6.50656 14.4922L5.28781 19.8242C5.16593 20.2203 5.25734 20.6469 5.53156 20.982C5.77531 21.3172 6.1714 21.5 6.59796 21.5C6.87218 21.5 7.11593 21.4086 7.35968 21.2867L11.6862 18.4531C11.7472 18.4227 11.7776 18.4227 11.8386 18.4531L16.1651 21.2867Z" fill="#FD7E14"/>
</svg>
