<?xml version="1.0" encoding="UTF-8"?>
<svg width="24px" height="24px" viewBox="0 0 24 24" version="1.1" xmlns="http://www.w3.org/2000/svg" xmlns:xlink="http://www.w3.org/1999/xlink">
    <title>Icon/media/stop</title>
    <g id="Icon/media/stop" stroke="none" stroke-width="1" fill="none" fill-rule="evenodd">
        <path d="M17,4.25 L7,4.25 C5.48121694,4.25 4.25,5.48121694 4.25,7 L4.25,17 C4.25,18.5187831 5.48121694,19.75 7,19.75 L17,19.75 C18.5187831,19.75 19.75,18.5187831 19.75,17 L19.75,7 C19.75,5.48121694 18.5187831,4.25 17,4.25 Z M7,5.75 L17,5.75 C17.6903559,5.75 18.25,6.30964406 18.25,7 L18.25,17 C18.25,17.6903559 17.6903559,18.25 17,18.25 L7,18.25 C6.30964406,18.25 5.75,17.6903559 5.75,17 L5.75,7 C5.75,6.30964406 6.30964406,5.75 7,5.75 Z" id="Icon-Color" fill="#212121"></path>
    </g>
</svg>