<?xml version="1.0" encoding="UTF-8"?>
<svg width="24px" height="24px" viewBox="0 0 24 24" version="1.1" xmlns="http://www.w3.org/2000/svg" xmlns:xlink="http://www.w3.org/1999/xlink">
    <title>Icon/brand/telegram</title>
    <g id="Icon/brand/telegram" stroke="none" stroke-width="1" fill="none" fill-rule="evenodd">
        <path d="M20.7281653,3.3009965 C21.2619545,3.09341181 21.8070195,3.53394446 21.7462512,4.07867622 L21.7276069,4.18190172 L17.7276069,20.1819017 C17.5950526,20.7121187 16.967734,20.9167198 16.550176,20.6005628 L16.4696699,20.5303301 L12.081,16.142 L9.6,19.45 C9.25968951,19.9037473 8.57291409,19.8241098 8.33075643,19.3394624 L8.28848753,19.2371708 L6.386,13.531 L2.6645898,11.6708204 C2.11694581,11.3969984 2.11939278,10.6340642 2.62706676,10.3486748 L2.7281653,10.3009965 L20.7281653,3.3009965 Z M19.92,5.224 L4.848,11.086 L7.3354102,12.3291796 C7.4777403,12.4003447 7.59279066,12.5144103 7.66532323,12.6538068 L7.71151247,12.7628292 L9.259,17.405 L11.01,15.071 L10.4696699,14.5303301 C10.2034034,14.2640635 10.1791973,13.8473998 10.3970518,13.5537883 L10.4696699,13.4696699 L14.4696699,9.46966991 C14.7625631,9.1767767 15.2374369,9.1767767 15.5303301,9.46966991 C15.7965966,9.73593648 15.8208027,10.1526002 15.6029482,10.4462117 L15.5303301,10.5303301 L12.061,14 L16.593,18.532 L19.92,5.224 Z" id="Icon-Color" fill="#212121"></path>
    </g>
</svg>