<?xml version="1.0" encoding="UTF-8"?>
<svg width="24px" height="24px" viewBox="0 0 24 24" version="1.1" xmlns="http://www.w3.org/2000/svg" xmlns:xlink="http://www.w3.org/1999/xlink">
    <title>Icon/trash</title>
    <g id="Icon/trash" stroke="none" stroke-width="1" fill="none" fill-rule="evenodd">
        <path d="M14,2.25 C14.9181734,2.25 15.6711923,2.95711027 15.7441988,3.85647279 L15.75,4 L15.75,6.25 L20,6.25 C20.4142136,6.25 20.75,6.58578644 20.75,7 C20.75,7.37969577 20.4678461,7.69349096 20.1017706,7.74315338 L20,7.75 L19.69,7.75 L18.75,19 C18.75,20.4625318 17.6082954,21.6584043 16.1675223,21.7449812 L16,21.75 L8,21.75 C6.53746816,21.75 5.34159572,20.6082954 5.25733215,19.2231391 L5.25259068,19.0622841 L4.309,7.75 L4,7.75 C3.58578644,7.75 3.25,7.41421356 3.25,7 C3.25,6.62030423 3.53215388,6.30650904 3.89822944,6.25684662 L4,6.25 L8.25,6.25 L8.25,4 C8.25,3.0818266 8.95711027,2.32880766 9.85647279,2.2558012 L10,2.25 L14,2.25 Z M18.184,7.75 L5.815,7.75 L6.75,19 C6.75,19.6472087 7.24187466,20.1795339 7.87219476,20.2435464 L8,20.25 L16,20.25 C16.6472087,20.25 17.1795339,19.7581253 17.245681,19.0764847 L17.2525907,18.9377159 L18.184,7.75 Z M10,10.25 C10.3796958,10.25 10.693491,10.5321539 10.7431534,10.8982294 L10.75,11 L10.75,17 C10.75,17.4142136 10.4142136,17.75 10,17.75 C9.62030423,17.75 9.30650904,17.4678461 9.25684662,17.1017706 L9.25,17 L9.25,11 C9.25,10.5857864 9.58578644,10.25 10,10.25 Z M14,10.25 C14.3796958,10.25 14.693491,10.5321539 14.7431534,10.8982294 L14.75,11 L14.75,17 C14.75,17.4142136 14.4142136,17.75 14,17.75 C13.6203042,17.75 13.306509,17.4678461 13.2568466,17.1017706 L13.25,17 L13.25,11 C13.25,10.5857864 13.5857864,10.25 14,10.25 Z M14,3.75 L10,3.75 C9.88165327,3.75 9.78251318,3.83223341 9.75660268,3.94267729 L9.75,4 L9.75,6.25 L14.25,6.25 L14.25,4 C14.25,3.88165327 14.1677666,3.78251318 14.0573227,3.75660268 L14,3.75 Z" id="Icon-Color" fill="#212121"></path>
    </g>
</svg>