<?xml version="1.0" encoding="UTF-8"?>
<svg width="24px" height="24px" viewBox="0 0 24 24" version="1.1" xmlns="http://www.w3.org/2000/svg" xmlns:xlink="http://www.w3.org/1999/xlink">
    <title>Icon/social/default/twitter</title>
    <g id="Icon/social/default/twitter" stroke="none" stroke-width="1" fill="none" fill-rule="evenodd">
        <path d="M20.9261611,8.51874352 L20.931,8.028 L20.9358879,8.09400408 C20.9378723,8.10678001 20.9402506,8.10928975 20.9421515,8.10856427 L21.2972586,7.40090354 L21.7505307,6.51556034 L22.0338869,5.94046482 L22.1589362,5.67547184 C22.3980388,5.16010762 22.5711599,4.73146363 22.6781908,4.37135483 L22.701,4.286 L22.7075524,4.2722818 C22.8672537,3.82796951 22.5779558,3.26 21.999,3.26 L21.8877325,3.26825572 L21.7809636,3.29232198 L21.6699886,3.33650727 C21.4813283,3.4289508 21.2869535,3.5131424 21.0807413,3.5923696 L20.6422229,3.74809397 L20.2671102,3.86510991 L19.788935,4.00105215 L19.217,4.158 L19.0949845,4.05128201 C17.8421412,3.01740591 16.1371803,2.8940325 14.3569948,3.56062668 L14.1486924,3.64389911 C12.4361515,4.37280399 11.3127506,5.9674112 11.2522041,7.79046326 L11.25,8.238 L11.0689683,8.22874099 C8.46726659,8.03740201 6.16485437,6.73544532 4.60982522,4.56340728 C4.29033994,4.11715573 3.61546811,4.15392287 3.34635358,4.63224145 L3.25398217,4.80821743 L3.20622943,4.9050754 C2.50651659,6.35159882 2.0451255,8.11636218 2.21446871,9.97562231 L2.2430079,10.2400955 C2.52786755,12.5196877 3.79028411,14.4716976 6.18912053,15.9135605 L6.455,16.068 L6.28214591,16.1648666 C4.8117161,16.9577438 3.48542193,17.307246 2.02916854,17.2505674 C1.23691794,17.2197324 0.944909648,18.2790988 1.64107014,18.6585358 C5.18414109,20.5896594 8.98023764,21.1844433 12.243087,20.2372656 C16.2218299,19.0814297 19.2482165,16.1030402 20.4070511,11.9778355 C20.7185912,10.8471787 20.8925081,9.68661302 20.9261611,8.51874352 Z M18.4386847,5.49741851 C18.6316673,5.71519102 18.9331954,5.8016884 19.2122737,5.71933293 L20.3826844,5.39272734 L20.672,5.309 L20.4945824,5.67384788 L19.6654265,7.29905986 L19.5645573,7.50823214 C19.4673557,7.71955837 19.4377406,7.82885084 19.4327705,7.96677811 L19.4320242,8.0280239 C19.4386521,9.22530642 19.2804837,10.4196849 18.9619443,11.5757754 C17.9462254,15.1914841 15.3122971,17.7836395 11.8247727,18.7967751 L11.5167824,18.8803908 C9.57174867,19.3724434 7.3944348,19.2516947 5.20359516,18.5608741 L4.763,18.414 L5.01542121,18.339502 C6.11934025,17.9894691 7.22338766,17.4184923 8.41579428,16.6241916 C8.9098335,16.295096 8.84387598,15.5497201 8.29972346,15.312493 C5.29928184,14.0044296 3.91647373,12.1253148 3.70828535,9.83956404 L3.68631628,9.50993874 C3.64431621,8.52271576 3.81409179,7.55308601 4.10415322,6.67440407 L4.191,6.425 L4.22701207,6.46697409 C6.22735738,8.64099113 8.99529982,9.82709895 12.0191771,9.74975479 C12.4257874,9.73935458 12.75,9.40674331 12.75,9 L12.75,8 C12.7314764,6.6442417 13.5681262,5.45773249 14.8830052,4.96537332 C16.3637948,4.41088854 17.6251317,4.57935906 18.4386847,5.49741851 Z" id="Icon-Color" fill="#212121"></path>
    </g>
</svg>