<?xml version="1.0" encoding="UTF-8"?>
<svg width="24px" height="24px" viewBox="0 0 24 24" version="1.1" xmlns="http://www.w3.org/2000/svg" xmlns:xlink="http://www.w3.org/1999/xlink">
    <title>Icon/social/outline/twitter</title>
    <g id="Icon/social/outline/twitter" stroke="none" stroke-width="1" fill="none" fill-rule="evenodd">
        <path d="M12,2 C17.5228475,2 22,6.4771525 22,12 C22,17.5228475 17.5228475,22 12,22 C6.4771525,22 2,17.5228475 2,12 C2,6.4771525 6.4771525,2 12,2 Z M12,2.75 C6.89136606,2.75 2.75,6.89136606 2.75,12 C2.75,17.1086339 6.89136606,21.25 12,21.25 C17.1086339,21.25 21.25,17.1086339 21.25,12 C21.25,6.89136606 17.1086339,2.75 12,2.75 Z M13.705858,8.21605128 C14.6165414,7.86752772 15.4887425,7.93203254 16.1296553,8.47258659 L16.1296553,8.47258659 L16.1920744,8.52838325 L16.4846572,8.44632429 L16.7292757,8.37524796 L16.9211708,8.31406709 L17.1455022,8.23264781 C17.2509935,8.19122449 17.3504291,8.14720557 17.4469414,8.0988722 L17.4469414,8.0988722 L17.5037125,8.07577026 L17.5583319,8.0631874 L17.6152527,8.05887097 C17.9114271,8.05887097 18.0594223,8.35582939 17.9777244,8.5881346 L17.9777244,8.5881346 L17.9743724,8.59530705 L17.962704,8.63993416 C17.9079506,8.82821423 17.8193876,9.0523274 17.6970707,9.32178155 L17.6970707,9.32178155 L17.6330997,9.46033106 L17.4881441,9.76101527 L17.2562652,10.22391 L17.0746043,10.5939049 C17.0736318,10.5942842 17.0724152,10.592972 17.0714,10.5862922 L17.0714,10.5862922 L17.0688995,10.5517825 L17.0664241,10.8083639 C17.0492084,11.4189754 16.9602383,12.0257681 16.8008648,12.6169231 C16.2080437,14.7737542 14.6598453,16.3309819 12.6244533,16.9353017 C10.9552885,17.4305262 9.0133322,17.119548 7.20081538,16.1098751 C6.84468292,15.9114895 6.99406461,15.357608 7.39935357,15.3737299 C8.14432419,15.4033638 8.82281201,15.2206293 9.57503481,14.8060797 L9.57503481,14.8060797 L9.66346119,14.7554337 L9.52744613,14.6746863 C8.3002815,13.9208195 7.65447133,12.9002263 7.50874665,11.7083594 L7.50874665,11.7083594 L7.49414695,11.5700816 C7.40751662,10.597982 7.6435489,9.67528926 8.00149863,8.91898579 L8.00149863,8.91898579 L8.02592733,8.86834436 L8.07318146,8.77633669 C8.21085147,8.52625155 8.55609337,8.50702814 8.71953137,8.74034728 C9.51503237,9.87598041 10.6928696,10.5566983 12.0238134,10.6567384 L12.0238134,10.6567384 L12.1164231,10.6615794 L12.1175507,10.4275883 C12.1485242,9.47441976 12.7232186,8.64069184 13.5992974,8.25958962 L13.5992974,8.25958962 Z M15.7939142,9.22868776 C15.3777276,8.74868754 14.7324698,8.66060405 13.9749473,8.95051209 C13.3022991,9.20793824 12.874297,9.82829531 12.883773,10.5371429 L12.883773,10.5371429 L12.883773,11.0599851 C12.883773,11.2726477 12.7179167,11.4465509 12.5099084,11.4519886 C10.9629938,11.4924274 9.54700683,10.8722802 8.52369695,9.73561232 L8.52369695,9.73561232 L8.50527437,9.7136665 L8.46084646,9.84406547 C8.31246072,10.3034775 8.2256092,10.8104408 8.24709503,11.3266026 L8.24709503,11.3266026 L8.25833367,11.4989446 C8.3648359,12.6940316 9.07223437,13.676512 10.6071601,14.3604228 C10.8855304,14.4844551 10.9192721,14.8741691 10.6665381,15.0462342 C10.0565427,15.4615281 9.49174887,15.7600588 8.92702074,15.9430708 L8.92702074,15.9430708 L8.79789048,15.9820215 L9.02328425,16.0588135 C10.1440447,16.4200036 11.2578858,16.4831362 12.2529001,16.2258703 L12.2529001,16.2258703 L12.4104576,16.1821525 C14.1945587,15.6524424 15.5419885,14.2971542 16.0615964,12.4067092 C16.2245505,11.8022563 16.3054642,11.1777848 16.3020735,10.551795 L16.3020735,10.551795 L16.3024554,10.5197731 C16.3049979,10.4476589 16.3201479,10.3905162 16.3698731,10.280026 L16.3698731,10.280026 L16.4214744,10.1706619 L16.8456428,9.32093248 L16.9364038,9.13017461 L16.7883996,9.1739508 L16.1896566,9.34471398 C16.0468894,9.3877729 15.8926377,9.34254842 15.7939142,9.22868776 Z" id="Icon-Color" fill="#212121"></path>
    </g>
</svg>