<?xml version="1.0" encoding="UTF-8"?>
<svg width="24px" height="24px" viewBox="0 0 24 24" version="1.1" xmlns="http://www.w3.org/2000/svg" xmlns:xlink="http://www.w3.org/1999/xlink">
    <title>Icon/vector</title>
    <g id="Icon/vector" stroke="none" stroke-width="1" fill="none" fill-rule="evenodd">
        <path d="M6,2.25 C6.96649831,2.25 7.75,3.03350169 7.75,4 L7.75,4 L7.75,4.25 L16.25,4.25 L16.25,4 C16.25,3.0818266 16.9571103,2.32880766 17.8564728,2.2558012 L18,2.25 L20,2.25 C20.9664983,2.25 21.75,3.03350169 21.75,4 L21.75,4 L21.75,6 C21.75,6.96649831 20.9664983,7.75 20,7.75 L20,7.75 L19.75,7.75 L19.75,16.25 L20,16.25 C20.9181734,16.25 21.6711923,16.9571103 21.7441988,17.8564728 L21.75,18 L21.75,20 C21.75,20.9664983 20.9664983,21.75 20,21.75 L20,21.75 L18,21.75 C17.0335017,21.75 16.25,20.9664983 16.25,20 L16.25,20 L16.25,19.75 L7.75,19.75 L7.75,20 C7.75,20.9181734 7.04288973,21.6711923 6.14352721,21.7441988 L6,21.75 L4,21.75 C3.03350169,21.75 2.25,20.9664983 2.25,20 L2.25,20 L2.25,18 C2.25,17.0335017 3.03350169,16.25 4,16.25 L4,16.25 L4.25,16.25 L4.25,7.75 L4,7.75 C3.0818266,7.75 2.32880766,7.04288973 2.2558012,6.14352721 L2.25,6 L2.25,4 C2.25,3.03350169 3.03350169,2.25 4,2.25 L4,2.25 Z M20,17.75 L18,17.75 C17.8619288,17.75 17.75,17.8619288 17.75,18 L17.75,18 L17.75,20 C17.75,20.1380712 17.8619288,20.25 18,20.25 L18,20.25 L20,20.25 C20.1380712,20.25 20.25,20.1380712 20.25,20 L20.25,20 L20.25,18 C20.25,17.8619288 20.1380712,17.75 20,17.75 L20,17.75 Z M6,17.75 L4,17.75 C3.86192881,17.75 3.75,17.8619288 3.75,18 L3.75,18 L3.75,20 C3.75,20.1380712 3.86192881,20.25 4,20.25 L4,20.25 L6,20.25 C6.13807119,20.25 6.25,20.1380712 6.25,20 L6.25,20 L6.25,18 C6.25,17.8619288 6.13807119,17.75 6,17.75 L6,17.75 Z M16.25,5.75 L7.75,5.75 L7.75,6 C7.75,6.9181734 7.04288973,7.67119234 6.14352721,7.7441988 L6,7.75 L5.75,7.75 L5.75,16.25 L6,16.25 C6.9181734,16.25 7.67119234,16.9571103 7.7441988,17.8564728 L7.75,18 L7.75,18.25 L16.25,18.25 L16.25,18 C16.25,17.0818266 16.9571103,16.3288077 17.8564728,16.2558012 L18,16.25 L18.25,16.25 L18.25,7.75 L18,7.75 C17.0818266,7.75 16.3288077,7.04288973 16.2558012,6.14352721 L16.25,6 L16.25,5.75 Z M6,3.75 L4,3.75 C3.86192881,3.75 3.75,3.86192881 3.75,4 L3.75,4 L3.75,6 C3.75,6.13807119 3.86192881,6.25 4,6.25 L4,6.25 L6,6.25 C6.13807119,6.25 6.25,6.13807119 6.25,6 L6.25,6 L6.25,4 C6.25,3.86192881 6.13807119,3.75 6,3.75 L6,3.75 Z M20,3.75 L18,3.75 C17.8619288,3.75 17.75,3.86192881 17.75,4 L17.75,4 L17.75,6 C17.75,6.13807119 17.8619288,6.25 18,6.25 L18,6.25 L20,6.25 C20.1380712,6.25 20.25,6.13807119 20.25,6 L20.25,6 L20.25,4 C20.25,3.86192881 20.1380712,3.75 20,3.75 L20,3.75 Z" id="Icon-Color" fill="#212121"></path>
    </g>
</svg>