<?xml version="1.0" encoding="UTF-8"?>
<svg width="24px" height="24px" viewBox="0 0 24 24" version="1.1" xmlns="http://www.w3.org/2000/svg" xmlns:xlink="http://www.w3.org/1999/xlink">
    <title>Icon/warning</title>
    <g id="Icon/warning" stroke="none" stroke-width="1" fill="none" fill-rule="evenodd">
        <path d="M13.3065794,1.97329719 L23.6943659,20.6516904 C24.4156426,21.948626 23.8156473,23 22.3643005,23 L1.63688434,23 C0.181032796,23 -0.415340777,21.9502137 0.306818941,20.6516904 L10.6946054,1.97329719 C11.4158821,0.6763616 12.5844197,0.67477385 13.3065794,1.97329719 Z M12,17 C10.8846154,17 10,17.8932039 10,19 C10,20.1067961 10.8846154,21 12,21 C13.1153846,21 14,20.1067961 14,19 C14,17.8932039 13.1153846,17 12,17 Z M12,7 C11.9452746,7 11.8905768,7.00245748 11.8360718,7.00736501 C10.8305552,7.09790003 10.0888161,7.98642544 10.1793511,8.99194206 L10.1793511,8.99194206 L10.7036618,14.8151379 C10.7640685,15.4860376 11.3263864,16 12,16 C12.6736136,16 13.2359315,15.4860376 13.2963382,14.8151379 L13.2963382,14.8151379 L13.8206489,8.99194206 C13.8255564,8.93743713 13.8280139,8.88273932 13.8280139,8.82801391 C13.8280139,7.8184297 13.0095842,7 12,7 Z" id="Icon-Color" fill="#212121"></path>
    </g>
</svg>