<?xml version="1.0" encoding="UTF-8"?>
<svg width="24px" height="24px" viewBox="0 0 24 24" version="1.1" xmlns="http://www.w3.org/2000/svg" xmlns:xlink="http://www.w3.org/1999/xlink">
    <title>Icon/brand/whatsapp</title>
    <g id="Icon/brand/whatsapp" stroke="none" stroke-width="1" fill="none" fill-rule="evenodd">
        <path d="M18.3348939,4.59874508 C22.0729503,7.78708732 22.8547403,13.2586648 20.159142,17.3662605 C17.5692536,21.312774 12.5468226,22.8154855 8.24334366,21.0111232 L7.946,20.88 L3.13158995,21.7383658 L3.03019682,21.7494814 L2.99254061,21.7501569 L2.89484018,21.7427822 L2.83384366,21.7315621 L2.79736359,21.7221999 L2.74095669,21.7039732 L2.65297819,21.6649287 L2.6106631,21.6411326 L2.57094467,21.6151516 L2.49589267,21.5553649 L2.45698106,21.5176113 L2.42885873,21.4862914 L2.39484989,21.4432551 L2.37087937,21.4086543 L2.32299114,21.3231763 L2.28623057,21.2305806 L2.27286095,21.1839107 L2.26163418,21.1315899 L2.25051861,21.0301968 L2.24984307,20.9925406 L2.25721784,20.8948402 L2.26843788,20.8338437 L2.27780011,20.7973636 L2.29602679,20.7409567 L3.799,17.277 L3.71376598,17.1430816 C1.31143999,13.2618991 1.92619587,8.20436554 5.22524176,5.01241729 L5.43946144,4.81123883 C9.07044053,1.50146802 14.5968375,1.41040284 18.3348939,4.59874508 Z M6.44995421,5.91979841 C3.37758729,8.72037372 2.86897204,13.3694517 5.26313871,16.768073 C5.39225794,16.9513632 5.4315307,17.1809647 5.37451065,17.3939166 L5.33794637,17.4987136 L4.244,20.016 L7.91841005,19.3616342 C8.03599108,19.3406791 8.15628564,19.3482011 8.26942146,19.3828142 L8.37980537,19.4264063 C12.1135278,21.254514 16.6241778,20.0189362 18.9050686,16.5432783 C21.1859594,13.0676204 20.5244448,8.43782406 17.361474,5.73999601 C14.1985032,3.04216796 9.52232114,3.11922311 6.44995421,5.91979841 Z M9.5,7.75 C10.1472087,7.75 10.6795339,8.24187466 10.7435464,8.87219476 L10.75,9 L10.75,10 C10.75,10.517767 10.4352002,10.9620085 9.98655641,11.1517688 L9.915,11.177 L9.91975464,11.1931058 C10.3035905,12.5079604 11.3057344,13.5591053 12.5902511,14.0106052 L12.822,14.084 L12.8482312,14.0134436 C13.0221782,13.6021868 13.40996,13.3033961 13.8721948,13.2564536 L14,13.25 L15,13.25 C15.6903559,13.25 16.25,13.8096441 16.25,14.5 C16.25,15.1472087 15.7581253,15.6795339 15.1278052,15.7435464 L15,15.75 L14,15.75 C10.8982147,15.75 8.37006299,13.2939828 8.25415208,10.2205557 L8.25,10 L8.25,9 C8.25,8.30964406 8.80964406,7.75 9.5,7.75 Z" id="Icon-Color" fill="#212121"></path>
    </g>
</svg>