<?xml version="1.0" encoding="UTF-8"?>
<svg width="24px" height="24px" viewBox="0 0 24 24" version="1.1" xmlns="http://www.w3.org/2000/svg" xmlns:xlink="http://www.w3.org/1999/xlink">
    <title>Icon/world</title>
    <g id="Icon/world" stroke="none" stroke-width="1" fill="none" fill-rule="evenodd">
        <path d="M12.6177753,2.25929372 L12.6867318,2.27380972 C17.7510705,2.62619283 21.75,6.8460964 21.75,12 C21.75,17.1549177 17.7494966,21.3754677 12.6837423,21.7263978 C12.5897227,21.7509415 12.4907771,21.7565466 12.3930625,21.7425275 L12.2729072,21.7462542 L12.2729072,21.7462542 L12,21.75 C11.8679822,21.75 11.7365773,21.7473762 11.6058344,21.7421778 C11.5092229,21.7565466 11.4102773,21.7509415 11.3158861,21.7270513 C6.25050336,21.3754677 2.25,17.1549177 2.25,12 C2.25,6.8460964 6.24892954,2.62619283 11.3132682,2.27380972 C11.4085129,2.24909601 11.5088684,2.24326609 11.6079382,2.25761677 L11.7270928,2.25374575 L11.7270928,2.25374575 L12,2.25 C12.131681,2.25 12.2627523,2.25261046 12.393165,2.25778246 C12.4674408,2.24669781 12.5435641,2.24746178 12.6177753,2.25929372 Z M13.8895436,15.7504765 L10.1104564,15.7504765 C10.4802866,17.3106103 11.0841851,18.8283334 11.9221519,20.2499618 L12,20.25 C12.0257818,20.25 12.051536,20.2498817 12.0772621,20.2496457 C12.9158149,18.8283334 13.5197134,17.3106103 13.8895436,15.7504765 Z M8.57252006,15.7505923 L4.64968964,15.750245 C5.73547535,17.8740843 7.71471204,19.4652988 10.0916974,20.0281864 C9.39617369,18.6583236 8.88995441,17.2200979 8.57252006,15.7505923 Z M19.3503104,15.750245 L15.4274799,15.7505923 C15.1100456,17.2200979 14.6038263,18.6583236 13.9088221,20.0280635 C16.285288,19.4652988 18.2645246,17.8740843 19.3503104,15.750245 Z M8.31515755,9.75023294 L4.06041547,9.75047121 C3.8582032,10.4655792 3.75,11.2201535 3.75,12 C3.75,12.7802118 3.85830459,13.5351277 4.06069967,14.2505336 L8.31528516,14.2507668 C8.12455429,12.756888 8.12451176,11.2441201 8.31515755,9.75023294 Z M14.1715487,9.75044099 L9.82845132,9.75044099 C9.62007652,11.2429673 9.62012304,12.7580422 9.82859089,14.2505585 L14.1714091,14.2505585 C14.379877,12.7580422 14.3799235,11.2429673 14.1715487,9.75044099 Z M19.9395845,9.75047121 L15.6848424,9.75023294 C15.8754882,11.2441201 15.8754457,12.756888 15.6847148,14.2507668 L19.9393003,14.2505336 C20.1416954,13.5351277 20.25,12.7802118 20.25,12 C20.25,11.2201535 20.1417968,10.4655792 19.9395845,9.75047121 Z M10.0911544,3.97198263 L10.040964,3.9839984 C7.68618546,4.55748822 5.72711635,6.14154916 4.64917381,8.25076414 L8.5723037,8.25040947 C8.8897208,6.78057221 9.39600439,5.34201999 10.0911544,3.97198263 Z M12,3.75 L11.9215642,3.75103545 C11.0837542,5.1726284 10.479986,6.69029265 10.1102598,8.25035325 L13.8897402,8.25035325 C13.520014,6.69029265 12.9162458,5.1726284 12.0784358,3.75103545 L12,3.75 L12,3.75 Z M13.9083026,3.97181365 L14.0719357,4.30183959 C14.6837333,5.57221571 15.1356535,6.89807104 15.4276963,8.25040947 L19.3508262,8.25076414 C18.2651516,6.12641977 16.2856644,4.53479031 13.9083026,3.97181365 Z" id="Icon-Color" fill="#212121"></path>
    </g>
</svg>