<?xml version="1.0" encoding="UTF-8"?>
<svg width="24px" height="24px" viewBox="0 0 24 24" version="1.1" xmlns="http://www.w3.org/2000/svg" xmlns:xlink="http://www.w3.org/1999/xlink">
    <title>Icon/zodiac-libra</title>
    <g id="Icon/zodiac-libra" stroke="none" stroke-width="1" fill="none" fill-rule="evenodd">
        <path d="M19,19.25 C19.4142136,19.25 19.75,19.5857864 19.75,20 C19.75,20.3796958 19.4678461,20.693491 19.1017706,20.7431534 L19,20.75 L5,20.75 C4.58578644,20.75 4.25,20.4142136 4.25,20 C4.25,19.6203042 4.53215388,19.306509 4.89822944,19.2568466 L5,19.25 L19,19.25 Z M12,2.24179607 C15.8480256,2.24179607 19.1132719,5.06521871 19.6688097,8.87293181 C20.0885494,11.7498706 18.8653536,14.5303004 16.6517232,16.1919239 L16.57,16.25 L19,16.25 C19.3796958,16.25 19.693491,16.5321539 19.7431534,16.8982294 L19.75,17 C19.75,17.3796958 19.4678461,17.693491 19.1017706,17.7431534 L19,17.75 L14,17.75 C13.6203042,17.75 13.306509,17.4678461 13.2568466,17.1017706 L13.25,17 L13.25,16.7 C13.25,16.3683207 13.4678611,16.0760294 13.7857143,15.9812639 C16.7596015,15.094622 18.6325384,12.1602225 18.184524,9.08948618 C17.7365096,6.01874981 15.1032465,3.74179607 12,3.74179607 C8.89675352,3.74179607 6.26349042,6.01874981 5.81547602,9.08948618 C5.36746162,12.1602225 7.24039854,15.094622 10.2142857,15.9812639 C10.4968219,16.0654999 10.7003519,16.3058057 10.7420928,16.591116 L10.75,16.7 L10.75,17 C10.75,17.3796958 10.4678461,17.693491 10.1017706,17.7431534 L10,17.75 L5,17.75 C4.58578644,17.75 4.25,17.4142136 4.25,17 C4.25,16.6203042 4.53215388,16.306509 4.89822944,16.2568466 L5,16.25 L7.429,16.25 L7.34827685,16.1919239 C5.19975315,14.5791716 3.98426003,11.9124575 4.29840148,9.12650288 L4.33119026,8.87293181 C4.88672812,5.06521871 8.15197436,2.24179607 12,2.24179607 Z" id="Icon-Color" fill="#212121"></path>
    </g>
</svg>