<?xml version="1.0" standalone="no"?>
<!DOCTYPE svg PUBLIC "-//W3C//DTD SVG 20010904//EN"
 "http://www.w3.org/TR/2001/REC-SVG-20010904/DTD/svg10.dtd">
<svg version="1.0" xmlns="http://www.w3.org/2000/svg"
 width="118.000000pt" height="24.000000pt" viewBox="0 0 118.000000 24.000000"
 preserveAspectRatio="xMidYMid meet">

<g transform="translate(0.000000,24.000000) scale(0.100000,-0.100000)"
fill="#000000" stroke="none">
<path d="M25 188 c-8 -28 -15 -57 -15 -64 0 -18 35 -35 54 -28 9 3 16 2 16 -3
0 -6 -14 -14 -31 -19 -44 -13 -59 -38 -36 -61 23 -23 66 -8 87 31 8 17 26 40
40 52 23 21 26 21 43 7 14 -13 22 -14 43 -4 15 7 31 8 38 3 6 -5 30 -9 53 -10
41 -1 42 0 58 48 29 88 69 88 45 0 -6 -23 -9 -44 -6 -47 13 -14 34 9 46 51 14
50 35 75 50 60 6 -6 5 -24 -2 -47 -10 -32 -9 -40 5 -54 13 -14 21 -15 42 -5
18 8 32 9 45 2 10 -5 26 -7 34 -4 9 3 16 2 16 -3 0 -6 -14 -14 -31 -19 -44
-13 -59 -38 -36 -61 23 -23 66 -8 87 31 8 17 26 40 40 52 23 21 26 21 43 7 14
-13 22 -14 43 -4 15 7 31 8 38 3 6 -5 30 -9 53 -10 41 -1 42 0 58 48 29 88 69
88 45 0 -6 -23 -9 -44 -6 -47 13 -14 34 9 46 51 14 50 35 75 50 60 6 -6 5 -24
-2 -47 -10 -32 -9 -40 5 -54 22 -22 60 -5 82 37 19 37 11 39 -20 3 -30 -36
-40 -26 -24 26 11 36 10 44 -4 58 -14 14 -21 15 -43 4 -20 -9 -30 -9 -40 0
-11 9 -21 9 -39 1 -17 -8 -25 -8 -27 0 -8 23 -34 -1 -46 -39 -12 -40 -47 -82
-58 -70 -4 3 1 27 10 53 20 60 20 64 -3 64 -15 0 -22 -12 -31 -50 -7 -29 -20
-55 -30 -60 -28 -15 -33 3 -16 60 14 48 14 50 -4 50 -14 0 -22 -11 -30 -40
-12 -44 -59 -107 -60 -79 0 9 7 36 15 59 19 54 19 60 -4 60 -13 0 -22 -13 -32
-52 -11 -42 -19 -54 -37 -56 -26 -4 -26 -2 -7 61 13 45 13 47 -5 47 -14 0 -22
-12 -31 -42 -12 -44 -43 -87 -54 -76 -4 3 -1 25 6 47 11 36 10 44 -4 58 -14
14 -21 15 -43 4 -20 -9 -30 -9 -40 0 -11 9 -21 9 -39 1 -17 -8 -25 -8 -27 0
-8 23 -34 -1 -46 -39 -12 -40 -47 -82 -58 -70 -4 3 1 27 10 53 20 60 20 64 -3
64 -15 0 -22 -12 -31 -50 -7 -29 -20 -55 -30 -60 -28 -15 -33 3 -16 60 14 48
14 50 -4 50 -14 0 -22 -11 -30 -40 -12 -44 -59 -107 -60 -79 0 9 7 36 15 59
19 54 19 60 -4 60 -13 0 -22 -13 -32 -52 -11 -42 -19 -54 -37 -56 -26 -4 -26
-2 -7 61 13 45 13 47 -5 47 -14 0 -23 -13 -35 -52z m43 -140 c-6 -16 -36 -34
-44 -25 -9 9 15 37 33 37 8 0 13 -5 11 -12z m570 0 c-6 -16 -36 -34 -44 -25
-9 9 15 37 33 37 8 0 13 -5 11 -12z"/>
</g>
</svg>
