<?xml version="1.0" standalone="no"?>
<!DOCTYPE svg PUBLIC "-//W3C//DTD SVG 20010904//EN"
 "http://www.w3.org/TR/2001/REC-SVG-20010904/DTD/svg10.dtd">
<svg version="1.0" xmlns="http://www.w3.org/2000/svg"
 width="264.000000pt" height="107.000000pt" viewBox="0 0 264.000000 107.000000"
 preserveAspectRatio="xMidYMid meet">

<g transform="translate(0.000000,107.000000) scale(0.100000,-0.100000)"
fill="#d95d27" stroke="none">
<path d="M2348 1054 c-15 -16 -605 -194 -641 -194 -13 0 -34 -12 -48 -26 -13
-14 -60 -50 -105 -80 -88 -58 -173 -143 -204 -205 -11 -21 -20 -41 -20 -44 0
-3 65 -5 144 -5 l144 0 31 55 c44 78 96 131 144 149 59 21 529 157 532 154 6
-7 95 -465 95 -490 0 -15 7 -33 15 -42 14 -13 13 -21 -6 -70 -11 -31 -24 -55
-29 -53 -5 1 -24 -20 -42 -48 -18 -27 -43 -54 -56 -60 -12 -5 -22 -15 -22 -21
0 -14 90 -1 141 20 19 7 54 16 79 20 61 9 103 36 123 79 24 50 21 74 -14 110
-31 30 -31 31 -24 104 4 43 3 79 -3 86 -5 7 -15 44 -21 82 -20 117 -61 267
-80 294 -10 14 -28 58 -41 96 -12 39 -27 75 -32 81 -14 19 -45 23 -60 8z m-17
-78 c-7 -8 -42 -21 -79 -30 -124 -30 -304 -64 -295 -56 15 15 378 118 381 108
2 -5 -1 -15 -7 -22z m180 -351 c10 -21 40 -128 36 -131 -1 -1 -17 -5 -34 -9
l-33 -7 0 99 c0 54 -2 116 -5 138 -4 34 -2 31 10 -15 9 -30 20 -64 26 -75z
m39 -202 c0 -59 -40 -70 -61 -17 -11 31 0 44 39 44 17 0 22 -6 22 -27z"/>
<path d="M1965 619 c-107 -48 -111 -49 -156 -38 -38 10 -54 9 -96 -5 -47 -16
-62 -32 -63 -68 0 -5 134 -8 299 -8 l299 0 6 28 c3 15 8 37 12 50 4 13 3 22
-2 21 -23 -4 -45 4 -98 36 -32 19 -66 35 -75 34 -9 0 -65 -23 -126 -50z"/>
<path d="M1816 611 c-7 -10 33 -23 46 -15 5 3 6 10 3 15 -8 12 -42 12 -49 0z"/>
<path d="M860 534 c-217 -6 -411 -12 -430 -13 -23 -1 -31 -4 -24 -11 7 -7 165
-9 455 -8 l444 3 3 23 c3 19 -1 22 -25 20 -15 0 -206 -7 -423 -14z"/>
</g>
</svg>
