<?xml version="1.0" standalone="no"?>
<!DOCTYPE svg PUBLIC "-//W3C//DTD SVG 20010904//EN"
 "http://www.w3.org/TR/2001/REC-SVG-20010904/DTD/svg10.dtd">
<svg version="1.0" xmlns="http://www.w3.org/2000/svg"
 width="694.000000pt" height="149.000000pt" viewBox="0 0 694.000000 149.000000"
 preserveAspectRatio="xMidYMid meet">

<g transform="translate(0.000000,149.000000) scale(0.100000,-0.100000)"
fill="#fff" stroke="none">
<path d="M1274 1415 c21 -55 18 -69 -16 -90 l-33 -20 44 -5 c40 -5 46 -8 57
-40 l12 -35 11 28 c6 16 11 33 11 38 0 5 19 9 43 9 l42 1 -33 27 c-30 25 -32
30 -22 56 14 38 7 43 -25 17 l-27 -20 -36 27 c-31 23 -35 24 -28 7z"/>
<path d="M3780 1105 l0 -265 50 0 50 0 0 99 0 98 96 5 c105 6 130 17 172 79
20 29 23 44 20 96 -5 72 -26 108 -79 135 -27 15 -60 18 -171 18 l-138 0 0
-265z m260 155 c30 -30 27 -83 -6 -109 -21 -16 -41 -21 -90 -21 l-64 0 0 75 0
75 70 0 c57 0 74 -4 90 -20z"/>
<path d="M4250 1105 l0 -265 50 0 50 0 0 265 0 265 -50 0 -50 0 0 -265z"/>
<path d="M5500 1105 l0 -265 45 0 c42 0 45 2 45 26 l0 26 30 -25 c59 -50 130
-47 185 9 43 42 59 99 53 186 -6 75 -30 123 -76 151 -40 23 -109 22 -149 -3
l-33 -20 0 90 0 90 -50 0 -50 0 0 -265z m227 31 c26 -23 28 -29 28 -101 0 -72
-2 -78 -28 -101 -35 -30 -59 -30 -94 0 -24 21 -28 32 -31 94 -4 68 -3 73 26
102 37 36 62 38 99 6z"/>
<path d="M5940 1325 l0 -45 50 0 50 0 0 45 0 45 -50 0 -50 0 0 -45z"/>
<path d="M5006 1205 c-34 -23 -36 -23 -36 -5 0 17 -7 20 -45 20 l-45 0 0 -190
0 -190 50 0 50 0 0 133 c0 154 9 177 65 177 24 0 38 -6 45 -19 5 -11 10 -81
10 -155 l0 -136 44 0 44 0 4 128 c4 147 17 182 67 182 49 0 56 -20 59 -172 l4
-138 44 0 44 0 0 161 0 161 -34 34 c-29 29 -41 34 -80 34 -36 0 -52 -6 -81
-31 -30 -26 -36 -28 -41 -15 -9 23 -57 46 -97 46 -20 0 -50 -10 -71 -25z"/>
<path d="M5940 1033 l0 -193 50 0 50 0 0 195 0 194 -50 -2 -50 -2 0 -192z"/>
<path d="M6295 1218 c-11 -6 -30 -20 -42 -31 l-23 -20 0 26 c0 25 -3 27 -45
27 l-45 0 0 -190 0 -190 49 0 49 0 4 134 c3 152 14 176 73 176 58 0 65 -20 65
-173 l0 -137 50 0 50 0 0 150 c0 168 -8 198 -60 225 -34 17 -96 19 -125 3z"/>
<path d="M6672 1219 c-72 -15 -112 -82 -112 -186 0 -53 5 -80 23 -113 41 -77
123 -101 191 -55 l36 24 0 -42 c0 -73 -13 -81 -129 -85 l-101 -4 0 -34 0 -34
114 0 c101 0 117 2 147 23 59 39 63 59 67 295 l4 212 -46 0 c-43 0 -46 -2 -46
-27 l0 -26 -24 22 c-29 28 -79 40 -124 30z m99 -82 c26 -20 39 -53 39 -102 0
-70 -30 -114 -78 -115 -55 0 -96 92 -72 165 19 56 72 82 111 52z"/>
<path d="M4450 1074 c0 -167 10 -202 65 -228 56 -27 116 -17 163 26 l22 21 0
-26 c0 -25 3 -27 45 -27 l45 0 0 190 0 190 -50 0 -50 0 0 -130 c0 -126 -1
-132 -25 -155 -31 -32 -78 -33 -99 -3 -13 18 -16 51 -16 155 l0 133 -50 0 -50
0 0 -146z"/>
<path d="M1140 1206 c0 -2 4 -16 10 -30 8 -21 5 -28 -18 -45 l-27 -20 33 -1
c28 0 35 -5 44 -32 l12 -33 8 33 c8 29 12 32 46 32 l37 1 -28 17 c-25 15 -27
21 -22 52 l7 35 -22 -20 c-20 -18 -22 -18 -50 -1 -17 9 -30 15 -30 12z"/>
<path d="M1024 995 c5 -20 2 -31 -11 -41 -17 -13 -17 -13 5 -14 15 0 26 -9 33
-27 l11 -28 10 28 c7 20 16 27 36 27 l26 0 -21 15 c-18 13 -21 20 -13 40 11
28 -1 33 -20 10 -11 -14 -15 -14 -38 1 -25 16 -25 16 -18 -11z"/>
<path d="M30 910 l0 -60 100 0 100 0 0 -285 0 -285 70 0 70 0 0 285 0 285 100
0 100 0 0 60 0 60 -270 0 -270 0 0 -60z"/>
<path d="M1714 953 c-56 -24 -78 -42 -103 -83 -28 -46 -29 -132 -2 -176 38
-63 85 -86 274 -139 98 -27 124 -79 69 -135 -39 -38 -106 -49 -167 -26 -45 18
-69 45 -81 91 -7 27 -8 27 -71 22 -35 -2 -66 -7 -69 -10 -10 -10 19 -92 47
-133 41 -60 102 -87 210 -92 113 -6 186 15 238 67 64 64 78 172 31 248 -29 48
-84 79 -190 108 -132 37 -169 54 -176 82 -9 35 2 52 43 70 77 32 171 0 187
-63 6 -22 11 -24 71 -24 35 0 67 4 70 10 10 16 -14 88 -42 120 -45 54 -96 73
-203 77 -74 2 -104 -1 -136 -14z"/>
<path d="M2308 903 c-58 -35 -58 -35 -58 -84 0 -48 -1 -49 -30 -49 -29 0 -30
-1 -30 -50 0 -49 1 -50 29 -50 l30 0 3 -170 3 -170 28 -27 c25 -26 34 -28 102
-28 41 0 78 5 84 10 5 6 7 30 4 55 l-5 45 -42 0 -41 0 -3 143 -3 142 46 0 45
0 0 50 0 50 -45 0 -45 0 0 85 c0 47 -3 85 -7 84 -5 0 -34 -17 -65 -36z"/>
<path d="M804 781 c-11 -5 -33 -23 -47 -41 l-27 -32 0 36 0 36 -60 0 -60 0 0
-250 0 -250 64 0 64 0 3 163 c3 135 7 168 22 190 21 32 56 43 96 29 28 -10 29
-9 49 41 15 39 17 55 8 64 -15 16 -86 25 -112 14z"/>
<path d="M2705 779 c-67 -8 -108 -31 -134 -72 -33 -53 -28 -64 32 -74 49 -9
53 -8 74 18 26 31 68 42 114 29 37 -11 49 -25 49 -57 0 -24 -4 -26 -109 -48
-103 -21 -157 -47 -181 -87 -42 -69 -14 -162 60 -201 51 -27 147 -18 200 17
l40 26 10 -25 c9 -23 14 -25 75 -25 65 0 66 0 53 23 -8 14 -14 87 -18 209 -5
182 -6 187 -30 213 -14 15 -34 32 -45 37 -28 15 -131 24 -190 17z m125 -358
c-13 -32 -58 -61 -94 -61 -31 0 -76 40 -76 68 0 30 34 53 107 70 l68 17 3 -34
c2 -18 -2 -46 -8 -60z"/>
<path d="M3295 779 c-11 -6 -32 -25 -47 -42 l-28 -31 0 37 0 37 -60 0 -60 0 0
-250 0 -250 65 0 65 0 0 103 c1 251 36 319 141 273 13 -6 20 3 33 40 22 65 21
70 -15 83 -40 14 -68 14 -94 0z"/>
<path d="M1000 525 l0 -246 63 3 62 3 3 243 2 242 -65 0 -65 0 0 -245z"/>
<path d="M3945 721 c-95 -24 -124 -101 -74 -192 20 -35 22 -43 9 -47 -30 -10
-89 -82 -96 -117 -15 -84 32 -165 109 -186 56 -15 139 -5 182 21 l34 21 41
-27 42 -28 19 25 c41 51 41 55 0 84 l-39 27 19 41 c28 62 25 73 -21 85 -40 10
-41 9 -53 -21 l-13 -31 -33 48 -33 48 40 39 c50 48 61 91 37 143 -26 55 -101
84 -170 67z m83 -83 c20 -20 14 -53 -14 -79 l-26 -24 -24 28 c-39 46 -27 87
26 87 14 0 31 -5 38 -12z m-35 -269 c50 -66 53 -75 25 -92 -62 -41 -138 -12
-138 52 0 31 43 91 63 90 7 0 29 -23 50 -50z"/>
<path d="M4410 455 l0 -265 56 0 56 0 -7 115 -7 115 106 0 106 0 0 -115 0
-115 50 0 50 0 0 265 0 265 -50 0 -50 0 0 -105 0 -106 -102 3 -103 3 -3 103
-3 102 -49 0 -50 0 0 -265z"/>
<path d="M5950 675 l0 -45 50 0 50 0 0 45 0 45 -50 0 -50 0 0 -45z"/>
<path d="M5763 682 c-37 -24 -42 -31 -43 -64 0 -34 -3 -38 -25 -38 -23 0 -25
-4 -25 -45 0 -41 2 -45 25 -45 l25 0 0 -128 c0 -98 4 -133 15 -149 18 -26 70
-38 120 -29 28 6 35 11 35 31 0 40 -11 55 -40 55 -33 0 -40 23 -40 141 l0 79
35 0 c35 0 35 0 35 45 0 43 -1 45 -30 45 l-30 0 0 65 c0 36 -3 65 -7 64 -5 0
-27 -13 -50 -27z"/>
<path d="M1220 530 l0 -70 130 0 130 0 0 70 0 70 -130 0 -130 0 0 -70z"/>
<path d="M4985 561 c-64 -39 -94 -99 -94 -186 -1 -130 99 -214 226 -190 64 12
148 115 94 115 -10 0 -32 3 -49 6 -25 5 -31 2 -37 -15 -7 -24 -43 -36 -81 -27
-21 6 -54 54 -54 81 0 3 56 5 125 5 l125 0 0 28 c0 50 -29 127 -57 154 -53 51
-142 64 -198 29z m135 -83 c11 -12 20 -32 20 -45 0 -23 -2 -24 -72 -21 -71 3
-73 4 -70 27 6 59 81 83 122 39z"/>
<path d="M5363 561 c-29 -18 -70 -77 -61 -86 2 -2 22 -7 45 -11 35 -5 43 -3
52 15 9 17 21 21 57 21 39 0 46 -3 55 -27 12 -32 4 -38 -71 -54 -131 -27 -180
-92 -135 -179 30 -59 105 -76 175 -40 47 24 50 24 50 5 0 -11 12 -15 51 -15
45 0 50 2 43 18 -4 9 -10 83 -13 164 -6 145 -7 148 -34 175 -24 25 -36 28
-105 31 -63 2 -83 -1 -109 -17z m153 -228 c-7 -41 -46 -83 -76 -83 -26 0 -50
27 -50 55 0 28 10 36 65 52 66 18 68 18 61 -24z"/>
<path d="M5950 383 l0 -193 50 0 50 0 0 195 0 194 -50 -2 -50 -2 0 -192z"/>
<path d="M6305 568 c-11 -6 -30 -20 -42 -31 l-23 -20 0 26 c0 25 -3 27 -45 27
l-45 0 0 -190 0 -190 49 0 49 0 4 134 c3 152 14 176 73 176 58 0 65 -20 65
-173 l0 -137 50 0 50 0 0 150 c0 168 -8 198 -60 225 -34 17 -96 19 -125 3z"/>
<path d="M6655 566 c-67 -30 -95 -84 -95 -181 0 -72 11 -109 43 -144 51 -55
131 -62 182 -15 l25 23 0 -47 c0 -73 -5 -76 -122 -82 l-103 -5 -3 -39 -3 -38
118 3 c199 6 206 17 211 317 l4 212 -46 0 c-43 0 -46 -2 -46 -27 l0 -27 -29
28 c-34 33 -92 43 -136 22z m126 -85 c19 -15 24 -30 27 -84 4 -63 3 -68 -26
-97 -17 -16 -39 -30 -49 -30 -74 0 -109 144 -50 208 25 27 67 29 98 3z"/>
</g>
</svg>
